<svg width="35" height="34" viewBox="0 0 35 34" fill="none" xmlns="http://www.w3.org/2000/svg">
<path d="M11.6417 6.50542C11.3885 6.79001 11.187 6.55992 10.7877 7.2623C10.2437 8.21943 10.8975 9.17852 11.7163 9.64396C12.8081 10.2646 14.5433 9.5415 14.9045 8.56713C15.0134 8.28235 14.6965 8.21297 15.1112 7.43267C15.6164 7.20463 16.5196 7.07277 16.9602 6.29761C17.2084 5.8609 16.9487 5.80956 16.8838 5.83048C16.6163 5.99497 16.3625 6.18082 16.1249 6.38622C16.0958 6.36967 16.0697 6.29703 16.0697 6.29703C16.2355 5.98212 16.2835 5.61838 16.205 5.27126C16.4271 5.13062 16.6176 4.94543 16.7645 4.72739C16.8764 4.51408 16.917 4.2705 16.8803 4.03241C16.3842 3.99022 15.9048 3.83309 15.4799 3.57347C14.9943 3.303 14.6018 2.89193 14.3542 2.39427C14.1985 2.44072 14.0537 2.51773 13.9281 2.62081C13.8025 2.72388 13.6988 2.85096 13.6229 2.9946C13.5423 3.10441 13.4961 3.23573 13.4903 3.37185C13.4531 3.43736 12.9278 3.75995 12.8554 3.88732C12.8244 3.94191 12.7586 3.98153 12.7275 4.03612C12.6965 4.09071 12.6779 4.12346 12.6451 4.10484C12.4377 3.98692 13.1519 3.21321 12.8644 3.04979C12.5005 2.84292 11.8393 4.55684 12.2032 4.7637L12.2541 4.79266C12.3524 4.84852 11.8251 6.30147 11.6417 6.50542Z" fill="#FCCD97"/>
<path d="M12.6464 4.10407C12.6719 4.11855 12.7123 4.06446 12.7288 4.03535C12.7454 4.00624 12.8257 3.94114 12.8567 3.88655C12.9291 3.75918 13.4544 3.43659 13.4916 3.37109C13.4974 3.23496 13.5436 3.10364 13.6242 2.99383C13.7001 2.8502 13.8038 2.72312 13.9294 2.62004C14.055 2.51696 14.1998 2.43995 14.3555 2.3935C14.6031 2.89116 14.9956 3.30223 15.4812 3.5727C15.9061 3.83232 16.3855 3.98946 16.8816 4.03165C16.9183 4.26973 16.8777 4.51331 16.7658 4.72663C16.6189 4.94466 16.4284 5.12985 16.2063 5.27049C16.2848 5.61761 16.2368 5.98136 16.071 6.29627C16.071 6.29627 16.0971 6.3689 16.1263 6.38545C16.3638 6.18006 16.6176 5.9942 16.8851 5.82971C16.9068 5.82112 16.9309 5.82107 16.9526 5.82956L17.0126 5.72402C18.5703 2.98365 17.2008 1.91145 16.5748 1.55564C15.847 1.14191 14.1718 0.844547 13.0775 2.76972L12.9016 3.07906C13.0667 3.28845 12.4499 3.99236 12.6464 4.10407Z" fill="#3F3F3F"/>
<path d="M34.1205 13.516C34.1004 13.8401 33.8083 13.9654 33.5081 13.9481C33.4716 13.9417 33.4359 13.9313 33.4016 13.9171C33.4579 13.9789 33.6946 14.0725 33.6824 14.2421C33.6335 14.9909 31.9437 14.9733 31.2227 14.9285C30.933 14.9101 30.6463 14.8585 30.3684 14.7747C29.9707 15.0219 29.5534 15.251 29.1281 15.4654C28.8772 14.9653 28.6948 14.4337 28.586 13.8849C29.6953 13.5025 29.5855 13.1571 29.7791 12.8176C30.3959 11.7186 32.0227 10.9466 31.9712 11.6904C31.9627 11.8612 31.64 12.0064 31.6229 12.1788C31.6118 12.2168 31.6601 12.235 31.6533 12.2866C31.6465 12.3383 31.6456 12.3132 31.6423 12.3246C31.6389 12.336 31.629 12.3703 31.6784 12.3846C32.1994 12.1816 33.208 11.5926 33.3258 11.6269C33.3908 11.6368 33.4498 11.6705 33.4914 11.7215C33.5329 11.7724 33.5541 11.837 33.5507 11.9027C33.5507 11.9027 33.543 11.9293 33.5375 11.9483C33.5319 11.9673 33.5456 12.062 33.5415 12.1185C33.528 12.3208 33.2042 12.3709 33.0186 12.4984C32.121 13.2021 34.3363 11.7683 34.256 12.9368C34.2582 12.958 34.2545 12.9793 34.2453 12.9985C34.2361 13.0176 34.2217 13.0339 34.2038 13.0454C33.5071 13.3705 34.148 13.2229 34.1205 13.516Z" fill="#3F3F3F"/>
<path d="M23.6625 6.46695C23.4458 6.22518 23.1389 6.30809 22.9141 6.50777C22.8895 6.53542 22.8679 6.56572 22.8498 6.59811C22.8557 6.51478 22.9833 6.29453 22.8685 6.16906C22.3658 5.612 21.0511 6.67382 20.5133 7.15619C20.2975 7.3503 20.1046 7.56854 19.9386 7.80664C19.4733 7.85942 19.0039 7.93846 18.5373 8.03405C18.6506 8.58197 18.8373 9.11211 19.0923 9.61015C20.1996 9.22211 20.3277 9.56114 20.6902 9.70738C21.8556 10.1869 23.6105 9.78355 23.1088 9.23201C22.9962 9.10331 22.653 9.18949 22.5326 9.06495C22.5004 9.04199 22.527 8.99777 22.4897 8.96147C22.4523 8.92517 22.4671 8.94539 22.4574 8.9385C22.4477 8.93162 22.4187 8.91095 22.4485 8.86901C22.9831 8.70518 24.1396 8.54169 24.2108 8.44168C24.2556 8.39358 24.281 8.33055 24.282 8.2648C24.283 8.19906 24.2596 8.13529 24.2162 8.08586C24.2162 8.08586 24.1936 8.06978 24.1775 8.0583C24.1614 8.04682 24.1134 7.96404 24.0751 7.92222C23.939 7.77192 23.6539 7.9335 23.4293 7.94861C22.2887 7.95326 24.9157 7.70402 24.1281 6.83719C24.1167 6.81923 24.1005 6.8048 24.0814 6.79549C24.0623 6.78617 24.041 6.78234 24.0198 6.78443C23.2716 6.9615 23.8659 6.67973 23.6625 6.46695Z" fill="#3F3F3F"/>
<path d="M6.7858 9.02241C6.7858 7.78072 9.51775 6.78046 10.8837 6.43555C10.8837 6.43555 12.2614 8.01021 13.4449 8.50504C17.7729 7.47029 19.5918 7.47029 19.5918 7.47029C19.5918 7.47029 19.8219 8.50504 19.8219 9.69237C18.992 10.2097 16.5183 10.5745 16.5183 10.5745V12.1267L23.6897 15.2309L28.7886 13.4538C28.7886 13.4538 29.0109 14.3487 29.3243 15.2309C30.0667 15.9009 22.153 17.8178 22.153 17.8178L13.9572 16.783L11.9082 19.8873L4.22461 19.3699C5.07834 16.4381 6.7858 10.2641 6.7858 9.02241Z" fill="#2C62FF"/>
<path d="M13.9414 27.5004L17.5075 25.5972C17.5075 25.5972 22.3517 31.4478 23.6207 30.831C23.6207 30.831 24.9113 30.3508 26.0083 29.6195C27.471 29.073 27.8366 29.9851 26.0083 31.8135C24.18 32.5448 24.18 33.2761 24.18 33.2761C24.18 33.2761 23.8143 33.6418 23.083 33.6418C22.3517 33.6418 21.583 32.7342 21.583 32.7342L13.9414 27.5004Z" fill="#3F3F3F"/>
<path d="M19.0095 28.3339C18.6777 27.5083 15.5261 24.8662 15.5261 24.8662L9.55469 27.3432L13.5356 29.8201C15.8579 30.1504 14.7299 33.5851 15.5261 32.7924C16.3223 31.9998 19.5071 31.3063 19.0095 28.3339Z" fill="#FCCD97"/>
<path d="M17.5989 25.4928L16.1363 23.9257L14.186 23.4033L13.2109 24.9705L15.6487 27.06L17.5989 25.4928Z" fill="#FCCD97"/>
<path d="M15.4048 33.0145C15.4048 29.9851 13.9371 29.056 13.9371 29.056L5.1314 29.5508C5.1314 29.5508 3.98512 28.2879 3.17457 28.5612C2.36403 28.8345 2.19616 30.5404 2.19616 30.5404C2.19616 30.5404 -0.715953 32.9295 0.239285 33.5092C0.730751 33.8075 2.19616 33.5092 2.19616 33.5092L4.6422 32.0248C4.6422 32.0248 9.39072 32.9095 12.4695 33.0145C13.6152 33.0535 14.5355 33.7617 15.4048 33.0145Z" fill="#3F3F3F"/>
<path d="M4.43555 31.8136C4.43555 30.6435 4.9231 29.8634 5.16688 29.6196H5.53254L4.80121 31.8136H4.43555Z" fill="#2C62FF"/>
<path d="M23.1213 30.994C22.8452 32.131 22.1873 32.774 21.8928 32.9534L21.5375 32.8671C21.5375 32.8671 22.8903 31.6759 22.766 30.9077C22.9081 30.9214 22.766 30.9077 23.1213 30.994Z" fill="#2C62FF"/>
<path d="M14.5249 33.3764C14.5249 33.3764 14.297 33.3725 14.1533 33.3503C14.1533 30.7168 13.0303 29.442 13.0303 29.442C13.0303 29.442 13.2895 29.354 13.4097 29.4406C14.6731 30.3511 14.5249 33.3764 14.5249 33.3764Z" fill="#2C62FF"/>
<path d="M7.81377 17.5527L4.29306 19.0486C4.29306 19.0486 2.96571 23.3683 4.29306 25.5309C5.57242 27.6152 9.82561 28.5227 9.82561 28.5227L16.867 24.035L11.8374 19.0486L7.81377 17.5527Z" fill="#3F3F3F"/>
<path d="M6.35057 19.5263C6.35057 19.5263 5.96433 19.7615 6.27939 20.0151C7.16515 20.6604 7.93417 21.4523 8.55328 22.3566C9.38094 23.6549 9.85802 24.4129 10.5118 24.8198C10.8761 25.0377 11.2023 25.3139 11.4774 25.6372C11.5174 25.6634 11.5623 25.6811 11.6093 25.6892C11.6564 25.6974 11.7046 25.6959 11.7511 25.6847C11.7975 25.6736 11.8412 25.6531 11.8794 25.6244C11.9177 25.5958 11.9496 25.5596 11.9734 25.5182C12.1962 25.2063 12.4155 25.1391 11.6113 24.7026C10.8071 24.2662 10.6499 24.251 10.1285 23.1377C9.58293 22.1975 8.91552 21.3335 8.14363 20.5682C7.68115 20.1073 7.19469 19.6711 6.68621 19.2615L6.35057 19.5263Z" fill="#2C62FF"/>
</svg>
