<svg width="44" height="32" viewBox="0 0 44 32" fill="none" xmlns="http://www.w3.org/2000/svg">
<path d="M24.8633 6.77028C24.9108 6.77028 24.9584 6.77027 25.0019 6.75047C25.4852 6.64352 26.3844 5.5621 26.2616 4.97187C26.226 4.81342 26.1745 4.6629 26.1388 4.50841C25.9804 3.7835 26.5349 3.50225 27.2559 4.36976C27.3509 4.32223 27.4421 4.28262 27.5252 4.25093C27.5409 4.17381 27.5409 4.09433 27.5252 4.01721C27.4975 3.89045 27.6916 3.62109 27.9451 3.44283C27.9847 3.28834 28.06 3.18139 28.0243 3.0269C28.0024 2.96802 27.9731 2.91213 27.9372 2.86053C28.1845 2.76345 28.4545 2.73946 28.715 2.79143C28.9756 2.8434 29.2157 2.96913 29.4068 3.15366C29.5541 3.29237 29.6538 3.47394 29.692 3.67259C29.7499 3.97709 29.7197 4.2918 29.6049 4.57971C29.8188 4.86096 30.2466 4.74608 29.4702 5.47891C29.4791 5.50468 29.4857 5.53119 29.49 5.55813L29.4108 6.7465C29.3795 6.80273 29.3351 6.85051 29.2813 6.88571C29.2274 6.92091 29.1658 6.94247 29.1018 6.94853C28.6689 7.04894 28.2498 7.20192 27.854 7.40407C27.722 7.71081 27.6794 8.04864 27.7312 8.37854C27.7986 8.8222 25.4416 9.42827 24.8633 6.77028Z" fill="#FCCD97"/>
<path d="M29.6886 3.67262C29.6504 3.47397 29.5506 3.29241 29.4034 3.1537C29.2122 2.96917 28.9721 2.84343 28.7116 2.79146C28.451 2.7395 28.181 2.76348 27.9337 2.86056C27.9696 2.91216 27.9989 2.96806 28.0209 3.02693C28.0566 3.18142 27.9813 3.28838 27.9417 3.44287C27.6882 3.60528 27.4941 3.89048 27.5218 4.01724C27.5375 4.09436 27.5375 4.17385 27.5218 4.25096C27.4386 4.28265 27.3475 4.32226 27.2524 4.36979C26.5473 3.50228 25.9769 3.78353 26.1354 4.50844C26.171 4.66293 26.2225 4.81345 26.2582 4.9719C26.2778 5.28062 26.1849 5.58599 25.9967 5.83149C25.7313 5.31257 25.3788 4.61143 25.3669 4.5639C25.355 4.51636 25.3669 4.37772 25.3272 4.27869C25.2876 4.17966 25.3075 4.20739 25.2995 4.1757C25.1649 3.55378 25.4223 2.19508 27.3475 1.77519C29.851 1.22854 30.0807 2.96356 29.6886 3.68847C29.6868 3.68334 29.6868 3.67774 29.6886 3.67262Z" fill="#3F3F3F"/>
<path d="M24.0665 2.90395C24.0943 3.03863 23.8883 3.41495 23.6704 3.34365C23.3725 3.24189 23.0539 3.21602 22.7435 3.26838C22.5198 3.30577 22.3119 3.40765 22.1453 3.56151C22.3632 4.09232 22.8663 3.85861 22.9376 4.12401C22.9605 4.18025 22.9702 4.24102 22.966 4.30162C22.9617 4.36221 22.9436 4.42102 22.9129 4.47348C22.8823 4.52594 22.84 4.57064 22.7893 4.60415C22.7387 4.63766 22.681 4.65905 22.6207 4.6667C21.8007 4.84495 20.4499 3.65262 19.7369 3.80711C19.6497 3.82692 19.5666 3.84672 19.4913 3.87049C19.2474 3.6416 19.0344 3.38194 18.8575 3.09805C18.8557 2.9592 18.8817 2.82139 18.9341 2.69279C18.9865 2.56419 19.0642 2.44742 19.1625 2.34938L19.8439 2.20281C19.9544 2.09362 20.0708 1.99047 20.1924 1.89383C20.1924 1.89383 21.6264 0.871837 21.6343 0.871837C21.7644 0.853809 21.8969 0.870301 22.0186 0.919666C22.1403 0.969031 22.2468 1.04953 22.3276 1.15308C22.8702 0.919368 23.1198 1.15308 23.1911 1.39868C23.221 1.38895 23.2514 1.38102 23.2822 1.37491C23.5793 1.30757 23.8091 1.46998 23.7338 1.9889C23.3886 2.07756 23.0677 2.24273 22.795 2.47217C23.2584 2.49198 23.9715 2.46821 24.0665 2.90395Z" fill="#3F3F3F"/>
<path d="M43.5646 3.72362C43.6359 4.04052 43.3903 4.24254 43.0971 4.30989C43.0603 4.31397 43.0231 4.31397 42.9862 4.30989C43.0575 4.35346 43.311 4.37723 43.3467 4.5436C43.5091 5.27643 41.881 5.73197 41.1759 5.89042C40.8925 5.95373 40.6028 5.9843 40.3124 5.98153C39.9994 6.33012 39.6627 6.66682 39.3141 6.99164C38.9333 6.58143 38.6095 6.12175 38.3516 5.62502C39.3102 4.94765 39.1082 4.64659 39.1993 4.26631C39.4845 3.03833 40.8313 1.84204 40.9898 2.5709C41.0294 2.73727 40.76 2.96703 40.7917 3.13736C40.7917 3.17698 40.8432 3.18093 40.8511 3.23243C40.859 3.28392 40.8511 3.26016 40.8511 3.27204C40.8511 3.28393 40.8511 3.31958 40.9026 3.31958C41.3463 2.97891 42.1504 2.13121 42.2732 2.13121C42.3384 2.12257 42.4045 2.13846 42.4587 2.17578C42.5128 2.21311 42.5512 2.26921 42.5663 2.33323C42.5663 2.33323 42.5663 2.36096 42.5663 2.38076C42.5663 2.40057 42.6059 2.48772 42.6178 2.54318C42.6614 2.74124 42.3643 2.87988 42.2217 3.05417C41.5562 3.9811 43.2833 1.98464 43.5329 3.12944C43.5409 3.14914 43.5433 3.17068 43.5398 3.19166C43.5363 3.21264 43.527 3.23224 43.5131 3.24828C42.9347 3.75532 43.5091 3.43445 43.5646 3.72362Z" fill="#3F3F3F"/>
<path d="M38.1323 5.7841C37.9501 5.90293 37.7362 6.03365 37.4747 6.18022C37.1341 6.37036 35.6407 7.79244 34.1235 8.12122C33.0817 8.35098 32.8361 8.18857 31.9924 8.72333C31.9361 8.76098 31.8747 8.79033 31.8101 8.81048C31.4359 8.72577 31.0475 8.72577 30.6733 8.81048C29.8573 8.98874 29.988 8.83425 29.4849 8.93724C28.9115 8.64274 28.3231 8.3783 27.7222 8.145C27.7222 8.22422 27.7222 8.30345 27.7222 8.38663C27.7935 8.83425 25.4365 9.43636 24.8582 6.77837C24.9057 6.77837 24.9533 6.77837 24.9968 6.75856C25.1167 6.72428 25.2285 6.66636 25.3256 6.58823C24.0778 5.66526 20.6157 4.9047 18.9401 4.11641C19.0416 4.05943 19.1461 4.00786 19.253 3.96193C18.9842 3.67251 18.749 3.35358 18.5519 3.01123C18.5436 2.90144 18.5592 2.79115 18.5974 2.68791C18.6357 2.58468 18.6959 2.49093 18.7737 2.41309C18.6707 2.41309 18.5677 2.43289 18.4608 2.43685C17.9612 2.43297 17.4628 2.48612 16.9753 2.5953C16.371 2.70611 15.8167 3.00403 15.3908 3.44697C15.2371 3.71856 15.1759 4.03279 15.2165 4.34221C15.5017 5.63753 16.7495 5.55435 18.2191 6.86948C19.2451 7.78849 18.6905 6.70707 20.0651 8.76295C20.0374 8.94517 19.9938 9.15907 19.9463 9.38486C19.2174 12.8232 17.4031 13.5085 15.8107 14.7325C15.4176 15.031 15.0565 15.3696 14.7333 15.7426L13.7548 16.2497C13.3561 16.5706 12.974 16.9117 12.61 17.2717L10.6294 18.6542L9.04492 19.3672C9.07265 19.4979 9.09246 19.6247 9.12019 19.7633C9.37767 20.9517 11.2078 22.5837 11.9525 23.2135C13.1409 22.6907 15.2007 21.6568 15.8107 21.427C15.8107 22.5599 14.7491 22.9679 14.6224 23.8513C14.5651 24.0987 14.4354 24.3235 14.25 24.497C15.6681 25.5863 16.1038 26.6717 17.3794 27.3689C22.0497 21.9658 22.1606 20.2703 22.6201 18.9552C22.6295 18.934 22.6414 18.9141 22.6557 18.8958C23.0519 18.3373 26.5061 14.4751 28.4906 12.6014C29.4504 12.3915 30.3973 12.127 31.3269 11.8091C31.7787 11.6134 32.21 11.3733 32.6143 11.0922C34.2859 10.601 36.9439 9.14322 39.1186 7.17449C38.7127 6.77091 38.379 6.30062 38.1323 5.7841ZM16.9674 15.097H16.9397C16.8961 15.0692 16.8486 14.9583 16.7812 14.887H16.8089C18.9005 13.6432 19.7363 11.7893 20.4374 10.1969C21.1029 8.69164 21.6456 7.42405 23.0083 7.11903C23.4611 7.06931 23.9181 7.06931 24.371 7.11903C24.371 7.16657 24.4106 7.39236 24.4106 7.44386C23.9045 7.39861 23.3955 7.39861 22.8895 7.44386C21.2257 7.8281 19.7403 14.17 16.9674 15.097ZM22.327 17.9926C22.2953 17.9926 22.2002 17.9372 22.1962 17.8857C22.1923 17.8342 28.2371 12.5459 27.845 9.78495C27.7855 9.34129 27.4884 9.29772 27.3379 9.19076C27.4369 9.14323 27.532 9.04816 27.6112 9.02043C27.8568 8.93724 28.146 9.65027 28.1817 9.91963C28.5263 12.1657 23.2222 17.4896 22.3428 17.9926H22.327Z" fill="#2C62FF"/>
<path d="M14.8516 24.9844C15.7151 25.7766 16.1865 26.5689 17.0223 27.1274C16.5985 27.8682 15.0021 29.3774 14.4079 28.3752C13.2908 26.5015 14.1148 26.7194 14.8516 24.9844Z" fill="#FCCD97"/>
<path d="M9.442 20.4678C10.0167 21.3305 10.7072 22.1102 11.4939 22.7851C10.5353 23.3238 8.63787 23.9457 8.32493 22.5276C8.13479 21.6641 8.77651 20.8599 9.442 20.4678Z" fill="#FCCD97"/>
<path d="M9.4617 23.3954C9.27633 23.5659 9.07315 23.716 8.85565 23.843C8.42309 23.5315 8.10779 23.0837 7.9604 22.5714C7.89211 22.0598 7.95479 21.5391 8.14261 21.0582C8.3035 21.0003 8.4675 20.9514 8.63382 20.9117C8.72799 20.8927 8.82323 20.8794 8.91902 20.8721C8.68815 21.0755 8.51231 21.3339 8.40776 21.6233C8.30321 21.9127 8.27332 22.2238 8.32087 22.5279C8.36742 22.7893 8.51059 23.0236 8.72195 23.1843C8.9333 23.345 9.19737 23.4204 9.4617 23.3954Z" fill="#3F3F3F"/>
<path d="M14.5908 28.5693C14.3882 28.6388 14.1819 28.697 13.9728 28.7436C12.8082 28.9971 11.707 28.1494 10.5939 28.5336C10.4547 28.382 10.3554 28.1983 10.3047 27.9989C10.1304 27.2066 10.8236 26.9293 11.4059 26.6124C11.4298 26.6239 11.4551 26.6319 11.4812 26.6362C12.5745 26.2401 13.1766 25.4716 13.7232 25.3528C14.0363 25.2699 14.368 25.2936 14.666 25.4201C14.0005 26.6956 13.4182 26.6758 14.4284 28.3791C14.4708 28.4516 14.5258 28.516 14.5908 28.5693Z" fill="#3F3F3F"/>
<path d="M10.3854 28.6128L10.3339 28.6405C9.94725 28.8402 9.55061 29.02 9.14556 29.1792C8.78905 29.8209 8.61476 30.6607 7.09365 30.9935L6.87182 31.037C6.76787 30.9881 6.67744 30.9146 6.60841 30.8227C6.53937 30.7309 6.49381 30.6236 6.47569 30.5102C6.34894 29.916 6.95499 28.5296 7.89777 27.7848C8.19455 27.5677 8.46099 27.312 8.69001 27.0243C9.28024 26.2004 9.00295 25.931 9.70409 25.7765C9.88995 25.7457 10.079 25.739 10.2666 25.7567C10.5179 26.0223 10.7983 26.2588 11.1024 26.4618C9.54565 27.1511 9.87443 28.0067 10.3854 28.6128Z" fill="#3F3F3F"/>
<path d="M22.6674 18.8841C22.6532 18.9023 22.6412 18.9223 22.6318 18.9435C22.1723 20.2586 22.0614 21.954 17.3911 27.3572C16.1156 26.66 15.6798 25.5746 14.2617 24.4853C14.4471 24.3118 14.5768 24.087 14.634 23.8396C14.7608 22.9562 15.8224 22.5482 15.8224 21.4153C15.2124 21.6451 13.1724 22.6789 11.9642 23.2018C11.2195 22.572 9.38936 20.936 9.13188 19.7516C9.10415 19.6248 9.08437 19.4981 9.05664 19.3555L10.6134 18.6504L12.594 17.2679C12.9486 16.9033 13.3214 16.5569 13.7111 16.23L14.6895 15.723C15.0127 15.3499 15.3738 15.0114 15.767 14.7129C16.48 15.1565 15.767 14.7129 16.9553 15.0773H16.9831C18.1714 15.4497 16.9831 15.0773 18.425 15.9845C18.8245 16.2676 19.2503 16.5117 19.6965 16.7133C20.3303 17.0778 20.1481 17.0777 20.6076 17.5293C21.1261 17.9486 21.6862 18.3137 22.2792 18.6187L22.6674 18.8841Z" fill="#3F3F3F"/>
<path d="M8.8556 23.8438L8.55454 24.0062C8.08847 23.6641 7.75978 23.1668 7.6276 22.604C7.49803 22.1301 7.5577 21.6244 7.79399 21.1938L8.14256 21.0591C7.95475 21.5399 7.89206 22.0606 7.96036 22.5723C8.10774 23.0845 8.42304 23.5324 8.8556 23.8438Z" fill="#2C62FF"/>
<path d="M4.38314 26.1414C4.31849 26.2834 4.23596 26.4165 4.13755 26.5375C2.65208 28.3716 3.20271 29.4292 1.57464 29.7818C1.05572 29.8967 0.604131 29.8214 0.406069 28.9064C0.0337127 27.1991 1.74497 27.1991 2.24012 25.6304C2.34312 25.2937 2.98088 24.7629 3.42849 24.5371C3.36465 24.7001 3.33758 24.8751 3.34922 25.0497C3.36086 25.2243 3.41092 25.3942 3.49583 25.5472C3.72046 25.8351 4.03144 26.0433 4.38314 26.1414Z" fill="#3F3F3F"/>
<path d="M8.55383 24.0058C7.36546 24.5961 5.93545 24.6555 4.48563 25.8716V25.9033C4.31808 25.8854 4.15647 25.8311 4.01209 25.7442C3.86772 25.6573 3.74408 25.5399 3.64982 25.4002C3.58692 25.2413 3.56274 25.0696 3.57927 24.8995C3.5958 24.7294 3.65256 24.5656 3.74489 24.4218L3.99445 24.3623C4.74312 23.4275 6.24839 21.8866 7.80515 21.1934C7.56886 21.624 7.50921 22.1297 7.63879 22.6036C7.7679 23.1647 8.09221 23.6617 8.55383 24.0058Z" fill="#3F3F3F"/>
<path d="M4.47522 25.9029L4.3841 26.1406C4.03369 26.0378 3.72549 25.8254 3.50471 25.5345C3.4198 25.3815 3.36974 25.2116 3.3581 25.037C3.34646 24.8623 3.37353 24.6873 3.43738 24.5244L3.73447 24.4214C3.64215 24.5652 3.58536 24.729 3.56883 24.8991C3.5523 25.0693 3.57648 25.2409 3.63938 25.3998C3.73364 25.5395 3.85731 25.6569 4.00168 25.7438C4.14605 25.8307 4.30767 25.885 4.47522 25.9029Z" fill="#2C62FF"/>
<path d="M10.2849 27.9984C10.3356 28.1978 10.4349 28.3816 10.574 28.5332L10.3839 28.6124C9.87292 28.0063 9.54413 27.1507 11.0692 26.4614L11.3861 26.612C10.8038 26.9289 10.1106 27.2022 10.2849 27.9984Z" fill="#2C62FF"/>
<path d="M24.4242 7.40833C23.9182 7.36309 23.4091 7.36309 22.9031 7.40833C21.2275 7.84011 19.7341 14.182 16.985 15.109H16.9573C16.9137 15.0812 16.8662 14.9703 16.7988 14.899H16.8266C18.9181 13.6552 19.7539 11.8013 20.455 10.2089C21.1205 8.70365 21.6632 7.43606 23.0259 7.13104C23.4787 7.08132 23.9357 7.08132 24.3885 7.13104C24.3885 7.13104 24.4242 7.36872 24.4242 7.40833Z" fill="#3F3F3F"/>
<path d="M22.3436 17.9926C22.3119 17.9926 22.2169 17.9371 22.2129 17.8856C22.2089 17.8341 28.2538 12.5459 27.8616 9.7849C27.8022 9.34124 27.5051 9.29767 27.3546 9.19072C27.4536 9.14318 27.5487 9.04811 27.6279 9.02038C27.8735 8.93719 28.1627 9.65022 28.1983 9.91958C28.5271 12.1656 23.223 17.4895 22.3436 17.9926Z" fill="#3F3F3F"/>
<path d="M19.474 3.87061L19.2561 3.9538C18.9864 3.66707 18.7498 3.3508 18.551 3.01102C18.5427 2.90123 18.5583 2.79094 18.5965 2.6877C18.6348 2.58447 18.695 2.49073 18.7728 2.41288L19.1689 2.35742C19.0706 2.45546 18.9929 2.57224 18.9405 2.70084C18.8881 2.82944 18.8621 2.96724 18.8639 3.1061C19.034 3.38581 19.239 3.64271 19.474 3.87061Z" fill="#FCCD97"/>
<path d="M39.3133 7.00334L39.1311 7.17367C38.7208 6.77104 38.3831 6.30069 38.1328 5.78328L38.3507 5.63672C38.6087 6.13345 38.9324 6.59313 39.3133 7.00334Z" fill="#FCCD97"/>
</svg>
