<svg width="21" height="42" viewBox="0 0 21 42" fill="none" xmlns="http://www.w3.org/2000/svg">
<path d="M5.34739 39.3152C3.50145 40.563 2.34873 39.7114 1.84961 39.1568L1.98034 39.0261C1.98034 39.0261 2.11105 38.7607 2.29723 38.3091C3.12316 38.5244 3.97518 38.6231 4.82847 38.6022C4.92414 38.8875 5.10532 39.1365 5.34739 39.3152Z" fill="#2C62FF"/>
<path d="M6.75415 41.8236C4.99932 41.5384 4.99933 41.071 3.39503 41.2889C1.79073 41.5067 0.527086 40.5323 1.85014 39.1577C2.34925 39.7162 3.50198 40.564 5.34792 39.3162C5.76004 39.6423 6.22495 39.8955 6.72248 40.0648C8.88928 40.8769 8.51294 42.1049 6.75415 41.8236Z" fill="#3F3F3F"/>
<path d="M11.2606 26.6387L8.86402 27.2884L8.24606 27.4548L6.43974 27.942C5.85927 27.1135 5.18391 26.3557 4.42743 25.6841L1.508 22.8558C1.508 22.8558 0.418671 21.5169 1.25053 19.2114C2.05537 19.4498 2.8743 19.6376 3.70254 19.7739C3.96398 19.8135 4.23334 19.8532 4.49478 19.8848C5.44628 20.0038 6.40936 19.9958 7.35875 19.8611C7.51768 20.8468 7.84746 21.7972 8.33322 22.6696L11.2606 26.6387Z" fill="#3F3F3F"/>
<path d="M11.2735 30.9571C10.6123 31.4093 9.98954 31.9154 9.41173 32.4703L5.64062 30.8026C6.14597 30.2895 6.68598 29.8117 7.25682 29.3726C7.03161 28.877 6.7583 28.4047 6.4408 27.9624L11.2616 26.6592L11.8717 27.491C11.8717 27.491 13.7572 29.3251 11.2735 30.9571Z" fill="#FCCD97"/>
<path d="M9.40889 32.4702C9.25044 32.6207 9.08802 32.7792 8.92957 32.9376L8.7632 33.1C7.74981 34.1423 6.79502 35.2399 5.9032 36.3879C5.9032 36.3879 4.86931 37.3782 4.80593 38.3051C4.79104 38.4238 4.80324 38.5443 4.84159 38.6576C4.87171 38.7544 4.92012 38.8445 4.98419 38.9231C4.68422 39.0873 4.35409 39.1892 4.01371 39.2226C3.67333 39.2559 3.32973 39.2201 3.00357 39.1171C2.69481 39.004 2.41482 38.8241 2.18359 38.5903C2.77065 37.1951 3.21139 35.7428 3.49873 34.2567C3.65718 33.2545 4.34247 32.2325 5.08322 31.3809C5.12283 31.3294 5.17035 31.2779 5.21393 31.2264C5.35653 31.0719 5.49914 30.9253 5.63778 30.7827L9.40889 32.4702Z" fill="#3F3F3F"/>
<path d="M16.9877 20.1588C16.2505 19.6707 15.4095 19.3614 14.5317 19.2556L14.5 17.1562L15.5458 17.0809C15.5458 17.0809 16.0766 15.3815 16.5163 16.5144L16.4529 17.4255L19.2258 17.4889C19.2258 17.4889 21.0677 19.9053 16.9877 20.1588Z" fill="#3F3F3F"/>
<path d="M14.5321 19.2551C14.1389 19.1954 13.7413 19.1702 13.3438 19.1798L13.3754 17.1992C13.675 17.2147 13.9751 17.2147 14.2747 17.1992H14.5203L14.5321 19.2551Z" fill="#FCCD97"/>
<path d="M18.1158 15.9798C16.571 15.9798 15.5371 15.9798 14.8835 15.9798L14.6934 14.1972C15.2266 13.9832 15.6786 13.6061 15.9847 13.1198C15.9847 13.1198 18.1159 9.47939 17.3315 12.7434L17.2048 13.401L19.6211 13.3733C19.6211 13.3733 21.2571 16.0154 18.1158 15.9798Z" fill="#3F3F3F"/>
<path d="M14.8851 15.983C14.2077 15.983 13.9423 16.0147 13.9423 16.0147L13.5977 13.9707C13.7434 14.1034 13.922 14.1946 14.115 14.235C14.3079 14.2754 14.5082 14.2635 14.6949 14.2004L14.8851 15.983Z" fill="#FCCD97"/>
<path d="M13.9409 16.0153L10.4906 15.8885C7.53556 14.7556 10.2688 12.5254 10.2688 12.5254C10.2688 12.5254 10.3916 14.6011 13.5963 13.9713L13.9409 16.0153Z" fill="#2C62FF"/>
<path d="M15.669 0.843839C15.5779 0.843839 15.4749 0.740851 15.3838 0.73689C14.6708 0.73689 13.9419 0.0238609 12.8882 9.34394e-05C12.096 9.34394e-05 10.864 -0.0434749 10.3728 1.75097C10.254 2.18274 10.0044 3.59294 9.82617 4.64663L9.8539 4.62683C10.4362 4.25447 11.0423 4.70605 11.5572 3.48202C11.6369 3.3706 11.7441 3.28174 11.8684 3.22411C11.9927 3.16649 12.1298 3.14207 12.2663 3.15325C12.8763 3.15325 12.8288 3.62859 12.9041 4.25447C12.9437 4.25447 13.1219 4.48025 13.1932 4.40499C13.4428 4.13958 13.4666 3.12155 14.3222 3.28C14.3705 3.17007 14.4089 3.05607 14.4371 2.93934C14.4392 2.74945 14.4152 2.56017 14.3658 2.37684C14.6589 2.26171 14.976 2.22089 15.2887 2.258C15.4681 2.14042 15.6072 1.97071 15.6872 1.7717C15.7673 1.57269 15.7844 1.35394 15.7364 1.1449C15.7245 1.05775 15.6809 0.930986 15.669 0.843839Z" fill="#3F3F3F"/>
<path d="M9.82684 4.62708V4.65877L9.85457 4.63897C10.4369 4.26661 11.0429 4.71819 11.5579 3.49416C11.6376 3.38274 11.7448 3.29387 11.8691 3.23625C11.9933 3.17863 12.1304 3.15421 12.267 3.16539C12.877 3.16539 12.8295 3.64073 12.9047 4.26661C12.9443 4.26661 13.1226 4.4924 13.1939 4.41714C13.4434 4.15174 13.4672 3.13369 14.3229 3.29214C14.3712 3.18221 14.4096 3.06821 14.4377 2.95148C14.4399 2.76159 14.4159 2.57231 14.3664 2.38897C14.6596 2.27385 14.9767 2.23303 15.2894 2.27014C15.3084 2.40127 15.315 2.5339 15.3092 2.66627C15.3092 2.97128 15.2537 3.26441 15.2458 3.56943C15.2458 4.10419 15.0359 3.81899 15.0279 4.25473C15.0279 4.58747 15.1389 4.8806 15.119 5.146C15.119 5.21731 15.0517 5.29256 14.9051 5.2886C14.7444 5.29123 14.5842 5.26987 14.4298 5.22522C14.4259 5.27664 14.4259 5.3283 14.4298 5.37972C14.4298 5.69662 14.3268 5.64115 14.1763 5.72038C14.1763 5.78772 14.2555 5.82733 14.2555 5.87882C14.2555 5.93032 14.0773 6.08482 14.0535 6.22346C14.0297 6.3621 13.895 6.82557 13.6574 6.81765C13.4989 6.81765 13.0038 6.73842 12.8651 6.73842C12.0451 6.71861 11.7916 8.06147 11.2806 8.04959C10.833 8.04959 10.3339 7.65346 9.77138 7.08304C9.37525 6.68692 9.53372 5.98182 9.07422 5.68869C9.21592 5.69976 9.35799 5.67249 9.48553 5.60976C9.61307 5.54704 9.72137 5.45117 9.79911 5.33218C9.8579 5.22479 9.89101 5.10523 9.89582 4.98289C9.90063 4.86055 9.87701 4.73876 9.82684 4.62708Z" fill="#FCCD97"/>
<path d="M13.3577 17.1843L13.326 19.1649H13.1913C10.8146 19.26 7.9506 18.1271 7.9506 18.1271C7.9506 18.1271 7.21777 18.4202 7.38018 19.8423C5.16981 20.1988 2.57522 19.5848 1.25216 19.1927C1.25388 19.1835 1.25388 19.1741 1.25216 19.1649C1.25216 19.1649 -0.189729 13.0092 4.64298 8.80233C4.64298 8.80233 7.68124 4.84109 9.53906 5.4947C9.67852 6.00936 9.94107 6.48239 10.3041 6.87298C10.6671 7.26358 11.1196 7.56002 11.6227 7.73676L11.5514 7.95463C11.5514 7.95463 12.9299 10.1214 10.264 12.5061C10.264 12.5061 7.53072 14.7363 10.4858 15.8692C10.4937 15.889 10.8978 17.0853 13.3577 17.1843Z" fill="#2C62FF"/>
<path d="M7.82114 38.3283C6.23664 38.36 4.80664 38.2966 4.80664 38.2966C4.87002 37.3697 5.90391 36.3794 5.90391 36.3794C5.87222 36.4626 5.70583 37.0488 7.19525 37.2509C8.79163 37.4885 9.42148 38.3046 7.82114 38.3283Z" fill="#3F3F3F"/>
<path d="M8.93194 32.9383L8.67051 33.2037L4.9707 31.5162L5.2163 31.2271L8.93194 32.9383Z" fill="#2C62FF"/>
<path d="M8.86348 27.2884L8.42775 27.4152C7.89299 26.4249 7.40971 25.6445 7.06509 25.1137C6.07478 23.5847 5.48059 22.9469 4.71608 21.5169C4.41957 20.9621 4.15505 20.3907 3.92383 19.8057L4.19319 19.8453L4.51008 19.8849C4.66457 20.2176 4.90621 20.7168 5.23103 21.3109C6.08666 22.8677 6.70065 23.5213 7.58004 24.9394C8.05085 25.6982 8.47931 26.4824 8.86348 27.2884Z" fill="#2C62FF"/>
</svg>
