<svg width="46" height="20" viewBox="0 0 46 20" fill="none" xmlns="http://www.w3.org/2000/svg">
<path d="M45.3538 16.4833C45.3538 17.3983 44.7002 18.0678 44.2407 18.4639H44.0664C42.7909 18.4639 44.0149 17.2755 41.6659 15.5286C41.5698 15.4343 41.4785 15.3352 41.3926 15.2315C41.7752 14.7911 41.991 14.2303 42.0026 13.647C42.0026 13.5995 42.0026 13.5599 42.0026 13.5203C42.1175 13.5203 42.2284 13.5203 42.3433 13.5203C42.6483 13.5203 42.9533 13.5203 43.2623 13.5203C43.5347 13.5157 43.8048 13.5698 44.0545 13.6787C44.4074 14.0494 44.6106 14.5377 44.6249 15.0493C44.6448 15.4019 45.3538 15.4613 45.3538 16.4833Z" fill="#3F3F3F"/>
<path d="M32.0477 13.1209C32.0416 13.453 31.9772 13.7815 31.8575 14.0914L31.5684 14.7014C31.9043 14.8869 32.2869 14.9709 32.6696 14.943C33.244 14.943 33.1608 14.8004 33.755 14.8004C33.9768 14.8004 33.9808 14.2617 33.9808 13.9765C33.9808 12.6614 33.3984 12.1345 33.3351 12.1345C33.2717 12.1345 33.1687 12.2217 33.0657 12.2217C32.9197 12.2027 32.7822 12.1422 32.6696 12.0474C32.5072 12.4039 32.1705 12.7208 32.0477 13.1209Z" fill="#FCCD97"/>
<path d="M7.81524 3.11027C8.68671 2.78149 8.66691 2.26256 9.31655 2.25464C9.59291 2.37288 9.81192 2.59473 9.92658 2.87259H9.95035H10.3267C10.4322 2.97823 10.5205 3.09989 10.5881 3.23307C10.658 3.22913 10.7281 3.22913 10.798 3.23307C10.798 2.7696 11.0555 2.19522 11.313 2.19522C11.5705 2.19522 11.8597 2.51212 11.8597 3.01916C11.8474 3.3076 11.9435 3.5902 12.129 3.81141C11.9468 0.733526 10.7941 0.337402 9.53046 0.337402C8.59165 0.337402 7.26463 1.38317 7.05469 2.71414C7.28009 2.97398 7.54798 3.19365 7.84693 3.36379C7.82317 3.29248 7.81524 3.20534 7.81524 3.11027Z" fill="#3F3F3F"/>
<path d="M8.45714 4.43287C8.45714 4.52794 8.45714 4.62301 8.45714 4.71412C8.45714 4.9201 8.48091 5.3598 8.69085 5.3598C8.78852 5.34006 8.88404 5.31088 8.97606 5.27265C9.10859 5.50946 9.28308 5.72019 9.49102 5.89456C10.0254 5.56653 10.5956 5.30072 11.1904 5.10232C11.7062 4.93193 12.1976 4.69489 12.6521 4.39722C12.7059 4.34544 12.7466 4.28163 12.7709 4.21104C12.5031 4.15373 12.2648 4.00232 12.099 3.78428C11.9333 3.56625 11.8513 3.29603 11.8678 3.02267C11.8678 2.51563 11.5548 2.19873 11.3211 2.19873C11.0874 2.19873 10.818 2.77311 10.8062 3.23657C10.7362 3.23263 10.6661 3.23263 10.5962 3.23657C10.5286 3.1034 10.4404 2.98174 10.3348 2.8761H9.95844H9.93468C9.82001 2.59824 9.601 2.37639 9.32464 2.25815C8.675 2.25815 8.69481 2.78499 7.82334 3.11378C7.79774 3.37064 7.84333 3.62959 7.95512 3.86226C8.06691 4.09494 8.2406 4.29235 8.45714 4.43287Z" fill="#FCCD97"/>
<path d="M37.5062 18.7407C37.5062 19.5329 37.1101 19.5646 36.813 19.5646C36.1831 19.5646 35.0304 18.8001 33.8737 18.598C33.4963 18.7477 33.0906 18.8126 32.6853 18.7882H32.5507C32.5723 18.6573 32.5829 18.5248 32.5824 18.3921C32.6051 18.1143 32.5641 17.835 32.4625 17.5755C32.3609 17.3161 32.2014 17.0832 31.9961 16.8947H32.0476C32.4913 16.1302 32.8874 15.9401 33.236 15.8965C33.8465 16.0261 34.4081 16.3254 34.8561 16.76C35.6721 16.8908 36.7496 17.1562 37.0982 17.7266C37.3053 18.0314 37.4444 18.3773 37.5062 18.7407Z" fill="#3F3F3F"/>
<path d="M7.38565 9.50433C5.74966 10.0351 3.69774 11.9048 3.69774 10.7363C3.69774 10.4709 4.20874 10.1421 4.29192 10.1302C2.35092 10.4075 3.44026 11.481 2.0974 10.7125C2.02213 10.8591 1.80426 10.6095 1.70127 10.6095H1.59829C1.53095 10.6095 1.41211 10.6095 1.41211 10.3837C1.41211 9.89649 2.94115 9.04482 3.39273 9.04482C3.39273 9.04482 3.5789 9.04482 3.86807 9.00521C4.15724 8.9656 4.55337 8.9656 4.98514 8.9656C5.41692 8.9656 6.1141 8.49421 6.64887 8.10205C6.85308 8.59008 7.09962 9.05929 7.38565 9.50433Z" fill="#3F3F3F"/>
<path d="M25.5122 18.0521C25.5045 18.4558 25.4378 18.8561 25.3142 19.2405C25.025 19.2405 24.7358 19.284 24.4467 19.284C24.3675 19.2887 24.2881 19.2887 24.209 19.284C24.4884 18.7972 24.6638 18.2577 24.724 17.6995C24.724 17.6203 24.724 17.5451 24.724 17.4698C24.724 17.24 24.7517 17.2361 24.7517 17.0974C24.7512 16.9338 24.7059 16.7735 24.6207 16.6338C24.5355 16.4941 24.4137 16.3805 24.2684 16.3052H24.5695C24.7375 16.2953 24.9045 16.2715 25.0686 16.2339C25.3919 16.7832 25.5462 17.4156 25.5122 18.0521Z" fill="#3F3F3F"/>
<path d="M5.12659 13.4012C5.08359 13.971 4.85225 14.5103 4.46902 14.9342C4.0728 14.7979 3.65605 14.7309 3.23707 14.7361C2.95979 14.7361 2.48048 14.653 2.08832 14.653C1.41491 14.653 1.57335 15.1402 1.2208 15.1402C0.95144 15.1402 0.92767 15.0372 0.884097 14.9738C0.464206 14.344 0.947483 14.2053 1.21289 14.1816C0.963587 14.1886 0.717492 14.124 0.503821 13.9954V13.9677C0.503821 13.9082 0.503821 13.8449 0.503821 13.7815C0.516891 13.6501 0.580281 13.529 0.680704 13.4433C0.781126 13.3576 0.910797 13.3142 1.04256 13.322H1.19704C1.26258 13.3241 1.32804 13.3161 1.39113 13.2982H1.09801C0.796953 13.2982 0.369141 13.2586 0.369141 12.9021C0.387819 12.7693 0.458321 12.6494 0.56522 12.5684C0.672119 12.4875 0.806712 12.4522 0.93956 12.4703C1.28453 12.4397 1.6317 12.4955 1.94967 12.6327C0.808834 12.1732 1.09008 11.4958 1.59316 11.4958C1.91006 11.4958 2.29034 12.0663 2.56367 12.0663C2.72608 12.0663 2.78154 11.991 2.88453 11.9752C3.28065 10.0698 3.96594 11.9989 4.29076 12.9259C4.35018 12.9259 4.40961 12.9259 4.46902 12.9259L5.13054 13.2111C5.13457 13.2744 5.13326 13.338 5.12659 13.4012Z" fill="#3F3F3F"/>
<path d="M31.6362 16.9272C31.2613 16.9852 30.8826 17.0143 30.5033 17.0143C28.4276 17.0143 28.8673 16.2855 26.5698 16.0676C26.6479 15.6271 26.6797 15.1797 26.6648 14.7326V14.4078C26.6667 14.4 26.6667 14.3919 26.6648 14.3841C27.9324 14.5544 29.8338 15.8022 30.8756 15.9686C31.0341 15.6992 31.1807 15.4338 31.3589 15.1763L31.862 14.1147C31.982 13.8049 32.0464 13.4764 32.0521 13.1442C32.2225 12.657 32.6661 12.3004 32.7453 11.8211C32.785 11.5914 25.6904 7.14292 23.278 7.14292C23.0482 7.14292 22.8224 7.14292 22.5927 7.14292H21.5231C21.2766 7.07205 21.0446 6.95806 20.8379 6.80621C20.4368 6.43164 20.0063 6.08987 19.5505 5.78421C18.8929 5.3564 17.6966 4.14426 17.2411 3.82736C16.7855 3.51046 14.4167 2.33002 13.6205 2.75783C12.8243 3.18564 12.9273 4.16803 12.65 4.39778C12.1916 4.695 11.6962 4.93073 11.1764 5.09892C10.4862 5.32277 9.83326 5.64855 9.23935 6.06546C8.84322 6.46159 8.15001 7.0122 8.15001 7.0122C7.89649 7.25383 7.54394 7.35286 7.27854 7.5945C7.21912 7.646 7.07652 7.76879 6.88242 7.91536C6.98307 8.4877 7.24247 9.02025 7.63108 9.45232C9.18389 9.33348 10.2019 7.21818 9.27104 9.6385C9.21757 10.0893 9.19506 10.5433 9.2037 10.9972V11.0606C8.74023 12.039 7.72616 13.3581 7.72616 13.7503V13.778C7.64298 13.778 7.56375 13.778 7.48057 13.778C7.41282 13.7931 7.3439 13.8023 7.27458 13.8057L6.02679 13.6235L5.29792 13.3145C5.32298 13.3871 5.33504 13.4635 5.33357 13.5403C5.28771 14.0938 5.04944 14.6138 4.66016 15.0099C5.84853 15.5091 6.47044 16.5073 7.94006 16.5073C9.57605 16.5073 9.12843 15.3585 10.5782 13.9642C11.2992 13.2749 10.8991 12.9897 13.1214 11.1913C12.1509 10.6288 11.5131 10.1535 11.5131 8.92944C11.5131 7.84406 11.7904 7.91932 12.0043 7.82425C11.8349 8.27984 11.7426 8.76043 11.731 9.24633C11.731 10.1851 12.4955 10.7754 13.3868 10.9853L13.4383 10.9457L13.5809 11.0249H13.6126C13.8634 11.181 14.1375 11.296 14.4246 11.3656C14.8524 11.4488 15.2683 11.4963 15.6764 11.5359L18.1601 12.9659C18.7124 13.618 19.457 14.0784 20.2872 14.2811C20.2801 14.347 20.2584 14.4106 20.2239 14.4672C20.1358 14.5906 20.0837 14.736 20.0733 14.8871C20.0712 14.9082 20.0712 14.9294 20.0733 14.9505C20.0733 15.4259 20.414 15.6754 20.3308 16.2617C20.301 16.4187 20.2812 16.5775 20.2714 16.737C20.2714 17.7472 22.4144 19.2247 22.8422 19.2247H22.9056C22.527 19.0471 22.1902 18.7916 21.9172 18.4748C21.6441 18.1581 21.441 17.7873 21.3211 17.3867C21.3211 17.351 21.3211 17.3193 21.3211 17.2837C21.3211 16.7529 19.7604 14.7802 22.9056 14.7802C23.2067 14.7802 23.5038 14.7802 23.8009 14.7802C24.1106 14.7907 24.4199 14.7492 24.7159 14.6574C24.9705 14.6825 25.2056 14.8048 25.3723 14.9988C25.5391 15.1929 25.6246 15.4437 25.6111 15.6992C25.6111 15.7388 25.5557 16.0161 25.528 16.1508C25.528 16.1825 25.528 16.2102 25.528 16.2181C25.486 16.1911 25.4387 16.1735 25.3893 16.1666C25.6447 16.7281 25.768 17.3406 25.7498 17.9571C25.7499 18.3575 25.702 18.7565 25.6072 19.1455H25.7973C26.0944 19.1455 27.2551 19.2287 27.7344 19.2287C28.7881 19.2287 29.4337 18.6147 31.5926 18.5196C31.8071 18.6083 32.0283 18.6798 32.2541 18.7335C32.271 18.6114 32.2789 18.4883 32.2779 18.3651C32.2938 18.0957 32.1195 17.2401 31.6362 16.9272ZM24.7318 9.14334C24.7156 9.1955 24.6845 9.24174 24.6422 9.27627C24.5999 9.31079 24.5484 9.33208 24.4941 9.33744C23.6678 8.88968 22.757 8.61982 21.8202 8.5452H21.7569C21.0456 8.52867 20.3471 8.35269 19.7129 8.03023C19.1129 7.78969 18.5007 7.58078 17.8788 7.40436L15.5338 6.15657C15.3436 6.15657 15.1574 6.22391 14.9713 6.22391C15.0346 6.17638 15.0822 6.10904 15.1614 6.09715C15.3441 6.0596 15.5296 6.03707 15.716 6.02981C16.0923 6.02981 16.9044 6.50516 17.2212 6.69134C18.4096 7.41624 21.3845 8.27583 21.3845 8.27583C21.5192 8.27583 21.6539 8.27583 21.7806 8.27583C21.8766 8.284 21.9718 8.29856 22.0658 8.31941C22.8145 8.46201 24.6882 8.92944 24.708 9.1473L24.7318 9.14334Z" fill="#2C62FF"/>
<path d="M34.732 13.636C34.7517 14.0155 34.6726 14.3936 34.5023 14.7333C34.324 14.7333 34.1577 14.7531 34.0626 14.7531C33.9953 14.7573 33.9278 14.7573 33.8606 14.7531C33.964 14.5123 34.0049 14.2493 33.9794 13.9886C33.9794 12.7566 33.4684 12.2179 33.3535 12.1545C33.5338 12.0289 33.737 11.9401 33.9517 11.8931C34.2053 12.1054 34.4074 12.3727 34.5426 12.6747C34.6778 12.9766 34.7426 13.3053 34.732 13.636Z" fill="#3F3F3F"/>
<path d="M41.7788 13.4729C41.7945 14.0592 41.6194 14.6347 41.2796 15.1128C41.0023 14.8752 40.523 14.6375 39.5129 14.6375H38.8039C38.4988 14.6375 38.479 14.6375 38.1503 14.6375C36.5103 14.6375 36.538 14.7326 35.9082 14.7326C35.7171 14.7234 35.5267 14.7036 35.3378 14.6731L34.7396 14.7207C34.8924 14.3808 34.9694 14.0118 34.9654 13.6393C34.9913 13.3045 34.9393 12.9683 34.8136 12.657C34.6878 12.3456 34.4917 12.0677 34.2405 11.8448H34.2207C34.7948 11.7582 35.3753 11.7211 35.9557 11.7339C37.1679 11.7141 39.5684 13.2352 41.7788 13.4729Z" fill="#3F3F3F"/>
<path d="M32.7415 11.7966C32.6623 12.2759 32.2187 12.6324 32.0483 13.1196C32.0426 13.4518 31.9782 13.7803 31.8582 14.0901L31.3551 15.1517C31.1769 15.4171 31.0303 15.6825 30.8718 15.944C29.83 15.7934 27.9286 14.5457 26.661 14.3595C26.6629 14.3673 26.6629 14.3754 26.661 14.3832V14.7081C26.6759 15.1551 26.6441 15.6025 26.566 16.043L25.5519 16.146C25.5796 16.0113 25.6351 15.7499 25.6351 15.6944C25.6486 15.4389 25.563 15.1881 25.3963 14.9941C25.2295 14.8 24.9944 14.6777 24.7398 14.6526C24.4438 14.7444 24.1345 14.7859 23.8248 14.7754C23.5277 14.7754 23.2306 14.7754 22.9296 14.7754C19.7606 14.7754 21.3451 16.756 21.3451 17.2789C21.3451 17.3146 21.3451 17.3462 21.3451 17.3819C21.4649 17.7825 21.668 18.1533 21.9411 18.4701C22.2141 18.7868 22.551 19.0423 22.9296 19.2199H22.8662C22.4384 19.2199 20.2953 17.7424 20.2953 16.7323C20.3051 16.5727 20.325 16.4139 20.3548 16.2569C20.4379 15.6706 20.0973 15.4211 20.0973 14.9457C20.0952 14.9247 20.0952 14.9034 20.0973 14.8824L20.2478 14.4625L20.3112 14.2763C20.3112 14.2763 20.6241 13.4207 20.7588 12.878C20.8935 12.3353 20.8499 12.0144 20.9687 11.1628C21.0876 10.3111 21.4401 10.3349 21.6659 9.33266C21.7729 8.86127 21.8046 8.65925 21.8402 8.54041C21.8759 8.42158 21.9353 8.41762 22.1096 8.2869C22.2034 8.21697 22.2727 8.11915 22.3076 8.00745C22.3425 7.89574 22.3411 7.77587 22.3037 7.66498L22.6087 7.10645C22.8384 7.10645 23.0642 7.10645 23.294 7.10645C25.6866 7.11833 32.7812 11.5668 32.7415 11.7966Z" fill="#3F3F3F"/>
<path d="M25.5422 16.2375C25.5422 16.1939 25.6373 15.7621 25.6373 15.7186C25.6508 15.4631 25.5653 15.2123 25.3985 15.0182C25.2318 14.8242 24.9967 14.7019 24.7421 14.6768C24.4461 14.7685 24.1368 14.81 23.827 14.7996C23.5299 14.7996 23.2328 14.7996 22.9318 14.7996C19.7628 14.7996 21.3473 16.7802 21.3473 17.3031C21.3473 17.3347 21.3473 17.3704 21.3473 17.4061C21.3473 17.5487 22.0286 19.3867 23.724 19.3867H24.0766C24.3856 19.3867 24.746 18.0161 24.746 17.6913C24.746 17.616 24.746 17.5407 24.746 17.4655C24.746 17.2357 24.7738 17.2318 24.7738 17.0931C24.7782 16.9184 24.7304 16.7463 24.6366 16.5988C24.5427 16.4514 24.4071 16.3352 24.2469 16.2652C24.2152 16.2652 24.2271 16.2652 24.346 16.2652H24.5717C24.8173 16.2652 25.0431 16.1741 25.2887 16.1741C25.3256 16.1703 25.3628 16.1703 25.3996 16.1741C25.452 16.1821 25.5012 16.204 25.5422 16.2375Z" fill="#FCCD97"/>
<path d="M24.7312 9.13491C24.7151 9.18706 24.6839 9.2333 24.6417 9.26783C24.5994 9.30236 24.5478 9.32364 24.4935 9.32901C23.6673 8.88125 22.7565 8.61138 21.8197 8.53676H21.7563C21.045 8.52024 20.3465 8.34426 19.7123 8.0218C19.1123 7.78125 18.5001 7.57234 17.8783 7.39592L15.5332 6.15606C15.3431 6.15606 15.1569 6.2234 14.9707 6.2234C15.0341 6.17586 15.0816 6.10852 15.1608 6.09664C15.3436 6.05908 15.529 6.03656 15.7154 6.0293C16.0917 6.0293 16.9038 6.50465 17.2207 6.69082C18.4091 7.41573 21.3839 8.27532 21.3839 8.27532C21.5186 8.27532 21.6533 8.27532 21.7801 8.27532C21.876 8.28349 21.9713 8.29805 22.0653 8.31889C22.8377 8.44169 24.7114 8.91704 24.7312 9.13491Z" fill="#3F3F3F"/>
<path d="M13.6107 11.0365L13.1551 11.2147C12.1846 10.6522 11.5469 10.1769 11.5469 8.95284C11.5469 7.86746 11.8242 7.94273 12.0381 7.84766C11.8687 8.30324 11.7763 8.78383 11.7647 9.26974C11.7647 10.2086 12.5293 10.7988 13.4205 11.0087L13.472 10.9691L13.6146 11.0483L13.6107 11.0365Z" fill="#3F3F3F"/>
<path d="M7.63082 9.46762L7.38522 9.50328C7.09939 9.0595 6.85286 8.59162 6.64844 8.10496L6.88215 7.93066C6.9828 8.503 7.2422 9.03555 7.63082 9.46762Z" fill="#FCCD97"/>
<path d="M5.34815 13.54C5.30228 14.0935 5.06402 14.6135 4.67473 15.0096L4.46875 14.9343C4.85198 14.5105 5.08331 13.9712 5.12632 13.4013C5.13081 13.3433 5.13081 13.2851 5.12632 13.2271L5.32438 13.3142C5.34541 13.3875 5.35346 13.4639 5.34815 13.54Z" fill="#FCCD97"/>
<path d="M25.5122 18.0521C25.5045 18.4558 25.4378 18.8561 25.3142 19.2405C25.025 19.2405 24.7358 19.284 24.4467 19.284C24.3675 19.2887 24.2881 19.2887 24.209 19.284C24.4884 18.7972 24.6638 18.2577 24.724 17.6995C24.724 17.6203 24.724 17.5451 24.724 17.4698C24.724 17.24 24.7517 17.2361 24.7517 17.0974C24.7512 16.9338 24.7059 16.7735 24.6207 16.6338C24.5355 16.4941 24.4137 16.3805 24.2684 16.3052H24.5695C24.7375 16.2953 24.9045 16.2715 25.0686 16.2339C25.3919 16.7832 25.5462 17.4156 25.5122 18.0521Z" fill="#3F3F3F"/>
<path d="M32.2929 18.3925C32.2939 18.5157 32.286 18.6389 32.2691 18.7609C32.0433 18.7072 31.8221 18.6357 31.6076 18.547C29.4487 18.6421 28.803 19.2561 27.7493 19.2561C27.27 19.2561 26.1094 19.1729 25.8123 19.1729H25.6222C25.717 18.7839 25.7648 18.3849 25.7648 17.9845C25.783 17.368 25.6597 16.7555 25.4043 16.194C25.4537 16.201 25.501 16.2185 25.5429 16.2455C25.5429 16.2455 25.5429 16.2099 25.5429 16.1782C25.8782 16.1209 26.217 16.0864 26.557 16.0752C28.8545 16.2931 28.4148 17.0219 30.4905 17.0219C30.8698 17.0219 31.2486 16.9928 31.6234 16.9348C32.1186 17.2398 32.2929 18.0954 32.2929 18.3925Z" fill="#3F3F3F"/>
<path d="M25.7636 17.9764C25.7637 18.3768 25.7158 18.7758 25.621 19.1648L25.3121 19.2361C25.4357 18.8517 25.5024 18.4514 25.5101 18.0477C25.55 17.3989 25.3941 16.753 25.0625 16.1938H25.4032C25.6574 16.7529 25.7806 17.3625 25.7636 17.9764Z" fill="#2C62FF"/>
<path d="M32.5657 18.3446C32.5662 18.4773 32.5556 18.6098 32.534 18.7408H32.2686C32.2854 18.6187 32.2934 18.4956 32.2923 18.3724C32.2923 18.0753 32.118 17.2196 31.6348 16.9067L31.9794 16.8394C32.1858 17.0287 32.346 17.2628 32.4476 17.5238C32.5492 17.7848 32.5896 18.0656 32.5657 18.3446Z" fill="#2C62FF"/>
<path d="M34.9672 13.6347C34.9712 14.0073 34.8941 14.3763 34.7414 14.7161H34.5037C34.7229 14.2431 34.7877 13.7131 34.6888 13.2012C34.59 12.6893 34.3326 12.2215 33.9531 11.8641L34.2225 11.8086H34.2423C34.498 12.0347 34.6968 12.3179 34.8227 12.6351C34.9487 12.9524 34.9982 13.2948 34.9672 13.6347Z" fill="#2C62FF"/>
<path d="M42.0022 13.6194C41.9906 14.2027 41.7747 14.7635 41.3922 15.2039L41.2812 15.097C41.621 14.6189 41.7962 14.0433 41.7804 13.457H41.9982C41.9982 13.5323 42.0022 13.5917 42.0022 13.6194Z" fill="#2C62FF"/>
</svg>
