<svg width="12" height="7" viewBox="0 0 12 7" fill="none" xmlns="http://www.w3.org/2000/svg">
<path d="M4.7152 0.958497C4.82443 0.958619 4.9295 1.00045 5.00893 1.07543C5.08836 1.15042 5.13615 1.25291 5.14256 1.36195C5.14896 1.471 5.11348 1.57837 5.04337 1.66214C4.97326 1.74591 4.87381 1.79974 4.76534 1.81264L4.7152 1.81564H3.42948C2.98224 1.81563 2.55271 1.99041 2.23253 2.30267C1.91236 2.61493 1.72689 3.03996 1.71571 3.48706C1.70452 3.93415 1.86851 4.36792 2.17267 4.6958C2.47683 5.02368 2.89709 5.21971 3.34377 5.24207L3.42948 5.24421H4.7152C4.82443 5.24433 4.9295 5.28616 5.00893 5.36115C5.08836 5.43613 5.13615 5.53862 5.14256 5.64767C5.14896 5.75671 5.11348 5.86409 5.04337 5.94785C4.97326 6.03162 4.87381 6.08545 4.76534 6.09835L4.7152 6.10135H3.42948C2.7554 6.10203 2.10801 5.83799 1.62668 5.36608C1.14534 4.89416 0.868562 4.25211 0.855921 3.57815C0.84328 2.90419 1.09579 2.25221 1.55909 1.76258C2.02239 1.27294 2.65942 0.984812 3.33305 0.960212L3.42948 0.958497H4.7152ZM8.57234 0.958497C9.24642 0.95782 9.89381 1.22186 10.3751 1.69378C10.8565 2.16569 11.1333 2.80774 11.1459 3.4817C11.1585 4.15566 10.906 4.80764 10.4427 5.29728C9.97944 5.78691 9.3424 6.07504 8.66877 6.09964L8.57234 6.10135H7.28662C7.17739 6.10123 7.07233 6.05941 6.9929 5.98442C6.91347 5.90943 6.86567 5.80695 6.85927 5.6979C6.85286 5.58885 6.88834 5.48148 6.95845 5.39771C7.02856 5.31395 7.12801 5.26011 7.23648 5.24721L7.28662 5.24421H8.57234C9.01958 5.24422 9.44911 5.06944 9.76929 4.75718C10.0895 4.44492 10.2749 4.01989 10.2861 3.5728C10.2973 3.1257 10.1333 2.69193 9.82915 2.36405C9.52499 2.03617 9.10473 1.84014 8.65805 1.81778L8.57234 1.81564H7.28662C7.17739 1.81552 7.07233 1.77369 6.9929 1.69871C6.91347 1.62372 6.86567 1.52123 6.85927 1.41219C6.85286 1.30314 6.88834 1.19576 6.95845 1.112C7.02856 1.02823 7.12801 0.974399 7.23648 0.961497L7.28662 0.958497H8.57234ZM3.42948 3.10135H8.57234C8.68157 3.10148 8.78664 3.1433 8.86607 3.21829C8.9455 3.29328 8.9933 3.39576 8.9997 3.50481C9.0061 3.61386 8.97062 3.72123 8.90051 3.805C8.8304 3.88876 8.73095 3.9426 8.62248 3.9555L8.57234 3.9585H3.42948C3.32025 3.95838 3.21518 3.91655 3.13575 3.84156C3.05632 3.76658 3.00852 3.66409 3.00212 3.55504C2.99572 3.446 3.0312 3.33862 3.10131 3.25485C3.17142 3.17109 3.27087 3.11726 3.37934 3.10435L3.42948 3.10135H8.57234H3.42948Z" fill="black"/>
</svg>
