<svg width="838" height="472" viewBox="0 0 838 472" fill="none" xmlns="http://www.w3.org/2000/svg">
<g clip-path="url(#clip0_3412_38193)">
<path d="M0 9.99999C0 4.47714 4.47715 0 10 0H828C833.523 0 838 4.47715 838 10V462C838 467.523 833.523 472 828 472H9.99998C4.47713 472 0 467.523 0 462V9.99999Z" fill="url(#paint0_linear_3412_38193)"/>
<g opacity="0.5" clip-path="url(#clip1_3412_38193)">
<path d="M775.294 458.05L782.779 450.567L782.838 450.501L782.895 450.433L782.948 450.363L782.994 450.286L783.036 450.204L783.073 450.123L783.104 450.037L783.132 449.951L783.152 449.863L783.17 449.775L783.181 449.597V444.749L783.178 444.617L783.167 444.488L783.154 444.358L783.132 444.228L783.106 444.098L783.071 443.973L783.031 443.85L782.985 443.724L782.935 443.608L782.878 443.489L782.814 443.373L782.746 443.26L782.676 443.153L782.594 443.049L782.511 442.948L782.423 442.851L782.329 442.759L782.232 442.671L782.131 442.587L782.025 442.508L781.918 442.438L781.806 442.37L781.689 442.306L781.571 442.249L781.452 442.198L781.327 442.152L781.204 442.112L781.077 442.077L780.947 442.048L780.817 442.026L780.688 442.013L780.558 442.002L780.431 442H775.584L775.496 442.002L775.406 442.011L775.318 442.029L775.23 442.046L775.145 442.075L775.059 442.106L774.975 442.145L774.896 442.187L774.819 442.233L774.749 442.286L774.681 442.343L774.615 442.405L767.135 449.892L767.805 450.561C767.914 450.671 767.838 450.862 767.679 450.862H764.218V447.396C764.218 447.239 764.407 447.16 764.519 447.27L765.189 447.943L769.957 443.172L770.001 443.126L770.04 443.073L770.073 443.023L770.1 442.966L770.122 442.906L770.139 442.847L770.15 442.785L770.155 442.721V442.655L770.15 442.592L770.139 442.532L770.122 442.471L770.1 442.411L770.071 442.352L770.038 442.299L769.999 442.246L769.955 442.2L769.909 442.158L769.858 442.119L769.803 442.086L769.746 442.055L769.689 442.033L769.628 442.015L769.564 442.002L769.469 442H768.499H763.939L763.807 442.002L763.678 442.013L763.548 442.026L763.419 442.048L763.289 442.077L763.164 442.112L763.039 442.152L762.916 442.198L762.797 442.249L762.679 442.306L762.562 442.37L762.45 442.438L762.342 442.508L762.237 442.587L762.136 442.671L762.039 442.759L761.947 442.851L761.859 442.948L761.776 443.049L761.697 443.153L761.624 443.26L761.556 443.373L761.493 443.489L761.435 443.608L761.385 443.724L761.337 443.85L761.299 443.973L761.264 444.098L761.238 444.228L761.216 444.358L761.203 444.488L761.192 444.617L761.189 444.749V458.343L761.192 458.433L761.2 458.523L761.218 458.611L761.238 458.699L761.264 458.783L761.295 458.868L761.334 458.952L761.376 459.029L761.424 459.106L761.475 459.181L761.532 459.249L761.591 459.315L761.657 459.374L761.73 459.432L761.802 459.482L761.879 459.528L761.958 459.572L762.042 459.607L762.125 459.64L762.213 459.665L762.299 459.687L762.389 459.7L762.476 459.709L762.567 459.711L762.657 459.709L762.744 459.7L762.834 459.687L762.92 459.665L763.008 459.64L763.091 459.607L763.175 459.572L763.254 459.528L763.331 459.482L763.401 459.432L763.474 459.374L763.539 459.315L773.934 448.913L773.458 448.434C773.348 448.324 773.425 448.135 773.583 448.135H777.046V451.599C777.046 451.755 776.858 451.834 776.748 451.724L776.269 451.247L765.872 461.646L765.81 461.712L765.753 461.783L765.701 461.855L765.654 461.932L765.611 462.012L765.575 462.095L765.542 462.179L765.518 462.267L765.496 462.35L765.483 462.443L765.474 462.531L765.472 462.623L765.474 462.713L765.483 462.801L765.496 462.891L765.518 462.977L765.542 463.065L765.575 463.149L765.611 463.23L765.654 463.312L765.701 463.389L765.753 463.459L765.81 463.531L765.872 463.597L765.938 463.657L766.006 463.714L766.081 463.767L766.157 463.813L766.234 463.855L766.318 463.894L766.403 463.925L766.489 463.952L766.577 463.971L766.665 463.989L766.753 463.993L766.772 463.998L766.847 464H780.435L780.567 463.998L780.697 463.987L780.826 463.974L780.956 463.952L781.085 463.925L781.213 463.89L781.336 463.853L781.461 463.806L781.58 463.756L781.698 463.699L781.815 463.635L781.927 463.567L782.034 463.496L782.14 463.415L782.241 463.334L782.337 463.246L782.432 463.153L782.52 463.056L782.603 462.955L782.684 462.85L782.755 462.742L782.823 462.63L782.886 462.513L782.943 462.394L782.994 462.276L783.04 462.152L783.08 462.029L783.115 461.902L783.141 461.772L783.163 461.642L783.176 461.512L783.187 461.383L783.189 461.251V456.684V455.714L783.187 455.65L783.178 455.587L783.161 455.523L783.141 455.461L783.117 455.404L783.086 455.349L783.051 455.299L783.009 455.248L782.961 455.204L782.915 455.162L782.853 455.129L782.796 455.098L782.739 455.072L782.68 455.052L782.621 455.039L782.557 455.03L782.493 455.028L782.43 455.03L782.366 455.039L782.307 455.052L782.245 455.072L782.188 455.098L782.131 455.129L782.078 455.164L782.008 455.228L777.24 459.999L777.912 460.668C778.024 460.778 777.945 460.969 777.789 460.969H774.328V457.505C774.328 457.349 774.516 457.269 774.628 457.379L775.294 458.05Z" fill="white"/>
<path d="M723.871 446.282L722.096 451.795C722.08 451.841 722.038 451.872 721.989 451.872H720.068C720.02 451.872 719.977 451.841 719.962 451.793L719.159 449.148C719.128 449.044 718.979 449.042 718.946 449.146L718.099 451.793C718.083 451.839 718.041 451.87 717.992 451.87H716.076C716.027 451.87 715.985 451.839 715.969 451.793L714.195 446.28C714.172 446.21 714.226 446.137 714.301 446.137H716.069C716.118 446.137 716.16 446.168 716.175 446.214L717.054 449.062C717.085 449.165 717.231 449.165 717.265 449.064L718.194 446.214C718.21 446.168 718.252 446.137 718.3 446.137H719.924C719.973 446.137 720.015 446.168 720.031 446.216L720.909 449.099C720.94 449.203 721.089 449.203 721.12 449.101L722.049 446.214C722.065 446.168 722.107 446.137 722.156 446.137H723.768C723.839 446.137 723.893 446.21 723.871 446.282Z" fill="white"/>
<path d="M724.867 446.137H726.588C726.65 446.137 726.699 446.185 726.699 446.247V451.76C726.699 451.821 726.65 451.87 726.588 451.87H724.867C724.805 451.87 724.756 451.821 724.756 451.76V446.247C724.756 446.187 724.807 446.137 724.867 446.137Z" fill="white"/>
<path d="M733.763 446.247V451.76C733.763 451.821 733.714 451.87 733.652 451.87H732.217C732.184 451.87 732.153 451.854 732.133 451.83L730.172 449.498C730.105 449.419 729.976 449.465 729.976 449.569V451.76C729.976 451.821 729.928 451.87 729.865 451.87H728.193C728.131 451.87 728.082 451.821 728.082 451.76V446.247C728.082 446.185 728.131 446.137 728.193 446.137H729.628C729.661 446.137 729.692 446.152 729.712 446.176L731.673 448.508C731.74 448.587 731.869 448.541 731.869 448.437V446.247C731.869 446.185 731.917 446.137 731.979 446.137H733.652C733.714 446.137 733.763 446.187 733.763 446.247Z" fill="white"/>
<path d="M740.835 446.247V451.76C740.835 451.821 740.787 451.87 740.725 451.87H739.289C739.256 451.87 739.225 451.854 739.205 451.83L737.244 449.498C737.178 449.419 737.049 449.465 737.049 449.569V451.76C737.049 451.821 737 451.87 736.938 451.87H735.263C735.201 451.87 735.152 451.821 735.152 451.76V446.247C735.152 446.185 735.201 446.137 735.263 446.137H736.698C736.732 446.137 736.763 446.152 736.783 446.176L738.744 448.508C738.81 448.587 738.939 448.541 738.939 448.437V446.247C738.939 446.185 738.988 446.137 739.05 446.137H740.722C740.787 446.137 740.835 446.187 740.835 446.247Z" fill="white"/>
<path d="M742.334 446.137H744.055C744.117 446.137 744.166 446.185 744.166 446.247V451.76C744.166 451.821 744.117 451.87 744.055 451.87H742.334C742.271 451.87 742.223 451.821 742.223 451.76V446.247C742.223 446.187 742.271 446.137 742.334 446.137Z" fill="white"/>
<path d="M751.23 446.247V451.76C751.23 451.821 751.181 451.87 751.119 451.87H749.684C749.65 451.87 749.619 451.854 749.599 451.83L747.638 449.498C747.572 449.419 747.443 449.465 747.443 449.569V451.76C747.443 451.821 747.394 451.87 747.332 451.87H745.66C745.598 451.87 745.549 451.821 745.549 451.76V446.247C745.549 446.185 745.598 446.137 745.66 446.137H747.095C747.128 446.137 747.159 446.152 747.179 446.176L749.14 448.508C749.207 448.587 749.335 448.541 749.335 448.437V446.247C749.335 446.185 749.384 446.137 749.446 446.137H751.119C751.179 446.137 751.23 446.187 751.23 446.247Z" fill="white"/>
<path d="M756.49 448.848H757.957C758.019 448.848 758.068 448.896 758.068 448.958V451.213C758.068 451.25 758.05 451.285 758.019 451.305C757.691 451.524 757.311 451.693 756.883 451.813C756.433 451.938 755.991 452 755.557 452C754.942 452 754.39 451.872 753.902 451.618C753.414 451.365 753.03 451.01 752.753 450.553C752.475 450.096 752.338 449.58 752.338 449C752.338 448.422 752.475 447.904 752.753 447.447C753.03 446.99 753.416 446.635 753.915 446.382C754.412 446.128 754.973 446 755.599 446C756.164 446 756.67 446.095 757.118 446.282C757.531 446.457 757.879 446.701 758.163 447.021C758.203 447.068 758.198 447.138 758.152 447.178L757.072 448.124C757.027 448.164 756.958 448.157 756.919 448.115C756.573 447.749 756.164 447.566 755.699 447.566C755.27 447.566 754.929 447.694 754.678 447.952C754.425 448.208 754.299 448.559 754.299 449C754.299 449.432 754.423 449.779 754.674 450.041C754.924 450.304 755.257 450.434 755.674 450.434C755.896 450.434 756.107 450.396 756.311 450.324C756.355 450.308 756.384 450.264 756.384 450.218V448.956C756.38 448.899 756.428 448.848 756.49 448.848Z" fill="white"/>
<path d="M737.38 454.275C737.777 454.457 738.085 454.72 738.299 455.063C738.515 455.407 738.622 455.806 738.622 456.263C738.622 456.72 738.515 457.119 738.299 457.463C738.082 457.806 737.777 458.067 737.38 458.251C736.982 458.434 736.516 458.526 735.981 458.526H735.255C735.193 458.526 735.144 458.577 735.144 458.641V459.885C735.144 459.949 735.095 460 735.032 460H733.301C733.239 460 733.189 459.949 733.189 459.885V454.115C733.189 454.051 733.239 454 733.301 454H735.981C736.516 454 736.982 454.092 737.38 454.275ZM736.451 456.78C736.583 456.657 736.65 456.484 736.65 456.261C736.65 456.037 736.583 455.866 736.451 455.742C736.32 455.619 736.119 455.557 735.856 455.557H735.255C735.193 455.557 735.144 455.608 735.144 455.672V456.847C735.144 456.911 735.193 456.962 735.255 456.962H735.856C736.121 456.964 736.32 456.902 736.451 456.78Z" fill="white"/>
<path d="M739.751 454H741.482C741.544 454 741.593 454.051 741.593 454.115V458.314C741.593 458.378 741.643 458.429 741.705 458.429H744.099C744.161 458.429 744.211 458.48 744.211 458.544V459.88C744.211 459.945 744.161 459.995 744.099 459.995H739.748C739.686 459.995 739.637 459.945 739.637 459.88V454.115C739.639 454.051 739.688 454 739.751 454Z" fill="white"/>
<path d="M749.133 454H747.357C747.312 454 747.272 454.028 747.254 454.069L744.818 459.834C744.786 459.91 744.84 459.995 744.92 459.995H746.661C746.707 459.995 746.748 459.965 746.765 459.922L747.127 458.95L747.665 457.495L748.124 456.265C748.16 456.166 748.296 456.166 748.332 456.265L748.791 457.495L749.329 458.95L749.69 459.922C749.706 459.965 749.748 459.995 749.795 459.995H751.569C751.649 459.995 751.703 459.91 751.672 459.834L749.235 454.069C749.217 454.028 749.177 454 749.133 454Z" fill="white"/>
<path d="M758.189 454.115V459.88C758.189 459.945 758.139 459.995 758.077 459.995H756.633C756.6 459.995 756.569 459.979 756.549 459.954L754.576 457.516C754.509 457.433 754.38 457.481 754.38 457.589V459.88C754.38 459.945 754.331 459.995 754.268 459.995H752.586C752.524 459.995 752.475 459.945 752.475 459.88V454.115C752.475 454.051 752.524 454 752.586 454H754.03C754.063 454 754.094 454.016 754.115 454.042L756.087 456.48C756.154 456.563 756.283 456.514 756.283 456.406V454.115C756.283 454.051 756.332 454 756.395 454H758.077C758.139 454 758.189 454.051 758.189 454.115Z" fill="white"/>
</g>
<g clip-path="url(#clip2_3412_38193)">
<path d="M170.824 39H1219.76L1610.84 434H-220.252L170.824 39Z" fill="#4AB75C"/>
<path opacity="0.1" d="M626.817 46.8125H685.953L645.619 411.12H546.404L626.817 46.8125Z" fill="white"/>
<path opacity="0.1" d="M508.545 46.8125H567.681L447.191 411.12H347.977L508.545 46.8125Z" fill="white"/>
<path opacity="0.1" d="M389.252 46.8125H448.388L247.05 411.12H147.836L389.252 46.8125Z" fill="white"/>
<path opacity="0.1" d="M270.98 46.8125H330.116L48.6226 411.12H-50.5918L270.98 46.8125Z" fill="white"/>
<path opacity="0.1" d="M745.09 46.8125H804.227L844.048 411.12H744.834L745.09 46.8125Z" fill="white"/>
<path d="M1540.26 411.12H1538.55H-48.8812H-50.5918L-49.7363 410.151L270.677 47.1574L270.981 46.8125H272.001H1218.18H1219.2L1219.5 47.1574L1539.41 410.151L1540.26 411.12ZM-45.4689 409.184H1535.14L1217.77 47.5027H272.414L-45.4689 409.184Z" fill="white"/>
<path d="M265.015 54.1497H264.504L265.129 53.4432H265.256H265.64C268.151 53.4386 270.653 53.2763 273.097 52.9592C275.465 52.6565 277.767 52.2135 279.963 51.638C281.948 51.1268 283.802 50.4728 285.476 49.693C286.901 49.0456 288.065 48.2409 288.894 47.3304C288.931 47.2866 288.966 47.243 289 47.1997C289.034 47.1563 289.067 47.113 289.099 47.0697C289.13 47.0263 289.16 46.9832 289.188 46.9404C289.216 46.8975 289.243 46.8549 289.269 46.8125H291.313C291.286 46.8554 291.259 46.8982 291.23 46.9411C291.201 46.9839 291.171 47.027 291.139 47.0704C291.108 47.1137 291.075 47.157 291.041 47.2004C291.007 47.2437 290.971 47.2873 290.935 47.3311C290.015 48.3459 288.721 49.2431 287.137 49.965C285.272 50.8352 283.206 51.565 280.994 52.1354C278.543 52.7776 275.972 53.2715 273.329 53.6085C270.603 53.9626 267.814 54.1441 265.015 54.1497V54.1497Z" fill="white"/>
<path d="M748.255 411.12H744.834L745.09 46.8125H747.13L748.255 411.12Z" fill="white"/>
<path d="M263.681 292.343H262.196H55.7392H54.2539L54.899 291.612L223.452 100.659L223.82 100.242H224.941H380.751H381.872L381.615 100.659L264.131 291.612L263.681 292.343ZM58.5079 290.882H261.615L379.113 101.077H225.329L58.5079 290.882Z" fill="white"/>
<path d="M175.585 229.135H174.219H111.41H110.045L110.59 228.517L185.955 143.137L186.378 142.658H187.579H242.843H244.044L243.665 143.137L176.074 228.517L175.585 229.135ZM113.86 227.901H173.836L240.879 143.617H187.938L113.86 227.901Z" fill="white"/>
<path d="M745.645 230.753C743.779 230.753 741.913 230.732 740.052 230.69C738.19 230.647 736.333 230.584 734.483 230.499C732.633 230.415 730.791 230.309 728.96 230.183C727.13 230.057 725.311 229.91 723.506 229.742C721.748 229.579 719.999 229.396 718.261 229.193C716.524 228.99 714.8 228.768 713.091 228.527C711.382 228.286 709.689 228.026 708.015 227.747C706.342 227.469 704.687 227.172 703.054 226.857C701.452 226.548 699.867 226.221 698.302 225.877C696.738 225.533 695.194 225.172 693.672 224.794C692.153 224.417 690.655 224.023 689.184 223.614C687.713 223.204 686.269 222.779 684.852 222.34C683.451 221.904 682.074 221.454 680.724 220.988C679.376 220.524 678.055 220.044 676.763 219.551C675.473 219.059 674.212 218.553 672.983 218.034C671.755 217.516 670.559 216.986 669.397 216.444C668.237 215.903 667.107 215.349 666.011 214.783C664.917 214.218 663.856 213.642 662.83 213.055C661.805 212.47 660.815 211.873 659.862 211.268C658.91 210.663 657.995 210.05 657.118 209.428C656.234 208.801 655.387 208.165 654.578 207.52C653.771 206.876 653.002 206.224 652.272 205.565C651.543 204.907 650.854 204.241 650.205 203.57C649.557 202.901 648.949 202.225 648.382 201.544C647.807 200.853 647.272 200.154 646.779 199.451C646.288 198.749 645.838 198.041 645.43 197.33C645.024 196.62 644.659 195.906 644.337 195.189C644.016 194.474 643.738 193.756 643.502 193.036C643.261 192.3 643.065 191.56 642.913 190.817C642.761 190.076 642.654 189.333 642.591 188.588C642.528 187.845 642.509 187.101 642.534 186.358C642.559 185.615 642.629 184.874 642.741 184.133C642.854 183.395 643.01 182.658 643.209 181.924C643.408 181.191 643.65 180.462 643.933 179.737C644.216 179.013 644.541 178.293 644.908 177.579C645.273 176.867 645.68 176.16 646.127 175.459C646.562 174.778 647.037 174.101 647.55 173.429C648.062 172.758 648.613 172.093 649.201 171.434C649.787 170.777 650.411 170.126 651.071 169.482C651.729 168.839 652.424 168.204 653.153 167.578C653.867 166.964 654.617 166.356 655.4 165.756C656.182 165.157 656.998 164.566 657.845 163.983C658.691 163.402 659.569 162.828 660.478 162.265C661.384 161.702 662.322 161.148 663.288 160.605C664.243 160.068 665.228 159.54 666.242 159.021C667.255 158.503 668.295 157.995 669.362 157.498C670.428 157.001 671.52 156.514 672.637 156.039C673.752 155.565 674.891 155.101 676.054 154.65C677.215 154.199 678.4 153.759 679.609 153.331C680.817 152.904 682.047 152.488 683.298 152.084C684.548 151.681 685.819 151.29 687.108 150.912C688.396 150.534 689.702 150.169 691.026 149.818C692.36 149.464 693.715 149.122 695.087 148.794C696.458 148.466 697.846 148.151 699.25 147.851C700.652 147.55 702.07 147.263 703.501 146.991C704.931 146.719 706.373 146.461 707.827 146.217C709.306 145.969 710.8 145.736 712.307 145.518C713.813 145.3 715.331 145.096 716.86 144.908C718.387 144.72 719.925 144.547 721.47 144.389C723.015 144.231 724.567 144.089 726.125 143.962C727.722 143.832 729.33 143.718 730.945 143.621C732.56 143.523 734.183 143.441 735.812 143.376C737.44 143.311 739.073 143.262 740.709 143.229C742.345 143.196 743.984 143.18 745.623 143.18C747.262 143.18 748.901 143.196 750.537 143.229C752.173 143.262 753.807 143.311 755.435 143.376C757.063 143.441 758.686 143.523 760.301 143.621C761.917 143.718 763.525 143.832 765.122 143.962C766.68 144.089 768.232 144.231 769.777 144.389C771.322 144.547 772.86 144.72 774.387 144.908C775.916 145.096 777.434 145.3 778.94 145.518C780.447 145.736 781.942 145.969 783.421 146.217C784.875 146.461 786.317 146.719 787.747 146.991C789.178 147.263 790.596 147.55 791.999 147.851C793.403 148.151 794.791 148.466 796.162 148.794C797.534 149.122 798.889 149.464 800.224 149.818C801.547 150.169 802.854 150.534 804.142 150.912C805.432 151.29 806.702 151.681 807.952 152.084C809.204 152.488 810.434 152.904 811.642 153.331C812.851 153.759 814.037 154.199 815.198 154.65C816.361 155.101 817.501 155.565 818.616 156.039C819.733 156.514 820.825 157.001 821.891 157.498C822.958 157.995 823.999 158.503 825.012 159.021C826.026 159.54 827.012 160.068 827.967 160.605C828.934 161.148 829.871 161.702 830.778 162.265C831.687 162.828 832.565 163.402 833.411 163.983C834.259 164.566 835.075 165.157 835.857 165.756C836.641 166.356 837.391 166.964 838.106 167.578C838.835 168.204 839.53 168.839 840.188 169.482C840.849 170.126 841.473 170.777 842.06 171.434C842.648 172.093 843.199 172.758 843.711 173.429C844.225 174.101 844.7 174.778 845.135 175.459C845.583 176.16 845.99 176.867 846.356 177.579C846.722 178.293 847.048 179.013 847.331 179.737C847.615 180.462 847.857 181.191 848.056 181.924C848.256 182.658 848.412 183.395 848.525 184.133C848.638 184.874 848.708 185.615 848.733 186.358C848.759 187.101 848.74 187.845 848.678 188.588C848.615 189.333 848.508 190.076 848.357 190.817C848.205 191.56 848.009 192.3 847.769 193.036C847.534 193.756 847.255 194.474 846.935 195.189C846.613 195.906 846.249 196.62 845.843 197.33C845.435 198.041 844.986 198.749 844.495 199.451C844.002 200.154 843.468 200.853 842.893 201.544C842.327 202.225 841.719 202.901 841.071 203.57C840.423 204.241 839.733 204.907 839.005 205.565C838.275 206.224 837.506 206.876 836.699 207.52C835.891 208.165 835.044 208.801 834.161 209.428C833.284 210.05 832.369 210.663 831.418 211.268C830.465 211.873 829.475 212.47 828.451 213.055C827.425 213.642 826.364 214.218 825.27 214.783C824.174 215.349 823.045 215.903 821.885 216.444C820.723 216.986 819.527 217.516 818.3 218.034C817.071 218.553 815.81 219.059 814.521 219.551C813.229 220.044 811.908 220.524 810.56 220.988C809.211 221.454 807.834 221.904 806.433 222.34C805.017 222.779 803.572 223.204 802.102 223.614C800.631 224.023 799.134 224.417 797.614 224.794C796.093 225.172 794.549 225.533 792.985 225.877C791.42 226.221 789.835 226.548 788.233 226.857C786.601 227.172 784.946 227.469 783.273 227.747C781.599 228.026 779.906 228.286 778.198 228.527C776.488 228.768 774.764 228.99 773.028 229.193C771.29 229.396 769.541 229.579 767.783 229.742C765.978 229.91 764.159 230.057 762.329 230.183C760.498 230.309 758.656 230.415 756.806 230.499C754.956 230.584 753.099 230.647 751.237 230.69C749.376 230.732 747.51 230.753 745.645 230.753ZM745.623 144.137C732.613 144.137 720.167 145.193 708.75 147.112C697.264 149.042 686.756 151.855 677.739 155.364C668.622 158.911 660.99 163.185 655.405 167.994C649.737 172.875 646.161 178.322 645.298 184.133C644.419 190.046 646.428 195.781 650.874 201.084C655.389 206.47 662.405 211.396 671.416 215.588C680.536 219.831 691.66 223.304 704.217 225.724C716.861 228.161 730.882 229.517 745.644 229.517C760.407 229.517 774.427 228.161 787.069 225.724C799.626 223.304 810.748 219.831 819.866 215.588C828.875 211.396 835.888 206.47 840.401 201.084C844.844 195.781 846.851 190.046 845.969 184.133C845.102 178.322 841.524 172.875 835.854 167.994C830.267 163.185 822.632 158.911 813.513 155.364C804.494 151.855 793.985 149.042 782.498 147.112C771.08 145.193 758.634 144.137 745.623 144.137Z" fill="white"/>
<path d="M307.518 221.088C315.837 218.944 323.818 216.42 331.378 213.541C338.517 210.83 345.192 207.764 351.32 204.38C356.992 201.258 362.032 197.805 366.353 194.081C370.327 190.665 373.447 186.967 375.629 183.089C377.578 179.646 378.491 176.05 378.331 172.444C378.166 169.224 376.954 166.046 374.754 163.063C372.581 160.161 369.519 157.487 365.704 155.159C361.688 152.719 357.038 150.623 351.906 148.941L351.171 150.135C355.999 151.796 360.356 153.844 364.099 156.211C367.668 158.478 370.514 161.064 372.514 163.858C374.548 166.738 375.646 169.794 375.758 172.885C375.859 176.344 374.953 179.789 373.075 183.089C370.977 186.798 367.997 190.336 364.213 193.611C360.105 197.175 355.319 200.485 349.935 203.484C344.129 206.73 337.805 209.679 331.039 212.295C323.876 215.074 316.313 217.522 308.425 219.616L307.518 221.088Z" fill="white"/>
<path d="M744.998 180.631C746.006 180.629 747.008 180.715 747.968 180.884C748.842 181.037 749.663 181.27 750.396 181.574C751.068 181.85 751.629 182.199 752.046 182.601C752.445 182.985 752.657 183.42 752.661 183.863C752.665 184.306 752.462 184.742 752.071 185.129C751.66 185.534 751.103 185.887 750.433 186.166C749.697 186.476 748.87 186.713 747.99 186.868C746.04 187.211 743.945 187.211 741.995 186.868C741.115 186.713 740.289 186.476 739.554 186.166C738.884 185.887 738.327 185.534 737.917 185.129C737.526 184.742 737.323 184.306 737.328 183.863C737.333 183.42 737.546 182.985 737.945 182.601C738.36 182.2 738.92 181.85 739.589 181.574C740.323 181.27 741.143 181.037 742.017 180.884C742.981 180.714 743.986 180.629 744.998 180.631V180.631Z" fill="white"/>
<path d="M271.993 179.631C272.941 179.624 273.884 179.71 274.779 179.884C275.516 180.026 276.182 180.263 276.722 180.574C277.206 180.859 277.526 181.216 277.645 181.601C277.76 182.028 277.665 182.464 277.369 182.863C277.026 183.334 276.522 183.763 275.886 184.129C275.188 184.535 274.39 184.884 273.515 185.167C272.593 185.468 271.606 185.704 270.577 185.868C269.544 186.036 268.474 186.123 267.398 186.126C266.441 186.133 265.489 186.046 264.587 185.868C263.847 185.724 263.179 185.483 262.641 185.167C262.161 184.878 261.846 184.517 261.737 184.129C261.632 183.699 261.737 183.262 262.042 182.863C262.396 182.393 262.908 181.965 263.551 181.601C264.252 181.199 265.051 180.854 265.925 180.574C266.842 180.278 267.822 180.046 268.843 179.884C269.867 179.72 270.927 179.634 271.993 179.631V179.631Z" fill="white"/>
<path d="M127.073 180.063L126.77 210.213H70.7578L80.0111 159.659L112.456 130.703L155.606 128L156.116 178.963L127.073 180.063Z" fill="white" fill-opacity="0.42"/>
<path d="M80.0111 159.659H127.279M80.0111 159.659L70.7578 210.213M80.0111 159.659L112.456 130.703M127.279 159.659L126.77 210.213H70.7578M127.279 159.659L155.606 128M70.7578 210.213L105.127 180.893M112.456 130.703L155.606 128M112.456 130.703L105.127 180.893M155.606 128L156.116 178.963L105.127 180.893" stroke="#DBDEE7"/>
<path d="M126.484 209.827V159.659L156.392 128.387V178.191" stroke="url(#paint1_linear_3412_38193)" stroke-width="3" stroke-linecap="round" stroke-linejoin="round"/>
<path d="M748.712 179.697L749.026 211.198H808.947L799.694 160.038L789.405 130.735L746.254 128L745.745 179.574L748.712 179.697Z" fill="white" fill-opacity="0.42"/>
<path d="M799.694 160.038H748.516M799.694 160.038L808.947 211.198M799.694 160.038L789.405 130.735M748.516 160.038L749.026 211.198H808.947M748.516 160.038L746.254 128M808.947 211.198L792.824 181.527M789.405 130.735L746.254 128M789.405 130.735L792.824 181.527M746.254 128L745.745 179.574L792.824 181.527" stroke="#DBDEE7"/>
<path d="M748.007 210.807L749.311 160.038L745.469 128.391V178.792" stroke="url(#paint2_linear_3412_38193)" stroke-width="3" stroke-linecap="round" stroke-linejoin="round"/>
<path d="M232.394 92.3172L394.027 46.8301H620.679L746.878 92.3172L748.525 323.924L551.074 407.714L146.63 408.714L37.5684 313.926L232.394 92.3172Z" fill="#EBFF00" fill-opacity="0.25"/>
</g>
</g>
<defs>
<linearGradient id="paint0_linear_3412_38193" x1="203.79" y1="30.3939" x2="308.416" y2="496.806" gradientUnits="userSpaceOnUse">
<stop stop-color="#289B9C"/>
<stop offset="1" stop-color="#2B74E1"/>
</linearGradient>
<linearGradient id="paint1_linear_3412_38193" x1="179.338" y1="150.393" x2="118.284" y2="153.078" gradientUnits="userSpaceOnUse">
<stop offset="0.507001" stop-color="#E0E0E0"/>
<stop offset="0.553734" stop-color="white"/>
<stop offset="0.72473" stop-color="#E0E0E0"/>
<stop offset="0.827517" stop-color="white"/>
</linearGradient>
<linearGradient id="paint2_linear_3412_38193" x1="718.613" y1="150.661" x2="779.669" y2="153.314" gradientUnits="userSpaceOnUse">
<stop offset="0.507001" stop-color="#E0E0E0"/>
<stop offset="0.553734" stop-color="white"/>
<stop offset="0.72473" stop-color="#E0E0E0"/>
<stop offset="0.827517" stop-color="white"/>
</linearGradient>
<clipPath id="clip0_3412_38193">
<path d="M0 9.99999C0 4.47714 4.47715 0 10 0H828C833.523 0 838 4.47715 838 10V462C838 467.523 833.523 472 828 472H9.99998C4.47713 472 0 467.523 0 462V9.99999Z" fill="white"/>
</clipPath>
<clipPath id="clip1_3412_38193">
<rect width="89.9254" height="22" fill="white" transform="translate(714.189 442)"/>
</clipPath>
<clipPath id="clip2_3412_38193">
<rect width="1730.74" height="395" fill="white" transform="translate(-119.9 39)"/>
</clipPath>
</defs>
</svg>
