<svg width="838" height="472" viewBox="0 0 838 472" fill="none" xmlns="http://www.w3.org/2000/svg">
<g clip-path="url(#clip0_3412_38186)">
<path d="M838 9.99999C838 4.47714 833.523 0 828 0H9.99998C4.47713 0 0 4.47715 0 10V462C0 467.523 4.47715 472 10 472H828C833.523 472 838 467.523 838 462V9.99999Z" fill="url(#paint0_linear_3412_38186)"/>
<g clip-path="url(#clip1_3412_38186)">
<path d="M228.8 39H1293.42L1690.34 434H-168.121L228.8 39Z" fill="#4AB75C"/>
<path opacity="0.1" d="M706.317 46.8125H765.453L725.119 411.12H625.904L706.317 46.8125Z" fill="white"/>
<path opacity="0.1" d="M588.044 46.8125H647.18L526.69 411.12H427.476L588.044 46.8125Z" fill="white"/>
<path opacity="0.1" d="M468.752 46.8125H527.888L326.55 411.12H227.336L468.752 46.8125Z" fill="white"/>
<path opacity="0.1" d="M350.479 46.8125H409.615L128.122 411.12H28.9072L350.479 46.8125Z" fill="white"/>
<path opacity="0.1" d="M824.589 46.8125H883.726L923.547 411.12H824.333L824.589 46.8125Z" fill="white"/>
<path d="M1619.76 411.12H1618.05H30.6178H28.9072L29.7627 410.151L350.176 47.1574L350.48 46.8125H351.5H1297.68H1298.7L1299 47.1574L1618.91 410.151L1619.76 411.12ZM34.0301 409.184H1614.64L1297.27 47.5027H351.913L34.0301 409.184Z" fill="white"/>
<path d="M47.3294 391.197H46.9091H46.6983H46.4875L44.8457 393.063H45.0578H45.2686H45.4794H45.6902C49.2619 393.013 52.8007 393.451 55.9919 394.34C58.7024 395.126 60.9091 396.354 62.3111 397.858C63.7623 399.493 64.3958 401.313 64.1458 403.128C63.8394 405.402 62.7473 407.622 60.9287 409.668C60.8248 409.79 60.7192 409.912 60.6119 410.034C60.5045 410.156 60.3947 410.277 60.2822 410.398C60.1706 410.519 60.0569 410.64 59.9411 410.761C59.8253 410.881 59.7077 411.001 59.5885 411.121H63.0189C63.1365 411.001 63.2523 410.881 63.3665 410.76C63.4806 410.639 63.5926 410.519 63.7025 410.398C63.8132 410.277 63.9218 410.155 64.0283 410.034C64.1348 409.912 64.2395 409.79 64.3426 409.668C66.3604 407.39 67.568 404.918 67.8996 402.387C68.168 400.367 67.4533 398.344 65.8298 396.528C64.2629 394.857 61.8042 393.493 58.7874 392.621C55.2378 391.633 51.3023 391.144 47.3294 391.197V391.197Z" fill="white"/>
<path d="M344.514 54.1497H344.003L344.628 53.4432H344.755H345.139C347.65 53.4386 350.152 53.2763 352.596 52.9592C354.964 52.6565 357.266 52.2135 359.462 51.638C361.447 51.1268 363.301 50.4728 364.976 49.693C366.4 49.0456 367.564 48.2409 368.393 47.3304C368.43 47.2866 368.465 47.243 368.499 47.1997C368.533 47.1563 368.566 47.113 368.598 47.0697C368.629 47.0263 368.659 46.9832 368.687 46.9404C368.715 46.8975 368.742 46.8549 368.768 46.8125H370.812C370.785 46.8554 370.758 46.8982 370.729 46.9411C370.7 46.9839 370.67 47.027 370.638 47.0704C370.607 47.1137 370.574 47.157 370.54 47.2004C370.506 47.2437 370.47 47.2873 370.434 47.3311C369.514 48.3459 368.22 49.2431 366.636 49.965C364.771 50.8352 362.705 51.565 360.494 52.1354C358.042 52.7776 355.471 53.2715 352.828 53.6085C350.102 53.9626 347.313 54.1441 344.514 54.1497V54.1497Z" fill="white"/>
<path d="M827.753 411.12H824.332L824.588 46.8125H826.628L827.753 411.12Z" fill="white"/>
<path d="M343.179 292.343H341.694H135.237H133.752L134.397 291.612L302.95 100.659L303.318 100.242H304.439H460.249H461.37L461.113 100.659L343.629 291.612L343.179 292.343ZM138.006 290.882H341.113L458.611 101.077H304.827L138.006 290.882Z" fill="white"/>
<path d="M255.083 229.135H253.717H190.908H189.543L190.088 228.517L265.453 143.137L265.876 142.658H267.077H322.341H323.542L323.163 143.137L255.572 228.517L255.083 229.135ZM193.358 227.901H253.334L320.377 143.617H267.436L193.358 227.901Z" fill="white"/>
<path d="M825.144 229.753C823.278 229.753 821.412 229.732 819.551 229.69C817.689 229.647 815.832 229.584 813.982 229.499C812.132 229.415 810.29 229.309 808.459 229.183C806.629 229.057 804.81 228.91 803.005 228.742C801.247 228.579 799.498 228.396 797.76 228.193C796.023 227.99 794.299 227.768 792.59 227.527C790.881 227.286 789.188 227.026 787.514 226.747C785.841 226.469 784.186 226.172 782.553 225.857C780.951 225.548 779.366 225.221 777.801 224.877C776.237 224.533 774.693 224.172 773.171 223.794C771.652 223.417 770.154 223.023 768.683 222.614C767.212 222.204 765.768 221.779 764.351 221.34C762.95 220.904 761.573 220.454 760.223 219.988C758.875 219.524 757.554 219.044 756.262 218.551C754.972 218.059 753.711 217.553 752.482 217.034C751.254 216.516 750.058 215.986 748.896 215.444C747.736 214.903 746.606 214.349 745.51 213.783C744.416 213.218 743.355 212.642 742.329 212.055C741.304 211.47 740.314 210.873 739.361 210.268C738.409 209.663 737.494 209.05 736.617 208.428C735.733 207.801 734.886 207.165 734.078 206.52C733.27 205.876 732.501 205.224 731.771 204.565C731.042 203.907 730.353 203.241 729.704 202.57C729.056 201.901 728.448 201.225 727.881 200.544C727.306 199.853 726.771 199.154 726.278 198.451C725.787 197.749 725.337 197.041 724.929 196.33C724.523 195.62 724.158 194.906 723.836 194.189C723.515 193.474 723.237 192.756 723.001 192.036C722.76 191.3 722.564 190.56 722.412 189.817C722.26 189.076 722.153 188.333 722.09 187.588C722.027 186.845 722.008 186.101 722.033 185.358C722.058 184.615 722.128 183.874 722.24 183.133C722.353 182.395 722.509 181.658 722.708 180.924C722.907 180.191 723.149 179.462 723.432 178.737C723.715 178.013 724.04 177.293 724.407 176.579C724.772 175.867 725.179 175.16 725.626 174.459C726.061 173.778 726.536 173.101 727.049 172.429C727.561 171.758 728.112 171.093 728.7 170.434C729.286 169.777 729.91 169.126 730.57 168.482C731.228 167.839 731.923 167.204 732.652 166.578C733.366 165.964 734.116 165.356 734.899 164.756C735.681 164.157 736.497 163.566 737.344 162.983C738.19 162.402 739.068 161.828 739.977 161.265C740.883 160.702 741.821 160.148 742.787 159.605C743.742 159.068 744.727 158.54 745.741 158.021C746.754 157.503 747.794 156.995 748.861 156.498C749.927 156.001 751.019 155.514 752.136 155.039C753.251 154.565 754.39 154.101 755.553 153.65C756.714 153.199 757.9 152.759 759.108 152.331C760.316 151.904 761.546 151.488 762.797 151.084C764.047 150.681 765.318 150.29 766.607 149.912C767.895 149.534 769.201 149.169 770.525 148.818C771.859 148.464 773.214 148.122 774.586 147.794C775.957 147.466 777.345 147.151 778.749 146.851C780.152 146.55 781.569 146.263 783 145.991C784.43 145.719 785.872 145.461 787.326 145.217C788.805 144.969 790.3 144.736 791.806 144.518C793.312 144.3 794.83 144.096 796.359 143.908C797.886 143.72 799.424 143.547 800.969 143.389C802.514 143.231 804.066 143.089 805.624 142.962C807.221 142.832 808.829 142.718 810.444 142.621C812.059 142.523 813.682 142.441 815.311 142.376C816.939 142.311 818.572 142.262 820.208 142.229C821.844 142.196 823.483 142.18 825.122 142.18C826.761 142.18 828.4 142.196 830.036 142.229C831.672 142.262 833.306 142.311 834.934 142.376C836.562 142.441 838.185 142.523 839.8 142.621C841.416 142.718 843.024 142.832 844.621 142.962C846.179 143.089 847.731 143.231 849.276 143.389C850.821 143.547 852.359 143.72 853.886 143.908C855.415 144.096 856.933 144.3 858.439 144.518C859.946 144.736 861.441 144.969 862.92 145.217C864.374 145.461 865.816 145.719 867.246 145.991C868.677 146.263 870.095 146.55 871.498 146.851C872.902 147.151 874.29 147.466 875.661 147.794C877.034 148.122 878.388 148.464 879.723 148.818C881.046 149.169 882.353 149.534 883.641 149.912C884.931 150.29 886.202 150.681 887.451 151.084C888.703 151.488 889.933 151.904 891.141 152.331C892.35 152.759 893.536 153.199 894.697 153.65C895.86 154.101 897 154.565 898.115 155.039C899.232 155.514 900.324 156.001 901.39 156.498C902.457 156.995 903.498 157.503 904.511 158.021C905.525 158.54 906.511 159.068 907.466 159.605C908.433 160.148 909.37 160.702 910.277 161.265C911.186 161.828 912.064 162.402 912.91 162.983C913.758 163.566 914.574 164.157 915.356 164.756C916.14 165.356 916.89 165.964 917.605 166.578C918.334 167.204 919.029 167.839 919.687 168.482C920.348 169.126 920.972 169.777 921.559 170.434C922.147 171.093 922.698 171.758 923.21 172.429C923.724 173.101 924.199 173.778 924.634 174.459C925.082 175.16 925.489 175.867 925.855 176.579C926.221 177.293 926.547 178.013 926.83 178.737C927.114 179.462 927.356 180.191 927.555 180.924C927.755 181.658 927.911 182.395 928.024 183.133C928.137 183.874 928.207 184.615 928.232 185.358C928.258 186.101 928.239 186.845 928.177 187.588C928.114 188.333 928.007 189.076 927.856 189.817C927.704 190.56 927.508 191.3 927.268 192.036C927.033 192.756 926.754 193.474 926.434 194.189C926.112 194.906 925.748 195.62 925.342 196.33C924.935 197.041 924.485 197.749 923.994 198.451C923.501 199.154 922.967 199.853 922.392 200.544C921.826 201.225 921.218 201.901 920.57 202.57C919.922 203.241 919.232 203.907 918.504 204.565C917.774 205.224 917.005 205.876 916.198 206.52C915.39 207.165 914.543 207.801 913.66 208.428C912.783 209.05 911.868 209.663 910.917 210.268C909.964 210.873 908.974 211.47 907.95 212.055C906.924 212.642 905.863 213.218 904.769 213.783C903.673 214.349 902.544 214.903 901.384 215.444C900.222 215.986 899.026 216.516 897.799 217.034C896.57 217.553 895.309 218.059 894.02 218.551C892.728 219.044 891.407 219.524 890.059 219.988C888.71 220.454 887.333 220.904 885.932 221.34C884.516 221.779 883.071 222.204 881.601 222.614C880.13 223.023 878.633 223.417 877.113 223.794C875.592 224.172 874.048 224.533 872.484 224.877C870.919 225.221 869.334 225.548 867.733 225.857C866.1 226.172 864.445 226.469 862.772 226.747C861.098 227.026 859.405 227.286 857.697 227.527C855.987 227.768 854.263 227.99 852.527 228.193C850.789 228.396 849.04 228.579 847.282 228.742C845.477 228.91 843.658 229.057 841.828 229.183C839.997 229.309 838.155 229.415 836.305 229.499C834.455 229.584 832.598 229.647 830.737 229.69C828.875 229.732 827.009 229.753 825.144 229.753ZM825.122 143.137C812.112 143.137 799.666 144.193 788.249 146.112C776.763 148.042 766.255 150.855 757.238 154.364C748.121 157.911 740.489 162.185 734.904 166.994C729.236 171.875 725.66 177.322 724.797 183.133C723.918 189.046 725.927 194.781 730.373 200.084C734.888 205.47 741.904 210.396 750.915 214.588C760.035 218.831 771.159 222.304 783.717 224.724C796.36 227.161 810.381 228.517 825.143 228.517C839.906 228.517 853.926 227.161 866.568 224.724C879.125 222.304 890.247 218.831 899.365 214.588C908.374 210.396 915.387 205.47 919.9 200.084C924.343 194.781 926.35 189.046 925.468 183.133C924.601 177.322 921.023 171.875 915.353 166.994C909.766 162.185 902.131 157.911 893.012 154.364C883.993 150.855 873.485 148.042 861.997 146.112C850.579 144.193 838.133 143.137 825.122 143.137Z" fill="white"/>
<path d="M387.018 221.088C395.337 218.944 403.318 216.42 410.878 213.541C418.017 210.83 424.692 207.764 430.82 204.38C436.492 201.258 441.532 197.805 445.853 194.081C449.827 190.665 452.947 186.967 455.129 183.089C457.078 179.646 457.991 176.05 457.831 172.444C457.666 169.224 456.454 166.046 454.254 163.063C452.081 160.161 449.019 157.487 445.204 155.159C441.188 152.719 436.538 150.623 431.406 148.941L430.671 150.135C435.499 151.796 439.856 153.844 443.599 156.211C447.168 158.478 450.014 161.064 452.014 163.858C454.048 166.738 455.146 169.794 455.258 172.885C455.359 176.344 454.453 179.789 452.575 183.089C450.477 186.798 447.497 190.336 443.713 193.611C439.605 197.175 434.819 200.485 429.435 203.484C423.629 206.73 417.305 209.679 410.539 212.295C403.376 215.074 395.813 217.522 387.925 219.616L387.018 221.088Z" fill="white"/>
<path d="M824.497 179.631C825.505 179.629 826.507 179.715 827.467 179.884C828.341 180.037 829.162 180.27 829.895 180.574C830.567 180.85 831.128 181.199 831.545 181.601C831.944 181.985 832.156 182.42 832.16 182.863C832.164 183.306 831.961 183.742 831.57 184.129C831.159 184.534 830.602 184.887 829.932 185.166C829.196 185.476 828.369 185.713 827.489 185.868C825.539 186.211 823.444 186.211 821.494 185.868C820.614 185.713 819.788 185.476 819.053 185.166C818.383 184.887 817.826 184.534 817.416 184.129C817.025 183.742 816.822 183.306 816.827 182.863C816.832 182.42 817.045 181.985 817.444 181.601C817.859 181.2 818.419 180.85 819.088 180.574C819.822 180.27 820.642 180.037 821.516 179.884C822.48 179.714 823.485 179.629 824.497 179.631V179.631Z" fill="white"/>
<path d="M351.492 179.631C352.44 179.624 353.383 179.71 354.278 179.884C355.015 180.026 355.681 180.263 356.221 180.574C356.705 180.859 357.025 181.216 357.144 181.601C357.259 182.028 357.164 182.464 356.868 182.863C356.525 183.334 356.021 183.763 355.385 184.129C354.687 184.535 353.889 184.884 353.015 185.167C352.092 185.468 351.105 185.704 350.076 185.868C349.043 186.036 347.973 186.123 346.897 186.126C345.94 186.133 344.988 186.046 344.086 185.868C343.346 185.724 342.678 185.483 342.14 185.167C341.66 184.878 341.345 184.517 341.236 184.129C341.131 183.699 341.236 183.262 341.541 182.863C341.895 182.393 342.407 181.965 343.05 181.601C343.751 181.199 344.55 180.854 345.424 180.574C346.341 180.278 347.321 180.046 348.342 179.884C349.366 179.72 350.426 179.634 351.492 179.631V179.631Z" fill="white"/>
</g>
<path d="M212.088 162.801L211.691 202.638H138.444L150.545 135.835L190.166 97.5713L246.593 94L247.259 161.344L212.088 162.801Z" fill="white" fill-opacity="0.42"/>
<path d="M150.545 135.835H212.357M150.545 135.835L138.444 202.638M150.545 135.835L190.166 97.5713M212.357 135.835L211.691 202.638H138.444M212.357 135.835L246.593 94M138.444 202.638L185.694 163.895M190.166 97.5713L246.593 94M190.166 97.5713L185.694 163.895M246.593 94L247.259 161.344L185.694 163.895" stroke="#DBDEE7"/>
<path d="M211.72 202.128V135.834L247.621 94.5098V160.323" stroke="url(#paint1_linear_3412_38186)" stroke-width="3" stroke-linecap="round" stroke-linejoin="round"/>
<g opacity="0.5" clip-path="url(#clip2_3412_38186)">
<path d="M775.294 458.05L782.779 450.567L782.838 450.501L782.895 450.433L782.948 450.363L782.994 450.286L783.036 450.204L783.073 450.123L783.104 450.037L783.132 449.951L783.152 449.863L783.17 449.775L783.181 449.597V444.749L783.178 444.617L783.167 444.488L783.154 444.358L783.132 444.228L783.106 444.098L783.071 443.973L783.031 443.85L782.985 443.724L782.935 443.608L782.878 443.489L782.814 443.373L782.746 443.26L782.676 443.153L782.594 443.049L782.511 442.948L782.423 442.851L782.329 442.759L782.232 442.671L782.131 442.587L782.025 442.508L781.918 442.438L781.806 442.37L781.689 442.306L781.571 442.249L781.452 442.198L781.327 442.152L781.204 442.112L781.077 442.077L780.947 442.048L780.817 442.026L780.688 442.013L780.558 442.002L780.431 442H775.584L775.496 442.002L775.406 442.011L775.318 442.029L775.23 442.046L775.145 442.075L775.059 442.106L774.975 442.145L774.896 442.187L774.819 442.233L774.749 442.286L774.681 442.343L774.615 442.405L767.135 449.892L767.805 450.561C767.914 450.671 767.838 450.862 767.679 450.862H764.218V447.396C764.218 447.239 764.407 447.16 764.519 447.27L765.189 447.943L769.957 443.172L770.001 443.126L770.04 443.073L770.073 443.023L770.1 442.966L770.122 442.906L770.139 442.847L770.15 442.785L770.155 442.721V442.655L770.15 442.592L770.139 442.532L770.122 442.471L770.1 442.411L770.071 442.352L770.038 442.299L769.999 442.246L769.955 442.2L769.909 442.158L769.858 442.119L769.803 442.086L769.746 442.055L769.689 442.033L769.628 442.015L769.564 442.002L769.469 442H768.499H763.939L763.807 442.002L763.678 442.013L763.548 442.026L763.419 442.048L763.289 442.077L763.164 442.112L763.039 442.152L762.916 442.198L762.797 442.249L762.679 442.306L762.562 442.37L762.45 442.438L762.342 442.508L762.237 442.587L762.136 442.671L762.039 442.759L761.947 442.851L761.859 442.948L761.776 443.049L761.697 443.153L761.624 443.26L761.556 443.373L761.493 443.489L761.435 443.608L761.385 443.724L761.337 443.85L761.299 443.973L761.264 444.098L761.238 444.228L761.216 444.358L761.203 444.488L761.192 444.617L761.189 444.749V458.343L761.192 458.433L761.2 458.523L761.218 458.611L761.238 458.699L761.264 458.783L761.295 458.868L761.334 458.952L761.376 459.029L761.424 459.106L761.475 459.181L761.532 459.249L761.591 459.315L761.657 459.374L761.73 459.432L761.802 459.482L761.879 459.528L761.958 459.572L762.042 459.607L762.125 459.64L762.213 459.665L762.299 459.687L762.389 459.7L762.476 459.709L762.567 459.711L762.657 459.709L762.744 459.7L762.834 459.687L762.92 459.665L763.008 459.64L763.091 459.607L763.175 459.572L763.254 459.528L763.331 459.482L763.401 459.432L763.474 459.374L763.539 459.315L773.934 448.913L773.458 448.434C773.348 448.324 773.425 448.135 773.583 448.135H777.046V451.599C777.046 451.755 776.858 451.834 776.748 451.724L776.269 451.247L765.872 461.646L765.81 461.712L765.753 461.783L765.701 461.855L765.654 461.932L765.611 462.012L765.575 462.095L765.542 462.179L765.518 462.267L765.496 462.35L765.483 462.443L765.474 462.531L765.472 462.623L765.474 462.713L765.483 462.801L765.496 462.891L765.518 462.977L765.542 463.065L765.575 463.149L765.611 463.23L765.654 463.312L765.701 463.389L765.753 463.459L765.81 463.531L765.872 463.597L765.938 463.657L766.006 463.714L766.081 463.767L766.157 463.813L766.234 463.855L766.318 463.894L766.403 463.925L766.489 463.952L766.577 463.971L766.665 463.989L766.753 463.993L766.772 463.998L766.847 464H780.435L780.567 463.998L780.697 463.987L780.826 463.974L780.956 463.952L781.085 463.925L781.213 463.89L781.336 463.853L781.461 463.806L781.58 463.756L781.698 463.699L781.815 463.635L781.927 463.567L782.034 463.496L782.14 463.415L782.241 463.334L782.337 463.246L782.432 463.153L782.52 463.056L782.603 462.955L782.684 462.85L782.755 462.742L782.823 462.63L782.886 462.513L782.943 462.394L782.994 462.276L783.04 462.152L783.08 462.029L783.115 461.902L783.141 461.772L783.163 461.642L783.176 461.512L783.187 461.383L783.189 461.251V456.684V455.714L783.187 455.65L783.178 455.587L783.161 455.523L783.141 455.461L783.117 455.404L783.086 455.349L783.051 455.299L783.009 455.248L782.961 455.204L782.915 455.162L782.853 455.129L782.796 455.098L782.739 455.072L782.68 455.052L782.621 455.039L782.557 455.03L782.493 455.028L782.43 455.03L782.366 455.039L782.307 455.052L782.245 455.072L782.188 455.098L782.131 455.129L782.078 455.164L782.008 455.228L777.24 459.999L777.912 460.668C778.024 460.778 777.945 460.969 777.789 460.969H774.328V457.505C774.328 457.349 774.516 457.269 774.628 457.379L775.294 458.05Z" fill="white"/>
<path d="M723.871 446.282L722.096 451.795C722.08 451.841 722.038 451.872 721.989 451.872H720.068C720.02 451.872 719.977 451.841 719.962 451.793L719.159 449.148C719.128 449.044 718.979 449.042 718.946 449.146L718.099 451.793C718.083 451.839 718.041 451.87 717.992 451.87H716.076C716.027 451.87 715.985 451.839 715.969 451.793L714.195 446.28C714.172 446.21 714.226 446.137 714.301 446.137H716.069C716.118 446.137 716.16 446.168 716.175 446.214L717.054 449.062C717.085 449.165 717.231 449.165 717.265 449.064L718.194 446.214C718.21 446.168 718.252 446.137 718.3 446.137H719.924C719.973 446.137 720.015 446.168 720.031 446.216L720.909 449.099C720.94 449.203 721.089 449.203 721.12 449.101L722.049 446.214C722.065 446.168 722.107 446.137 722.156 446.137H723.768C723.839 446.137 723.893 446.21 723.871 446.282Z" fill="white"/>
<path d="M724.867 446.137H726.588C726.65 446.137 726.699 446.185 726.699 446.247V451.76C726.699 451.821 726.65 451.87 726.588 451.87H724.867C724.805 451.87 724.756 451.821 724.756 451.76V446.247C724.756 446.187 724.807 446.137 724.867 446.137Z" fill="white"/>
<path d="M733.764 446.247V451.76C733.764 451.821 733.715 451.87 733.653 451.87H732.218C732.185 451.87 732.153 451.854 732.134 451.83L730.173 449.498C730.106 449.419 729.977 449.465 729.977 449.569V451.76C729.977 451.821 729.929 451.87 729.866 451.87H728.194C728.132 451.87 728.083 451.821 728.083 451.76V446.247C728.083 446.185 728.132 446.137 728.194 446.137H729.629C729.662 446.137 729.693 446.152 729.713 446.176L731.674 448.508C731.741 448.587 731.87 448.541 731.87 448.437V446.247C731.87 446.185 731.918 446.137 731.98 446.137H733.653C733.715 446.137 733.764 446.187 733.764 446.247Z" fill="white"/>
<path d="M740.835 446.247V451.76C740.835 451.821 740.787 451.87 740.725 451.87H739.289C739.256 451.87 739.225 451.854 739.205 451.83L737.244 449.498C737.178 449.419 737.049 449.465 737.049 449.569V451.76C737.049 451.821 737 451.87 736.938 451.87H735.263C735.201 451.87 735.152 451.821 735.152 451.76V446.247C735.152 446.185 735.201 446.137 735.263 446.137H736.698C736.732 446.137 736.763 446.152 736.783 446.176L738.744 448.508C738.81 448.587 738.939 448.541 738.939 448.437V446.247C738.939 446.185 738.988 446.137 739.05 446.137H740.722C740.787 446.137 740.835 446.187 740.835 446.247Z" fill="white"/>
<path d="M742.333 446.137H744.054C744.116 446.137 744.165 446.185 744.165 446.247V451.76C744.165 451.821 744.116 451.87 744.054 451.87H742.333C742.27 451.87 742.222 451.821 742.222 451.76V446.247C742.222 446.187 742.27 446.137 742.333 446.137Z" fill="white"/>
<path d="M751.231 446.247V451.76C751.231 451.821 751.182 451.87 751.12 451.87H749.685C749.651 451.87 749.62 451.854 749.6 451.83L747.639 449.498C747.573 449.419 747.444 449.465 747.444 449.569V451.76C747.444 451.821 747.395 451.87 747.333 451.87H745.661C745.599 451.87 745.55 451.821 745.55 451.76V446.247C745.55 446.185 745.599 446.137 745.661 446.137H747.096C747.129 446.137 747.16 446.152 747.18 446.176L749.141 448.508C749.208 448.587 749.336 448.541 749.336 448.437V446.247C749.336 446.185 749.385 446.137 749.447 446.137H751.12C751.18 446.137 751.231 446.187 751.231 446.247Z" fill="white"/>
<path d="M756.489 448.848H757.956C758.018 448.848 758.067 448.896 758.067 448.958V451.213C758.067 451.25 758.049 451.285 758.018 451.305C757.69 451.524 757.31 451.693 756.882 451.813C756.432 451.938 755.99 452 755.556 452C754.941 452 754.389 451.872 753.901 451.618C753.413 451.365 753.029 451.01 752.752 450.553C752.474 450.096 752.337 449.58 752.337 449C752.337 448.422 752.474 447.904 752.752 447.447C753.029 446.99 753.415 446.635 753.914 446.382C754.411 446.128 754.972 446 755.598 446C756.163 446 756.669 446.095 757.117 446.282C757.53 446.457 757.878 446.701 758.162 447.021C758.202 447.068 758.198 447.138 758.151 447.178L757.071 448.124C757.026 448.164 756.958 448.157 756.918 448.115C756.572 447.749 756.163 447.566 755.698 447.566C755.269 447.566 754.928 447.694 754.677 447.952C754.424 448.208 754.298 448.559 754.298 449C754.298 449.432 754.422 449.779 754.673 450.041C754.923 450.304 755.256 450.434 755.673 450.434C755.895 450.434 756.106 450.396 756.31 450.324C756.354 450.308 756.383 450.264 756.383 450.218V448.956C756.379 448.899 756.427 448.848 756.489 448.848Z" fill="white"/>
<path d="M737.38 454.275C737.777 454.457 738.085 454.72 738.299 455.063C738.515 455.407 738.622 455.806 738.622 456.263C738.622 456.72 738.515 457.119 738.299 457.463C738.082 457.806 737.777 458.067 737.38 458.251C736.982 458.434 736.516 458.526 735.981 458.526H735.255C735.193 458.526 735.144 458.577 735.144 458.641V459.885C735.144 459.949 735.095 460 735.032 460H733.301C733.239 460 733.189 459.949 733.189 459.885V454.115C733.189 454.051 733.239 454 733.301 454H735.981C736.516 454 736.982 454.092 737.38 454.275ZM736.451 456.78C736.583 456.657 736.65 456.484 736.65 456.261C736.65 456.037 736.583 455.866 736.451 455.742C736.32 455.619 736.119 455.557 735.856 455.557H735.255C735.193 455.557 735.144 455.608 735.144 455.672V456.847C735.144 456.911 735.193 456.962 735.255 456.962H735.856C736.121 456.964 736.32 456.902 736.451 456.78Z" fill="white"/>
<path d="M739.751 454H741.483C741.545 454 741.594 454.051 741.594 454.115V458.314C741.594 458.378 741.643 458.429 741.706 458.429H744.1C744.162 458.429 744.212 458.48 744.212 458.544V459.88C744.212 459.945 744.162 459.995 744.1 459.995H739.749C739.687 459.995 739.638 459.945 739.638 459.88V454.115C739.64 454.051 739.689 454 739.751 454Z" fill="white"/>
<path d="M749.134 454H747.358C747.313 454 747.273 454.028 747.255 454.069L744.819 459.834C744.787 459.91 744.841 459.995 744.921 459.995H746.662C746.708 459.995 746.749 459.965 746.766 459.922L747.128 458.95L747.666 457.495L748.125 456.265C748.161 456.166 748.297 456.166 748.333 456.265L748.792 457.495L749.33 458.95L749.691 459.922C749.707 459.965 749.749 459.995 749.796 459.995H751.57C751.65 459.995 751.704 459.91 751.673 459.834L749.236 454.069C749.218 454.028 749.178 454 749.134 454Z" fill="white"/>
<path d="M758.19 454.115V459.88C758.19 459.945 758.14 459.995 758.078 459.995H756.634C756.601 459.995 756.57 459.979 756.55 459.954L754.577 457.516C754.51 457.433 754.381 457.481 754.381 457.589V459.88C754.381 459.945 754.332 459.995 754.269 459.995H752.587C752.525 459.995 752.476 459.945 752.476 459.88V454.115C752.476 454.051 752.525 454 752.587 454H754.031C754.064 454 754.095 454.016 754.115 454.042L756.088 456.48C756.155 456.563 756.284 456.514 756.284 456.406V454.115C756.284 454.051 756.333 454 756.396 454H758.078C758.14 454 758.19 454.051 758.19 454.115Z" fill="white"/>
</g>
</g>
<defs>
<linearGradient id="paint0_linear_3412_38186" x1="634.21" y1="30.3939" x2="529.584" y2="496.806" gradientUnits="userSpaceOnUse">
<stop stop-color="#289B9C"/>
<stop offset="1" stop-color="#2B74E1"/>
</linearGradient>
<linearGradient id="paint1_linear_3412_38186" x1="282.741" y1="123.59" x2="202.898" y2="127.064" gradientUnits="userSpaceOnUse">
<stop offset="0.507001" stop-color="#E0E0E0"/>
<stop offset="0.553734" stop-color="white"/>
<stop offset="0.72473" stop-color="#E0E0E0"/>
<stop offset="0.827517" stop-color="white"/>
</linearGradient>
<clipPath id="clip0_3412_38186">
<path d="M838 9.99999C838 4.47714 833.523 0 828 0H9.99998C4.47713 0 0 4.47715 0 10V462C0 467.523 4.47715 472 10 472H828C833.523 472 838 467.523 838 462V9.99999Z" fill="white"/>
</clipPath>
<clipPath id="clip1_3412_38186">
<rect width="1730.74" height="395" fill="white" transform="translate(-40.4014 39)"/>
</clipPath>
<clipPath id="clip2_3412_38186">
<rect width="89.9254" height="22" fill="white" transform="translate(714.189 442)"/>
</clipPath>
</defs>
</svg>
