<svg width="838" height="472" viewBox="0 0 838 472" fill="none" xmlns="http://www.w3.org/2000/svg">
<g clip-path="url(#clip0_3412_38187)">
<path d="M0 9.99999C0 4.47714 4.47715 0 10 0H828C833.523 0 838 4.47715 838 10V462C838 467.523 833.523 472 828 472H9.99998C4.47713 472 0 467.523 0 462V9.99999Z" fill="url(#paint0_linear_3412_38187)"/>
<g clip-path="url(#clip1_3412_38187)">
<path d="M606.126 25H-456.251L-852.335 448H1002.21L606.126 25Z" fill="#4AB75C"/>
<path opacity="0.1" d="M131.683 46.8125H72.5474L112.881 411.12H212.096L131.683 46.8125Z" fill="white"/>
<path opacity="0.1" d="M249.956 46.8125H190.82L311.31 411.12H410.524L249.956 46.8125Z" fill="white"/>
<path opacity="0.1" d="M369.248 46.8125H310.112L511.45 411.12H610.664L369.248 46.8125Z" fill="white"/>
<path opacity="0.1" d="M487.521 46.8125H428.385L709.878 411.12H809.093L487.521 46.8125Z" fill="white"/>
<path opacity="0.1" d="M13.4115 46.8125H-45.7257L-85.5474 411.12H13.667L13.4115 46.8125Z" fill="white"/>
<path d="M-781.76 411.12H-780.049H807.382H809.093L808.237 410.151L487.824 47.1574L487.52 46.8125H486.5H-459.68H-460.699L-461.003 47.1574L-780.906 410.151L-781.76 411.12ZM803.97 409.184H-776.639L-459.266 47.5027H486.087L803.97 409.184Z" fill="white"/>
<path d="M790.671 391.197H791.091H791.302H791.513L793.154 393.063H792.942H792.731H792.521H792.31C788.738 393.013 785.199 393.451 782.008 394.34C779.298 395.126 777.091 396.354 775.689 397.858C774.238 399.493 773.604 401.313 773.854 403.128C774.161 405.402 775.253 407.622 777.071 409.668C777.175 409.79 777.281 409.912 777.388 410.034C777.495 410.156 777.605 410.277 777.718 410.398C777.829 410.519 777.943 410.64 778.059 410.761C778.175 410.881 778.292 411.001 778.412 411.121H774.981C774.864 411.001 774.748 410.881 774.634 410.76C774.519 410.639 774.407 410.519 774.298 410.398C774.187 410.277 774.078 410.155 773.972 410.034C773.865 409.912 773.76 409.79 773.657 409.668C771.64 407.39 770.432 404.918 770.1 402.387C769.832 400.367 770.547 398.344 772.17 396.528C773.737 394.857 776.196 393.493 779.213 392.621C782.762 391.633 786.698 391.144 790.671 391.197V391.197Z" fill="white"/>
<path d="M493.486 54.1497H493.997L493.372 53.4432H493.245H492.861C490.35 53.4386 487.848 53.2763 485.404 52.9592C483.036 52.6565 480.734 52.2135 478.538 51.638C476.553 51.1268 474.699 50.4728 473.024 49.693C471.6 49.0456 470.436 48.2409 469.607 47.3304C469.57 47.2866 469.535 47.243 469.501 47.1997C469.467 47.1563 469.434 47.113 469.402 47.0697C469.371 47.0263 469.341 46.9832 469.313 46.9404C469.285 46.8975 469.258 46.8549 469.232 46.8125H467.188C467.215 46.8554 467.242 46.8982 467.271 46.9411C467.3 46.9839 467.33 47.027 467.362 47.0704C467.393 47.1137 467.426 47.157 467.46 47.2004C467.494 47.2437 467.53 47.2873 467.566 47.3311C468.486 48.3459 469.78 49.2431 471.364 49.965C473.229 50.8352 475.295 51.565 477.506 52.1354C479.958 52.7776 482.529 53.2715 485.172 53.6085C487.898 53.9626 490.687 54.1441 493.486 54.1497V54.1497Z" fill="white"/>
<path d="M10.2468 411.12H13.668L13.4115 46.8125H11.3723L10.2468 411.12Z" fill="white"/>
<path d="M494.821 292.343H496.306H702.763H704.248L703.603 291.612L535.05 100.659L534.682 100.242H533.561H377.751H376.63L376.887 100.659L494.371 291.612L494.821 292.343ZM699.994 290.882H496.887L379.389 101.077H533.173L699.994 290.882Z" fill="white"/>
<path d="M582.917 229.135H584.283H647.092H648.457L647.912 228.517L572.547 143.137L572.124 142.658H570.923H515.659H514.458L514.837 143.137L582.428 228.517L582.917 229.135ZM644.642 227.901H584.666L517.623 143.617H570.564L644.642 227.901Z" fill="white"/>
<path d="M12.8563 229.753C14.7221 229.753 16.5875 229.732 18.4492 229.69C20.3106 229.647 22.168 229.584 24.0181 229.499C25.8677 229.415 27.7097 229.309 29.5407 229.183C31.3711 229.057 33.1903 228.91 34.9949 228.742C36.753 228.579 38.5024 228.396 40.24 228.193C41.9765 227.99 43.7011 227.768 45.4105 227.527C47.1187 227.286 48.8116 227.026 50.4861 226.747C52.1594 226.469 53.814 226.172 55.4471 225.857C57.049 225.548 58.634 225.221 60.1993 224.877C61.7631 224.533 63.3071 224.172 64.8285 223.794C66.3484 223.417 67.8456 223.023 69.3174 222.614C70.7875 222.204 72.2322 221.779 73.6488 221.34C75.0501 220.904 76.4268 220.454 77.7767 219.988C79.1247 219.524 80.4458 219.044 81.7377 218.551C83.0278 218.059 84.2887 217.553 85.518 217.034C86.7455 216.516 87.9416 215.986 89.1038 215.444C90.2643 214.903 91.3935 214.349 92.4896 213.783C93.5839 213.218 94.6451 212.642 95.6714 212.055C96.6961 211.47 97.6859 210.873 98.6392 210.268C99.5908 209.663 100.506 209.05 101.383 208.428C102.267 207.801 103.114 207.165 103.922 206.52C104.73 205.876 105.499 205.224 106.229 204.565C106.958 203.907 107.647 203.241 108.296 202.57C108.944 201.901 109.552 201.225 110.119 200.544C110.694 199.853 111.229 199.154 111.722 198.451C112.213 197.749 112.663 197.041 113.071 196.33C113.477 195.62 113.842 194.906 114.164 194.189C114.485 193.474 114.763 192.756 114.999 192.036C115.24 191.3 115.436 190.56 115.588 189.817C115.74 189.076 115.847 188.333 115.91 187.588C115.973 186.845 115.992 186.101 115.967 185.358C115.942 184.615 115.872 183.874 115.76 183.133C115.647 182.395 115.491 181.658 115.292 180.924C115.093 180.191 114.851 179.462 114.568 178.737C114.285 178.013 113.96 177.293 113.593 176.579C113.228 175.867 112.821 175.16 112.374 174.459C111.939 173.778 111.464 173.101 110.951 172.429C110.439 171.758 109.888 171.093 109.3 170.434C108.714 169.777 108.09 169.126 107.43 168.482C106.772 167.839 106.077 167.204 105.348 166.578C104.634 165.964 103.884 165.356 103.101 164.756C102.319 164.157 101.503 163.566 100.656 162.983C99.8096 162.402 98.9317 161.828 98.0233 161.265C97.1165 160.702 96.1794 160.148 95.2134 159.605C94.2582 159.068 93.2727 158.54 92.2588 158.021C91.2465 157.503 90.2058 156.995 89.1386 156.498C88.073 156.001 86.981 155.514 85.8643 155.039C84.7493 154.565 83.6097 154.101 82.4473 153.65C81.2865 153.199 80.1005 152.759 78.8915 152.331C77.6842 151.904 76.4538 151.488 75.2025 151.084C73.9529 150.681 72.6823 150.29 71.393 149.912C70.1052 149.534 68.7986 149.169 67.4753 148.818C66.1408 148.464 64.7862 148.122 63.414 147.794C62.0432 147.466 60.6547 147.151 59.2509 146.851C57.8485 146.55 56.4307 146.263 54.9999 145.991C53.5702 145.719 52.1275 145.461 50.6741 145.217C49.1948 144.969 47.7005 144.736 46.1937 144.518C44.6879 144.3 43.1695 144.096 41.6411 143.908C40.1136 143.72 38.5759 143.547 37.0306 143.389C35.4861 143.231 33.9339 143.089 32.3765 142.962C30.7792 142.832 29.1715 142.718 27.5558 142.621C25.9407 142.523 24.3176 142.441 22.6893 142.376C21.0612 142.311 19.4278 142.262 17.7916 142.229C16.1557 142.196 14.5168 142.18 12.8778 142.18C11.2388 142.18 9.59991 142.196 7.96391 142.229C6.32774 142.262 4.69427 142.311 3.06622 142.376C1.43782 142.441 -0.18533 142.523 -1.80049 142.621C-3.41616 142.718 -5.02399 142.832 -6.62129 142.962C-8.17877 143.089 -9.73108 143.231 -11.2757 143.389C-12.821 143.547 -14.3588 143.72 -15.8864 143.908C-17.4149 144.096 -18.9334 144.3 -20.4393 144.518C-21.9462 144.736 -23.4406 144.969 -24.92 145.217C-26.3736 145.461 -27.8164 145.719 -29.2461 145.991C-30.6771 146.263 -32.0951 146.55 -33.4977 146.851C-34.9016 147.151 -36.2902 147.466 -37.6611 147.794C-39.0335 148.122 -40.3883 148.464 -41.723 148.818C-43.0465 149.169 -44.3533 149.534 -45.6412 149.912C-46.9308 150.29 -48.2015 150.681 -49.4514 151.084C-50.7028 151.488 -51.9334 151.904 -53.1409 152.331C-54.3501 152.759 -55.5363 153.199 -56.6973 153.65C-57.86 154.101 -58.9998 154.565 -60.1151 155.039C-61.232 155.514 -62.3242 156.001 -63.39 156.498C-64.4575 156.995 -65.4984 157.503 -66.511 158.021C-67.5252 158.54 -68.5109 159.068 -69.4663 159.605C-70.4326 160.148 -71.37 160.702 -72.2771 161.265C-73.1857 161.828 -74.064 162.402 -74.9103 162.983C-75.7581 163.566 -76.5739 164.157 -77.3561 164.756C-78.1398 165.356 -78.8898 165.964 -79.6046 166.578C-80.3341 167.204 -81.0287 167.839 -81.6875 168.482C-82.3476 169.126 -82.9716 169.777 -83.5586 170.434C-84.1467 171.093 -84.6976 171.758 -85.2101 172.429C-85.7237 173.101 -86.1987 173.778 -86.6341 174.459C-87.0818 175.16 -87.4888 175.867 -87.8547 176.579C-88.2214 177.293 -88.5467 178.013 -88.8301 178.737C-89.1141 179.462 -89.356 180.191 -89.5551 180.924C-89.7546 181.658 -89.9112 182.395 -90.0241 183.133C-90.1374 183.874 -90.2067 184.615 -90.2323 185.358C-90.2579 186.101 -90.2395 186.845 -90.1769 187.588C-90.1143 188.333 -90.0073 189.076 -89.8561 189.817C-89.7045 190.56 -89.5084 191.3 -89.2678 192.036C-89.0327 192.756 -88.7545 193.474 -88.4337 194.189C-88.1123 194.906 -87.7481 195.62 -87.3417 196.33C-86.9345 197.041 -86.485 197.749 -85.9936 198.451C-85.5014 199.154 -84.9672 199.853 -84.3917 200.544C-83.8256 201.225 -83.2181 201.901 -82.5705 202.57C-81.9216 203.241 -81.2324 203.907 -80.5041 204.565C-79.7744 205.224 -79.0054 205.876 -78.1985 206.52C-77.39 207.165 -76.5434 207.801 -75.6599 208.428C-74.7832 209.05 -73.8683 209.663 -72.917 210.268C-71.964 210.873 -70.9745 211.47 -69.9501 212.055C-68.9241 212.642 -67.8632 213.218 -66.7691 213.783C-65.6733 214.349 -64.5445 214.903 -63.3842 215.444C-62.2222 215.986 -61.0264 216.516 -59.7991 217.034C-58.57 217.553 -57.3095 218.059 -56.0196 218.551C-54.728 219.044 -53.4071 219.524 -52.0593 219.988C-50.7097 220.454 -49.3332 220.904 -47.9321 221.34C-46.5157 221.779 -45.0712 222.204 -43.6013 222.614C-42.1296 223.023 -40.6326 223.417 -39.113 223.794C-37.5917 224.172 -36.0479 224.533 -34.4843 224.877C-32.9191 225.221 -31.3343 225.548 -29.7325 225.857C-28.0996 226.172 -26.4451 226.469 -24.772 226.747C-23.0977 227.026 -21.4049 227.286 -19.6967 227.527C-17.9874 227.768 -16.263 227.99 -14.5266 228.193C-12.7891 228.396 -11.0398 228.579 -9.28178 228.742C-7.47725 228.91 -5.65814 229.057 -3.82782 229.183C-1.99685 229.309 -0.154898 229.415 1.69468 229.499C3.54468 229.584 5.40207 229.647 7.26349 229.69C9.12511 229.732 10.9905 229.753 12.8563 229.753ZM12.8775 143.137C25.8879 143.137 38.334 144.193 49.751 146.112C61.2372 148.042 71.7446 150.855 80.762 154.364C89.8785 157.911 97.5114 162.185 103.096 166.994C108.764 171.875 112.34 177.322 113.203 183.133C114.082 189.046 112.073 194.781 107.627 200.084C103.112 205.47 96.0964 210.396 87.085 214.588C77.9651 218.831 66.8413 222.304 54.2835 224.724C41.6401 227.161 27.6194 228.517 12.8566 228.517C-1.9062 228.517 -15.9262 227.161 -28.5684 224.724C-41.125 222.304 -52.2471 218.831 -61.3649 214.588C-70.3743 210.396 -77.3873 205.47 -81.8999 200.084C-86.3432 194.781 -88.3497 189.046 -87.4678 183.133C-86.6012 177.322 -83.0226 171.875 -77.3527 166.994C-71.7656 162.185 -64.1307 157.911 -55.0124 154.364C-45.9933 150.855 -35.4845 148.042 -23.9973 146.112C-12.5794 144.193 -0.13281 143.137 12.8775 143.137Z" fill="white"/>
<path d="M450.982 221.088C442.663 218.944 434.682 216.42 427.122 213.541C419.983 210.83 413.308 207.764 407.18 204.38C401.508 201.258 396.468 197.805 392.147 194.081C388.173 190.665 385.053 186.967 382.871 183.089C380.922 179.646 380.009 176.05 380.169 172.444C380.334 169.224 381.546 166.046 383.746 163.063C385.919 160.161 388.981 157.487 392.796 155.159C396.812 152.719 401.462 150.623 406.594 148.941L407.329 150.135C402.501 151.796 398.144 153.844 394.401 156.211C390.832 158.478 387.986 161.064 385.986 163.858C383.952 166.738 382.854 169.794 382.742 172.885C382.641 176.344 383.547 179.789 385.425 183.089C387.523 186.798 390.503 190.336 394.287 193.611C398.395 197.175 403.181 200.485 408.565 203.484C414.371 206.73 420.695 209.679 427.461 212.295C434.624 215.074 442.187 217.522 450.075 219.616L450.982 221.088Z" fill="white"/>
<path d="M13.5034 179.631C12.4955 179.629 11.4933 179.715 10.5329 179.884C9.65918 180.037 8.83846 180.27 8.10537 180.574C7.43349 180.85 6.87157 181.199 6.45466 181.601C6.05612 181.985 5.84441 182.42 5.84015 182.863C5.8359 183.306 6.03925 183.742 6.43038 184.129C6.84055 184.534 7.39831 184.887 8.06832 185.166C8.80439 185.476 9.63056 185.713 10.5112 185.868C12.4611 186.211 14.5559 186.211 16.5059 185.868C17.3861 185.713 18.2118 185.476 18.9474 185.166C19.617 184.887 20.1743 184.534 20.5841 184.129C20.9749 183.742 21.1777 183.306 21.1728 182.863C21.1678 182.42 20.9553 181.985 20.556 181.601C20.1408 181.2 19.5811 180.85 18.9117 180.574C18.1785 180.27 17.3578 180.037 16.4841 179.884C15.5205 179.714 14.5148 179.629 13.5034 179.631V179.631Z" fill="white"/>
<path d="M486.508 179.631C485.56 179.624 484.617 179.71 483.722 179.884C482.985 180.026 482.319 180.263 481.779 180.574C481.295 180.859 480.975 181.216 480.856 181.601C480.741 182.028 480.836 182.464 481.132 182.863C481.475 183.334 481.979 183.763 482.615 184.129C483.313 184.535 484.111 184.884 484.985 185.167C485.908 185.468 486.895 185.704 487.924 185.868C488.957 186.036 490.027 186.123 491.103 186.126C492.06 186.133 493.012 186.046 493.914 185.868C494.654 185.724 495.322 185.483 495.86 185.167C496.34 184.878 496.655 184.517 496.764 184.129C496.869 183.699 496.764 183.262 496.459 182.863C496.105 182.393 495.593 181.965 494.95 181.601C494.249 181.199 493.45 180.854 492.576 180.574C491.659 180.278 490.679 180.046 489.658 179.884C488.634 179.72 487.574 179.634 486.508 179.631V179.631Z" fill="white"/>
</g>
<path d="M624.609 162.801L625.007 202.638H698.253L686.153 135.835L646.532 97.5713L590.104 94L589.438 161.344L624.609 162.801Z" fill="white" fill-opacity="0.42"/>
<path d="M686.153 135.835H624.341M686.153 135.835L698.253 202.638M686.153 135.835L646.532 97.5713M624.341 135.835L625.007 202.638H698.253M624.341 135.835L590.104 94M698.253 202.638L651.003 163.895M646.532 97.5713L590.104 94M646.532 97.5713L651.003 163.895M590.104 94L589.438 161.344L651.003 163.895" stroke="#DBDEE7"/>
<path d="M624.978 202.128V135.834L589.076 94.5098V160.323" stroke="url(#paint1_linear_3412_38187)" stroke-width="3" stroke-linecap="round" stroke-linejoin="round"/>
<g opacity="0.5" clip-path="url(#clip2_3412_38187)">
<path d="M775.294 458.05L782.779 450.567L782.838 450.501L782.895 450.433L782.948 450.363L782.994 450.286L783.036 450.204L783.073 450.123L783.104 450.037L783.132 449.951L783.152 449.863L783.17 449.775L783.181 449.597V444.749L783.178 444.617L783.167 444.488L783.154 444.358L783.132 444.228L783.106 444.098L783.071 443.973L783.031 443.85L782.985 443.724L782.935 443.608L782.878 443.489L782.814 443.373L782.746 443.26L782.676 443.153L782.594 443.049L782.511 442.948L782.423 442.851L782.329 442.759L782.232 442.671L782.131 442.587L782.025 442.508L781.918 442.438L781.806 442.37L781.689 442.306L781.571 442.249L781.452 442.198L781.327 442.152L781.204 442.112L781.077 442.077L780.947 442.048L780.817 442.026L780.688 442.013L780.558 442.002L780.431 442H775.584L775.496 442.002L775.406 442.011L775.318 442.029L775.23 442.046L775.145 442.075L775.059 442.106L774.975 442.145L774.896 442.187L774.819 442.233L774.749 442.286L774.681 442.343L774.615 442.405L767.135 449.892L767.805 450.561C767.914 450.671 767.838 450.862 767.679 450.862H764.218V447.396C764.218 447.239 764.407 447.16 764.519 447.27L765.189 447.943L769.957 443.172L770.001 443.126L770.04 443.073L770.073 443.023L770.1 442.966L770.122 442.906L770.139 442.847L770.15 442.785L770.155 442.721V442.655L770.15 442.592L770.139 442.532L770.122 442.471L770.1 442.411L770.071 442.352L770.038 442.299L769.999 442.246L769.955 442.2L769.909 442.158L769.858 442.119L769.803 442.086L769.746 442.055L769.689 442.033L769.628 442.015L769.564 442.002L769.469 442H768.499H763.939L763.807 442.002L763.678 442.013L763.548 442.026L763.419 442.048L763.289 442.077L763.164 442.112L763.039 442.152L762.916 442.198L762.797 442.249L762.679 442.306L762.562 442.37L762.45 442.438L762.342 442.508L762.237 442.587L762.136 442.671L762.039 442.759L761.947 442.851L761.859 442.948L761.776 443.049L761.697 443.153L761.624 443.26L761.556 443.373L761.493 443.489L761.435 443.608L761.385 443.724L761.337 443.85L761.299 443.973L761.264 444.098L761.238 444.228L761.216 444.358L761.203 444.488L761.192 444.617L761.189 444.749V458.343L761.192 458.433L761.2 458.523L761.218 458.611L761.238 458.699L761.264 458.783L761.295 458.868L761.334 458.952L761.376 459.029L761.424 459.106L761.475 459.181L761.532 459.249L761.591 459.315L761.657 459.374L761.73 459.432L761.802 459.482L761.879 459.528L761.958 459.572L762.042 459.607L762.125 459.64L762.213 459.665L762.299 459.687L762.389 459.7L762.476 459.709L762.567 459.711L762.657 459.709L762.744 459.7L762.834 459.687L762.92 459.665L763.008 459.64L763.091 459.607L763.175 459.572L763.254 459.528L763.331 459.482L763.401 459.432L763.474 459.374L763.539 459.315L773.934 448.913L773.458 448.434C773.348 448.324 773.425 448.135 773.583 448.135H777.046V451.599C777.046 451.755 776.858 451.834 776.748 451.724L776.269 451.247L765.872 461.646L765.81 461.712L765.753 461.783L765.701 461.855L765.654 461.932L765.611 462.012L765.575 462.095L765.542 462.179L765.518 462.267L765.496 462.35L765.483 462.443L765.474 462.531L765.472 462.623L765.474 462.713L765.483 462.801L765.496 462.891L765.518 462.977L765.542 463.065L765.575 463.149L765.611 463.23L765.654 463.312L765.701 463.389L765.753 463.459L765.81 463.531L765.872 463.597L765.938 463.657L766.006 463.714L766.081 463.767L766.157 463.813L766.234 463.855L766.318 463.894L766.403 463.925L766.489 463.952L766.577 463.971L766.665 463.989L766.753 463.993L766.772 463.998L766.847 464H780.435L780.567 463.998L780.697 463.987L780.826 463.974L780.956 463.952L781.085 463.925L781.213 463.89L781.336 463.853L781.461 463.806L781.58 463.756L781.698 463.699L781.815 463.635L781.927 463.567L782.034 463.496L782.14 463.415L782.241 463.334L782.337 463.246L782.432 463.153L782.52 463.056L782.603 462.955L782.684 462.85L782.755 462.742L782.823 462.63L782.886 462.513L782.943 462.394L782.994 462.276L783.04 462.152L783.08 462.029L783.115 461.902L783.141 461.772L783.163 461.642L783.176 461.512L783.187 461.383L783.189 461.251V456.684V455.714L783.187 455.65L783.178 455.587L783.161 455.523L783.141 455.461L783.117 455.404L783.086 455.349L783.051 455.299L783.009 455.248L782.961 455.204L782.915 455.162L782.853 455.129L782.796 455.098L782.739 455.072L782.68 455.052L782.621 455.039L782.557 455.03L782.493 455.028L782.43 455.03L782.366 455.039L782.307 455.052L782.245 455.072L782.188 455.098L782.131 455.129L782.078 455.164L782.008 455.228L777.24 459.999L777.912 460.668C778.024 460.778 777.945 460.969 777.789 460.969H774.328V457.505C774.328 457.349 774.516 457.269 774.628 457.379L775.294 458.05Z" fill="white"/>
<path d="M723.871 446.282L722.096 451.795C722.08 451.841 722.038 451.872 721.989 451.872H720.068C720.02 451.872 719.977 451.841 719.962 451.793L719.159 449.148C719.128 449.044 718.979 449.042 718.946 449.146L718.099 451.793C718.083 451.839 718.041 451.87 717.992 451.87H716.076C716.027 451.87 715.985 451.839 715.969 451.793L714.195 446.28C714.172 446.21 714.226 446.137 714.301 446.137H716.069C716.118 446.137 716.16 446.168 716.175 446.214L717.054 449.062C717.085 449.165 717.231 449.165 717.265 449.064L718.194 446.214C718.21 446.168 718.252 446.137 718.3 446.137H719.924C719.973 446.137 720.015 446.168 720.031 446.216L720.909 449.099C720.94 449.203 721.089 449.203 721.12 449.101L722.049 446.214C722.065 446.168 722.107 446.137 722.156 446.137H723.768C723.839 446.137 723.893 446.21 723.871 446.282Z" fill="white"/>
<path d="M724.867 446.137H726.588C726.65 446.137 726.699 446.185 726.699 446.247V451.76C726.699 451.821 726.65 451.87 726.588 451.87H724.867C724.805 451.87 724.756 451.821 724.756 451.76V446.247C724.756 446.187 724.807 446.137 724.867 446.137Z" fill="white"/>
<path d="M733.764 446.247V451.76C733.764 451.821 733.715 451.87 733.653 451.87H732.218C732.185 451.87 732.153 451.854 732.134 451.83L730.173 449.498C730.106 449.419 729.977 449.465 729.977 449.569V451.76C729.977 451.821 729.929 451.87 729.866 451.87H728.194C728.132 451.87 728.083 451.821 728.083 451.76V446.247C728.083 446.185 728.132 446.137 728.194 446.137H729.629C729.662 446.137 729.693 446.152 729.713 446.176L731.674 448.508C731.741 448.587 731.87 448.541 731.87 448.437V446.247C731.87 446.185 731.918 446.137 731.98 446.137H733.653C733.715 446.137 733.764 446.187 733.764 446.247Z" fill="white"/>
<path d="M740.835 446.247V451.76C740.835 451.821 740.787 451.87 740.725 451.87H739.289C739.256 451.87 739.225 451.854 739.205 451.83L737.244 449.498C737.178 449.419 737.049 449.465 737.049 449.569V451.76C737.049 451.821 737 451.87 736.938 451.87H735.263C735.201 451.87 735.152 451.821 735.152 451.76V446.247C735.152 446.185 735.201 446.137 735.263 446.137H736.698C736.732 446.137 736.763 446.152 736.783 446.176L738.744 448.508C738.81 448.587 738.939 448.541 738.939 448.437V446.247C738.939 446.185 738.988 446.137 739.05 446.137H740.722C740.787 446.137 740.835 446.187 740.835 446.247Z" fill="white"/>
<path d="M742.333 446.137H744.054C744.116 446.137 744.165 446.185 744.165 446.247V451.76C744.165 451.821 744.116 451.87 744.054 451.87H742.333C742.27 451.87 742.222 451.821 742.222 451.76V446.247C742.222 446.187 742.27 446.137 742.333 446.137Z" fill="white"/>
<path d="M751.231 446.247V451.76C751.231 451.821 751.182 451.87 751.12 451.87H749.685C749.651 451.87 749.62 451.854 749.6 451.83L747.639 449.498C747.573 449.419 747.444 449.465 747.444 449.569V451.76C747.444 451.821 747.395 451.87 747.333 451.87H745.661C745.599 451.87 745.55 451.821 745.55 451.76V446.247C745.55 446.185 745.599 446.137 745.661 446.137H747.096C747.129 446.137 747.16 446.152 747.18 446.176L749.141 448.508C749.208 448.587 749.336 448.541 749.336 448.437V446.247C749.336 446.185 749.385 446.137 749.447 446.137H751.12C751.18 446.137 751.231 446.187 751.231 446.247Z" fill="white"/>
<path d="M756.489 448.848H757.956C758.018 448.848 758.067 448.896 758.067 448.958V451.213C758.067 451.25 758.049 451.285 758.018 451.305C757.69 451.524 757.31 451.693 756.882 451.813C756.432 451.938 755.99 452 755.556 452C754.941 452 754.389 451.872 753.901 451.618C753.413 451.365 753.029 451.01 752.752 450.553C752.474 450.096 752.337 449.58 752.337 449C752.337 448.422 752.474 447.904 752.752 447.447C753.029 446.99 753.415 446.635 753.914 446.382C754.411 446.128 754.972 446 755.598 446C756.163 446 756.669 446.095 757.117 446.282C757.53 446.457 757.878 446.701 758.162 447.021C758.202 447.068 758.198 447.138 758.151 447.178L757.071 448.124C757.026 448.164 756.958 448.157 756.918 448.115C756.572 447.749 756.163 447.566 755.698 447.566C755.269 447.566 754.928 447.694 754.677 447.952C754.424 448.208 754.298 448.559 754.298 449C754.298 449.432 754.422 449.779 754.673 450.041C754.923 450.304 755.256 450.434 755.673 450.434C755.895 450.434 756.106 450.396 756.31 450.324C756.354 450.308 756.383 450.264 756.383 450.218V448.956C756.379 448.899 756.427 448.848 756.489 448.848Z" fill="white"/>
<path d="M737.38 454.275C737.777 454.457 738.085 454.72 738.299 455.063C738.515 455.407 738.622 455.806 738.622 456.263C738.622 456.72 738.515 457.119 738.299 457.463C738.082 457.806 737.777 458.067 737.38 458.251C736.982 458.434 736.516 458.526 735.981 458.526H735.255C735.193 458.526 735.144 458.577 735.144 458.641V459.885C735.144 459.949 735.095 460 735.032 460H733.301C733.239 460 733.189 459.949 733.189 459.885V454.115C733.189 454.051 733.239 454 733.301 454H735.981C736.516 454 736.982 454.092 737.38 454.275ZM736.451 456.78C736.583 456.657 736.65 456.484 736.65 456.261C736.65 456.037 736.583 455.866 736.451 455.742C736.32 455.619 736.119 455.557 735.856 455.557H735.255C735.193 455.557 735.144 455.608 735.144 455.672V456.847C735.144 456.911 735.193 456.962 735.255 456.962H735.856C736.121 456.964 736.32 456.902 736.451 456.78Z" fill="white"/>
<path d="M739.751 454H741.483C741.545 454 741.594 454.051 741.594 454.115V458.314C741.594 458.378 741.643 458.429 741.706 458.429H744.1C744.162 458.429 744.212 458.48 744.212 458.544V459.88C744.212 459.945 744.162 459.995 744.1 459.995H739.749C739.687 459.995 739.638 459.945 739.638 459.88V454.115C739.64 454.051 739.689 454 739.751 454Z" fill="white"/>
<path d="M749.134 454H747.358C747.313 454 747.273 454.028 747.255 454.069L744.819 459.834C744.787 459.91 744.841 459.995 744.921 459.995H746.662C746.708 459.995 746.749 459.965 746.766 459.922L747.128 458.95L747.666 457.495L748.125 456.265C748.161 456.166 748.297 456.166 748.333 456.265L748.792 457.495L749.33 458.95L749.691 459.922C749.707 459.965 749.749 459.995 749.796 459.995H751.57C751.65 459.995 751.704 459.91 751.673 459.834L749.236 454.069C749.218 454.028 749.178 454 749.134 454Z" fill="white"/>
<path d="M758.19 454.115V459.88C758.19 459.945 758.14 459.995 758.078 459.995H756.634C756.601 459.995 756.57 459.979 756.55 459.954L754.577 457.516C754.51 457.433 754.381 457.481 754.381 457.589V459.88C754.381 459.945 754.332 459.995 754.269 459.995H752.587C752.525 459.995 752.476 459.945 752.476 459.88V454.115C752.476 454.051 752.525 454 752.587 454H754.031C754.064 454 754.095 454.016 754.115 454.042L756.088 456.48C756.155 456.563 756.284 456.514 756.284 456.406V454.115C756.284 454.051 756.333 454 756.396 454H758.078C758.14 454 758.19 454.051 758.19 454.115Z" fill="white"/>
</g>
</g>
<defs>
<linearGradient id="paint0_linear_3412_38187" x1="203.79" y1="30.3939" x2="308.416" y2="496.806" gradientUnits="userSpaceOnUse">
<stop stop-color="#289B9C"/>
<stop offset="1" stop-color="#2B74E1"/>
</linearGradient>
<linearGradient id="paint1_linear_3412_38187" x1="553.957" y1="123.59" x2="633.8" y2="127.064" gradientUnits="userSpaceOnUse">
<stop offset="0.507001" stop-color="#E0E0E0"/>
<stop offset="0.553734" stop-color="white"/>
<stop offset="0.72473" stop-color="#E0E0E0"/>
<stop offset="0.827517" stop-color="white"/>
</linearGradient>
<clipPath id="clip0_3412_38187">
<path d="M0 9.99999C0 4.47714 4.47715 0 10 0H828C833.523 0 838 4.47715 838 10V462C838 467.523 833.523 472 828 472H9.99998C4.47713 472 0 467.523 0 462V9.99999Z" fill="white"/>
</clipPath>
<clipPath id="clip1_3412_38187">
<rect width="1730.74" height="395" fill="white" transform="matrix(-1 0 0 1 878.401 39)"/>
</clipPath>
<clipPath id="clip2_3412_38187">
<rect width="89.9254" height="22" fill="white" transform="translate(714.189 442)"/>
</clipPath>
</defs>
</svg>
