<svg width="838" height="472" viewBox="0 0 838 472" fill="none" xmlns="http://www.w3.org/2000/svg">
<g clip-path="url(#clip0_3594_36465)">
<path d="M838 9.99999C838 4.47714 833.523 0 828 0H9.99998C4.47713 0 0 4.47715 0 10V462C0 467.523 4.47715 472 10 472H828C833.523 472 838 467.523 838 462V9.99999Z" fill="url(#paint0_linear_3594_36465)"/>
<g clip-path="url(#clip1_3594_36465)">
<path d="M147.156 39H989.293L1303.27 434H-166.818L147.156 39Z" fill="#4AB75C"/>
<path opacity="0.1" d="M539.317 46.8125H585.228L553.914 411.12H476.889L539.317 46.8125Z" fill="white"/>
<path opacity="0.1" d="M447.495 46.8125H493.405L399.863 411.12H322.837L447.495 46.8125Z" fill="white"/>
<path opacity="0.1" d="M815.573 46.8125H861.484L1017.4 411.12H940.37L815.573 46.8125Z" fill="white"/>
<path opacity="0.1" d="M354.883 46.8125H400.793L244.484 411.12H167.458L354.883 46.8125Z" fill="white"/>
<path opacity="0.1" d="M722.96 46.8125H768.87L862.017 411.12H784.991L722.96 46.8125Z" fill="white"/>
<path opacity="0.1" d="M263.061 46.8125H308.971L90.4319 411.12H13.4062L263.061 46.8125Z" fill="white"/>
<path opacity="0.1" d="M631.138 46.8125H677.049L707.965 411.12H630.939L631.138 46.8125Z" fill="white"/>
<path d="M1248.47 411.12H1247.15H14.7343H13.4062L14.0704 410.151L262.825 47.1574L263.061 46.8125H263.853H998.425H999.216L999.452 47.1574L1247.81 410.151L1248.47 411.12ZM17.3834 409.184H1244.5L998.103 47.5027H264.173L17.3834 409.184Z" fill="white"/>
<path d="M27.7085 391.197H27.3822H27.2185H27.0549L25.7803 393.063H25.9449H26.1086H26.2723H26.4359C29.2088 393.013 31.9562 393.451 34.4337 394.34C36.538 395.126 38.2512 396.354 39.3397 397.858C40.4663 399.493 40.9581 401.313 40.764 403.128C40.5261 405.402 39.6783 407.622 38.2664 409.668C38.1857 409.79 38.1037 409.912 38.0204 410.034C37.9371 410.156 37.8518 410.277 37.7645 410.398C37.6779 410.519 37.5896 410.64 37.4997 410.761C37.4097 410.881 37.3185 411.001 37.2259 411.121H39.8892C39.9804 411.001 40.0704 410.881 40.159 410.76C40.2476 410.639 40.3345 410.519 40.4198 410.398C40.5058 410.277 40.5901 410.155 40.6728 410.034C40.7554 409.912 40.8368 409.79 40.9168 409.668C42.4834 407.39 43.4208 404.918 43.6783 402.387C43.8867 400.367 43.3318 398.344 42.0714 396.528C40.8549 394.857 38.9461 393.493 36.604 392.621C33.8482 391.633 30.7929 391.144 27.7085 391.197V391.197Z" fill="white"/>
<path d="M258.43 54.1497H258.033L258.518 53.4432H258.617H258.915C260.864 53.4386 262.807 53.2763 264.705 52.9592C266.543 52.6565 268.33 52.2135 270.035 51.638C271.576 51.1268 273.015 50.4728 274.315 49.693C275.421 49.0456 276.325 48.2409 276.969 47.3304C276.997 47.2866 277.025 47.243 277.051 47.1997C277.078 47.1563 277.103 47.113 277.127 47.0697C277.152 47.0263 277.175 46.9832 277.197 46.9404C277.219 46.8975 277.24 46.8549 277.259 46.8125H278.846C278.826 46.8554 278.804 46.8982 278.782 46.9411C278.759 46.9839 278.736 47.027 278.712 47.0704C278.687 47.1137 278.662 47.157 278.635 47.2004C278.609 47.2437 278.581 47.2873 278.553 47.3311C277.839 48.3459 276.835 49.2431 275.605 49.965C274.157 50.8352 272.553 51.565 270.836 52.1354C268.932 52.7776 266.937 53.2715 264.884 53.6085C262.769 53.9626 260.603 54.1441 258.43 54.1497V54.1497Z" fill="white"/>
<path d="M633.596 411.12H630.939L631.139 46.8125H632.722L633.596 411.12Z" fill="white"/>
<path d="M257.394 292.343H256.241H95.9568H94.8037L95.3045 291.612L226.162 100.659L226.447 100.242H227.318H348.281H349.152L348.952 100.659L257.743 291.612L257.394 292.343ZM98.1063 290.882H255.789L347.01 101.077H227.619L98.1063 290.882Z" fill="white"/>
<path d="M188.999 229.135H187.939H139.177H138.117L138.54 228.517L197.05 143.137L197.379 142.658H198.311H241.216H242.148L241.854 143.137L189.379 228.517L188.999 229.135ZM141.079 227.901H187.641L239.691 143.617H198.59L141.079 227.901Z" fill="white"/>
<path d="M631.569 229.753C630.121 229.753 628.673 229.732 627.227 229.69C625.782 229.647 624.34 229.584 622.904 229.499C621.468 229.415 620.038 229.309 618.616 229.183C617.195 229.057 615.783 228.91 614.382 228.742C613.017 228.579 611.659 228.396 610.31 228.193C608.962 227.99 607.623 227.768 606.296 227.527C604.97 227.286 603.655 227.026 602.355 226.747C601.056 226.469 599.772 226.172 598.504 225.857C597.26 225.548 596.03 225.221 594.814 224.877C593.6 224.533 592.402 224.172 591.221 223.794C590.041 223.417 588.878 223.023 587.736 222.614C586.594 222.204 585.473 221.779 584.373 221.34C583.285 220.904 582.216 220.454 581.168 219.988C580.122 219.524 579.096 219.044 578.093 218.551C577.091 218.059 576.113 217.553 575.158 217.034C574.205 216.516 573.277 215.986 572.374 215.444C571.473 214.903 570.597 214.349 569.746 213.783C568.896 213.218 568.072 212.642 567.276 212.055C566.48 211.47 565.712 210.873 564.971 210.268C564.233 209.663 563.522 209.05 562.841 208.428C562.155 207.801 561.498 207.165 560.87 206.52C560.243 205.876 559.646 205.224 559.079 204.565C558.513 203.907 557.978 203.241 557.474 202.57C556.971 201.901 556.499 201.225 556.059 200.544C555.612 199.853 555.197 199.154 554.815 198.451C554.433 197.749 554.084 197.041 553.767 196.33C553.452 195.62 553.169 194.906 552.919 194.189C552.67 193.474 552.453 192.756 552.271 192.036C552.083 191.3 551.931 190.56 551.813 189.817C551.695 189.076 551.612 188.333 551.563 187.588C551.514 186.845 551.5 186.101 551.519 185.358C551.539 184.615 551.592 183.874 551.68 183.133C551.767 182.395 551.889 181.658 552.043 180.924C552.198 180.191 552.385 179.462 552.605 178.737C552.825 178.013 553.077 177.293 553.362 176.579C553.645 175.867 553.961 175.16 554.308 174.459C554.646 173.778 555.015 173.101 555.413 172.429C555.811 171.758 556.238 171.093 556.695 170.434C557.15 169.777 557.634 169.126 558.147 168.482C558.658 167.839 559.197 167.204 559.763 166.578C560.318 165.964 560.9 165.356 561.508 164.756C562.115 164.157 562.748 163.566 563.406 162.983C564.063 162.402 564.744 161.828 565.45 161.265C566.154 160.702 566.881 160.148 567.631 159.605C568.373 159.068 569.138 158.54 569.925 158.021C570.711 157.503 571.519 156.995 572.347 156.498C573.175 156.001 574.022 155.514 574.889 155.039C575.755 154.565 576.64 154.101 577.542 153.65C578.443 153.199 579.364 152.759 580.303 152.331C581.24 151.904 582.195 151.488 583.167 151.084C584.137 150.681 585.123 150.29 586.124 149.912C587.124 149.534 588.138 149.169 589.166 148.818C590.202 148.464 591.253 148.122 592.319 147.794C593.383 147.466 594.461 147.151 595.551 146.851C596.64 146.55 597.74 146.263 598.851 145.991C599.961 145.719 601.081 145.461 602.209 145.217C603.358 144.969 604.518 144.736 605.688 144.518C606.857 144.3 608.036 144.096 609.222 143.908C610.408 143.72 611.602 143.547 612.802 143.389C614.001 143.231 615.206 143.089 616.415 142.962C617.655 142.832 618.903 142.718 620.157 142.621C621.411 142.523 622.671 142.441 623.936 142.376C625.2 142.311 626.468 142.262 627.738 142.229C629.008 142.196 630.28 142.18 631.553 142.18C632.825 142.18 634.098 142.196 635.368 142.229C636.638 142.262 637.906 142.311 639.17 142.376C640.434 142.441 641.694 142.523 642.948 142.621C644.203 142.718 645.451 142.832 646.691 142.962C647.9 143.089 649.105 143.231 650.304 143.389C651.504 143.547 652.698 143.72 653.884 143.908C655.071 144.096 656.25 144.3 657.419 144.518C658.589 144.736 659.749 144.969 660.897 145.217C662.026 145.461 663.146 145.719 664.256 145.991C665.367 146.263 666.468 146.55 667.557 146.851C668.647 147.151 669.725 147.466 670.789 147.794C671.854 148.122 672.906 148.464 673.942 148.818C674.97 149.169 675.984 149.534 676.984 149.912C677.985 150.29 678.972 150.681 679.942 151.084C680.914 151.488 681.869 151.904 682.807 152.331C683.746 152.759 684.666 153.199 685.568 153.65C686.47 154.101 687.355 154.565 688.221 155.039C689.088 155.514 689.936 156.001 690.764 156.498C691.592 156.995 692.401 157.503 693.187 158.021C693.974 158.54 694.739 159.068 695.481 159.605C696.231 160.148 696.959 160.702 697.663 161.265C698.369 161.828 699.051 162.402 699.708 162.983C700.366 163.566 700.999 164.157 701.606 164.756C702.215 165.356 702.797 165.964 703.352 166.578C703.918 167.204 704.458 167.839 704.969 168.482C705.482 169.126 705.966 169.777 706.422 170.434C706.878 171.093 707.306 171.758 707.704 172.429C708.103 173.101 708.471 173.778 708.809 174.459C709.157 175.16 709.473 175.867 709.757 176.579C710.042 177.293 710.294 178.013 710.514 178.737C710.735 179.462 710.923 180.191 711.077 180.924C711.232 181.658 711.354 182.395 711.441 183.133C711.529 183.874 711.583 184.615 711.603 185.358C711.623 186.101 711.608 186.845 711.56 187.588C711.511 188.333 711.428 189.076 711.311 189.817C711.193 190.56 711.041 191.3 710.854 192.036C710.672 192.756 710.456 193.474 710.207 194.189C709.957 194.906 709.674 195.62 709.359 196.33C709.043 197.041 708.694 197.749 708.312 198.451C707.93 199.154 707.515 199.853 707.068 200.544C706.629 201.225 706.157 201.901 705.655 202.57C705.151 203.241 704.616 203.907 704.05 204.565C703.484 205.224 702.887 205.876 702.26 206.52C701.633 207.165 700.975 207.801 700.289 208.428C699.609 209.05 698.899 209.663 698.16 210.268C697.42 210.873 696.652 211.47 695.857 212.055C695.06 212.642 694.237 213.218 693.387 213.783C692.536 214.349 691.66 214.903 690.759 215.444C689.857 215.986 688.929 216.516 687.976 217.034C687.022 217.553 686.043 218.059 685.042 218.551C684.039 219.044 683.013 219.524 681.967 219.988C680.919 220.454 679.851 220.904 678.763 221.34C677.663 221.779 676.542 222.204 675.401 222.614C674.258 223.023 673.096 223.417 671.916 223.794C670.735 224.172 669.537 224.533 668.323 224.877C667.108 225.221 665.877 225.548 664.634 225.857C663.366 226.172 662.081 226.469 660.782 226.747C659.483 227.026 658.168 227.286 656.842 227.527C655.515 227.768 654.176 227.99 652.828 228.193C651.479 228.396 650.121 228.579 648.757 228.742C647.356 228.91 645.943 229.057 644.522 229.183C643.101 229.309 641.671 229.415 640.235 229.499C638.799 229.584 637.357 229.647 635.912 229.69C634.466 229.732 633.018 229.753 631.569 229.753ZM631.553 143.137C621.452 143.137 611.79 144.193 602.926 146.112C594.009 148.042 585.851 150.855 578.851 154.364C571.773 157.911 565.847 162.185 561.511 166.994C557.111 171.875 554.335 177.322 553.665 183.133C552.982 189.046 554.542 194.781 557.994 200.084C561.499 205.47 566.946 210.396 573.942 214.588C581.022 218.831 589.658 222.304 599.407 224.724C609.223 227.161 620.108 228.517 631.569 228.517C643.03 228.517 653.915 227.161 663.73 224.724C673.478 222.304 682.113 218.831 689.192 214.588C696.186 210.396 701.631 205.47 705.134 200.084C708.584 194.781 710.141 189.046 709.457 183.133C708.784 177.322 706.006 171.875 701.604 166.994C697.266 162.185 691.339 157.911 684.26 154.364C677.258 150.855 669.099 148.042 660.181 146.112C651.317 144.193 641.654 143.137 631.553 143.137Z" fill="white"/>
<path d="M291.428 221.088C297.887 218.944 304.083 216.42 309.952 213.541C315.494 210.83 320.677 207.764 325.434 204.38C329.837 201.258 333.75 197.805 337.105 194.081C340.19 190.665 342.613 186.967 344.306 183.089C345.819 179.646 346.528 176.05 346.404 172.444C346.276 169.224 345.335 166.046 343.627 163.063C341.94 160.161 339.563 157.487 336.601 155.159C333.484 152.719 329.873 150.623 325.889 148.941L325.318 150.135C329.067 151.796 332.449 153.844 335.355 156.211C338.126 158.478 340.335 161.064 341.888 163.858C343.467 166.738 344.32 169.794 344.407 172.885C344.485 176.344 343.782 179.789 342.324 183.089C340.695 186.798 338.381 190.336 335.444 193.611C332.255 197.175 328.539 200.485 324.359 203.484C319.851 206.73 314.941 209.679 309.689 212.295C304.128 215.074 298.256 217.522 292.132 219.616L291.428 221.088Z" fill="white"/>
<path d="M631.066 179.631C631.849 179.629 632.627 179.715 633.373 179.884C634.051 180.037 634.688 180.27 635.257 180.574C635.779 180.85 636.215 181.199 636.539 181.601C636.848 181.985 637.013 182.42 637.016 182.863C637.019 183.306 636.861 183.742 636.558 184.129C636.239 184.534 635.806 184.887 635.286 185.166C634.715 185.476 634.073 185.713 633.39 185.868C631.876 186.211 630.249 186.211 628.736 185.868C628.052 185.713 627.411 185.476 626.84 185.166C626.32 184.887 625.888 184.534 625.569 184.129C625.266 183.742 625.109 183.306 625.112 182.863C625.116 182.42 625.281 181.985 625.591 181.601C625.914 181.2 626.348 180.85 626.868 180.574C627.437 180.27 628.074 180.037 628.752 179.884C629.501 179.714 630.281 179.629 631.066 179.631V179.631Z" fill="white"/>
<path d="M263.846 179.631C264.583 179.624 265.315 179.71 266.01 179.884C266.582 180.026 267.099 180.263 267.518 180.574C267.893 180.859 268.143 181.216 268.235 181.601C268.324 182.028 268.25 182.464 268.02 182.863C267.754 183.334 267.363 183.763 266.869 184.129C266.327 184.535 265.707 184.884 265.029 185.167C264.313 185.468 263.546 185.704 262.747 185.868C261.946 186.036 261.115 186.123 260.279 186.126C259.536 186.133 258.797 186.046 258.097 185.868C257.522 185.724 257.004 185.483 256.587 185.167C256.213 184.878 255.969 184.517 255.884 184.129C255.803 183.699 255.884 183.262 256.121 182.863C256.396 182.393 256.793 181.965 257.293 181.601C257.837 181.199 258.457 180.854 259.136 180.574C259.848 180.278 260.609 180.046 261.401 179.884C262.196 179.72 263.019 179.634 263.846 179.631V179.631Z" fill="white"/>
</g>
<path d="M156.049 160.531L155.65 200.638H82.4033L94.5037 133.835L127.608 95.5713L184.036 92L184.702 159.344L156.049 160.531Z" fill="white" fill-opacity="0.42"/>
<path d="M94.5037 133.835H156.316M94.5037 133.835L82.4033 200.638M94.5037 133.835L127.608 95.5713M156.316 133.835L155.65 200.638H82.4033M156.316 133.835L184.036 92M82.4033 200.638L123.137 161.895M127.608 95.5713L184.036 92M127.608 95.5713L123.137 161.895M184.036 92L184.702 159.344L123.137 161.895" stroke="#DBDEE7"/>
<path d="M155.679 200.128V133.834L185.064 92.5098V158.323" stroke="url(#paint1_linear_3594_36465)" stroke-width="3" stroke-linecap="round" stroke-linejoin="round"/>
<g opacity="0.5" clip-path="url(#clip2_3594_36465)">
<path d="M775.294 458.05L782.779 450.567L782.838 450.501L782.895 450.433L782.948 450.363L782.994 450.286L783.036 450.204L783.073 450.123L783.104 450.037L783.132 449.951L783.152 449.863L783.17 449.775L783.181 449.597V444.749L783.178 444.617L783.167 444.488L783.154 444.358L783.132 444.228L783.106 444.098L783.071 443.973L783.031 443.85L782.985 443.724L782.935 443.608L782.878 443.489L782.814 443.373L782.746 443.26L782.676 443.153L782.594 443.049L782.511 442.948L782.423 442.851L782.329 442.759L782.232 442.671L782.131 442.587L782.025 442.508L781.918 442.438L781.806 442.37L781.689 442.306L781.571 442.249L781.452 442.198L781.327 442.152L781.204 442.112L781.077 442.077L780.947 442.048L780.817 442.026L780.688 442.013L780.558 442.002L780.431 442H775.584L775.496 442.002L775.406 442.011L775.318 442.029L775.23 442.046L775.145 442.075L775.059 442.106L774.975 442.145L774.896 442.187L774.819 442.233L774.749 442.286L774.681 442.343L774.615 442.405L767.135 449.892L767.805 450.561C767.914 450.671 767.838 450.862 767.679 450.862H764.218V447.396C764.218 447.239 764.407 447.16 764.519 447.27L765.189 447.943L769.957 443.172L770.001 443.126L770.04 443.073L770.073 443.023L770.1 442.966L770.122 442.906L770.139 442.847L770.15 442.785L770.155 442.721V442.655L770.15 442.592L770.139 442.532L770.122 442.471L770.1 442.411L770.071 442.352L770.038 442.299L769.999 442.246L769.955 442.2L769.909 442.158L769.858 442.119L769.803 442.086L769.746 442.055L769.689 442.033L769.628 442.015L769.564 442.002L769.469 442H768.499H763.939L763.807 442.002L763.678 442.013L763.548 442.026L763.419 442.048L763.289 442.077L763.164 442.112L763.039 442.152L762.916 442.198L762.797 442.249L762.679 442.306L762.562 442.37L762.45 442.438L762.342 442.508L762.237 442.587L762.136 442.671L762.039 442.759L761.947 442.851L761.859 442.948L761.776 443.049L761.697 443.153L761.624 443.26L761.556 443.373L761.493 443.489L761.435 443.608L761.385 443.724L761.337 443.85L761.299 443.973L761.264 444.098L761.238 444.228L761.216 444.358L761.203 444.488L761.192 444.617L761.189 444.749V458.343L761.192 458.433L761.2 458.523L761.218 458.611L761.238 458.699L761.264 458.783L761.295 458.868L761.334 458.952L761.376 459.029L761.424 459.106L761.475 459.181L761.532 459.249L761.591 459.315L761.657 459.374L761.73 459.432L761.802 459.482L761.879 459.528L761.958 459.572L762.042 459.607L762.125 459.64L762.213 459.665L762.299 459.687L762.389 459.7L762.476 459.709L762.567 459.711L762.657 459.709L762.744 459.7L762.834 459.687L762.92 459.665L763.008 459.64L763.091 459.607L763.175 459.572L763.254 459.528L763.331 459.482L763.401 459.432L763.474 459.374L763.539 459.315L773.934 448.913L773.458 448.434C773.348 448.324 773.425 448.135 773.583 448.135H777.046V451.599C777.046 451.755 776.858 451.834 776.748 451.724L776.269 451.247L765.872 461.646L765.81 461.712L765.753 461.783L765.701 461.855L765.654 461.932L765.611 462.012L765.575 462.095L765.542 462.179L765.518 462.267L765.496 462.35L765.483 462.443L765.474 462.531L765.472 462.623L765.474 462.713L765.483 462.801L765.496 462.891L765.518 462.977L765.542 463.065L765.575 463.149L765.611 463.23L765.654 463.312L765.701 463.389L765.753 463.459L765.81 463.531L765.872 463.597L765.938 463.657L766.006 463.714L766.081 463.767L766.157 463.813L766.234 463.855L766.318 463.894L766.403 463.925L766.489 463.952L766.577 463.971L766.665 463.989L766.753 463.993L766.772 463.998L766.847 464H780.435L780.567 463.998L780.697 463.987L780.826 463.974L780.956 463.952L781.085 463.925L781.213 463.89L781.336 463.853L781.461 463.806L781.58 463.756L781.698 463.699L781.815 463.635L781.927 463.567L782.034 463.496L782.14 463.415L782.241 463.334L782.337 463.246L782.432 463.153L782.52 463.056L782.603 462.955L782.684 462.85L782.755 462.742L782.823 462.63L782.886 462.513L782.943 462.394L782.994 462.276L783.04 462.152L783.08 462.029L783.115 461.902L783.141 461.772L783.163 461.642L783.176 461.512L783.187 461.383L783.189 461.251V456.684V455.714L783.187 455.65L783.178 455.587L783.161 455.523L783.141 455.461L783.117 455.404L783.086 455.349L783.051 455.299L783.009 455.248L782.961 455.204L782.915 455.162L782.853 455.129L782.796 455.098L782.739 455.072L782.68 455.052L782.621 455.039L782.557 455.03L782.493 455.028L782.43 455.03L782.366 455.039L782.307 455.052L782.245 455.072L782.188 455.098L782.131 455.129L782.078 455.164L782.008 455.228L777.24 459.999L777.912 460.668C778.024 460.778 777.945 460.969 777.789 460.969H774.328V457.505C774.328 457.349 774.516 457.269 774.628 457.379L775.294 458.05Z" fill="white"/>
<path d="M723.871 446.282L722.096 451.795C722.08 451.841 722.038 451.872 721.989 451.872H720.068C720.02 451.872 719.977 451.841 719.962 451.793L719.159 449.148C719.128 449.044 718.979 449.042 718.946 449.146L718.099 451.793C718.083 451.839 718.041 451.87 717.992 451.87H716.076C716.027 451.87 715.985 451.839 715.969 451.793L714.195 446.28C714.172 446.21 714.226 446.137 714.301 446.137H716.069C716.118 446.137 716.16 446.168 716.175 446.214L717.054 449.062C717.085 449.165 717.231 449.165 717.265 449.064L718.194 446.214C718.21 446.168 718.252 446.137 718.3 446.137H719.924C719.973 446.137 720.015 446.168 720.031 446.216L720.909 449.099C720.94 449.203 721.089 449.203 721.12 449.101L722.049 446.214C722.065 446.168 722.107 446.137 722.156 446.137H723.768C723.839 446.137 723.893 446.21 723.871 446.282Z" fill="white"/>
<path d="M724.867 446.137H726.588C726.65 446.137 726.699 446.185 726.699 446.247V451.76C726.699 451.821 726.65 451.87 726.588 451.87H724.867C724.805 451.87 724.756 451.821 724.756 451.76V446.247C724.756 446.187 724.807 446.137 724.867 446.137Z" fill="white"/>
<path d="M733.764 446.247V451.76C733.764 451.821 733.715 451.87 733.653 451.87H732.218C732.185 451.87 732.153 451.854 732.134 451.83L730.173 449.498C730.106 449.419 729.977 449.465 729.977 449.569V451.76C729.977 451.821 729.929 451.87 729.866 451.87H728.194C728.132 451.87 728.083 451.821 728.083 451.76V446.247C728.083 446.185 728.132 446.137 728.194 446.137H729.629C729.662 446.137 729.693 446.152 729.713 446.176L731.674 448.508C731.741 448.587 731.87 448.541 731.87 448.437V446.247C731.87 446.185 731.918 446.137 731.98 446.137H733.653C733.715 446.137 733.764 446.187 733.764 446.247Z" fill="white"/>
<path d="M740.835 446.247V451.76C740.835 451.821 740.787 451.87 740.725 451.87H739.289C739.256 451.87 739.225 451.854 739.205 451.83L737.244 449.498C737.178 449.419 737.049 449.465 737.049 449.569V451.76C737.049 451.821 737 451.87 736.938 451.87H735.263C735.201 451.87 735.152 451.821 735.152 451.76V446.247C735.152 446.185 735.201 446.137 735.263 446.137H736.698C736.732 446.137 736.763 446.152 736.783 446.176L738.744 448.508C738.81 448.587 738.939 448.541 738.939 448.437V446.247C738.939 446.185 738.988 446.137 739.05 446.137H740.722C740.787 446.137 740.835 446.187 740.835 446.247Z" fill="white"/>
<path d="M742.333 446.137H744.054C744.116 446.137 744.165 446.185 744.165 446.247V451.76C744.165 451.821 744.116 451.87 744.054 451.87H742.333C742.27 451.87 742.222 451.821 742.222 451.76V446.247C742.222 446.187 742.27 446.137 742.333 446.137Z" fill="white"/>
<path d="M751.231 446.247V451.76C751.231 451.821 751.182 451.87 751.12 451.87H749.685C749.651 451.87 749.62 451.854 749.6 451.83L747.639 449.498C747.573 449.419 747.444 449.465 747.444 449.569V451.76C747.444 451.821 747.395 451.87 747.333 451.87H745.661C745.599 451.87 745.55 451.821 745.55 451.76V446.247C745.55 446.185 745.599 446.137 745.661 446.137H747.096C747.129 446.137 747.16 446.152 747.18 446.176L749.141 448.508C749.208 448.587 749.336 448.541 749.336 448.437V446.247C749.336 446.185 749.385 446.137 749.447 446.137H751.12C751.18 446.137 751.231 446.187 751.231 446.247Z" fill="white"/>
<path d="M756.489 448.848H757.956C758.018 448.848 758.067 448.896 758.067 448.958V451.213C758.067 451.25 758.049 451.285 758.018 451.305C757.69 451.524 757.31 451.693 756.882 451.813C756.432 451.938 755.99 452 755.556 452C754.941 452 754.389 451.872 753.901 451.618C753.413 451.365 753.029 451.01 752.752 450.553C752.474 450.096 752.337 449.58 752.337 449C752.337 448.422 752.474 447.904 752.752 447.447C753.029 446.99 753.415 446.635 753.914 446.382C754.411 446.128 754.972 446 755.598 446C756.163 446 756.669 446.095 757.117 446.282C757.53 446.457 757.878 446.701 758.162 447.021C758.202 447.068 758.198 447.138 758.151 447.178L757.071 448.124C757.026 448.164 756.958 448.157 756.918 448.115C756.572 447.749 756.163 447.566 755.698 447.566C755.269 447.566 754.928 447.694 754.677 447.952C754.424 448.208 754.298 448.559 754.298 449C754.298 449.432 754.422 449.779 754.673 450.041C754.923 450.304 755.256 450.434 755.673 450.434C755.895 450.434 756.106 450.396 756.31 450.324C756.354 450.308 756.383 450.264 756.383 450.218V448.956C756.379 448.899 756.427 448.848 756.489 448.848Z" fill="white"/>
<path d="M737.38 454.275C737.777 454.457 738.085 454.72 738.299 455.063C738.515 455.407 738.622 455.806 738.622 456.263C738.622 456.72 738.515 457.119 738.299 457.463C738.082 457.806 737.777 458.067 737.38 458.251C736.982 458.434 736.516 458.526 735.981 458.526H735.255C735.193 458.526 735.144 458.577 735.144 458.641V459.885C735.144 459.949 735.095 460 735.032 460H733.301C733.239 460 733.189 459.949 733.189 459.885V454.115C733.189 454.051 733.239 454 733.301 454H735.981C736.516 454 736.982 454.092 737.38 454.275ZM736.451 456.78C736.583 456.657 736.65 456.484 736.65 456.261C736.65 456.037 736.583 455.866 736.451 455.742C736.32 455.619 736.119 455.557 735.856 455.557H735.255C735.193 455.557 735.144 455.608 735.144 455.672V456.847C735.144 456.911 735.193 456.962 735.255 456.962H735.856C736.121 456.964 736.32 456.902 736.451 456.78Z" fill="white"/>
<path d="M739.751 454H741.483C741.545 454 741.594 454.051 741.594 454.115V458.314C741.594 458.378 741.643 458.429 741.706 458.429H744.1C744.162 458.429 744.212 458.48 744.212 458.544V459.88C744.212 459.945 744.162 459.995 744.1 459.995H739.749C739.687 459.995 739.638 459.945 739.638 459.88V454.115C739.64 454.051 739.689 454 739.751 454Z" fill="white"/>
<path d="M749.134 454H747.358C747.313 454 747.273 454.028 747.255 454.069L744.819 459.834C744.787 459.91 744.841 459.995 744.921 459.995H746.662C746.708 459.995 746.749 459.965 746.766 459.922L747.128 458.95L747.666 457.495L748.125 456.265C748.161 456.166 748.297 456.166 748.333 456.265L748.792 457.495L749.33 458.95L749.691 459.922C749.707 459.965 749.749 459.995 749.796 459.995H751.57C751.65 459.995 751.704 459.91 751.673 459.834L749.236 454.069C749.218 454.028 749.178 454 749.134 454Z" fill="white"/>
<path d="M758.19 454.115V459.88C758.19 459.945 758.14 459.995 758.078 459.995H756.634C756.601 459.995 756.57 459.979 756.55 459.954L754.577 457.516C754.51 457.433 754.381 457.481 754.381 457.589V459.88C754.381 459.945 754.332 459.995 754.269 459.995H752.587C752.525 459.995 752.476 459.945 752.476 459.88V454.115C752.476 454.051 752.525 454 752.587 454H754.031C754.064 454 754.095 454.016 754.115 454.042L756.088 456.48C756.155 456.563 756.284 456.514 756.284 456.406V454.115C756.284 454.051 756.333 454 756.396 454H758.078C758.14 454 758.19 454.051 758.19 454.115Z" fill="white"/>
</g>
</g>
<defs>
<linearGradient id="paint0_linear_3594_36465" x1="634.21" y1="30.3939" x2="529.584" y2="496.806" gradientUnits="userSpaceOnUse">
<stop stop-color="#289B9C"/>
<stop offset="1" stop-color="#2B74E1"/>
</linearGradient>
<linearGradient id="paint1_linear_3594_36465" x1="220.183" y1="121.59" x2="140.34" y2="125.064" gradientUnits="userSpaceOnUse">
<stop offset="0.507001" stop-color="#E0E0E0"/>
<stop offset="0.553734" stop-color="white"/>
<stop offset="0.72473" stop-color="#E0E0E0"/>
<stop offset="0.827517" stop-color="white"/>
</linearGradient>
<clipPath id="clip0_3594_36465">
<path d="M838 9.99999C838 4.47714 833.523 0 828 0H9.99998C4.47713 0 0 4.47715 0 10V462C0 467.523 4.47715 472 10 472H828C833.523 472 838 467.523 838 462V9.99999Z" fill="white"/>
</clipPath>
<clipPath id="clip1_3594_36465">
<rect width="1343.67" height="395" fill="white" transform="translate(-40.4014 39)"/>
</clipPath>
<clipPath id="clip2_3594_36465">
<rect width="89.9254" height="22" fill="white" transform="translate(714.189 442)"/>
</clipPath>
</defs>
</svg>
