<svg width="838" height="472" viewBox="0 0 838 472" fill="none" xmlns="http://www.w3.org/2000/svg">
<g clip-path="url(#clip0_3594_36527)">
<path d="M838 9.99999C838 4.47714 833.523 0 828 0H9.99998C4.47713 0 0 4.47715 0 10V462C0 467.523 4.47715 472 10 472H828C833.523 472 838 467.523 838 462V9.99999Z" fill="url(#paint0_linear_3594_36527)"/>
<g clip-path="url(#clip1_3594_36527)">
<path d="M-243.649 39H682.851L1028.28 434H-589.076L-243.649 39Z" fill="#4AB75C"/>
<path opacity="0.1" d="M117.06 46.8125H162.97L131.656 411.12H54.6309L117.06 46.8125Z" fill="white"/>
<path opacity="0.1" d="M485.137 46.8125H531.047L749.19 411.12H672.164L485.137 46.8125Z" fill="white"/>
<path opacity="0.1" d="M25.2371 46.8125H71.1475L-22.3953 411.12H-99.4209L25.2371 46.8125Z" fill="white"/>
<path opacity="0.1" d="M393.315 46.8125H439.226L595.138 411.12H518.112L393.315 46.8125Z" fill="white"/>
<path opacity="0.1" d="M300.702 46.8125H346.613L439.759 411.12H362.733L300.702 46.8125Z" fill="white"/>
<path opacity="0.1" d="M208.88 46.8125H254.791L285.707 411.12H208.682L208.88 46.8125Z" fill="white"/>
<path d="M826.215 411.12H824.887H-407.524H-408.852L-408.187 410.151L-159.433 47.1574L-159.197 46.8125H-158.405H576.167H576.958L577.194 47.1574L825.552 410.151L826.215 411.12ZM-404.874 409.184H822.24L575.845 47.5027H-158.085L-404.874 409.184Z" fill="white"/>
<path d="M811.935 391.197H812.261H812.425H812.589L813.861 393.058H813.697H813.532H813.368H813.206C810.431 393.009 807.683 393.45 805.205 394.341C803.101 395.126 801.388 396.355 800.299 397.858C799.171 399.493 798.677 401.312 798.869 403.128C799.104 405.402 799.949 407.621 801.359 409.668C801.44 409.79 801.522 409.912 801.605 410.034C801.689 410.156 801.774 410.277 801.86 410.398C801.947 410.519 802.035 410.64 802.125 410.761C802.215 410.881 802.306 411.001 802.399 411.121H799.731C799.639 411.001 799.549 410.881 799.461 410.76C799.372 410.639 799.285 410.519 799.2 410.398C799.115 410.277 799.03 410.155 798.947 410.034C798.864 409.912 798.782 409.79 798.703 409.668C797.14 407.389 796.206 404.917 795.952 402.387C795.746 400.367 796.302 398.344 797.563 396.528C798.782 394.857 800.692 393.493 803.036 392.621C805.793 391.633 808.849 391.144 811.935 391.197V391.197Z" fill="white"/>
<path d="M581.576 54.1497H581.973L581.489 53.4432H581.39H581.092C579.145 53.4382 577.206 53.2759 575.31 52.9592C573.471 52.6568 571.682 52.2138 569.976 51.638C568.436 51.1268 566.997 50.4728 565.698 49.693C564.594 49.0455 563.692 48.2407 563.05 47.3304C563.024 47.2866 562.996 47.243 562.967 47.1997C562.938 47.1563 562.913 47.113 562.891 47.0697C562.867 47.0268 562.844 46.9839 562.821 46.9411C562.799 46.8982 562.778 46.8554 562.759 46.8125H561.172C561.192 46.8554 561.213 46.8982 561.235 46.9411C561.258 46.9839 561.281 47.027 561.306 47.0704C561.33 47.1132 561.356 47.1563 561.382 47.1997C561.409 47.243 561.436 47.2866 561.465 47.3304C562.178 48.345 563.181 49.2423 564.409 49.9643C565.857 50.8345 567.46 51.5643 569.176 52.1347C571.078 52.7767 573.071 53.2706 575.122 53.6078C577.238 53.9622 579.403 54.144 581.576 54.1497V54.1497Z" fill="white"/>
<path d="M211.338 411.12H208.682L208.881 46.8125H210.464L211.338 411.12Z" fill="white"/>
<path d="M701.702 229.135H700.642H651.88H650.82L650.441 228.517L598.059 143.137L597.766 142.658H598.698H641.603H642.535L642.863 143.137L701.28 228.517L701.702 229.135ZM652.179 227.901H698.742L641.323 143.617H600.222L652.179 227.901Z" fill="white"/>
<path d="M744.949 292.343H743.795H583.512H582.358L582.01 291.612L491.009 100.659L490.811 100.242H491.681H612.645H613.515L613.8 100.659L744.449 291.612L744.949 292.343ZM583.965 290.882H741.648L612.343 101.077H492.951L583.965 290.882Z" fill="white"/>
<path d="M209.312 229.753C207.863 229.753 206.415 229.732 204.97 229.69C203.524 229.647 202.082 229.584 200.646 229.499C199.21 229.415 197.78 229.309 196.359 229.183C194.938 229.057 193.525 228.91 192.124 228.742C190.759 228.579 189.401 228.396 188.052 228.193C186.704 227.99 185.365 227.768 184.038 227.527C182.712 227.286 181.398 227.026 180.098 226.747C178.799 226.469 177.514 226.172 176.246 225.857C175.002 225.548 173.772 225.221 172.557 224.877C171.343 224.533 170.144 224.172 168.963 223.794C167.783 223.417 166.62 223.023 165.478 222.614C164.336 222.204 163.215 221.779 162.115 221.34C161.027 220.904 159.958 220.454 158.91 219.988C157.864 219.524 156.838 219.044 155.835 218.551C154.834 218.059 153.855 217.553 152.9 217.034C151.947 216.516 151.019 215.986 150.116 215.444C149.216 214.903 148.339 214.349 147.488 213.783C146.638 213.218 145.815 212.642 145.018 212.055C144.222 211.47 143.454 210.873 142.714 210.268C141.975 209.663 141.264 209.05 140.584 208.428C139.897 207.801 139.24 207.165 138.612 206.52C137.985 205.876 137.388 205.224 136.821 204.565C136.256 203.907 135.72 203.241 135.216 202.57C134.713 201.901 134.241 201.225 133.802 200.544C133.354 199.853 132.94 199.154 132.557 198.451C132.175 197.749 131.826 197.041 131.51 196.33C131.194 195.62 130.911 194.906 130.661 194.189C130.412 193.474 130.195 192.756 130.013 192.036C129.826 191.3 129.673 190.56 129.555 189.817C129.437 189.076 129.354 188.333 129.305 187.588C129.256 186.845 129.242 186.101 129.261 185.358C129.281 184.615 129.334 183.874 129.422 183.133C129.51 182.395 129.631 181.658 129.785 180.924C129.94 180.191 130.127 179.462 130.347 178.737C130.567 178.013 130.819 177.293 131.104 176.579C131.388 175.867 131.703 175.16 132.051 174.459C132.388 173.778 132.757 173.101 133.155 172.429C133.553 171.758 133.98 171.093 134.437 170.434C134.892 169.777 135.377 169.126 135.889 168.482C136.4 167.839 136.939 167.204 137.505 166.578C138.06 165.964 138.642 165.356 139.25 164.756C139.857 164.157 140.49 163.566 141.148 162.983C141.805 162.402 142.487 161.828 143.192 161.265C143.896 160.702 144.623 160.148 145.373 159.605C146.115 159.068 146.88 158.54 147.667 158.021C148.453 157.503 149.261 156.995 150.09 156.498C150.917 156.001 151.765 155.514 152.631 155.039C153.497 154.565 154.382 154.101 155.284 153.65C156.186 153.199 157.106 152.759 158.045 152.331C158.982 151.904 159.937 151.488 160.909 151.084C161.879 150.681 162.865 150.29 163.866 149.912C164.866 149.534 165.881 149.169 166.908 148.818C167.944 148.464 168.996 148.122 170.061 147.794C171.125 147.466 172.203 147.151 173.293 146.851C174.382 146.55 175.482 146.263 176.593 145.991C177.703 145.719 178.823 145.461 179.952 145.217C181.1 144.969 182.26 144.736 183.43 144.518C184.599 144.3 185.778 144.096 186.964 143.908C188.15 143.72 189.344 143.547 190.544 143.389C191.743 143.231 192.948 143.089 194.157 142.962C195.397 142.832 196.645 142.718 197.9 142.621C199.154 142.523 200.414 142.441 201.678 142.376C202.942 142.311 204.21 142.262 205.48 142.229C206.75 142.196 208.023 142.18 209.295 142.18C210.567 142.18 211.84 142.196 213.11 142.229C214.38 142.262 215.648 142.311 216.912 142.376C218.176 142.441 219.437 142.523 220.691 142.621C221.945 142.718 223.193 142.832 224.433 142.962C225.642 143.089 226.848 143.231 228.047 143.389C229.246 143.547 230.44 143.72 231.626 143.908C232.813 144.096 233.992 144.3 235.161 144.518C236.331 144.736 237.491 144.969 238.64 145.217C239.768 145.461 240.888 145.719 241.998 145.991C243.109 146.263 244.21 146.55 245.299 146.851C246.389 147.151 247.467 147.466 248.531 147.794C249.597 148.122 250.648 148.464 251.685 148.818C252.712 149.169 253.727 149.534 254.727 149.912C255.728 150.29 256.714 150.681 257.685 151.084C258.656 151.488 259.612 151.904 260.549 152.331C261.488 152.759 262.409 153.199 263.31 153.65C264.213 154.101 265.098 154.565 265.963 155.039C266.831 155.514 267.679 156.001 268.506 156.498C269.335 156.995 270.143 157.503 270.929 158.021C271.716 158.54 272.482 159.068 273.223 159.605C273.973 160.148 274.701 160.702 275.405 161.265C276.111 161.828 276.793 162.402 277.45 162.983C278.108 163.566 278.741 164.157 279.349 164.756C279.957 165.356 280.539 165.964 281.094 166.578C281.661 167.204 282.2 167.839 282.711 168.482C283.224 169.126 283.708 169.777 284.164 170.434C284.621 171.093 285.048 171.758 285.446 172.429C285.845 173.101 286.214 173.778 286.552 174.459C286.899 175.16 287.215 175.867 287.499 176.579C287.784 177.293 288.036 178.013 288.256 178.737C288.477 179.462 288.665 180.191 288.819 180.924C288.974 181.658 289.096 182.395 289.183 183.133C289.271 183.874 289.325 184.615 289.345 185.358C289.365 186.101 289.351 186.845 289.302 187.588C289.253 188.333 289.17 189.076 289.053 189.817C288.935 190.56 288.783 191.3 288.596 192.036C288.414 192.756 288.198 193.474 287.949 194.189C287.699 194.906 287.416 195.62 287.101 196.33C286.785 197.041 286.436 197.749 286.054 198.451C285.672 199.154 285.257 199.853 284.811 200.544C284.371 201.225 283.9 201.901 283.397 202.57C282.893 203.241 282.358 203.907 281.793 204.565C281.226 205.224 280.629 205.876 280.003 206.52C279.375 207.165 278.718 207.801 278.032 208.428C277.351 209.05 276.641 209.663 275.902 210.268C275.162 210.873 274.394 211.47 273.599 212.055C272.802 212.642 271.979 213.218 271.129 213.783C270.279 214.349 269.402 214.903 268.501 215.444C267.599 215.986 266.671 216.516 265.718 217.034C264.764 217.553 263.785 218.059 262.784 218.551C261.781 219.044 260.756 219.524 259.709 219.988C258.661 220.454 257.593 220.904 256.505 221.34C255.405 221.779 254.284 222.204 253.143 222.614C252 223.023 250.838 223.417 249.658 223.794C248.477 224.172 247.279 224.533 246.065 224.877C244.85 225.221 243.619 225.548 242.376 225.857C241.108 226.172 239.824 226.469 238.525 226.747C237.225 227.026 235.911 227.286 234.584 227.527C233.257 227.768 231.919 227.99 230.571 228.193C229.222 228.396 227.864 228.579 226.499 228.742C225.098 228.91 223.685 229.057 222.264 229.183C220.843 229.309 219.413 229.415 217.977 229.499C216.541 229.584 215.099 229.647 213.654 229.69C212.208 229.732 210.76 229.753 209.312 229.753ZM209.295 143.137C199.195 143.137 189.532 144.193 180.668 146.112C171.751 148.042 163.593 150.855 156.593 154.364C149.515 157.911 143.589 162.185 139.254 166.994C134.854 171.875 132.077 177.322 131.407 183.133C130.724 189.046 132.284 194.781 135.736 200.084C139.241 205.47 144.688 210.396 151.684 214.588C158.764 218.831 167.4 222.304 177.149 224.724C186.965 227.161 197.85 228.517 209.311 228.517C220.773 228.517 231.657 227.161 241.472 224.724C251.22 222.304 259.855 218.831 266.934 214.588C273.928 210.396 279.373 205.47 282.876 200.084C286.326 194.781 287.883 189.046 287.199 183.133C286.526 177.322 283.748 171.875 279.346 166.994C275.008 162.185 269.081 157.911 262.002 154.364C255 150.855 246.841 148.042 237.923 146.112C229.059 144.193 219.396 143.137 209.295 143.137Z" fill="white"/>
<path d="M550.497 221.088C544.034 218.944 537.833 216.42 531.959 213.541C526.412 210.83 521.224 207.764 516.461 204.38C512.052 201.258 508.132 197.805 504.77 194.081C501.679 190.665 499.249 186.968 497.548 183.089C496.03 179.647 495.315 176.051 495.432 172.444C495.556 169.225 496.492 166.047 498.197 163.064C499.877 160.162 502.247 157.487 505.203 155.159C508.315 152.719 511.922 150.623 515.902 148.941L516.475 150.135C512.73 151.796 509.351 153.843 506.449 156.211C500.772 160.835 497.577 166.742 497.43 172.885C497.359 176.344 498.069 179.789 499.533 183.088C501.169 186.798 503.489 190.336 506.433 193.611C509.627 197.175 513.348 200.485 517.531 203.484C522.046 206.73 526.962 209.679 532.22 212.295C537.786 215.074 543.661 217.522 549.789 219.616L550.497 221.088Z" fill="white"/>
<path d="M208.809 179.631C209.591 179.629 210.369 179.715 211.115 179.884C211.793 180.037 212.43 180.27 212.999 180.574C213.521 180.85 213.957 181.199 214.281 181.601C214.59 181.985 214.755 182.42 214.758 182.863C214.761 183.306 214.604 183.742 214.3 184.129C213.981 184.534 213.548 184.887 213.028 185.166C212.457 185.476 211.815 185.713 211.132 185.868C209.618 186.211 207.992 186.211 206.478 185.868C205.794 185.713 205.153 185.476 204.582 185.166C204.062 184.887 203.63 184.534 203.312 184.129C203.008 183.742 202.851 183.306 202.855 182.863C202.858 182.42 203.023 181.985 203.333 181.601C203.656 181.2 204.09 180.85 204.61 180.574C205.179 180.27 205.816 180.037 206.495 179.884C207.243 179.714 208.024 179.629 208.809 179.631V179.631Z" fill="white"/>
<path d="M576.027 179.631C576.855 179.634 577.678 179.72 578.472 179.884C579.265 180.046 580.026 180.278 580.738 180.574C581.416 180.854 582.035 181.199 582.579 181.601C583.078 181.965 583.474 182.393 583.747 182.863C583.984 183.262 584.066 183.699 583.983 184.129C583.898 184.517 583.654 184.878 583.28 185.167C582.862 185.483 582.344 185.724 581.769 185.868C581.068 186.046 580.33 186.133 579.586 186.126C578.751 186.123 577.92 186.036 577.119 185.868C576.32 185.704 575.553 185.468 574.837 185.167C574.158 184.885 573.538 184.535 572.995 184.13C572.501 183.764 572.11 183.334 571.845 182.864C571.615 182.464 571.542 182.028 571.632 181.601C571.725 181.216 571.974 180.859 572.349 180.574C572.769 180.263 573.287 180.026 573.86 179.884C574.556 179.71 575.29 179.624 576.027 179.631V179.631Z" fill="white"/>
</g>
<path d="M684.557 160.531L684.957 200.638H758.203L746.103 133.835L712.998 95.5713L656.571 92L655.905 159.344L684.557 160.531Z" fill="white" fill-opacity="0.42"/>
<path d="M746.103 133.835H684.291M746.103 133.835L758.203 200.638M746.103 133.835L712.998 95.5713M684.291 133.835L684.957 200.638H758.203M684.291 133.835L656.571 92M758.203 200.638L717.47 161.895M712.998 95.5713L656.571 92M712.998 95.5713L717.47 161.895M656.571 92L655.905 159.344L717.47 161.895" stroke="#DBDEE7"/>
<path d="M684.928 200.128V133.834L655.543 92.5098V158.323" stroke="url(#paint1_linear_3594_36527)" stroke-width="3" stroke-linecap="round" stroke-linejoin="round"/>
<g opacity="0.5" clip-path="url(#clip2_3594_36527)">
<path d="M775.294 458.05L782.779 450.567L782.838 450.501L782.895 450.433L782.948 450.363L782.994 450.286L783.036 450.204L783.073 450.123L783.104 450.037L783.132 449.951L783.152 449.863L783.17 449.775L783.181 449.597V444.749L783.178 444.617L783.167 444.488L783.154 444.358L783.132 444.228L783.106 444.098L783.071 443.973L783.031 443.85L782.985 443.724L782.935 443.608L782.878 443.489L782.814 443.373L782.746 443.26L782.676 443.153L782.594 443.049L782.511 442.948L782.423 442.851L782.329 442.759L782.232 442.671L782.131 442.587L782.025 442.508L781.918 442.438L781.806 442.37L781.689 442.306L781.571 442.249L781.452 442.198L781.327 442.152L781.204 442.112L781.077 442.077L780.947 442.048L780.817 442.026L780.688 442.013L780.558 442.002L780.431 442H775.584L775.496 442.002L775.406 442.011L775.318 442.029L775.23 442.046L775.145 442.075L775.059 442.106L774.975 442.145L774.896 442.187L774.819 442.233L774.749 442.286L774.681 442.343L774.615 442.405L767.135 449.892L767.805 450.561C767.914 450.671 767.838 450.862 767.679 450.862H764.218V447.396C764.218 447.239 764.407 447.16 764.519 447.27L765.189 447.943L769.957 443.172L770.001 443.126L770.04 443.073L770.073 443.023L770.1 442.966L770.122 442.906L770.139 442.847L770.15 442.785L770.155 442.721V442.655L770.15 442.592L770.139 442.532L770.122 442.471L770.1 442.411L770.071 442.352L770.038 442.299L769.999 442.246L769.955 442.2L769.909 442.158L769.858 442.119L769.803 442.086L769.746 442.055L769.689 442.033L769.628 442.015L769.564 442.002L769.469 442H768.499H763.939L763.807 442.002L763.678 442.013L763.548 442.026L763.419 442.048L763.289 442.077L763.164 442.112L763.039 442.152L762.916 442.198L762.797 442.249L762.679 442.306L762.562 442.37L762.45 442.438L762.342 442.508L762.237 442.587L762.136 442.671L762.039 442.759L761.947 442.851L761.859 442.948L761.776 443.049L761.697 443.153L761.624 443.26L761.556 443.373L761.493 443.489L761.435 443.608L761.385 443.724L761.337 443.85L761.299 443.973L761.264 444.098L761.238 444.228L761.216 444.358L761.203 444.488L761.192 444.617L761.189 444.749V458.343L761.192 458.433L761.2 458.523L761.218 458.611L761.238 458.699L761.264 458.783L761.295 458.868L761.334 458.952L761.376 459.029L761.424 459.106L761.475 459.181L761.532 459.249L761.591 459.315L761.657 459.374L761.73 459.432L761.802 459.482L761.879 459.528L761.958 459.572L762.042 459.607L762.125 459.64L762.213 459.665L762.299 459.687L762.389 459.7L762.476 459.709L762.567 459.711L762.657 459.709L762.744 459.7L762.834 459.687L762.92 459.665L763.008 459.64L763.091 459.607L763.175 459.572L763.254 459.528L763.331 459.482L763.401 459.432L763.474 459.374L763.539 459.315L773.934 448.913L773.458 448.434C773.348 448.324 773.425 448.135 773.583 448.135H777.046V451.599C777.046 451.755 776.858 451.834 776.748 451.724L776.269 451.247L765.872 461.646L765.81 461.712L765.753 461.783L765.701 461.855L765.654 461.932L765.611 462.012L765.575 462.095L765.542 462.179L765.518 462.267L765.496 462.35L765.483 462.443L765.474 462.531L765.472 462.623L765.474 462.713L765.483 462.801L765.496 462.891L765.518 462.977L765.542 463.065L765.575 463.149L765.611 463.23L765.654 463.312L765.701 463.389L765.753 463.459L765.81 463.531L765.872 463.597L765.938 463.657L766.006 463.714L766.081 463.767L766.157 463.813L766.234 463.855L766.318 463.894L766.403 463.925L766.489 463.952L766.577 463.971L766.665 463.989L766.753 463.993L766.772 463.998L766.847 464H780.435L780.567 463.998L780.697 463.987L780.826 463.974L780.956 463.952L781.085 463.925L781.213 463.89L781.336 463.853L781.461 463.806L781.58 463.756L781.698 463.699L781.815 463.635L781.927 463.567L782.034 463.496L782.14 463.415L782.241 463.334L782.337 463.246L782.432 463.153L782.52 463.056L782.603 462.955L782.684 462.85L782.755 462.742L782.823 462.63L782.886 462.513L782.943 462.394L782.994 462.276L783.04 462.152L783.08 462.029L783.115 461.902L783.141 461.772L783.163 461.642L783.176 461.512L783.187 461.383L783.189 461.251V456.684V455.714L783.187 455.65L783.178 455.587L783.161 455.523L783.141 455.461L783.117 455.404L783.086 455.349L783.051 455.299L783.009 455.248L782.961 455.204L782.915 455.162L782.853 455.129L782.796 455.098L782.739 455.072L782.68 455.052L782.621 455.039L782.557 455.03L782.493 455.028L782.43 455.03L782.366 455.039L782.307 455.052L782.245 455.072L782.188 455.098L782.131 455.129L782.078 455.164L782.008 455.228L777.24 459.999L777.912 460.668C778.024 460.778 777.945 460.969 777.789 460.969H774.328V457.505C774.328 457.349 774.516 457.269 774.628 457.379L775.294 458.05Z" fill="white"/>
<path d="M723.871 446.282L722.096 451.795C722.08 451.841 722.038 451.872 721.989 451.872H720.068C720.02 451.872 719.977 451.841 719.962 451.793L719.159 449.148C719.128 449.044 718.979 449.042 718.946 449.146L718.099 451.793C718.083 451.839 718.041 451.87 717.992 451.87H716.076C716.027 451.87 715.985 451.839 715.969 451.793L714.195 446.28C714.172 446.21 714.226 446.137 714.301 446.137H716.069C716.118 446.137 716.16 446.168 716.175 446.214L717.054 449.062C717.085 449.165 717.231 449.165 717.265 449.064L718.194 446.214C718.21 446.168 718.252 446.137 718.3 446.137H719.924C719.973 446.137 720.015 446.168 720.031 446.216L720.909 449.099C720.94 449.203 721.089 449.203 721.12 449.101L722.049 446.214C722.065 446.168 722.107 446.137 722.156 446.137H723.768C723.839 446.137 723.893 446.21 723.871 446.282Z" fill="white"/>
<path d="M724.867 446.137H726.588C726.65 446.137 726.699 446.185 726.699 446.247V451.76C726.699 451.821 726.65 451.87 726.588 451.87H724.867C724.805 451.87 724.756 451.821 724.756 451.76V446.247C724.756 446.187 724.807 446.137 724.867 446.137Z" fill="white"/>
<path d="M733.764 446.247V451.76C733.764 451.821 733.715 451.87 733.653 451.87H732.218C732.185 451.87 732.153 451.854 732.134 451.83L730.173 449.498C730.106 449.419 729.977 449.465 729.977 449.569V451.76C729.977 451.821 729.929 451.87 729.866 451.87H728.194C728.132 451.87 728.083 451.821 728.083 451.76V446.247C728.083 446.185 728.132 446.137 728.194 446.137H729.629C729.662 446.137 729.693 446.152 729.713 446.176L731.674 448.508C731.741 448.587 731.87 448.541 731.87 448.437V446.247C731.87 446.185 731.918 446.137 731.98 446.137H733.653C733.715 446.137 733.764 446.187 733.764 446.247Z" fill="white"/>
<path d="M740.835 446.247V451.76C740.835 451.821 740.787 451.87 740.725 451.87H739.289C739.256 451.87 739.225 451.854 739.205 451.83L737.244 449.498C737.178 449.419 737.049 449.465 737.049 449.569V451.76C737.049 451.821 737 451.87 736.938 451.87H735.263C735.201 451.87 735.152 451.821 735.152 451.76V446.247C735.152 446.185 735.201 446.137 735.263 446.137H736.698C736.732 446.137 736.763 446.152 736.783 446.176L738.744 448.508C738.81 448.587 738.939 448.541 738.939 448.437V446.247C738.939 446.185 738.988 446.137 739.05 446.137H740.722C740.787 446.137 740.835 446.187 740.835 446.247Z" fill="white"/>
<path d="M742.333 446.137H744.054C744.116 446.137 744.165 446.185 744.165 446.247V451.76C744.165 451.821 744.116 451.87 744.054 451.87H742.333C742.27 451.87 742.222 451.821 742.222 451.76V446.247C742.222 446.187 742.27 446.137 742.333 446.137Z" fill="white"/>
<path d="M751.231 446.247V451.76C751.231 451.821 751.182 451.87 751.12 451.87H749.685C749.651 451.87 749.62 451.854 749.6 451.83L747.639 449.498C747.573 449.419 747.444 449.465 747.444 449.569V451.76C747.444 451.821 747.395 451.87 747.333 451.87H745.661C745.599 451.87 745.55 451.821 745.55 451.76V446.247C745.55 446.185 745.599 446.137 745.661 446.137H747.096C747.129 446.137 747.16 446.152 747.18 446.176L749.141 448.508C749.208 448.587 749.336 448.541 749.336 448.437V446.247C749.336 446.185 749.385 446.137 749.447 446.137H751.12C751.18 446.137 751.231 446.187 751.231 446.247Z" fill="white"/>
<path d="M756.489 448.848H757.956C758.018 448.848 758.067 448.896 758.067 448.958V451.213C758.067 451.25 758.049 451.285 758.018 451.305C757.69 451.524 757.31 451.693 756.882 451.813C756.432 451.938 755.99 452 755.556 452C754.941 452 754.389 451.872 753.901 451.618C753.413 451.365 753.029 451.01 752.752 450.553C752.474 450.096 752.337 449.58 752.337 449C752.337 448.422 752.474 447.904 752.752 447.447C753.029 446.99 753.415 446.635 753.914 446.382C754.411 446.128 754.972 446 755.598 446C756.163 446 756.669 446.095 757.117 446.282C757.53 446.457 757.878 446.701 758.162 447.021C758.202 447.068 758.198 447.138 758.151 447.178L757.071 448.124C757.026 448.164 756.958 448.157 756.918 448.115C756.572 447.749 756.163 447.566 755.698 447.566C755.269 447.566 754.928 447.694 754.677 447.952C754.424 448.208 754.298 448.559 754.298 449C754.298 449.432 754.422 449.779 754.673 450.041C754.923 450.304 755.256 450.434 755.673 450.434C755.895 450.434 756.106 450.396 756.31 450.324C756.354 450.308 756.383 450.264 756.383 450.218V448.956C756.379 448.899 756.427 448.848 756.489 448.848Z" fill="white"/>
<path d="M737.38 454.275C737.777 454.457 738.085 454.72 738.299 455.063C738.515 455.407 738.622 455.806 738.622 456.263C738.622 456.72 738.515 457.119 738.299 457.463C738.082 457.806 737.777 458.067 737.38 458.251C736.982 458.434 736.516 458.526 735.981 458.526H735.255C735.193 458.526 735.144 458.577 735.144 458.641V459.885C735.144 459.949 735.095 460 735.032 460H733.301C733.239 460 733.189 459.949 733.189 459.885V454.115C733.189 454.051 733.239 454 733.301 454H735.981C736.516 454 736.982 454.092 737.38 454.275ZM736.451 456.78C736.583 456.657 736.65 456.484 736.65 456.261C736.65 456.037 736.583 455.866 736.451 455.742C736.32 455.619 736.119 455.557 735.856 455.557H735.255C735.193 455.557 735.144 455.608 735.144 455.672V456.847C735.144 456.911 735.193 456.962 735.255 456.962H735.856C736.121 456.964 736.32 456.902 736.451 456.78Z" fill="white"/>
<path d="M739.751 454H741.483C741.545 454 741.594 454.051 741.594 454.115V458.314C741.594 458.378 741.643 458.429 741.706 458.429H744.1C744.162 458.429 744.212 458.48 744.212 458.544V459.88C744.212 459.945 744.162 459.995 744.1 459.995H739.749C739.687 459.995 739.638 459.945 739.638 459.88V454.115C739.64 454.051 739.689 454 739.751 454Z" fill="white"/>
<path d="M749.134 454H747.358C747.313 454 747.273 454.028 747.255 454.069L744.819 459.834C744.787 459.91 744.841 459.995 744.921 459.995H746.662C746.708 459.995 746.749 459.965 746.766 459.922L747.128 458.95L747.666 457.495L748.125 456.265C748.161 456.166 748.297 456.166 748.333 456.265L748.792 457.495L749.33 458.95L749.691 459.922C749.707 459.965 749.749 459.995 749.796 459.995H751.57C751.65 459.995 751.704 459.91 751.673 459.834L749.236 454.069C749.218 454.028 749.178 454 749.134 454Z" fill="white"/>
<path d="M758.19 454.115V459.88C758.19 459.945 758.14 459.995 758.078 459.995H756.634C756.601 459.995 756.57 459.979 756.55 459.954L754.577 457.516C754.51 457.433 754.381 457.481 754.381 457.589V459.88C754.381 459.945 754.332 459.995 754.269 459.995H752.587C752.525 459.995 752.476 459.945 752.476 459.88V454.115C752.476 454.051 752.525 454 752.587 454H754.031C754.064 454 754.095 454.016 754.115 454.042L756.088 456.48C756.155 456.563 756.284 456.514 756.284 456.406V454.115C756.284 454.051 756.333 454 756.396 454H758.078C758.14 454 758.19 454.051 758.19 454.115Z" fill="white"/>
</g>
</g>
<defs>
<linearGradient id="paint0_linear_3594_36527" x1="634.21" y1="30.3939" x2="529.584" y2="496.806" gradientUnits="userSpaceOnUse">
<stop stop-color="#289B9C"/>
<stop offset="1" stop-color="#2B74E1"/>
</linearGradient>
<linearGradient id="paint1_linear_3594_36527" x1="620.423" y1="121.59" x2="700.266" y2="125.064" gradientUnits="userSpaceOnUse">
<stop offset="0.507001" stop-color="#E0E0E0"/>
<stop offset="0.553734" stop-color="white"/>
<stop offset="0.72473" stop-color="#E0E0E0"/>
<stop offset="0.827517" stop-color="white"/>
</linearGradient>
<clipPath id="clip0_3594_36527">
<path d="M838 9.99999C838 4.47714 833.523 0 828 0H9.99998C4.47713 0 0 4.47715 0 10V462C0 467.523 4.47715 472 10 472H828C833.523 472 838 467.523 838 462V9.99999Z" fill="white"/>
</clipPath>
<clipPath id="clip1_3594_36527">
<rect width="1343.67" height="395" fill="white" transform="translate(-462.659 39)"/>
</clipPath>
<clipPath id="clip2_3594_36527">
<rect width="89.9254" height="22" fill="white" transform="translate(714.189 442)"/>
</clipPath>
</defs>
</svg>
