<svg width="838" height="472" viewBox="0 0 838 472" fill="none" xmlns="http://www.w3.org/2000/svg">
<g clip-path="url(#clip0_3412_38188)">
<path d="M0 9.99999C0 4.47714 4.47715 0 10 0H828C833.523 0 838 4.47715 838 10V462C838 467.523 833.523 472 828 472H9.99998C4.47713 472 0 467.523 0 462V9.99999Z" fill="url(#paint0_linear_3412_38188)"/>
<g clip-path="url(#clip1_3412_38188)">
<path d="M68.0636 39H772.338L944.868 434H-102.958L68.0636 39Z" fill="#4AB75C"/>
<path d="M2.02439 411.068L138 47.3027H698.8L835.974 411.068H2.02439Z" fill="#4AB75C" stroke="white"/>
<path opacity="0.1" d="M356.906 46.8125H387.854L366.745 411.12H314.822L356.906 46.8125Z" fill="white"/>
<path opacity="0.1" d="M289.795 46.8125H323.349L262.898 411.12H210.975L289.795 46.8125Z" fill="white"/>
<path opacity="0.1" d="M218.242 46.8125H253.1L158.158 411.12H106.234L218.242 46.8125Z" fill="white"/>
<path opacity="0.1" d="M139.403 46.8125H179.474L54.3109 411.12H2.3877L139.403 46.8125Z" fill="white"/>
<path opacity="0.1" d="M514.459 46.8125H480.904L541.356 411.12H593.279L514.459 46.8125Z" fill="white"/>
<path opacity="0.1" d="M586.014 46.8125H551.155L646.098 411.12H698.021L586.014 46.8125Z" fill="white"/>
<path opacity="0.1" d="M664.852 46.8125H624.781L749.944 411.12H801.867L664.852 46.8125Z" fill="white"/>
<path opacity="0.1" d="M418.802 46.8125H449.751L470.591 411.12H418.668L418.802 46.8125Z" fill="white"/>
</g>
<g opacity="0.5" clip-path="url(#clip2_3412_38188)">
<path d="M775.294 458.05L782.779 450.567L782.838 450.501L782.895 450.433L782.948 450.363L782.994 450.286L783.036 450.204L783.073 450.123L783.104 450.037L783.132 449.951L783.152 449.863L783.17 449.775L783.181 449.597V444.749L783.178 444.617L783.167 444.488L783.154 444.358L783.132 444.228L783.106 444.098L783.071 443.973L783.031 443.85L782.985 443.724L782.935 443.608L782.878 443.489L782.814 443.373L782.746 443.26L782.676 443.153L782.594 443.049L782.511 442.948L782.423 442.851L782.329 442.759L782.232 442.671L782.131 442.587L782.025 442.508L781.918 442.438L781.806 442.37L781.689 442.306L781.571 442.249L781.452 442.198L781.327 442.152L781.204 442.112L781.077 442.077L780.947 442.048L780.817 442.026L780.688 442.013L780.558 442.002L780.431 442H775.584L775.496 442.002L775.406 442.011L775.318 442.029L775.23 442.046L775.145 442.075L775.059 442.106L774.975 442.145L774.896 442.187L774.819 442.233L774.749 442.286L774.681 442.343L774.615 442.405L767.135 449.892L767.805 450.561C767.914 450.671 767.838 450.862 767.679 450.862H764.218V447.396C764.218 447.239 764.407 447.16 764.519 447.27L765.189 447.943L769.957 443.172L770.001 443.126L770.04 443.073L770.073 443.023L770.1 442.966L770.122 442.906L770.139 442.847L770.15 442.785L770.155 442.721V442.655L770.15 442.592L770.139 442.532L770.122 442.471L770.1 442.411L770.071 442.352L770.038 442.299L769.999 442.246L769.955 442.2L769.909 442.158L769.858 442.119L769.803 442.086L769.746 442.055L769.689 442.033L769.628 442.015L769.564 442.002L769.469 442H768.499H763.939L763.807 442.002L763.678 442.013L763.548 442.026L763.419 442.048L763.289 442.077L763.164 442.112L763.039 442.152L762.916 442.198L762.797 442.249L762.679 442.306L762.562 442.37L762.45 442.438L762.342 442.508L762.237 442.587L762.136 442.671L762.039 442.759L761.947 442.851L761.859 442.948L761.776 443.049L761.697 443.153L761.624 443.26L761.556 443.373L761.493 443.489L761.435 443.608L761.385 443.724L761.337 443.85L761.299 443.973L761.264 444.098L761.238 444.228L761.216 444.358L761.203 444.488L761.192 444.617L761.189 444.749V458.343L761.192 458.433L761.2 458.523L761.218 458.611L761.238 458.699L761.264 458.783L761.295 458.868L761.334 458.952L761.376 459.029L761.424 459.106L761.475 459.181L761.532 459.249L761.591 459.315L761.657 459.374L761.73 459.432L761.802 459.482L761.879 459.528L761.958 459.572L762.042 459.607L762.125 459.64L762.213 459.665L762.299 459.687L762.389 459.7L762.476 459.709L762.567 459.711L762.657 459.709L762.744 459.7L762.834 459.687L762.92 459.665L763.008 459.64L763.091 459.607L763.175 459.572L763.254 459.528L763.331 459.482L763.401 459.432L763.474 459.374L763.539 459.315L773.934 448.913L773.458 448.434C773.348 448.324 773.425 448.135 773.583 448.135H777.046V451.599C777.046 451.755 776.858 451.834 776.748 451.724L776.269 451.247L765.872 461.646L765.81 461.712L765.753 461.783L765.701 461.855L765.654 461.932L765.611 462.012L765.575 462.095L765.542 462.179L765.518 462.267L765.496 462.35L765.483 462.443L765.474 462.531L765.472 462.623L765.474 462.713L765.483 462.801L765.496 462.891L765.518 462.977L765.542 463.065L765.575 463.149L765.611 463.23L765.654 463.312L765.701 463.389L765.753 463.459L765.81 463.531L765.872 463.597L765.938 463.657L766.006 463.714L766.081 463.767L766.157 463.813L766.234 463.855L766.318 463.894L766.403 463.925L766.489 463.952L766.577 463.971L766.665 463.989L766.753 463.993L766.772 463.998L766.847 464H780.435L780.567 463.998L780.697 463.987L780.826 463.974L780.956 463.952L781.085 463.925L781.213 463.89L781.336 463.853L781.461 463.806L781.58 463.756L781.698 463.699L781.815 463.635L781.927 463.567L782.034 463.496L782.14 463.415L782.241 463.334L782.337 463.246L782.432 463.153L782.52 463.056L782.603 462.955L782.684 462.85L782.755 462.742L782.823 462.63L782.886 462.513L782.943 462.394L782.994 462.276L783.04 462.152L783.08 462.029L783.115 461.902L783.141 461.772L783.163 461.642L783.176 461.512L783.187 461.383L783.189 461.251V456.684V455.714L783.187 455.65L783.178 455.587L783.161 455.523L783.141 455.461L783.117 455.404L783.086 455.349L783.051 455.299L783.009 455.248L782.961 455.204L782.915 455.162L782.853 455.129L782.796 455.098L782.739 455.072L782.68 455.052L782.621 455.039L782.557 455.03L782.493 455.028L782.43 455.03L782.366 455.039L782.307 455.052L782.245 455.072L782.188 455.098L782.131 455.129L782.078 455.164L782.008 455.228L777.24 459.999L777.912 460.668C778.024 460.778 777.945 460.969 777.789 460.969H774.328V457.505C774.328 457.349 774.516 457.269 774.628 457.379L775.294 458.05Z" fill="white"/>
<path d="M723.871 446.282L722.096 451.795C722.08 451.841 722.038 451.872 721.989 451.872H720.068C720.02 451.872 719.977 451.841 719.962 451.793L719.159 449.148C719.128 449.044 718.979 449.042 718.946 449.146L718.099 451.793C718.083 451.839 718.041 451.87 717.992 451.87H716.076C716.027 451.87 715.985 451.839 715.969 451.793L714.195 446.28C714.172 446.21 714.226 446.137 714.301 446.137H716.069C716.118 446.137 716.16 446.168 716.175 446.214L717.054 449.062C717.085 449.165 717.231 449.165 717.265 449.064L718.194 446.214C718.21 446.168 718.252 446.137 718.3 446.137H719.924C719.973 446.137 720.015 446.168 720.031 446.216L720.909 449.099C720.94 449.203 721.089 449.203 721.12 449.101L722.049 446.214C722.065 446.168 722.107 446.137 722.156 446.137H723.768C723.839 446.137 723.893 446.21 723.871 446.282Z" fill="white"/>
<path d="M724.867 446.137H726.588C726.65 446.137 726.699 446.185 726.699 446.247V451.76C726.699 451.821 726.65 451.87 726.588 451.87H724.867C724.805 451.87 724.756 451.821 724.756 451.76V446.247C724.756 446.187 724.807 446.137 724.867 446.137Z" fill="white"/>
<path d="M733.763 446.247V451.76C733.763 451.821 733.714 451.87 733.652 451.87H732.217C732.184 451.87 732.153 451.854 732.133 451.83L730.172 449.498C730.105 449.419 729.976 449.465 729.976 449.569V451.76C729.976 451.821 729.928 451.87 729.865 451.87H728.193C728.131 451.87 728.082 451.821 728.082 451.76V446.247C728.082 446.185 728.131 446.137 728.193 446.137H729.628C729.661 446.137 729.692 446.152 729.712 446.176L731.673 448.508C731.74 448.587 731.869 448.541 731.869 448.437V446.247C731.869 446.185 731.917 446.137 731.979 446.137H733.652C733.714 446.137 733.763 446.187 733.763 446.247Z" fill="white"/>
<path d="M740.835 446.247V451.76C740.835 451.821 740.787 451.87 740.725 451.87H739.289C739.256 451.87 739.225 451.854 739.205 451.83L737.244 449.498C737.178 449.419 737.049 449.465 737.049 449.569V451.76C737.049 451.821 737 451.87 736.938 451.87H735.263C735.201 451.87 735.152 451.821 735.152 451.76V446.247C735.152 446.185 735.201 446.137 735.263 446.137H736.698C736.732 446.137 736.763 446.152 736.783 446.176L738.744 448.508C738.81 448.587 738.939 448.541 738.939 448.437V446.247C738.939 446.185 738.988 446.137 739.05 446.137H740.722C740.787 446.137 740.835 446.187 740.835 446.247Z" fill="white"/>
<path d="M742.334 446.137H744.055C744.117 446.137 744.166 446.185 744.166 446.247V451.76C744.166 451.821 744.117 451.87 744.055 451.87H742.334C742.271 451.87 742.223 451.821 742.223 451.76V446.247C742.223 446.187 742.271 446.137 742.334 446.137Z" fill="white"/>
<path d="M751.23 446.247V451.76C751.23 451.821 751.181 451.87 751.119 451.87H749.684C749.65 451.87 749.619 451.854 749.599 451.83L747.638 449.498C747.572 449.419 747.443 449.465 747.443 449.569V451.76C747.443 451.821 747.394 451.87 747.332 451.87H745.66C745.598 451.87 745.549 451.821 745.549 451.76V446.247C745.549 446.185 745.598 446.137 745.66 446.137H747.095C747.128 446.137 747.159 446.152 747.179 446.176L749.14 448.508C749.207 448.587 749.335 448.541 749.335 448.437V446.247C749.335 446.185 749.384 446.137 749.446 446.137H751.119C751.179 446.137 751.23 446.187 751.23 446.247Z" fill="white"/>
<path d="M756.49 448.848H757.957C758.019 448.848 758.068 448.896 758.068 448.958V451.213C758.068 451.25 758.05 451.285 758.019 451.305C757.691 451.524 757.311 451.693 756.883 451.813C756.433 451.938 755.991 452 755.557 452C754.942 452 754.39 451.872 753.902 451.618C753.414 451.365 753.03 451.01 752.753 450.553C752.475 450.096 752.338 449.58 752.338 449C752.338 448.422 752.475 447.904 752.753 447.447C753.03 446.99 753.416 446.635 753.915 446.382C754.412 446.128 754.973 446 755.599 446C756.164 446 756.67 446.095 757.118 446.282C757.531 446.457 757.879 446.701 758.163 447.021C758.203 447.068 758.198 447.138 758.152 447.178L757.072 448.124C757.027 448.164 756.958 448.157 756.919 448.115C756.573 447.749 756.164 447.566 755.699 447.566C755.27 447.566 754.929 447.694 754.678 447.952C754.425 448.208 754.299 448.559 754.299 449C754.299 449.432 754.423 449.779 754.674 450.041C754.924 450.304 755.257 450.434 755.674 450.434C755.896 450.434 756.107 450.396 756.311 450.324C756.355 450.308 756.384 450.264 756.384 450.218V448.956C756.38 448.899 756.428 448.848 756.49 448.848Z" fill="white"/>
<path d="M737.38 454.275C737.777 454.457 738.085 454.72 738.299 455.063C738.515 455.407 738.622 455.806 738.622 456.263C738.622 456.72 738.515 457.119 738.299 457.463C738.082 457.806 737.777 458.067 737.38 458.251C736.982 458.434 736.516 458.526 735.981 458.526H735.255C735.193 458.526 735.144 458.577 735.144 458.641V459.885C735.144 459.949 735.095 460 735.032 460H733.301C733.239 460 733.189 459.949 733.189 459.885V454.115C733.189 454.051 733.239 454 733.301 454H735.981C736.516 454 736.982 454.092 737.38 454.275ZM736.451 456.78C736.583 456.657 736.65 456.484 736.65 456.261C736.65 456.037 736.583 455.866 736.451 455.742C736.32 455.619 736.119 455.557 735.856 455.557H735.255C735.193 455.557 735.144 455.608 735.144 455.672V456.847C735.144 456.911 735.193 456.962 735.255 456.962H735.856C736.121 456.964 736.32 456.902 736.451 456.78Z" fill="white"/>
<path d="M739.751 454H741.482C741.544 454 741.593 454.051 741.593 454.115V458.314C741.593 458.378 741.643 458.429 741.705 458.429H744.099C744.161 458.429 744.211 458.48 744.211 458.544V459.88C744.211 459.945 744.161 459.995 744.099 459.995H739.748C739.686 459.995 739.637 459.945 739.637 459.88V454.115C739.639 454.051 739.688 454 739.751 454Z" fill="white"/>
<path d="M749.133 454H747.357C747.312 454 747.272 454.028 747.254 454.069L744.818 459.834C744.786 459.91 744.84 459.995 744.92 459.995H746.661C746.707 459.995 746.748 459.965 746.765 459.922L747.127 458.95L747.665 457.495L748.124 456.265C748.16 456.166 748.296 456.166 748.332 456.265L748.791 457.495L749.329 458.95L749.69 459.922C749.706 459.965 749.748 459.995 749.795 459.995H751.569C751.649 459.995 751.703 459.91 751.672 459.834L749.235 454.069C749.217 454.028 749.177 454 749.133 454Z" fill="white"/>
<path d="M758.189 454.115V459.88C758.189 459.945 758.139 459.995 758.077 459.995H756.633C756.6 459.995 756.569 459.979 756.549 459.954L754.576 457.516C754.509 457.433 754.38 457.481 754.38 457.589V459.88C754.38 459.945 754.331 459.995 754.268 459.995H752.586C752.524 459.995 752.475 459.945 752.475 459.88V454.115C752.475 454.051 752.524 454 752.586 454H754.03C754.063 454 754.094 454.016 754.115 454.042L756.087 456.48C756.154 456.563 756.283 456.514 756.283 456.406V454.115C756.283 454.051 756.332 454 756.395 454H758.077C758.139 454 758.189 454.051 758.189 454.115Z" fill="white"/>
</g>
</g>
<defs>
<linearGradient id="paint0_linear_3412_38188" x1="203.79" y1="30.3939" x2="308.416" y2="496.806" gradientUnits="userSpaceOnUse">
<stop stop-color="#289B9C"/>
<stop offset="1" stop-color="#2B74E1"/>
</linearGradient>
<clipPath id="clip0_3412_38188">
<path d="M0 9.99999C0 4.47714 4.47715 0 10 0H828C833.523 0 838 4.47715 838 10V462C838 467.523 833.523 472 828 472H9.99998C4.47713 472 0 467.523 0 462V9.99999Z" fill="white"/>
</clipPath>
<clipPath id="clip1_3412_38188">
<rect width="905.77" height="395" fill="white" transform="translate(-33.8848 39)"/>
</clipPath>
<clipPath id="clip2_3412_38188">
<rect width="89.9254" height="22" fill="white" transform="translate(714.189 442)"/>
</clipPath>
</defs>
</svg>
