<svg width="838" height="472" viewBox="0 0 838 472" fill="none" xmlns="http://www.w3.org/2000/svg">
<g clip-path="url(#clip0_3412_38192)">
<path d="M0 9.99999C0 4.47714 4.47715 0 10 0H828C833.523 0 838 4.47715 838 10V462C838 467.523 833.523 472 828 472H9.99998C4.47713 472 0 467.523 0 462V9.99999Z" fill="url(#paint0_linear_3412_38192)"/>
<g opacity="0.5" clip-path="url(#clip1_3412_38192)">
<path d="M775.294 458.05L782.779 450.567L782.838 450.501L782.895 450.433L782.948 450.363L782.994 450.286L783.036 450.204L783.073 450.123L783.104 450.037L783.132 449.951L783.152 449.863L783.17 449.775L783.181 449.597V444.749L783.178 444.617L783.167 444.488L783.154 444.358L783.132 444.228L783.106 444.098L783.071 443.973L783.031 443.85L782.985 443.724L782.935 443.608L782.878 443.489L782.814 443.373L782.746 443.26L782.676 443.153L782.594 443.049L782.511 442.948L782.423 442.851L782.329 442.759L782.232 442.671L782.131 442.587L782.025 442.508L781.918 442.438L781.806 442.37L781.689 442.306L781.571 442.249L781.452 442.198L781.327 442.152L781.204 442.112L781.077 442.077L780.947 442.048L780.817 442.026L780.688 442.013L780.558 442.002L780.431 442H775.584L775.496 442.002L775.406 442.011L775.318 442.029L775.23 442.046L775.145 442.075L775.059 442.106L774.975 442.145L774.896 442.187L774.819 442.233L774.749 442.286L774.681 442.343L774.615 442.405L767.135 449.892L767.805 450.561C767.914 450.671 767.838 450.862 767.679 450.862H764.218V447.396C764.218 447.239 764.407 447.16 764.519 447.27L765.189 447.943L769.957 443.172L770.001 443.126L770.04 443.073L770.073 443.023L770.1 442.966L770.122 442.906L770.139 442.847L770.15 442.785L770.155 442.721V442.655L770.15 442.592L770.139 442.532L770.122 442.471L770.1 442.411L770.071 442.352L770.038 442.299L769.999 442.246L769.955 442.2L769.909 442.158L769.858 442.119L769.803 442.086L769.746 442.055L769.689 442.033L769.628 442.015L769.564 442.002L769.469 442H768.499H763.939L763.807 442.002L763.678 442.013L763.548 442.026L763.419 442.048L763.289 442.077L763.164 442.112L763.039 442.152L762.916 442.198L762.797 442.249L762.679 442.306L762.562 442.37L762.45 442.438L762.342 442.508L762.237 442.587L762.136 442.671L762.039 442.759L761.947 442.851L761.859 442.948L761.776 443.049L761.697 443.153L761.624 443.26L761.556 443.373L761.493 443.489L761.435 443.608L761.385 443.724L761.337 443.85L761.299 443.973L761.264 444.098L761.238 444.228L761.216 444.358L761.203 444.488L761.192 444.617L761.189 444.749V458.343L761.192 458.433L761.2 458.523L761.218 458.611L761.238 458.699L761.264 458.783L761.295 458.868L761.334 458.952L761.376 459.029L761.424 459.106L761.475 459.181L761.532 459.249L761.591 459.315L761.657 459.374L761.73 459.432L761.802 459.482L761.879 459.528L761.958 459.572L762.042 459.607L762.125 459.64L762.213 459.665L762.299 459.687L762.389 459.7L762.476 459.709L762.567 459.711L762.657 459.709L762.744 459.7L762.834 459.687L762.92 459.665L763.008 459.64L763.091 459.607L763.175 459.572L763.254 459.528L763.331 459.482L763.401 459.432L763.474 459.374L763.539 459.315L773.934 448.913L773.458 448.434C773.348 448.324 773.425 448.135 773.583 448.135H777.046V451.599C777.046 451.755 776.858 451.834 776.748 451.724L776.269 451.247L765.872 461.646L765.81 461.712L765.753 461.783L765.701 461.855L765.654 461.932L765.611 462.012L765.575 462.095L765.542 462.179L765.518 462.267L765.496 462.35L765.483 462.443L765.474 462.531L765.472 462.623L765.474 462.713L765.483 462.801L765.496 462.891L765.518 462.977L765.542 463.065L765.575 463.149L765.611 463.23L765.654 463.312L765.701 463.389L765.753 463.459L765.81 463.531L765.872 463.597L765.938 463.657L766.006 463.714L766.081 463.767L766.157 463.813L766.234 463.855L766.318 463.894L766.403 463.925L766.489 463.952L766.577 463.971L766.665 463.989L766.753 463.993L766.772 463.998L766.847 464H780.435L780.567 463.998L780.697 463.987L780.826 463.974L780.956 463.952L781.085 463.925L781.213 463.89L781.336 463.853L781.461 463.806L781.58 463.756L781.698 463.699L781.815 463.635L781.927 463.567L782.034 463.496L782.14 463.415L782.241 463.334L782.337 463.246L782.432 463.153L782.52 463.056L782.603 462.955L782.684 462.85L782.755 462.742L782.823 462.63L782.886 462.513L782.943 462.394L782.994 462.276L783.04 462.152L783.08 462.029L783.115 461.902L783.141 461.772L783.163 461.642L783.176 461.512L783.187 461.383L783.189 461.251V456.684V455.714L783.187 455.65L783.178 455.587L783.161 455.523L783.141 455.461L783.117 455.404L783.086 455.349L783.051 455.299L783.009 455.248L782.961 455.204L782.915 455.162L782.853 455.129L782.796 455.098L782.739 455.072L782.68 455.052L782.621 455.039L782.557 455.03L782.493 455.028L782.43 455.03L782.366 455.039L782.307 455.052L782.245 455.072L782.188 455.098L782.131 455.129L782.078 455.164L782.008 455.228L777.24 459.999L777.912 460.668C778.024 460.778 777.945 460.969 777.789 460.969H774.328V457.505C774.328 457.349 774.516 457.269 774.628 457.379L775.294 458.05Z" fill="white"/>
<path d="M723.871 446.282L722.096 451.795C722.08 451.841 722.038 451.872 721.989 451.872H720.068C720.02 451.872 719.977 451.841 719.962 451.793L719.159 449.148C719.128 449.044 718.979 449.042 718.946 449.146L718.099 451.793C718.083 451.839 718.041 451.87 717.992 451.87H716.076C716.027 451.87 715.985 451.839 715.969 451.793L714.195 446.28C714.172 446.21 714.226 446.137 714.301 446.137H716.069C716.118 446.137 716.16 446.168 716.175 446.214L717.054 449.062C717.085 449.165 717.231 449.165 717.265 449.064L718.194 446.214C718.21 446.168 718.252 446.137 718.3 446.137H719.924C719.973 446.137 720.015 446.168 720.031 446.216L720.909 449.099C720.94 449.203 721.089 449.203 721.12 449.101L722.049 446.214C722.065 446.168 722.107 446.137 722.156 446.137H723.768C723.839 446.137 723.893 446.21 723.871 446.282Z" fill="white"/>
<path d="M724.867 446.137H726.588C726.65 446.137 726.699 446.185 726.699 446.247V451.76C726.699 451.821 726.65 451.87 726.588 451.87H724.867C724.805 451.87 724.756 451.821 724.756 451.76V446.247C724.756 446.187 724.807 446.137 724.867 446.137Z" fill="white"/>
<path d="M733.763 446.247V451.76C733.763 451.821 733.714 451.87 733.652 451.87H732.217C732.184 451.87 732.153 451.854 732.133 451.83L730.172 449.498C730.105 449.419 729.976 449.465 729.976 449.569V451.76C729.976 451.821 729.928 451.87 729.865 451.87H728.193C728.131 451.87 728.082 451.821 728.082 451.76V446.247C728.082 446.185 728.131 446.137 728.193 446.137H729.628C729.661 446.137 729.692 446.152 729.712 446.176L731.673 448.508C731.74 448.587 731.869 448.541 731.869 448.437V446.247C731.869 446.185 731.917 446.137 731.979 446.137H733.652C733.714 446.137 733.763 446.187 733.763 446.247Z" fill="white"/>
<path d="M740.835 446.247V451.76C740.835 451.821 740.787 451.87 740.725 451.87H739.289C739.256 451.87 739.225 451.854 739.205 451.83L737.244 449.498C737.178 449.419 737.049 449.465 737.049 449.569V451.76C737.049 451.821 737 451.87 736.938 451.87H735.263C735.201 451.87 735.152 451.821 735.152 451.76V446.247C735.152 446.185 735.201 446.137 735.263 446.137H736.698C736.732 446.137 736.763 446.152 736.783 446.176L738.744 448.508C738.81 448.587 738.939 448.541 738.939 448.437V446.247C738.939 446.185 738.988 446.137 739.05 446.137H740.722C740.787 446.137 740.835 446.187 740.835 446.247Z" fill="white"/>
<path d="M742.334 446.137H744.055C744.117 446.137 744.166 446.185 744.166 446.247V451.76C744.166 451.821 744.117 451.87 744.055 451.87H742.334C742.271 451.87 742.223 451.821 742.223 451.76V446.247C742.223 446.187 742.271 446.137 742.334 446.137Z" fill="white"/>
<path d="M751.23 446.247V451.76C751.23 451.821 751.181 451.87 751.119 451.87H749.684C749.65 451.87 749.619 451.854 749.599 451.83L747.638 449.498C747.572 449.419 747.443 449.465 747.443 449.569V451.76C747.443 451.821 747.394 451.87 747.332 451.87H745.66C745.598 451.87 745.549 451.821 745.549 451.76V446.247C745.549 446.185 745.598 446.137 745.66 446.137H747.095C747.128 446.137 747.159 446.152 747.179 446.176L749.14 448.508C749.207 448.587 749.335 448.541 749.335 448.437V446.247C749.335 446.185 749.384 446.137 749.446 446.137H751.119C751.179 446.137 751.23 446.187 751.23 446.247Z" fill="white"/>
<path d="M756.49 448.848H757.957C758.019 448.848 758.068 448.896 758.068 448.958V451.213C758.068 451.25 758.05 451.285 758.019 451.305C757.691 451.524 757.311 451.693 756.883 451.813C756.433 451.938 755.991 452 755.557 452C754.942 452 754.39 451.872 753.902 451.618C753.414 451.365 753.03 451.01 752.753 450.553C752.475 450.096 752.338 449.58 752.338 449C752.338 448.422 752.475 447.904 752.753 447.447C753.03 446.99 753.416 446.635 753.915 446.382C754.412 446.128 754.973 446 755.599 446C756.164 446 756.67 446.095 757.118 446.282C757.531 446.457 757.879 446.701 758.163 447.021C758.203 447.068 758.198 447.138 758.152 447.178L757.072 448.124C757.027 448.164 756.958 448.157 756.919 448.115C756.573 447.749 756.164 447.566 755.699 447.566C755.27 447.566 754.929 447.694 754.678 447.952C754.425 448.208 754.299 448.559 754.299 449C754.299 449.432 754.423 449.779 754.674 450.041C754.924 450.304 755.257 450.434 755.674 450.434C755.896 450.434 756.107 450.396 756.311 450.324C756.355 450.308 756.384 450.264 756.384 450.218V448.956C756.38 448.899 756.428 448.848 756.49 448.848Z" fill="white"/>
<path d="M737.38 454.275C737.777 454.457 738.085 454.72 738.299 455.063C738.515 455.407 738.622 455.806 738.622 456.263C738.622 456.72 738.515 457.119 738.299 457.463C738.082 457.806 737.777 458.067 737.38 458.251C736.982 458.434 736.516 458.526 735.981 458.526H735.255C735.193 458.526 735.144 458.577 735.144 458.641V459.885C735.144 459.949 735.095 460 735.032 460H733.301C733.239 460 733.189 459.949 733.189 459.885V454.115C733.189 454.051 733.239 454 733.301 454H735.981C736.516 454 736.982 454.092 737.38 454.275ZM736.451 456.78C736.583 456.657 736.65 456.484 736.65 456.261C736.65 456.037 736.583 455.866 736.451 455.742C736.32 455.619 736.119 455.557 735.856 455.557H735.255C735.193 455.557 735.144 455.608 735.144 455.672V456.847C735.144 456.911 735.193 456.962 735.255 456.962H735.856C736.121 456.964 736.32 456.902 736.451 456.78Z" fill="white"/>
<path d="M739.751 454H741.482C741.544 454 741.593 454.051 741.593 454.115V458.314C741.593 458.378 741.643 458.429 741.705 458.429H744.099C744.161 458.429 744.211 458.48 744.211 458.544V459.88C744.211 459.945 744.161 459.995 744.099 459.995H739.748C739.686 459.995 739.637 459.945 739.637 459.88V454.115C739.639 454.051 739.688 454 739.751 454Z" fill="white"/>
<path d="M749.133 454H747.357C747.312 454 747.272 454.028 747.254 454.069L744.818 459.834C744.786 459.91 744.84 459.995 744.92 459.995H746.661C746.707 459.995 746.748 459.965 746.765 459.922L747.127 458.95L747.665 457.495L748.124 456.265C748.16 456.166 748.296 456.166 748.332 456.265L748.791 457.495L749.329 458.95L749.69 459.922C749.706 459.965 749.748 459.995 749.795 459.995H751.569C751.649 459.995 751.703 459.91 751.672 459.834L749.235 454.069C749.217 454.028 749.177 454 749.133 454Z" fill="white"/>
<path d="M758.189 454.115V459.88C758.189 459.945 758.139 459.995 758.077 459.995H756.633C756.6 459.995 756.569 459.979 756.549 459.954L754.576 457.516C754.509 457.433 754.38 457.481 754.38 457.589V459.88C754.38 459.945 754.331 459.995 754.268 459.995H752.586C752.524 459.995 752.475 459.945 752.475 459.88V454.115C752.475 454.051 752.524 454 752.586 454H754.03C754.063 454 754.094 454.016 754.115 454.042L756.087 456.48C756.154 456.563 756.283 456.514 756.283 456.406V454.115C756.283 454.051 756.332 454 756.395 454H758.077C758.139 454 758.189 454.051 758.189 454.115Z" fill="white"/>
</g>
<g clip-path="url(#clip2_3412_38192)">
<path d="M155.156 39H927.862L1215.95 434H-132.932L155.156 39Z" fill="#4AB75C"/>
<path opacity="0.1" d="M501.645 46.8125H544.572L515.293 411.12H443.273L501.645 46.8125Z" fill="white"/>
<path opacity="0.1" d="M415.789 46.8125H458.716L371.252 411.12H299.232L415.789 46.8125Z" fill="white"/>
<path opacity="0.1" d="M759.949 46.8125H802.876L948.656 411.12H876.636L759.949 46.8125Z" fill="white"/>
<path opacity="0.1" d="M329.196 46.8125H372.123L225.971 411.12H153.951L329.196 46.8125Z" fill="white"/>
<path opacity="0.1" d="M673.354 46.8125H716.28L803.373 411.12H731.353L673.354 46.8125Z" fill="white"/>
<path opacity="0.1" d="M243.341 46.8125H286.267L81.9302 411.12H9.91016L243.341 46.8125Z" fill="white"/>
<path opacity="0.1" d="M587.498 46.8125H630.426L659.333 411.12H587.312L587.498 46.8125Z" fill="white"/>
<path d="M1164.72 411.12H1163.47H11.1519H9.91016L10.5311 410.151L243.12 47.1574L243.341 46.8125H244.081H930.917H931.657L931.877 47.1574L1164.1 410.151L1164.72 411.12ZM13.6289 409.184H1161L930.616 47.5027H244.381L13.6289 409.184Z" fill="white"/>
<path d="M23.2834 391.197H22.9783H22.8253H22.6722L21.4805 393.063H21.6344H21.7875H21.9405H22.0935C24.6862 393.013 27.255 393.451 29.5715 394.34C31.5391 395.126 33.1409 396.354 34.1587 397.858C35.2121 399.493 35.6719 401.313 35.4905 403.128C35.2681 405.402 34.4753 407.622 33.1552 409.668C33.0798 409.79 33.0031 409.912 32.9252 410.034C32.8473 410.156 32.7675 410.277 32.6859 410.398C32.6049 410.519 32.5224 410.64 32.4383 410.761C32.3542 410.881 32.2689 411.001 32.1823 411.121H34.6725C34.7578 411.001 34.8419 410.881 34.9248 410.76C35.0076 410.639 35.0889 410.519 35.1687 410.398C35.2491 410.277 35.3279 410.155 35.4052 410.034C35.4825 409.912 35.5585 409.79 35.6333 409.668C37.0981 407.39 37.9746 404.918 38.2153 402.387C38.4102 400.367 37.8914 398.344 36.7129 396.528C35.5755 394.857 33.7907 393.493 31.6008 392.621C29.0241 391.633 26.1674 391.144 23.2834 391.197V391.197Z" fill="white"/>
<path d="M239.012 54.1497H238.641L239.094 53.4432H239.187H239.465C241.288 53.4386 243.104 53.2763 244.879 52.9592C246.597 52.6565 248.268 52.2135 249.863 51.638C251.303 51.1268 252.649 50.4728 253.865 49.693C254.899 49.0456 255.744 48.2409 256.346 47.3304C256.372 47.2866 256.398 47.243 256.423 47.1997C256.447 47.1563 256.471 47.113 256.494 47.0697C256.517 47.0263 256.539 46.9832 256.559 46.9404C256.579 46.8975 256.599 46.8549 256.617 46.8125H258.101C258.082 46.8554 258.062 46.8982 258.041 46.9411C258.02 46.9839 257.998 47.027 257.975 47.0704C257.952 47.1137 257.928 47.157 257.904 47.2004C257.879 47.2437 257.853 47.2873 257.827 47.3311C257.159 48.3459 256.22 49.2431 255.07 49.965C253.716 50.8352 252.217 51.565 250.611 52.1354C248.831 52.7776 246.966 53.2715 245.047 53.6085C243.068 53.9626 241.044 54.1441 239.012 54.1497V54.1497Z" fill="white"/>
<path d="M589.796 411.12H587.312L587.499 46.8125H588.979L589.796 411.12Z" fill="white"/>
<path d="M238.042 292.343H236.964H87.0958H86.0176L86.4858 291.612L208.839 100.659L209.106 100.242H209.92H323.023H323.836L323.65 100.659L238.368 291.612L238.042 292.343ZM89.1055 290.882H236.541L321.834 101.077H210.201L89.1055 290.882Z" fill="white"/>
<path d="M174.093 229.135H173.102H127.509H126.518L126.913 228.517L181.621 143.137L181.928 142.658H182.8H222.916H223.788L223.513 143.137L174.448 228.517L174.093 229.135ZM129.287 227.901H172.824L221.491 143.617H183.06L129.287 227.901Z" fill="white"/>
<path d="M587.903 229.753C586.549 229.753 585.194 229.732 583.843 229.69C582.492 229.647 581.144 229.584 579.801 229.499C578.458 229.415 577.121 229.309 575.792 229.183C574.463 229.057 573.142 228.91 571.832 228.742C570.556 228.579 569.286 228.396 568.025 228.193C566.764 227.99 565.513 227.768 564.272 227.527C563.032 227.286 561.803 227.026 560.587 226.747C559.373 226.469 558.172 226.172 556.986 225.857C555.823 225.548 554.673 225.221 553.537 224.877C552.401 224.533 551.281 224.172 550.176 223.794C549.073 223.417 547.986 223.023 546.918 222.614C545.85 222.204 544.802 221.779 543.773 221.34C542.756 220.904 541.757 220.454 540.777 219.988C539.798 219.524 538.839 219.044 537.902 218.551C536.965 218.059 536.05 217.553 535.158 217.034C534.266 216.516 533.398 215.986 532.555 215.444C531.712 214.903 530.893 214.349 530.097 213.783C529.303 213.218 528.532 212.642 527.787 212.055C527.043 211.47 526.325 210.873 525.633 210.268C524.942 209.663 524.278 209.05 523.641 208.428C523 207.801 522.385 207.165 521.798 206.52C521.212 205.876 520.653 205.224 520.123 204.565C519.594 203.907 519.094 203.241 518.623 202.57C518.152 201.901 517.711 201.225 517.3 200.544C516.882 199.853 516.494 199.154 516.136 198.451C515.779 197.749 515.453 197.041 515.157 196.33C514.862 195.62 514.597 194.906 514.363 194.189C514.13 193.474 513.928 192.756 513.757 192.036C513.582 191.3 513.44 190.56 513.329 189.817C513.219 189.076 513.141 188.333 513.096 187.588C513.05 186.845 513.036 186.101 513.055 185.358C513.073 184.615 513.123 183.874 513.205 183.133C513.287 182.395 513.4 181.658 513.545 180.924C513.689 180.191 513.864 179.462 514.07 178.737C514.276 178.013 514.512 177.293 514.778 176.579C515.043 175.867 515.338 175.16 515.663 174.459C515.979 173.778 516.323 173.101 516.696 172.429C517.068 171.758 517.467 171.093 517.894 170.434C518.32 169.777 518.773 169.126 519.251 168.482C519.729 167.839 520.233 167.204 520.763 166.578C521.281 165.964 521.826 165.356 522.394 164.756C522.962 164.157 523.554 163.566 524.169 162.983C524.783 162.402 525.421 161.828 526.08 161.265C526.738 160.702 527.418 160.148 528.12 159.605C528.813 159.068 529.528 158.54 530.264 158.021C530.999 157.503 531.755 156.995 532.529 156.498C533.303 156.001 534.096 155.514 534.906 155.039C535.716 154.565 536.543 154.101 537.387 153.65C538.229 153.199 539.09 152.759 539.968 152.331C540.844 151.904 541.737 151.488 542.646 151.084C543.553 150.681 544.475 150.29 545.411 149.912C546.346 149.534 547.294 149.169 548.255 148.818C549.224 148.464 550.207 148.122 551.203 147.794C552.198 147.466 553.206 147.151 554.225 146.851C555.243 146.55 556.272 146.263 557.311 145.991C558.349 145.719 559.396 145.461 560.451 145.217C561.525 144.969 562.609 144.736 563.703 144.518C564.796 144.3 565.898 144.096 567.008 143.908C568.117 143.72 569.233 143.547 570.355 143.389C571.476 143.231 572.603 143.089 573.733 142.962C574.893 142.832 576.06 142.718 577.233 142.621C578.405 142.523 579.583 142.441 580.765 142.376C581.947 142.311 583.133 142.262 584.32 142.229C585.508 142.196 586.698 142.18 587.887 142.18C589.077 142.18 590.267 142.196 591.454 142.229C592.642 142.262 593.828 142.311 595.01 142.376C596.192 142.441 597.37 142.523 598.542 142.621C599.715 142.718 600.882 142.832 602.042 142.962C603.172 143.089 604.299 143.231 605.42 143.389C606.542 143.547 607.658 143.72 608.767 143.908C609.877 144.096 610.979 144.3 612.072 144.518C613.166 144.736 614.251 144.969 615.325 145.217C616.38 145.461 617.427 145.719 618.465 145.991C619.504 146.263 620.533 146.55 621.551 146.851C622.571 147.151 623.579 147.466 624.574 147.794C625.57 148.122 626.553 148.464 627.522 148.818C628.483 149.169 629.432 149.534 630.367 149.912C631.303 150.29 632.225 150.681 633.132 151.084C634.041 151.488 634.934 151.904 635.811 152.331C636.688 152.759 637.549 153.199 638.392 153.65C639.236 154.101 640.064 154.565 640.873 155.039C641.684 155.514 642.477 156.001 643.25 156.498C644.025 156.995 644.781 157.503 645.516 158.021C646.252 158.54 646.968 159.068 647.661 159.605C648.363 160.148 649.043 160.702 649.702 161.265C650.361 161.828 650.999 162.402 651.613 162.983C652.228 163.566 652.821 164.157 653.388 164.756C653.957 165.356 654.502 165.964 655.021 166.578C655.55 167.204 656.054 167.839 656.533 168.482C657.012 169.126 657.465 169.777 657.891 170.434C658.318 171.093 658.718 171.758 659.09 172.429C659.463 173.101 659.807 173.778 660.123 174.459C660.448 175.16 660.744 175.867 661.009 176.579C661.276 177.293 661.512 178.013 661.718 178.737C661.924 179.462 662.099 180.191 662.244 180.924C662.389 181.658 662.502 182.395 662.584 183.133C662.666 183.874 662.717 184.615 662.735 185.358C662.754 186.101 662.741 186.845 662.695 187.588C662.65 188.333 662.572 189.076 662.462 189.817C662.352 190.56 662.21 191.3 662.035 192.036C661.865 192.756 661.663 193.474 661.43 194.189C661.196 194.906 660.932 195.62 660.637 196.33C660.341 197.041 660.015 197.749 659.659 198.451C659.301 199.154 658.913 199.853 658.496 200.544C658.085 201.225 657.644 201.901 657.174 202.57C656.703 203.241 656.202 203.907 655.674 204.565C655.144 205.224 654.586 205.876 654 206.52C653.413 207.165 652.799 207.801 652.157 208.428C651.521 209.05 650.857 209.663 650.166 210.268C649.474 210.873 648.756 211.47 648.012 212.055C647.268 212.642 646.498 213.218 645.703 213.783C644.908 214.349 644.088 214.903 643.246 215.444C642.403 215.986 641.535 216.516 640.644 217.034C639.752 217.553 638.837 218.059 637.9 218.551C636.963 219.044 636.004 219.524 635.025 219.988C634.046 220.454 633.047 220.904 632.029 221.34C631.001 221.779 629.953 222.204 628.886 222.614C627.817 223.023 626.731 223.417 625.628 223.794C624.523 224.172 623.403 224.533 622.268 224.877C621.132 225.221 619.981 225.548 618.818 225.857C617.633 226.172 616.432 226.469 615.218 226.747C614.002 227.026 612.773 227.286 611.533 227.527C610.293 227.768 609.041 227.99 607.78 228.193C606.519 228.396 605.249 228.579 603.973 228.742C602.663 228.91 601.343 229.057 600.014 229.183C598.685 229.309 597.348 229.415 596.005 229.499C594.662 229.584 593.314 229.647 591.963 229.69C590.611 229.732 589.257 229.753 587.903 229.753ZM587.888 143.137C578.443 143.137 569.409 144.193 561.121 146.112C552.783 148.042 545.156 150.855 538.61 154.364C531.992 157.911 526.452 162.185 522.398 166.994C518.284 171.875 515.688 177.322 515.061 183.133C514.423 189.046 515.881 194.781 519.109 200.084C522.386 205.47 527.479 210.396 534.02 214.588C540.64 218.831 548.715 222.304 557.831 224.724C567.009 227.161 577.186 228.517 587.903 228.517C598.619 228.517 608.796 227.161 617.973 224.724C627.088 222.304 635.162 218.831 641.78 214.588C648.32 210.396 653.411 205.47 656.687 200.084C659.912 194.781 661.369 189.046 660.729 183.133C660.1 177.322 657.502 171.875 653.386 166.994C649.33 162.185 643.788 157.911 637.169 154.364C630.622 150.855 622.994 148.042 614.655 146.112C606.367 144.193 597.332 143.137 587.888 143.137Z" fill="white"/>
<path d="M269.865 221.088C275.904 218.944 281.698 216.42 287.185 213.541C292.368 210.83 297.214 207.764 301.662 204.38C305.779 201.258 309.437 197.805 312.574 194.081C315.459 190.665 317.724 186.967 319.308 183.089C320.722 179.646 321.385 176.05 321.269 172.444C321.149 169.224 320.269 166.046 318.672 163.063C317.095 160.161 314.873 157.487 312.103 155.159C309.188 152.719 305.812 150.623 302.087 148.941L301.553 150.135C305.058 151.796 308.221 153.844 310.938 156.211C313.529 158.478 315.594 161.064 317.046 163.858C318.523 166.738 319.32 169.794 319.401 172.885C319.474 176.344 318.817 179.789 317.454 183.089C315.93 186.798 313.767 190.336 311.021 193.611C308.039 197.175 304.564 200.485 300.657 203.484C296.442 206.73 291.851 209.679 286.94 212.295C281.74 215.074 276.25 217.522 270.524 219.616L269.865 221.088Z" fill="white"/>
<path d="M587.433 179.631C588.164 179.629 588.892 179.715 589.589 179.884C590.223 180.037 590.819 180.27 591.351 180.574C591.839 180.85 592.247 181.199 592.549 181.601C592.839 181.985 592.992 182.42 592.995 182.863C592.998 183.306 592.851 183.742 592.567 184.129C592.269 184.534 591.864 184.887 591.378 185.166C590.844 185.476 590.244 185.713 589.605 185.868C588.189 186.211 586.669 186.211 585.253 185.868C584.614 185.713 584.015 185.476 583.481 185.166C582.995 184.887 582.59 184.534 582.293 184.129C582.009 183.742 581.862 183.306 581.865 182.863C581.869 182.42 582.023 181.985 582.313 181.601C582.614 181.2 583.021 180.85 583.507 180.574C584.039 180.27 584.635 180.037 585.269 179.884C585.968 179.714 586.698 179.629 587.433 179.631V179.631Z" fill="white"/>
<path d="M244.075 179.631C244.763 179.624 245.448 179.71 246.098 179.884C246.633 180.026 247.116 180.263 247.508 180.574C247.859 180.859 248.092 181.216 248.178 181.601C248.262 182.028 248.192 182.464 247.978 182.863C247.729 183.334 247.363 183.763 246.901 184.129C246.394 184.535 245.815 184.884 245.18 185.167C244.511 185.468 243.794 185.704 243.047 185.868C242.298 186.036 241.521 186.123 240.74 186.126C240.045 186.133 239.354 186.046 238.699 185.868C238.162 185.724 237.677 185.483 237.287 185.167C236.938 184.878 236.71 184.517 236.63 184.129C236.554 183.699 236.63 183.262 236.852 182.863C237.108 182.393 237.48 181.965 237.947 181.601C238.456 181.199 239.036 180.854 239.671 180.574C240.336 180.278 241.048 180.046 241.789 179.884C242.532 179.72 243.301 179.634 244.075 179.631V179.631Z" fill="white"/>
<path opacity="0.2" d="M715.494 46.998L731.133 112H203.311L244.132 46.998H715.494Z" fill="white"/>
<path opacity="0.2" d="M767.625 264L802.148 409.875L12.459 410.875L105.566 264H767.625Z" fill="white"/>
<path d="M145.323 168.717L145.016 199.213H89.0039L98.2572 148.659L117.669 119.703L164.73 117L165.239 167.963L145.323 168.717Z" fill="white" fill-opacity="0.42"/>
<path d="M98.2572 148.659H145.525M98.2572 148.659L89.0039 199.213M98.2572 148.659L117.669 119.703M145.525 148.659L145.016 199.213H89.0039M145.525 148.659L164.73 117M89.0039 199.213L114.25 169.893M117.669 119.703L164.73 117M117.669 119.703L114.25 169.893M164.73 117L165.239 167.963L114.25 169.893" stroke="#DBDEE7"/>
<path d="M144.73 198.827L146.034 148.659L165.515 117.387V167.191" stroke="url(#paint1_linear_3412_38192)" stroke-width="3" stroke-linecap="round" stroke-linejoin="round"/>
<path d="M786.812 318.956L787.01 341.002H821.057C821.057 341.002 818.097 330.259 813.715 318.956C812.413 315.598 810.986 312.19 809.473 309C798.25 283.002 781.012 283.002 781.012 283.002L780.655 318.956H786.812Z" fill="white" fill-opacity="0.42"/>
<path d="M809.473 309C803.463 301 786.653 301.337 786.653 301.337M809.473 309C816.077 322.928 821.057 341.002 821.057 341.002M809.473 309C798.249 283.002 781.012 283.002 781.012 283.002M786.653 301.337L787.01 341.002H821.057M786.653 301.337L781.012 283.002M821.057 341.002L813.715 318.956H780.655L781.012 283.002" stroke="#DBDEE7"/>
<path d="M787.172 341V302.272L780.656 283V318.47" stroke="url(#paint2_linear_3412_38192)" stroke-width="2" stroke-linecap="round" stroke-linejoin="round"/>
<path d="M727.94 75.2763L728.091 92.0005H753.918C753.918 92.0005 751.673 83.8511 748.349 75.2763C747.361 72.7289 746.278 70.1439 745.131 67.7239C736.617 48.002 723.541 48.002 723.541 48.002L723.27 75.2763H727.94Z" fill="white" fill-opacity="0.42"/>
<path d="M745.131 67.7239C740.571 61.6552 727.82 61.9107 727.82 61.9107M745.131 67.7239C750.141 78.2897 753.918 92.0005 753.918 92.0005M745.131 67.7239C736.617 48.002 723.541 48.002 723.541 48.002M727.82 61.9107L728.091 92.0005H753.918M727.82 61.9107L723.541 48.002M753.918 92.0005L748.349 75.2763H723.27L723.541 48.002" stroke="#DBDEE7"/>
<path d="M728.213 91.9985V62.6194L723.27 48V74.9072" stroke="url(#paint3_linear_3412_38192)" stroke-width="2" stroke-linecap="round" stroke-linejoin="round"/>
</g>
</g>
<defs>
<linearGradient id="paint0_linear_3412_38192" x1="203.79" y1="30.3939" x2="308.416" y2="496.806" gradientUnits="userSpaceOnUse">
<stop stop-color="#289B9C"/>
<stop offset="1" stop-color="#2B74E1"/>
</linearGradient>
<linearGradient id="paint1_linear_3412_38192" x1="188.461" y1="139.393" x2="127.407" y2="142.078" gradientUnits="userSpaceOnUse">
<stop offset="0.507001" stop-color="#E0E0E0"/>
<stop offset="0.553734" stop-color="white"/>
<stop offset="0.72473" stop-color="#E0E0E0"/>
<stop offset="0.827517" stop-color="white"/>
</linearGradient>
<linearGradient id="paint2_linear_3412_38192" x1="772.836" y1="271" x2="784.129" y2="347.128" gradientUnits="userSpaceOnUse">
<stop stop-color="#E0E0E0"/>
<stop offset="0.404034" stop-color="white"/>
<stop offset="0.795193" stop-color="#E0E0E0"/>
<stop offset="1" stop-color="white"/>
</linearGradient>
<linearGradient id="paint3_linear_3412_38192" x1="717.338" y1="38.8969" x2="725.905" y2="96.6472" gradientUnits="userSpaceOnUse">
<stop stop-color="#E0E0E0"/>
<stop offset="0.404034" stop-color="white"/>
<stop offset="0.795193" stop-color="#E0E0E0"/>
<stop offset="1" stop-color="white"/>
</linearGradient>
<clipPath id="clip0_3412_38192">
<path d="M0 9.99999C0 4.47714 4.47715 0 10 0H828C833.523 0 838 4.47715 838 10V462C838 467.523 833.523 472 828 472H9.99998C4.47713 472 0 467.523 0 462V9.99999Z" fill="white"/>
</clipPath>
<clipPath id="clip1_3412_38192">
<rect width="89.9254" height="22" fill="white" transform="translate(714.189 442)"/>
</clipPath>
<clipPath id="clip2_3412_38192">
<rect width="1256.35" height="395" fill="white" transform="translate(-40.4004 39)"/>
</clipPath>
</defs>
</svg>
