<svg width="838" height="472" viewBox="0 0 838 472" fill="none" xmlns="http://www.w3.org/2000/svg">
<g clip-path="url(#clip0_3412_38191)">
<path d="M0 9.99999C0 4.47714 4.47715 0 10 0H828C833.523 0 838 4.47715 838 10V462C838 467.523 833.523 472 828 472H9.99998C4.47713 472 0 467.523 0 462V9.99999Z" fill="url(#paint0_linear_3412_38191)"/>
<g clip-path="url(#clip1_3412_38191)">
<path d="M66.7599 39H771.035L943.564 434H-104.262L66.7599 39Z" fill="#4AB75C"/>
<path d="M2.02342 411.068L137.999 47.3027H698.799L835.973 411.068H2.02342Z" fill="#4AB75C" stroke="white"/>
<path d="M700.561 54.1497H700.83L700.501 53.4432H700.434H700.232C698.911 53.4386 697.594 53.2763 696.307 52.9592C695.061 52.6565 693.849 52.2135 692.693 51.638C691.648 51.1268 690.673 50.4728 689.791 49.693C689.041 49.0456 688.429 48.2409 687.992 47.3304C687.973 47.2866 687.954 47.243 687.936 47.1997C687.918 47.1563 687.901 47.113 687.885 47.0697C687.868 47.0263 687.852 46.9832 687.837 46.9404C687.823 46.8975 687.809 46.8549 687.795 46.8125H686.719C686.733 46.8554 686.748 46.8982 686.763 46.9411C686.778 46.9839 686.794 47.027 686.811 47.0704C686.827 47.1137 686.844 47.157 686.862 47.2004C686.88 47.2437 686.899 47.2873 686.918 47.3311C687.402 48.3459 688.083 49.2431 688.917 49.965C689.899 50.8352 690.986 51.565 692.15 52.1354C693.441 52.7776 694.794 53.2715 696.185 53.6085C697.62 53.9626 699.088 54.1441 700.561 54.1497V54.1497Z" fill="white"/>
<path d="M135.808 54.1497H135.539L135.868 53.4432H135.935H136.137C137.459 53.4386 138.776 53.2763 140.062 52.9592C141.309 52.6565 142.52 52.2135 143.676 51.638C144.721 51.1268 145.697 50.4728 146.578 49.693C147.328 49.0456 147.941 48.2409 148.377 47.3304C148.396 47.2866 148.415 47.243 148.433 47.1997C148.451 47.1563 148.468 47.113 148.485 47.0697C148.501 47.0263 148.517 46.9832 148.532 46.9404C148.546 46.8975 148.561 46.8549 148.574 46.8125H149.65C149.636 46.8554 149.622 46.8982 149.606 46.9411C149.591 46.9839 149.575 47.027 149.559 47.0704C149.542 47.1137 149.525 47.157 149.507 47.2004C149.489 47.2437 149.47 47.2873 149.451 47.3311C148.967 48.3459 148.286 49.2431 147.452 49.965C146.47 50.8352 145.383 51.565 144.219 52.1354C142.928 52.7776 141.576 53.2715 140.184 53.6085C138.75 53.9626 137.282 54.1441 135.808 54.1497V54.1497Z" fill="white"/>
<path d="M8.40555 396.003H8.14493H8.01423H7.88352L6.8672 397.403H6.9987H7.13019H7.2609H7.39081C9.60664 397.367 11.8016 397.699 13.7803 398.369C15.4603 398.961 16.8283 399.885 17.6982 401.017C18.5993 402.247 18.9937 403.617 18.8405 404.984C18.6526 406.695 17.9773 408.366 16.8514 409.906C16.787 409.998 16.7215 410.09 16.655 410.182C16.5884 410.273 16.5206 410.365 16.4514 410.456C16.3822 410.547 16.3117 410.638 16.2399 410.729C16.1681 410.82 16.0952 410.91 16.0213 411H18.1521C18.225 410.91 18.2968 410.819 18.3676 410.728C18.4384 410.637 18.5078 410.547 18.5759 410.455C18.6441 410.364 18.7114 410.273 18.7779 410.182C18.8445 410.09 18.9094 409.998 18.9728 409.907C20.2212 408.191 20.9669 406.33 21.1694 404.426C21.3346 402.905 20.8904 401.382 19.883 400.015C18.9097 398.758 17.3841 397.731 15.5127 397.075C13.3109 396.331 10.8698 395.963 8.40555 396.003V396.003Z" fill="white"/>
<path d="M829.944 396.003H830.205H830.335H830.466L831.482 397.403H831.351H831.219H831.089H830.959C828.743 397.367 826.548 397.699 824.569 398.369C822.889 398.961 821.521 399.885 820.651 401.017C819.75 402.247 819.356 403.617 819.509 404.984C819.697 406.695 820.372 408.366 821.498 409.906C821.563 409.998 821.628 410.09 821.695 410.182C821.761 410.273 821.829 410.365 821.898 410.456C821.967 410.547 822.038 410.638 822.11 410.729C822.182 410.82 822.254 410.91 822.328 411H820.197C820.125 410.91 820.053 410.819 819.982 410.728C819.911 410.637 819.842 410.547 819.774 410.455C819.706 410.364 819.638 410.273 819.572 410.182C819.505 410.09 819.44 409.998 819.377 409.907C818.128 408.191 817.383 406.33 817.18 404.426C817.015 402.905 817.459 401.382 818.467 400.015C819.44 398.758 820.966 397.731 822.837 397.075C825.039 396.331 827.48 395.963 829.944 396.003V396.003Z" fill="white"/>
<path opacity="0.1" d="M356.906 46.8125H387.854L366.745 411.12H314.822L356.906 46.8125Z" fill="white"/>
<path opacity="0.1" d="M289.795 46.8125H323.349L262.898 411.12H210.975L289.795 46.8125Z" fill="white"/>
<path opacity="0.1" d="M218.242 46.8125H253.1L158.158 411.12H106.234L218.242 46.8125Z" fill="white"/>
<path opacity="0.1" d="M139.402 46.8125H179.473L54.3099 411.12H2.38672L139.402 46.8125Z" fill="white"/>
<path opacity="0.1" d="M514.459 46.8125H480.904L541.356 411.12H593.279L514.459 46.8125Z" fill="white"/>
<path opacity="0.1" d="M586.014 46.8125H551.155L646.098 411.12H698.021L586.014 46.8125Z" fill="white"/>
<path opacity="0.1" d="M664.852 46.8125H624.781L749.944 411.12H801.867L664.852 46.8125Z" fill="white"/>
<path opacity="0.1" d="M418.802 46.8125H449.751L470.591 411.12H418.668L418.802 46.8125Z" fill="white"/>
<path d="M514.791 45H696.541L839.304 411H578.109L514.791 45Z" fill="#EBFF00" fill-opacity="0.25"/>
<path opacity="0.2" d="M140.113 45H327.121L263.879 411H2.60742L140.113 45Z" fill="white"/>
</g>
<path d="M420.469 411.307H418.668L418.803 47H419.876L420.469 411.307Z" fill="white"/>
<path d="M419.007 231.188C418.028 231.188 417.05 231.172 416.073 231.14C415.097 231.109 414.123 231.062 413.152 230.999C412.182 230.936 411.216 230.858 410.256 230.764C409.295 230.67 408.341 230.561 407.395 230.437C406.472 230.316 405.555 230.18 404.643 230.029C403.732 229.879 402.828 229.714 401.931 229.535C401.035 229.356 400.147 229.163 399.269 228.956C398.391 228.75 397.523 228.529 396.667 228.296C395.826 228.066 394.995 227.824 394.174 227.568C393.354 227.313 392.544 227.045 391.746 226.765C390.948 226.484 390.163 226.192 389.391 225.888C388.62 225.584 387.862 225.269 387.119 224.943C386.384 224.62 385.662 224.285 384.954 223.94C384.247 223.595 383.554 223.239 382.876 222.873C382.199 222.507 381.538 222.132 380.893 221.747C380.249 221.363 379.622 220.969 379.012 220.567C378.404 220.165 377.811 219.754 377.236 219.334C376.662 218.915 376.106 218.487 375.567 218.051C375.03 217.617 374.511 217.174 374.011 216.725C373.511 216.276 373.031 215.821 372.571 215.359C372.108 214.894 371.664 214.421 371.239 213.943C370.816 213.465 370.412 212.981 370.029 212.492C369.647 212.003 369.286 211.51 368.945 211.011C368.605 210.514 368.286 210.013 367.989 209.508C367.687 208.994 367.407 208.476 367.148 207.954C366.891 207.433 366.655 206.907 366.441 206.379C366.227 205.852 366.036 205.322 365.867 204.79C365.699 204.259 365.553 203.727 365.429 203.193C365.303 202.646 365.2 202.097 365.12 201.545C365.041 200.995 364.984 200.444 364.951 199.891C364.918 199.34 364.908 198.787 364.922 198.235C364.935 197.685 364.971 197.134 365.03 196.585C365.089 196.036 365.171 195.489 365.276 194.944C365.38 194.401 365.507 193.859 365.656 193.321C365.804 192.784 365.974 192.25 366.167 191.72C366.358 191.191 366.572 190.666 366.806 190.146C367.034 189.641 367.284 189.138 367.553 188.639C367.821 188.142 368.11 187.648 368.419 187.159C368.726 186.671 369.053 186.188 369.399 185.71C369.745 185.233 370.109 184.761 370.492 184.296C370.866 183.841 371.26 183.39 371.671 182.945C372.081 182.5 372.508 182.061 372.953 181.629C373.397 181.197 373.857 180.771 374.334 180.353C374.809 179.935 375.301 179.524 375.808 179.121C376.309 178.722 376.826 178.33 377.357 177.945C377.888 177.561 378.434 177.184 378.994 176.815C379.553 176.446 380.126 176.085 380.712 175.732C381.296 175.38 381.894 175.036 382.504 174.701C383.113 174.367 383.735 174.04 384.369 173.722C385.002 173.405 385.648 173.096 386.304 172.797C386.96 172.498 387.626 172.207 388.302 171.927C388.978 171.646 389.663 171.376 390.357 171.115C391.057 170.852 391.768 170.598 392.488 170.355C393.207 170.111 393.935 169.878 394.671 169.654C395.407 169.431 396.151 169.219 396.901 169.016C397.651 168.814 398.408 168.623 399.17 168.442C399.946 168.258 400.73 168.085 401.52 167.923C402.31 167.761 403.107 167.61 403.908 167.47C404.71 167.331 405.516 167.202 406.327 167.085C407.137 166.968 407.951 166.862 408.768 166.768C409.606 166.672 410.449 166.587 411.297 166.515C412.144 166.442 412.995 166.382 413.849 166.333C414.703 166.285 415.56 166.248 416.418 166.224C417.277 166.2 418.136 166.188 418.996 166.188C419.856 166.188 420.715 166.2 421.573 166.224C422.432 166.248 423.289 166.285 424.143 166.333C424.997 166.382 425.848 166.442 426.695 166.515C427.543 166.587 428.386 166.672 429.224 166.768C430.041 166.862 430.855 166.968 431.665 167.085C432.476 167.202 433.283 167.331 434.084 167.47C434.886 167.61 435.682 167.761 436.472 167.923C437.262 168.085 438.046 168.258 438.822 168.442C439.585 168.623 440.342 168.814 441.092 169.016C441.842 169.219 442.586 169.431 443.322 169.654C444.058 169.878 444.786 170.111 445.506 170.355C446.225 170.598 446.936 170.852 447.636 171.115C448.33 171.376 449.016 171.646 449.691 171.927C450.368 172.207 451.034 172.498 451.69 172.797C452.346 173.096 452.992 173.405 453.625 173.722C454.26 174.04 454.882 174.367 455.491 174.701C456.101 175.036 456.699 175.38 457.284 175.732C457.869 176.085 458.442 176.446 459.001 176.815C459.561 177.184 460.107 177.561 460.638 177.945C461.17 178.33 461.688 178.722 462.189 179.121C462.696 179.524 463.187 179.935 463.663 180.353C464.14 180.771 464.6 181.197 465.044 181.629C465.489 182.061 465.917 182.5 466.327 182.945C466.738 183.39 467.132 183.841 467.507 184.296C467.889 184.761 468.254 185.233 468.599 185.71C468.945 186.188 469.273 186.671 469.581 187.159C469.889 187.648 470.178 188.142 470.447 188.639C470.716 189.138 470.965 189.641 471.194 190.146C471.429 190.666 471.642 191.191 471.834 191.72C472.026 192.25 472.197 192.784 472.346 193.321C472.495 193.859 472.622 194.401 472.726 194.944C472.831 195.489 472.913 196.036 472.972 196.585C473.031 197.134 473.068 197.685 473.081 198.235C473.095 198.787 473.085 199.34 473.052 199.891C473.019 200.444 472.963 200.995 472.884 201.545C472.804 202.097 472.702 202.646 472.575 203.193C472.452 203.727 472.306 204.259 472.138 204.79C471.969 205.322 471.778 205.852 471.565 206.379C471.351 206.907 471.116 207.433 470.858 207.954C470.6 208.476 470.319 208.994 470.018 209.508C469.721 210.013 469.402 210.514 469.062 211.011C468.722 211.51 468.36 212.003 467.978 212.492C467.596 212.981 467.192 213.465 466.769 213.943C466.345 214.421 465.901 214.894 465.437 215.359C464.978 215.821 464.498 216.276 463.999 216.725C463.499 217.174 462.98 217.617 462.442 218.051C461.904 218.487 461.348 218.915 460.774 219.334C460.199 219.754 459.607 220.165 458.998 220.567C458.389 220.969 457.762 221.363 457.118 221.747C456.473 222.132 455.812 222.507 455.135 222.873C454.458 223.239 453.765 223.595 453.058 223.94C452.35 224.285 451.628 224.62 450.893 224.943C450.15 225.269 449.392 225.584 448.621 225.888C447.849 226.192 447.064 226.484 446.267 226.765C445.469 227.045 444.659 227.313 443.839 227.568C443.018 227.824 442.187 228.066 441.347 228.296C440.49 228.529 439.622 228.75 438.745 228.956C437.866 229.163 436.978 229.356 436.083 229.535C435.186 229.714 434.281 229.879 433.371 230.029C432.459 230.18 431.542 230.316 430.619 230.437C429.673 230.561 428.719 230.67 427.759 230.764C426.798 230.858 425.832 230.936 424.862 230.999C423.891 231.062 422.917 231.109 421.941 231.14C420.964 231.172 419.986 231.188 419.007 231.188ZM418.996 166.898C412.172 166.898 405.643 167.682 399.654 169.106C393.63 170.539 388.118 172.627 383.388 175.231C378.606 177.864 374.602 181.036 371.673 184.606C368.7 188.228 366.824 192.272 366.371 196.585C365.91 200.973 366.964 205.23 369.296 209.166C371.665 213.164 375.344 216.82 380.071 219.931C384.855 223.081 390.69 225.658 397.277 227.455C403.909 229.264 411.263 230.27 419.007 230.27C426.751 230.27 434.105 229.264 440.736 227.455C447.322 225.658 453.156 223.081 457.939 219.931C462.665 216.82 466.344 213.164 468.711 209.166C471.041 205.23 472.094 200.973 471.631 196.585C471.177 192.272 469.299 188.228 466.325 184.606C463.395 181.036 459.39 177.864 454.607 175.231C449.876 172.627 444.364 170.539 438.338 169.106C432.349 167.682 425.821 166.898 418.996 166.898Z" fill="white"/>
<path d="M419.423 194.355C419.954 194.354 420.482 194.439 420.988 194.608C421.449 194.761 421.883 194.995 422.269 195.3C422.623 195.577 422.919 195.927 423.138 196.329C423.349 196.714 423.461 197.149 423.463 197.593C423.466 198.036 423.359 198.473 423.154 198.861C422.938 199.266 422.644 199.62 422.292 199.9C421.904 200.21 421.469 200.447 421.006 200.603C419.978 200.947 418.873 200.947 417.845 200.603C417.381 200.447 416.946 200.21 416.559 199.9C416.206 199.62 415.913 199.266 415.698 198.861C415.492 198.474 415.385 198.037 415.387 197.593C415.389 197.149 415.501 196.714 415.711 196.329C415.93 195.927 416.226 195.577 416.58 195.3C416.966 194.996 417.398 194.762 417.858 194.608C418.364 194.439 418.892 194.354 419.423 194.355V194.355Z" fill="white"/>
<path d="M137.603 306.1H136.821H41.1841H40.4023L40.7419 305.37L112.518 114.417L112.712 114H113.302H195.313H195.903L195.768 114.417L137.84 305.37L137.603 306.1ZM42.6414 304.64H136.515L194.451 114.834H113.506L42.6414 304.64Z" fill="white"/>
<path d="M99.0539 242.893H98.3352H65.2753H64.5566L64.8436 242.275L96.6927 156.895L96.9152 156.416H97.5475H126.636H127.268L127.069 156.895L99.3112 242.275L99.0539 242.893ZM66.565 241.659H98.1332L125.602 157.375H97.7365L66.565 241.659Z" fill="white"/>
<path d="M159 233.5C163.379 231.356 165.348 230.178 169.327 227.299C173.084 224.588 176.598 221.521 179.824 218.137C182.809 215.016 185.462 211.563 187.736 207.839C189.828 204.423 191.47 200.725 192.618 196.847C193.644 193.404 194.125 189.808 194.041 186.201C193.954 182.981 193.316 179.804 192.158 176.821C191.014 173.918 189.402 171.244 187.394 168.917C185.28 166.477 182.833 164.381 180.132 162.699L179.745 163.893C182.286 165.554 184.58 167.601 186.55 169.969C188.428 172.235 189.926 174.821 190.979 177.616C192.049 180.496 192.627 183.552 192.686 186.643C192.739 190.102 192.263 193.547 191.274 196.847C190.17 200.555 188.601 204.094 186.61 207.369C184.448 210.933 181.928 214.243 179.095 217.242C176.038 220.488 172.709 223.437 169.148 226.053C165.378 228.832 163.152 230.406 159 232.5V233.5Z" fill="white"/>
<path d="M138.539 193.926C139.04 193.919 139.538 194.005 140.01 194.179C140.399 194.321 140.75 194.559 141.034 194.871C141.289 195.156 141.459 195.514 141.521 195.9C141.582 196.327 141.533 196.763 141.377 197.163C141.197 197.636 140.932 198.068 140.597 198.435C140.229 198.842 139.809 199.191 139.348 199.474C138.863 199.776 138.343 200.012 137.802 200.177C137.258 200.345 136.694 200.431 136.127 200.435C135.622 200.442 135.12 200.355 134.644 200.177C134.252 200.031 133.9 199.789 133.616 199.471C133.363 199.182 133.197 198.82 133.139 198.432C133.082 198 133.138 197.561 133.299 197.16C133.485 196.691 133.755 196.263 134.094 195.9C134.462 195.497 134.883 195.151 135.343 194.871C135.826 194.574 136.342 194.341 136.88 194.179C137.42 194.014 137.978 193.929 138.539 193.926V193.926Z" fill="white"/>
<path d="M699.508 306.1H700.29H795.927H796.709L796.369 305.37L724.593 114.417L724.399 114H723.809H641.798H641.208L641.343 114.417L699.272 305.37L699.508 306.1ZM794.47 304.64H700.596L642.66 114.834H723.605L794.47 304.64Z" fill="white"/>
<path d="M738.057 242.893H738.776H771.836H772.555L772.268 242.275L740.419 156.895L740.196 156.416H739.564H710.475H709.843L710.042 156.895L737.8 242.275L738.057 242.893ZM770.546 241.659H738.978L711.509 157.375H739.375L770.546 241.659Z" fill="white"/>
<path d="M678.111 233.5C673.732 231.356 671.764 230.178 667.785 227.299C664.027 224.588 660.513 221.521 657.288 218.137C654.303 215.016 651.65 211.563 649.375 207.839C647.283 204.423 645.641 200.725 644.493 196.847C643.467 193.404 642.987 189.808 643.071 186.201C643.158 182.981 643.795 179.804 644.954 176.821C646.098 173.918 647.709 171.244 649.718 168.917C651.831 166.477 654.279 164.381 656.98 162.699L657.367 163.893C654.825 165.554 652.532 167.601 650.562 169.969C648.683 172.235 647.185 174.821 646.132 177.616C645.062 180.496 644.484 183.552 644.425 186.643C644.372 190.102 644.849 193.547 645.837 196.847C646.942 200.555 648.51 204.094 650.502 207.369C652.664 210.933 655.183 214.243 658.017 217.242C661.073 220.488 664.402 223.437 667.963 226.053C671.733 228.832 673.959 230.406 678.111 232.5V233.5Z" fill="white"/>
<path d="M698.572 193.926C698.071 193.919 697.573 194.005 697.101 194.179C696.713 194.321 696.362 194.559 696.077 194.871C695.822 195.156 695.653 195.514 695.59 195.9C695.529 196.327 695.579 196.763 695.734 197.163C695.914 197.636 696.179 198.068 696.515 198.435C696.882 198.842 697.302 199.191 697.763 199.474C698.248 199.776 698.768 200.012 699.31 200.177C699.854 200.345 700.417 200.431 700.984 200.435C701.489 200.442 701.992 200.355 702.468 200.177C702.859 200.031 703.212 199.789 703.495 199.471C703.749 199.182 703.915 198.82 703.973 198.432C704.029 198 703.974 197.561 703.813 197.16C703.626 196.691 703.356 196.263 703.018 195.9C702.649 195.497 702.228 195.151 701.768 194.871C701.285 194.574 700.769 194.341 700.231 194.179C699.692 194.014 699.133 193.929 698.572 193.926V193.926Z" fill="white"/>
<path d="M763.053 185.076L763.363 216.198H819.375L810.122 165.038L790.71 135.735L751.469 133L750.96 184.574L763.053 185.076Z" fill="white" fill-opacity="0.42"/>
<path d="M810.122 165.038H762.854M810.122 165.038L819.375 216.198M810.122 165.038L790.71 135.735M762.854 165.038L763.363 216.198H819.375M762.854 165.038L751.469 133M819.375 216.198L798.039 186.527M790.71 135.735L751.469 133M790.71 135.735L798.039 186.527M751.469 133L750.96 184.574L798.039 186.527" stroke="#DBDEE7"/>
<path d="M762.344 215.807V165.038L750.682 133.391V183.792" stroke="url(#paint1_linear_3412_38191)" stroke-width="3" stroke-linecap="round" stroke-linejoin="round"/>
<path d="M72.3432 185.076L72.0334 216.198H16.0215L25.2748 165.038L44.687 135.735L83.9276 133L84.4368 184.574L72.3432 185.076Z" fill="white" fill-opacity="0.42"/>
<path d="M25.2748 165.038H72.5426M25.2748 165.038L16.0215 216.198M25.2748 165.038L44.687 135.735M72.5426 165.038L72.0334 216.198H16.0215M72.5426 165.038L83.9276 133M16.0215 216.198L37.3578 186.527M44.687 135.735L83.9276 133M44.687 135.735L37.3578 186.527M83.9276 133L84.4368 184.574L37.3578 186.527" stroke="#DBDEE7"/>
<path d="M73.0527 215.807V165.038L84.7142 133.391V183.792" stroke="url(#paint2_linear_3412_38191)" stroke-width="3" stroke-linecap="round" stroke-linejoin="round"/>
<g opacity="0.5" clip-path="url(#clip2_3412_38191)">
<path d="M775.294 458.05L782.779 450.567L782.838 450.501L782.895 450.433L782.948 450.363L782.994 450.286L783.036 450.204L783.073 450.123L783.104 450.037L783.132 449.951L783.152 449.863L783.17 449.775L783.181 449.597V444.749L783.178 444.617L783.167 444.488L783.154 444.358L783.132 444.228L783.106 444.098L783.071 443.973L783.031 443.85L782.985 443.724L782.935 443.608L782.878 443.489L782.814 443.373L782.746 443.26L782.676 443.153L782.594 443.049L782.511 442.948L782.423 442.851L782.329 442.759L782.232 442.671L782.131 442.587L782.025 442.508L781.918 442.438L781.806 442.37L781.689 442.306L781.571 442.249L781.452 442.198L781.327 442.152L781.204 442.112L781.077 442.077L780.947 442.048L780.817 442.026L780.688 442.013L780.558 442.002L780.431 442H775.584L775.496 442.002L775.406 442.011L775.318 442.029L775.23 442.046L775.145 442.075L775.059 442.106L774.975 442.145L774.896 442.187L774.819 442.233L774.749 442.286L774.681 442.343L774.615 442.405L767.135 449.892L767.805 450.561C767.914 450.671 767.838 450.862 767.679 450.862H764.218V447.396C764.218 447.239 764.407 447.16 764.519 447.27L765.189 447.943L769.957 443.172L770.001 443.126L770.04 443.073L770.073 443.023L770.1 442.966L770.122 442.906L770.139 442.847L770.15 442.785L770.155 442.721V442.655L770.15 442.592L770.139 442.532L770.122 442.471L770.1 442.411L770.071 442.352L770.038 442.299L769.999 442.246L769.955 442.2L769.909 442.158L769.858 442.119L769.803 442.086L769.746 442.055L769.689 442.033L769.628 442.015L769.564 442.002L769.469 442H768.499H763.939L763.807 442.002L763.678 442.013L763.548 442.026L763.419 442.048L763.289 442.077L763.164 442.112L763.039 442.152L762.916 442.198L762.797 442.249L762.679 442.306L762.562 442.37L762.45 442.438L762.342 442.508L762.237 442.587L762.136 442.671L762.039 442.759L761.947 442.851L761.859 442.948L761.776 443.049L761.697 443.153L761.624 443.26L761.556 443.373L761.493 443.489L761.435 443.608L761.385 443.724L761.337 443.85L761.299 443.973L761.264 444.098L761.238 444.228L761.216 444.358L761.203 444.488L761.192 444.617L761.189 444.749V458.343L761.192 458.433L761.2 458.523L761.218 458.611L761.238 458.699L761.264 458.783L761.295 458.868L761.334 458.952L761.376 459.029L761.424 459.106L761.475 459.181L761.532 459.249L761.591 459.315L761.657 459.374L761.73 459.432L761.802 459.482L761.879 459.528L761.958 459.572L762.042 459.607L762.125 459.64L762.213 459.665L762.299 459.687L762.389 459.7L762.476 459.709L762.567 459.711L762.657 459.709L762.744 459.7L762.834 459.687L762.92 459.665L763.008 459.64L763.091 459.607L763.175 459.572L763.254 459.528L763.331 459.482L763.401 459.432L763.474 459.374L763.539 459.315L773.934 448.913L773.458 448.434C773.348 448.324 773.425 448.135 773.583 448.135H777.046V451.599C777.046 451.755 776.858 451.834 776.748 451.724L776.269 451.247L765.872 461.646L765.81 461.712L765.753 461.783L765.701 461.855L765.654 461.932L765.611 462.012L765.575 462.095L765.542 462.179L765.518 462.267L765.496 462.35L765.483 462.443L765.474 462.531L765.472 462.623L765.474 462.713L765.483 462.801L765.496 462.891L765.518 462.977L765.542 463.065L765.575 463.149L765.611 463.23L765.654 463.312L765.701 463.389L765.753 463.459L765.81 463.531L765.872 463.597L765.938 463.657L766.006 463.714L766.081 463.767L766.157 463.813L766.234 463.855L766.318 463.894L766.403 463.925L766.489 463.952L766.577 463.971L766.665 463.989L766.753 463.993L766.772 463.998L766.847 464H780.435L780.567 463.998L780.697 463.987L780.826 463.974L780.956 463.952L781.085 463.925L781.213 463.89L781.336 463.853L781.461 463.806L781.58 463.756L781.698 463.699L781.815 463.635L781.927 463.567L782.034 463.496L782.14 463.415L782.241 463.334L782.337 463.246L782.432 463.153L782.52 463.056L782.603 462.955L782.684 462.85L782.755 462.742L782.823 462.63L782.886 462.513L782.943 462.394L782.994 462.276L783.04 462.152L783.08 462.029L783.115 461.902L783.141 461.772L783.163 461.642L783.176 461.512L783.187 461.383L783.189 461.251V456.684V455.714L783.187 455.65L783.178 455.587L783.161 455.523L783.141 455.461L783.117 455.404L783.086 455.349L783.051 455.299L783.009 455.248L782.961 455.204L782.915 455.162L782.853 455.129L782.796 455.098L782.739 455.072L782.68 455.052L782.621 455.039L782.557 455.03L782.493 455.028L782.43 455.03L782.366 455.039L782.307 455.052L782.245 455.072L782.188 455.098L782.131 455.129L782.078 455.164L782.008 455.228L777.24 459.999L777.912 460.668C778.024 460.778 777.945 460.969 777.789 460.969H774.328V457.505C774.328 457.349 774.516 457.269 774.628 457.379L775.294 458.05Z" fill="white"/>
<path d="M723.871 446.282L722.096 451.795C722.08 451.841 722.038 451.872 721.989 451.872H720.068C720.02 451.872 719.977 451.841 719.962 451.793L719.159 449.148C719.128 449.044 718.979 449.042 718.946 449.146L718.099 451.793C718.083 451.839 718.041 451.87 717.992 451.87H716.076C716.027 451.87 715.985 451.839 715.969 451.793L714.195 446.28C714.172 446.21 714.226 446.137 714.301 446.137H716.069C716.118 446.137 716.16 446.168 716.175 446.214L717.054 449.062C717.085 449.165 717.231 449.165 717.265 449.064L718.194 446.214C718.21 446.168 718.252 446.137 718.3 446.137H719.924C719.973 446.137 720.015 446.168 720.031 446.216L720.909 449.099C720.94 449.203 721.089 449.203 721.12 449.101L722.049 446.214C722.065 446.168 722.107 446.137 722.156 446.137H723.768C723.839 446.137 723.893 446.21 723.871 446.282Z" fill="white"/>
<path d="M724.867 446.137H726.588C726.65 446.137 726.699 446.185 726.699 446.247V451.76C726.699 451.821 726.65 451.87 726.588 451.87H724.867C724.805 451.87 724.756 451.821 724.756 451.76V446.247C724.756 446.187 724.807 446.137 724.867 446.137Z" fill="white"/>
<path d="M733.763 446.247V451.76C733.763 451.821 733.714 451.87 733.652 451.87H732.217C732.184 451.87 732.153 451.854 732.133 451.83L730.172 449.498C730.105 449.419 729.976 449.465 729.976 449.569V451.76C729.976 451.821 729.928 451.87 729.865 451.87H728.193C728.131 451.87 728.082 451.821 728.082 451.76V446.247C728.082 446.185 728.131 446.137 728.193 446.137H729.628C729.661 446.137 729.692 446.152 729.712 446.176L731.673 448.508C731.74 448.587 731.869 448.541 731.869 448.437V446.247C731.869 446.185 731.917 446.137 731.979 446.137H733.652C733.714 446.137 733.763 446.187 733.763 446.247Z" fill="white"/>
<path d="M740.835 446.247V451.76C740.835 451.821 740.787 451.87 740.725 451.87H739.289C739.256 451.87 739.225 451.854 739.205 451.83L737.244 449.498C737.178 449.419 737.049 449.465 737.049 449.569V451.76C737.049 451.821 737 451.87 736.938 451.87H735.263C735.201 451.87 735.152 451.821 735.152 451.76V446.247C735.152 446.185 735.201 446.137 735.263 446.137H736.698C736.732 446.137 736.763 446.152 736.783 446.176L738.744 448.508C738.81 448.587 738.939 448.541 738.939 448.437V446.247C738.939 446.185 738.988 446.137 739.05 446.137H740.722C740.787 446.137 740.835 446.187 740.835 446.247Z" fill="white"/>
<path d="M742.334 446.137H744.055C744.117 446.137 744.166 446.185 744.166 446.247V451.76C744.166 451.821 744.117 451.87 744.055 451.87H742.334C742.271 451.87 742.223 451.821 742.223 451.76V446.247C742.223 446.187 742.271 446.137 742.334 446.137Z" fill="white"/>
<path d="M751.23 446.247V451.76C751.23 451.821 751.181 451.87 751.119 451.87H749.684C749.65 451.87 749.619 451.854 749.599 451.83L747.638 449.498C747.572 449.419 747.443 449.465 747.443 449.569V451.76C747.443 451.821 747.394 451.87 747.332 451.87H745.66C745.598 451.87 745.549 451.821 745.549 451.76V446.247C745.549 446.185 745.598 446.137 745.66 446.137H747.095C747.128 446.137 747.159 446.152 747.179 446.176L749.14 448.508C749.207 448.587 749.335 448.541 749.335 448.437V446.247C749.335 446.185 749.384 446.137 749.446 446.137H751.119C751.179 446.137 751.23 446.187 751.23 446.247Z" fill="white"/>
<path d="M756.49 448.848H757.957C758.019 448.848 758.068 448.896 758.068 448.958V451.213C758.068 451.25 758.05 451.285 758.019 451.305C757.691 451.524 757.311 451.693 756.883 451.813C756.433 451.938 755.991 452 755.557 452C754.942 452 754.39 451.872 753.902 451.618C753.414 451.365 753.03 451.01 752.753 450.553C752.475 450.096 752.338 449.58 752.338 449C752.338 448.422 752.475 447.904 752.753 447.447C753.03 446.99 753.416 446.635 753.915 446.382C754.412 446.128 754.973 446 755.599 446C756.164 446 756.67 446.095 757.118 446.282C757.531 446.457 757.879 446.701 758.163 447.021C758.203 447.068 758.198 447.138 758.152 447.178L757.072 448.124C757.027 448.164 756.958 448.157 756.919 448.115C756.573 447.749 756.164 447.566 755.699 447.566C755.27 447.566 754.929 447.694 754.678 447.952C754.425 448.208 754.299 448.559 754.299 449C754.299 449.432 754.423 449.779 754.674 450.041C754.924 450.304 755.257 450.434 755.674 450.434C755.896 450.434 756.107 450.396 756.311 450.324C756.355 450.308 756.384 450.264 756.384 450.218V448.956C756.38 448.899 756.428 448.848 756.49 448.848Z" fill="white"/>
<path d="M737.38 454.275C737.777 454.457 738.085 454.72 738.299 455.063C738.515 455.407 738.622 455.806 738.622 456.263C738.622 456.72 738.515 457.119 738.299 457.463C738.082 457.806 737.777 458.067 737.38 458.251C736.982 458.434 736.516 458.526 735.981 458.526H735.255C735.193 458.526 735.144 458.577 735.144 458.641V459.885C735.144 459.949 735.095 460 735.032 460H733.301C733.239 460 733.189 459.949 733.189 459.885V454.115C733.189 454.051 733.239 454 733.301 454H735.981C736.516 454 736.982 454.092 737.38 454.275ZM736.451 456.78C736.583 456.657 736.65 456.484 736.65 456.261C736.65 456.037 736.583 455.866 736.451 455.742C736.32 455.619 736.119 455.557 735.856 455.557H735.255C735.193 455.557 735.144 455.608 735.144 455.672V456.847C735.144 456.911 735.193 456.962 735.255 456.962H735.856C736.121 456.964 736.32 456.902 736.451 456.78Z" fill="white"/>
<path d="M739.751 454H741.482C741.544 454 741.593 454.051 741.593 454.115V458.314C741.593 458.378 741.643 458.429 741.705 458.429H744.099C744.161 458.429 744.211 458.48 744.211 458.544V459.88C744.211 459.945 744.161 459.995 744.099 459.995H739.748C739.686 459.995 739.637 459.945 739.637 459.88V454.115C739.639 454.051 739.688 454 739.751 454Z" fill="white"/>
<path d="M749.133 454H747.357C747.312 454 747.272 454.028 747.254 454.069L744.818 459.834C744.786 459.91 744.84 459.995 744.92 459.995H746.661C746.707 459.995 746.748 459.965 746.765 459.922L747.127 458.95L747.665 457.495L748.124 456.265C748.16 456.166 748.296 456.166 748.332 456.265L748.791 457.495L749.329 458.95L749.69 459.922C749.706 459.965 749.748 459.995 749.795 459.995H751.569C751.649 459.995 751.703 459.91 751.672 459.834L749.235 454.069C749.217 454.028 749.177 454 749.133 454Z" fill="white"/>
<path d="M758.189 454.115V459.88C758.189 459.945 758.139 459.995 758.077 459.995H756.633C756.6 459.995 756.569 459.979 756.549 459.954L754.576 457.516C754.509 457.433 754.38 457.481 754.38 457.589V459.88C754.38 459.945 754.331 459.995 754.268 459.995H752.586C752.524 459.995 752.475 459.945 752.475 459.88V454.115C752.475 454.051 752.524 454 752.586 454H754.03C754.063 454 754.094 454.016 754.115 454.042L756.087 456.48C756.154 456.563 756.283 456.514 756.283 456.406V454.115C756.283 454.051 756.332 454 756.395 454H758.077C758.139 454 758.189 454.051 758.189 454.115Z" fill="white"/>
</g>
</g>
<defs>
<linearGradient id="paint0_linear_3412_38191" x1="203.79" y1="30.3939" x2="308.416" y2="496.806" gradientUnits="userSpaceOnUse">
<stop stop-color="#289B9C"/>
<stop offset="1" stop-color="#2B74E1"/>
</linearGradient>
<linearGradient id="paint1_linear_3412_38191" x1="723.826" y1="155.661" x2="784.883" y2="158.314" gradientUnits="userSpaceOnUse">
<stop offset="0.507001" stop-color="#E0E0E0"/>
<stop offset="0.553734" stop-color="white"/>
<stop offset="0.72473" stop-color="#E0E0E0"/>
<stop offset="0.827517" stop-color="white"/>
</linearGradient>
<linearGradient id="paint2_linear_3412_38191" x1="111.57" y1="155.661" x2="50.5137" y2="158.314" gradientUnits="userSpaceOnUse">
<stop offset="0.507001" stop-color="#E0E0E0"/>
<stop offset="0.553734" stop-color="white"/>
<stop offset="0.72473" stop-color="#E0E0E0"/>
<stop offset="0.827517" stop-color="white"/>
</linearGradient>
<clipPath id="clip0_3412_38191">
<path d="M0 9.99999C0 4.47714 4.47715 0 10 0H828C833.523 0 838 4.47715 838 10V462C838 467.523 833.523 472 828 472H9.99998C4.47713 472 0 467.523 0 462V9.99999Z" fill="white"/>
</clipPath>
<clipPath id="clip1_3412_38191">
<rect width="905.77" height="395" fill="white" transform="translate(-33.8848 39)"/>
</clipPath>
<clipPath id="clip2_3412_38191">
<rect width="89.9254" height="22" fill="white" transform="translate(714.189 442)"/>
</clipPath>
</defs>
</svg>
