<svg width="21" height="42" viewBox="0 0 21 42" fill="none" xmlns="http://www.w3.org/2000/svg">
<path d="M7.74253 6.699C6.59953 4.71632 7.29496 5.99618 7.29496 4.59795C7.30056 4.52497 7.29103 4.45161 7.26701 4.38247C7.24299 4.31332 7.20498 4.24987 7.15535 4.19607C7.10571 4.14227 7.04551 4.09928 6.97852 4.06977C6.91153 4.04027 6.83918 4.0249 6.76598 4.02461C6.44417 4.02461 6.3369 4.08749 6.02618 4.84209H5.82274C5.86818 4.7329 5.89326 4.61631 5.89672 4.49808C5.86888 4.26811 5.78743 4.04789 5.65894 3.85515C5.53044 3.6624 5.35849 3.50252 5.15692 3.38838C5.32468 3.16966 5.44329 2.91731 5.50462 2.64857C5.49281 2.52627 5.44227 2.41093 5.36036 2.31935C4.99392 2.25639 4.6224 2.22791 4.25065 2.23427C4.14338 2.23427 3.70691 2.35635 3.59594 2.36005C3.44683 2.51187 3.3315 2.69351 3.25755 2.89305C3.1836 3.09258 3.15269 3.3055 3.16684 3.51783C3.21267 3.75124 3.29508 3.97595 3.41099 4.18366C3.23898 4.39129 3.08081 4.61 2.9375 4.83839C2.94232 4.90429 2.96622 4.96738 3.00629 5.01993C3.04636 5.07248 3.10085 5.11223 3.16314 5.13432C3.1613 5.16018 3.1613 5.18613 3.16314 5.21199C3.17886 5.47624 3.22354 5.73797 3.29632 5.99248V6.04427L3.43686 6.56953C3.45776 6.65555 3.50884 6.73123 3.58079 6.78281C3.65273 6.8344 3.7408 6.85847 3.82898 6.85066H3.89185C5.07924 6.85066 3.77718 9.18104 5.68958 9.18104C6.44048 9.19953 7.25426 8.10833 7.74253 6.699Z" fill="#FCCD97"/>
<path d="M7.2962 4.59878C7.3018 4.52579 7.29227 4.45244 7.26825 4.38329C7.24423 4.31415 7.20622 4.25069 7.15659 4.19689C7.10695 4.14309 7.04675 4.1001 6.97976 4.0706C6.91277 4.0411 6.84042 4.02573 6.76722 4.02543C6.44541 4.02543 6.33814 4.08831 6.02742 4.84291H5.82398C5.86942 4.73372 5.8945 4.61713 5.89796 4.49891C5.87012 4.26894 5.78867 4.04871 5.66018 3.85597C5.53168 3.66323 5.35973 3.50335 5.15816 3.3892C5.32592 3.17048 5.44453 2.91814 5.50586 2.64939C5.49405 2.5271 5.44351 2.41176 5.3616 2.32018C4.99516 2.25722 4.62364 2.22873 4.25189 2.23509C4.14462 2.23509 3.70815 2.35717 3.59718 2.36087C3.55649 2.40156 3.5158 2.44224 3.48251 2.48293C3.40136 2.3281 3.35348 2.158 3.34194 1.98356C3.31394 1.72928 3.36019 1.47232 3.4751 1.24376C4.08173 1.02682 4.72105 0.915473 5.3653 0.914551C7.2666 0.914551 7.97681 2.86764 7.97681 3.56305C7.97681 4.62098 7.44786 4.83921 7.43306 6.09688C6.75984 4.98347 7.2962 5.83055 7.2962 4.59878Z" fill="#3F3F3F"/>
<path d="M17.6256 18.6476C17.5812 19.0175 17.6959 19.5613 17.2557 19.7314C16.9931 19.4022 16.9376 19.1618 16.9376 18.507C16.9593 17.8911 17.1013 17.2854 17.3556 16.7241C17.2002 15.8104 17.0892 14.9079 16.7119 14.2679C16.1275 13.2766 15.6022 12.6293 15.5135 11.3753C15.3806 11.203 15.213 11.0606 15.0215 10.9573C15.3105 10.4527 15.4395 9.87227 15.3914 9.29275C15.3914 9.17069 15.3914 9.03752 15.3914 8.92285C16.1035 9.20831 16.7664 9.60401 17.3556 10.0954C18.0658 11.6453 18.8352 15.337 18.8352 15.6884C18.8352 15.7291 18.8352 15.7697 18.8352 15.8104C19.3308 16.5206 20.115 17.29 20.115 18.5477C20.0799 18.739 19.9823 18.9133 19.8376 19.0434C19.8504 19.1415 19.8578 19.2403 19.8598 19.3393C19.8598 19.4799 19.6268 19.7092 19.3826 19.8387C19.4175 20.0965 19.3493 20.3576 19.1928 20.5654C19.0363 20.7732 18.8041 20.9108 18.5467 20.9484C18.3333 20.3342 18.199 19.6952 18.1472 19.0471C17.9566 18.9372 17.7813 18.8029 17.6256 18.6476Z" fill="#FCCD97"/>
<path d="M0.80318 13.8354C1.30416 14.133 1.84462 14.3584 2.40857 14.505C2.36646 14.6064 2.31828 14.7052 2.2643 14.8009C2.2643 14.8009 2.22731 14.8527 2.19402 14.9008C2.287 14.9612 2.36519 15.0418 2.42281 15.1366C2.48044 15.2313 2.51603 15.3378 2.52694 15.4482C2.52694 15.6147 2.45295 15.7035 2.45295 15.8884C2.45415 15.9587 2.46537 16.0284 2.48625 16.0955C2.92274 16.0364 3.64773 15.9883 3.64773 16.3582C3.64773 16.4655 3.27785 16.5616 2.97083 16.6208C2.84876 16.643 2.80066 16.6208 2.80066 16.7799C2.80066 16.9907 3.01521 17.0092 3.01521 17.1905C3.00794 17.2805 2.97007 17.3653 2.90793 17.4309C3.80309 17.7786 3.69212 17.5086 3.46648 18.3409C3.46648 18.4037 3.25195 18.3852 3.20387 18.4814C3.04611 18.7004 2.80803 18.8481 2.54173 18.892C1.75383 18.4814 1.63917 18.4518 1.5282 17.553C0.473975 16.188 0.292731 16.2472 0.21875 15.5222C0.300175 14.9269 0.498803 14.3536 0.80318 13.8354Z" fill="#FCCD97"/>
<path d="M9.56558 31.1497C9.52004 31.1535 9.47426 31.1535 9.42872 31.1497C9.27722 30.72 9.0968 30.3011 8.88867 29.8958C9.35164 29.8376 9.80531 29.7207 10.2388 29.548C10.3808 29.3753 10.5353 29.2134 10.7012 29.0635C10.7407 29.183 10.7631 29.3076 10.7678 29.4334C10.7438 29.9275 10.529 30.393 10.1685 30.7317C10.1093 30.7724 9.70984 30.9648 9.70984 31.1275L9.56558 31.1497Z" fill="#FCCD97"/>
<path d="M9.90454 39.9466C8.79484 40.6864 5.94288 41.367 5.25486 41.367C5.04195 41.3755 4.82871 41.3619 4.61862 41.3263C4.59643 41.2412 4.40039 41.2782 4.40039 41.2005C4.40039 40.2425 5.081 40.2092 5.91328 39.584C6.45334 39.1808 6.53102 38.5224 7.02299 38.2265C7.76279 38.3005 8.44341 38.9996 8.96498 38.9996C9.16481 38.9449 9.34944 38.8451 9.50464 38.7079C9.65983 38.5707 9.78146 38.3996 9.86016 38.208C10.2486 38.9367 10.034 39.081 9.90454 39.9466Z" fill="#3F3F3F"/>
<path d="M17.5 33.5206C17.5 33.8055 17.8218 34.3455 17.8218 35.1963C17.8218 36.4614 17.3558 37.2234 16.3718 37.4897C15.8281 37.1753 16.0019 36.0582 15.4434 33.9386H15.5876C15.8059 33.9386 16.9563 33.713 16.9563 32.2778C16.9246 31.7838 16.7667 31.3061 16.4976 30.8906C16.8981 30.8956 17.2967 30.9477 17.685 31.046C17.8169 31.2804 17.8976 31.5401 17.9217 31.808C17.9217 32.5478 17.5 33.1063 17.5 33.5206Z" fill="#3F3F3F"/>
<path d="M16.724 32.2379C16.724 33.5918 15.9065 33.6916 15.3073 33.5917C15.089 33.2551 14.8597 32.9037 14.6673 32.6226C13.8758 32.3563 13.9275 32.138 11.3789 31.6202C11.8191 31.1615 12.3037 30.5105 12.3037 29.0604C12.3037 28.9495 12.3037 28.8385 12.3037 28.7275C12.6797 28.8119 13.0116 29.0318 13.2358 29.3453C13.517 29.767 13.7722 30.8915 15.7253 30.8915H16.0027C16.234 31.0291 16.4234 31.2272 16.5505 31.4644C16.6776 31.7017 16.7376 31.9691 16.724 32.2379Z" fill="#3F3F3F"/>
<path d="M11.8414 30.4107C11.6297 30.8441 11.3328 31.2303 10.9684 31.5463C10.5842 31.4762 10.2039 31.3861 9.82911 31.2763C9.64786 31.1912 9.62197 31.0728 9.99927 30.862C10.3766 30.6511 10.3692 30.555 10.6762 29.9558C10.9832 29.3565 10.4912 28.5834 10.4912 28.5834L10.654 28.3837L10.9795 28.2246L11.4234 28.3689C11.592 28.5034 11.7895 28.5971 12.0004 28.6426C12.0789 29.2365 12.0246 29.8404 11.8414 30.4107Z" fill="#3F3F3F"/>
<path d="M13.0721 27.5666C12.8427 26.8823 12.3988 25.5396 12.3988 25.5396C12.3508 25.4101 12.2176 25.1955 12.0622 24.8404C12.6541 23.986 13.8304 22.1291 13.8304 20.8973C13.8304 19.4953 12.7576 17.7568 12.4839 17.2204C12.4731 17.2018 12.4644 17.1819 12.458 17.1613C11.9919 16.1292 11.844 12.5856 11.8033 11.2021C12.1468 11.1093 12.5018 11.0657 12.8575 11.0727C13.4455 11.0409 14.034 11.1264 14.5887 11.3242C14.9586 11.1355 15.3803 10.6584 15.3803 9.29344C15.3834 9.01694 15.3524 8.74112 15.2878 8.47225C14.8228 8.25263 14.3211 8.12095 13.8082 8.08386L10.9488 7.10731C10.2534 6.80029 8.45939 6.67822 7.82686 6.67822C7.79382 6.68045 7.76135 6.68794 7.73068 6.70042C7.24241 8.10974 6.42862 9.20096 5.64813 9.20096C4.2351 9.20096 4.5754 7.93589 4.37196 7.27007C2.3264 7.58449 1.176 11.106 0.517578 13.6509C1.13126 14.0752 1.82064 14.3778 2.54834 14.5424C3.65805 13.4326 2.91824 14.1725 3.65805 13.0627C4.13892 13.6509 4.34607 14.5424 4.56802 14.9418C5.24864 16.2143 6.00692 16.8727 6.00692 17.3314C6.00692 17.4017 6.00692 17.4683 6.00692 17.5386C6.00692 17.5386 6.0994 17.7309 6.21777 17.9899C5.96253 18.8443 5.64072 19.5249 5.64072 20.5792C5.64072 20.8159 5.66291 20.8566 5.66291 20.9935C5.66291 21.0489 5.66291 21.1081 5.66291 21.1636C5.66291 21.7037 5.99583 21.4891 5.99583 22.4065C5.99583 22.5322 5.99584 22.6654 5.97734 22.7764C5.73321 23.4089 5.41879 24.2079 5.41879 24.2079C5.04888 24.7702 4.9453 24.6999 4.9453 25.1179C4.96403 25.4276 5.09563 25.7198 5.3152 25.939C5.51495 25.3213 5.80348 24.7702 6.12529 24.7702C6.8651 24.7702 9.5654 26.4532 9.62828 26.4865L13.0721 27.5666ZM3.02921 11.5942C2.79987 10.8544 1.60879 10.344 3.61366 9.16027C3.75422 9.07519 3.94287 8.88654 4.07604 8.88654C4.09558 8.88265 4.11568 8.88265 4.13521 8.88654C4.26098 8.94203 4.2351 9.0493 4.33498 9.18986C2.41518 10.4956 2.64451 9.77431 3.0477 11.5979L3.02921 11.5942ZM7.39405 8.39458C9.61347 8.76448 9.26946 11.7533 10.5863 11.7533C10.6999 11.7623 10.814 11.7427 10.9181 11.6961C11.0221 11.6496 11.1128 11.5777 11.1819 11.487C11.2588 11.5669 11.3403 11.6422 11.426 11.7126C11.35 11.8247 11.2481 11.9168 11.129 11.9812C11.0099 12.0455 10.877 12.0803 10.7417 12.0825C8.99203 12.0825 9.26208 9.8335 8.35952 9.26015C7.99133 9.07819 7.60755 8.92962 7.21281 8.81626C7.3144 8.71734 7.37958 8.58698 7.39776 8.44636C7.40923 8.43203 7.418 8.41573 7.42365 8.39827L7.39405 8.39458ZM12.4691 20.9491C12.3612 21.6469 12.1201 22.3175 11.7589 22.9243C11.2817 24.1783 10.4865 24.5963 10.4865 25.2843C10.4865 25.4138 10.5123 25.5692 10.5123 25.6542C10.5123 26.6641 9.88351 25.976 9.88351 25.8466C9.88351 25.7171 10.013 25.632 10.05 25.5248C10.1572 25.2251 9.98337 24.7036 10.5123 23.9379C12.5431 21.0489 11.4371 20.3683 12.4876 20.9528L12.4691 20.9491Z" fill="#2C62FF"/>
<path d="M12.4003 25.5389C12.4003 25.5389 12.8442 26.8817 13.0735 27.566C12.522 27.7999 11.9953 28.0887 11.5014 28.4279L10.7173 29.127L10.2475 29.545L8.89732 29.8927L8.74567 29.7225L8.49414 29.4451L7.8357 28.7053L5.34256 25.931C5.12298 25.7118 4.99138 25.4196 4.97266 25.1098C4.97266 24.6919 5.09104 24.7622 5.44614 24.1999C5.44614 24.1999 5.76054 23.4009 6.00468 22.7684C6.00468 22.6389 6.02319 22.5057 6.02319 22.3985C6.02319 21.4811 5.69027 21.6957 5.69027 21.1556C5.69027 21.1001 5.69027 21.0409 5.69027 20.9854C5.69027 20.8486 5.66807 20.8079 5.66807 20.5711C5.66807 19.5243 5.98989 18.8437 6.24512 17.9818L6.92943 17.7969C7.26934 17.8596 7.61787 17.8596 7.95777 17.7969C8.73827 17.7155 8.14273 17.9559 8.88993 17.8894C9.63714 17.8228 9.03049 17.6563 9.90346 17.5712C10.2436 17.5544 10.5815 17.5074 10.9133 17.4307H11.9601L12.4595 17.1606C12.4658 17.1813 12.4745 17.2011 12.4854 17.2198C12.7591 17.7562 13.8318 19.4947 13.8318 20.8967C13.8318 22.1284 12.6555 23.9854 12.0637 24.8398C12.2338 25.1949 12.3522 25.4095 12.4003 25.5389Z" fill="#3F3F3F"/>
<path d="M12.2544 20.823C12.2544 20.823 11.9918 20.6491 11.9252 20.9229C11.7807 21.6724 11.5093 22.3917 11.1225 23.0498C10.5492 23.956 10.2126 24.4813 10.1497 25.014C10.1202 25.3082 10.0427 25.5956 9.92036 25.8648C9.91572 25.8977 9.91785 25.9312 9.92664 25.9633C9.93543 25.9954 9.95069 26.0254 9.97148 26.0514C9.99226 26.0773 10.0181 26.0988 10.0475 26.1144C10.0769 26.13 10.1091 26.1395 10.1423 26.1422C10.4049 26.1903 10.5122 26.3086 10.5492 25.6724C10.5862 25.0362 10.5492 24.9326 11.0966 24.2742C11.5278 23.6518 11.8748 22.9752 12.1287 22.2619C12.2823 21.8338 12.4132 21.398 12.5208 20.9561L12.2544 20.823Z" fill="#2C62FF"/>
<path d="M9.58623 37.7611C9.56636 38.0198 9.49331 38.2717 9.37168 38.5009C9.14234 39.0335 8.33595 38.5009 8.10291 38.3085C7.87937 38.1584 7.62769 38.0552 7.36311 38.0052L7.50367 37.6353C7.64794 37.2654 7.54806 36.496 7.50367 35.8746C7.48263 35.5748 7.4913 35.2738 7.52957 34.9757C7.24514 33.9352 6.88918 32.9155 6.46425 31.924C6.35328 31.6429 6.2423 31.3729 6.13133 31.1213C6.07214 30.9845 6.01297 30.855 5.95748 30.7514C5.72445 30.2336 5.54688 29.8859 5.54688 29.8859V29.5788L8.04372 28.5542C8.25194 28.8035 8.43184 29.0752 8.58008 29.3643C8.64666 29.4827 8.71326 29.6047 8.77614 29.7342C9.06857 30.2842 9.31598 30.8569 9.51594 31.4468C9.88585 32.5935 9.44197 35.009 9.37908 35.6748C9.36839 36.346 9.41665 37.0169 9.52333 37.6797L9.58623 37.7611Z" fill="#3F3F3F"/>
<path d="M8.78545 29.7182C8.39224 30.1318 7.93971 30.4846 7.4427 30.765C7.03581 30.9661 6.59347 31.0855 6.14066 31.1164C6.08148 30.9795 6.02228 30.8501 5.9668 30.7465C6.27403 30.7971 6.58869 30.7782 6.88765 30.6912C7.1866 30.6041 7.46222 30.4511 7.69424 30.2434C8.03308 29.9928 8.33452 29.6951 8.58942 29.3594C8.656 29.4629 8.72257 29.585 8.78545 29.7182Z" fill="#2C62FF"/>
<path d="M9.85472 38.2073C9.77603 38.3989 9.6544 38.57 9.4992 38.7072C9.34401 38.8444 9.1594 38.9442 8.95957 38.9989C8.438 38.9989 7.75738 38.2998 7.01758 38.2258L7.35418 37.9853C7.61876 38.0354 7.87044 38.1385 8.09398 38.2887C8.32702 38.4921 9.13341 39.0285 9.36275 38.481C9.48438 38.2518 9.55743 37.9999 9.5773 37.7412L9.85472 38.2073Z" fill="#2C62FF"/>
<path d="M5.50636 29.8695C5.20457 29.4002 5.02759 28.8616 4.99219 28.3048C4.99219 28.0052 5.04398 27.7093 5.04398 27.4134C5.04398 26.7882 5.53225 24.7686 6.15369 24.7686C6.89349 24.7686 9.59379 26.4553 9.65668 26.4886C9.2054 27.7574 8.4027 27.5539 7.98471 28.0163C7.9516 28.0569 7.9345 28.1082 7.93662 28.1606C7.93662 28.7894 8.74301 28.1606 6.27576 29.6069C6.05201 29.7489 5.79915 29.8386 5.53596 29.8695" fill="#FCCD97"/>
<path d="M16.9564 32.29C16.9564 33.7252 15.806 33.9508 15.5878 33.9508H15.4435L15.3066 33.6031C15.9059 33.703 16.7234 33.6031 16.7234 32.2493C16.7351 31.9786 16.6724 31.7099 16.5419 31.4725C16.4115 31.2351 16.2183 31.038 15.9836 30.9028H16.4866C16.7596 31.3173 16.9214 31.7949 16.9564 32.29Z" fill="#2C62FF"/>
<path d="M3.04822 11.5973C2.81888 10.8575 1.6278 10.347 3.63268 9.16336C3.77324 9.07828 3.96189 8.88963 4.09505 8.88963C4.11459 8.88575 4.13469 8.88575 4.15423 8.88963C4.28 8.94512 4.25412 9.05239 4.35399 9.19296C2.4157 10.495 2.64503 9.7737 3.04822 11.5973Z" fill="#3F3F3F"/>
<path d="M11.4456 11.7161C11.3696 11.8282 11.2678 11.9203 11.1487 11.9847C11.0296 12.0491 10.8967 12.0838 10.7613 12.086C9.01167 12.086 9.2817 9.837 8.37913 9.26365C8.01095 9.08169 7.62716 8.93314 7.23242 8.81978C7.33401 8.72086 7.39919 8.5905 7.41737 8.44987C7.4192 8.43637 7.4192 8.42268 7.41737 8.40918C9.63679 8.77908 9.29278 11.7679 10.6096 11.7679C10.7233 11.7769 10.8373 11.7573 10.9414 11.7107C11.0455 11.6642 11.1361 11.5923 11.2052 11.5016C11.2812 11.5776 11.3615 11.6492 11.4456 11.7161Z" fill="#3F3F3F"/>
<path d="M12.3021 29.0606C12.3021 30.4995 11.8176 31.1617 11.3774 31.6204L10.9668 31.539C11.3312 31.223 11.6281 30.8367 11.8398 30.4034C12.023 29.833 12.0773 29.2291 11.9988 28.6353L12.2947 28.7277C12.2984 28.8387 12.3021 28.9497 12.3021 29.0606Z" fill="#2C62FF"/>
</svg>
