<svg width="31" height="40" viewBox="0 0 31 40" fill="none" xmlns="http://www.w3.org/2000/svg">
<path d="M5.06794 9.31244C5.49623 9.43602 5.93908 9.50195 6.38479 9.50849C6.62893 9.50849 6.86937 9.48259 7.1246 9.48259C7.81632 9.48259 7.91989 9.61576 8.56722 9.71933C8.6942 9.6041 8.79666 9.46447 8.86847 9.30876C8.94029 9.15305 8.97999 8.98446 8.98521 8.81307C8.97105 8.39115 8.79014 7.99207 8.48215 7.70336C7.98278 7.70336 7.43162 7.70337 6.93965 7.75885C6.56974 7.44444 6.19985 7.34086 5.32688 7.34086C4.95697 7.34086 4.58707 7.36305 4.21717 7.36305C4.03222 7.36305 3.84726 7.36306 3.65861 7.34086C3.65861 7.27058 2.44903 5.74658 1.7795 5.74658C1.41021 5.87266 1.08351 6.09943 0.836254 6.40131C0.836254 6.84149 0.632812 6.66024 0.632812 6.91917C0.632812 6.97466 0.773369 7.54431 1.06559 7.54431H1.19506C1.71997 8.01774 2.40843 8.26845 3.11486 8.24342C3.58833 8.48016 4.4465 8.91665 5.06794 9.31244Z" fill="#FCCD97"/>
<path d="M11.8348 2.56689C11.5176 2.82544 11.132 2.9861 10.7251 3.02927C10.5993 3.02671 10.4747 3.00551 10.3551 2.96639C10.3306 3.14293 10.317 3.32083 10.3145 3.49905C10.3145 4.47189 10.8286 4.15008 10.8286 5.30418C10.8286 5.44104 10.7324 5.5927 10.7324 5.74066C10.7324 5.88862 10.9618 5.85163 11.1023 5.9404C11.4981 6.20304 11.4723 6.91325 11.8422 6.91325C12.025 6.91226 12.2072 6.89243 12.3859 6.85406C12.5857 7.20177 12.7558 7.41262 12.7558 7.41262C12.7558 7.52359 12.6744 7.61977 12.6744 7.78252C12.6744 7.78252 12.6744 7.80842 12.6744 7.82321C12.7587 7.85316 12.8476 7.86818 12.9371 7.8676C14.0098 7.8676 14.0764 6.70611 15.3562 5.77765C15.0323 5.4788 14.7719 5.11774 14.5905 4.71603C14.4537 4.31283 14.6867 3.43986 14.1319 3.43986C14.0528 3.43711 13.974 3.45096 13.9006 3.48054C13.8272 3.51011 13.7608 3.55475 13.7058 3.61156C13.6507 3.66838 13.6081 3.73612 13.5809 3.8104C13.5536 3.88468 13.5422 3.96385 13.5474 4.04281C13.5462 4.16827 13.565 4.29312 13.6029 4.41271C13.5187 4.43924 13.4424 4.48627 13.3809 4.54957C13.2824 4.31892 13.1268 4.11711 12.9288 3.96311C12.7308 3.80911 12.4969 3.70797 12.249 3.6692C12.2177 3.59018 12.2001 3.50634 12.1973 3.42137C12.2053 3.3135 12.2368 3.2087 12.2897 3.11435C12.1922 2.89294 12.0346 2.70328 11.8348 2.56689Z" fill="#FCCD97"/>
<path d="M20.1981 26.0327C20.679 26.5617 21.0045 26.6431 21.0045 27.3015C21.0045 27.8637 20.4829 28.6479 19.7357 28.9919L19.6654 29.0215C19.0146 28.8311 18.4152 28.496 17.9121 28.0413C18.7722 27.4925 19.5432 26.8151 20.1981 26.0327Z" fill="#FCCD97"/>
<path d="M14.1371 3.44644C14.058 3.44368 13.9793 3.45754 13.9059 3.48711C13.8325 3.51669 13.7661 3.56132 13.711 3.61814C13.656 3.67496 13.6134 3.74269 13.5861 3.81697C13.5589 3.89125 13.5475 3.97043 13.5527 4.04938C13.5515 4.17484 13.5703 4.29969 13.6082 4.41929C13.524 4.44582 13.4477 4.49285 13.3862 4.55615C13.2877 4.32549 13.1321 4.12368 12.9341 3.96968C12.7361 3.81568 12.5022 3.71455 12.2543 3.67578C12.223 3.59676 12.2054 3.51292 12.2025 3.42795C12.2106 3.32008 12.2421 3.21527 12.295 3.12093C12.1972 2.8945 12.0368 2.70072 11.8326 2.56238C11.5154 2.82092 11.1299 2.98158 10.7229 3.02475C10.5972 3.02219 10.4725 3.001 10.353 2.96187L10.3308 3.14682C10.1206 2.92268 9.99054 2.63521 9.96094 2.32933C9.97435 2.08194 10.0426 1.84062 10.1607 1.62282C11.1705 1.33799 11.2704 0.764648 12.2432 0.764648C13.4713 0.764648 14.3628 1.64502 14.4922 2.0778C14.53 2.16234 14.5633 2.24876 14.5921 2.33673C14.7167 2.69503 14.7938 3.06811 14.8215 3.44644C14.7972 3.79891 14.7042 4.14322 14.5477 4.45997C14.5218 4.01609 14.5884 3.44644 14.1371 3.44644Z" fill="#3F3F3F"/>
<path d="M10.8946 25.9142C10.7122 25.7897 10.4977 25.7203 10.2769 25.7144C9.95889 25.7369 9.64661 25.8106 9.35213 25.9327C8.84166 26.1102 8.09076 26.3988 8.14255 26.8833C7.83094 26.4103 7.68761 25.8461 7.73565 25.2816C7.73565 24.7083 7.76155 24.5714 9.15608 23.1621C9.40198 23.3443 9.66455 23.5028 9.94028 23.6356C10.7573 24.112 11.419 24.8147 11.8453 25.659C11.2238 25.6959 10.9871 25.7884 10.8946 25.9142Z" fill="#FCCD97"/>
<path d="M11.5598 26.5837H11.4229C10.8752 26.5895 10.3353 26.7146 9.84086 26.9503C9.34641 27.1861 8.90928 27.5267 8.5599 27.9486C8.40946 27.6423 8.2773 27.3273 8.1641 27.0054C7.97545 26.4468 8.80403 26.1287 9.35148 25.94C9.64597 25.818 9.95824 25.7443 10.2762 25.7218C10.7164 25.7144 11.1677 26.0325 11.5598 26.5837Z" fill="#3F3F3F"/>
<path d="M21.7875 27.4832C21.7875 28.1823 21.3917 28.9036 20.3338 29.3068C20.1119 29.2217 19.8825 29.1403 19.6421 29.0589C19.5835 29.04 19.532 29.0039 19.4941 28.9554L19.6643 29.0183L19.7346 28.9887C20.4744 28.6447 21.0033 27.8605 21.0033 27.2982C21.0135 27.1554 20.9915 27.0122 20.939 26.8791C20.8865 26.7459 20.8048 26.6263 20.7 26.5288H20.7888C21.0491 26.5303 21.3075 26.5727 21.5545 26.6546C21.7 26.9071 21.7801 27.1919 21.7875 27.4832Z" fill="#3F3F3F"/>
<path d="M21.5951 6.73131H21.4879C19.8011 6.73131 18.8282 5.5957 16.6606 5.5957C16.2046 5.59944 15.7496 5.63777 15.2994 5.71037L15.3623 5.77696C14.0824 6.70911 14.0158 7.8706 12.9431 7.8706C12.8536 7.87119 12.7648 7.85617 12.6805 7.82622C12.6805 7.82622 12.6805 7.79662 12.6805 7.78553C12.6805 7.61537 12.7618 7.5192 12.7618 7.41562C12.7618 7.41562 12.6102 7.20478 12.3919 6.85707C12.2132 6.89544 12.031 6.91527 11.8482 6.91626C11.6077 6.91626 11.5264 6.64993 11.408 6.3836C10.5165 6.87187 10.1281 7.25287 7.91243 7.34164C7.81597 7.44688 7.74621 7.57373 7.70898 7.71155C7.95682 7.71155 8.20465 7.71155 8.44879 7.71155C8.75679 8.00026 8.9377 8.39934 8.95185 8.82125C8.94664 8.99265 8.90693 9.16123 8.83512 9.31694C8.7633 9.47265 8.66084 9.61228 8.53386 9.72751C8.31414 9.6926 8.09673 9.64443 7.88283 9.58325C7.93092 9.70902 7.9864 9.82739 8.04559 9.95315C8.15179 9.97239 8.25948 9.98229 8.36741 9.98275C8.58565 9.98275 8.8002 9.98275 9.01474 9.98275C9.55929 10.1834 10.136 10.2824 10.7163 10.275C10.799 9.6951 11.0059 9.13994 11.3229 8.6474C11.863 7.84841 12.3143 7.74484 12.3143 7.74484L12.2958 7.97048C12.2958 7.97048 11.6891 8.50684 11.4783 8.71028C11.1838 9.18195 11.0121 9.71989 10.9789 10.275C11.5449 12.2096 10.9049 12.0135 12.3772 14.9357C12.3772 16.0455 12.7212 15.8161 12.7212 16.837C12.7018 17.375 12.7315 17.9136 12.8099 18.4461C12.8617 18.7051 12.9246 18.7938 12.9727 19.0602L16.4905 20.34C16.5613 20.2145 16.66 20.1069 16.779 20.0256C16.9196 20.1292 17.1489 20.229 17.1489 20.4214C17.149 20.4731 17.1402 20.5244 17.123 20.5731L19.5015 21.4386C19.3683 21.0206 19.8381 20.4658 19.8381 19.9146C19.8381 19.0824 19.3461 18.2982 18.7284 17.6323C18.7284 17.562 18.7284 17.4918 18.6988 17.4252C18.5656 16.4745 18.2586 15.768 18.2586 15.4906C18.2586 15.3315 18.2993 15.1688 18.2993 15.0023C18.2906 14.8337 18.2595 14.667 18.2068 14.5067C18.4113 13.6255 18.5596 12.7322 18.6507 11.8323C18.696 11.0269 18.6085 10.2196 18.3918 9.44269C19.1316 9.36871 20.0785 9.36501 20.2413 9.36501C20.5742 9.36501 20.9034 9.36501 21.2363 9.36501C21.5442 8.79301 21.7294 8.1631 21.7801 7.5155C21.7668 7.24501 21.7041 6.97923 21.5951 6.73131ZM17.1267 10.5191C16.9122 10.5191 15.4806 10.1862 14.7593 8.2405C14.7038 8.08884 14.1712 7.71525 14.1712 7.41193C14.1712 7.33425 14.3265 7.23807 14.4301 7.20478V7.26396C14.5202 7.53014 14.7079 7.75223 14.9554 7.8854C15.0072 7.9039 15.9171 9.73491 16.2093 9.73491C16.6384 9.73491 17.0009 10.1677 17.2673 10.1677C17.5336 10.1677 17.6372 9.47968 17.9331 9.47968C18.033 9.47968 18.0515 9.52407 18.0515 9.56106C18.0515 9.59805 17.6446 10.5191 17.1267 10.5191ZM16.5016 20.3585C16.4276 20.4658 16.3647 20.5805 16.2796 20.684C15.5657 21.5533 14.5966 22.0416 13.8161 22.7925C13.2242 23.3621 11.5967 25.293 12.4437 25.293C12.6921 25.0759 12.911 24.8272 13.0948 24.5532C14.3265 22.6482 16.8863 21.5311 17.1637 20.61L16.5016 20.3585Z" fill="#2C62FF"/>
<path d="M21.7986 7.55552C21.7986 7.51853 21.7986 7.48523 21.7986 7.44824L22.3757 7.56292C23.6296 7.81445 26.8663 10.315 28.0204 11.3285C29.1301 11.5061 30.2176 11.9056 30.2176 13.7477C30.2027 13.8504 30.165 13.9485 30.1075 14.0349C30.0499 14.1213 29.9738 14.1938 29.8847 14.2471C29.7648 14.3214 29.6262 14.3599 29.4852 14.358C29.4699 14.4711 29.4158 14.5754 29.3322 14.653C29.2485 14.7306 29.1404 14.7767 29.0265 14.7834C28.9737 14.7839 28.9215 14.7712 28.8748 14.7464C27.5173 13.9067 27.6838 12.9524 27.3952 12.2496C26.8216 11.9065 26.2127 11.6262 25.579 11.4136C22.1611 10.2632 23.1229 9.97468 21.3066 9.29776C21.5871 8.75639 21.7545 8.16362 21.7986 7.55552Z" fill="#FCCD97"/>
<path d="M12.3206 7.75293L12.3021 7.97857C12.3021 7.97857 11.6955 8.51493 11.4847 8.71838C11.1901 9.19005 11.0185 9.72798 10.9853 10.2831H10.7227C10.8054 9.7032 11.0123 9.14803 11.3293 8.65549C11.8693 7.8565 12.3206 7.75293 12.3206 7.75293Z" fill="#3F3F3F"/>
<path d="M18.0522 9.55717C18.0522 9.63485 17.6416 10.5189 17.1274 10.5189C16.9129 10.5189 15.4813 10.186 14.76 8.24031C14.7045 8.08865 14.1719 7.71505 14.1719 7.41173C14.1719 7.33405 14.3272 7.23788 14.4308 7.20459V7.26377C14.5209 7.52995 14.7086 7.75204 14.9561 7.88521C15.0079 7.9037 15.9178 9.73472 16.21 9.73472C16.6391 9.73472 17.0016 10.1675 17.268 10.1675C17.5343 10.1675 17.6379 9.47949 17.9338 9.47949C18.0337 9.47579 18.0522 9.52018 18.0522 9.55717Z" fill="#3F3F3F"/>
<path d="M11.7787 26.9318C11.6674 26.9135 11.5548 26.9049 11.4421 26.9059C10.4027 26.9059 9.37063 27.5828 8.7196 28.2671L8.56055 27.9416C8.90993 27.5197 9.34706 27.1791 9.84151 26.9433C10.336 26.7076 10.8759 26.5825 11.4236 26.5767H11.5605L11.7787 26.9318Z" fill="#2C62FF"/>
<path d="M14.6127 36.1203C14.0763 36.7898 12.7373 37.1819 11.905 38.4729C11.2799 39.442 10.8989 39.5197 9.82615 39.5197C9.60421 39.5197 9.52284 39.3903 9.33789 39.3126C9.59682 38.1659 10.5549 37.537 10.873 36.3164C10.9874 36.3398 11.1039 36.3522 11.2207 36.3534C11.6916 36.3455 12.1442 36.1698 12.4969 35.8577C12.8668 35.5248 13.1516 35.2289 13.0998 34.7998C13.0998 34.7406 13.0998 34.6629 13.1294 34.6333C13.159 34.6037 13.3032 34.5445 13.3698 34.6333C13.4119 34.6858 13.459 34.7341 13.5104 34.7776C14.0098 35.166 14.4721 35.2215 14.6127 36.1203Z" fill="#3F3F3F"/>
<path d="M13.2057 34.4041C13.1306 34.4029 13.0574 34.4278 12.9985 34.4744C12.9097 34.5447 12.8913 34.663 12.8987 34.8443C12.8748 35.0186 12.8148 35.1859 12.7224 35.3356C12.63 35.4853 12.5074 35.6141 12.3623 35.7136C12.1677 35.8905 11.9352 36.0208 11.6827 36.0945C11.4302 36.1683 11.1642 36.1834 10.9049 36.139C10.9444 35.9267 10.9643 35.7112 10.9641 35.4953C10.9641 35.081 10.9641 34.8813 10.9641 34.6371C10.9419 34.1249 10.865 33.6165 10.7347 33.1205C10.3204 31.0232 9.40307 29.625 8.71875 28.2822C9.36978 27.5979 10.4018 26.921 11.4412 26.921C11.554 26.92 11.6666 26.9286 11.7779 26.9469C12.4061 28.1827 12.7151 29.556 12.6767 30.9418C12.6767 31.4708 12.6397 32.0071 12.6138 32.5398C12.7388 33.1819 12.9374 33.8075 13.2057 34.4041Z" fill="#3F3F3F"/>
<path d="M13.3679 34.625C13.3014 34.5437 13.1793 34.588 13.1275 34.625C13.0757 34.662 13.0905 34.7323 13.0979 34.7915C13.1497 35.2206 12.8797 35.5313 12.495 35.8494C12.1423 36.1615 11.6897 36.3373 11.2188 36.3451C11.102 36.3439 10.9855 36.3316 10.8711 36.3081L10.9155 36.1157C11.1748 36.1602 11.4408 36.145 11.6933 36.0713C11.9458 35.9976 12.1783 35.8673 12.3729 35.6904C12.518 35.5909 12.6406 35.4621 12.733 35.3124C12.8254 35.1627 12.8854 34.9954 12.9093 34.8211C12.9093 34.6546 12.9093 34.5363 13.0091 34.4512C13.068 34.4046 13.1412 34.3797 13.2163 34.3809L13.3679 34.625Z" fill="#2C62FF"/>
<path d="M26.9735 32.5946C26.8025 32.9623 26.5322 33.2749 26.193 33.4971C25.4532 32.5946 25.172 32.2284 25.0611 32.0545C23.7168 31.0023 22.2438 30.1259 20.6777 29.4467C21.3805 29.1138 22.0353 28.5811 22.0353 27.4973C22.0339 27.2662 22.0028 27.0362 21.9428 26.813H21.9724L22.0279 26.8426C23.4298 27.5454 24.7282 29.2876 26.0746 30.6711C26.4112 30.7229 26.6886 30.7562 26.9254 30.7783C27.0253 31.0891 27.262 31.9805 26.9735 32.5946Z" fill="#3F3F3F"/>
<path d="M22.0355 27.5118C22.0355 28.5956 21.3808 29.1283 20.678 29.4612L20.334 29.3207C21.3919 28.9175 21.7877 28.211 21.7877 27.497C21.7802 27.2058 21.7001 26.9209 21.5547 26.6685L21.9431 26.8275C22.0031 27.0507 22.0342 27.2807 22.0355 27.5118Z" fill="#2C62FF"/>
<path d="M22.0281 26.8548L21.9727 26.8252L22.0244 26.8474L22.0281 26.8548Z" fill="#2C62FF"/>
<path d="M28.3716 33.2793C28.4258 33.7445 28.4456 34.2131 28.4308 34.6812C28.4308 35.077 27.8537 36.945 27.3211 36.8452C26.7884 36.7453 27.0067 36.5751 26.4185 34.1375C26.4185 34.1375 26.1263 33.7454 26.2742 33.6899C26.6566 33.4446 26.9628 33.0974 27.1583 32.6875C27.4653 32.0475 27.2656 31.2078 27.1583 30.8083C27.3729 30.6567 28.0498 30.8823 28.5491 31.1782C28.5972 31.2559 28.7304 31.341 28.7304 31.4372C28.738 32.0693 28.6159 32.6962 28.3716 33.2793Z" fill="#3F3F3F"/>
<path d="M27.1625 32.6906C26.967 33.1006 26.6608 33.4478 26.2784 33.693L26.1934 33.5007C26.5326 33.2784 26.8029 32.9658 26.9739 32.5981C27.2698 31.9841 27.0256 31.0926 26.9258 30.793H27.1514C27.2624 31.211 27.4695 32.0469 27.1625 32.6906Z" fill="#2C62FF"/>
<path d="M21.4958 24.5529C20.4416 25.6626 19.4724 27.2273 17.5194 28.2852C16.6279 27.6748 16.4096 27.0423 15.1113 25.5257C14.0682 26.0954 14.3345 26.554 12.7513 27.2865C12.03 26.2433 11.5676 24.5344 9.94006 23.654C9.58388 23.4961 9.25734 23.2784 8.97461 23.0104L9.03009 22.9327C11.4419 19.6036 11.5639 19.8181 12.9844 19.0968C12.9788 19.0184 12.9985 18.9403 13.0404 18.8737C13.0823 18.8072 13.1443 18.7558 13.2174 18.7269C13.5022 18.5752 13.861 18.5161 14.4122 18.2164C14.9633 17.9168 15.1335 18.2164 15.1335 18.2164C15.6497 18.1384 16.16 18.026 16.6612 17.8798C17.1273 17.7097 16.9978 17.9205 17.7191 17.8798C18.4404 17.8391 17.7191 17.8798 18.3553 17.5839C18.4721 17.5271 18.5968 17.4885 18.7252 17.4692C18.7252 17.5358 18.7474 17.6061 18.7548 17.6764C19.3652 18.3422 19.8645 19.1264 19.8645 19.9587C19.8645 20.5098 19.3948 21.0684 19.5279 21.4827C20.0532 23.1139 21.2184 23.9795 21.4958 24.5529Z" fill="#3F3F3F"/>
<path d="M16.79 20.0439C16.565 20.207 16.3885 20.4282 16.2796 20.6839C16.0465 21.161 12.9911 23.2399 12.6138 24.2238C12.6138 24.2238 12.133 25.0413 12.2144 25.1523C12.2739 25.2223 12.3543 25.2716 12.4437 25.2929C12.6754 25.0596 12.8929 24.8126 13.0947 24.5531C13.7932 23.7501 14.5498 22.9996 15.3585 22.3077C15.955 21.8785 16.5121 21.397 17.0231 20.8688C17.1341 20.6469 17.4078 20.3473 16.79 20.0439Z" fill="#2C62FF"/>
</svg>
