<svg width="23" height="39" viewBox="0 0 23 39" fill="none" xmlns="http://www.w3.org/2000/svg">
<path d="M12.4005 6.22911C12.3328 6.54623 12.0869 6.46071 12.0869 7.14841C12.0869 8.08553 12.9742 8.52024 13.7759 8.52024C14.8449 8.52024 15.8247 7.2553 15.6822 6.38232C15.643 6.12577 15.3793 6.20772 15.358 5.45589C15.6359 5.07462 16.2488 4.59715 16.2488 3.83819C16.2488 3.4106 16.035 3.48187 15.9958 3.52463C15.867 3.75888 15.7574 4.00317 15.668 4.25509C15.6394 4.25509 15.5896 4.21233 15.5896 4.21233C15.5798 3.90956 15.4623 3.62021 15.2582 3.39636C15.3634 3.19885 15.4265 2.98167 15.4435 2.75854C15.4366 2.5536 15.3641 2.35628 15.2368 2.19556C14.852 2.37301 14.4311 2.4584 14.0075 2.44498C13.5344 2.44911 13.071 2.30999 12.6784 2.0459C12.5828 2.14575 12.508 2.26367 12.4584 2.39276C12.4089 2.52185 12.3855 2.65953 12.3898 2.79774C12.3763 2.91292 12.3974 3.02952 12.4504 3.13268C12.4504 3.19682 12.1974 3.65646 12.1974 3.78118C12.1974 3.83462 12.1653 3.89164 12.1653 3.94509C12.1653 3.99854 12.1653 4.0306 12.1333 4.0306C11.9302 4.0306 12.1333 3.15762 11.8518 3.15762C11.4954 3.15762 11.7271 4.70406 12.0834 4.70406H12.1333C12.2295 4.70406 12.4504 6.00106 12.4005 6.22911Z" fill="#FCCD97"/>
<path d="M5.32891 15.1515C6.15914 14.307 5.56408 14.3213 6.89672 13.0635C6.42632 12.6754 5.98343 12.2551 5.57121 11.8057C5.26834 12.162 4.85857 12.4613 4.21363 13.0457C3.12329 14.0647 2.6672 15.5114 1.85835 16.5661C1.43821 16.7921 1.03134 17.0419 0.639737 17.3144C0.373846 17.6419 0.177444 18.0202 0.0625 18.4261C0.190117 18.8818 0.482097 19.2741 0.882038 19.5271C0.950197 19.4951 1.00821 19.4449 1.04969 19.382C1.09118 19.3191 1.11454 19.2461 1.11721 19.1708C1.11461 19.0826 1.10023 18.9951 1.07445 18.9107C1.17778 18.6648 1.20273 18.4938 1.29893 18.2836C1.49415 18.2293 1.69507 18.1982 1.89755 18.1909C1.89755 18.4653 2.05076 18.5722 2.16479 18.5722C2.21467 18.5722 3.1126 18.0484 3.1126 17.4818C3.1126 17.3144 3.08053 17.1255 3.08053 16.9723C3.07881 16.9522 3.07881 16.9319 3.08053 16.9117C3.1126 16.2989 4.4488 16.0459 5.32891 15.1515Z" fill="#FCCD97"/>
<path d="M22.1145 14.6951C21.9476 13.968 21.7297 13.2536 21.4625 12.5571C20.9937 13.0789 20.3814 13.4508 19.7023 13.6261C19.8428 13.8033 19.9371 14.0127 19.9766 14.2354C19.7519 14.8452 19.6315 15.4884 19.6203 16.1382C19.6203 16.9434 19.802 18.1514 19.802 18.8747C19.8048 19.1932 19.7543 19.51 19.6524 19.8118C19.0822 20.2358 18.6226 20.6812 18.6226 21.9497C18.6226 22.0923 18.6226 22.2348 18.6226 22.3738C18.625 22.5487 18.6166 22.7236 18.5977 22.8975C18.5977 22.9189 18.6618 22.9439 18.7152 22.9439C18.9611 22.9439 18.954 22.1778 19.2782 21.7858C19.3709 22.0032 19.5027 22.3167 19.5989 22.5555C19.4101 23.1968 18.6939 23.3608 18.7295 23.6672C18.8791 23.6993 18.6903 23.7883 19.1072 23.7883C20.5325 23.7883 20.7071 23.3964 20.9708 22.9011C20.9957 22.4379 21.0598 21.9782 21.0598 21.5079C21.0732 21.1545 21.0113 20.8022 20.8781 20.4746C20.9886 19.8154 21.2344 18.3901 21.2344 18.3901C21.2344 18.3901 22.1145 15.5217 22.1145 14.6951Z" fill="#FCCD97"/>
<path d="M12.1329 4.03044C12.1579 4.03044 12.165 3.97344 12.165 3.94493C12.165 3.91643 12.1971 3.83446 12.1971 3.78102C12.1971 3.6563 12.4501 3.19666 12.4501 3.13252C12.3971 3.02936 12.376 2.91276 12.3895 2.79758C12.3852 2.65937 12.4085 2.52169 12.4581 2.3926C12.5077 2.26351 12.5824 2.14559 12.6781 2.04574C13.0707 2.30983 13.534 2.44895 14.0072 2.44482C14.4307 2.45824 14.8516 2.37285 15.2365 2.1954C15.3638 2.35612 15.4362 2.55344 15.4431 2.75838C15.4262 2.98151 15.3631 3.19869 15.2579 3.39619C15.4619 3.62005 15.5795 3.9094 15.5892 4.21217C15.5892 4.21217 15.6391 4.25493 15.6676 4.25493C15.757 4.00301 15.8667 3.75872 15.9954 3.52447C16.0079 3.50899 16.0257 3.49881 16.0453 3.49596V3.39263C16.0453 0.709537 14.5808 0.492188 13.968 0.492188C13.2553 0.492188 11.8906 0.976781 11.8906 2.86171V3.16459C12.1009 3.25011 11.9405 4.03044 12.1329 4.03044Z" fill="#3F3F3F"/>
<path d="M5.96055 25.377C6.21844 25.1817 6.53509 25.0799 6.85848 25.0884C7.57112 25.0884 9.06054 25.7618 9.35272 26.2393C9.36239 26.254 9.37074 26.2695 9.37766 26.2856C9.23186 26.4953 9.10204 26.7157 8.98928 26.9448C8.81468 27.3011 8.4441 27.4508 8.1733 27.7323C7.9025 28.0138 7.97376 28.6658 6.98675 28.6658C6.61579 28.6879 6.24782 28.5878 5.93918 28.3808C5.73732 28.2211 5.57392 28.0182 5.46106 27.7869C5.34819 27.5556 5.28874 27.3019 5.28711 27.0446C5.31805 26.686 5.42624 26.3383 5.60423 26.0255C5.71469 25.7975 5.76458 25.5267 5.96055 25.377Z" fill="#FCCD97"/>
<path d="M7.59494 28.5348C7.59234 28.7943 7.5661 29.0531 7.51655 29.308C7.29631 29.3446 7.0735 29.3637 6.85024 29.365C5.87392 29.365 4.71231 29.0443 4.46289 27.8435C4.67962 27.457 4.96592 27.1139 5.30737 26.8315C5.30202 26.9027 5.30202 26.9742 5.30737 27.0453C5.309 27.3027 5.36845 27.5564 5.48131 27.7877C5.59418 28.0189 5.75758 28.2219 5.95943 28.3815C6.2684 28.5875 6.63642 28.6864 7.00702 28.663C7.21057 28.6693 7.41252 28.6253 7.59494 28.5348Z" fill="#3F3F3F"/>
<path d="M7.41926 29.6607C7.03799 30.8009 5.99397 31.3354 4.21237 34.7097V34.8451C4.21215 35.2319 4.17154 35.6176 4.09123 35.996C3.84466 35.8257 3.55911 35.7203 3.261 35.6896C2.84363 35.6568 2.42755 35.7674 2.08158 36.0032C2.06918 35.9372 2.06085 35.8706 2.05664 35.8036C2.05664 35.2549 2.45216 34.7062 2.81917 34.1075C2.81917 34.0719 3.11491 30.5621 4.21594 28.3066C4.57226 29.1297 5.4203 29.6963 6.83846 29.6963C7.03443 29.6856 7.23753 29.6856 7.41926 29.6607Z" fill="#3F3F3F"/>
<path d="M11.5518 28.834C11.4657 29.0481 11.421 29.2766 11.4199 29.5074C11.4199 30.1844 11.8012 32.358 12.9806 32.358C13.6042 32.358 14.6553 31.3282 14.9511 30.0775C13.7464 29.8939 12.5906 29.4711 11.5518 28.834Z" fill="#FCCD97"/>
<path d="M19.1065 7.54742C18.0127 6.9337 16.8333 6.48693 15.6074 6.22191C15.6476 6.26684 15.6736 6.32262 15.6823 6.38226C15.8248 7.25168 14.8413 8.52018 13.7759 8.52018C12.9742 8.52018 12.087 8.0819 12.087 7.14478C12.087 6.45708 12.3329 6.5426 12.4006 6.22548C12.4006 6.22548 12.4006 6.22548 12.4006 6.2041H12.2723C8.48459 6.56042 7.85391 8.61995 5.7053 11.0607C5.66254 11.1071 5.34898 11.3636 5.34898 11.4812C5.34898 11.4812 5.34898 11.5133 5.34898 11.556C5.936 12.2318 6.59425 12.8423 7.3123 13.3768C7.86103 12.9279 8.68058 12.0727 9.80655 11.6986C9.85287 12.0549 9.89562 12.4112 9.94551 12.7675C9.97758 13.0169 10.145 13.1238 10.145 13.4802C10.145 13.6156 10.1237 13.7474 10.1237 13.8792C10.1237 14.3959 10.6047 14.8377 10.6047 15.6359C10.6029 15.9052 10.5682 16.1732 10.5014 16.4341C10.4123 16.5231 10.3125 16.6265 10.2092 16.7405C9.46091 17.5565 8.42758 18.9283 8.42758 19.8369V19.8975C7.52965 21.4724 5.2207 25.5523 5.2207 25.9549C5.2678 26.1212 5.35185 26.2747 5.46656 26.4039C5.51645 26.2792 5.57702 26.1545 5.63404 26.0476C5.7445 25.8195 5.79438 25.5487 5.99036 25.3991C6.24824 25.2037 6.56489 25.102 6.88828 25.1105C7.60092 25.1105 9.09034 25.7875 9.38253 26.2649C9.39292 26.2792 9.40131 26.2947 9.40746 26.3112C9.26166 26.5209 9.13183 26.7413 9.01907 26.9704C8.84448 27.3268 8.4739 27.4764 8.2031 27.7543C8.06414 27.9004 8.01781 28.1641 7.84678 28.3779C8.23477 28.5579 8.65564 28.6562 9.08322 28.6665C9.88494 28.6665 10.5085 26.689 11.0501 25.6485C11.164 25.4472 11.3166 25.2704 11.4991 25.1283C11.2888 26.2329 11.0216 28.2211 11.0216 28.2568C11.0216 28.8304 13.8116 30.1274 15.4578 30.1274H15.8141C16.003 29.0228 16.402 26.6854 16.7797 25.6592C17.0459 24.978 17.251 24.2744 17.3926 23.5569C17.4038 23.4766 17.4098 23.3957 17.4104 23.3146C17.4636 22.5333 17.566 21.7562 17.7168 20.9878C17.7846 20.5496 17.8523 20.0721 17.9021 19.5625C17.9796 18.8811 18.0189 18.1959 18.0197 17.5101C18.0197 17.2286 18.1017 16.9115 18.1017 16.6799C18.0961 16.4687 18.0425 16.2615 17.9449 16.0742C18.0126 15.0907 18.23 14.8948 18.23 14.232C18.23 14.061 18.23 13.8935 18.23 13.726C18.2638 13.2929 18.3232 12.8622 18.4081 12.4361C18.4081 12.3934 18.4259 12.3471 18.4366 12.3007C18.0803 12.2758 17.5957 12.0763 17.5957 11.7199C17.5957 11.613 17.5743 11.5097 17.5743 11.4171V11.0999C17.6073 10.6228 17.5762 10.1435 17.4817 9.67466C17.2964 9.00121 15.9566 8.37052 15.5789 8.37052C15.383 8.37052 15.3331 8.42397 15.6894 8.0142C16.3411 8.26389 16.944 8.62566 17.471 9.08316C17.6118 9.19952 17.7205 9.35003 17.7866 9.52032C17.8527 9.69062 17.8741 9.87502 17.8487 10.0559C17.8487 10.4122 17.8095 10.9146 17.8095 11.2745C17.8095 12.0299 18.7431 12.201 18.7431 12.201C18.7431 12.2651 18.6647 12.3007 18.5506 12.3079C18.5791 12.3506 18.6112 12.3969 18.6362 12.4433C18.8184 12.7384 18.9781 13.0469 19.1136 13.3661C19.1502 13.4654 19.2178 13.5501 19.3064 13.6079C19.395 13.6657 19.4998 13.6934 19.6054 13.6868C20.0598 13.6008 20.4921 13.4235 20.8761 13.1657C21.2601 12.9079 21.5879 12.5748 21.8395 12.1867C20.6102 9.57133 20.0436 8.52018 19.1065 7.54742ZM9.61057 10.1949C9.64122 10.6271 9.71281 11.0554 9.82436 11.4741C9.76389 11.4701 9.70325 11.4786 9.6462 11.499C9.44458 11.1235 9.33239 10.7064 9.31838 10.2804C9.31838 8.55582 10.9076 8.10685 11.7556 7.76479C11.7877 7.88593 11.8554 8.08903 11.9088 8.24938C11.2425 8.42754 9.61057 8.99765 9.61057 10.1949Z" fill="#2C62FF"/>
<path d="M17.8592 19.5237C17.8093 20.0368 17.7416 20.5143 17.6739 20.949C17.523 21.7174 17.4207 22.4945 17.3675 23.2758C17.3668 23.3568 17.3609 23.4378 17.3496 23.5181C17.208 24.2356 17.0029 24.9391 16.7368 25.6204C16.3591 26.6466 15.96 28.984 15.7711 30.0886H15.4148C13.7686 30.0886 10.9786 28.7916 10.9786 28.2179C10.9786 28.1823 11.2459 26.194 11.4561 25.0894C11.2736 25.2316 11.1211 25.4084 11.0071 25.6097C10.4548 26.6501 9.84196 28.6277 9.04024 28.6277C8.61266 28.6173 8.1918 28.5191 7.80381 28.3391C7.97841 28.1253 8.02473 27.8616 8.16013 27.7155C8.43094 27.4376 8.80151 27.2737 8.9761 26.9316C9.08886 26.7025 9.21869 26.4821 9.36449 26.2724C9.35834 26.2559 9.34995 26.2403 9.33956 26.2261C9.04737 25.7486 7.55795 25.0716 6.84531 25.0716C6.52192 25.0631 6.20526 25.1649 5.94738 25.3602C5.75141 25.5099 5.70152 25.7807 5.59106 26.0087C5.53405 26.1299 5.47348 26.2546 5.42359 26.3651C5.30887 26.2358 5.22483 26.0824 5.17773 25.9161C5.17773 25.5028 7.49025 21.4229 8.38461 19.8587V19.7981C8.38461 18.8895 9.43219 17.5176 10.1662 16.7017C10.3759 16.9946 10.6551 17.2309 10.9786 17.3894C11.2058 17.5198 11.4443 17.6295 11.6913 17.7172C12.1707 17.8851 12.6597 18.0243 13.1557 18.1341C13.5691 18.2873 13.8684 17.8276 14.4527 18.2231C15.0371 18.6187 15.1369 18.4512 15.6607 18.6971C16.1845 18.9429 16.8294 19.5308 17.0361 19.481C17.1685 19.4297 17.3103 19.407 17.4522 19.4144C17.594 19.4218 17.7327 19.459 17.8592 19.5237Z" fill="#3F3F3F"/>
<path d="M18.504 12.2616C18.5326 12.3044 18.5646 12.3507 18.5896 12.397H18.3508C18.3508 12.3543 18.3686 12.308 18.3793 12.2616C18.023 12.2367 17.5384 12.0371 17.5384 11.6808C17.5384 11.5739 17.517 11.4706 17.517 11.378V11.0608C17.5501 10.5837 17.5189 10.1044 17.4244 9.63555C17.2391 8.96211 15.8994 8.33142 15.5217 8.33142C15.3257 8.33142 15.2758 8.38487 15.6321 7.9751C16.2838 8.22478 16.8867 8.58655 17.4137 9.04406C17.5545 9.16042 17.6632 9.31092 17.7293 9.48122C17.7954 9.65151 17.8168 9.8359 17.7914 10.0168C17.7914 10.3731 17.7522 10.8755 17.7522 11.2354C17.7522 11.9908 18.6858 12.1619 18.6858 12.1619C18.6965 12.226 18.6181 12.2545 18.504 12.2616Z" fill="#3F3F3F"/>
<path d="M9.60664 10.1943C9.6373 10.6265 9.70888 11.0548 9.82043 11.4735C9.75996 11.4695 9.69932 11.4779 9.64227 11.4984C9.44065 11.1228 9.32846 10.7058 9.31445 10.2798C9.31445 8.55519 10.9037 8.10623 11.7517 7.76416C11.7838 7.88531 11.8515 8.08841 11.9049 8.24875C11.2386 8.42691 9.60664 8.99702 9.60664 10.1943Z" fill="#3F3F3F"/>
<path d="M7.51276 29.3076L7.42011 29.6639C7.2277 29.6817 7.03529 29.6889 6.83931 29.6889C5.41403 29.6889 4.57668 29.1223 4.2168 28.2992L4.45909 27.8467C4.70495 29.0475 5.88437 29.3682 6.84644 29.3682C7.0698 29.3657 7.29261 29.3455 7.51276 29.3076Z" fill="#2C62FF"/>
<path d="M4.32033 37.8808C4.32033 38.1765 4.20631 38.4224 3.40816 38.4224C3.0162 38.4224 1.76196 38.3618 1.76196 37.7098C1.74634 37.3152 1.81434 36.9217 1.9615 36.5553C1.9615 36.484 2.06483 36.3842 2.05058 36.3201C2.39221 36.0565 2.81278 35.9159 3.24425 35.921C3.53556 35.9535 3.81263 36.0643 4.04597 36.2417C4.04597 36.2417 4.1208 36.3059 4.1208 36.313C4.16712 36.4662 4.13861 36.5588 4.18137 36.7156L4.32033 37.8808Z" fill="#3F3F3F"/>
<path d="M4.121 36.3204C4.121 36.3204 4.04617 36.2527 4.04617 36.2492C3.81283 36.0718 3.53577 35.9609 3.24445 35.9285C2.81299 35.9234 2.39242 36.064 2.05078 36.3276L2.08285 36.0033C2.42882 35.7675 2.84489 35.6569 3.26227 35.6897C3.56038 35.7204 3.84593 35.8258 4.09249 35.9962L4.121 36.3204Z" fill="#2C62FF"/>
<path d="M10.4745 29.821C10.2963 30.0633 9.72978 30.9256 10.0184 31.7095C10.0588 31.8344 10.1298 31.9471 10.2251 32.0374C10.3203 32.1277 10.4367 32.1926 10.5636 32.2262C10.6496 32.249 10.7382 32.261 10.8272 32.2618C10.9418 32.2607 11.0557 32.2439 11.1657 32.2119C10.5422 33.3913 10.6847 35.4188 9.29151 35.344C8.70714 35.3155 8.46484 34.5031 8.46484 33.7619C8.46484 32.4827 8.91381 32.3188 9.5338 31.0147C9.69415 30.6584 9.53381 28.9053 10.8486 28.9053C11.0652 28.9088 11.2768 28.9703 11.4615 29.0834C11.4462 29.1517 11.4343 29.2207 11.4259 29.2901C11.2373 29.3003 11.0536 29.3535 10.8887 29.4455C10.7239 29.5375 10.5822 29.6659 10.4745 29.821Z" fill="#3F3F3F"/>
<path d="M11.886 31.488C11.6615 31.5863 11.4681 31.744 11.3266 31.9441C11.1077 32.0587 10.8559 32.094 10.614 32.0439C10.5169 32.0173 10.4279 31.9673 10.3546 31.8984C10.2813 31.8294 10.226 31.7436 10.1935 31.6484C9.94408 30.9357 10.4643 30.1589 10.6282 29.9309C10.7175 29.8011 10.835 29.6932 10.9721 29.6154C11.1091 29.5376 11.262 29.492 11.4192 29.4819V29.5033C11.4432 30.1891 11.6018 30.8634 11.886 31.488Z" fill="#3F3F3F"/>
<path d="M10.6289 29.9309C10.465 30.159 9.9448 30.95 10.1942 31.6484C10.2267 31.7436 10.282 31.8295 10.3553 31.8984C10.4286 31.9673 10.5176 32.0173 10.6147 32.0439C10.8566 32.094 11.1084 32.0587 11.3273 31.9441L11.1634 32.2114C11.0534 32.2434 10.9395 32.2602 10.8249 32.2613C10.7359 32.2604 10.6473 32.2484 10.5612 32.2256C10.4344 32.192 10.318 32.1271 10.2227 32.0368C10.1275 31.9466 10.0564 31.8338 10.0161 31.709C9.72744 30.9251 10.294 30.0628 10.4722 29.8205C10.5806 29.6645 10.7234 29.5354 10.8896 29.4434C11.0558 29.3513 11.2409 29.2987 11.4307 29.2896C11.4307 29.2896 11.4307 29.4249 11.4307 29.482C11.2716 29.4904 11.1165 29.5353 10.9775 29.6131C10.8385 29.691 10.7193 29.7997 10.6289 29.9309Z" fill="#2C62FF"/>
</svg>
