<svg width="30" height="38" viewBox="0 0 30 38" fill="none" xmlns="http://www.w3.org/2000/svg">
<path d="M21.9598 10.4186C21.2407 10.0807 20.4609 9.39623 20.3223 7.05691C20.5321 7.00046 20.7259 6.8959 20.8883 6.75153C21.0508 6.60716 21.1773 6.42694 21.258 6.22516C22.393 6.22516 21.3273 4.70894 22.406 4.70894C22.4925 4.70243 22.5794 4.70243 22.6659 4.70894C23.0471 5.01651 22.9908 4.78258 23.3027 5.88726H23.6016C23.5844 5.75947 23.5757 5.63066 23.5756 5.5017C23.5756 4.88222 24.0435 4.56165 24.611 4.37104C24.5504 3.93783 23.9049 3.76454 24.1431 3.00643C24.2795 2.94547 24.427 2.91304 24.5764 2.91113C25.4774 2.91113 25.6594 3.29669 26.0449 3.29669C26.1414 3.29161 26.2359 3.26653 26.3222 3.22304C26.5233 3.582 26.6542 3.97604 26.7077 4.38403C26.659 4.66855 26.5432 4.93735 26.3698 5.16813C26.3654 5.18665 26.3654 5.20594 26.3698 5.22445C26.3698 5.35008 26.803 6.29447 26.803 6.4071C26.803 6.59772 26.5518 6.6627 26.2875 6.68003C26.2529 7.22587 25.7417 8.06629 25.4558 8.17459C25.1185 8.2675 24.7702 8.31413 24.4204 8.31321C23.9482 10.293 23.5756 10.4143 21.9598 10.4186Z" fill="#FCCD97"/>
<path d="M21.2815 6.22481C22.3775 6.19449 21.3378 4.70859 22.4078 4.70859C22.4943 4.70208 22.5812 4.70208 22.6677 4.70859C23.049 5.01617 22.9927 4.78223 23.3046 5.88691H23.6035C23.5862 5.75912 23.5775 5.63031 23.5775 5.50136C23.5775 4.88187 24.0453 4.5613 24.6128 4.37069C24.5522 3.93748 23.9067 3.7642 24.145 3.00608C24.2814 2.94512 24.4288 2.9127 24.5782 2.91079C25.4793 2.91079 25.6612 3.29634 26.0468 3.29634C26.1433 3.29127 26.2377 3.26618 26.324 3.22269L26.4107 3.40464C26.5671 3.14008 26.6633 2.84424 26.6922 2.53823C26.6518 2.25728 26.5481 1.98918 26.389 1.75412L26.1377 1.7108C25.319 1.55918 24.9204 0.922363 23.7638 0.922363C23.3657 0.931756 22.9701 0.988471 22.5854 1.09131C22.0953 1.40387 21.6949 1.83864 21.4237 2.35288C21.1525 2.86711 21.0199 3.44308 21.0389 4.02412C21.0389 4.82122 21.3725 5.24576 21.3725 5.67464C21.3534 5.85971 21.323 6.04344 21.2815 6.22481Z" fill="#3F3F3F"/>
<path d="M29.0639 9.65625C29.0639 9.65625 29.0639 9.68224 29.0639 9.69524C29.0639 9.70823 29.0336 10.0375 29.0033 10.2844C28.4525 10.8214 27.806 11.2505 27.0972 11.5494C27.0972 11.701 27.0972 11.8006 27.0972 11.8309C27.0972 13.919 27.9896 14.6944 27.8683 15.9811C27.617 16.3146 27.3484 16.6395 27.0928 16.9948C26.7463 17.467 26.9455 18.0648 26.5686 18.6453C26.4332 18.8697 26.3655 19.1284 26.3737 19.3904C26.3737 19.7153 27.1795 19.62 27.617 19.8236C27.4004 20.2568 27.1102 20.7203 27.1102 20.7203C27.1102 20.8416 27.2228 20.9066 27.3614 20.9369C28.3188 20.1442 27.9506 19.9752 28.2278 19.3991C28.2278 19.3601 28.5094 19.1131 28.7563 18.8316C28.9405 18.1115 29.0251 17.3696 29.0076 16.6265C29.0076 15.5219 29.4668 13.2302 29.4668 10.7003C29.4329 10.3214 29.2933 9.95968 29.0639 9.65625Z" fill="#FCCD97"/>
<path d="M23.8584 15.9986C24.3696 16.0462 26.0591 17.1162 24.9458 17.1162C24.5646 17.1162 24.5126 16.7827 23.9148 16.7697C24.1755 17.0265 24.3419 17.3639 24.387 17.7271C24.3891 17.7429 24.3891 17.7589 24.387 17.7747C24.2925 17.8018 24.1949 17.8164 24.0967 17.818C23.5812 17.818 23.6635 17.0902 22.1819 17.3848C22.0023 17.4221 21.8195 17.4424 21.6361 17.4455C21.2872 17.4159 20.9496 17.3078 20.6484 17.1292C19.1181 17.3256 17.5775 17.4312 16.0347 17.4455C15.6767 17.4461 15.32 17.4009 14.9734 17.3112C14.6033 16.7851 14.4064 16.1566 14.4102 15.5134C14.4102 14.9589 14.4925 14.7596 14.4925 14.543C14.4925 14.4564 14.4925 14.3567 14.4925 14.2701C14.4925 14.0795 14.5185 13.9148 14.6745 13.8672C15.2015 13.6708 15.7634 13.5853 16.325 13.6159C16.7272 13.6074 17.1273 13.6765 17.5033 13.8195V13.8542C17.4581 14.2221 17.3724 14.5838 17.2477 14.9329H17.3214C18.3225 15.3257 19.3797 15.5568 20.4534 15.6173C22.9227 15.6173 21.7531 14.7509 25.7429 14.8073C25.7963 14.8766 25.8238 14.9624 25.8209 15.0498C25.8209 15.2535 25.4353 15.3228 24.9545 15.4831C25.2307 15.5073 25.4941 15.6111 25.7126 15.782C25.7475 15.8041 25.7762 15.8349 25.7959 15.8713C25.8157 15.9077 25.8257 15.9485 25.8252 15.9899C25.8252 16.1155 25.7472 16.2065 25.5653 16.2065C24.6599 16.2065 25.0064 16.0159 24.127 16.0159H23.8888" fill="#FCCD97"/>
<path d="M7.75312 25.0742C6.48816 25.9796 5.01092 28.4056 8.90545 28.4056H9.09172C9.40363 27.9074 9.98846 28.0244 10.452 27.3919C9.83467 27.2855 9.25772 27.0139 8.78249 26.6058C8.30726 26.1977 7.95153 25.6684 7.75312 25.0742Z" fill="#FCCD97"/>
<path d="M20.6952 23.6832C21.514 25.0781 22.4497 24.5496 23.2555 25.6976C23.4147 25.9401 23.5482 26.1985 23.654 26.4687C23.732 26.626 23.8559 26.7559 24.0093 26.8412C24.392 27.0796 24.8321 27.2099 25.2829 27.2181C25.6709 27.2433 26.0533 27.1158 26.3486 26.8629V26.8932L26.236 27.7336C25.9325 27.8728 25.6037 27.9481 25.2699 27.9546C24.88 27.9781 24.4907 27.8989 24.141 27.7248C23.7913 27.5507 23.4934 27.2879 23.2772 26.9625C23.1009 26.7206 23.0041 26.43 22.9999 26.1308C22.993 26.1436 22.9843 26.1553 22.9739 26.1654C22.9133 26.2304 22.792 26.3517 22.792 26.395V26.5293C22.813 26.6785 22.8538 26.8241 22.9133 26.9625C23.2598 27.8636 24.3342 28.6217 26.1623 28.1885C25.9717 29.1372 24.5551 30.9567 23.836 32.1437C23.7435 32.6558 23.7347 33.1796 23.81 33.6946C22.7183 33.9501 21.9559 34.7212 21.7046 32.6289C21.7381 32.5482 21.767 32.4658 21.7913 32.3819C22.0295 31.5978 22.3024 31.9487 22.3024 30.2159C22.3024 29.722 22.2764 29.2325 22.2764 28.743C22.245 28.1241 22.3655 27.5069 22.6273 26.9452C21.9472 26.8194 21.2955 26.5713 20.7039 26.2131C20.5306 25.3467 20.3313 24.7748 19.9241 24.3676C19.6411 24.0794 19.3354 23.8143 19.0101 23.5749C18.5769 23.5272 18.0527 23.5055 17.5372 23.4925C16.7298 24.181 15.819 24.738 14.8383 25.1431C13.2398 25.9142 12.8066 26.0874 11.9401 27.4347C11.7192 27.4347 11.5069 27.4607 11.2817 27.4607C8.9207 27.4607 7.81602 25.9055 7.38281 23.7525C8.33587 22.5611 10.5539 20.7633 10.8225 20.1482C11.3856 18.8876 12.0008 19.5157 12.7329 18.1294C13.3116 17.534 13.9219 16.97 14.561 16.4399C14.6581 16.7501 14.8044 17.0426 14.9942 17.3064C15.3409 17.3961 15.6975 17.4412 16.0556 17.4406C17.5984 17.4264 19.139 17.3208 20.6693 17.1244C20.9704 17.3029 21.3081 17.411 21.657 17.4406C21.8404 17.4376 22.0232 17.4173 22.2028 17.38C22.5773 17.2782 22.9735 17.2887 23.3421 17.4103C23.4764 19.1821 24.971 18.4197 24.971 19.6847C24.971 19.7323 24.971 19.78 24.971 19.8233L26.1406 22.1843C26.4096 22.5462 26.7143 22.88 27.0504 23.1806C27.0504 23.3452 27.0504 23.5099 27.0504 23.6615C27.0402 24.0896 26.9013 24.5048 26.6518 24.8528C26.4724 24.0297 26.1608 23.2412 25.7291 22.5178C25.6078 22.2969 25.5342 22.0066 25.2959 21.9027C24.7544 21.6601 23.2382 21.6341 22.7356 21.6341C21.2108 21.6211 20.7082 22.7691 20.6952 23.6832Z" fill="#3F3F3F"/>
<path d="M9.14045 28.3311C9.14259 28.3527 9.14259 28.3745 9.14045 28.3961C9.06074 28.7114 8.94897 29.0177 8.80688 29.3102C7.13904 29.2365 5.84375 28.877 5.84375 27.3478C5.84375 27.2914 5.84375 27.2351 5.84375 27.1788C6.0398 26.936 6.26871 26.7217 6.52388 26.542C6.13833 27.4691 6.48056 28.4048 8.90219 28.4048H9.08846L9.14045 28.3311Z" fill="#3F3F3F"/>
<path d="M4.50731 35.899C4.51214 36.1146 4.46614 36.3283 4.37301 36.5228C3.90515 36.8867 3.86616 36.7914 3.55859 37.1596C3.46449 37.3101 3.39707 37.4757 3.35931 37.6491C3.12971 37.6491 2.86979 37.7358 2.56221 37.7358C2.10301 37.7358 2.08135 37.7358 1.79544 37.7358H1.63082C1.42916 37.7374 1.22974 37.6934 1.04745 37.6072C0.865169 37.5209 0.704731 37.3945 0.578125 37.2376C0.764404 36.3452 1.18028 36.4708 1.99038 35.0326V34.803C2.11768 34.7695 2.24865 34.7521 2.38026 34.751C3.14279 34.8142 3.86944 35.1022 4.46832 35.5784C4.48927 35.6841 4.50231 35.7913 4.50731 35.899Z" fill="#3F3F3F"/>
<path d="M29.0152 9.15306C28.7103 8.63882 28.2738 8.21519 27.7507 7.92583C27.2275 7.63647 26.6367 7.49185 26.0391 7.50688C25.9198 7.78969 25.7212 8.03192 25.4672 8.20433C25.13 8.29724 24.7817 8.34388 24.4319 8.34296C23.951 10.2881 23.5654 10.4137 21.9626 10.418C21.2435 10.0801 20.4637 9.39565 20.3251 7.05634C20.5142 7.00491 20.6897 6.91272 20.8394 6.78625C20.989 6.65977 21.1092 6.50207 21.1915 6.32422H20.7583C20.0088 6.32422 16.7771 6.90038 15.9583 7.60218C14.845 8.55523 13.9093 10.1538 14.2732 14.1306L14.4595 14.1696C14.4595 14.018 14.5071 13.8923 14.6371 13.8533C15.1641 13.657 15.726 13.5714 16.2876 13.6021C16.6898 13.5935 17.0899 13.6627 17.4659 13.8057V13.8404C17.4207 14.2082 17.335 14.57 17.2103 14.919H17.284C18.2851 15.3119 19.3423 15.5429 20.416 15.6035C22.3785 15.6035 22.0406 15.0663 23.821 14.8627C24.4189 13.6844 25.5929 12.7183 26.4203 11.9906C26.4203 11.9429 26.4203 11.8996 26.4203 11.8519C26.4203 10.5913 24.5315 10.0585 24.3799 10.0455C24.4232 9.93716 24.6095 9.50829 24.7264 9.50829C24.8434 9.50829 26.6802 10.2187 26.6802 11.5184C26.6866 11.602 26.6866 11.686 26.6802 11.7696L26.7452 11.709C27.5898 11.3976 28.3611 10.9153 29.0109 10.2924C29.0412 10.0455 29.0715 9.76388 29.0715 9.70323C29.066 9.51872 29.0472 9.33485 29.0152 9.15306ZM20.6067 9.77687H20.5633C18.2197 9.77687 17.9208 13.0086 17.9208 11.1285C17.9208 10.2837 19.9092 9.27869 20.2644 9.27869C20.4724 9.27869 20.5547 9.56027 20.6326 9.79421L20.6067 9.77687Z" fill="#2C62FF"/>
<path d="M27.0287 23.6485C27.0186 24.0766 26.8797 24.4918 26.6302 24.8398C26.0429 25.807 25.1161 26.5206 24.0309 26.8412C23.7914 26.9054 23.5462 26.9461 23.2988 26.9625C23.1819 26.9692 23.0648 26.9692 22.9479 26.9625H22.6577C21.9775 26.8367 21.3259 26.5887 20.7342 26.2304C20.561 25.364 20.3617 24.7922 19.9545 24.3849C19.6714 24.0967 19.3657 23.8316 19.0404 23.5922C18.6072 23.5445 18.083 23.5229 17.5675 23.5099C16.7601 24.1983 15.8493 24.7553 14.8686 25.1604C13.2398 25.9142 12.8066 26.0874 11.9401 27.4347C11.7192 27.4347 11.5069 27.4607 11.2817 27.4607C8.9207 27.4607 7.81602 25.9055 7.38281 23.7525C8.33587 22.5611 10.5539 20.7633 10.8225 20.1482C11.3856 18.8876 12.0008 19.5157 12.7329 18.1294C13.3116 17.534 13.9219 16.97 14.561 16.4399C14.6581 16.7501 14.8044 17.0426 14.9942 17.3064C15.3409 17.3961 15.6975 17.4412 16.0556 17.4406C17.5984 17.4264 19.139 17.3208 20.6693 17.1244C20.9704 17.3029 21.3081 17.411 21.657 17.4406C21.8404 17.4376 22.0232 17.4173 22.2028 17.38C22.5773 17.2782 22.9735 17.2887 23.3421 17.4103C23.4764 19.1821 24.971 18.4197 24.971 19.6847C24.971 19.7323 24.971 19.78 24.971 19.8233L26.1406 22.1843C26.4096 22.5462 26.7143 22.88 27.0504 23.1806C27.0244 23.3323 27.0287 23.4969 27.0287 23.6485Z" fill="#3F3F3F"/>
<path d="M26.3857 26.8408C26.6629 26.0957 27.1481 25.108 25.7099 22.5087C25.5886 22.2878 25.5149 21.9976 25.2767 21.8936C24.7352 21.651 23.219 21.625 22.7164 21.625C21.2089 21.625 20.7064 22.773 20.6934 23.6871C21.6507 25.3202 22.7771 24.2849 23.6522 26.4726C23.8081 26.8625 24.6182 27.222 25.281 27.222C25.6851 27.2457 26.0822 27.1087 26.3857 26.8408Z" fill="#FCCD97"/>
<path d="M26.1767 28.2056L26.1719 28.2201V28.2056H26.1767Z" fill="#3F3F3F"/>
<path d="M26.2376 27.7339L26.1727 28.2061C24.3489 28.6393 23.2745 27.8812 22.9279 26.9801C22.8685 26.8418 22.8277 26.6961 22.8066 26.5469V26.4083L22.9929 26.1744V26.144C22.9971 26.4433 23.094 26.7339 23.2702 26.9758C23.4864 27.3011 23.7843 27.564 24.134 27.7381C24.4837 27.9122 24.873 27.9914 25.2629 27.9678C25.6006 27.9584 25.9325 27.8788 26.2376 27.7339Z" fill="#2C62FF"/>
<path d="M8.80462 29.3111L8.62267 29.6446C7.65662 29.6923 5.66387 29.3717 5.44727 27.6909L5.84582 27.1797C5.84582 27.236 5.84582 27.2923 5.84582 27.3486C5.84148 28.8822 7.13677 29.2374 8.80462 29.3111Z" fill="#2C62FF"/>
<path d="M8.62295 29.6442C7.57025 31.3294 5.65115 31.3294 4.04396 34.5221C4.22167 34.7881 4.35619 35.0805 4.44251 35.3885C3.86634 34.912 3.03458 34.4614 2.70968 34.4614C2.48692 34.4559 2.26432 34.4777 2.04688 34.5264C2.19164 33.9194 2.50208 33.3645 2.94361 32.9236C3.54011 31.0757 4.38075 29.3157 5.44321 27.6904C5.66415 29.3539 7.6569 29.6918 8.62295 29.6442Z" fill="#3F3F3F"/>
<path d="M4.4821 35.5576C3.88803 35.0845 3.16787 34.7968 2.41137 34.7302C2.27975 34.7313 2.14878 34.7487 2.02148 34.7822L2.05181 34.5136C2.26926 34.4649 2.49185 34.4431 2.71462 34.4486C3.05252 34.4486 3.88427 34.8818 4.44744 35.3757L4.4821 35.5576Z" fill="#2C62FF"/>
<path d="M23.8902 34.0836C22.7292 34.2395 21.7242 34.8114 21.4902 33.1002L21.7155 32.667C21.9668 34.7594 22.7292 33.9883 23.8209 33.7327L23.8902 34.0836Z" fill="#2C62FF"/>
<path d="M25.6188 37.1212C25.6209 37.2392 25.6019 37.3566 25.5625 37.4678C25.1024 37.8083 24.5451 37.992 23.9727 37.992C23.6128 37.8828 23.2744 37.7129 22.972 37.4895C22.8896 37.1732 22.7554 36.675 22.4998 35.8519C21.9106 35.4187 21.1568 34.9855 21.1568 34.1581C21.147 33.7784 21.2644 33.4063 21.4904 33.1011C21.7113 34.8122 22.7294 34.2404 23.8904 34.0845C24.1258 34.9827 24.6437 35.7815 25.3676 36.3631C25.5113 36.5918 25.5976 36.8519 25.6188 37.1212Z" fill="#3F3F3F"/>
<path d="M20.6337 9.78899H20.5644C18.2208 9.78899 17.9219 13.0207 17.9219 11.1406C17.9219 10.2958 19.9103 9.2908 20.2655 9.2908C20.4735 9.27347 20.5558 9.55505 20.6337 9.78899Z" fill="#3F3F3F"/>
<path d="M26.701 11.5095C26.7074 11.5932 26.7074 11.6772 26.701 11.7608L26.4584 11.9774C26.4584 11.9297 26.4584 11.8864 26.4584 11.8388C26.4584 10.5781 24.5696 10.0453 24.418 10.0323C24.4613 9.92399 24.6476 9.49512 24.7645 9.49512C24.8815 9.49512 26.701 10.2099 26.701 11.5095Z" fill="#3F3F3F"/>
</svg>
