<svg width="34" height="39" viewBox="0 0 34 39" fill="none" xmlns="http://www.w3.org/2000/svg">
<path d="M8.9945 4.30168C8.53531 2.91542 8.03711 3.69086 8.03711 4.1544C8.03711 5.02081 9.41904 5.64462 9.41904 6.9659C9.41904 8.51678 9.90423 9.46983 11.4508 9.46983C13.4479 9.46983 14.5179 6.30743 13.2226 5.32405C13.1359 5.25474 13.1316 5.06846 13.1316 4.83886C13.1316 4.43165 13.1879 4.02443 13.1879 3.63021C13.1879 3.01939 13.0753 2.7638 12.889 2.60352C12.7079 2.78453 12.4922 2.92728 12.2548 3.02328C12.0174 3.11928 11.7631 3.16657 11.5071 3.16235C11.0975 3.15669 10.698 3.03502 10.3548 2.81145C10.3125 2.78719 10.2649 2.77379 10.2162 2.77247C10.0515 2.77247 9.58366 3.11037 9.58366 3.36163C9.58366 3.53924 9.6963 3.79483 9.6963 3.91613C9.6963 4.03743 9.36273 4.11973 9.26309 4.31901C9.16345 4.51828 9.2631 4.79554 9.05082 4.79554C8.99884 4.79554 8.99017 4.73489 8.99017 4.65691C8.99017 4.57893 8.99017 4.50096 8.99017 4.42298C8.99883 4.38313 9.0003 4.34205 8.9945 4.30168Z" fill="#FCCD97"/>
<path d="M8.99459 4.30174C9.00181 4.34185 9.00181 4.38293 8.99459 4.42304C8.99459 4.50102 8.99459 4.58332 8.99459 4.65697C8.99459 4.73061 8.99458 4.7956 9.05523 4.7956C9.25884 4.7956 9.18087 4.51401 9.26751 4.31907C9.35415 4.12413 9.70072 4.09814 9.70072 3.91619C9.70072 3.73424 9.58808 3.5393 9.58808 3.36169C9.58808 3.11043 10.0559 2.77252 10.2206 2.77252C10.2693 2.77385 10.3169 2.78725 10.3592 2.81151C10.7024 3.03508 11.102 3.15675 11.5115 3.16241C11.7676 3.16663 12.0218 3.11934 12.2592 3.02334C12.4966 2.92733 12.7123 2.78459 12.8934 2.60357C12.9981 2.70752 13.0788 2.83314 13.1297 2.9716C13.1806 3.11007 13.2005 3.25801 13.188 3.405C13.4609 2.92414 13.6732 2.40863 12.6682 0.805764C12.3216 0.25126 12.261 0 10.9137 0C9.12888 0 8.31445 1.29962 8.31445 2.88949C8.31537 3.10103 8.32984 3.31228 8.35778 3.52197C8.53539 3.46132 8.76932 3.62161 8.99459 4.30174Z" fill="#3F3F3F"/>
<path d="M4.00582 20.7802C4.30473 20.7802 4.21376 21.5946 4.59065 21.5946C4.74911 21.5696 4.89838 21.5039 5.02386 21.404C4.68596 20.8581 5.45706 20.4899 3.11342 19.4589C3.28237 18.2806 4.0968 17.791 4.15744 16.1579C4.27008 16.0106 4.543 15.6727 4.82459 15.3478C4.05183 15.1496 3.34315 14.7557 2.76686 14.2041C1.9481 15.3001 1.46724 15.5774 1.46724 17.2365C1.46724 18.103 1.51488 18.9694 1.51488 19.4935C1.51488 20.295 1.125 21.0228 1.125 21.391C1.125 22.0841 2.26 22.9549 2.58924 22.9549C2.68021 22.9549 2.76686 22.9072 2.84917 22.9072C3.15241 22.9072 2.87516 23.1325 3.56829 23.0155C3.57381 23.0799 3.60388 23.1396 3.65228 23.1824C3.70068 23.2251 3.76369 23.2476 3.82822 23.2451C3.92554 23.2451 4.01901 23.2071 4.08863 23.1391C4.15826 23.0711 4.1985 22.9785 4.20077 22.8812C4.20077 22.6863 4.16611 22.8596 4.38704 22.8596C4.40914 22.862 4.4315 22.8598 4.4527 22.8531C4.47389 22.8464 4.49346 22.8353 4.51017 22.8207C4.52687 22.806 4.54034 22.788 4.54972 22.7679C4.5591 22.7477 4.56419 22.7258 4.56466 22.7036C4.56466 22.5087 3.81954 21.404 3.81954 21.0054C3.83687 20.8971 3.94084 20.7802 4.00582 20.7802Z" fill="#FCCD97"/>
<path d="M32.2462 11.2929C32.0469 11.072 31.1112 10.9507 30.4224 10.6301C28.1134 9.56878 26.229 5.90386 23.6731 5.90386C23.4001 5.90386 23.0926 5.87787 22.8066 5.87354C23.077 6.41217 23.2249 7.00389 23.2398 7.60636C23.2394 8.01824 23.1885 8.42851 23.0882 8.828C23.16 8.80655 23.2343 8.7949 23.3091 8.79334C23.7424 8.79334 25.4362 9.97166 26.7531 10.4872C27.3423 10.7168 29.4217 11.0244 29.4217 12.5232C29.4217 12.6575 29.4217 12.7962 29.4217 12.9348C29.4217 14.347 30.9206 15.0012 31.0462 15.0012C31.1719 15.0012 31.2412 14.8756 31.2412 14.7413C31.1978 14.4957 31.0833 14.2682 30.9119 14.0871C31.2976 14.1792 31.6491 14.3791 31.9256 14.6633C32.0686 14.6633 32.4065 14.4857 32.4065 14.2041C32.4799 14.1738 32.5447 14.126 32.5953 14.0648C32.6459 14.0036 32.6808 13.931 32.6967 13.8532C32.7574 13.459 33.7234 12.9608 32.2462 11.2929Z" fill="#FCCD97"/>
<path d="M7.45038 30.3247C7.44522 30.615 7.38033 30.901 7.25977 31.1651L7.45038 30.3247Z" fill="#3F3F3F"/>
<path d="M5.63739 36.6972L5.59375 36.6143L5.63739 36.6972Z" fill="#3F3F3F"/>
<path d="M19.5814 27.8338C19.665 27.5061 19.6816 27.165 19.6303 26.8307C19.5789 26.4965 19.4606 26.1761 19.2825 25.8887C19.1725 25.9332 19.084 26.0186 19.0355 26.1269C18.9791 26.3107 18.9527 26.5023 18.9576 26.6944C18.9576 26.937 18.9879 27.1883 18.9879 27.4309C18.9676 27.8718 18.8006 28.2934 18.5133 28.6286C18.2261 28.9637 17.835 29.1932 17.4023 29.2807C17.6296 29.3213 17.8603 29.3402 18.0911 29.337C18.2904 29.337 18.4897 29.337 18.689 29.337C19.1356 28.941 19.4476 28.4155 19.5814 27.8338Z" fill="#3F3F3F"/>
<path d="M14.5205 8.01845C15.1963 8.01845 16.8945 8.93252 17.1544 9.31807C18.1378 10.817 17.9299 11.1635 18.3674 11.1635H18.4281C18.4281 11.0856 18.4281 11.0119 18.4281 10.9339C19.4686 9.93576 20.8276 9.33605 22.2663 9.24009C22.4785 9.24009 22.6995 9.24009 22.9031 9.26175C23.14 8.73546 23.2541 8.16215 23.2366 7.58525C23.1909 6.85245 22.9822 6.13909 22.6258 5.49719C22.4854 5.45443 22.3394 5.43254 22.1926 5.43221H21.1313C19.8679 5.44001 18.6074 5.55158 17.3624 5.76578C16.0238 5.76578 15.7595 5.09431 14.018 5.09431C13.7283 5.09031 13.4387 5.10769 13.1516 5.14629C13.1546 5.21062 13.1825 5.27125 13.2296 5.31524C14.5292 6.29862 13.4505 9.46103 11.4534 9.46103C9.90688 9.46103 9.42169 8.50798 9.42169 6.9571C9.41892 6.60513 9.32007 6.26061 9.13579 5.96072C8.60294 5.96072 6.45857 6.98742 5.3149 8.12676C4.90769 8.52964 2.28245 13.6241 2.7893 14.1916C3.50147 14.8616 4.39752 15.3036 5.36255 15.4609C5.66579 15.2183 6.03835 14.8718 6.07734 14.8328C6.25062 14.6682 6.18997 14.3996 6.33726 14.1916L7.45927 12.853C7.56838 12.7382 7.69758 12.6442 7.84049 12.5758C8.35167 13.6891 9.88522 15.0451 11.3061 17.0768C11.1951 17.3556 11.1166 17.6464 11.0722 17.9432C11.0722 17.9432 11.1199 18.1035 11.1848 18.3764C10.8643 18.5757 10.5957 18.6277 10.1711 19.6111C9.13145 20.3085 9.69462 19.7194 8.05277 21.8247C8.05277 21.8247 4.85137 24.7359 4.85137 25.2384C4.89605 25.5561 5.02633 25.8556 5.22826 26.1048C5.3685 25.9474 5.52214 25.8025 5.68745 25.6716C8.52495 27.9546 9.41303 27.634 8.10908 28.821C8.66751 29.2368 9.3063 29.5318 9.98487 29.6874C10.1084 29.3984 10.2814 29.133 10.496 28.9033C10.496 28.9033 11.0765 28.5568 14.0873 25.9185C14.3689 26.0745 14.8065 26.0312 15.101 26.1481C15.1617 25.2341 15.1833 24.32 15.2873 23.4059C15.4932 23.3483 15.706 23.3191 15.9198 23.3193C17.2194 23.3193 19.7363 25.2991 19.7363 25.5936C19.7339 25.627 19.7226 25.659 19.7035 25.6864C19.6845 25.7139 19.6584 25.7357 19.628 25.7496V25.7712C19.8375 26.136 19.9709 26.5394 20.02 26.9571C20.0692 27.3748 20.0331 27.7982 19.9139 28.2015C19.7842 28.6715 19.5419 29.1027 19.2078 29.4578C19.314 29.7221 19.367 30.0048 19.3638 30.2896L19.8923 30.2549C19.9163 29.9467 20.016 29.6491 20.1825 29.3885C20.0897 29.6699 20.0897 29.9736 20.1825 30.2549L22.2879 30.112C22.2922 30.0297 22.2922 29.9473 22.2879 29.865C22.2663 29.5059 22.1843 29.1529 22.0453 28.821C21.7854 28.0976 21.3739 28.5741 20.9233 26.8759C20.8434 26.5944 20.6822 26.3427 20.4598 26.1525C20.5291 25.0651 21.1833 24.1121 21.3869 23.0031C21.5097 21.7463 21.5676 20.4839 21.5601 19.2212C21.5601 17.0985 20.8454 15.9505 19.9096 15.227C19.602 14.3606 19.9486 14.5035 18.532 12.9353C18.4647 12.4588 18.43 11.9783 18.4281 11.4971C18.3276 11.5232 18.2242 11.5363 18.1205 11.5361C17.2064 11.5361 17.0505 8.68992 14.5335 8.68992C14.4036 8.68992 14.2693 8.71592 14.148 8.71592C13.9487 8.71592 13.8707 8.61628 13.8707 8.54263C13.8707 8.46898 14.018 8.25239 14.0483 8.08777L14.5205 8.01845ZM7.45061 11.2588C7.45061 11.5664 7.66722 11.692 7.72786 12.0386C7.72786 12.0646 7.66287 12.0819 7.62389 12.0819C7.38156 11.7237 7.22448 11.3147 7.16469 10.8863C7.16499 10.7901 7.18721 10.6953 7.22967 10.609C7.66287 9.74261 8.20872 9.42637 9.25275 8.70725C9.95887 9.56067 7.45061 9.8899 7.45061 11.2588ZM20.7154 19.8407C20.7154 19.6804 20.7154 19.5158 20.7154 19.3511C20.8641 19.4287 20.9854 19.5501 21.0629 19.6988C21.1403 19.8476 21.1703 20.0166 21.1486 20.1829C21.1486 20.6984 20.4078 23.8521 19.9356 24.5929C19.784 24.8269 19.4461 24.7619 19.4461 24.3633C19.4201 24.3633 20.7024 21.7814 20.7024 19.8407H20.7154ZM20.1999 30.2116H19.9226C19.9265 30.2948 19.9441 30.3767 19.9746 30.4542L20.2518 30.3372C20.2271 30.297 20.2054 30.255 20.1869 30.2116H20.1999Z" fill="#2C62FF"/>
<path d="M21.5753 19.1785C21.5827 20.4413 21.5249 21.7036 21.402 22.9604C21.1984 24.0694 20.5356 25.0225 20.4749 26.1098C20.2329 25.9202 19.9467 25.795 19.6432 25.7459C17.997 25.4124 15.1032 26.1228 15.1032 26.1228C14.8086 26.0059 14.371 26.0492 14.0895 25.8932C11.0787 28.5315 10.4982 28.878 10.4982 28.878C10.2836 29.1077 10.1106 29.3731 9.987 29.6621C9.30843 29.5065 8.66965 29.2114 8.11122 28.7957C9.41084 27.6087 8.54443 27.9293 5.6896 25.6463C5.52429 25.7772 5.37065 25.9221 5.2304 26.0795C5.02848 25.8303 4.8982 25.5308 4.85352 25.2131C4.85352 24.7106 8.0549 21.7994 8.0549 21.7994C9.69676 19.6941 9.13359 20.2832 10.1733 19.5857C10.6065 18.6024 10.8664 18.5504 11.187 18.3511C11.4978 18.2265 11.8003 18.0817 12.0924 17.9179C12.3566 17.7533 12.322 17.8529 12.6209 17.6233C12.9198 17.3937 12.8852 17.6883 13.3487 17.6233C13.5945 17.6182 13.8347 17.5495 14.0462 17.424C14.5097 17.2248 14.2454 17.4544 14.5747 17.424C14.7345 17.4064 14.8957 17.4064 15.0555 17.424C15.3793 17.4381 15.7013 17.3695 15.9912 17.2248C16.4245 17.0255 16.3638 17.2248 17.0569 17.0602C17.7501 16.8955 18.9804 15.6349 19.6562 15.271L19.9204 15.1367C20.8778 15.9078 21.5753 17.0558 21.5753 19.1785Z" fill="#3F3F3F"/>
<path d="M5.6919 25.6631C8.92795 28.2623 9.62974 27.4869 7.42472 29.4147C6.8139 29.9475 6.1251 30.476 5.30634 30.476C4.48758 30.476 3.66016 30.0125 3.66016 29.0897C3.66016 28.2667 4.30563 27.4219 4.89912 26.5252C5.11491 26.1967 5.38267 25.9056 5.6919 25.6631Z" fill="#FCCD97"/>
<path d="M20.6849 19.3511C20.6681 20.4629 20.4826 21.5657 20.1347 22.6218C19.6019 23.969 19.4199 24.3546 19.4199 24.3546C19.4199 24.3546 19.5282 25.0521 19.9094 24.5842C20.2907 24.1163 21.0618 20.655 21.0618 20.655C21.0618 20.655 21.3477 19.5763 20.6849 19.3511Z" fill="#2C62FF"/>
<path d="M22.2909 30.0684C22.2129 30.4279 19.9819 31.4806 19.423 30.259C19.4028 30.2249 19.3868 30.1886 19.3754 30.1507C19.382 29.9024 19.3301 29.656 19.2238 29.4315H19.2021C19.0014 29.394 18.799 29.3665 18.5956 29.3492C18.2 29.3067 17.8022 29.2865 17.4043 29.2886L19.1371 25.8966H19.2887C19.4018 25.8322 19.5226 25.7827 19.6483 25.7493C19.6768 25.7431 19.7064 25.7431 19.7349 25.7493C19.9959 25.841 20.2458 25.9616 20.4801 26.1089C20.7573 26.3708 20.9452 26.7133 21.0172 27.0879C21.1134 27.5899 21.3871 28.0405 21.7883 28.3572C22.0179 28.5002 22.1696 29.0763 22.1696 29.0763C22.2756 29.3956 22.3168 29.7329 22.2909 30.0684Z" fill="#3F3F3F"/>
<path d="M20.0383 27.4864C19.988 28.2095 19.6931 28.8939 19.2022 29.4272C19.0015 29.3896 18.7991 29.3621 18.5957 29.3448C18.808 29.1716 19.5228 28.5434 19.5834 27.8373C19.6484 27.0618 19.6397 26.3167 19.2628 25.8922H19.2845C19.3975 25.8278 19.5184 25.7783 19.6441 25.7449C19.6726 25.7387 19.7022 25.7387 19.7307 25.7449C19.9705 26.2926 20.076 26.8897 20.0383 27.4864Z" fill="#2C62FF"/>
<path d="M15.2891 23.38C15.4947 23.321 15.7075 23.2904 15.9215 23.2891C17.2211 23.2891 19.7381 25.2688 19.7381 25.5677C19.7381 25.8666 19.1359 25.819 19.0363 26.1266C18.9798 26.3103 18.9535 26.5019 18.9583 26.6941C18.9583 26.9367 18.9886 27.1879 18.9886 27.4305C18.9602 27.9379 18.7407 28.4157 18.3741 28.7678C18.0076 29.1198 17.5214 29.32 17.0132 29.328C16.1468 29.328 15.0508 28.3532 15.0508 26.9193C15.0508 26.8024 15.0508 26.6854 15.0508 26.5684C15.1591 25.5071 15.1678 24.4414 15.2891 23.38Z" fill="#FCCD97"/>
<path d="M21.4317 33.386C21.3797 33.7543 21.2541 34.3001 21.2541 34.3001L21.0548 35.1665C20.4517 35.3011 19.8359 35.3708 19.218 35.3745C18.7848 35.2965 18.3776 34.2351 18.3299 33.9405C18.2823 33.646 19.1963 30.9601 19.1963 30.9601C21.1371 31.7962 22.0685 30.8474 22.1465 30.7651C22.1075 30.9428 21.462 33.1564 21.4317 33.386Z" fill="#3F3F3F"/>
<path d="M22.2913 30.0688L22.1786 30.788C22.1007 30.8703 21.1693 31.819 19.2285 30.9829L19.3931 30.2725H19.4365C19.9823 31.4811 22.2133 30.4284 22.2913 30.0688Z" fill="#2C62FF"/>
<path d="M7.41579 29.7874C7.23486 30.1813 6.94936 30.518 6.59036 30.7609C6.23137 31.0038 5.81263 31.1435 5.37972 31.165C4.99095 31.1681 4.60827 31.0683 4.27048 30.8759C3.9327 30.6834 3.6518 30.405 3.45628 30.069L3.4043 29.965C3.47611 29.7443 3.57199 29.5322 3.69021 29.3325C3.81584 30.0906 4.52196 30.4762 5.31906 30.4762C6.11616 30.4762 6.75731 29.9997 7.34214 29.4971C7.37235 29.5924 7.39695 29.6893 7.41579 29.7874Z" fill="#3F3F3F"/>
<path d="M7.44972 30.307C7.22062 30.7113 6.88402 31.0444 6.47723 31.2692C6.07044 31.494 5.60935 31.6018 5.14506 31.5806C4.78007 31.5542 4.42419 31.4543 4.09884 31.2868C3.77349 31.1193 3.48542 30.8877 3.25195 30.6059L3.38625 30.0687H3.43823C3.63375 30.4047 3.91465 30.6831 4.25243 30.8756C4.59022 31.0681 4.9729 31.1678 5.36167 31.1647C5.79458 31.1433 6.21332 31.0035 6.57231 30.7606C6.93131 30.5177 7.21681 30.181 7.39774 29.7871L7.44972 30.307Z" fill="#2C62FF"/>
<path d="M7.45129 30.3076L7.26068 31.148C6.71051 32.4477 5.15096 33.8036 5.09465 35.5624C5.18037 35.7964 5.28317 36.0237 5.40222 36.2425L5.44554 36.3249C5.2376 36.4591 4.94736 36.5155 4.44484 36.1992C4.22686 36.0651 3.98436 35.9757 3.73148 35.9363C3.47859 35.8969 3.2204 35.9082 2.97194 35.9696L2.82031 36.0086C3.00402 35.5895 3.14903 35.1545 3.25352 34.709C3.40649 34.0253 3.41682 33.3174 3.28385 32.6296C3.28385 32.478 3.23619 32.1444 3.23619 31.9885V30.8448C3.23619 30.7668 3.23619 30.6845 3.23619 30.5979C3.46965 30.8797 3.75774 31.1113 4.08309 31.2788C4.40843 31.4463 4.76432 31.5462 5.12931 31.5726C5.5956 31.5979 6.05972 31.493 6.46979 31.2696C6.87986 31.0462 7.2197 30.7131 7.45129 30.3076Z" fill="#3F3F3F"/>
<path d="M5.82989 37.3811C5.82973 37.6709 5.80946 37.9604 5.76924 38.2475C5.60618 38.2563 5.44277 38.2563 5.27971 38.2475H4.9678C3.69851 38.2475 3.11369 38.9146 1.95703 38.9146C1.42683 38.8557 0.917107 38.6765 0.466797 38.3905C0.518782 36.9305 2.19962 37.4287 2.56351 36.61C2.59817 36.5407 2.62849 36.4757 2.65448 36.4107C2.91268 36.2896 3.1962 36.2323 3.48117 36.2436C3.76614 36.2549 4.04421 36.3345 4.292 36.4757C4.53056 36.6425 4.81135 36.7386 5.1021 36.7529C5.27507 36.7537 5.44476 36.7057 5.59162 36.6143L5.63495 36.6966C5.75152 36.9068 5.81823 37.141 5.82989 37.3811Z" fill="#3F3F3F"/>
<path d="M5.59339 36.6147C5.44652 36.7061 5.27684 36.7542 5.10386 36.7533C4.81312 36.739 4.53233 36.6429 4.29377 36.4761C4.04598 36.3349 3.7679 36.2553 3.48294 36.244C3.19797 36.2327 2.91445 36.29 2.65625 36.4111L2.82953 36.0299L2.98115 35.9909C3.22961 35.9295 3.48781 35.9182 3.74069 35.9576C3.99358 35.997 4.23608 36.0864 4.45405 36.2205C4.95657 36.5367 5.24683 36.4804 5.45477 36.3461L5.59339 36.6147Z" fill="#2C62FF"/>
<path d="M7.44998 11.2591C7.44998 11.5667 7.66659 11.6923 7.72724 12.0389C7.72724 12.0649 7.66225 12.0822 7.62326 12.0822C7.38093 11.7239 7.22385 11.3149 7.16406 10.8865C7.16437 10.7904 7.18659 10.6956 7.22904 10.6093C7.66225 9.74288 8.20809 9.42664 9.25212 8.70752C9.95825 9.56094 7.44998 9.89017 7.44998 11.2591Z" fill="#3F3F3F"/>
<path d="M18.4284 11.4416C18.328 11.4676 18.2246 11.4807 18.1208 11.4805C17.2068 11.4805 17.0508 8.63438 14.5339 8.63438C14.4039 8.63438 14.2696 8.66037 14.1483 8.66037C13.9491 8.66037 13.8711 8.56074 13.8711 8.48709C13.8711 8.41345 14.0184 8.19684 14.0487 8.03223H14.5209C15.1967 8.03223 16.8949 8.94629 17.1548 9.33185C18.1382 10.8307 17.9302 11.1773 18.3678 11.1773L18.4284 11.4416Z" fill="#3F3F3F"/>
</svg>
