<svg width="31" height="38" viewBox="0 0 31 38" fill="none" xmlns="http://www.w3.org/2000/svg">
<path d="M9.09457 12.4085C8.39546 12.268 7.92938 11.4468 7.8591 11.0547C6.30551 11.1768 5.58049 12.6157 2.00353 13.4443C0.594206 13.7698 0.00976562 15.0533 0.00976562 15.3751C0.00976562 15.4898 0.0578512 15.5231 0.146628 15.5231C0.216081 15.5183 0.282748 15.4939 0.338973 15.4528C0.401856 15.7229 0.623806 16.2592 0.79766 16.2592C0.810915 16.2597 0.824128 16.2575 0.836481 16.2527C0.848834 16.2478 0.860052 16.2405 0.869432 16.2311C0.878812 16.2217 0.886159 16.2105 0.890993 16.1982C0.895828 16.1858 0.89805 16.1726 0.89753 16.1593V16.1076C0.898772 15.9662 0.918674 15.8257 0.956715 15.6896C1.98504 14.9794 1.69652 15.6341 3.17613 14.2321C4.61505 13.9621 7.8628 14.3394 9.09457 12.4085Z" fill="#FCCD97"/>
<path d="M8.00264 1.31083H8.25418C8.92371 1.31083 9.62282 0.670898 10.6105 0.670898C11.3503 0.670898 12.5081 0.670901 12.9297 2.36136C13.0333 2.77195 13.2405 4.0962 13.3847 5.08754L13.3588 5.06534C12.8188 4.69544 12.2491 5.11713 11.7867 3.95563C11.7144 3.84943 11.6156 3.7639 11.5002 3.70747C11.3847 3.65104 11.2566 3.62566 11.1283 3.63382C10.555 3.63382 10.5883 4.06661 10.5069 4.65105C10.4699 4.65105 10.2997 4.8619 10.2332 4.78792C10.0038 4.53268 10.0038 3.57833 9.20113 3.7115C9.15662 3.6077 9.12194 3.49996 9.09756 3.38968C9.09954 3.21067 9.12567 3.03275 9.17524 2.86073C8.90236 2.74953 8.60686 2.70514 8.31336 2.73126C8.14734 2.61813 8.02026 2.45655 7.94943 2.26855C7.8786 2.08055 7.86747 1.87529 7.91757 1.68074C7.92867 1.62525 7.99154 1.40331 8.00264 1.31083Z" fill="#3F3F3F"/>
<path d="M13.3846 5.0911L13.3587 5.0689C12.8186 4.699 12.249 5.12069 11.7866 3.9592C11.7142 3.85299 11.6155 3.76746 11.5 3.71103C11.3846 3.6546 11.2564 3.62922 11.1281 3.63738C10.5548 3.63738 10.5881 4.07017 10.5067 4.65461C10.4697 4.65461 10.2996 4.86546 10.233 4.79148C10.0036 4.53624 10.0036 3.58189 9.20096 3.71506C9.15644 3.61126 9.12177 3.50352 9.09739 3.39324C9.09937 3.21423 9.1255 3.03631 9.17506 2.86429C8.90219 2.75309 8.60669 2.7087 8.31318 2.73482C8.29434 2.85719 8.28568 2.98092 8.2873 3.10472C8.2873 3.39325 8.32798 3.67067 8.32798 3.95549C8.32798 4.45486 8.51664 4.19223 8.51664 4.60282C8.51664 4.91354 8.40197 5.18727 8.41307 5.4351C8.41307 5.50169 8.47595 5.57567 8.61282 5.57567C8.76402 5.58119 8.91512 5.56246 9.0604 5.52018C9.0604 5.57197 9.0604 5.62006 9.0604 5.66814C9.0604 5.96407 9.14917 5.91598 9.28973 5.99366C9.27124 6.05654 9.21206 6.08983 9.21206 6.14162C9.21206 6.1934 9.37481 6.33397 9.39331 6.46343C9.4118 6.5929 9.53017 7.03308 9.76321 7.03308C9.91117 7.03308 10.3809 6.9739 10.5289 6.9739C11.2946 6.9739 11.302 8.08361 11.7903 8.08361C12.2083 8.08361 12.3488 7.49916 12.9 6.9739C13.2746 6.62312 13.6864 6.31428 14.1281 6.05285C13.8278 5.77645 13.5764 5.45128 13.3846 5.0911Z" fill="#FCCD97"/>
<path d="M20.3459 24.3108C20.1975 24.0298 20.0738 23.7365 19.976 23.4342C19.6468 22.5945 19.2769 22.3948 18.907 21.544C19.0197 21.0582 19.0853 20.5627 19.103 20.0644C19.103 18.6772 18.0155 18.0817 17.4644 16.4134V16.3912C17.2757 15.8327 17.2091 15.9769 17.2091 14.6527C17.2091 13.4209 17.3164 12.5738 17.3164 11.5788C17.3164 10.9315 17.2794 10.3692 17.2387 9.95862C18.1265 9.42966 19.3767 10.6281 19.4581 7.44698C19.4766 6.84034 16.129 6.55552 15.9884 6.46674C15.3521 6.17086 14.6682 5.9905 13.9688 5.93408C14.0095 5.98217 14.0575 6.03025 14.1056 6.08204C13.6632 6.34224 13.2512 6.65119 12.8776 7.00311C12.3412 7.51727 12.2006 8.11281 11.7679 8.11281C11.2796 8.11281 11.2722 7.00311 10.5065 7.00311C10.4177 7.00311 10.2069 7.02159 10.0219 7.04009C9.50405 7.57645 9.59653 8.70835 8.78644 9.6664C8.44243 10.0696 7.82838 10.5061 7.82838 10.9796C7.82838 11.3495 8.40174 12.4592 9.28211 12.4592C9.65907 12.4092 10.0196 12.2739 10.3363 12.0634V12.1226C10.3363 12.9881 11.7494 15.8549 11.7494 16.4874C11.7494 16.5799 11.7494 16.6724 11.7494 16.7648C11.7497 16.8887 11.7596 17.0124 11.779 17.1347C11.8788 17.7155 12.1784 18.115 12.2228 19.1618C12.1264 19.1298 12.0237 19.1209 11.9232 19.1359C9.58542 19.9349 7.48438 21.3553 7.48438 21.5921C7.48438 21.9139 8.36474 22.7757 8.59408 23.1198C8.87894 23.5929 9.1263 24.0876 9.33389 24.5994C9.35721 24.6393 9.38316 24.6776 9.41156 24.714L9.54474 24.8546L10.8394 26.2195C11.0089 26.4524 11.2622 26.6102 11.5459 26.6597C12.2975 26.0159 13.1482 25.4975 14.0649 25.1246C15.3596 26.5229 16.0106 29.1936 16.6025 29.1936C16.6025 29.1936 19.6764 27.6474 19.8613 27.4476C20.812 26.4489 21.3409 26.5266 21.3409 25.9939C21.3409 25.4612 20.6603 24.825 20.3459 24.3108ZM9.7112 8.9155C9.70602 8.87745 9.70602 8.83888 9.7112 8.80083C9.7112 8.43092 10.4806 7.56906 10.9504 7.56906H11.0428C11.1279 7.56906 11.1538 7.69852 11.1538 7.7725C11.139 7.7799 10.5805 7.91306 9.7112 8.9155ZM11.2611 23.5488C10.7942 24.0089 10.3626 24.5035 9.97012 25.0285C9.89228 24.9999 9.82399 24.9501 9.773 24.8847C9.72201 24.8193 9.69034 24.741 9.6816 24.6585C9.6816 23.4527 12.7962 22.4095 15.0785 20.4898C15.1155 20.4602 15.1783 20.4898 15.2412 20.5267C15.3041 20.5637 15.7739 20.7561 15.7739 20.8745C15.7739 21.5329 12.2709 22.5945 11.2611 23.5488ZM16.1105 11.712C16.1105 11.8229 15.9551 11.8377 15.8664 11.8377C15.5704 11.8377 13.6026 10.6762 13.4546 10.2619L12.5335 7.99444C12.5335 7.91306 12.6926 7.81318 12.7555 7.72071C13.0662 8.28296 13.2955 8.87851 13.5508 9.44816C14.1315 10.7243 15.7702 11.4567 15.8516 11.4567C16.2531 11.1215 16.6099 10.7361 16.9132 10.31V10.2398C16.9132 10.1917 16.9132 9.99931 16.9687 9.99931C17.0242 9.99931 17.0612 10.3359 17.0612 10.4247C17.0575 11.3569 16.1105 10.9537 16.1105 11.7046V11.712Z" fill="#2C62FF"/>
<path d="M19.7817 27.522C19.3119 27.829 17.3181 28.8425 16.7559 29.1237C16.9075 29.5934 17.6288 30.385 19.1972 30.385C19.2749 30.385 19.5671 30.4738 19.6411 30.4738C19.9555 30.4738 20.3476 28.9387 20.3476 28.3839C20.3476 28.0398 20.2477 28.0509 19.9592 27.7106C19.9 27.644 19.8408 27.5812 19.7817 27.522Z" fill="#FCCD97"/>
<path d="M20.4766 30.7329C19.9402 30.5812 19.6406 30.6108 19.6406 30.474C19.955 30.474 20.3471 28.9389 20.3471 28.3803C20.3471 28.04 20.2473 28.0474 19.9772 27.7145C20.0549 27.6788 20.1396 27.6611 20.2251 27.6627C20.4137 27.6627 20.595 27.6627 20.7947 27.6627C20.8749 28.6969 20.7672 29.7371 20.4766 30.7329Z" fill="#3F3F3F"/>
<path d="M28.6067 32.1421C28.4198 32.5423 28.1559 32.9018 27.83 33.2C27.7338 33.2999 27.6413 33.3998 27.5599 33.4922C26.8435 32.697 25.9181 32.119 24.8892 31.824C23.5798 31.4541 21.93 31.1138 20.8203 30.8252C21.1697 29.8277 21.3033 28.7674 21.2124 27.7144C22.357 27.7933 23.4536 28.2047 24.3677 28.898C25.2687 29.5837 26.2099 30.2149 27.1863 30.7882C27.5562 30.8548 27.9261 30.9029 28.2591 30.9399C28.5032 31.2728 28.7547 31.7278 28.6067 32.1421Z" fill="#3F3F3F"/>
<path d="M30.6331 32.0613C30.6331 32.7345 30.0856 33.2598 30.0856 33.9774C30.0856 35.6974 29.024 37.6135 28.3841 37.6135H28.3434C28.2243 37.494 28.1303 37.352 28.0668 37.1958C28.0033 37.0395 27.9716 36.8722 27.9735 36.7036C27.9735 36.3337 28.0179 35.9379 28.0179 35.5532C28.0179 35.4348 27.881 34.4435 27.7885 33.7517L27.7441 33.6999C27.8329 33.6038 27.9291 33.4965 28.0327 33.3892C28.3847 33.0648 28.6688 32.6738 28.8686 32.2388C28.9248 32.0244 28.9314 31.8001 28.8878 31.5828C28.8442 31.3655 28.7516 31.161 28.6171 30.9849C29.7934 31.1069 30.6331 31.2179 30.6331 32.0613Z" fill="#3F3F3F"/>
<path d="M18.7676 9.63317L18.8933 9.71825C19.1227 10.9611 19.5518 10.828 19.5518 12.3742C19.5518 12.5369 19.5518 12.6997 19.5518 12.8624C19.5518 13.765 19.0783 13.7021 19.0783 14.6897C19.0783 15.1743 19.1079 15.7995 19.6147 15.7995H19.6331C19.8736 16.0954 20.1436 16.2914 20.2176 16.2396C20.7429 15.8697 21.4309 15.4406 21.3828 14.9487C21.3495 14.5788 21.2311 14.453 21.2311 14.2939C21.2311 14.1349 21.3569 14.0276 21.3569 13.6725C21.2826 13.2156 21.0769 12.7902 20.765 12.4481V12.4074C20.765 11.0795 21.135 9.94759 21.135 9.25217C21.135 8.03149 20.3175 7.64309 19.4778 7.46924C19.426 8.89336 19.1449 9.42603 18.7676 9.63317Z" fill="#FCCD97"/>
<path d="M9.5498 25.1621C8.88937 26.0428 8.05926 26.7823 7.10844 27.3371L7.07144 27.2039C6.92348 26.834 6.15039 26.7859 6.15039 26.3975C6.15039 26.0091 7.37846 25.9832 8.58064 24.7552C8.60653 24.7293 8.65093 24.7552 8.68052 24.7552C9.01034 24.7797 9.31965 24.9245 9.5498 25.1621Z" fill="#3F3F3F"/>
<path d="M13.207 33.7409C12.8333 33.7558 12.4594 33.7159 12.0973 33.6225C11.7274 33.556 11.3575 33.4857 10.9876 33.4598C11.089 33.2381 11.1408 32.997 11.1392 32.7533C11.1392 32.7163 11.1392 32.4721 11.1392 32.2428C10.8914 31.8507 10.6509 31.4475 10.3513 31.0554C8.74224 28.9433 7.98025 29.2059 7.24414 27.6375C7.92476 27.4452 9.60042 26.0358 9.83346 25.4551C11.1873 27.0309 12.26 30.778 12.7927 31.5178C13.0701 31.9136 13.3179 32.2243 13.5325 32.4795C13.5473 32.9974 13.5066 33.6669 13.207 33.7409Z" fill="#3F3F3F"/>
<path d="M14.4987 34.2315C14.4987 35.3079 13.4408 35.3116 12.3606 35.6224C11.4692 36.303 10.6924 36.8208 9.77132 36.8208C9.30923 36.837 8.84836 36.7642 8.41378 36.6063C8.07347 35.3819 10.0635 34.8974 10.8403 33.7285C11.2419 33.7572 11.641 33.8128 12.0351 33.8949C12.3715 33.9653 12.7128 34.0098 13.0561 34.0281C13.1307 34.031 13.2054 34.0235 13.278 34.0059C13.696 33.9023 13.7959 33.3253 13.8033 32.8296L13.9512 33.0071C14.2881 33.3271 14.4849 33.7672 14.4987 34.2315Z" fill="#3F3F3F"/>
<path d="M8.55311 24.7665C8.579 24.7443 8.62339 24.7665 8.65298 24.7665C8.94948 24.7831 9.2314 24.9005 9.45197 25.0994C9.53382 25.0791 9.61416 25.0531 9.69241 25.0217L9.40758 24.7221C9.13756 24.3744 9.17824 24.0377 8.5827 23.1019C8.42734 22.8615 7.94647 22.3621 7.67644 21.9922C6.56674 22.5101 5.21289 23.5421 5.21289 24.5815C5.21789 24.927 5.30833 25.2659 5.47614 25.568C5.64395 25.87 5.88392 26.1259 6.17464 26.3126C6.43727 26.0093 7.51368 25.8466 8.55311 24.7665Z" fill="#FCCD97"/>
<path d="M21.339 25.998C21.339 26.5307 20.8211 26.453 19.8594 27.4518C19.6744 27.6515 16.6005 29.1977 16.6005 29.1977C16.0087 29.1977 15.3577 26.5233 14.063 25.1288C13.1462 25.5016 12.2956 26.02 11.544 26.6639C11.2603 26.6144 11.0069 26.4565 10.8374 26.2237L9.54278 24.8587L9.33193 24.6035C9.12434 24.0917 8.87699 23.597 8.59213 23.1239C8.37389 22.7799 7.48242 21.918 7.48242 21.5962C7.48242 21.3521 9.58717 19.939 11.9213 19.14C12.0218 19.125 12.1244 19.1339 12.2209 19.1659C12.1765 18.1191 11.8769 17.7196 11.777 17.1389L12.2098 17.1167C12.6389 17.0871 12.4946 17.2017 12.7091 17.1167C12.9263 17.072 13.1382 17.005 13.3417 16.9169C13.5969 16.7764 14.0815 16.9465 14.3996 16.9169C14.6404 16.889 14.8751 16.8229 15.095 16.7209C15.4353 16.6062 15.4057 16.7468 15.6018 16.7209C15.8068 16.6756 16.0065 16.6086 16.1973 16.5211C16.423 16.436 16.3934 16.5803 17.0444 16.5211C17.1869 16.5169 17.3264 16.4789 17.4513 16.4102V16.4323C18.0025 18.1006 19.09 18.6962 19.09 20.0833C19.0723 20.5816 19.0066 21.0771 18.8939 21.5629C19.2638 22.4211 19.6337 22.6134 19.9518 23.4531C20.0496 23.7554 20.1734 24.0488 20.3217 24.3298C20.6621 24.8254 21.339 25.4469 21.339 25.998Z" fill="#3F3F3F"/>
<path d="M15.0786 20.4819C15.0786 20.4819 12.9443 21.9615 12.1601 22.4498C11.3759 22.9381 9.84821 23.6076 9.68175 24.6692C9.67966 24.7547 9.70727 24.8383 9.75988 24.9058C9.81248 24.9732 9.88683 25.0203 9.97027 25.0391C9.97027 25.0391 11.2353 23.2377 12.6706 22.6903C14.1058 22.1428 15.3893 21.4659 15.774 20.8777C15.5956 20.6686 15.3496 20.5285 15.0786 20.4819Z" fill="#2C62FF"/>
<path d="M17.0608 10.4174C17.0608 11.3569 16.1102 10.9537 16.1102 11.7046C16.1102 11.8156 15.9548 11.8304 15.866 11.8304C15.5701 11.8304 13.6022 10.6689 13.4543 10.2546L12.5332 7.9871C12.5332 7.90572 12.6923 7.80585 12.7551 7.71338C13.0659 8.27563 13.2952 8.87118 13.5504 9.44083C14.1312 10.717 15.7699 11.4494 15.8512 11.4494C16.2527 11.1142 16.6095 10.7288 16.9128 10.3027V10.2324C16.9128 10.1843 16.9128 9.99198 16.9683 9.99198C17.0238 9.99198 17.0608 10.3286 17.0608 10.4174Z" fill="#3F3F3F"/>
<path d="M11.1407 7.78017C11.1407 7.78017 10.5821 7.91334 9.71287 8.91578C9.70769 8.87773 9.70769 8.83915 9.71287 8.80111C9.71287 8.4312 10.4823 7.56934 10.952 7.56934H11.0445C11.1148 7.59893 11.1407 7.70619 11.1407 7.78017Z" fill="#3F3F3F"/>
<path d="M9.83402 25.4585C9.59358 26.0393 7.91793 27.4486 7.2447 27.6409L7.11523 27.3376C8.06606 26.7829 8.89616 26.0433 9.55659 25.1626L9.83402 25.4585Z" fill="#2C62FF"/>
<path d="M13.8008 32.8264C13.8008 33.3221 13.6935 33.8992 13.2755 34.0027C13.203 34.0204 13.1283 34.0278 13.0536 34.0249C12.7104 34.0067 12.3691 33.9621 12.0327 33.8917C11.6386 33.8096 11.2394 33.754 10.8379 33.7253L10.9896 33.459C11.3262 33.4849 11.7072 33.5551 12.0993 33.6217C12.4614 33.7151 12.8353 33.755 13.209 33.7401C13.5086 33.6661 13.5493 33.0003 13.516 32.4824L13.8008 32.8264Z" fill="#2C62FF"/>
<path d="M20.8169 30.8246L20.4766 30.7322C20.7604 29.7402 20.8631 28.7052 20.7799 27.6768L21.209 27.7138C21.2999 28.7668 21.1662 29.8271 20.8169 30.8246Z" fill="#2C62FF"/>
<path d="M28.8663 32.2341C28.6665 32.6691 28.3823 33.0601 28.0303 33.3845C27.9267 33.4918 27.8306 33.599 27.7418 33.6952L27.5605 33.4918C27.6419 33.3993 27.7344 33.2994 27.8306 33.1996C28.1565 32.9014 28.4204 32.5419 28.6074 32.1416C28.7553 31.7273 28.5038 31.2613 28.2375 30.9395L28.6074 30.9801C28.7431 31.1556 28.837 31.3599 28.8819 31.5772C28.9268 31.7945 28.9214 32.0192 28.8663 32.2341Z" fill="#2C62FF"/>
</svg>
