<svg width="38" height="24" viewBox="0 0 38 24" fill="none" xmlns="http://www.w3.org/2000/svg">
<path opacity="0.5" d="M2.43137 4.25914L1.12855 1.27148L0.607422 22.9999L2.43137 21.3703V4.25914Z" fill="#3F3F3F"/>
<path opacity="0.5" d="M35.2631 4.25926L36.8265 1L37.3477 22.7284L35.2631 21.642V4.25926Z" fill="#3F3F3F"/>
<path opacity="0.5" d="M36.8261 1.54297H1.12891V4.25902H36.305L36.8261 1.54297Z" fill="#3F3F3F"/>
<path fill-rule="evenodd" clip-rule="evenodd" d="M1.89206 1.71387L2.93431 4.42992L2.45046 4.63166L1.4082 1.91561L1.89206 1.71387ZM36.2864 1.91561L35.2442 4.63166L34.7603 4.42992L35.8026 1.71387L36.2864 1.91561ZM6.07971 1.81474V3.98758H5.55858V1.81474H6.07971ZM9.7276 1.81474V3.98758H9.20647V1.81474H9.7276ZM13.1149 1.81474V3.98758H12.5938V1.81474H13.1149ZM16.7628 1.81474V3.98758H16.2417V1.81474H16.7628ZM21.1924 1.81474V21.0987H20.6713V1.81474H21.1924ZM25.1008 1.81474V21.0987H24.5797V1.81474H25.1008ZM28.7487 1.81474V3.98758H28.2276V1.81474H28.7487ZM32.3966 1.81474V3.98758H31.8755V1.81474H32.3966ZM9.7276 21.0987V4.53079H10.2487V21.0987H9.7276ZM13.3755 21.0987V4.53079H13.8966V21.0987H13.3755ZM17.2839 21.0987V4.53079H17.8051V21.0987H17.2839ZM28.4882 21.0987V4.53079H29.0093V21.0987H28.4882ZM31.8755 21.0987V4.53079H32.3966V21.0987H31.8755Z" fill="black"/>
<path fill-rule="evenodd" clip-rule="evenodd" d="M3.47399 4.531C3.04227 4.531 2.6923 4.89581 2.6923 5.34582V21.2832C2.6923 21.7706 2.44179 22.2206 2.03586 22.4623L0.737067 23.236L0.478516 22.7643L1.77731 21.9907C2.02086 21.8456 2.17117 21.5756 2.17117 21.2832V5.34582C2.17117 4.5958 2.75446 3.98779 3.47399 3.98779H34.2205C34.94 3.98779 35.5233 4.5958 35.5233 5.34582V21.2077C35.5233 21.5297 35.7052 21.8215 35.9875 21.9523L37.7136 22.7519L37.502 23.2483L35.7759 22.4487C35.3054 22.2307 35.0022 21.7444 35.0022 21.2077V5.34582C35.0022 4.89581 34.6522 4.531 34.2205 4.531H3.47399Z" fill="black"/>
<path fill-rule="evenodd" clip-rule="evenodd" d="M5.96683 8.33323V4.53076H6.48796V8.33323H37.0867V8.87644H6.48796V12.9505H37.0867V13.4937H6.48796V17.2962H37.0867V17.8394H6.48796V21.0987H37.0867V21.6419H1.12891V21.0987H5.96683V17.8394H1.12891V17.2962H5.96683V13.4937H1.12891V12.9505H5.96683V8.87644H1.12891V8.33323H5.96683Z" fill="black"/>
<path fill-rule="evenodd" clip-rule="evenodd" d="M0.0859375 1.81494C0.0859375 1.21492 0.55257 0.728516 1.12819 0.728516H36.8254C37.401 0.728516 37.8676 1.21492 37.8676 1.81494V22.7285C37.8676 23.0285 37.6343 23.2717 37.3465 23.2717C37.0587 23.2717 36.8254 23.0285 36.8254 22.7285V1.81494L1.12819 1.81494V22.7285C1.12819 23.0285 0.894875 23.2717 0.607064 23.2717C0.319254 23.2717 0.0859375 23.0285 0.0859375 22.7285V1.81494Z" fill="url(#paint0_linear_4680_111556)"/>
<defs>
<linearGradient id="paint0_linear_4680_111556" x1="-4.34364" y1="11.8643" x2="44.3817" y2="11.8643" gradientUnits="userSpaceOnUse">
<stop offset="0.0635437" stop-color="white"/>
<stop offset="0.127261" stop-color="#E0E0E0"/>
<stop offset="0.830511" stop-color="#E0E0E0"/>
<stop offset="0.877709" stop-color="white"/>
</linearGradient>
</defs>
</svg>
