<svg width="17" height="28" viewBox="0 0 17 28" fill="none" xmlns="http://www.w3.org/2000/svg">
<path d="M12.5511 17.1176L12.4819 27.0001H0.607422C0.607422 27.0001 1.63966 22.1845 3.16806 17.1176C3.62212 15.6123 4.11996 14.0849 4.64755 12.6549C8.56197 1.00098 15.4829 1.00098 15.4829 1.00098L15.6074 17.1176H12.5511Z" fill="white" fill-opacity="0.42"/>
<path fill-rule="evenodd" clip-rule="evenodd" d="M15.7076 0.776855L15.8355 17.3418H12.7759L12.7067 27.2242H0.326172L0.384151 26.9538L0.60651 27.0001C0.384151 26.9538 0.384142 26.9538 0.384151 26.9538L0.387224 26.9395L0.396249 26.8978C0.404228 26.8611 0.41611 26.8067 0.431765 26.7357C0.463073 26.5937 0.509471 26.3853 0.569913 26.1195C0.690792 25.5878 0.867858 24.8264 1.09273 23.9064C1.54242 22.0668 2.1836 19.5922 2.94931 17.0537C3.40393 15.5466 3.9028 14.0157 4.43194 12.5813C6.40224 6.7172 9.13811 3.75982 11.4063 2.27114C12.5391 1.52764 13.5503 1.1539 14.2823 0.966163C14.6481 0.872328 14.9441 0.825006 15.1505 0.801141C15.2538 0.789208 15.3346 0.783138 15.3907 0.78005C15.4187 0.778506 15.4405 0.777707 15.4559 0.777295C15.4635 0.777088 15.4696 0.776979 15.4739 0.77692L15.4792 0.776866L15.481 0.776857L15.4816 0.776856C15.4818 0.776856 15.482 0.776855 15.482 1.00099V0.776855H15.7076ZM15.2649 2.30845L15.3775 16.8935H12.779L12.8325 9.25814L15.2649 2.30845ZM12.4437 8.99498L15.1536 1.25239C14.9686 1.2758 14.7114 1.31926 14.3967 1.39999C13.7087 1.57644 12.7449 1.93107 11.6582 2.64431C9.65887 3.95649 7.22619 6.49409 5.33551 11.4097C6.47082 10.2925 8.00933 9.69534 9.35891 9.37467C10.2379 9.16582 11.049 9.07121 11.6402 9.0287C11.936 9.00743 12.1774 8.99916 12.3454 8.99622C12.3817 8.99558 12.4145 8.9952 12.4437 8.99498ZM4.85337 12.7501C4.36383 14.0784 3.89968 15.4916 3.47233 16.8935H12.3245L12.3766 9.44403C12.3691 9.44415 12.3614 9.44427 12.3535 9.44441C12.1928 9.44722 11.9598 9.45517 11.6732 9.47577C11.0996 9.51702 10.3141 9.60879 9.46538 9.81046C7.76409 10.2147 5.85723 11.0486 4.85337 12.7501ZM12.3213 17.3418H3.34365L0.89916 26.776H12.2553L12.3213 17.3418Z" fill="#DBDEE7"/>
<path fill-rule="evenodd" clip-rule="evenodd" d="M15.6859 0.558585C15.9032 0.596299 16.0616 0.782468 16.0616 1.00006V16.8998C16.0616 17.1473 15.8581 17.348 15.6071 17.348C15.356 17.348 15.1525 17.1473 15.1525 16.8998V3.54716L12.8798 9.7177V26.9992C12.8798 27.2468 12.6763 27.4474 12.4252 27.4474C12.1742 27.4474 11.9707 27.2468 11.9707 26.9992V9.63881C11.9707 9.58662 11.9799 9.53482 11.998 9.48577L15.1798 0.847024C15.2552 0.642504 15.4685 0.520871 15.6859 0.558585Z" fill="url(#paint0_linear_4680_111515)"/>
<defs>
<linearGradient id="paint0_linear_4680_111515" x1="18.3343" y1="-4.37907" x2="11.9181" y2="29.2738" gradientUnits="userSpaceOnUse">
<stop stop-color="#E0E0E0"/>
<stop offset="0.404034" stop-color="white"/>
<stop offset="0.795193" stop-color="#E0E0E0"/>
<stop offset="1" stop-color="white"/>
</linearGradient>
</defs>
</svg>
