<svg width="40" height="23" viewBox="0 0 40 23" fill="none" xmlns="http://www.w3.org/2000/svg">
<path opacity="0.5" d="M2.91663 4.31713L1.12058 4.06104L0.607422 22.244L2.91663 20.9635V4.31713Z" fill="#3F3F3F"/>
<path opacity="0.5" d="M37.2989 4.31689H38.5818L39.3516 22.2437L37.2989 20.7071V4.31689Z" fill="#3F3F3F"/>
<path fill-rule="evenodd" clip-rule="evenodd" d="M1.63281 1.49999C1.63281 1.21711 1.86256 0.987793 2.14597 0.987793H38.3236C38.607 0.987793 38.8368 1.21711 38.8368 1.49999C38.8368 1.78287 38.607 2.01218 38.3236 2.01218H2.14597C1.86256 2.01218 1.63281 1.78287 1.63281 1.49999Z" fill="url(#paint0_linear_4680_111557)"/>
<path opacity="0.5" d="M37.8117 1.75586H2.66036L1.89062 3.29244H38.0683L37.8117 1.75586Z" fill="#3F3F3F"/>
<path fill-rule="evenodd" clip-rule="evenodd" d="M2.66016 1.7561C2.66016 1.61466 2.77503 1.5 2.91674 1.5H37.2983V2.0122H35.4043L36.5015 4.20254L36.0425 4.4316L34.8305 2.0122H33.4496V4.51353H32.9365V2.0122H29.8575V4.51353H29.3444V2.0122H26.2654V22.2439H25.7523V2.0122H22.4167V22.2439H21.9036V2.0122H18.0549V4.51353H17.5417V2.0122H14.4628V4.51353H13.9496V2.0122H11.1273V4.51353H10.6141V2.0122H7.53516V4.51353H7.022V2.0122H5.38452L4.17254 4.4316L3.71356 4.20254L4.81079 2.0122H2.91674C2.77503 2.0122 2.66016 1.89754 2.66016 1.7561ZM11.1273 22.2439V4.56265H11.6404V22.2439H11.1273ZM14.7194 22.2439V4.56265H15.2325V22.2439H14.7194ZM18.5681 22.2439V4.56265H19.0812V22.2439H18.5681ZM29.6009 22.2439V4.56265H30.1141V22.2439H29.6009ZM32.9365 22.2439V4.56265H33.4496V22.2439H32.9365Z" fill="black"/>
<path fill-rule="evenodd" clip-rule="evenodd" d="M3.95469 4.0612H38.5812V4.57339H36.5286V20.3082C36.5286 20.6079 36.7031 20.8802 36.9757 21.0058L39.715 22.2677L39.5 22.7327L36.7607 21.4708C36.3064 21.2615 36.0154 20.8077 36.0154 20.3082V4.57339H4.19963V20.3082C4.19963 20.8077 3.90868 21.2615 3.45434 21.4708L0.715043 22.7327L0.5 22.2677L3.2393 21.0058C3.5119 20.8802 3.68647 20.6079 3.68647 20.3082V4.55117L1.09745 4.31624L1.14391 3.80615L3.95469 4.0612Z" fill="black"/>
<path fill-rule="evenodd" clip-rule="evenodd" d="M7.424 8.15861V4.57324H7.93715V8.15861H39.0943V8.6708H7.93715V12.5123H39.0943V13.0245H7.93715V16.6098H39.6074V17.122H7.93715V20.7074H39.6074V21.2196H7.93715V22.244H7.424V21.2196H0.607422V20.7074H7.424V17.122H0.607422V16.6098H7.424V13.0245H0.607422V12.5123H7.424V8.6708H1.12058V8.15861H7.424Z" fill="black"/>
<path fill-rule="evenodd" clip-rule="evenodd" d="M37.1566 1.54304C37.2745 1.46458 37.4338 1.49638 37.5124 1.61407L39.0519 3.91895C39.078 3.958 39.0928 4.00345 39.0948 4.05034L39.8645 22.4894C39.8674 22.5591 39.8417 22.627 39.7933 22.6773C39.7449 22.7277 39.678 22.7561 39.6081 22.7561H0.608142C0.538857 22.7561 0.472518 22.7282 0.424211 22.6786C0.375905 22.629 0.349738 22.562 0.351662 22.4929L0.864819 4.05389C0.866336 3.9994 0.885236 3.94681 0.918768 3.90377L2.71482 1.5989L3.11988 1.91335L1.37545 4.15199L0.871947 22.2439H39.3407L38.585 4.14336L37.0854 1.89818C37.0068 1.7805 37.0387 1.62149 37.1566 1.54304Z" fill="black"/>
<defs>
<linearGradient id="paint0_linear_4680_111557" x1="-2.72903" y1="11.4878" x2="45.2512" y2="11.4878" gradientUnits="userSpaceOnUse">
<stop offset="0.0635437" stop-color="white"/>
<stop offset="0.127261" stop-color="#E0E0E0"/>
<stop offset="0.830511" stop-color="#E0E0E0"/>
<stop offset="0.877709" stop-color="white"/>
</linearGradient>
</defs>
</svg>
