<svg width="33" height="34" viewBox="0 0 33 34" fill="none" xmlns="http://www.w3.org/2000/svg">
<path d="M25.4499 20.842L25.3564 32.7979H8.27539L11.0972 12.9374L18.2093 1.56173L31.3682 0.5L31.5235 20.5212L25.4499 20.842Z" fill="white" fill-opacity="0.42"/>
<path fill-rule="evenodd" clip-rule="evenodd" d="M31.5437 0.311523L31.7017 20.6857L25.6256 21.0067L25.532 32.9716H8.07031L10.9253 12.8778L18.1038 1.39593L31.5437 0.311523ZM25.6283 20.6586L31.3435 20.3567L31.1956 1.28046L25.6884 12.9761L25.6283 20.6586ZM25.3969 12.7638L31.0786 0.697603L18.378 1.72235L17.7941 12.7638H25.3969ZM17.438 12.7638L17.9947 2.2369L11.4133 12.7638H17.438ZM11.2512 13.1111H17.4196L16.9909 21.2175L8.54476 32.1593L11.2512 13.1111ZM8.63127 32.6242H25.1791L25.2698 21.0255L17.2579 21.4487L8.63127 32.6242ZM17.3535 21.0957L25.2725 20.6774L25.3317 13.1111H17.7757L17.3535 21.0957Z" fill="#DBDEE7"/>
<path fill-rule="evenodd" clip-rule="evenodd" d="M31.7238 0.143053C31.9674 0.196415 32.1405 0.407642 32.1405 0.651475V20.2176C32.1405 20.5054 31.9017 20.7387 31.6071 20.7387C31.3125 20.7387 31.0736 20.5054 31.0736 20.2176V2.97467L26.1997 13.0541V32.646C26.1997 32.9338 25.9609 33.167 25.6663 33.167C25.3716 33.167 25.1328 32.9338 25.1328 32.646V12.9372C25.1328 12.8602 25.1503 12.7843 25.1839 12.7147L31.1247 0.428943C31.2314 0.208466 31.4803 0.0896913 31.7238 0.143053Z" fill="url(#paint0_linear_4680_111368)"/>
<defs>
<linearGradient id="paint0_linear_4680_111368" x1="39.7969" y1="9.29699" x2="21.1641" y2="9.93285" gradientUnits="userSpaceOnUse">
<stop offset="0.507001" stop-color="#E0E0E0"/>
<stop offset="0.553734" stop-color="white"/>
<stop offset="0.72473" stop-color="#E0E0E0"/>
<stop offset="0.827517" stop-color="white"/>
</linearGradient>
</defs>
</svg>
