<svg width="839" height="472" fill="none" xmlns="http://www.w3.org/2000/svg"><g clip-path="url(#clip0_3940_72388)"><path d="M838.5 10c0-5.523-4.477-10-10-10h-818C4.977 0 .5 4.477.5 10v452c0 5.523 4.477 10 10 10h818c5.523 0 10-4.477 10-10V10z" fill="url(#paint0_linear_3940_72388)"/><g clip-path="url(#clip1_3940_72388)"><path d="M147.658 39h842.137l313.975 395H-166.316L147.658 39z" fill="#4AB75C"/><path opacity=".1" d="M539.817 46.813h45.911L554.414 411.12h-77.025l62.428-364.308zm-91.821 0h45.91L400.363 411.12h-77.025L447.996 46.812zm368.078 0h45.911L1017.9 411.12h-77.029L816.074 46.812zm-460.69 0h45.91L244.985 411.12h-77.026L355.384 46.812zm368.077 0h45.91l93.147 364.307h-77.026L723.461 46.812zm-459.899 0h45.911L90.933 411.12H13.909L263.562 46.812zm368.078 0h45.911l30.916 364.307h-77.026l.199-364.308z" fill="#fff"/><path d="M1248.98 411.119H13.908l.664-.969L263.327 47.157l.236-.345h736.155l.236.345L1248.31 410.15l.67.969zM17.885 409.183H1245L998.605 47.503h-733.93l-246.79 361.68z" fill="#fff"/><path d="M28.21 391.196h-.654l-1.275 1.866h.656c2.773-.05 5.52.388 7.998 1.277 2.104.786 3.817 2.014 4.906 3.518 1.126 1.635 1.618 3.455 1.424 5.27-.238 2.274-1.086 4.494-2.498 6.54a17.153 17.153 0 01-.502.73 24.51 24.51 0 01-.538.723h2.663a24.519 24.519 0 001.028-1.452c1.566-2.279 2.504-4.751 2.761-7.282.209-2.02-.346-4.043-1.607-5.859-1.216-1.671-3.125-3.035-5.467-3.907-2.756-.988-5.811-1.477-8.895-1.424zM258.93 54.15h-.397l.485-.707h.397a35.707 35.707 0 005.79-.484 33.92 33.92 0 005.33-1.322 21.46 21.46 0 004.28-1.944c1.106-.648 2.01-1.453 2.654-2.363l.082-.13c.027-.044.052-.088.076-.13a2.944 2.944 0 00.132-.258h1.587c-.02.043-.042.086-.064.129l-.07.129c-.025.043-.05.087-.077.13l-.082.13c-.714 1.015-1.718 1.913-2.948 2.635-1.448.87-3.052 1.6-4.769 2.17a37.8 37.8 0 01-5.952 1.473 39.774 39.774 0 01-6.454.541zm375.166 356.97h-2.657l.2-364.308h1.583l.874 364.308zM257.895 292.342H95.305l.5-.731 130.858-190.953.285-.417h122.705l-.2.417-91.209 190.953-.349.731zm-159.288-1.461H256.29l91.221-189.805H228.119L98.607 290.881z" fill="#fff"/><path d="M189.501 229.135h-50.882l.423-.617 58.51-85.38.328-.479h44.77l-.294.479-52.475 85.38-.38.617zm-47.92-1.234h46.562l52.05-84.284h-41.101l-57.511 84.284zm490.489 1.853a146.103 146.103 0 01-8.665-.254 143.595 143.595 0 01-8.522-.757 137.977 137.977 0 01-8.086-1.216 126.764 126.764 0 01-7.792-1.669 118.472 118.472 0 01-3.69-.98 111.568 111.568 0 01-7.078-2.264 98.275 98.275 0 01-3.363-1.274 93.388 93.388 0 01-3.205-1.351 83.095 83.095 0 01-6.01-2.954 75.09 75.09 0 01-2.784-1.591 67.341 67.341 0 01-2.628-1.661 61.563 61.563 0 01-2.471-1.727 57.975 57.975 0 01-2.304-1.788 51.906 51.906 0 01-2.13-1.84 46.467 46.467 0 01-1.971-1.908 42.573 42.573 0 01-1.791-1.955 38.698 38.698 0 01-1.605-1.994 35.487 35.487 0 01-1.415-2.026 31.899 31.899 0 01-1.244-2.094 29.764 29.764 0 01-1.048-2.121 28.065 28.065 0 01-.848-2.141 25.792 25.792 0 01-.648-2.152 24.612 24.612 0 01-.708-4.448 24.419 24.419 0 01.48-6.665 26.282 26.282 0 011.319-4.344c.283-.713.599-1.42.946-2.12a31.01 31.01 0 011.105-2.031c.398-.67.825-1.335 1.282-1.994.455-.658.939-1.309 1.452-1.953a40.266 40.266 0 011.616-1.904 44.224 44.224 0 011.745-1.821c.607-.599 1.24-1.19 1.898-1.773a52.476 52.476 0 012.044-1.719 58.27 58.27 0 012.181-1.66 64.155 64.155 0 012.294-1.584 70.982 70.982 0 014.964-2.981 80.645 80.645 0 015.414-2.708 88.163 88.163 0 012.864-1.247 99.87 99.87 0 015.999-2.266 107.766 107.766 0 016.385-1.968 122.388 122.388 0 016.658-1.633 128.88 128.88 0 017.013-1.31 137.613 137.613 0 0110.935-1.287 145.322 145.322 0 0111.396-.441 145.322 145.322 0 0118.751 1.209 135.582 135.582 0 017.115 1.129 128.03 128.03 0 016.837 1.473c1.111.273 2.212.56 3.301.86a108.755 108.755 0 016.385 1.968 99.87 99.87 0 016 2.266 89.186 89.186 0 015.626 2.565c.902.452 1.787.915 2.653 1.39a71.033 71.033 0 014.966 2.981 64.155 64.155 0 012.294 1.584 58.31 58.31 0 012.182 1.66 53.27 53.27 0 012.045 1.719 48.357 48.357 0 011.898 1.773c.609.6 1.191 1.207 1.746 1.821a40.292 40.292 0 011.617 1.904c.513.644.997 1.295 1.453 1.953.456.659.884 1.324 1.282 1.994.399.672.767 1.349 1.105 2.031.348.7.664 1.407.948 2.12.285.714.537 1.433.757 2.157a25.526 25.526 0 01.927 4.397 24.4 24.4 0 01.119 4.455 24.703 24.703 0 01-.706 4.448 25.783 25.783 0 01-.647 2.152c-.25.717-.533 1.431-.848 2.141a29.33 29.33 0 01-1.047 2.121 31.899 31.899 0 01-1.244 2.094c-.439.68-.911 1.356-1.413 2.026a38.698 38.698 0 01-1.605 1.994 41.983 41.983 0 01-1.79 1.955 45.876 45.876 0 01-1.971 1.908c-.68.622-1.39 1.236-2.129 1.84a57.219 57.219 0 01-2.303 1.788 62.247 62.247 0 01-2.47 1.727 67.341 67.341 0 01-2.628 1.661 74.233 74.233 0 01-2.783 1.591 83.043 83.043 0 01-6.009 2.954 93.332 93.332 0 01-3.204 1.351c-1.1.44-2.221.865-3.362 1.274a111.568 111.568 0 01-7.078 2.264 119.155 119.155 0 01-7.541 1.87 129.46 129.46 0 01-7.954 1.445 137.977 137.977 0 01-12.593 1.307 147.285 147.285 0 01-8.666.254zm-.016-86.617c-10.101 0-19.763 1.057-28.627 2.975-8.917 1.931-17.075 4.744-24.075 8.252-7.078 3.548-13.004 7.822-17.34 12.631-4.4 4.88-7.176 10.328-7.846 16.139-.683 5.913.877 11.647 4.329 16.951 3.505 5.386 8.952 10.311 15.948 14.504 7.08 4.243 15.716 7.715 25.465 10.136 9.816 2.437 20.701 3.793 32.162 3.793 11.461 0 22.346-1.356 32.161-3.793 9.748-2.421 18.383-5.893 25.462-10.136 6.994-4.193 12.439-9.118 15.942-14.504 3.45-5.304 5.007-11.038 4.323-16.951-.673-5.811-3.451-11.259-7.853-16.139-4.338-4.809-10.265-9.083-17.344-12.631-7.002-3.508-15.161-6.321-24.079-8.252-8.864-1.918-18.527-2.975-28.628-2.975zm-340.126 77.952c6.459-2.144 12.655-4.669 18.524-7.547 5.542-2.711 10.725-5.778 15.482-9.162 4.403-3.121 8.316-6.575 11.671-10.299 3.085-3.416 5.508-7.113 7.201-10.992 1.513-3.442 2.222-7.039 2.098-10.645-.128-3.22-1.069-6.397-2.777-9.38-1.687-2.903-4.064-5.577-7.026-7.905-3.117-2.44-6.728-4.535-10.712-6.217l-.571 1.193c3.749 1.661 7.131 3.709 10.037 6.076 2.771 2.267 4.98 4.853 6.533 7.648 1.579 2.88 2.432 5.936 2.519 9.027.078 3.458-.625 6.904-2.083 10.203-1.629 3.709-3.943 7.248-6.88 10.522-3.189 3.564-6.905 6.874-11.085 9.874-4.508 3.245-9.418 6.194-14.67 8.811a142.222 142.222 0 01-17.557 7.32l-.704 1.473z" fill="#fff"/><path d="M631.567 179.631c.783-.001 1.561.084 2.307.253a7.517 7.517 0 011.884.691c.522.275.958.625 1.282 1.026.309.384.474.819.477 1.262.003.443-.155.879-.458 1.266a4.05 4.05 0 01-1.272 1.038 7.503 7.503 0 01-1.896.702 10.653 10.653 0 01-4.654 0 7.489 7.489 0 01-1.896-.702 4.032 4.032 0 01-1.271-1.037c-.303-.387-.46-.823-.457-1.267.004-.443.169-.878.479-1.262.323-.401.757-.75 1.277-1.026a7.517 7.517 0 011.884-.691 10.419 10.419 0 012.314-.253zm-367.219 0a8.603 8.603 0 012.164.253 4.255 4.255 0 011.508.69c.375.285.625.642.716 1.027.09.427.016.863-.214 1.262-.266.471-.657.9-1.151 1.266a8.581 8.581 0 01-1.84 1.038c-.716.301-1.483.537-2.282.701-.801.168-1.632.255-2.468.258a8.56 8.56 0 01-2.182-.258 4.189 4.189 0 01-1.51-.701c-.374-.289-.618-.65-.703-1.038-.082-.43 0-.867.237-1.266.275-.47.672-.898 1.172-1.262a8.641 8.641 0 011.843-1.027 12.338 12.338 0 012.265-.69c.795-.164 1.618-.25 2.445-.253z" fill="#fff"/></g><path d="M156.55 160.531l-.399 40.107H82.904l12.1-66.803 33.105-38.264L184.537 92l.666 67.344-28.653 1.187z" fill="#fff" fill-opacity=".42"/><path d="M95.005 133.835h61.812m-61.812 0l-12.1 66.803m12.1-66.803l33.104-38.264m28.708 38.264l-.666 66.803H82.904m73.913-66.803L184.537 92M82.904 200.638l40.734-38.743m4.471-66.324L184.537 92m-56.428 3.571l-4.471 66.324M184.537 92l.666 67.344-61.565 2.551" stroke="#DBDEE7"/><path d="M156.18 200.128v-66.293l29.385-41.325v65.814" stroke="url(#paint1_linear_3940_72388)" stroke-width="3" stroke-linecap="round" stroke-linejoin="round"/><g opacity=".5" clip-path="url(#clip2_3940_72388)" fill="#fff"><path d="M775.794 458.05l7.485-7.483.059-.066.057-.068.053-.07.046-.077.042-.082.037-.081.031-.086.028-.086.02-.088.018-.088.011-.178v-4.848l-.003-.132-.011-.129-.013-.13-.022-.13-.026-.13-.035-.125-.04-.123-.046-.126-.05-.116-.057-.119-.064-.116-.068-.113-.07-.107-.082-.104-.083-.101-.088-.097-.094-.092-.097-.088-.101-.084-.106-.079-.107-.07-.112-.068-.117-.064-.118-.057-.119-.051-.125-.046-.123-.04-.127-.035-.13-.029-.13-.022-.129-.013-.13-.011-.127-.002h-4.847l-.088.002-.09.009-.088.018-.088.017-.085.029-.086.031-.084.039-.079.042-.077.046-.07.053-.068.057-.066.062-7.48 7.487.67.669a.177.177 0 01-.126.301h-3.461v-3.466c0-.157.189-.236.301-.126l.67.673 4.768-4.771.044-.046.039-.053.033-.05.027-.057.022-.06.017-.059.011-.062.005-.064v-.066l-.005-.063-.011-.06-.017-.061-.022-.06-.029-.059-.033-.053-.039-.053-.044-.046-.046-.042-.051-.039-.055-.033-.057-.031-.057-.022-.061-.018-.064-.013-.095-.002h-5.53l-.132.002-.129.011-.13.013-.129.022-.13.029-.125.035-.125.04-.123.046-.119.051-.118.057-.117.064-.112.068-.108.07-.105.079-.101.084-.097.088-.092.092-.088.097-.083.101-.079.104-.073.107-.068.113-.063.116-.058.119-.05.116-.048.126-.038.123-.035.125-.026.13-.022.13-.013.13-.011.129-.003.132v13.594l.003.09.008.09.018.088.02.088.026.084.031.085.039.084.042.077.048.077.051.075.057.068.059.066.066.059.073.058.072.05.077.046.079.044.084.035.083.033.088.025.086.022.09.013.087.009.091.002.09-.002.087-.009.09-.013.086-.022.088-.025.083-.033.084-.035.079-.044.077-.046.07-.05.073-.058.065-.059 10.395-10.402-.476-.479a.175.175 0 01.125-.299h3.463v3.464a.175.175 0 01-.298.125l-.479-.477-10.397 10.399-.062.066-.057.071-.052.072-.047.077-.043.08-.036.083-.033.084-.024.088-.022.083-.013.093-.009.088-.002.092.002.09.009.088.013.09.022.086.024.088.033.084.036.081.043.082.047.077.052.07.057.072.062.066.066.06.068.057.075.053.076.046.077.042.084.039.085.031.086.027.088.019.088.018.088.004.019.005.075.002h13.588l.132-.002.13-.011.129-.013.13-.022.129-.027.128-.035.123-.037.125-.047.119-.05.118-.057.117-.064.112-.068.107-.071.106-.081.101-.081.096-.088.095-.093.088-.097.083-.101.081-.105.071-.108.068-.112.063-.117.057-.119.051-.118.046-.124.04-.123.035-.127.026-.13.022-.13.013-.13.011-.129.002-.132v-5.537l-.002-.064-.009-.063-.017-.064-.02-.062-.024-.057-.031-.055-.035-.05-.042-.051-.048-.044-.046-.042-.062-.033-.057-.031-.057-.026-.059-.02-.059-.013-.064-.009-.064-.002-.063.002-.064.009-.059.013-.062.02-.057.026-.057.031-.053.035-.07.064-4.768 4.771.672.669a.176.176 0 01-.123.301h-3.461v-3.464c0-.156.188-.236.3-.126l.666.671zm-51.423-11.768l-1.775 5.513a.113.113 0 01-.107.077h-1.921a.111.111 0 01-.106-.079l-.803-2.645c-.031-.104-.18-.106-.213-.002l-.847 2.647a.113.113 0 01-.107.077h-1.916a.113.113 0 01-.107-.077l-1.774-5.513a.11.11 0 01.106-.143h1.768a.11.11 0 01.106.077l.879 2.848c.031.103.177.103.211.002l.929-2.85a.113.113 0 01.106-.077h1.624c.049 0 .091.031.107.079l.878 2.883c.031.104.18.104.211.002l.929-2.887a.113.113 0 01.107-.077h1.612c.071 0 .125.073.103.145zm.996-.145h1.721a.11.11 0 01.111.11v5.513a.11.11 0 01-.111.11h-1.721a.11.11 0 01-.111-.11v-5.513c0-.06.051-.11.111-.11zm8.896.11v5.513a.11.11 0 01-.111.11h-1.435a.111.111 0 01-.084-.04l-1.961-2.332a.11.11 0 00-.196.071v2.191a.11.11 0 01-.111.11h-1.672a.11.11 0 01-.111-.11v-5.513a.11.11 0 01.111-.11h1.435a.11.11 0 01.084.039l1.961 2.332a.11.11 0 00.196-.071v-2.19c0-.062.048-.11.11-.11h1.673a.11.11 0 01.111.11zm7.072 0v5.513a.11.11 0 01-.11.11h-1.436a.111.111 0 01-.084-.04l-1.961-2.332a.11.11 0 00-.195.071v2.191a.11.11 0 01-.111.11h-1.675a.11.11 0 01-.111-.11v-5.513a.11.11 0 01.111-.11h1.435a.11.11 0 01.085.039l1.961 2.332a.11.11 0 00.195-.071v-2.19a.11.11 0 01.111-.11h1.672a.11.11 0 01.113.11zm1.499-.11h1.721a.11.11 0 01.111.11v5.513a.11.11 0 01-.111.11h-1.721a.11.11 0 01-.111-.11v-5.513c0-.06.048-.11.111-.11zm8.896.11v5.513a.11.11 0 01-.111.11h-1.435a.111.111 0 01-.085-.04l-1.961-2.332a.11.11 0 00-.195.071v2.191a.11.11 0 01-.111.11h-1.672a.11.11 0 01-.111-.11v-5.513a.11.11 0 01.111-.11h1.435a.11.11 0 01.084.039l1.961 2.332a.11.11 0 00.195-.071v-2.19a.11.11 0 01.111-.11h1.673c.06 0 .111.05.111.11zm5.26 2.601h1.467a.11.11 0 01.111.11v2.255a.11.11 0 01-.049.092 3.955 3.955 0 01-1.136.508 4.94 4.94 0 01-1.326.187 3.532 3.532 0 01-1.655-.382 2.847 2.847 0 01-1.149-1.065 2.923 2.923 0 01-.415-1.553c0-.578.137-1.096.415-1.553a2.813 2.813 0 011.162-1.065c.497-.254 1.058-.382 1.684-.382a3.91 3.91 0 011.519.282c.413.175.761.419 1.045.739a.112.112 0 01-.011.157l-1.08.946a.11.11 0 01-.153-.009c-.346-.366-.755-.549-1.22-.549-.429 0-.77.128-1.021.386-.253.256-.379.607-.379 1.048 0 .432.124.779.375 1.041.25.263.583.393 1 .393.222 0 .433-.038.637-.11a.114.114 0 00.073-.106v-1.262a.104.104 0 01.106-.108zm-19.11 5.427c.397.182.705.445.919.788.216.344.323.743.323 1.2 0 .457-.107.856-.323 1.2a2.097 2.097 0 01-.919.788c-.398.183-.864.275-1.399.275h-.726a.112.112 0 00-.111.115v1.244a.112.112 0 01-.112.115h-1.731a.113.113 0 01-.112-.115v-5.77c0-.064.05-.115.112-.115h2.68c.535 0 1.001.092 1.399.275zm-.929 2.505c.132-.123.199-.296.199-.519 0-.224-.067-.395-.199-.519-.131-.123-.332-.185-.595-.185h-.601a.112.112 0 00-.111.115v1.175c0 .064.049.115.111.115h.601c.265.002.464-.06.595-.182zm3.3-2.78h1.731c.062 0 .111.051.111.115v4.199c0 .064.05.115.112.115h2.394c.062 0 .112.051.112.115v1.336c0 .065-.05.115-.112.115h-4.351a.112.112 0 01-.111-.115v-5.765a.115.115 0 01.114-.115zm9.382 0h-1.776a.114.114 0 00-.103.069l-2.436 5.765c-.032.076.022.161.102.161h1.741c.046 0 .087-.03.104-.073l.362-.972.538-1.455.459-1.23a.11.11 0 01.208 0l.459 1.23.538 1.455.361.972a.113.113 0 00.105.073h1.774c.08 0 .134-.085.103-.161l-2.437-5.765a.113.113 0 00-.102-.069zm9.056.115v5.765c0 .065-.05.115-.112.115h-1.444a.109.109 0 01-.084-.041l-1.973-2.438c-.067-.083-.196-.035-.196.073v2.291a.112.112 0 01-.112.115h-1.682a.112.112 0 01-.111-.115v-5.765c0-.064.049-.115.111-.115h1.444a.11.11 0 01.085.042l1.972 2.438c.067.083.196.034.196-.074v-2.291c0-.064.049-.115.112-.115h1.682c.062 0 .112.051.112.115z"/></g></g><defs><clipPath id="clip0_3940_72388"><path d="M838.5 10c0-5.523-4.477-10-10-10h-818C4.977 0 .5 4.477.5 10v452c0 5.523 4.477 10 10 10h818c5.523 0 10-4.477 10-10V10z" fill="#fff"/></clipPath><clipPath id="clip1_3940_72388"><path fill="#fff" transform="translate(-39.9 39)" d="M0 0h1343.67v395H0z"/></clipPath><clipPath id="clip2_3940_72388"><path fill="#fff" transform="translate(714.689 442)" d="M0 0h89.925v22H0z"/></clipPath><linearGradient id="paint0_linear_3940_72388" x1="634.71" y1="30.394" x2="530.084" y2="496.806" gradientUnits="userSpaceOnUse"><stop stop-color="#289B9C"/><stop offset="1" stop-color="#2B74E1"/></linearGradient><linearGradient id="paint1_linear_3940_72388" x1="220.684" y1="121.591" x2="140.841" y2="125.064" gradientUnits="userSpaceOnUse"><stop offset=".507" stop-color="#E0E0E0"/><stop offset=".554" stop-color="#fff"/><stop offset=".725" stop-color="#E0E0E0"/><stop offset=".828" stop-color="#fff"/></linearGradient></defs></svg>