<svg width="24" height="18" viewBox="0 0 24 18" fill="none" xmlns="http://www.w3.org/2000/svg">
<path d="M15.4474 17.996C14.8954 17.9786 14.462 17.517 14.4794 16.965C14.4969 16.413 14.9585 15.9796 15.5105 15.997L15.4474 17.996ZM15.479 3.68117L15.5105 4.68067C15.5 4.681 15.4895 4.68117 15.479 4.68117L15.479 3.68117ZM1 3.68117L0.48655 4.53929C0.184758 4.35871 6.95022e-06 4.03288 -3.5317e-07 3.68119C-7.65656e-06 3.3295 0.18473 3.00366 0.486514 2.82307L1 3.68117ZM5.99402 5.50396C6.46795 5.78754 6.62226 6.40161 6.33869 6.87553C6.05512 7.34946 5.44105 7.50377 4.96712 7.2202L5.99402 5.50396ZM4.96708 0.141902C5.441 -0.141688 6.05508 0.0126001 6.33867 0.486515C6.62226 0.960429 6.46797 1.57451 5.99405 1.8581L4.96708 0.141902ZM15.5105 15.997C16.2907 16.0217 17.0676 15.8924 17.7947 15.6174L18.5022 17.4881C17.5284 17.8564 16.4897 18.0289 15.4474 17.996L15.5105 15.997ZM17.7947 15.6174C18.5219 15.3424 19.1838 14.9276 19.7416 14.3986L21.1177 15.8499C20.3656 16.563 19.476 17.1198 18.5022 17.4881L17.7947 15.6174ZM19.7416 14.3986C20.2994 13.8697 20.7416 13.2376 21.0433 12.5404L22.8789 13.3345C22.4692 14.2815 21.8699 15.1367 21.1177 15.8499L19.7416 14.3986ZM21.0433 12.5404C21.3449 11.8432 21.5 11.0946 21.5 10.3389H23.5C23.5 11.3687 23.2886 12.3875 22.8789 13.3345L21.0433 12.5404ZM21.5 10.3389C21.5 9.58309 21.3449 8.83448 21.0433 8.13734L22.8789 7.3432C23.2886 8.29021 23.5 9.30902 23.5 10.3389H21.5ZM21.0433 8.13734C20.7416 7.44015 20.2994 6.80801 19.7416 6.27911L21.1177 4.82784C21.8699 5.54106 22.4692 6.39625 22.8789 7.3432L21.0433 8.13734ZM19.7416 6.27911C19.1838 5.75015 18.5219 5.33531 17.7947 5.06032L18.5022 3.18963C19.476 3.55791 20.3656 4.11467 21.1177 4.82784L19.7416 6.27911ZM17.7947 5.06032C17.0676 4.78531 16.2907 4.65605 15.5105 4.68067L15.4474 2.68167C16.4897 2.64878 17.5284 2.82136 18.5022 3.18963L17.7947 5.06032ZM15.479 4.68117H1V2.68117H15.479V4.68117ZM4.96712 7.2202L0.48655 4.53929L1.51345 2.82305L5.99402 5.50396L4.96712 7.2202ZM0.486514 2.82307L4.96708 0.141902L5.99405 1.8581L1.51348 4.53927L0.486514 2.82307Z" fill="white"/>
</svg>
