<svg width="24" height="18" viewBox="0 0 24 18" fill="none" xmlns="http://www.w3.org/2000/svg">
<path d="M8.40792 17.9962C8.95991 17.9784 9.39298 17.5165 9.37519 16.9645C9.35741 16.4125 8.89551 15.9794 8.34351 15.9972L8.40792 17.9962ZM8.37571 3.68119L8.34351 4.68067C8.35424 4.68102 8.36497 4.68119 8.37571 4.68119V3.68119ZM22.5549 3.68119L23.0763 4.53452C23.3736 4.35287 23.5549 4.0296 23.5549 3.68121C23.555 3.33282 23.3736 3.00954 23.0764 2.82789L22.5549 3.68119ZM17.6457 5.5088C17.1745 5.79675 17.0259 6.41223 17.3138 6.8835C17.6017 7.35478 18.2172 7.5034 18.6885 7.21545L17.6457 5.5088ZM18.6885 0.146696C18.2173 -0.141273 17.6018 0.00731951 17.3138 0.478586C17.0259 0.949853 17.1744 1.56534 17.6457 1.8533L18.6885 0.146696ZM8.34351 15.9972C7.58511 16.0216 6.82954 15.8934 6.12172 15.62L5.4012 17.4857C6.35911 17.8556 7.38161 18.0292 8.40792 17.9962L8.34351 15.9972ZM6.12172 15.62C5.41389 15.3467 4.76822 14.9338 4.22311 14.406L2.83185 15.8428C3.56954 16.5571 4.4433 17.1158 5.4012 17.4857L6.12172 15.62ZM4.22311 14.406C3.678 13.8781 3.24456 13.2461 2.94855 12.5474L1.10701 13.3276C1.50759 14.2731 2.09416 15.1284 2.83185 15.8428L4.22311 14.406ZM2.94855 12.5474C2.65254 11.8488 2.5 11.0977 2.5 10.3389H0.5C0.5 11.3658 0.706426 12.3822 1.10701 13.3276L2.94855 12.5474ZM2.5 10.3389C2.5 9.58015 2.65254 8.8291 2.94855 8.13044L1.10701 7.35022C0.706424 8.29571 0.5 9.31209 0.5 10.3389H2.5ZM2.94855 8.13044C3.24456 7.43177 3.678 6.79974 4.22311 6.27191L2.83185 4.83511C2.09416 5.54941 1.50759 6.40473 1.10701 7.35022L2.94855 8.13044ZM4.22311 6.27191C4.76822 5.74407 5.41389 5.33121 6.12172 5.05785L5.4012 3.19214C4.4433 3.56207 3.56954 4.1208 2.83185 4.83511L4.22311 6.27191ZM6.12172 5.05785C6.82954 4.7845 7.58511 4.65624 8.34351 4.68067L8.40792 2.68171C7.38161 2.64864 6.35911 2.82221 5.4012 3.19214L6.12172 5.05785ZM8.37571 4.68119H22.5549V2.68119H8.37571V4.68119ZM18.6885 7.21545L23.0763 4.53452L22.0336 2.82786L17.6457 5.5088L18.6885 7.21545ZM23.0764 2.82789L18.6885 0.146696L17.6457 1.8533L22.0335 4.53449L23.0764 2.82789Z" fill="white"/>
</svg>
