<svg width="22" height="39" viewBox="0 0 22 39" fill="none" xmlns="http://www.w3.org/2000/svg">
<path d="M12.007 23.7985C11.9388 23.6455 11.8225 23.5191 11.6758 23.4385L12.007 23.7985Z" fill="#3F3F3F"/>
<path d="M8.63996 4.69398C8.84154 3.41605 9.17993 3.56724 9.17993 4.17561C9.17993 5.07556 8.54276 5.00716 8.54276 5.81351C8.53953 5.94394 8.56664 6.07334 8.62196 6.1915C8.78395 6.51908 9.12953 6.35349 9.12953 7.30744C9.12953 8.43777 8.31957 9.43851 7.28643 9.43851C6.0625 9.43851 5.36054 8.08859 5.36054 7.35783C5.36054 6.99785 5.47934 6.63787 5.47934 6.29949C5.47934 5.60473 4.52539 4.89557 4.52539 4.3232C4.52539 4.26201 4.52539 4.18281 4.68018 4.18281C5.25255 4.18281 5.04016 5.32034 5.04016 3.80123C5.04016 3.22526 5.04016 3.03808 5.29935 2.81849C5.57425 3.01673 5.91268 3.10646 6.24969 3.07047C6.75998 3.09408 7.26446 2.95409 7.68961 2.6709C8.20798 2.94448 7.9128 3.56004 8.12879 3.82643C8.36737 4.06064 8.53463 4.35772 8.61116 4.68318" fill="#FCCD97"/>
<path d="M2.31632 19.472C2.31632 18.392 2.5935 17.4525 2.5935 17.0457C2.59252 16.8607 2.57323 16.6762 2.53591 16.4949C2.48839 16.2652 2.46546 16.0311 2.46751 15.7966C2.46802 15.3432 2.52117 14.8914 2.6259 14.4503C1.92747 14.3338 1.25342 14.1014 0.631615 13.7627C0.566819 14.0651 0.527221 14.3747 0.469624 14.6842C0.410076 14.9207 0.337977 15.1538 0.253635 15.3826C0.222583 15.5144 0.198551 15.6478 0.181641 15.7822C0.421177 17.7286 0.781856 19.6583 1.26158 21.5599C1.16193 22.0647 1.11727 22.5789 1.12839 23.0934C1.12839 24.5621 1.54596 24.6197 1.84834 24.6485C2.06808 24.9529 2.38174 25.1768 2.7411 25.2856H2.83829C3.01108 25.2856 3.36386 25.6456 3.66264 25.6456C3.75501 25.6401 3.84545 25.6169 3.92903 25.5772C3.81383 25.1956 3.17307 24.8069 3.17307 23.8529C3.17342 23.7241 3.19036 23.5958 3.22347 23.4713C3.86423 23.5721 3.51505 24.6053 4.01542 24.6053C4.11622 24.6053 4.13781 24.1625 4.13781 24.0617C4.13781 23.0322 3.24506 21.8298 2.47471 20.9731C2.35277 20.4824 2.29947 19.9773 2.31632 19.472Z" fill="#FCCD97"/>
<path d="M15.2793 13.4237C15.6001 13.7265 15.9641 13.98 16.3592 14.1761C16.3203 14.5167 16.3011 14.8592 16.3016 15.202C16.3016 16.7355 16.6616 16.6023 16.892 19.8817C16.424 20.4361 15.6933 21.1813 15.6933 22.4484C15.6933 22.7328 15.7221 22.956 15.7401 23.2476C15.764 23.2496 15.7881 23.2496 15.8121 23.2476C16.1037 23.2476 16.136 22.8876 16.3232 22.668C16.3232 22.812 16.3232 23.2547 16.3232 23.3879C16.3232 24.2879 16.4312 24.1403 16.5932 24.1403C16.8704 24.1403 17.0072 23.8919 17.0864 23.6219C17.1369 23.6357 17.1889 23.6429 17.2412 23.6435C17.3405 23.6411 17.4368 23.6089 17.5177 23.5511C17.5986 23.4934 17.6602 23.4127 17.6948 23.3195H17.7956C18.0907 23.3195 18.2383 23.1108 18.2959 22.848C18.6955 22.6536 18.7243 22.2576 18.7243 21.6528C18.7378 21.0665 18.5721 20.4901 18.2491 20.0005C18.2966 19.7634 18.3219 19.5224 18.3247 19.2806C18.3137 19.1092 18.3137 18.9372 18.3247 18.7658C18.5263 16.2459 18.5947 14.2769 18.5947 14.2769C18.5947 13.2689 17.7884 12.405 16.8344 11.8794C16.3901 12.4638 15.8667 12.9835 15.2793 13.4237Z" fill="#FCCD97"/>
<path d="M4.71465 4.19768C4.80066 4.20499 4.88205 4.23972 4.94685 4.29674C5.01165 4.35377 5.05644 4.43009 5.07463 4.51447C5.07463 4.40647 5.04943 4.19409 5.04943 3.79451C5.04943 3.21854 5.04943 3.03135 5.30861 2.81176C5.58352 3.01 5.92195 3.09974 6.25896 3.06375C6.76925 3.08736 7.27373 2.94736 7.69888 2.66417C8.21725 2.93775 7.92207 3.55333 8.13805 3.81971C8.37664 4.05392 8.5439 4.35099 8.62042 4.67645H8.64922C8.68389 4.38854 8.76029 4.10721 8.87601 3.84131C8.90036 3.6021 8.91237 3.36179 8.91201 3.12135C8.91201 1.93342 7.88607 0.705888 6.54334 0.828281C4.63545 1.00467 4.59226 3.38053 4.59586 3.44173C4.59794 3.69819 4.63797 3.95294 4.71465 4.19768Z" fill="#3F3F3F"/>
<path d="M12.8171 26.603C11.3447 27.683 12.2123 26.8658 12.7199 28.8385C12.8999 28.4389 13.1194 28.1797 13.1194 27.719C13.1077 27.3284 13.0041 26.9461 12.8171 26.603Z" fill="#FCCD97"/>
<path d="M21.8045 31.8662C21.8045 31.9706 21.8045 32.0786 21.8045 32.183C21.7473 32.2986 21.6556 32.3936 21.5421 32.4548C21.4286 32.5161 21.2989 32.5406 21.1709 32.525C20.5049 32.525 19.9938 31.9742 19.4898 31.3442C18.4962 30.7143 19.0542 31.265 18.0787 30.4947C18.3238 30.3293 18.4994 30.0794 18.5718 29.7927C18.6294 28.4536 18.0499 28.5112 16.6855 27.946C16.8168 27.7477 16.9899 27.5805 17.1926 27.4561C17.3953 27.3318 17.6228 27.2532 17.8591 27.2261C18.5034 27.2261 18.8958 27.8884 19.2378 28.63C19.6914 29.6451 21.8045 29.6703 21.8045 31.8662Z" fill="#3F3F3F"/>
<path d="M8.22447 22.6285C8.22447 22.6285 8.29286 22.5097 8.30006 22.5097C8.37206 22.5097 8.36846 22.4917 8.41886 22.4917C8.54125 22.4917 10.6687 23.0605 11.8027 24.4428L8.22447 22.6285ZM13.2426 23.2477C13.527 22.5278 14.3549 20.8322 14.3549 19.7415C14.3549 19.3491 14.3081 19.2879 14.3081 18.7876V18.3844C14.3081 18.2548 14.3081 18.1324 14.3081 18.0244C14.2325 17.1857 13.8941 16.7321 13.545 15.5261C13.0374 13.7694 12.3534 13.5067 12.3534 12.7975C12.3573 12.4953 12.4611 12.2029 12.6486 11.9659C13.4971 12.4514 14.3202 12.9801 15.1145 13.5499C15.873 13.0143 16.526 12.343 17.0404 11.57C15.8524 10.1877 11.7415 5.97949 8.71404 5.97949H8.56285C8.57411 6.05465 8.59719 6.12754 8.63125 6.19547C8.79324 6.52305 9.13882 6.35746 9.13882 7.31141C9.13882 8.44175 8.32886 9.44249 7.29572 9.44249C7.05309 9.43794 6.81409 9.38276 6.59403 9.28048C6.37396 9.17819 6.17769 9.03107 6.01779 8.84853C5.63642 8.44277 5.40744 7.91739 5.36983 7.36181C5.36983 7.03783 5.46702 6.72105 5.48502 6.40427C3.66353 6.91544 2.63039 7.5094 1.95723 8.27256C1.14153 9.92956 0.62946 11.7194 0.445312 13.5571V13.6615C1.15248 14.084 1.93925 14.3561 2.75638 14.4606C2.78373 14.4638 2.81139 14.4582 2.83534 14.4446C2.85929 14.431 2.87828 14.4101 2.88957 14.385C3.15956 13.7946 3.33595 13.0531 3.74992 12.5419C5.11785 13.7442 5.63262 15.4469 5.9098 16.5953C5.74751 17.0956 5.67797 17.6214 5.70461 18.1468C5.70461 19.6047 5.9782 19.5075 6.007 20.2167H6.24458C6.30361 20.7929 6.46578 21.3538 6.72335 21.8726C6.45052 22.2373 6.28585 22.6714 6.24818 23.1253C6.24818 23.6473 6.69096 24.0541 7.19853 24.4644H7.21653L13.2426 23.2477ZM3.17396 10.6772C3.26146 11.0379 3.38196 11.3898 3.53394 11.7284C3.50154 11.7284 3.46554 11.7536 3.43674 11.7536C3.18383 11.452 3.01056 11.0918 2.93277 10.706C2.93277 9.81686 5.09265 8.54614 5.17184 8.54614H5.21144C6.26978 8.87732 3.17396 9.71967 3.17396 10.6772ZM10.8595 9.97886C8.47285 8.50294 8.94443 9.51448 9.27201 8.61453C9.79061 8.98379 10.337 9.31236 10.9063 9.59728C11.3038 9.84253 11.6287 10.1893 11.8476 10.6018C12.0665 11.0143 12.1715 11.4777 12.1518 11.9443C12.1518 11.9983 12.1518 12.0091 12.0726 12.0091C11.9935 12.0091 11.9683 12.0091 11.9539 11.9659C11.6947 11.2604 11.5651 10.418 10.8595 9.98246V9.97886ZM11.6695 23.4205C11.8639 22.9993 12.1374 22.6285 12.3138 22.2074C12.7998 21.041 13.617 20.0475 13.617 18.784C13.6174 18.5845 13.5981 18.3856 13.5594 18.19C13.8761 18.334 14.0345 18.2476 14.0345 18.7516C14.0345 20.2815 12.2346 23.2405 12.0151 23.7913L11.6695 23.4205Z" fill="#2C62FF"/>
<path d="M13.0867 26.3011C13.3927 26.2466 13.7059 26.2466 14.0118 26.3011C14.3839 26.4413 14.6991 26.7008 14.9082 27.0391C15.1026 27.4279 18.0616 28.767 18.0616 28.767C18.0616 28.767 18.6124 29.163 18.58 29.4257C18.5232 29.7816 18.3658 30.1139 18.1264 30.3833C18.1264 30.3833 15.1206 29.6633 14.9514 29.6309C14.4402 29.5816 13.9255 29.5816 13.4143 29.6309C12.9103 29.7029 12.4531 29.1306 12.4531 29.1306C12.4531 29.1306 13.0507 28.317 13.0543 27.957C13.017 27.5036 12.946 27.0536 12.8419 26.6107L13.0867 26.3011Z" fill="#3F3F3F"/>
<path d="M13.7856 25.5372C13.7172 25.9944 13.9836 25.8756 13.5624 26.2572L11.8381 27.5135L11.4098 27.2363L10.5854 26.6964L7.74157 24.8317L7.2124 24.4717H7.1944C6.68683 24.0541 6.24766 23.6365 6.24766 23.1254C6.28941 22.6745 6.4565 22.2443 6.73003 21.8834C6.47246 21.3646 6.31029 20.8037 6.25126 20.2275H6.01367L7.72717 19.414C7.72717 19.414 8.44713 19.2484 8.74232 19.1944C9.0375 19.1404 9.0339 19.36 9.40468 19.1944C9.77546 19.0288 10.049 18.9172 10.2146 18.8632C10.4784 18.7699 10.7358 18.6592 10.985 18.532C11.223 18.4438 11.453 18.3354 11.6725 18.208C12.0325 17.9813 12.1189 18.1396 12.8173 18.0352C13.3108 17.972 13.8104 17.972 14.304 18.0352C14.304 18.1468 14.304 18.2692 14.304 18.3952V18.7984C14.304 19.2988 14.3508 19.36 14.3508 19.7523C14.3508 20.8323 13.5228 22.553 13.2385 23.2586C13.5293 23.8665 13.9118 24.4261 14.3724 24.9181C14.2563 25.1874 14.0484 25.4068 13.7856 25.5372Z" fill="#3F3F3F"/>
<path d="M13.5579 18.1929C13.6422 18.6193 13.6336 19.0588 13.5327 19.4816C13.3599 20.0432 11.668 23.4414 11.668 23.4414L12.0279 23.8013C12.0279 23.8013 13.5903 20.7703 13.7918 20.0216C13.9196 19.5017 13.9896 18.9693 14.0006 18.4341L13.5579 18.1929Z" fill="#2C62FF"/>
<path d="M3.17283 10.677C3.26033 11.0377 3.38083 11.3895 3.53281 11.7281C3.50041 11.7281 3.46441 11.7533 3.43561 11.7533C3.1827 11.4518 3.00943 11.0916 2.93164 10.7058C2.93164 9.81663 5.09152 8.5459 5.17071 8.5459H5.21031C6.26865 8.87708 3.17283 9.71944 3.17283 10.677Z" fill="#3F3F3F"/>
<path d="M12.073 12.0205C12.0226 12.0205 11.9686 12.0205 11.9542 11.9773C11.695 11.2573 11.5654 10.4186 10.8742 9.98298C8.48756 8.50706 8.95913 9.5186 9.28672 8.61865C9.80081 8.98604 10.3424 9.31338 10.9066 9.5978C11.3041 9.84305 11.629 10.1898 11.8479 10.6023C12.0668 11.0148 12.1718 11.4783 12.1522 11.9449C12.1522 12.0097 12.1666 12.0205 12.073 12.0205Z" fill="#3F3F3F"/>
<path d="M13.6774 35.8475C13.5174 35.9842 13.3255 36.0783 13.1195 36.1211C12.7857 35.9925 12.4708 35.8194 12.1835 35.6063C11.9422 35.4859 11.6933 35.3812 11.4384 35.2931L11.7083 34.0764L11.1504 32.5249L9.27488 28.8603L9.10208 28.5255L8.51172 27.37L10.9956 26.29C10.9956 26.29 11.1108 26.3872 11.5607 26.8264L11.9855 27.2476L12.1799 27.4456C13.1519 28.4283 13.1735 34.1196 13.1735 34.1196L13.6486 35.7143L13.6774 35.8475Z" fill="#3F3F3F"/>
<path d="M13.6852 35.8408L13.6562 35.7178L13.6852 35.8408Z" fill="#3F3F3F"/>
<path d="M8.22364 22.629C8.22364 22.629 8.29203 22.5102 8.29923 22.5102C8.37123 22.5102 8.36763 22.4922 8.41803 22.4922C8.54042 22.4922 10.6679 23.0609 11.8018 24.4433C11.4851 25.0372 10.8443 25.0408 10.8443 25.7248C10.8443 25.7644 10.8443 25.804 10.8443 25.84C10.9456 25.9253 11.0341 26.0247 11.1071 26.1352C11.0639 26.182 11.0531 26.2612 11.0027 26.3008C10.9523 26.3404 9.68156 27.6327 9.07319 27.6327C8.68441 27.6327 7.73047 26.9739 7.73047 25.2064C7.75038 24.3258 7.91706 23.4547 8.22364 22.629Z" fill="#FCCD97"/>
<path d="M12.1627 26.8763C12.1226 27.0102 12.0632 27.1375 11.9863 27.2543C11.7816 27.5753 11.5399 27.8713 11.2664 28.1362C10.694 28.723 9.74006 28.8382 9.26849 28.8562L9.0957 28.5214C9.56295 28.5119 10.0229 28.404 10.4456 28.2046C11.054 27.931 11.4068 27.2111 11.5544 26.8331C11.6084 26.6927 11.6372 26.5991 11.6372 26.5991L12.1627 26.8763Z" fill="#2C62FF"/>
<path d="M12.8125 29.2521L12.8521 29.4177C12.8521 29.4177 14.292 28.0714 13.2949 26.4911L13.2301 26.3003L13.0501 26.4803C13.0501 26.4803 13.4965 27.4234 13.4101 27.859C13.3359 28.3676 13.1299 28.8479 12.8125 29.2521Z" fill="#2C62FF"/>
<path d="M18.5619 29.7915C18.4894 30.0782 18.3138 30.3281 18.0687 30.4935L17.9175 30.3819C18.0515 30.2603 18.1592 30.1127 18.2341 29.9481C18.309 29.7834 18.3495 29.6052 18.3531 29.4243C18.3531 28.7044 16.654 28.2688 16.2832 27.9448H16.6864C18.0399 28.51 18.6195 28.4524 18.5619 29.7915Z" fill="#2C62FF"/>
<path d="M12.9752 37.8373C12.8724 37.837 12.7699 37.8261 12.6693 37.8048C12.0393 38.1864 11.3949 38.5752 10.7758 38.5752C10.4158 38.5752 8.73828 38.1972 8.73828 37.6285C8.73991 37.5469 8.75201 37.4658 8.77428 37.3873C9.09376 37.1273 9.47402 36.9526 9.87942 36.8797C10.711 36.6781 10.7614 35.7494 11.3913 35.501C12.2373 35.6486 12.6333 36.3793 13.1912 36.3793C13.3989 36.3734 13.5977 36.2943 13.7528 36.1561C13.9256 37.0741 13.8464 37.8373 12.9752 37.8373Z" fill="#3F3F3F"/>
<path d="M13.7521 36.1523C13.597 36.2905 13.3982 36.3696 13.1905 36.3755C12.6326 36.3755 12.2366 35.6556 11.3906 35.4972L11.4374 35.292C11.6923 35.3801 11.9413 35.4847 12.1826 35.6052C12.4699 35.8182 12.7847 35.9914 13.1185 36.1199C13.3246 36.0772 13.5165 35.9831 13.6765 35.8464L13.7521 36.1523Z" fill="#2C62FF"/>
</svg>
