<svg width="24" height="37" viewBox="0 0 24 37" fill="none" xmlns="http://www.w3.org/2000/svg">
<path d="M23.5255 15.1007C23.5255 15.1007 23.9111 15.7981 23.2908 15.6808C23.2908 15.6808 23.4081 16.3514 22.7878 16.1435C22.7878 16.1435 22.7476 16.6498 22.3217 16.4553C21.8959 16.2609 21.3929 15.4494 19.4515 15.0571C18.1337 14.7989 16.3364 13.3202 14.8945 12.1164C15.2971 12.0004 15.6574 11.7701 15.9318 11.4535C16.2061 11.1369 16.3828 10.7475 16.4403 10.3325L20.8598 14.021C20.9536 14.2523 21.8221 13.9438 22.3217 14.021C22.8343 14.1098 23.323 14.3039 23.7569 14.591C23.7569 14.591 24.1089 15.0235 23.5255 15.1007Z" fill="#FCCD97"/>
<path d="M13.6697 22.977C13.7377 23.458 13.842 23.9333 13.9816 24.3987L12.3318 24.1606C12.446 23.7046 12.6256 23.2675 12.865 22.863C12.8289 22.5005 12.7152 22.15 12.5319 21.8353C12.3485 21.5206 12.0996 21.249 11.802 21.0389C11.7796 21.0191 11.7549 21.0022 11.7283 20.9886C11.6635 20.9374 11.5925 20.8946 11.517 20.8611C11.3189 20.7642 11.1024 20.7107 10.8819 20.7042C10.6615 20.6977 10.4422 20.7384 10.2387 20.8235C10.0353 20.9085 9.85229 21.0361 9.70207 21.1975C9.55186 21.359 9.43784 21.5507 9.36766 21.7598C9.15799 22.381 8.98338 23.0135 8.8446 23.6543L8.46905 23.5973C7.89409 22.793 7.59098 21.8262 7.60391 20.8377C8.02305 20.7807 8.75404 20.4688 9.9511 19.3958C10.2977 19.0768 10.7067 18.8331 11.1522 18.6802C11.5978 18.5272 12.0702 18.4683 12.5397 18.5072L12.7174 18.5274C13.1772 18.5801 13.6282 18.6928 14.0587 18.8627C14.1954 20.2464 14.0633 21.6434 13.6697 22.977Z" fill="#3F3F3F"/>
<path d="M15.0348 25.881L15.018 28.8988C14.6625 28.8385 14.391 28.7949 14.2769 28.7815C13.6633 27.7185 12.7848 26.1828 12.426 25.5356C12.2271 25.108 12.1936 24.6218 12.3321 24.1709L13.9819 24.409C14.1965 25.0863 14.5351 25.7838 15.0348 25.881Z" fill="#E8BD8B"/>
<path d="M21.2337 31.3604C21.8574 32.6044 20.0299 35.0086 19.0609 32.6044C19.0609 32.6044 19.3627 31.1223 19.0273 30.2941C19.6343 30.3109 20.563 30.1633 20.4591 29.0333C20.3815 28.3966 20.0894 27.8053 19.6309 27.3568C20.107 26.9443 21.3645 26.096 21.5824 28.3828C21.5824 28.3728 20.6033 30.1197 21.2337 31.3604Z" fill="#3F3F3F"/>
<path d="M19.0283 30.2931C19.0081 30.2359 18.9822 30.1809 18.9512 30.1288C19.5212 30.0819 20.1583 29.8237 20.0711 28.8781C20.0184 28.3644 19.8168 27.8772 19.4911 27.4765L19.6319 27.3457C20.0904 27.7943 20.3825 28.3856 20.4601 29.0223C20.564 30.1623 19.6352 30.3099 19.0283 30.2931Z" fill="#2C62FF"/>
<path d="M18.9505 30.1305C18.7 29.8646 18.3771 29.6781 18.0217 29.5939C17.2704 29.3494 16.5029 29.1578 15.7248 29.0206L15.5035 28.9803L15.0273 28.8999V28.8127L15.0441 25.8921C15.0539 25.8952 15.0645 25.8952 15.0743 25.8921C15.2151 25.9156 15.3828 25.9424 15.5638 25.9793L15.8321 26.0363C16.4521 26.1717 17.0616 26.351 17.6562 26.5728H17.683C18.1945 26.7568 18.6837 26.9975 19.1416 27.2903C19.2523 27.3608 19.3596 27.4379 19.477 27.515L19.5172 27.4748C19.8429 27.8755 20.0445 28.3627 20.0973 28.8764C20.1576 29.8253 19.5205 30.0835 18.9505 30.1305Z" fill="#3F3F3F"/>
<path d="M16.4994 35.1618C16.1641 35.7453 16.3451 36.7545 14.6752 35.6279C14.6752 35.6279 14.521 34.6588 13.0859 35.0076C13.0859 35.0076 11.1846 34.8131 11.4562 33.0292C11.4562 33.0292 11.6876 32.2513 12.9685 32.4458C13.3511 32.3902 13.7414 32.4627 14.0785 32.6519C14.4157 32.8411 14.6809 33.1364 14.8329 33.4919C15.1228 33.5293 15.4097 33.5876 15.6912 33.6663C16.0534 33.9949 16.7643 34.7226 16.4994 35.1618Z" fill="#3F3F3F"/>
<path d="M15.6911 33.6674C15.4095 33.5887 15.1227 33.5305 14.8327 33.493C14.6808 33.1376 14.4156 32.8422 14.0784 32.653C13.7412 32.4638 13.351 32.3914 12.9684 32.4469C12.9684 32.4469 12.4721 31.6421 12.0664 30.8105C12.4453 31.5549 12.851 32.2155 12.851 32.2155C13.2336 32.16 13.6239 32.2325 13.9611 32.4217C14.2982 32.6109 14.5634 32.9062 14.7153 33.2617C14.9686 33.2948 15.2195 33.3441 15.4665 33.4092L15.4899 33.493C15.4899 33.493 15.5738 33.5601 15.6911 33.6674Z" fill="#2C62FF"/>
<path d="M15.4668 33.4083C15.2198 33.3432 14.9689 33.2939 14.7157 33.2608C14.5637 32.9053 14.2985 32.61 13.9614 32.4208C13.6242 32.2316 13.234 32.1591 12.8513 32.2146C12.8513 32.2146 12.4456 31.544 12.0667 30.8097V30.7761C11.9027 30.451 11.7615 30.1149 11.6442 29.7702C11.6128 29.6757 11.587 29.5794 11.5671 29.4818C11.553 29.3829 11.553 29.2824 11.5671 29.1834C11.5671 29.1834 11.5369 29.1096 11.4766 28.9789C12.117 28.5195 13.1062 28.1003 14.1792 28.7039L14.2764 28.7643H14.2463L14.4072 29.3611L14.4843 29.6495L15.4902 33.3379L15.4668 33.4083Z" fill="#3F3F3F"/>
<path d="M4.47147 12.113C4.47147 12.113 4.58883 14.0544 3.84779 14.715C3.6568 14.8847 3.47545 15.0649 3.30459 15.2549C3.38814 14.0411 3.08528 12.8321 2.43945 11.8011C2.4931 11.7039 2.55347 11.5865 2.61718 11.4658L4.59889 11.8648C4.5553 11.9353 4.50835 12.0191 4.47147 12.113Z" fill="#EDC18E"/>
<path d="M14.2766 28.7707H14.2431C13.1366 28.08 12.1038 28.5125 11.4433 28.9853C11.1683 28.3885 10.2797 26.5979 9.12625 25.545C8.94003 25.4021 8.78198 25.2259 8.66016 25.0253C8.68376 24.5649 8.74546 24.1074 8.84459 23.6572C8.98181 23.016 9.15645 22.3834 9.36766 21.7627C9.44681 21.5269 9.58157 21.3137 9.76052 21.141C9.93948 20.9683 10.1574 20.8412 10.3958 20.7705C10.6343 20.6998 10.8862 20.6875 11.1304 20.7347C11.3746 20.7819 11.6038 20.8873 11.7987 21.0418C12.0971 21.2512 12.3469 21.5226 12.5309 21.8374C12.715 22.1522 12.8289 22.503 12.865 22.8659C12.6264 23.2708 12.4469 23.7078 12.3318 24.1635C12.1934 24.6144 12.2268 25.1006 12.4257 25.5282C12.7845 26.1653 13.663 27.7078 14.2766 28.7707Z" fill="#FCCD97"/>
<path d="M3.30504 15.255C3.23705 15.3309 3.17322 15.4103 3.11389 15.4931C3.06705 15.5518 3.02765 15.6159 2.99654 15.6842C2.99654 15.6842 0.511881 15.0606 1.28981 12.8509L0.320747 11.4559C0.320747 11.4559 0.20337 10.6378 0.511858 10.678C0.820346 10.7183 0.759986 10.5104 0.759986 10.5104C0.759986 10.5104 0.94107 10.3159 1.06849 10.4567C1.19591 10.5975 1.36694 10.5774 1.38035 10.4064C1.39376 10.2354 1.71565 10.3159 1.66536 10.5607C1.61506 10.8054 2.02748 10.7048 2.02748 10.5607C2.02748 10.4165 2.27226 10.6378 2.11802 11.1575C2.07456 11.315 2.06706 11.4802 2.09608 11.641C2.1251 11.8018 2.1899 11.954 2.28568 12.0863L2.3695 11.9388L2.43991 11.8013C3.08573 12.8323 3.3886 14.0413 3.30504 15.255Z" fill="#FCCD97"/>
<path d="M14.4512 29.6463C13.5291 29.3216 12.517 29.3673 11.6279 29.7737C11.5965 29.6792 11.5707 29.5829 11.5508 29.4853C12.0169 29.2875 13.3347 28.8147 14.3674 29.3546L14.4512 29.6463Z" fill="#2C62FF"/>
<path d="M15.8227 26.0321L15.7155 29.0097L15.4941 28.9694L15.5545 25.9751L15.8227 26.0321Z" fill="#2C62FF"/>
<path d="M10.6026 6.25857C9.11714 4.13604 10.0258 5.51417 9.88835 3.9382C9.88742 3.85369 9.86882 3.77031 9.83379 3.6934C9.79877 3.61648 9.7481 3.54773 9.68497 3.49154C9.62183 3.43536 9.54767 3.39297 9.46721 3.36711C9.38675 3.34125 9.30178 3.33247 9.21773 3.34134C8.85894 3.37487 8.74158 3.45535 8.45321 4.34728L8.22518 4.38752C8.26491 4.25842 8.28193 4.12341 8.27548 3.9885C8.22349 3.73028 8.11139 3.48795 7.94827 3.28113C7.78515 3.07432 7.57563 2.90885 7.33663 2.79814C7.50575 2.54153 7.61992 2.25269 7.67194 1.9498C7.64596 1.8129 7.57796 1.6875 7.47743 1.59101C7.04981 1.55531 6.61975 1.56093 6.1932 1.60778C6.07584 1.60778 5.59633 1.80226 5.47227 1.81567C5.31951 2.00048 5.20766 2.21557 5.14408 2.44676C5.0805 2.67795 5.06665 2.91999 5.10343 3.15693C5.17477 3.41405 5.28806 3.65763 5.43875 3.87785C5.26747 4.13076 5.11181 4.39392 4.97266 4.66583C4.98442 4.73948 5.0173 4.80814 5.06729 4.86349C5.11728 4.91884 5.18223 4.9585 5.25431 4.97767C5.2527 5.00783 5.2527 5.03805 5.25431 5.0682C5.29789 5.36307 5.37439 5.65213 5.48234 5.92996V5.99031L5.69023 6.56705C5.71851 6.6651 5.78325 6.74859 5.87119 6.80035C5.95913 6.85212 6.06359 6.86823 6.16303 6.84537H6.23344C7.26285 6.78166 5.99536 9.52787 8.49009 9.2965C9.37866 9.19591 10.1868 7.8949 10.6026 6.25857Z" fill="#FCCD97"/>
<path d="M9.87296 3.93818C9.87203 3.85367 9.85347 3.77029 9.81844 3.69338C9.78342 3.61646 9.73271 3.54771 9.66957 3.49152C9.60644 3.43534 9.53228 3.39295 9.45182 3.36709C9.37136 3.34123 9.28638 3.33245 9.20234 3.34132C8.84355 3.37486 8.72618 3.45533 8.43781 4.34726L8.20982 4.3875C8.24956 4.2584 8.26654 4.12339 8.26009 3.98848C8.2081 3.73026 8.09604 3.48793 7.93292 3.28111C7.7698 3.0743 7.56024 2.90883 7.32124 2.79812C7.49036 2.54151 7.60453 2.25267 7.65655 1.94978C7.63057 1.81288 7.56261 1.68748 7.46208 1.59099C7.03446 1.55529 6.60436 1.56091 6.17781 1.60776C6.06045 1.60776 5.58094 1.80224 5.45688 1.81565C5.41384 1.86248 5.37354 1.91174 5.33617 1.96319C5.23032 1.79619 5.16065 1.60886 5.13163 1.41327C5.07627 1.13113 5.10303 0.839029 5.20875 0.571646C5.86985 0.265678 6.57885 0.0762294 7.30445 0.0116691C9.4471 -0.176106 10.4464 1.95314 10.5134 2.74112C10.6174 3.93148 10.044 4.22991 10.1513 5.64828C9.31633 4.42439 10.0071 5.32302 9.87296 3.93818Z" fill="#3F3F3F"/>
<path d="M16.4399 10.3355C16.3823 10.7505 16.2057 11.1399 15.9314 11.4565C15.657 11.7731 15.2967 12.0034 14.8941 12.1194C14.2235 11.5494 13.6032 11.0431 13.1639 10.758C13.1639 10.758 12.4933 14.7516 13.3182 16.4215C13.6981 17.1894 13.9463 18.0157 14.0525 18.8659C13.0465 18.4669 11.3498 18.1215 9.94488 19.3957C8.75452 20.4687 8.02354 20.7805 7.59769 20.8409C7.59425 20.7907 7.59425 20.7403 7.59769 20.69C7.75529 19.0973 5.23039 14.5169 5.46511 10.9492C5.46511 10.9492 5.12979 10.7815 4.58323 11.8545L2.60156 11.4555C2.81902 11.0487 2.97707 10.6128 3.07097 10.1612C3.12773 9.51834 3.32655 8.89612 3.65302 8.33945C3.97948 7.78277 4.42545 7.30554 4.95878 6.94218C4.95878 6.94218 5.45171 6.3822 6.48783 7.41832C6.56597 7.57776 6.6556 7.73129 6.75605 7.8777C7.04107 8.30355 7.52392 8.82328 8.01348 8.54832C8.50303 8.27337 9.69006 7.05618 10.5853 6.2749C10.6088 6.2749 10.7798 6.3688 10.8067 6.3755C13.5998 6.99583 14.6359 7.61615 15.2563 9.37655L16.4399 10.3355Z" fill="#2C62FF"/>
<path d="M6.03414 11.3539C5.84636 10.7403 4.86723 10.3278 6.51361 9.342C6.63097 9.27158 6.78522 9.11734 6.89587 9.11734C6.91133 9.11388 6.92737 9.11388 6.94282 9.11734C7.04677 9.16094 7.02665 9.25147 7.10712 9.36547C5.51439 10.4485 5.70218 9.85838 6.03414 11.3539Z" fill="#3F3F3F"/>
<path d="M13.1062 10.9505C13.0527 11.0298 12.9809 11.095 12.8968 11.1405C12.8127 11.186 12.7189 11.2106 12.6233 11.2121C11.3927 11.2121 11.5805 9.62941 10.9467 9.22703C10.6875 9.0986 10.417 8.9942 10.1387 8.91518C10.2127 8.84411 10.2591 8.74904 10.2694 8.64694C10.2711 8.63807 10.2711 8.62898 10.2694 8.62012C11.8454 8.88166 11.5906 10.9673 12.516 10.9673C12.5955 10.9736 12.6754 10.9597 12.7481 10.9269C12.8208 10.8941 12.884 10.8434 12.9318 10.7795C12.9863 10.8401 13.0445 10.8972 13.1062 10.9505Z" fill="#3F3F3F"/>
<path d="M12.7093 18.5281C12.6322 18.7025 12.5551 18.8634 12.478 19.0043C12.2513 19.3904 12.0637 19.7981 11.918 20.2215C11.8362 20.4726 11.7723 20.7292 11.7269 20.9893C11.6621 20.9382 11.5911 20.8954 11.5156 20.8619C11.5691 20.6349 11.6351 20.411 11.7134 20.1913C11.883 19.7434 12.094 19.3123 12.3438 18.9037C12.4075 18.7897 12.4679 18.6589 12.5316 18.5181L12.7093 18.5281Z" fill="#2C62FF"/>
</svg>
