<svg width="23" height="35" viewBox="0 0 23 35" fill="none" xmlns="http://www.w3.org/2000/svg">
<path d="M4.56188 12.865C4.49791 12.8783 4.43283 12.8855 4.36749 12.8866C3.80457 12.7899 3.26409 12.5911 2.77279 12.2998C2.4884 13.1818 1.94483 13.6497 1.94483 15.3848C1.58485 18.8658 0.926091 19.9926 0.818097 21.6485C0.761004 22.2142 0.887198 22.7834 1.17808 23.272C1.25007 23.272 1.27527 22.9588 1.27527 22.8724C1.27706 22.84 1.27706 22.8076 1.27527 22.7752C1.34897 22.8921 1.44746 22.9914 1.56379 23.0661C1.68012 23.1407 1.81143 23.1889 1.94843 23.2072C2.00243 23.2072 2.08882 23.0992 2.12482 23.0776C1.93403 22.7788 1.51286 22.57 1.42646 22.0552C1.42303 22.0073 1.42303 21.9592 1.42646 21.9113C1.43676 21.6829 1.52146 21.4642 1.66765 21.2885C1.68925 21.6017 1.68925 22.0084 1.91603 22.0084C2.02763 22.0084 2.02403 21.9796 2.06002 21.9436C2.38401 21.6197 2.29041 21.0725 2.35881 20.6297C2.40921 20.2986 2.71879 20.0142 2.71879 19.6686C2.71879 19.4598 2.564 19.1934 2.564 18.909C2.564 18.0523 4.52588 15.1904 4.52588 13.5345C4.51219 13.3107 4.52427 13.086 4.56188 12.865V12.865Z" fill="#FCCD97"/>
<path d="M7.10318 2.99754C6.90879 3.15233 6.7936 3.20273 6.79 3.82909C6.79 4.00908 6.59561 4.77945 6.47322 4.77945C6.47322 4.77945 6.39402 3.91189 5.95124 3.91189C5.83965 3.91189 5.81445 4.08108 5.81445 4.16748C5.81445 5.07462 6.7648 5.38781 6.7648 6.12937C6.7689 6.1544 6.7689 6.17993 6.7648 6.20496C6.69255 6.37197 6.65577 6.55217 6.65681 6.73413C6.69161 7.23417 6.91581 7.70212 7.28369 8.04258C7.65158 8.38304 8.13546 8.57038 8.63669 8.56643C9.79223 8.56643 10.1234 7.4433 10.1234 6.27696C10.1428 5.90424 10.0133 5.53909 9.76343 5.26182C9.88942 4.69665 10.2746 4.13508 10.2746 3.71031C10.2746 3.28553 9.91462 3.27833 9.91462 3.79311C9.92375 3.91451 9.91032 4.03656 9.87502 4.15308V4.15308C9.87502 4.15308 9.83542 4.11708 9.79943 4.11708C9.76343 4.11708 9.79943 3.9659 9.79943 3.9407C9.82229 3.54831 9.76597 3.15533 9.63384 2.78516C9.2685 3.0722 8.82035 3.23378 8.35591 3.24593C7.92611 3.24584 7.5005 3.16145 7.10318 2.99754V2.99754Z" fill="#FCCD97"/>
<path d="M5.96969 3.91205C6.41247 3.91205 6.47726 4.7796 6.49166 4.7796C6.61405 4.7796 6.80844 4.00924 6.80844 3.82925C6.80844 3.20288 6.92724 3.15249 7.12163 2.9977C7.50822 3.15459 7.92115 3.23645 8.33836 3.23889C8.8028 3.22674 9.25095 3.06515 9.61628 2.77811C9.74842 3.14829 9.80473 3.54126 9.78187 3.93364C9.78187 3.95884 9.78187 4.11004 9.78187 4.11004C9.78187 4.11004 9.84667 4.14603 9.85747 4.14603C9.89277 4.02951 9.9062 3.90746 9.89707 3.78605C9.89707 3.56286 9.96546 3.44407 10.0447 3.42607C10.0123 1.96096 9.53709 0.819824 8.06477 0.819824H7.76959H7.5104C6.84804 0.819824 5.8653 1.93216 5.8653 3.14889C5.86398 3.41038 5.88324 3.67158 5.9229 3.93005L5.96969 3.91205Z" fill="#3F3F3F"/>
<path d="M4.92621 22.6919C4.56623 23.3399 4.18106 23.689 4.18106 24.6394C4.16491 25.0533 4.29205 25.4602 4.54104 25.7913C4.8003 25.8932 5.07602 25.9469 5.35459 25.9497C6.38413 25.9497 7.28768 24.8698 7.87445 23.8114C6.85857 23.5321 5.87142 23.1573 4.92621 22.6919V22.6919Z" fill="#FCCD97"/>
<path d="M19.6474 17.3316C17.8475 13.7318 18.1607 12.3207 17.9231 10.906C17.7755 10.0168 17.1743 9.49485 16.8431 9.08447C16.5602 9.69471 16.0812 10.1927 15.4824 10.4992C15.54 11.4603 17.3147 14.099 17.7323 15.6217C17.5477 16.0001 17.4575 16.4176 17.4695 16.8384C17.5783 17.5105 17.782 18.1638 18.0743 18.7787C17.9807 18.8939 17.8835 19.0019 17.8835 19.0127C17.8835 19.2575 18.4199 19.4195 18.5494 19.4195C18.6147 19.4206 18.6784 19.399 18.7294 19.3583C18.9135 19.2336 19.134 19.1741 19.3558 19.1891C19.6258 18.8183 19.9318 17.922 19.6474 17.3316Z" fill="#FCCD97"/>
<path d="M16.8836 20.5284C16.4841 20.3814 16.0661 20.2906 15.6416 20.2585C14.9217 20.2585 14.1801 20.2261 13.543 20.6184C13.5672 20.9934 13.6638 21.3601 13.8274 21.6984C14.0433 22.0368 13.7734 23.8582 16.1636 24.0742C16.3591 24.0633 16.5442 23.9829 16.6856 23.8474C17.8051 22.5047 17.15 22.8611 16.8836 20.5284Z" fill="#FCCD97"/>
<path d="M6.94915 26.1836L6.89515 26.3312C6.68276 26.8567 6.22919 27.3607 6.06719 28.1311C5.96318 28.6471 5.99922 29.1816 6.17159 29.679C6.17817 30.0054 6.08113 30.3255 5.89441 30.5933C5.8181 30.6836 5.72168 30.7547 5.6129 30.801C5.50412 30.8473 5.386 30.8674 5.26804 30.8597C5.08073 30.8775 4.89182 30.8527 4.71542 30.7873C4.53901 30.7218 4.37968 30.6174 4.2493 30.4817C4.06078 30.2238 3.96903 29.9078 3.99011 29.589C4.09091 29.3406 4.2601 29.229 4.2745 28.959C4.3357 27.7495 3.82812 27.0511 3.82812 25.9676V25.9424C3.89517 26.1271 4.00174 26.295 4.14039 26.4343C4.27905 26.5736 4.44644 26.6809 4.63088 26.7488C5.03418 26.8493 5.45587 26.8504 5.85968 26.7519C6.2635 26.6535 6.63737 26.4585 6.94915 26.1836V26.1836Z" fill="#3F3F3F"/>
<path d="M6.53795 30.896C6.53795 32.1451 5.78919 31.1408 3.34133 33.0559C2.72936 33.5346 0.990663 33.1243 0.864671 32.6383C0.69188 31.9759 1.20305 31.3495 3.57532 30.0824C3.65049 30.014 3.71699 29.9367 3.77331 29.8521C3.79342 30.1363 3.8974 30.4081 4.07209 30.6332C4.22195 30.7921 4.40538 30.9157 4.60901 30.9948C4.81265 31.0738 5.03136 31.1065 5.24922 31.0904C5.40116 31.096 5.55235 31.0665 5.69098 31.004C5.82961 30.9416 5.95193 30.8479 6.04838 30.7304C6.18489 30.558 6.27865 30.3557 6.32196 30.14C6.3312 30.1324 6.3422 30.1272 6.35396 30.1249C6.36572 30.1226 6.37787 30.1232 6.38932 30.1268C6.40076 30.1304 6.41113 30.1367 6.41948 30.1453C6.42783 30.1539 6.43391 30.1645 6.43715 30.176V30.176C6.51466 30.4078 6.54883 30.6518 6.53795 30.896Z" fill="#3F3F3F"/>
<path d="M7.01678 25.7771C6.70755 26.0569 6.33903 26.2631 5.9388 26.3803C5.53858 26.4975 5.11703 26.5226 4.70571 26.4538C4.23774 26.335 4.00735 25.6511 3.91016 25.2371C3.96613 25.022 4.05736 24.8176 4.18014 24.6323C4.16399 25.0463 4.29113 25.4531 4.54012 25.7842C4.95416 25.9604 5.41572 25.9907 5.84928 25.8704C6.28283 25.7501 6.66272 25.4862 6.92679 25.1219C6.97766 25.3369 7.0078 25.5563 7.01678 25.7771V25.7771Z" fill="#3F3F3F"/>
<path d="M18.1841 22.8223C18.1161 23.424 17.8337 23.9812 17.3885 24.3918C17.1526 24.5948 16.8688 24.7345 16.564 24.7974C16.2591 24.8604 15.9433 24.8447 15.6462 24.7518C15.4598 24.4782 15.312 24.1802 15.207 23.8662C15.5131 23.9886 15.8359 24.0638 16.1646 24.0894C16.36 24.0785 16.5452 23.998 16.6865 23.8626C17.4317 22.9699 17.4065 22.8259 17.2013 22.1455C17.5793 22.2874 17.9167 22.5197 18.1841 22.8223V22.8223Z" fill="#3F3F3F"/>
<path d="M21.0554 29.4564C20.9798 29.8776 20.7746 30.4967 20.1914 30.5687C19.8809 30.6091 19.567 30.5264 19.3167 30.3383C19.2664 29.863 19.1737 29.3931 19.0395 28.9344C18.2943 27.9157 16.8508 26.4145 15.9473 25.1762C16.243 25.2095 16.5425 25.1812 16.8268 25.0932C17.1112 25.0053 17.3742 24.8595 17.5996 24.665C18.0406 24.2594 18.3344 23.7187 18.4347 23.1279C19.3743 24.3843 19.907 26.4506 20.159 27.8905C20.4427 28.2988 20.6965 28.7271 20.9186 29.172L21.023 29.388L21.0554 29.4564Z" fill="#3F3F3F"/>
<path d="M21.7727 33.6218C21.3064 34.0374 20.7176 34.29 20.0952 34.3418H20.0088C19.852 34.2334 19.7278 34.0843 19.6498 33.9104C19.5717 33.7365 19.5428 33.5446 19.566 33.3554C19.5836 32.9483 19.6439 32.5441 19.746 32.1495C19.5804 31.7391 19.332 31.4295 19.332 30.9256C19.332 30.8608 19.332 30.796 19.332 30.7312C19.332 30.6664 19.332 30.6448 19.332 30.6016L19.4112 30.6448C19.6051 30.7441 19.8198 30.7959 20.0376 30.796H20.2212C20.4678 30.7496 20.6945 30.6295 20.8713 30.4514C21.0481 30.2733 21.1666 30.0458 21.2111 29.7988C21.2111 29.7988 21.2471 29.7988 21.2687 29.7988C21.3649 29.961 21.4353 30.1371 21.4775 30.3208C21.5207 30.4504 21.5639 30.5764 21.6035 30.6808C21.6431 30.7852 21.6035 30.7636 21.6035 30.814C21.6035 30.9436 21.6035 31.0767 21.6035 31.2099C21.5999 31.9875 22.615 32.9702 21.7727 33.6218Z" fill="#3F3F3F"/>
<path d="M17.1539 17.469C17.1994 16.8892 17.0822 16.3083 16.8155 15.7915C16.8301 15.672 16.8373 15.5518 16.8371 15.4315C16.8371 15.0715 16.5563 14.4056 16.1819 13.6748C15.4332 12.2349 14.3172 10.471 14.3172 10.1038C14.3193 10.0182 14.3339 9.93327 14.3604 9.85182C14.7256 10.0394 15.0645 10.2742 15.3684 10.5502C16.7291 9.83022 16.9451 8.85468 16.9451 8.72869C16.9451 8.10952 15.75 7.25637 15.3144 6.774C13.6009 4.87691 11.6426 5.0101 9.8499 4.9165C9.81091 5.02486 9.77845 5.13544 9.75271 5.24768C10.0025 5.52495 10.132 5.8901 10.1127 6.26282C10.1127 7.42916 9.7815 8.5523 8.62597 8.5523C8.12473 8.55626 7.64085 8.36891 7.27297 8.02845C6.90508 7.68798 6.68089 7.22005 6.64608 6.72C6.64505 6.53804 6.68182 6.35784 6.75408 6.19083C6.75817 6.1658 6.75817 6.14026 6.75408 6.11523C6.73683 5.84536 6.62461 5.59031 6.43729 5.39527C4.09383 6.24122 3.75185 7.00079 3.37387 8.32551L2.59631 11.3025C2.52431 11.5488 2.46543 11.7988 2.41992 12.0513C2.9935 12.4714 3.65624 12.7535 4.35661 12.8756C4.61264 12.8577 4.86012 12.776 5.07657 12.6381C5.27382 11.9775 5.52298 11.3335 5.82173 10.7122C6.65712 11.6225 7.427 12.5909 8.1256 13.61C8.07303 13.8676 8.03934 14.1287 8.0248 14.3912C8.0248 14.5784 8.05 14.7511 8.068 14.9455C7.30844 15.6979 6.2861 17.433 4.6302 22.5051C5.64534 23.1495 8.29839 24.0134 8.94995 24.0134C9.7599 24.0134 10.3899 21.3352 11.8298 19.8413C12.6325 21.7708 12.4885 22.1271 12.9637 22.1919C13.1113 22.3611 13.3849 22.5231 14.0725 22.5915C13.9429 22.1847 13.9321 21.8175 13.8457 21.6808C13.6821 21.3425 13.5855 20.9758 13.5613 20.6008C14.1985 20.2048 14.9328 20.2408 15.66 20.2408C16.0844 20.2729 16.5024 20.3638 16.9019 20.5108C16.96 21.0504 17.0648 21.584 17.2151 22.1055C17.424 21.99 17.5981 21.8205 17.719 21.6147C17.84 21.4089 17.9034 21.1743 17.9026 20.9356C17.881 19.7189 17.1539 19.8557 17.1539 17.469ZM5.78933 9.09946C5.62374 9.48104 5.51575 10.057 5.71373 10.3954C5.65974 10.3306 5.13417 9.67543 5.45455 9.02746C5.74438 8.54877 6.14579 8.14736 6.62448 7.85753L6.90887 8.25711C6.90887 8.25711 5.96932 8.71069 5.78933 9.09946ZM10.4223 7.32836C11.0841 7.3815 11.7276 7.57151 12.3122 7.88633C12.691 8.08666 13.003 8.39347 13.2096 8.76895C13.4162 9.14443 13.5084 9.57216 13.4749 9.99941L13.3777 10.0822C13.2013 9.07067 12.9349 8.64229 12.0998 8.17072C11.5459 7.88502 10.916 7.7817 10.2999 7.87554L10.4223 7.32836Z" fill="#2C62FF"/>
<path d="M17.8857 20.9534C17.8865 21.1921 17.8231 21.4267 17.7021 21.6325C17.5812 21.8383 17.4071 22.0079 17.1982 22.1234C17.0479 21.6018 16.9431 21.0683 16.885 20.5286C16.4855 20.3816 16.0675 20.2908 15.6431 20.2587C14.9231 20.2587 14.1815 20.2263 13.5444 20.6186C13.5686 20.9936 13.6652 21.3603 13.8288 21.6986C13.9152 21.8354 13.9259 22.2026 14.0555 22.6093C13.368 22.5409 13.0944 22.3789 12.9468 22.2097C12.4716 22.1449 12.6156 21.7886 11.8129 19.8591C10.373 21.353 9.76099 24.0312 8.93304 24.0312C8.27787 24.0312 5.62482 23.1673 4.61328 22.5229C6.26919 17.4436 7.29153 15.7085 8.05108 14.9634L8.95823 14.859L9.72859 14.7474H10.6501L11.8813 14.499C11.8813 14.499 12.0253 14.3442 12.9612 14.2686C13.8972 14.193 13.4292 14.427 14.3075 14.2686L15.1895 14.1138L15.823 13.8114L16.183 13.707C16.543 14.427 16.8382 15.0966 16.8382 15.4637C16.8384 15.5841 16.8312 15.7043 16.8166 15.8237C17.0833 16.3405 17.2005 16.9215 17.155 17.5012C17.155 19.8555 17.8821 19.7187 17.8857 20.9534Z" fill="#3F3F3F"/>
<path d="M13.4758 9.98892L13.3786 10.0717C13.2022 9.06018 12.9358 8.63181 12.1007 8.16023C11.5468 7.87453 10.9169 7.77122 10.3008 7.86505L10.416 7.31787C11.0778 7.37101 11.7213 7.56102 12.3059 7.87585C12.6861 8.07515 12.9995 8.38152 13.2075 8.75707C13.4154 9.13263 13.5087 9.56091 13.4758 9.98892V9.98892Z" fill="#3F3F3F"/>
<path d="M6.90872 8.24669C6.90872 8.24669 5.96918 8.71107 5.78919 9.09984C5.6092 9.48862 5.5156 10.0574 5.71359 10.3958C5.65959 10.331 5.13402 9.67581 5.4544 9.02784C5.74424 8.54915 6.14565 8.14774 6.62434 7.85791L6.90872 8.24669Z" fill="#3F3F3F"/>
<path d="M7.01754 25.7853L6.94915 26.1849C6.63804 26.461 6.26447 26.6574 5.86063 26.7571C5.45678 26.8568 5.03475 26.8569 4.63088 26.7573C4.44644 26.6894 4.27905 26.5821 4.14039 26.4428C4.00174 26.3035 3.89517 26.1357 3.82812 25.9509L3.91092 25.231C4.00811 25.6449 4.2385 26.3109 4.70647 26.4477C5.1167 26.5184 5.53761 26.4956 5.93778 26.3809C6.33794 26.2662 6.70705 26.0626 7.01754 25.7853V25.7853Z" fill="#2C62FF"/>
<path d="M6.33063 30.1554C6.28732 30.371 6.19357 30.5733 6.05705 30.7458C5.9606 30.8633 5.83828 30.9569 5.69965 31.0194C5.56102 31.0818 5.40983 31.1114 5.25789 31.1057C5.03769 31.1241 4.81618 31.0925 4.60988 31.0133C4.40357 30.9342 4.21779 30.8095 4.06636 30.6486C3.89168 30.4235 3.78769 30.1516 3.76758 29.8674L3.97997 29.6118C3.95888 29.9306 4.05063 30.2467 4.23915 30.5046C4.37006 30.6367 4.52881 30.7378 4.70382 30.8007C4.87882 30.8636 5.06566 30.8867 5.25069 30.8681C5.36866 30.8758 5.48677 30.8557 5.59556 30.8094C5.70434 30.7632 5.80075 30.692 5.87706 30.6018C6.06378 30.3339 6.16082 30.0138 6.15424 29.6874L6.33063 30.1554Z" fill="#2C62FF"/>
<path d="M18.4363 23.1383C18.336 23.729 18.0422 24.2697 17.6012 24.6754C17.3758 24.8698 17.1128 25.0156 16.8284 25.1036C16.5441 25.1915 16.2446 25.2198 15.9489 25.1865L15.6465 24.7474C15.9436 24.8403 16.2594 24.856 16.5643 24.793C16.8691 24.7301 17.1529 24.5904 17.3888 24.3874C17.834 23.9768 18.1164 23.4196 18.1843 22.8179L18.4363 23.1383Z" fill="#2C62FF"/>
<path d="M21.2687 29.8126C21.2471 29.791 21.2291 29.7838 21.2111 29.8126C21.1666 30.0595 21.0481 30.2871 20.8713 30.4652C20.6945 30.6432 20.4678 30.7634 20.2212 30.8097H20.0376C19.8198 30.8097 19.6051 30.7578 19.4112 30.6586L19.332 30.6154V30.3454C19.5823 30.5335 19.8963 30.6161 20.2068 30.5757C20.7899 30.5037 20.9951 29.8846 21.0707 29.4634L21.0383 29.395L21.2687 29.8126Z" fill="#2C62FF"/>
</svg>
