<svg width="22" height="36" viewBox="0 0 22 36" fill="none" xmlns="http://www.w3.org/2000/svg">
<path d="M8.44074 26.6865L6.66621 24.9119C6.21148 24.4572 6.29799 23.6977 6.84332 23.3568L8.18079 22.5209C8.66628 22.2175 9.30691 22.3828 9.58495 22.8833L10.7234 24.9326C10.9604 25.3591 10.855 25.8943 10.474 26.1991L9.77254 26.7602C9.37465 27.0785 8.80104 27.0468 8.44074 26.6865Z" fill="#FCCD97"/>
<path d="M12.3537 22.4661L9.40474 20.1725C9.12433 19.9544 8.74925 19.9014 8.41941 20.0333L8.02297 20.1919C7.42329 20.4318 7.2049 21.1687 7.57707 21.6966L10.1017 25.2775C10.3866 25.6816 10.924 25.8168 11.3662 25.5957L12.187 25.1853C12.5258 25.016 12.7398 24.6697 12.7398 24.2909V23.2554C12.7398 22.9469 12.5973 22.6556 12.3537 22.4661Z" fill="#FCCD97"/>
<path d="M4.16695 31.8722C4.70753 30.2653 8.99269 27.5871 8.99269 27.5871C9.27771 26.616 7.65358 25.0972 6.73213 25.4814C5.511 25.4814 4.16695 28.3945 4.16695 28.3945L2.0293 30.4752L2.45683 32.1399C2.45683 32.1399 3.516 32.0544 4.16695 31.8722Z" fill="#3F3F3F"/>
<path d="M11.1333 26.5156L10.5977 25.8985L12.8033 24.6407C12.8033 24.6407 16.6263 31.2083 17.6556 32.1865L18.0967 33.8633L15.8911 34.2825C15.8911 33.7236 15.3618 32.1865 13.2444 30.5097C11.4011 28.6582 11.1333 27.0513 11.1333 26.5156Z" fill="#3F3F3F"/>
<path d="M4.95013 33.8011C4.95013 32.6755 4.81206 32.1646 4.53593 31.5695L3.29332 31.1231C3.70752 31.2719 4.12172 31.3909 2.46488 30.6768C1.76112 29.7297 0.422252 32.6755 1.63647 32.9084C2.02903 33.2111 2.46488 33.3548 2.46488 33.8011C2.87909 34.0987 3.59001 35.3531 4.53593 35.5864C6.84984 36.1572 6.04637 34.8181 4.95013 33.8011Z" fill="#3F3F3F"/>
<path d="M18.7393 32.4099L17.0795 31.9976L15.6875 34.0149C15.9641 34.2897 16.3326 35.3778 16.6645 35.7076C16.9965 36.0374 17.3561 35.845 17.4945 35.7076C17.7711 35.1579 18.3657 34.8184 18.7393 34.4708C19.1543 34.883 20.8141 32.4099 21.2291 31.5854C21.561 30.9257 20.8141 31.0357 20.3991 31.1731L18.7393 32.4099Z" fill="#3F3F3F"/>
<path d="M13.5716 0.66743L13.3316 0.699555C12.6822 0.764443 11.9449 0.208794 10.9849 0.301821C10.2559 0.373525 9.14762 0.489279 8.89645 2.16302C8.85053 2.57153 8.75934 3.87322 8.7127 4.84898L8.73913 4.82437C9.22517 4.42593 9.81316 4.7678 10.1571 3.6009C10.2168 3.49065 10.3047 3.39812 10.4116 3.33267C10.5186 3.26722 10.6409 3.23115 10.7663 3.22812C11.3202 3.17219 11.3274 3.5985 11.4499 4.15596C11.4888 4.16033 11.6737 4.3387 11.7295 4.26224C11.9253 3.9927 11.8365 3.06476 12.6458 3.12027C12.6779 3.01471 12.7007 2.90653 12.7137 2.79697C12.6946 2.62466 12.6526 2.45566 12.589 2.29441C12.8388 2.16093 13.1171 2.08951 13.4003 2.08619C13.5504 1.9608 13.6583 1.7922 13.7091 1.60334C13.7599 1.41448 13.7513 1.21454 13.6844 1.03075C13.6737 0.950751 13.5905 0.744413 13.5716 0.66743Z" fill="#3F3F3F"/>
<path d="M8.71481 4.82976L8.71262 4.84921L8.73905 4.82461C9.22508 4.42617 9.81308 4.76804 10.157 3.60113C10.2168 3.49088 10.3046 3.39836 10.4115 3.33291C10.5185 3.26745 10.6408 3.23139 10.7662 3.22836C11.3201 3.17243 11.3273 3.59874 11.4499 4.15619C11.4888 4.16057 11.6736 4.33893 11.7294 4.26248C11.9252 3.99294 11.8365 3.065 12.6458 3.12051C12.6779 3.01495 12.7006 2.90676 12.7136 2.7972C12.6945 2.6249 12.6525 2.4559 12.5889 2.29465C12.8387 2.16116 13.117 2.08975 13.4002 2.08643C13.4313 2.19939 13.4513 2.31511 13.4599 2.43195C13.4881 2.70696 13.4769 2.98149 13.5051 3.2565C13.549 3.74209 13.3392 3.50576 13.3772 3.904C13.4066 4.20279 13.5472 4.45892 13.5582 4.71229C13.5507 4.77843 13.5109 4.85275 13.3794 4.86555C13.2331 4.88594 13.0845 4.88253 12.9393 4.85547C12.9392 4.90314 12.9418 4.95077 12.9469 4.99816C12.9777 5.28528 12.8873 5.24755 12.7549 5.33904C12.7799 5.39701 12.84 5.42346 12.8464 5.47146C12.8528 5.51946 12.7052 5.67621 12.7029 5.80202C12.7006 5.92783 12.639 6.37005 12.3926 6.38962C12.249 6.405 11.7899 6.38885 11.6463 6.40423C10.9052 6.47852 11.0814 7.60934 10.6075 7.65456C10.2092 7.69253 9.9303 7.08991 9.36189 6.64387C8.9667 6.33827 8.53886 6.07745 8.08617 5.86617C8.35145 5.55774 8.56385 5.20754 8.71481 4.82976Z" fill="#FCCD97"/>
<path d="M11.1343 7.3712L8.56937 4.82227L5.14919 6.09673C5.14919 6.09673 3.36664 7.47006 2.58424 8.64567C1.88353 9.69853 1.30176 11.6194 1.30176 11.6194L0.0195312 13.3187V13.3203C0.0195453 14.5945 0.0195622 16.1331 0.447023 15.8677C3.18297 14.1684 5.86192 16.0093 6.8594 17.1421C6.8594 17.1421 6.58133 15.8677 7.28689 14.5932C7.86773 13.306 9.0935 13.2355 9.85184 12.0443C10.5987 8.64567 11.1343 7.3712 11.1343 7.3712Z" fill="#2C62FF"/>
<path d="M7.95263 10.7144H6.63438C6.16105 10.7144 5.77734 11.0981 5.77734 11.5714V12.0274C5.77734 12.2848 5.87795 12.531 6.04442 12.7274C6.35102 13.089 6.762 13.6316 7.00618 14.1425C7.31224 14.7829 9.07139 15.9715 10.081 16.5911C10.2136 16.6725 10.3266 16.7819 10.4102 16.9131L11.0323 17.8894C11.0788 17.9622 11.1156 18.0408 11.1418 18.1232L11.2 18.3057C11.3709 18.8421 11.9791 19.1269 12.3377 18.693C12.5661 18.4168 12.7407 18.0455 12.7407 17.5706C12.7407 16.8338 12.3202 16.4929 11.9311 16.3588C11.6729 16.2698 11.4044 16.1745 11.2224 15.971C10.771 15.4665 10.1369 14.6937 9.87346 14.1425C9.58124 13.5311 8.833 12.4199 8.38396 11.7813C8.29246 11.6512 8.27763 11.4822 8.34622 11.3387C8.4846 11.0492 8.27354 10.7144 7.95263 10.7144Z" fill="#FCCD97"/>
<path fill-rule="evenodd" clip-rule="evenodd" d="M7.08111 17.1309C6.22867 15.8607 3.7566 13.8284 0.687821 15.8607C-0.381006 18.7481 0.687789 20.355 2.3927 22.212L3.67101 23.0588L5.51131 24.6402C5.51131 24.6402 7.38584 23.8367 10.0643 22.212C9.88482 21.5421 9.68178 20.954 9.46809 20.4392C9.62539 20.2544 9.76811 20.0339 9.79713 19.8193C9.79713 19.7108 9.40088 19.5141 8.92971 19.3187C8.00599 17.6541 7.08111 17.1309 7.08111 17.1309Z" fill="#3F3F3F"/>
<path d="M3.37643 17.9823C3.49035 18.1682 3.65268 18.3195 3.84605 18.4202C4.20514 18.6312 5.64638 21.1461 6.39306 21.5006C6.39306 21.5006 7.00332 21.926 7.09501 21.869C7.15337 21.8267 7.19672 21.7668 7.21878 21.6982C7.05039 21.5029 6.87031 21.3179 6.67954 21.1444C6.09376 20.5497 5.55256 19.9127 5.06034 19.2385C4.76071 18.7461 4.41776 18.2814 4.03558 17.8499C3.86872 17.7497 3.65093 17.5176 3.37643 17.9823Z" fill="#2C62FF"/>
<path d="M8.7229 10.4468L9.79419 9.37549V9.91113L8.58899 10.8485L8.7229 10.4468Z" fill="#3F3F3F"/>
<path d="M6.31299 25.7124L5.77734 25.9802C5.77734 25.9802 7.91993 26.7837 7.91993 27.855C7.91993 27.855 8.18775 27.855 8.45557 27.5872C8.66983 26.9444 7.11646 26.0695 6.31299 25.7124Z" fill="#2C62FF"/>
<path d="M13.099 26.1L13.1218 25.6408C13.1218 25.6408 11.9418 26.9765 11.3197 26.6902C11.3197 26.6902 11.2305 26.884 11.2969 27.1494C11.5989 27.4762 12.6241 26.586 13.099 26.1Z" fill="#2C62FF"/>
<path d="M4.06772 31.425C3.28799 31.2135 2.63458 30.4282 2.40533 30.062C2.39713 30.2334 2.19511 30.1569 2.19511 30.1569C2.48538 30.9654 3.55348 31.5679 4.05124 31.768C3.85754 31.5199 4.22596 31.555 4.06772 31.425Z" fill="#2C62FF"/>
<path d="M17.8454 32.2514C17.4066 32.9297 16.4596 33.3131 16.041 33.4199C16.2018 33.48 16.0674 33.6491 16.0674 33.6491C16.9259 33.6187 17.8249 32.7847 18.1672 32.3715C17.8718 32.4805 18.0174 32.1402 17.8454 32.2514Z" fill="#2C62FF"/>
</svg>
