<svg width="18" height="40" viewBox="0 0 18 40" fill="none" xmlns="http://www.w3.org/2000/svg">
<path d="M8.40505 27.0298C9.3232 27.4476 10.291 27.7464 11.2849 27.9189C10.8889 29.2437 10.4569 30.6584 9.12501 30.6584C8.13147 30.6584 7.77148 29.4992 7.77148 28.8585C7.81957 28.2041 8.03799 27.5737 8.40505 27.0298Z" fill="#FCCD97"/>
<path d="M9.4531 5.88812C9.34901 5.93137 9.26145 6.00672 9.20317 6.1032C9.1449 6.19967 9.11895 6.31224 9.12911 6.42449C9.12911 7.20565 10.2522 8.40798 11.415 8.40798C12.3437 8.40798 12.4013 7.32804 12.6749 7.32804C12.7361 7.32804 12.8045 7.32804 12.8729 7.32804C13.3049 7.32804 13.1609 6.65488 13.4777 6.49649C13.8809 6.12619 14.1526 5.63462 14.2516 5.09617C14.2516 4.90178 14.3884 4.90178 14.4712 4.79738C14.6619 4.47859 14.7764 4.12012 14.806 3.74984C14.8106 3.58607 14.7862 3.42276 14.734 3.26747C14.5867 3.3303 14.4295 3.36685 14.2696 3.37547C13.834 3.33717 13.4189 3.17336 13.0745 2.90389C12.9982 2.89544 12.921 2.90232 12.8475 2.92411C12.7739 2.94591 12.7054 2.98218 12.6461 3.03081C12.5867 3.07943 12.5377 3.13943 12.5018 3.20727C12.466 3.27511 12.444 3.34943 12.4373 3.42586C12.4373 4.6138 11.6274 3.49426 11.217 4.76859C11.0838 3.62025 11.2458 3.45106 10.443 3.45106C10.3258 3.56257 10.255 3.71432 10.245 3.87584C10.3211 4.16929 10.3681 4.46952 10.3854 4.77219C10.3854 5.24736 9.86706 5.27616 9.82026 5.49215C9.65467 5.55694 9.60069 5.79813 9.4531 5.88812Z" fill="#FCCD97"/>
<path d="M11.2151 4.7724C11.6255 3.49807 12.4354 4.61761 12.4354 3.42968C12.4412 3.35261 12.4625 3.27751 12.4979 3.20883C12.5334 3.14016 12.5823 3.07933 12.6418 3.02995C12.7012 2.98057 12.77 2.94367 12.844 2.92143C12.918 2.89919 12.9958 2.89208 13.0726 2.90051C13.42 3.17192 13.8392 3.33583 14.2785 3.37208C14.4384 3.36347 14.5956 3.32692 14.7429 3.26408C14.7615 3.31688 14.7759 3.37104 14.7861 3.42608C15.0034 3.10766 15.1585 2.75101 15.2433 2.37494C15.1245 2.35334 15.0021 2.29934 14.4585 1.61898C13.9941 1.03941 12.9682 0.841423 12.1906 0.819824C11.7007 0.958883 11.2644 1.24315 10.9392 1.63515C10.614 2.02715 10.4153 2.50848 10.3691 3.0157C10.3809 3.16662 10.4161 3.31479 10.4735 3.45487C11.2403 3.45847 11.0819 3.63486 11.2151 4.7724Z" fill="#3F3F3F"/>
<path d="M7.79977 26.2667C7.39299 27.7066 7.07981 29.1465 6.04307 29.1465C5.5535 29.1465 4.30078 28.6173 4.30078 27.9046C4.30078 27.8002 4.30078 27.6958 4.30078 27.5914C4.40253 27.1123 4.44961 26.6232 4.44116 26.1335C4.77729 25.9662 5.14579 25.8741 5.5211 25.8635C6.29938 25.8517 7.07277 25.9886 7.79977 26.2667Z" fill="#FCCD97"/>
<path d="M5.82782 39.1579C5.82782 39.1579 5.77022 39.3415 5.71262 39.5179C5.51646 39.6472 5.28507 39.7126 5.05025 39.7051C4.77667 39.7051 4.67227 39.6583 4.2871 39.6583H4.04952C3.76153 39.6514 3.47529 39.6115 3.19637 39.5395C2.97213 39.3874 2.78336 39.1887 2.64295 38.957C2.50255 38.7252 2.41381 38.4659 2.38281 38.1967C2.42309 37.9725 2.4784 37.7512 2.54839 37.5344L2.59519 37.5884C2.64941 37.6514 2.71611 37.7025 2.79109 37.7384C2.86606 37.7744 2.94768 37.7944 3.03077 37.7972C3.0739 37.8005 3.11723 37.8005 3.16036 37.7972C3.35109 37.7396 3.51227 37.6106 3.61033 37.4372C3.79392 37.2068 3.97031 36.9872 4.61827 37.1276C4.61827 37.1276 4.72987 37.2068 4.73347 37.214C5.02865 38.096 5.90341 38.8663 5.82782 39.1579Z" fill="#3F3F3F"/>
<path d="M6.6019 28.9625C6.6019 29.0057 6.6019 29.0489 6.6019 29.0921C6.60114 29.333 6.58311 29.5736 6.54792 29.812C6.34222 29.9154 6.11574 29.9708 5.88555 29.974C5.48957 29.974 4.08566 29.7472 3.64648 28.7501C3.81215 28.3867 4.03182 28.0506 4.29805 27.7529C4.29805 27.7997 4.29805 27.8429 4.29805 27.8861C4.29805 28.6061 5.55076 29.1281 6.04033 29.1281C6.24032 29.1336 6.43691 29.0756 6.6019 28.9625Z" fill="#3F3F3F"/>
<path d="M4.50547 36.8031C4.50547 36.8427 4.50547 36.8823 4.53427 36.9183C4.33452 36.8595 4.12103 36.8673 3.92615 36.9407C3.73127 37.0141 3.56562 37.1491 3.45433 37.3251C3.37944 37.4522 3.2602 37.547 3.11955 37.5915C2.81717 37.6563 2.63718 37.3503 2.55078 37.1451C2.55078 37.0731 2.55078 36.9759 2.55078 36.8067C2.55867 36.3024 2.69098 35.8077 2.93596 35.3668C2.89996 34.0241 2.79917 32.3358 2.79917 32.3358C2.79917 32.1162 2.79917 32.0694 2.79917 31.9758V31.8642C2.79917 31.5618 2.92157 31.4466 2.92157 31.0363C3.0379 30.3855 3.225 29.7493 3.47953 29.1392C3.65728 29.5166 3.94566 29.831 4.30638 30.0406C4.6671 30.2503 5.08308 30.3451 5.49901 30.3127C5.83066 30.3356 6.16371 30.2978 6.48177 30.2011C5.9886 32.4978 4.22829 34.7296 4.44067 36.3387C4.46587 36.5115 4.49108 36.6663 4.51628 36.7995L4.50547 36.8031Z" fill="#3F3F3F"/>
<path d="M4.05262 12.6381C3.97601 12.8527 3.94177 13.0801 3.95182 13.3077C3.95182 13.5741 3.97702 13.8404 3.97702 14.1068C3.97702 14.636 3.89062 14.6864 3.89062 15.1868C3.89062 15.1868 3.89062 15.2876 3.89062 15.4172C4.80497 16.2379 8.16358 16.8319 8.61716 17.1379C9.26512 17.5662 8.97713 18.495 11.2162 18.495H11.533C11.533 18.4626 11.7346 18.3582 11.6806 18.2502H11.7778C12.1161 18.2502 12.0082 18.1242 12.0514 17.9946C12.109 17.9962 12.1663 17.9858 12.2197 17.9642C12.2731 17.9425 12.3214 17.91 12.3616 17.8688C12.4019 17.8275 12.4332 17.7784 12.4535 17.7245C12.4738 17.6705 12.4827 17.613 12.4797 17.5554C12.4797 17.5554 12.4797 17.5266 12.4797 17.5122C12.5996 17.5044 12.7198 17.5044 12.8397 17.5122C12.9981 17.5122 13.0917 17.4798 13.0917 17.3106C13.0917 16.8319 11.4322 16.7887 11.4322 16.3423C11.4322 16.2415 11.569 16.2739 11.6698 16.2739C11.8714 16.2739 12.073 16.3135 12.2781 16.3135C12.3969 16.3135 12.5157 16.3315 12.5373 16.2127C12.4545 15.8275 12.0765 15.8131 11.3026 15.8131C9.84107 15.8131 10.0355 16.0975 9.5603 16.2523C8.72875 15.8239 7.29602 14.6792 6.01449 14.0708C6.10665 13.7852 6.11539 13.4793 6.03969 13.1889C5.99649 13.0341 4.99215 12.6201 4.41618 12.6201C4.32619 12.6201 4.21821 12.6201 4.21101 12.6201H4.103L4.05262 12.6381Z" fill="#FCCD97"/>
<path d="M13.1711 19.9383C13.1711 19.9383 13.0379 18.5884 12.9875 17.5013C12.9374 17.517 12.8851 17.5243 12.8327 17.5229C12.7128 17.515 12.5926 17.515 12.4727 17.5229C12.4727 17.5229 12.4727 17.5517 12.4727 17.5661C12.4758 17.6243 12.4667 17.6824 12.4459 17.7369C12.4251 17.7913 12.3932 17.8408 12.3522 17.8821C12.3112 17.9235 12.262 17.9558 12.2077 17.977C12.1534 17.9982 12.0953 18.0078 12.0371 18.0053C11.994 18.1348 12.1019 18.2608 11.7636 18.2608H11.6664C11.7204 18.3688 11.5188 18.4732 11.5188 18.5056H11.202C8.96652 18.5056 9.25089 17.5769 8.60293 17.1485C8.32215 16.9613 6.93623 16.6625 5.7015 16.2665C5.47471 17.3465 4.64675 17.1449 4.64316 17.9189C4.65201 18.1238 4.68587 18.3269 4.74396 18.5236C4.54961 18.6712 4.40921 18.8787 4.34439 19.114C4.41812 19.4014 4.46155 19.6958 4.47398 19.9923C4.47398 20.5935 4.17879 20.4135 4.08879 21.3243C4.0456 21.7346 4.0024 22.1054 3.95921 22.4438C3.84761 22.2818 3.72881 22.1666 3.57042 22.1666C2.81807 22.1666 2.68486 23.6065 2.20969 23.9197C1.73452 24.2329 0.107422 24.6397 0.107422 25.9464C0.107422 26.0832 0.157812 26.4972 0.280205 26.58C0.39583 26.6493 0.503303 26.7314 0.600592 26.8247H0.697794C1.38535 26.8247 2.2277 25.842 3.34363 25.4064C3.26233 25.6246 3.16487 25.8364 3.05205 26.04C3.08445 26.076 3.12044 26.1192 3.16004 26.1588C3.50711 26.505 3.9228 26.7748 4.38038 26.9507C4.40198 26.7384 4.41637 26.472 4.42357 26.1372C4.75971 25.9699 5.12821 25.8778 5.50351 25.8672C6.2876 25.852 7.0673 25.9877 7.80018 26.2668C7.63099 26.8607 7.4798 27.4583 7.28181 27.9551C7.36985 28.4343 7.54559 28.8932 7.80018 29.3086C7.7672 29.1597 7.7503 29.0076 7.74978 28.855C7.80813 28.1988 8.03779 27.5695 8.41576 27.0299C9.3339 27.4478 10.3017 27.7466 11.2956 27.9191C11.2416 28.0991 11.1876 28.2791 11.13 28.4663C11.4 28.4915 11.706 28.5131 12.0551 28.5275C12.1307 26.9471 12.7175 25.788 12.7175 25.032C12.7175 24.7297 12.6419 24.3121 12.6419 24.0817C12.9561 22.7759 13.1406 21.4424 13.1927 20.1003C13.1675 20.0463 13.1711 19.9851 13.1711 19.9383ZM15.6909 7.77463C15.0009 7.26654 14.2573 6.83559 13.4735 6.48951C13.1567 6.6479 13.3007 7.32106 12.8687 7.32106C12.8003 7.32106 12.7319 7.32106 12.6707 7.32106C12.3971 7.32106 12.3395 8.401 11.4108 8.401C10.2481 8.401 9.1249 7.19867 9.1249 6.41751C9.11474 6.30526 9.14069 6.19269 9.19897 6.09622C9.25725 5.99974 9.34481 5.92439 9.44889 5.88114C9.53347 5.81851 9.60246 5.73721 9.65048 5.64355C8.61374 5.86674 5.61511 6.72349 4.70076 9.00576C4.41278 9.72572 3.718 11.7848 3.718 12.6416C3.718 12.7783 3.84042 12.8395 3.98441 12.8647C4.00021 12.7853 4.02187 12.707 4.0492 12.6308H4.0924H4.20039C4.20039 12.6308 4.31558 12.6308 4.40558 12.6308C4.98155 12.6308 5.98589 13.0447 6.02909 13.1995C6.05225 13.2893 6.06791 13.3808 6.07589 13.4731C6.21988 13.5703 6.30986 13.6675 6.30986 13.7575C6.30895 13.9083 6.28838 14.0584 6.24867 14.2039C7.4654 14.8302 8.76852 15.8634 9.54968 16.2629C10.0249 16.1082 9.83047 15.8238 11.292 15.8238C12.0659 15.8238 12.4439 15.8238 12.5267 16.2234C12.5051 16.3421 12.3863 16.3241 12.2675 16.3241C12.0623 16.3241 11.8607 16.2845 11.6592 16.2845C11.5584 16.2845 11.4216 16.2522 11.4216 16.3529C11.4216 16.4537 11.5836 16.5941 11.8068 16.6805C12.21 16.783 12.6002 16.9316 12.9695 17.1233C12.9695 17.0225 12.9695 16.9253 12.9695 16.8317C12.9695 16.7381 12.9695 16.6985 12.9695 16.6121C13.1235 15.0786 13.5272 13.5805 14.1646 12.1772C14.647 13.1419 14.6218 13.6171 14.8846 13.6171C15.7253 13.5421 16.5212 13.2046 17.1596 12.6524C16.9725 11.5184 16.4937 9.33335 15.6981 7.77463H15.6909ZM7.03342 9.47734C6.86063 10.1253 6.62665 12.9583 6.62665 9.99931C6.62665 8.19941 8.42654 7.65944 8.75772 7.65944H8.93413C9.01563 7.65749 9.09462 7.68778 9.15393 7.74372C9.21324 7.79966 9.24809 7.87674 9.25091 7.95822C9.25811 8.2858 7.28182 8.56299 7.04063 9.47734H7.03342ZM14.1934 11.5904C14.1934 11.5904 14.161 11.5904 14.161 11.5688C14.4598 11.1027 14.6254 10.5636 14.6398 10.0101C14.6398 8.80778 12.8399 8.25341 12.7967 8.25341C12.7535 8.25341 12.7571 8.25341 12.7571 8.20661C12.7571 8.07702 12.8975 7.97262 12.9479 7.84663C13.5662 8.11799 14.1374 8.48619 14.6398 8.93737C15.0322 9.29735 14.9242 9.43414 14.9242 9.89851C14.9386 10.0857 14.4886 11.5904 14.2006 11.5904H14.1934Z" fill="#2C62FF"/>
<path d="M16.9518 12.832C16.4209 13.2263 15.8041 13.4891 15.152 13.5988L15.2923 13.9588C14.8856 14.7327 15.1592 16.6478 15.1772 16.9466C15.1849 17.9103 15.1175 18.8732 14.9756 19.8264C14.1296 20.4312 13.3881 20.9064 13.3809 22.0187C13.4695 22.0746 13.5688 22.1114 13.6724 22.1267C13.7696 22.1267 13.8488 21.9899 13.9064 21.8459C13.928 21.7883 14.342 21.0396 14.3996 21.8819C14.4248 22.2419 13.586 23.1058 13.604 23.3614C13.6364 23.8618 15.9115 22.5659 16.1455 21.0108L16.6423 17.9581C16.8403 16.6838 17.859 15.0459 16.9518 12.832Z" fill="#FCCD97"/>
<path d="M4.28306 23.9094L3.98069 25.2305L3.15993 26.1521C3.12033 26.1125 3.08434 26.0693 3.05194 26.0333C3.16476 25.8296 3.26222 25.6179 3.34352 25.3997C2.22758 25.8353 1.38524 26.818 0.69768 26.818H0.600479C0.509953 26.726 0.409776 26.6439 0.301689 26.5733C0.179296 26.4905 0.128906 26.0765 0.128906 25.9397C0.128906 24.6294 1.77402 24.2118 2.2312 23.913C2.68837 23.6142 2.83955 22.1455 3.59191 22.1455C3.7503 22.1455 3.8691 22.2607 3.98069 22.4227L4.28306 23.9094Z" fill="#3F3F3F"/>
<path d="M12.9752 17.123C12.6059 16.9313 12.2158 16.7827 11.8125 16.6802C12.2026 16.7018 12.5939 16.6789 12.9788 16.6118C12.9788 16.6982 12.9788 16.7702 12.9788 16.8314C12.9788 16.8926 12.9716 17.0222 12.9752 17.123Z" fill="#3F3F3F"/>
<path d="M13.1674 20.1009C13.1153 21.4429 12.9309 22.7765 12.6167 24.0823C12.6167 24.3235 12.6923 24.7303 12.6923 25.0326C12.6923 25.7886 12.1055 26.9477 12.0299 28.528C11.6699 28.528 11.3747 28.492 11.1048 28.4669C11.1624 28.2833 11.2164 28.1069 11.2704 27.9197C10.2764 27.7472 9.30866 27.4484 8.39052 27.0305C8.01255 27.5701 7.78289 28.1994 7.72454 28.8556C7.73331 29.0091 7.75866 29.1612 7.80015 29.3092C7.54681 28.8935 7.37231 28.4347 7.28538 27.9557C7.48337 27.4589 7.64536 26.8757 7.80375 26.2674C7.07473 25.9872 6.2988 25.8491 5.51787 25.8606C5.14257 25.8712 4.77406 25.9633 4.43793 26.1306C4.43793 26.4654 4.41633 26.7318 4.39473 26.9441C3.88471 26.7527 3.42886 26.4401 3.06641 26.0334C3.17922 25.8298 3.27669 25.618 3.35799 25.3998C3.64019 24.4274 3.85312 23.4362 3.99516 22.4336C4.03836 22.0952 4.08155 21.7136 4.12475 21.3141C4.21474 20.4033 4.50993 20.5941 4.50993 19.9821C4.4975 19.6856 4.45408 19.3912 4.38034 19.1038C4.44516 18.8685 4.58556 18.661 4.77991 18.5134C4.72182 18.3167 4.68799 18.1136 4.67913 17.9087C4.67913 17.1347 5.51068 17.3363 5.73747 16.2563C6.9722 16.6523 8.35812 16.9511 8.6389 17.1383C9.28687 17.5667 8.99887 18.4954 11.2379 18.4954H11.5547C11.5547 18.463 11.7563 18.3586 11.7023 18.2506H11.7995C12.1379 18.2506 12.0299 18.1246 12.0731 17.995C12.1289 17.9937 12.1838 17.9811 12.2347 17.9582C12.2856 17.9352 12.3313 17.9023 12.3692 17.8614C12.4072 17.8204 12.4365 17.7723 12.4555 17.7198C12.4745 17.6673 12.4828 17.6116 12.4799 17.5559C12.4799 17.5559 12.4799 17.5271 12.4799 17.5127C12.5997 17.5048 12.72 17.5048 12.8399 17.5127C12.8923 17.5141 12.9446 17.5068 12.9946 17.4911C13.045 18.571 13.1782 19.9281 13.1782 19.9281C13.1782 19.9281 13.1674 20.0469 13.1674 20.1009Z" fill="#3F3F3F"/>
<path d="M14.9394 9.90527C14.9394 10.0925 14.4894 11.5972 14.2014 11.5972C14.2014 11.5972 14.169 11.5972 14.169 11.5756C14.4665 11.1066 14.6296 10.565 14.6406 10.0097C14.6406 8.80734 12.8407 8.25297 12.7975 8.25297C12.7543 8.25297 12.7579 8.25297 12.7579 8.20617C12.7579 8.07658 12.8983 7.97218 12.9487 7.84619C13.567 8.11755 14.1381 8.48575 14.6406 8.93693C15.0473 9.30771 14.9394 9.4337 14.9394 9.90527Z" fill="#3F3F3F"/>
<path d="M9.25901 7.96525C9.25901 8.28563 7.28273 8.56281 7.04154 9.47716C6.86875 10.1251 6.63477 12.9582 6.63477 9.99913C6.63477 8.19923 8.43466 7.65926 8.76584 7.65926H8.94222C8.98318 7.65831 9.02392 7.66549 9.06208 7.6804C9.10024 7.6953 9.13507 7.71763 9.16453 7.74609C9.194 7.77455 9.21752 7.80858 9.23374 7.8462C9.24996 7.88382 9.25854 7.92428 9.25901 7.96525Z" fill="#3F3F3F"/>
<path d="M6.54029 29.8273L6.4719 30.1873C6.15383 30.284 5.8208 30.3218 5.48916 30.2989C5.07658 30.3303 4.6641 30.2365 4.30571 30.0297C3.94733 29.8229 3.65971 29.5127 3.48047 29.1398L3.64965 28.7798C4.08162 29.7769 5.49275 30.0037 5.88873 30.0037C6.11638 29.9944 6.33904 29.9341 6.54029 29.8273Z" fill="#2C62FF"/>
<path d="M4.73195 37.2278C4.73195 37.2278 4.62036 37.1486 4.61676 37.1414C3.96519 37.001 3.79241 37.2206 3.60882 37.451C3.51075 37.6244 3.34958 37.7534 3.15884 37.811C3.11571 37.8143 3.07239 37.8143 3.02926 37.811C2.94616 37.8082 2.86454 37.7882 2.78957 37.7523C2.7146 37.7163 2.64789 37.6652 2.59367 37.6022L2.54688 37.5482V37.1486C2.63327 37.3538 2.81327 37.6598 3.11565 37.595C3.25629 37.5506 3.37553 37.4557 3.45043 37.3286C3.56172 37.1526 3.72736 37.0177 3.92224 36.9443C4.11712 36.8709 4.33061 36.863 4.53037 36.9218C4.53037 36.8858 4.53038 36.8462 4.50158 36.8066L4.73195 37.2278Z" fill="#2C62FF"/>
</svg>
