<svg width="21" height="38" viewBox="0 0 21 38" fill="none" xmlns="http://www.w3.org/2000/svg">
<path d="M6.83557 3.59188L7.70312 4.45942L5.10049 5.76073L4.66672 5.32696C4.66672 5.32696 4.47252 5.56653 4.23295 5.32696C3.99339 5.0874 3.79918 4.45942 3.79918 4.45942C3.65459 4.31483 3.36541 3.9389 3.36541 3.59188V2.72434L2.93164 1.42303L5.10049 0.989258L6.83557 3.59188Z" fill="#FCCD97"/>
<path d="M7.70152 2.28991C7.70152 3.48773 6.73049 4.45876 5.53266 4.45876C4.33484 4.45876 3.36381 3.48773 3.36381 2.28991C3.36381 1.94405 3.36381 1.6171 3.41602 1.32697C3.47091 1.02195 4.43415 0.323953 4.66512 0.121151C4.97533 -0.151218 4.64843 0.121053 5.53266 0.121053C6.73049 0.121053 7.70152 1.09208 7.70152 2.28991Z" fill="#3F3F3F"/>
<path d="M3.41602 1.32697C3.47091 1.02195 4.43415 0.323953 4.66512 0.121151C4.33163 -0.225866 2.50754 0.699414 2.0625 0.988594L3.41602 1.32697Z" fill="#3F3F3F"/>
<path d="M7.22904 1.94446C7.4639 2.95136 6.83804 3.95801 5.83114 4.19287C4.82424 4.42773 3.81759 3.80187 3.58273 2.79497C3.51492 2.50424 3.45081 2.2294 3.43781 1.97528C3.42415 1.70811 3.46697 1.46384 3.62137 1.24808C3.82873 0.958298 4.23734 0.719932 4.98063 0.546558C5.98753 0.311697 6.99418 0.937559 7.22904 1.94446Z" fill="#3F3F3F"/>
<path d="M3.43781 1.97528C3.42415 1.70811 3.46697 1.46384 3.62137 1.24808C3.27299 1.02176 2.81463 1.09196 2.49723 1.4223L3.43781 1.97528Z" fill="#3F3F3F"/>
<path d="M7.26598 4.45885L6.39844 4.02508L7.26598 3.59131V4.45885Z" fill="#3F3F3F"/>
<path d="M2.90544 10.9725L2.90527 10.9725C3.04945 11.1175 2.90534 10.9719 2.90534 11.8428C2.90534 12.3352 2.18452 14.3092 2.04034 15.3248L1.60795 17.501L0.310547 19.6773V20.5478L0.743013 21.8535L1.17548 21.4183V20.983L2.04034 19.242C1.46371 20.2576 0.742938 21.5053 2.4728 18.3715C4.20267 15.2377 4.63513 13.2936 4.63513 12.7133C4.92345 12.4232 5.84611 11.2336 5.50014 10.5372C5.1542 9.84084 3.48222 10.6822 2.90544 10.9725Z" fill="#FCCD97"/>
<path d="M13.7383 9.63841C14.0278 9.05891 14.6938 7.8999 15.0413 7.8999C15.3888 7.8999 16.3444 8.47941 16.7787 8.76916C17.2131 9.34866 18.1686 11.4638 18.5161 15.2886L20.2535 17.0271C20.2535 17.0271 20.295 17.2649 20.2535 17.4617C20.212 17.6585 20.276 17.7516 20.295 17.8561C20.3254 18.0229 20.3468 18.1443 20.2535 18.331C20.2535 18.7656 19.9649 18.6268 19.8192 18.7656C19.8192 19.2002 18.9505 18.7656 18.9505 18.7656C18.9505 18.7656 18.0423 18.1598 17.7423 17.7068C17.702 17.9094 17.5636 18.1556 17.2131 18.331C16.3444 18.7656 16.7787 17.8963 16.7787 17.8963L17.2131 16.5925C17.2131 15.7232 17.2131 15.2886 16.7787 14.4193C15.91 13.5501 14.607 10.073 15.0413 10.073C15.3888 10.073 14.3174 9.78329 13.7383 9.63841Z" fill="#FCCD97"/>
<path d="M7.68287 23.5217L3.79382 22.644L3.3617 25.2771C3.21766 26.1548 2.49715 27.9102 3.36154 27.9102C3.85042 27.9102 4.94613 27.325 5.52229 27.4713V26.5936L7.68287 23.5217Z" fill="#FCCD97"/>
<path d="M5.57764 27.5752C5.57764 27.2285 3.77211 27.4308 2.86935 27.5752L2.41797 29.7421L2.86935 33.2092V34.9428L3.32073 35.8096L4.67488 34.9428L5.12626 31.909L5.57764 29.7421V27.5752Z" fill="#3F3F3F"/>
<path d="M12.5425 25.187C11.474 24.4934 10.6132 26.0541 10.3164 26.9212L12.5425 30.8228L12.9877 32.1234C13.7298 31.6899 15.0358 30.7361 14.3234 30.3893C13.433 29.9558 13.8782 26.9212 13.433 26.921C12.9877 26.9209 13.8782 26.0541 12.5425 25.187Z" fill="#3F3F3F"/>
<path d="M1.18503 36.1427L2.90187 34.9059L4.61959 34.4937L5.04891 35.7304C5.04891 35.7304 5.0939 36.3272 4.61969 36.5549C4.14547 36.7826 3.33163 36.5549 3.33163 36.5549C3.33163 36.5549 1.6621 36.8487 0.755265 36.862C0.270486 36.869 0.291696 36.862 0.326386 36.5549C0.366822 36.197 1.18503 36.1427 1.18503 36.1427Z" fill="#3F3F3F"/>
<path d="M12.4219 34.4338L12.8424 32.2728L14.1039 30.5439L14.5244 31.8406V33.5694V34.866C14.5244 34.866 14.5986 36.1197 14.1039 36.5948C13.7244 36.9592 13.2877 37.3016 12.8424 37.027C12.5275 36.8328 12.4219 36.1626 12.4219 36.1626V34.4338Z" fill="#3F3F3F"/>
<path d="M5.53203 28.6808C5.01382 28.8063 5.05697 28.6971 4.48124 28.6807C4.01921 28.6466 3.25296 28.5598 2.80187 28.3826C2.789 28.2576 2.94959 27.9816 2.92944 27.8822C3.21207 28.0543 3.64525 28.3137 3.96486 28.3826C4.28447 28.4515 4.60292 28.4624 4.89679 28.4146C5.30878 28.3828 5.1735 28.4461 5.53154 28.3159C5.5625 28.4201 5.51435 28.5568 5.53203 28.6808Z" fill="#2C62FF"/>
<path d="M13.0795 25.8469C12.3774 25.6122 11.2364 26.3735 10.5781 27.4267L10.8414 27.9534C10.8414 27.9534 11.8947 25.8469 13.2112 26.3735C13.2112 26.1102 13.0795 25.8469 13.0795 25.8469Z" fill="#2C62FF"/>
<path d="M12.9496 23.611C12.9496 23.611 11.5947 22.2946 9.78749 22.7337C7.98026 23.1727 9.787 27.1206 10.2392 27.1202C11.1427 24.0497 12.9496 25.8043 12.4979 25.3656C12.1365 25.0147 12.6484 24.0497 12.9496 23.611Z" fill="#FCCD97"/>
<path d="M6.02903 17.9526L4.32281 20.1174L3.16211 23.294C3.16211 23.294 4.65506 24.5929 5.29489 24.5929H7.85423L9.01492 22.5743L8.86161 23.3947C8.86161 23.3947 9.71646 23.1021 10.5687 23.6813C11.4209 24.2606 12.2741 24.2606 12.2741 24.2606C12.7006 24.6935 13.707 23.0073 13.707 23.0073C13.707 23.0073 15.4133 18.5295 14.9867 17.5193C14.418 18.0967 13.0245 18.9917 12.0008 17.9526C10.9771 16.9136 7.59307 17.5197 6.02903 17.9526Z" fill="#3F3F3F"/>
<path d="M3.40248 7.52742C2.53227 8.83514 2.5324 11.4506 2.96744 11.0147C3.40248 10.5788 5.57739 11.0147 5.57739 11.8865C6.44747 13.1942 6.88281 12.3224 7.31785 13.6301C7.66589 14.6763 7.17284 15.519 6.88281 15.8096L6.44777 17.9892C7.17284 17.5533 9.14503 17.7276 11.2332 18.4251C13.3214 19.1225 14.5685 18.2798 15.1486 17.9892V15.8096L14.7136 14.5019L13.8435 11.8865V9.70695C13.8435 9.35822 15.0036 8.39923 15.5836 7.96332L14.2785 6.65561C13.9305 6.30688 13.2634 6.2197 12.9734 6.2197L11.2332 5.34789C10.9432 5.34789 10.2761 5.26071 9.9281 4.91198C9.49306 4.47607 9.05802 4.47607 8.18794 4.47607C7.31785 4.47607 6.01273 5.34789 5.57769 5.34789C5.22965 5.34789 4.56259 6.5103 4.27256 7.09151C4.27256 7.09151 3.70235 7.29372 3.40248 7.52742Z" fill="#2C62FF"/>
<path d="M4.67238 34.8057C4.05666 35.2161 3.2186 34.9767 2.87653 34.8057C2.96205 34.9766 2.79102 35.0621 2.79102 35.0621C3.40674 35.6094 4.41583 35.3472 4.84341 35.1477C4.58686 35.0621 4.84341 34.8058 4.67238 34.8057Z" fill="#2C62FF"/>
</svg>
