<svg width="17" height="40" viewBox="0 0 17 40" fill="none" xmlns="http://www.w3.org/2000/svg">
<path d="M10.5313 36.8859C9.17775 37.4223 7.87102 35.806 7.87102 35.806C7.86443 35.7028 7.84877 35.6004 7.82422 35.5C7.95381 35.6548 9.19214 37.0731 10.4809 36.5799L10.5133 36.7815L10.5313 36.8859Z" fill="#2C62FF"/>
<path d="M10.4808 36.587C9.19203 37.0729 7.9609 35.6546 7.82411 35.507V35.4566C7.54332 34.2327 6.3266 30.7769 5.89822 29.5782C5.86223 29.4738 5.82983 29.391 5.80463 29.3226L5.74706 29.1606C5.65007 28.966 5.56938 28.7638 5.50586 28.5558H5.56707L8.86085 28.5234C8.88139 28.7701 8.93718 29.0125 9.02647 29.2434C9.05887 29.319 9.09124 29.4018 9.13083 29.4846L9.18484 29.5926C9.96599 31.0829 10.1964 33.5164 10.3836 35.5574C10.4124 35.8562 10.4376 36.1442 10.4664 36.425L10.4808 36.587Z" fill="#3F3F3F"/>
<path d="M10.7941 38.6037C10.7941 38.6037 9.17421 38.9421 8.63425 39.392C8.09428 39.842 5.62483 40.112 4.64208 39.2876C4.64208 39.2876 4.34329 38.4345 5.17485 38.4129C6.0064 38.3913 7.86393 36.5518 7.86393 35.8066C7.86393 35.8066 9.17061 37.4229 10.5241 36.8866L10.7941 38.6037Z" fill="#3F3F3F"/>
<path d="M14.8512 36.746C13.4774 36.8769 12.0953 36.8949 10.7186 36.8H10.5134L10.4558 36.4149C10.427 36.1341 10.4018 35.8461 10.373 35.5473C10.5914 35.2898 10.8911 35.1146 11.2226 35.0505C12.1873 34.8309 12.9037 34.7265 13.2061 34.3306C13.5661 35.0505 14.3616 36.0081 15.5351 34.417C15.5351 34.399 16.9894 36.4868 14.8512 36.746Z" fill="#3F3F3F"/>
<path d="M15.5478 34.0747C15.5533 34.1826 15.5533 34.2908 15.5478 34.3987C14.3743 35.9898 13.5859 35.025 13.2188 34.3123C13.2707 34.2449 13.3086 34.1678 13.3303 34.0855C13.7011 34.7587 14.4607 35.529 15.5478 34.0747Z" fill="#2C62FF"/>
<path d="M15.5492 34.0746C14.4692 35.5145 13.7025 34.7657 13.3173 34.0746C13.3519 33.9579 13.3665 33.8362 13.3605 33.7146V33.6966C13.3353 33.1782 12.1546 31.1155 11.1034 29.3768L10.9342 29.096C10.783 28.8513 10.6427 28.6137 10.5059 28.3761L10.6678 28.2105L12.3994 26.4502C12.4354 26.5438 12.4605 26.5978 12.4605 26.5978C12.4605 26.5978 12.6081 26.7886 12.8205 27.1234L13.0005 27.3897C13.9148 28.7793 15.6032 31.6627 15.5492 34.0746Z" fill="#3F3F3F"/>
<path d="M11.6765 23.7215L9.47344 26.7525C9.25073 26.9842 9.07997 27.2607 8.97258 27.5637C8.8652 27.8666 8.82365 28.1889 8.85069 28.5092L5.49565 28.5416C5.26167 27.7856 5.08528 26.4789 6.21561 25.5574C6.21561 25.5574 7.41076 24.1714 7.12997 22.7171L6.79157 22.2491C6.79157 22.2491 6.79157 22.062 6.79157 21.7344C7.36975 21.9942 7.92493 22.3025 8.45111 22.6559C9.41693 23.2822 10.5277 23.6491 11.6765 23.7215Z" fill="#FCCD97"/>
<path d="M12.3993 26.4793L10.5058 28.4052C9.91543 27.4512 9.47266 26.7529 9.47266 26.7529L11.6757 23.7218C11.8287 23.7222 11.9815 23.7114 12.1329 23.6895C11.6793 24.5426 12.2085 26.0113 12.3993 26.4793Z" fill="#E8BD8B"/>
<path d="M12.4346 23.3361C12.3154 23.4356 12.2175 23.558 12.1466 23.6961C11.9968 23.7217 11.8449 23.7325 11.693 23.7285C10.9888 23.6991 10.2954 23.5456 9.64472 23.2749C9.46473 23.2029 9.28472 23.1237 9.12993 23.0517C8.89845 22.9405 8.67583 22.8117 8.46398 22.6665C7.93945 22.3104 7.38406 22.002 6.80448 21.745C6.80448 21.151 6.8045 20.0999 6.7793 18.9299C7.53525 18.3036 9.04356 17.274 10.4583 17.6232C10.6284 17.6641 10.7928 17.7257 10.9478 17.8068C11.0185 17.8423 11.087 17.882 11.153 17.9256C11.9198 18.4188 12.7622 17.994 13.5289 17.2524C13.7413 19.1783 13.2949 22.6341 12.4346 23.3361Z" fill="#3F3F3F"/>
<path d="M13.5152 17.242C12.7485 17.9836 11.9061 18.4083 11.143 17.9152C9.55908 16.9036 7.64757 18.1888 6.76562 18.9231C6.76562 18.8079 6.76562 18.6927 6.76562 18.5631C7.96777 17.6191 9.24107 16.7694 10.5742 16.0217C10.5742 16.0217 11.2942 14.3154 11.0314 11.1008L11.7513 11.0684C11.9529 11.9179 12.7269 15.0929 13.2776 16.2341C13.408 16.5559 13.4881 16.8958 13.5152 17.242Z" fill="#2C62FF"/>
<path d="M10.5585 16.0398C9.22539 16.7875 7.95204 17.6372 6.7499 18.5812C6.44432 18.8142 6.18645 19.1039 5.99035 19.4344C5.87466 19.7396 5.6807 20.0091 5.42797 20.2157C5.17523 20.4223 4.87259 20.5588 4.55043 20.6115C4.14365 21.1443 4.19044 21.3566 3.95285 21.2703C3.71526 21.1839 4.20846 20.2659 4.20846 20.2659C4.20846 20.2659 3.6109 21.2919 3.48851 21.0147C3.36611 20.7375 3.87728 19.9815 3.93127 19.8915C3.85928 19.9815 3.08893 20.9139 3.17172 20.5899C3.30355 20.2267 3.47244 19.8781 3.6757 19.5496C3.52341 19.7177 3.35984 19.8752 3.18614 20.0211C3.03134 20.1471 2.89453 20.2119 2.89453 20.0715C2.89453 19.8627 3.42009 19.3084 3.83047 18.9124C4.08605 18.6604 4.29846 18.4696 4.29846 18.4696C4.23413 18.4602 4.17197 18.4395 4.11487 18.4084C4.03295 18.3566 3.96233 18.2887 3.90728 18.2089C3.85223 18.1291 3.81387 18.039 3.79448 17.944C3.99247 17.9656 4.17968 17.98 4.35607 17.9836C4.95893 18.0157 5.56345 17.9734 6.15597 17.8576L6.6563 17.2781L8.99977 14.5566L8.92779 11.2124L10.9869 11.1152C11.2964 14.3299 10.5585 16.0398 10.5585 16.0398Z" fill="#FCCD97"/>
<path d="M4.15525 18.4082C4.07333 18.3564 4.00271 18.2885 3.94766 18.2087C3.89261 18.1289 3.85425 18.0388 3.83486 17.9438C4.03285 17.9654 4.22006 17.9798 4.39645 17.9834C4.57649 17.6481 4.77975 17.3257 5.00479 17.0187C5.17398 16.8459 5.96236 15.7444 6.46633 15.028C6.42983 14.5295 6.36734 14.0333 6.27914 13.5413C6.10362 13.0695 5.77211 12.672 5.33959 12.4146C4.87162 14.0021 4.00045 17.5443 2.93131 17.789C1.52379 18.1094 1.24303 17.7674 1.24303 17.7674C1.24303 17.7674 1.05223 18.365 1.82259 18.257C1.82259 18.257 1.99536 19.391 0.861426 19.337C0.861426 19.337 0.839819 19.9957 1.43738 19.7221C1.40499 19.7869 0.994638 20.7265 1.7362 20.2729C1.7362 20.2729 1.8226 21.1945 2.42017 20.5105C2.45964 20.5429 2.50552 20.5665 2.55481 20.5797C2.60409 20.593 2.65563 20.5956 2.70601 20.5875C2.7564 20.5793 2.80446 20.5605 2.84703 20.5323C2.88959 20.5042 2.92571 20.4673 2.95293 20.4241C3.0523 20.2925 3.14251 20.1541 3.22291 20.0101C3.06812 20.1361 2.93131 20.2009 2.93131 20.0605C2.93131 19.8517 3.45687 19.2974 3.86725 18.9014" fill="#FCCD97"/>
<path d="M5.84262 12.8001C5.84262 12.8001 5.27026 10.6079 5.89663 8.92676L5.84262 12.8001Z" fill="#2C62FF"/>
<path d="M13.0143 27.4187L11.1028 29.3878L10.9336 29.107L12.8343 27.1523L13.0143 27.4187Z" fill="#2C62FF"/>
<path d="M5.88566 29.5637L9.12547 29.4629C9.08588 29.3801 9.05346 29.2973 9.02106 29.2217L5.78125 29.3081L5.88566 29.5637Z" fill="#2C62FF"/>
<path d="M1.95514 0.668474C2.03073 0.668474 2.2179 0.456085 2.2935 0.459685C2.89106 0.488483 3.41306 -0.040688 4.29861 0.00250955C4.97177 0.0349077 5.99409 0.0853067 6.30007 1.61882C6.37207 1.9788 6.49808 3.18473 6.58447 4.07748L6.55929 4.05588C6.09492 3.6959 5.56934 4.05588 5.20576 2.97594C5.14452 2.87779 5.05901 2.79707 4.95749 2.74159C4.85597 2.6861 4.74189 2.65771 4.6262 2.65916C4.11503 2.63396 4.12942 3.01914 4.02862 3.54471C3.99263 3.54471 3.83421 3.7211 3.77661 3.6527C3.58582 3.41511 3.62545 2.57276 2.90189 2.64476C2.86453 2.54988 2.83915 2.45073 2.8263 2.34958C2.83468 2.1902 2.86497 2.03272 2.9163 1.8816C2.67806 1.76968 2.41601 1.71778 2.1531 1.73041C2.0093 1.62117 1.90254 1.47042 1.84717 1.29853C1.79181 1.12664 1.79052 0.941899 1.84352 0.769268C1.85792 0.715271 1.93714 0.74047 1.95514 0.668474Z" fill="#3F3F3F"/>
<path d="M6.58211 4.05993C6.58381 4.06581 6.58381 4.07205 6.58211 4.07793L6.55693 4.05633C6.09255 3.69635 5.56698 4.05633 5.2034 2.9764C5.14216 2.87824 5.05664 2.79753 4.95512 2.74204C4.85361 2.68655 4.73952 2.65816 4.62384 2.65961C4.11267 2.63441 4.12705 3.01959 4.02626 3.54516C3.99026 3.54516 3.83184 3.72155 3.77425 3.65315C3.58346 3.41557 3.62308 2.57321 2.89952 2.64521C2.86216 2.55034 2.83678 2.45118 2.82394 2.35003C2.83232 2.19065 2.8626 2.03318 2.91394 1.88205C2.6757 1.77013 2.41369 1.71823 2.15078 1.73086C2.12887 1.8364 2.11558 1.94355 2.11114 2.05125C2.11114 2.30683 2.11114 2.55881 2.11114 2.8144C2.08955 3.26077 2.27314 3.03399 2.25515 3.40117C2.25515 3.67835 2.19037 3.80795 2.19037 4.02753C2.19037 4.08873 2.24076 4.15713 2.35955 4.16073C2.47835 4.16432 2.54312 4.27952 2.69791 4.24712C2.7015 4.29025 2.7015 4.33359 2.69791 4.37672C2.69791 4.6431 2.76632 4.6035 2.89232 4.6791C2.87072 4.73309 2.81673 4.76189 2.81313 4.80869C2.80953 4.85549 2.94994 4.98868 2.96073 5.10747C2.97153 5.22627 3.05792 5.61864 3.27031 5.62944C3.4035 5.62944 3.82465 5.60424 3.95784 5.62944C4.6418 5.66544 4.94061 7.81092 5.37979 7.83252C5.73977 7.85051 5.90175 7.07296 6.40572 6.63739C6.7657 6.335 6.80169 5.19747 7.20486 4.97788C6.94783 4.70853 6.73738 4.39832 6.58211 4.05993Z" fill="#FCCD97"/>
<path d="M11.744 11.0823L11.6936 10.8699C10.8225 5.03106 7.76269 4.85827 7.08592 4.89427C6.36597 6.33419 5.32922 7.72731 4.51567 6.219C4.08729 7.57252 4.76047 12.533 4.76047 12.533C5.02684 12.499 5.29738 12.5402 5.5416 12.6518C6.20036 12.9794 6.18598 13.8434 6.18598 13.8434C6.3041 14.231 6.39314 14.6268 6.45236 15.0277C6.56035 15.6973 6.63596 16.4676 6.68635 17.2776L9.02982 14.5561L8.9578 11.2119L11.0169 11.1147" fill="#2C62FF"/>
<path d="M4.67361 10.8156C4.61241 10.6212 4.31365 10.488 4.82482 10.1784C4.86082 10.1568 4.9112 10.1064 4.9436 10.1064C4.97599 10.1064 4.9688 10.1496 4.994 10.1856C4.51522 10.5276 4.56562 10.3368 4.67361 10.8156Z" fill="#3F3F3F"/>
<path d="M8.74199 11.1833C8.74199 11.3633 8.64838 11.4533 8.59438 11.4677C8.06161 11.6045 7.78086 10.1825 7.41729 9.89455C7.2855 9.81436 7.14393 9.75145 6.99609 9.70736C7.01222 9.62414 7.01222 9.5386 6.99609 9.45538V9.43018C7.73405 9.48777 8.10481 11.3777 8.50439 11.2733C8.59438 11.2481 8.63038 11.1653 8.64118 11.0609C8.66638 11.1041 8.70239 11.1437 8.74199 11.1833Z" fill="#3F3F3F"/>
<path d="M10.9292 17.7969C10.9317 18.3015 10.8786 18.805 10.7708 19.298C10.562 20.2483 10.256 20.6587 9.95006 21.7314C9.80493 22.2341 9.69664 22.7466 9.62607 23.265L9.35969 23.1534L9.11133 23.0418C9.18687 22.5385 9.29995 22.0415 9.44969 21.5551C9.78087 20.4751 10.0976 20.0827 10.2992 19.1504C10.4094 18.6458 10.4566 18.1295 10.4396 17.6133C10.6063 17.6647 10.7698 17.726 10.9292 17.7969Z" fill="#2C62FF"/>
</svg>
