<svg width="20" height="30" viewBox="0 0 20 30" fill="none" xmlns="http://www.w3.org/2000/svg">
<path fill-rule="evenodd" clip-rule="evenodd" d="M10.8464 2.10328C10.4448 2.07636 10.0827 2.33727 9.99264 2.71845L9.69396 3.98317C10.5108 4.07858 11.3871 4.17036 12.2452 4.24357C13.1888 4.32406 14.1017 4.38132 14.8852 4.39705C15.6853 4.41311 16.294 4.38412 16.6582 4.31338C16.8966 4.26709 16.9789 4.19453 17.0048 4.1663C17.0306 4.13818 17.065 4.08367 17.0753 3.9588C17.0992 3.66749 16.5627 3.22291 16.3171 2.74399C16.2485 2.61019 16.0737 2.4811 15.7992 2.46269L10.8464 2.10328ZM9.32606 5.54101C10.2072 5.64549 11.1642 5.74698 12.1021 5.82699C13.0656 5.90918 14.0179 5.96949 14.8514 5.98622C15.6683 6.00262 16.4285 5.97897 16.9791 5.87204C17.4783 5.77508 17.911 5.56757 18.2264 5.22391C18.5418 4.88014 18.6747 4.47095 18.7064 4.0853C18.7664 3.35558 18.0672 2.59189 17.7818 2.03533C17.4027 1.29592 16.6392 0.925707 15.9118 0.876954L10.9591 0.51754C9.75414 0.43677 8.66777 1.21951 8.39771 2.36304L8.06337 3.77875C7.72767 3.7337 7.4189 3.69031 7.14588 3.65028C6.69907 3.58478 6.28219 3.88351 6.21475 4.31753C6.14731 4.75154 6.45485 5.15649 6.90166 5.222C7.14154 5.25716 7.40823 5.29485 7.69609 5.33395L3.86014 21.5767C3.5229 23.0047 4.57887 24.3876 6.08356 24.4884L11.5025 24.8517C11.715 24.8659 11.8839 24.9518 11.9872 25.0697C12.2745 25.3978 12.546 25.7546 12.7479 26.0941C12.9584 26.4483 13.0526 26.7167 13.0666 26.8826C13.0693 26.9147 13.0685 26.9367 13.067 26.9506C13.0663 26.9571 13.0626 26.9629 13.057 26.9663C12.9761 27.0169 12.6894 27.122 11.9765 27.0742L2.18166 26.4177C1.73086 26.3874 1.3402 26.7179 1.30909 27.1558C1.27798 27.5937 1.6182 27.9732 2.069 28.0034L11.8639 28.66C12.6887 28.7153 13.4116 28.6343 13.9415 28.3036C14.5558 27.9203 14.7452 27.3154 14.6975 26.7523C14.6541 26.2408 14.4214 25.7307 14.165 25.2993C13.8998 24.8532 13.5642 24.4173 13.2336 24.0398C12.8111 23.5573 12.2123 23.306 11.6152 23.2659L6.19621 22.9027C5.69465 22.8691 5.34266 22.4081 5.45507 21.9321L9.32606 5.54101Z" fill="#2C62FF"/>
<path d="M9.69396 3.98317L9.99264 2.71845C10.0827 2.33727 10.4448 2.07636 10.8464 2.10328L15.7992 2.46269C16.0737 2.4811 16.2485 2.61019 16.3171 2.74399C16.5627 3.22291 17.0992 3.66749 17.0753 3.9588C17.065 4.08367 17.0306 4.13818 17.0048 4.1663C16.9789 4.19453 16.8966 4.26709 16.6582 4.31338C16.294 4.38412 15.6853 4.41311 14.8852 4.39705C14.1017 4.38132 13.1888 4.32406 12.2452 4.24357C11.3871 4.17036 10.5108 4.07858 9.69396 3.98317ZM9.69396 3.98317L9.32606 5.54101M9.32606 5.54101C10.2072 5.64549 11.1642 5.74698 12.1021 5.82699C13.0656 5.90918 14.0179 5.96949 14.8514 5.98622C15.6683 6.00262 16.4285 5.97897 16.9791 5.87204C17.4783 5.77508 17.911 5.56757 18.2264 5.22391C18.5418 4.88014 18.6747 4.47095 18.7064 4.0853C18.7664 3.35558 18.0672 2.59189 17.7818 2.03533C17.4027 1.29592 16.6392 0.925707 15.9118 0.876954L10.9591 0.51754C9.75414 0.43677 8.66777 1.21951 8.39771 2.36304L8.06337 3.77875M9.32606 5.54101L5.45507 21.9321C5.34266 22.4081 5.69465 22.8691 6.19621 22.9027L11.6152 23.2659C12.2123 23.306 12.8111 23.5573 13.2336 24.0398C13.5642 24.4173 13.8998 24.8532 14.165 25.2993C14.4214 25.7307 14.6541 26.2408 14.6975 26.7523C14.7452 27.3154 14.5558 27.9203 13.9415 28.3036C13.4116 28.6343 12.6887 28.7153 11.8639 28.66L2.069 28.0034C1.6182 27.9732 1.27798 27.5937 1.30909 27.1558C1.3402 26.7179 1.73086 26.3874 2.18166 26.4177L11.9765 27.0742C12.6894 27.122 12.9761 27.0169 13.057 26.9663V26.9663C13.0626 26.9629 13.0663 26.9571 13.067 26.9506C13.0685 26.9367 13.0693 26.9147 13.0666 26.8826C13.0526 26.7167 12.9584 26.4483 12.7479 26.0941C12.546 25.7546 12.2745 25.3978 11.9872 25.0697C11.8839 24.9518 11.715 24.8659 11.5025 24.8517L6.08356 24.4884C4.57887 24.3876 3.5229 23.0047 3.86014 21.5767L7.69609 5.33395M8.06337 3.77875C7.72767 3.7337 7.4189 3.69031 7.14588 3.65028C6.69907 3.58478 6.28219 3.88351 6.21475 4.31753C6.14731 4.75154 6.45485 5.15649 6.90166 5.222C7.14154 5.25716 7.40823 5.29485 7.69609 5.33395M8.06337 3.77875L7.69609 5.33395" stroke="#2C62FF"/>
</svg>
