<svg width="16" height="17" viewBox="0 0 16 17" fill="none" xmlns="http://www.w3.org/2000/svg">
<g clip-path="url(#clip0_4680_111703)">
<path d="M13.5298 14.0295C16.5837 10.9756 16.5837 6.02437 13.5298 2.97052C10.476 -0.083321 5.52473 -0.0833208 2.47088 2.97052C-0.582963 6.02437 -0.582963 10.9756 2.47088 14.0295C5.52473 17.0833 10.476 17.0833 13.5298 14.0295Z" fill="white"/>
<path d="M13.1801 2.6416C14.0648 4.256 14.3517 6.13079 13.9902 7.9359C13.6287 9.74101 12.6419 11.3607 11.2037 12.5099C9.76544 13.659 7.9679 14.264 6.12751 14.2182C4.28712 14.1724 2.52189 13.4788 1.14258 12.2595C1.69086 13.2599 2.45138 14.1283 3.37079 14.8037C4.2902 15.479 5.34625 15.9451 6.46484 16.1691C7.58344 16.3931 8.73751 16.3697 9.8461 16.1005C10.9547 15.8313 11.991 15.3228 12.8822 14.6107C13.7735 13.8986 14.4982 13.0001 15.0054 11.9782C15.5127 10.9564 15.7902 9.83596 15.8186 8.6955C15.847 7.55504 15.6255 6.42218 15.1697 5.37638C14.7139 4.33058 14.0348 3.39716 13.1801 2.6416Z" fill="#EDEDED"/>
<g style="mix-blend-mode:multiply">
<path d="M13.5674 3.01074C14.7429 4.6008 15.2724 6.57715 15.0493 8.54192C14.8261 10.5067 13.8669 12.314 12.3648 13.5999C10.8626 14.8858 8.92907 15.5549 6.95339 15.4725C4.97771 15.3901 3.10661 14.5622 1.7168 13.1556C2.35564 14.0179 3.16515 14.7395 4.09493 15.2754C5.02471 15.8114 6.05486 16.1502 7.12123 16.2707C8.18761 16.3913 9.2674 16.2911 10.2934 15.9763C11.3193 15.6615 12.2695 15.1388 13.0848 14.4409C13.9 13.743 14.5629 12.8848 15.0321 11.9196C15.5013 10.9545 15.7668 9.90304 15.8121 8.83082C15.8573 7.7586 15.6814 6.68854 15.2952 5.68726C14.9091 4.68597 14.3209 3.77489 13.5674 3.01074Z" fill="#EDEDED"/>
</g>
<path d="M8 0.5C3.58881 0.5 0 4.08881 0 8.5C0 12.9112 3.58881 16.5 8 16.5C12.4112 16.5 16 12.9112 16 8.5C16 4.08881 12.4112 0.5 8 0.5ZM1.46853 11.1394C0.605315 9.79231 0.481679 8.32657 0.47049 8.16993C0.945455 6.49441 1.77455 5.64238 1.93902 5.48462C2.8179 5.60657 3.91776 5.64741 4.24168 5.65692C4.20587 6.08601 4.26406 7.42531 5.28783 9.01357C4.6914 9.8271 4.20251 10.7143 3.83329 11.653C2.32336 11.8152 1.55245 11.2105 1.46853 11.1394ZM10.1197 4.0435C10.3676 4.84741 11.0747 6.66503 11.1933 6.96881C10.5259 7.92741 9.72576 8.78634 8.81678 9.51986C8.53706 9.43874 7.00699 9.01133 5.44839 8.93245C4.33846 7.21888 4.40783 5.80853 4.42461 5.60993L6.65287 3.14839C6.97287 3.17916 8.99636 3.40741 10.1197 4.0435ZM5.37455 1.41413C4.74006 1.67138 4.12333 1.97041 3.52839 2.30923C4.19762 1.82445 4.94108 1.45149 5.72979 1.2049C5.60763 1.26788 5.48904 1.33754 5.37455 1.41357V1.41413ZM1.81818 5.35538C1.65035 5.51147 0.891189 6.28014 0.391049 7.81692C0.536194 6.19613 1.19717 4.66457 2.27692 3.44713C1.83664 4.38252 1.81538 5.16126 1.81818 5.35538ZM9.4249 12.8519C9.42098 12.5599 9.37846 10.8888 8.9421 9.64965C9.8538 8.912 10.6577 8.0503 11.3303 7.08965C12.4039 7.43427 13.6638 7.6586 13.9278 7.70504C14.0196 7.94504 14.438 9.13608 14.4425 10.8703C13.1759 12.7064 12.3217 13.2765 12.1958 13.3554C10.4056 13.4673 9.58657 12.9666 9.4249 12.8519ZM15.1787 11.1176L14.6221 10.8379C14.6131 9.03483 14.1745 7.83818 14.0901 7.62056C14.4431 6.75287 14.5885 5.78112 14.6294 5.46C14.7839 5.51219 14.9357 5.57213 15.0842 5.63958C15.792 7.39109 15.8257 9.34273 15.1787 11.1176ZM14.9824 5.40126C14.8067 5.32965 14.6685 5.28434 14.6092 5.26643C13.5899 3.7386 12.3916 2.86084 12.2243 2.74392C12.0229 2.32545 11.6923 1.94671 11.3824 1.65245C12.9808 2.44599 14.2535 3.77069 14.9824 5.39958V5.40126ZM10.8073 1.39566C11.1558 1.66923 11.7276 2.17888 12.0302 2.75678C11.3617 3.03405 10.7392 3.41132 10.1841 3.87566C9.01818 3.22839 7.02601 3.00573 6.67636 2.97049C6.40151 2.41761 6.02562 1.92104 5.56811 1.50643C5.98788 1.25775 6.43959 1.06747 6.91077 0.940839C8.22751 0.75081 9.57106 0.907978 10.8084 1.39678L10.8073 1.39566ZM1.6593 12.7579L1.69455 12.7545L1.6386 12.6399C1.42825 12.1923 1.44504 11.6329 1.46797 11.3666C1.71804 11.5378 2.32392 11.8628 3.32196 11.8628C3.49764 11.8623 3.67317 11.8526 3.84783 11.8337C4.0497 12.1634 4.27069 12.4809 4.50965 12.7848C4.89231 13.2709 5.48531 13.9227 6.15832 14.3064C6.07608 14.989 6.13091 15.4488 6.16336 15.6357C5.85429 15.6768 5.54087 15.6727 5.23301 15.6234C3.77812 15.0538 2.53146 14.0542 1.6593 12.7579ZM7.11385 16.0883C6.83108 16.0055 6.57102 15.8591 6.35357 15.6603C6.33119 15.5529 6.24895 15.0813 6.33846 14.3327C6.65846 14.2678 8.08615 13.9378 9.33482 13.0097C9.53119 13.1467 10.2299 13.5501 11.6845 13.5501C11.8277 13.5501 11.9793 13.5462 12.1382 13.5372C12.1673 14.4474 11.8126 14.9269 11.8092 14.9319L11.7108 15.0589L11.8836 15.0773C10.4478 15.9278 8.77236 16.283 7.11496 16.0883H7.11385Z" fill="#1B2028"/>
<g style="mix-blend-mode:soft-light" opacity="0.48">
<path d="M4.52291 4.41506C5.6227 3.47674 6.19676 2.34396 5.80512 1.88491C5.41347 1.42586 4.20442 1.81438 3.10463 2.75269C2.00484 3.69101 1.43078 4.82379 1.82242 5.28284C2.21407 5.74189 3.42312 5.35337 4.52291 4.41506Z" fill="#EDEDED"/>
</g>
<g style="mix-blend-mode:soft-light" opacity="0.2">
<path d="M3.8776 3.67439C4.53268 3.11549 4.90587 2.4774 4.71115 2.24917C4.51643 2.02093 3.82753 2.28899 3.17245 2.84789C2.51737 3.40679 2.14418 4.04488 2.3389 4.27311C2.53362 4.50135 3.22252 4.23329 3.8776 3.67439Z" fill="#EDEDED"/>
</g>
</g>
<defs>
<clipPath id="clip0_4680_111703">
<rect width="16" height="16" fill="white" transform="translate(0 0.5)"/>
</clipPath>
</defs>
</svg>
