<svg width="38" height="13" viewBox="0 0 38 13" fill="none" xmlns="http://www.w3.org/2000/svg">
<path fill-rule="evenodd" clip-rule="evenodd" d="M10.4565 2.34615C9.91911 2.34615 9.38385 2.41266 8.86361 2.54408C7.5647 2.8722 6.40593 3.59297 5.55371 4.60287L3.39339 7.16292C3.07099 7.54497 2.89474 8.02424 2.89474 8.51886V10.3901C2.89474 10.5358 3.01592 10.6538 3.16541 10.6538C3.25893 10.6538 3.34583 10.6068 3.39523 10.5294L6.35353 5.89695C6.62994 5.4641 7.21415 5.33154 7.65839 5.60087C8.10263 5.8702 8.23868 6.43943 7.96226 6.87228L5.00397 11.5048C4.60872 12.1237 3.91357 12.5 3.16541 12.5C1.96949 12.5 1 11.5554 1 10.3901V8.51886C1 7.59654 1.32866 6.70284 1.92985 5.99042L4.09017 3.43037C5.19678 2.119 6.70146 1.18307 8.3881 0.757008C9.06364 0.58636 9.75868 0.5 10.4565 0.5H28.4255C29.0971 0.5 29.7652 0.593005 30.4099 0.776224C31.9071 1.2017 33.2185 2.09648 34.1407 3.32187L36.1948 6.05107C36.7179 6.74613 37 7.58561 37 8.44754V10.408C37 11.5634 36.0387 12.5 34.8529 12.5C34.2007 12.5 33.5838 12.2111 33.1763 11.7149L29.2734 6.96126C28.9465 6.56317 29.0128 5.98228 29.4213 5.66381C29.8299 5.34534 30.4261 5.40989 30.7529 5.80797L34.6559 10.5616C34.7038 10.6199 34.7763 10.6538 34.8529 10.6538C34.9923 10.6538 35.1053 10.5438 35.1053 10.408V8.44754C35.1053 7.97828 34.9517 7.52123 34.6669 7.14282L32.6128 4.41362C31.9371 3.51583 30.9763 2.86026 29.8794 2.54853C29.4071 2.41429 28.9175 2.34615 28.4255 2.34615H10.4565Z" fill="#2C62FF" stroke="#2C62FF"/>
</svg>
