<svg width="120" height="15" viewBox="0 0 120 15" fill="none" xmlns="http://www.w3.org/2000/svg">
<path fill-rule="evenodd" clip-rule="evenodd" d="M5.85958 0.941525C6.20489 1.02237 6.41866 1.36517 6.33704 1.7072L3.55301 13.3739C3.47139 13.7159 3.1253 13.9276 2.77999 13.8468C2.43468 13.7659 2.22091 13.4231 2.30253 13.0811L5.08656 1.41444C5.16818 1.07241 5.51427 0.860681 5.85958 0.941525ZM113.713 0.941525C114.058 0.860681 114.404 1.07241 114.486 1.41444L117.27 13.0811C117.352 13.4231 117.138 13.7659 116.792 13.8468C116.447 13.9276 116.101 13.7159 116.019 13.3739L113.235 1.7072C113.154 1.36517 113.368 1.02237 113.713 0.941525ZM18.0447 0.936818C18.3926 1.00574 18.6183 1.341 18.5487 1.68563L16.193 13.3523C16.1234 13.6969 15.7849 13.9204 15.437 13.8515C15.089 13.7826 14.8634 13.4473 14.933 13.1027L17.2887 1.43602C17.3583 1.09139 17.6968 0.867892 18.0447 0.936818ZM30.0152 0.932813C30.3654 0.989569 30.6028 1.31675 30.5455 1.66359L28.6181 13.3303C28.5608 13.6771 28.2304 13.9123 27.8803 13.8555C27.5301 13.7987 27.2927 13.4716 27.35 13.1247L29.2774 1.45806C29.3347 1.11122 29.665 0.876057 30.0152 0.932813ZM102.418 0.931087C102.769 0.880499 103.095 1.12143 103.146 1.46923L104.859 13.1359C104.91 13.4837 104.667 13.8066 104.316 13.8572C103.965 13.9078 103.639 13.6669 103.588 13.3191L101.875 1.65242C101.824 1.30463 102.067 0.981675 102.418 0.931087ZM41.5225 0.926137C41.8764 0.95163 42.1424 1.25645 42.1166 1.60698L41.26 13.2737C41.2343 13.6242 40.9265 13.8877 40.5726 13.8622C40.2187 13.8367 39.9527 13.5319 39.9785 13.1813L40.8351 1.51466C40.8608 1.16414 41.1686 0.900644 41.5225 0.926137ZM90.4943 0.924881C90.8489 0.912109 91.1468 1.18648 91.1597 1.5377L91.588 13.2044C91.6009 13.5556 91.3239 13.8507 90.9693 13.8634C90.6147 13.8762 90.3168 13.6018 90.3039 13.2506L89.8756 1.58395C89.8627 1.23273 90.1397 0.937652 90.4943 0.924881ZM53.4686 0.92446C53.8234 0.92446 54.1111 1.20937 54.1111 1.56082L53.6828 13.2275C53.6828 13.5789 53.3951 13.8639 53.0403 13.8639C52.6855 13.8639 52.3978 13.5789 52.3978 13.2275L52.8261 1.56082C52.8261 1.20937 53.1138 0.92446 53.4686 0.92446ZM66.318 0.92446C66.6728 0.92446 66.9604 1.20937 66.9604 1.56082L66.5321 13.2275C66.5321 13.5789 66.2445 13.8639 65.8897 13.8639C65.5348 13.8639 65.2472 13.5789 65.2472 13.2275L65.6755 1.56082C65.6755 1.20937 65.9631 0.92446 66.318 0.92446ZM78.3107 0.92446C78.6655 0.92446 78.9532 1.20937 78.9532 1.56082V13.2275C78.9532 13.5789 78.6655 13.8639 78.3107 13.8639C77.9559 13.8639 77.6682 13.5789 77.6682 13.2275V1.56082C77.6682 1.20937 77.9559 0.92446 78.3107 0.92446Z" fill="url(#paint0_linear_4700_110417)" stroke="#2C62FF" stroke-linecap="round" stroke-linejoin="round"/>
<path fill-rule="evenodd" clip-rule="evenodd" d="M3.57031 1.13636C3.57031 0.78491 3.85796 0.5 4.21278 0.5H115.36C115.715 0.5 116.002 0.78491 116.002 1.13636C116.002 1.48782 115.715 1.77273 115.36 1.77273H4.21278C3.85796 1.77273 3.57031 1.48782 3.57031 1.13636Z" fill="#2C62FF" stroke="#2C62FF"/>
<path fill-rule="evenodd" clip-rule="evenodd" d="M1 13.8634C1 13.512 1.28764 13.2271 1.64247 13.2271H118.358C118.712 13.2271 119 13.512 119 13.8634C119 14.2149 118.712 14.4998 118.358 14.4998H1.64247C1.28764 14.4998 1 14.2149 1 13.8634Z" fill="#2C62FF" stroke="#2C62FF"/>
<defs>
<linearGradient id="paint0_linear_4700_110417" x1="59.7862" y1="0.924316" x2="59.7862" y2="13.864" gradientUnits="userSpaceOnUse">
<stop stop-color="#2C62FF"/>
<stop offset="1" stop-color="#2C62FF"/>
</linearGradient>
</defs>
</svg>
