<svg width="30" height="40" viewBox="0 0 30 40" fill="none" xmlns="http://www.w3.org/2000/svg">
<path d="M26.6287 5.68627L26.002 5.86461C25.3993 6.0361 25.101 6.71322 25.3812 7.27364L25.581 7.67313C25.867 8.24522 26.6092 8.40541 27.1058 8.00223L28.4823 6.88453C28.6034 6.78618 28.6999 6.66086 28.7639 6.51858L28.8896 6.23931C28.996 6.00281 29.0064 5.73423 28.9185 5.49022L28.3367 3.87397C28.2976 3.76532 28.2776 3.65072 28.2776 3.53525V1.74339C28.2776 1.63598 28.1905 1.54891 28.0831 1.54891C27.9757 1.54891 27.8886 1.46184 27.8886 1.35444V1.23659C27.8886 1.15943 27.86 1.08501 27.8084 1.02766L27.4996 0.68457H27.1107H26.9577C26.8075 0.68457 26.6644 0.748317 26.5639 0.859953L26.5208 0.907797C26.4065 1.03479 26.378 1.21729 26.4481 1.37309L26.5556 1.61192C26.6336 1.78513 26.5069 1.98108 26.3169 1.98108C26.1052 1.98108 25.981 2.21946 26.1025 2.39294L26.6361 3.15531C26.6898 3.23195 26.7775 3.27759 26.871 3.27759C27.0097 3.27759 27.1286 3.37695 27.1532 3.51349L27.3392 4.54729C27.4303 5.05312 27.1231 5.5456 26.6287 5.68627Z" fill="#FCCD97"/>
<path d="M15.8169 15.7327V13.0994C15.8169 12.4147 16.4896 11.9327 17.1381 12.1526L17.8341 12.3886C18.3177 12.5527 18.5988 13.0545 18.4638 13.547C18.0618 15.0142 17.3647 17.1474 17.0886 17.4226C16.7495 17.7606 12.7087 17.2818 10.7307 17.0002H9.7611C9.56419 17.0002 9.37165 16.942 9.20765 16.833L8.35131 16.264C8.24453 16.193 8.11917 16.1552 7.99096 16.1552H7.76233C7.529 16.1552 7.33984 15.966 7.33984 15.7327V15.6101C7.33984 15.4181 7.41628 15.234 7.55226 15.0985C7.68767 14.9635 7.87106 14.8877 8.06224 14.8877H8.18756H8.85988C8.97221 14.8877 9.07996 14.9323 9.15951 15.0116L9.2682 15.1199C9.37376 15.2251 9.54453 15.2251 9.65008 15.1199C9.77072 14.9997 9.97114 15.0195 10.0658 15.1611L10.472 15.7683C10.6337 16.0101 10.9046 16.1552 11.1954 16.156L11.2626 16.1561C13.1309 16.161 15.8169 16.168 15.8169 15.7327Z" fill="#FCCD97"/>
<path d="M10.6876 27.0134V27.911L9.33698 27.4622L7.98633 27.0134V25.667L8.43655 25.2182L12.4885 22.0767C13.3889 22.8246 15.0097 24.5001 14.2894 25.2182C13.569 25.9363 11.5881 26.7142 10.6876 27.0134Z" fill="#FCCD97"/>
<path d="M16.7389 24.9941L20.3043 25.7195L19.0969 28.127C18.8286 28.5282 19.0969 29.3307 19.0969 29.3307L19.4994 29.7319C18.7016 30.2622 17.4125 31.4583 17.7031 31.7921C17.7696 31.8588 17.7812 31.8706 17.7113 31.8008C17.7084 31.798 17.7057 31.7951 17.7031 31.7921C17.4634 31.5517 16.5107 30.5989 16.0907 30.1802C15.8224 29.7789 15.8772 29.3307 15.8772 29.3307C15.7665 27.9113 16.6047 26.3316 16.7389 24.9941Z" fill="#FCCD97"/>
<path d="M10.5804 27.9117C10.2967 27.0142 8.89026 27.5126 7.98737 26.6152L7.97234 26.6424C7.55152 27.4031 6.64189 29.0473 5.98764 29.7568C5.32548 30.4749 4.88404 30.6544 4.74609 30.6544V32.0007L5.98764 32.4495C6.26353 32.0007 7.66325 31.153 9.28389 29.8565C10.9045 28.56 10.5804 27.9117 10.5804 27.9117Z" fill="#3F3F3F"/>
<path d="M17.7101 31.8628C17.386 31.1529 19.3308 29.5322 19.6549 29.8563C19.979 30.1804 21.5997 31.5953 21.5997 32.2641C21.5997 32.9329 21.6774 34.3509 21.9886 34.6719C22.2998 34.993 23.1555 36.6784 23.5444 37.481C23.5444 37.481 23.1557 38.086 22.7665 38.2836C22.2812 38.53 21.4168 38.3349 21.242 38.2916C21.2242 38.2933 21.2107 38.2836 21.2107 38.2836C21.2107 38.2836 21.2217 38.2866 21.242 38.2916C21.3021 38.2861 21.411 38.1517 21.2107 37.0797C20.9512 35.6907 18.0343 32.5727 17.7101 31.8628Z" fill="#3F3F3F"/>
<path d="M5.39291 33.0975C5.66179 32.5953 6.04121 32.2874 6.04121 32.2874L5.21615 31.8012V30.3424L4.3911 30.3426H2.32847C2.32847 30.3426 1.13549 29.6975 0.855041 29.8562C0.359253 30.1366 1.50341 31.8012 1.50341 31.8012L3.15352 32.7736C3.15352 32.7736 5.06874 33.7457 5.39291 33.0975Z" fill="#3F3F3F"/>
<path d="M20.2561 38.3759L21.5063 37.4499L23.2195 36.9868L24.1919 37.6351C24.1919 37.6351 24.7409 38.2921 24.5935 38.839C24.4669 39.3088 23.8678 39.5798 23.8678 39.5798L20.2561 39.7651C20.2561 39.7651 19.0059 39.2557 19.0059 38.839C19.1512 38.339 20.2561 38.3759 20.2561 38.3759Z" fill="#3F3F3F"/>
<path d="M17.4565 1.44425L17.6671 1.49692C18.2395 1.61982 18.9522 1.19846 19.7985 1.37753C20.441 1.51447 21.4172 1.72866 21.4733 3.24554C21.4733 3.61422 21.4242 4.78347 21.368 5.65778L21.3469 5.63321C20.9537 5.22941 20.3954 5.47519 20.2058 4.40074C20.1636 4.2965 20.0946 4.20524 20.0058 4.13619C19.917 4.06714 19.8116 4.02274 19.7002 4.00748C19.2121 3.90214 19.1629 4.28136 18.9979 4.76592C18.9628 4.76592 18.7802 4.90637 18.7381 4.83263C18.5906 4.5728 18.7627 3.75467 18.0358 3.72307C18.0178 3.62577 18.0084 3.52708 18.0077 3.42812C18.042 3.27648 18.0964 3.13006 18.1693 2.99272C17.96 2.84873 17.7191 2.7572 17.467 2.72587C17.3458 2.59908 17.2666 2.43801 17.2402 2.2646C17.2138 2.09119 17.2415 1.91386 17.3195 1.75675C17.3371 1.68653 17.4319 1.51096 17.4565 1.44425Z" fill="#3F3F3F"/>
<path d="M21.3673 5.63945V5.65701L21.3462 5.63243C20.953 5.22864 20.3947 5.47442 20.2051 4.39997C20.1629 4.29573 20.0939 4.20447 20.0051 4.13542C19.9163 4.06637 19.8109 4.02197 19.6995 4.00671C19.2114 3.90137 19.1622 4.28059 18.9972 4.76515C18.9621 4.76515 18.7795 4.9056 18.7374 4.83186C18.5899 4.57203 18.762 3.7539 18.0351 3.7223C18.0171 3.625 18.0077 3.5263 18.007 3.42735C18.0413 3.27571 18.0957 3.12929 18.1686 2.99195C17.9593 2.84796 17.7184 2.75643 17.4663 2.7251C17.4273 2.82267 17.3979 2.9238 17.3785 3.02707C17.3259 3.26935 17.3083 3.51513 17.2556 3.75741C17.1678 4.18578 17.3785 3.99618 17.3048 4.34731C17.2486 4.61065 17.0976 4.82484 17.0625 5.04956C17.0625 5.10925 17.0906 5.17948 17.2065 5.20406C17.3348 5.23688 17.4676 5.24874 17.5997 5.23917C17.595 5.28165 17.5879 5.32385 17.5786 5.36557C17.5225 5.61839 17.6067 5.59381 17.7156 5.68861C17.6875 5.73777 17.6313 5.75533 17.6208 5.79746C17.6102 5.8396 17.7261 5.99409 17.7156 6.10645C17.7051 6.21881 17.7156 6.6191 17.9333 6.66124C18.0597 6.68933 18.4705 6.72093 18.5969 6.74902C19.25 6.88947 18.9797 7.87965 19.3975 7.96743C19.7486 8.04117 20.0576 7.53203 20.6089 7.19144C20.9917 6.95867 21.3992 6.76908 21.8238 6.62613C21.6182 6.32466 21.464 5.99127 21.3673 5.63945Z" fill="#FCCD97"/>
<path d="M16.3383 19.484L17.6099 18.1875L19.3053 19.0518L21.4246 19.9162L23.5439 19.0518C23.5439 19.0518 21.649 26.2907 20.6267 26.6148C19.6044 26.939 16.3383 25.9666 16.3383 25.9666L16.7372 24.9942C16.7372 24.9942 15.7649 25.3183 14.1442 25.9666C13.496 24.0218 10.903 23.3735 11.2271 22.4012C11.5513 21.4288 16.3383 19.484 16.3383 19.484Z" fill="#3F3F3F"/>
<path d="M16.4131 8.80682C15.7971 9.77396 15.4408 12.3532 15.7648 12.3532C17.4982 12.3532 18.4875 13.0014 18.4875 13.0014L18.034 14.9462L17.6577 17.196L17.3857 18.5116C17.3857 18.5116 18.0638 18.8847 18.4875 19.2933C19.4498 20.2215 19.6541 19.1599 21.8066 20.1322C23.9591 21.1046 23.4661 18.8739 23.4661 18.8739L23.881 14.6221C23.881 14.6221 23.5353 12.0569 24.5165 11.3808C24.9389 11.0898 26.3532 8.66389 26.7852 8.38736C25.8131 7.54844 25.5405 5.87061 25.5405 5.87061L23.881 6.29007H21.8066L18.9024 7.54844C18.9024 7.54844 16.9983 7.88808 16.4131 8.80682Z" fill="#2C62FF"/>
<path d="M17.8308 20.3137C17.8308 20.3137 17.6852 20.0526 17.5097 20.2543C17.0609 20.8232 16.5182 21.3111 15.9051 21.6972C15.0263 22.2111 14.5134 22.5071 14.228 22.9287C14.0748 23.1639 13.8841 23.3724 13.6635 23.546C13.6452 23.5717 13.6324 23.6009 13.6258 23.6318C13.6192 23.6627 13.619 23.6946 13.6252 23.7256C13.6314 23.7565 13.6438 23.7859 13.6618 23.8119C13.6797 23.8379 13.7028 23.8599 13.7296 23.8767C13.93 24.0318 13.9688 24.1784 14.2776 23.6581C14.5863 23.1379 14.6003 23.0344 15.3491 22.7182C15.9841 22.3815 16.5718 21.9625 17.097 21.4719C17.4132 21.1781 17.7137 20.8678 17.9972 20.5422L17.8308 20.3137Z" fill="#2C62FF"/>
<path d="M10.163 28.7692C9.62149 28.7538 9.08531 28.6579 8.57204 28.4847C8.17197 28.3248 7.80714 28.0881 7.49813 27.7878C7.55727 27.6592 7.61117 27.5353 7.64914 27.4305C7.80822 27.6796 8.02114 27.8898 8.27222 28.0458C8.5233 28.2017 8.80614 28.2994 9.09995 28.3316C9.49191 28.4119 9.89333 28.436 10.2921 28.4032C10.2612 28.5159 10.2171 28.6403 10.163 28.7692Z" fill="#2C62FF"/>
<path d="M20.0911 30.4914C19.5985 30.7167 19.1421 31.014 18.7369 31.3735C18.4308 31.6767 18.1871 32.0369 18.0195 32.4338C18.1241 32.5292 18.222 32.6223 18.2978 32.704C18.3473 32.4126 18.4614 32.136 18.6318 31.8946C18.8023 31.6531 19.0247 31.4529 19.2827 31.3088C19.6124 31.082 19.9727 30.9033 20.3527 30.7782C20.2803 30.6864 20.1913 30.589 20.0911 30.4914Z" fill="#2C62FF"/>
<path d="M6.66606 31.8899C6.49379 31.9848 6.30205 32.0388 6.10561 32.0479C5.90916 32.057 5.71326 32.0209 5.53297 31.9424C5.14733 31.6319 5.06023 30.7098 4.55725 30.2147L4.94927 30.2373C5.11513 30.4318 5.23979 30.6579 5.31572 30.902C5.36693 31.1911 5.64389 32.0677 6.13935 31.7995C6.36573 31.7024 6.56966 31.5596 6.73837 31.3802L6.66606 31.8899Z" fill="#2C62FF"/>
<path d="M23.2212 36.9867C23.2212 37.9591 21.9886 37.5011 21.6005 37.9594L21.6005 37.6352C21.8653 37.5854 23.2212 37.635 22.8971 36.6626L23.2212 36.9867Z" fill="#2C62FF"/>
</svg>
