<svg width="26" height="38" viewBox="0 0 26 38" fill="none" xmlns="http://www.w3.org/2000/svg">
<path d="M20.0776 14.6439C20.0699 14.5251 20.05 14.4074 20.0179 14.2928C19.9442 14.0049 19.723 13.7591 19.723 13.4676C19.723 13.1762 20.4603 12.7935 21.3733 12.8742C21.4575 13.4115 21.8754 14.1558 21.8754 14.6299C21.8754 14.6896 21.2539 18.3448 20.6254 19.1629C20.3136 19.3509 19.9714 19.4829 19.6141 19.5527C19.4932 19.5389 19.3805 19.4844 19.2946 19.3982C19.2244 19.3315 19.105 19.4298 19.0031 19.4298C18.9013 19.4298 18.3887 19.2332 18.3887 19.1138C18.3984 19.0312 18.4277 18.9521 18.4741 18.8831C18.5205 18.8141 18.5827 18.7572 18.6555 18.717C18.6555 18.6082 18.5291 18.5169 18.5186 18.3869C18.5186 18.2781 19.1331 17.8778 19.4491 17.6601C19.388 17.619 19.3155 17.5981 19.2419 17.6004C18.7679 17.6004 18.9224 17.8602 18.4413 17.9024C18.4765 17.2001 18.9189 16.9579 19.6527 16.9579C19.8524 16.9626 20.0516 16.9778 20.2497 17.0035C20.1829 16.4909 19.8985 16.0484 19.8985 15.3813C19.9233 15.1283 19.9835 14.8801 20.0776 14.6439Z" fill="#FCCD97"/>
<path d="M18.7215 4.16605C18.7551 4.29093 18.7821 4.41751 18.8023 4.54526L17.8261 6.50456C17.8137 6.52559 17.7955 6.54267 17.7738 6.55385C17.752 6.56503 17.7276 6.56985 17.7032 6.56776C17.6049 6.56776 17.4329 6.49051 17.4329 6.81706C17.4329 6.90835 17.468 7.00667 17.468 7.08743C17.468 7.33322 16.9553 7.41398 16.7131 7.41398C14.9083 7.41398 14.7292 6.77844 14.3184 6.12183C14.6238 5.81635 15.312 5.51086 15.312 4.83319C15.312 4.51366 14.9925 4.15902 14.9925 3.77981C14.9925 3.40059 15.5192 3.13724 15.6421 3.42868C15.9581 4.19765 15.6632 4.3065 15.9932 4.48206C15.9641 4.26713 16.0051 4.04855 16.1101 3.85877C16.2151 3.66899 16.3785 3.51815 16.5761 3.42868C16.5583 3.33964 16.5489 3.24912 16.548 3.15831C16.5528 2.98747 16.6089 2.82203 16.7091 2.68359C16.8094 2.54516 16.949 2.44017 17.1098 2.38232C17.3847 2.56785 17.7055 2.67359 18.0368 2.6878C18.2832 2.68843 18.5253 2.62425 18.7391 2.50171C18.8821 2.79453 18.9542 3.11687 18.9497 3.44273C18.966 3.57317 18.9534 3.7056 18.9127 3.83061C18.8721 3.95562 18.8044 4.07014 18.7145 4.16605" fill="#FCCD97"/>
<path d="M7.89942 9.73828C5.98227 10.5143 4.38815 12.8212 3.43659 13.9132C2.66762 14.1204 1.30173 14.6857 1.30173 15.4898C1.30173 15.5775 1.30173 15.6653 1.30173 15.7566C1.30173 16.1885 0.985719 16.7117 0.985719 16.8416C0.978125 16.8596 0.976487 16.8795 0.981036 16.8984C0.985586 16.9174 0.99608 16.9344 1.011 16.947C1.02591 16.9595 1.04447 16.967 1.06393 16.9682C1.08339 16.9695 1.10274 16.9645 1.11915 16.954C1.4141 16.954 1.3825 16.8943 1.59317 16.501C1.70905 16.6695 1.76874 16.824 1.9443 16.9188C1.99346 16.8662 1.99697 16.7749 1.99697 16.6344C1.99697 16.5958 1.99697 16.5537 1.99697 16.5151C3.78772 16.0691 3.77367 15.7496 4.05809 14.8051C6.14378 12.5965 6.97596 13.7166 8.71404 11.2306C8.29127 10.832 8.00602 10.3095 7.89942 9.73828Z" fill="#FCCD97"/>
<path d="M15.6424 3.41787C15.9584 4.18684 15.6634 4.29569 15.9935 4.47126C15.9644 4.25633 16.0053 4.03774 16.1104 3.84796C16.2154 3.65819 16.3788 3.50735 16.5764 3.41787C16.5585 3.32883 16.5491 3.23831 16.5483 3.14751C16.553 2.97667 16.6092 2.81122 16.7094 2.67279C16.8096 2.53435 16.9493 2.42936 17.1101 2.37152C17.3849 2.55704 17.7058 2.66278 18.0371 2.677C18.2834 2.67763 18.5256 2.61345 18.7393 2.4909C18.7987 2.60948 18.8446 2.73432 18.8763 2.8631C18.9641 2.77003 19.0309 2.65914 19.0721 2.53796C19.1133 2.41679 19.128 2.28817 19.115 2.16084C17.6052 -0.195227 15.1192 0.963494 15.1192 3.14751C15.1183 3.23724 15.1277 3.32678 15.1473 3.41436C15.3264 3.25635 15.5651 3.22826 15.6424 3.41787Z" fill="#3F3F3F"/>
<path d="M19.4893 24.748C19.3805 24.2389 19.1066 24.0844 18.8257 23.0767C18.0672 23.2382 16.7997 24.0984 16.2168 24.5093C16.6471 24.9151 16.9714 25.4203 17.1613 25.9805C17.2035 25.7804 17.4914 25.4011 18.3446 25.4011C18.6547 25.3958 18.9631 25.4482 19.254 25.5556L19.3173 25.5802L19.3769 25.6083L19.4226 25.6329L19.4823 25.6715L19.254 25.6996L19.4963 25.668L19.6368 25.7979H19.6192C19.7233 26.3807 19.8796 26.953 20.0862 27.5079C20.3128 27.2722 20.49 26.9936 20.6076 26.6885C20.7252 26.3835 20.7807 26.058 20.7709 25.7312C20.7815 24.9482 19.9774 24.748 19.4893 24.748Z" fill="#FCCD97"/>
<path d="M15.5634 37.4696C15.3454 37.5546 15.1127 37.5952 14.8787 37.589C13.0353 37.589 13.1231 37.1114 12.5578 35.9527C11.9433 35.6543 11.5957 35.4506 11.5957 34.8677C11.5957 34.4113 12.0381 33.9302 12.477 33.5615C12.477 33.5931 12.477 33.6247 12.4595 33.6528C12.427 33.9168 12.31 34.1631 12.1259 34.3551C12.1259 34.8818 12.9265 34.478 14.5171 35.0854C14.5273 35.1188 14.5355 35.1528 14.5417 35.1872C14.9209 37.136 15.5213 36.655 15.5634 37.4696Z" fill="#3F3F3F"/>
<path d="M25.0666 31.2018C25.0666 32.9329 23.5532 33.1471 23.5532 34.0565C23.5532 34.1337 23.5532 34.211 23.5532 34.2882C23.5311 34.4989 23.4634 34.7022 23.3549 34.8841C23.2464 35.066 23.0996 35.2221 22.9247 35.3416C22.0574 35.2714 21.464 34.9905 21.464 33.8247C21.464 33.7861 21.464 33.7475 21.464 33.7089L21.4395 33.6773C21.7198 33.0016 22.0631 32.3539 22.4648 31.7425C23.2443 31.2158 23.943 30.4609 24.41 30.4609C24.6069 30.5159 24.7941 30.6011 24.9648 30.7137C25.0266 30.8693 25.0611 31.0345 25.0666 31.2018Z" fill="#3F3F3F"/>
<path d="M21.1605 10.7713C21.1605 10.4553 20.9428 10.1358 20.8094 9.61612C20.704 9.19477 20.5811 8.81906 20.4582 8.41175C19.5602 7.67089 18.5641 7.05764 17.4982 6.5894C17.4596 6.61749 17.428 6.6842 17.428 6.81763C17.428 6.95106 17.4631 7.00725 17.4631 7.08801C17.4631 7.3338 16.9505 7.41455 16.7082 7.41455C14.9034 7.41455 14.7243 6.77901 14.3135 6.12241L14.3662 6.07324C11.8451 6.13645 7.86328 9.1105 7.86328 9.5178C7.90067 9.90824 8.02277 10.2858 8.22107 10.6242C8.41938 10.9626 8.68912 11.2537 9.01148 11.4771L10.2404 10.9399C10.609 10.8034 10.9991 10.7344 11.3921 10.7362H11.5888V10.8556H11.6765C11.9153 10.8556 12.0768 10.673 12.0768 10.041C12.0768 9.18073 12.1189 8.7383 12.1189 8.7383C12.1189 7.87453 14.3065 7.05991 14.4153 7.05991C14.4386 7.05623 14.4623 7.05623 14.4856 7.05991C14.5558 7.15823 14.619 7.25654 14.6822 7.35486H14.6436C14.0818 7.35486 12.4982 8.35558 12.4982 8.88929C12.4982 9.27905 12.5684 11.1646 11.5993 11.2875C11.6941 12.4076 12.2313 11.2875 11.9223 15.4835C11.9223 15.6625 11.9048 15.8346 11.9048 16.0207C11.9048 16.4561 11.9328 16.8915 11.9644 17.3234C11.8506 17.6861 11.7891 18.0633 11.7819 18.4435C11.7819 18.4435 11.7994 18.6822 11.7994 19.1914C11.8145 19.3382 11.8692 19.4781 11.9577 19.5962C12.0461 19.7143 12.165 19.8062 12.3015 19.862C12.3015 19.9323 12.3015 20.0025 12.3015 20.0727C12.3015 21.6142 13.0635 22.3129 14.0572 22.8817C14.1976 22.9625 14.2187 23.1521 14.2995 23.2996L19.8367 19.5425C19.7686 19.5645 19.6976 19.5763 19.6261 19.5776C19.5051 19.5638 19.3925 19.5093 19.3065 19.4231C19.2363 19.3564 19.1169 19.4582 19.0151 19.4582C18.9133 19.4582 18.4006 19.2581 18.4006 19.1422C18.4104 19.0592 18.4397 18.9796 18.486 18.9101C18.5324 18.8405 18.5946 18.7829 18.6675 18.7419C18.6675 18.6331 18.5411 18.5418 18.5305 18.4154C18.5305 18.3241 18.9519 18.0326 19.2749 17.8114C19.2539 17.7517 19.2293 17.6885 19.2082 17.6253C18.7904 17.6429 18.9203 17.8887 18.4533 17.9273C18.4436 17.746 18.4922 17.5664 18.5921 17.4147C18.6919 17.2631 18.8377 17.1474 19.0081 17.0846C18.9308 16.8845 18.8501 16.6843 18.7693 16.4912C18.6605 16.2243 18.5516 15.968 18.4392 15.7257C18.5305 15.1464 18.7061 15.3746 18.7061 14.6443C18.7061 14.0614 18.7869 13.8297 19.1064 12.857C19.2047 13.1098 19.31 13.3802 19.4259 13.633H19.7525C19.7414 13.5822 19.7355 13.5305 19.7349 13.4785C19.7349 13.1625 20.4723 12.8044 21.3852 12.8851C21.408 13.0173 21.4409 13.1476 21.4835 13.2749C21.5616 13.2306 21.6366 13.1814 21.7082 13.1274C21.7301 13.0353 21.7419 12.9411 21.7434 12.8465C21.7434 12.8465 21.1605 10.9645 21.1605 10.7713ZM12.772 19.388C12.772 19.223 13.1723 18.6858 13.1723 19.0123L12.772 19.388ZM19.598 10.6695C18.6289 12.2074 19.6331 10.6309 19.6331 10.0515V9.93214C19.6331 9.80223 19.6331 9.66177 19.6331 9.6407C19.6331 8.67159 18.1899 8.26077 17.7405 7.7095C17.8002 7.61821 17.8529 7.53393 17.902 7.46722C18.1162 7.59011 18.3234 7.73407 18.5481 7.86048C20.1879 8.76639 20.2124 9.69337 19.598 10.6695Z" fill="#2C62FF"/>
<path d="M19.5997 10.6681C18.6305 12.206 19.6348 10.6295 19.6348 10.0501V9.93074C19.6348 9.80083 19.6348 9.66037 19.6348 9.6393C19.6348 8.67019 18.1916 8.25937 17.7422 7.7081C17.8019 7.61681 17.8545 7.53253 17.9037 7.46582C18.1179 7.58872 18.3251 7.73268 18.5498 7.85908C20.1895 8.76499 20.2141 9.69197 19.5997 10.6681Z" fill="#3F3F3F"/>
<path d="M20.7825 25.8373V25.7671C20.7825 24.949 19.9785 24.7488 19.5044 24.7488H19.4869C19.378 24.2432 19.1041 24.0852 18.8232 23.0775C18.0648 23.239 16.7972 24.0992 16.2144 24.5101C16.6456 24.9166 16.97 25.4231 17.1589 25.9848L17.2081 25.8584C17.3239 25.6583 17.6435 25.4019 18.3422 25.4019C18.6522 25.3984 18.9602 25.4507 19.2516 25.5564L19.3148 25.5845L19.3745 25.6126L19.4202 25.6372L19.4799 25.6758L19.6203 25.8057L19.6027 25.8233C19.6027 25.8795 19.6203 25.9427 19.6344 26.0059V26.062C19.6344 26.1042 19.6519 26.1498 19.6624 26.1955C19.6609 26.213 19.6609 26.2306 19.6624 26.2481C19.5054 26.2147 19.3455 26.197 19.1849 26.1955C17.8155 26.1955 17.2361 26.7643 17.2361 26.8661L16.8043 26.8872V26.8626C15.7017 26.659 16.0212 26.0796 15.8738 25.9216C15.8 25.8444 15.6596 25.8092 15.5999 25.7039L14.248 23.3092C14.1673 23.1617 14.1462 22.9581 14.0058 22.8914C13.0016 22.3296 12.2501 21.6308 12.2501 20.0823C12.2501 20.0121 12.2501 19.9419 12.2501 19.8717C12.1136 19.8158 11.9947 19.724 11.9063 19.6058C11.8178 19.4877 11.7631 19.3478 11.748 19.201C11.748 18.6919 11.7305 18.4531 11.7305 18.4531C11.7377 18.073 11.7992 17.6958 11.9131 17.333C11.9131 17.3716 11.9306 18.0634 13.0753 17.649C14.22 17.2347 14.5254 17.5542 14.5254 17.5542L15.5788 17.3295C16.1444 17.1224 16.7346 16.9902 17.3345 16.9362H18.3527L18.7214 16.4692C18.8022 16.6624 18.8829 16.8625 18.9602 17.0626C18.7898 17.1254 18.644 17.2411 18.5442 17.3927C18.4443 17.5444 18.3957 17.724 18.4054 17.9053C18.8724 17.8667 18.7565 17.6209 19.1603 17.6034C19.1814 17.6666 19.206 17.7298 19.227 17.7895C18.904 18.0107 18.4827 18.3021 18.4827 18.3934C18.4827 18.5198 18.6196 18.6111 18.6196 18.72C18.5467 18.7609 18.4845 18.8185 18.4382 18.8881C18.3918 18.9577 18.3625 19.0372 18.3527 19.1202C18.3527 19.2361 18.9145 19.4363 18.9672 19.4363C19.0199 19.4363 19.1884 19.3344 19.2586 19.4012C19.3446 19.4874 19.4572 19.5418 19.5782 19.5556C19.6497 19.5543 19.7207 19.5425 19.7888 19.5205C20.7685 22.6982 21.2811 25.8373 20.7825 25.8373Z" fill="#3F3F3F"/>
<path d="M18.3886 29.6898C18.062 30.1182 17.7355 30.5676 17.7355 30.5676C17.7355 30.5676 16.9911 31.2137 16.5241 31.621C16.0347 32.0983 15.5828 32.6124 15.1722 33.159C14.8211 33.5908 14.8211 33.6014 14.8211 33.6014L14.47 34.6723C13.9854 34.4371 13.2621 34.4722 12.7986 34.4651C12.3351 34.4581 12.5247 34.0894 12.5247 34.0894L12.8197 33.3872C13.1398 33.1172 13.4273 32.8109 13.6764 32.4743C14.2603 31.3791 14.7468 30.2347 15.1301 29.0543C15.5128 27.8745 15.9552 27.6498 16.5346 27.3232C16.8926 27.1138 17.228 26.8679 17.5353 26.5894L18.1287 27.8359L18.3886 29.6898Z" fill="#3F3F3F"/>
<path d="M16.4996 27.2983C16.9417 27.5814 17.4125 27.8168 17.9042 28.0006L18.2553 28.7731C18.2553 28.7731 17.553 28.422 16.8508 27.9866C16.6172 27.8502 16.4044 27.6811 16.2188 27.4844" fill="#2C62FF"/>
<path d="M22.2086 31.5923L21.2956 33.4393L20.4845 32.0348C19.7141 31.3841 18.9825 30.6888 18.2935 29.9526C17.8406 29.4399 17.5351 28.2391 17.356 27.2945C17.3209 27.119 17.2928 26.9434 17.2682 26.7959C17.191 26.3254 17.1523 26.0024 17.1523 26.0024C17.3349 25.4757 18.0653 25.4336 18.0653 25.4336C19.224 25.265 19.6454 25.8233 19.6454 25.8233C19.677 25.9708 19.7086 26.1147 19.7437 26.2587L19.8385 26.6098C20.3021 28.2674 20.9572 29.8653 21.7907 31.3711L22.2086 31.5923Z" fill="#3F3F3F"/>
<path d="M19.8378 26.6164C19.3195 26.5535 18.7949 26.5618 18.2788 26.641C17.9079 26.7499 17.5833 26.9782 17.3554 27.2905C17.3202 27.115 17.2922 26.9394 17.2676 26.7919C17.9906 26.2958 18.8794 26.1029 19.743 26.2547L19.8378 26.6164Z" fill="#2C62FF"/>
<path d="M14.5181 35.0651C12.9275 34.4576 12.127 34.8614 12.127 34.3347C12.304 34.105 12.4243 33.8367 12.4781 33.5517L12.7941 33.3516L12.4991 34.0538C12.4991 34.0538 12.3095 34.4049 12.773 34.4295C13.2365 34.4541 13.9598 34.4014 14.4444 34.6367L14.5181 35.0651Z" fill="#2C62FF"/>
<path d="M22.4782 31.7428C22.0765 32.3541 21.7333 33.0019 21.4529 33.6775L21.2949 33.4387L22.2079 31.5918L22.4782 31.7428Z" fill="#2C62FF"/>
<path d="M14.6864 7.372H14.6478C14.086 7.372 12.5024 8.37271 12.5024 8.90642C12.5024 9.29617 12.5726 11.1817 11.6035 11.3046V10.8517H11.6878C11.9266 10.8517 12.0881 10.6691 12.0881 10.0371C12.0881 9.17679 12.1302 8.73437 12.1302 8.73437C12.1302 7.8706 14.3177 7.05598 14.4266 7.05598C14.4498 7.0523 14.4736 7.0523 14.4968 7.05598C14.5706 7.17537 14.6232 7.27368 14.6864 7.372Z" fill="#3F3F3F"/>
</svg>
