<svg width="31" height="37" viewBox="0 0 31 37" fill="none" xmlns="http://www.w3.org/2000/svg">
<path d="M4.76437 14.943C4.11844 15.8478 3.41472 16.7098 2.6576 17.5238C1.33034 18.6931 -1.55593 16.351 1.25309 15.4978C1.98209 15.2888 2.63005 14.8626 3.11055 14.2759C3.34932 14.6551 3.82686 14.9922 4.76437 14.943Z" fill="#FCCD97"/>
<path d="M7.28624 12.0719C6.36474 12.955 5.52125 13.9159 4.76515 14.9441C3.82764 14.9933 3.36063 14.6562 3.11133 14.277C4.08746 13.0902 4.2595 11.4996 5.07412 10.7376C5.31991 10.5094 5.67456 10.218 6.09591 9.89844L7.28624 12.0719Z" fill="#FCCD97"/>
<path d="M26.8335 2.98064C27.3391 3.44413 26.8335 4.03402 26.8335 4.03402C25.9593 3.99779 25.0836 4.04246 24.2176 4.16745L23.2695 2.74539C23.6269 2.38861 23.8868 1.94614 24.0245 1.46026C24.5722 -0.253244 25.1165 0.132997 25.1165 0.132997C25.1165 0.132997 24.5722 1.49888 25.6642 1.03188C26.7563 0.564883 26.4824 0.252374 26.8721 0.642126C27.0758 0.84578 26.9493 1.04944 26.7808 1.19691C26.8686 1.21447 26.9634 1.28821 27.0652 1.46026C27.2829 1.81139 27.0371 1.97641 26.8159 2.03962C27.0863 2.00802 27.455 2.01153 27.3005 2.31701C27.1866 2.56489 27.0284 2.7898 26.8335 2.98064Z" fill="#FCCD97"/>
<path d="M24.2167 4.16376L24.0236 4.18834C22.7123 4.76524 21.4889 5.52413 20.3894 6.44259C19.8331 5.91923 19.4894 5.20915 19.4238 4.44819C20.3476 3.99102 21.2986 3.59115 22.2715 3.25084C22.6505 3.19451 23.0007 3.0157 23.2687 2.7417L24.2167 4.16376Z" fill="#FCCD97"/>
<path d="M21.9985 27.4253C21.9985 27.4253 21.8792 27.629 21.672 27.945L18.9613 26.3087C19.3124 25.754 19.035 25.4766 19.035 25.4766C18.568 25.2413 17.476 23.2926 17.476 23.2926L16.6052 22.9028H16.4121C17.5294 22.5634 18.5932 22.0681 19.5722 21.4316C19.9237 21.2039 20.2346 20.919 20.4922 20.5889C20.7574 20.8261 21.054 21.0257 21.3735 21.1823L21.9388 25.4239C22.297 25.6416 21.9985 27.4253 21.9985 27.4253Z" fill="#FCCD97"/>
<path d="M20.4997 20.5794C20.2422 20.9095 19.9312 21.1944 19.5798 21.4221C18.6008 22.0586 17.5369 22.5539 16.4196 22.8933C11.6443 22.5633 12.48 18.5358 12.48 18.5358L15.0538 18.5744L17.5117 15.8462C18.9759 18.7254 19.7834 19.9298 20.4997 20.5794Z" fill="#3F3F3F"/>
<path d="M18.2756 33.9806C16.4462 34.4582 15.291 33.4188 15.291 33.2784C15.291 33.2784 15.3261 33.1555 15.3928 32.9272C15.5473 33.1625 16.5586 33.935 18.1036 33.6295C18.151 33.7511 18.2086 33.8686 18.2756 33.9806Z" fill="#2C62FF"/>
<path d="M21.6715 27.9455C21.6048 28.0508 21.5276 28.1667 21.4433 28.2966C21.359 28.4265 21.2923 28.5213 21.2116 28.6477C20.5655 29.5817 19.621 30.8212 18.7221 31.4954C18.3999 31.7189 18.1546 32.0365 18.0198 32.4048C17.8902 32.8179 17.9229 33.2649 18.1111 33.6548C16.5661 33.9568 15.5549 33.1843 15.4004 32.9525C15.7515 31.7973 17.0015 28.0367 18.1813 27.1308C18.3007 27.0395 18.406 26.9518 18.4973 26.8675C18.5816 26.7867 18.6589 26.713 18.7221 26.6428C18.814 26.5444 18.8963 26.4374 18.9678 26.3232L21.5521 27.8822L21.6715 27.9455Z" fill="#3F3F3F"/>
<path d="M25.2132 24.6912C24.5044 25.576 23.7208 26.3983 22.8712 27.1491C22.7068 26.9924 22.592 26.791 22.5412 26.5697C22.4744 25.7551 22.0531 25.4742 21.9442 25.4145L21.3789 21.1729C21.6352 21.3063 21.9126 21.4257 22.2322 21.5802C23.8263 22.3597 23.9457 23.6062 23.9457 23.6062C24.1704 23.6062 24.7076 24.1364 25.2132 24.6912Z" fill="#FCCD97"/>
<path d="M29.3361 29.3823L27.1556 30.3971C27.1079 30.3039 27.0477 30.2177 26.9766 30.1408L29.0833 29.1611L29.3361 29.3823Z" fill="#2C62FF"/>
<path d="M29.0716 29.1528L26.9649 30.1324C26.9152 30.0766 26.8599 30.026 26.7998 29.9814C26.6929 29.8928 26.5749 29.8184 26.4487 29.7602C25.3609 29.1157 24.3222 28.3916 23.3412 27.5938L23.1973 27.4603C23.106 27.3796 23.0252 27.2988 22.9479 27.2181L22.8848 27.1478C23.7316 26.3976 24.5117 25.5752 25.2163 24.6899L25.5112 25.02L25.6727 25.2061C26.0238 25.6169 26.2872 25.947 26.2872 25.947C26.7936 26.7609 27.3819 27.5209 28.0428 28.2153L28.0674 28.2398C28.3192 28.5023 28.5841 28.7519 28.861 28.9877C28.9312 29.0509 29.0014 29.1071 29.0716 29.1528Z" fill="#3F3F3F"/>
<path d="M19.5763 36.3202C18.3298 36.5519 14.9766 35.5371 14.9766 35.5371L15.2891 33.2759C15.2891 33.4198 16.4443 34.4592 18.2737 33.9781C18.5977 34.4907 19.013 34.9393 19.4991 35.3019C20.8158 36.3202 19.5763 36.3202 19.5763 36.3202Z" fill="#3F3F3F"/>
<path d="M30.7303 30.2353C30.1861 32.2613 26.9873 32.0295 27.219 31.092C27.2862 30.8579 27.2624 30.607 27.1523 30.3898L29.3328 29.375C30.488 30.2985 30.7303 30.2353 30.7303 30.2353Z" fill="#3F3F3F"/>
<path d="M25.6703 25.2074L23.3354 27.6021L23.1914 27.4686L25.5088 25.0107L25.6703 25.2074Z" fill="#2C62FF"/>
<path d="M21.4432 28.2936C21.373 28.4024 21.2922 28.5183 21.2115 28.6447L18.4902 26.861C18.5745 26.7802 18.6518 26.7065 18.715 26.6362L21.4432 28.2936Z" fill="#2C62FF"/>
<path d="M12.8125 0.308594C12.7704 0.374138 12.7283 0.437344 12.6861 0.498206C12.335 0.993296 11.4677 1.16535 10.9305 1.90272C10.5232 2.4575 9.89817 3.30722 10.9305 4.53968C11.1763 4.83814 12.0436 5.71244 12.6861 6.35852V6.33043C12.7142 5.73703 13.3252 5.54039 12.7212 4.57479C12.6811 4.46343 12.671 4.34347 12.692 4.22698C12.713 4.11048 12.7642 4.00156 12.8406 3.91116C13.1531 3.4898 13.4551 3.74965 13.9326 4.00948C13.9572 3.9849 14.1995 3.96734 14.1819 3.87956C14.1187 3.57056 13.4094 3.0509 13.9467 2.52772C13.887 2.4575 13.8378 2.3346 13.7641 2.27842C13.6299 2.18415 13.4849 2.10634 13.3322 2.04667C13.3967 1.78555 13.5245 1.54435 13.7044 1.34441C13.7108 1.15972 13.6604 0.977502 13.5599 0.822394C13.4594 0.667287 13.3138 0.546768 13.1426 0.477128C13.0934 0.417436 12.8828 0.361263 12.8125 0.308594Z" fill="#3F3F3F"/>
<path d="M12.6747 6.33026C12.7028 5.73685 13.3137 5.54022 12.7098 4.57462C12.6697 4.46326 12.6596 4.34329 12.6806 4.2268C12.7015 4.11031 12.7528 4.00138 12.8292 3.91098C13.1417 3.48963 13.4437 3.74947 13.9212 4.00931C13.9458 3.98473 14.1881 3.96716 14.1705 3.87938C14.1073 3.57039 13.398 3.05073 13.9353 2.52755C13.8756 2.45732 13.8264 2.33442 13.7527 2.27824C13.6185 2.18397 13.4735 2.10617 13.3208 2.04649C13.3852 1.78538 13.5131 1.54418 13.693 1.34424C13.7906 1.39612 13.8845 1.45478 13.9739 1.5198C14.1846 1.67781 14.3706 1.87094 14.5813 2.01139C14.95 2.28527 14.6515 2.28175 14.9535 2.50647C15.1853 2.67501 15.4521 2.73822 15.6277 2.88218C15.6768 2.9208 15.6979 3.00156 15.6277 3.10339C15.5498 3.21875 15.4538 3.32073 15.3433 3.40537C15.3766 3.43557 15.4118 3.46371 15.4486 3.48963C15.6698 3.65115 15.5855 3.68978 15.568 3.84076C15.6242 3.84076 15.6803 3.84076 15.719 3.86183C15.7576 3.8829 15.7717 4.09006 15.8594 4.17082C15.9472 4.25158 16.2106 4.58164 16.0771 4.7572C15.9964 4.86956 15.6979 5.18207 15.6172 5.29092C15.1993 5.85975 16.1052 6.44612 15.8384 6.80778C15.5715 7.16945 15.1361 7.86117 14.4549 7.9946C13.9879 8.07536 13.4296 7.27479 12.9942 7.45387C13.057 7.32014 13.086 7.17305 13.0787 7.0255C13.0713 6.87796 13.0278 6.73448 12.9521 6.60765C12.8878 6.49071 12.7916 6.39449 12.6747 6.33026Z" fill="#FCCD97"/>
<path d="M17.9027 22.3376C17.6612 21.9133 17.3789 21.5135 17.06 21.1438C16.4701 20.4697 16.0663 20.2625 15.4272 19.5356C15.1588 19.2301 14.9135 18.905 14.6934 18.563L15.2236 18.3594C15.4077 18.664 15.6118 18.956 15.8345 19.2337C16.4174 19.9605 16.8212 20.2098 17.4462 20.8875C17.7945 21.2671 18.1127 21.6733 18.3978 22.1024L18.1695 22.2112L17.9027 22.3376Z" fill="#2C62FF"/>
<path d="M17.3966 9.29401C17.9408 10.5826 17.5124 15.8461 17.5124 15.8461L15.0545 18.5743L12.4808 18.5357C12.4808 18.5357 11.7013 17.7597 11.9365 17.0539C12.1718 16.3482 11.3888 15.5757 11.3888 15.5757C10.7434 14.656 10.3654 13.5756 10.2967 12.4542C10.2195 10.6599 9.20474 11.2849 9.20474 11.2849C8.67453 11.0777 8.00389 11.4359 7.28408 12.0714L6.09375 9.89795C7.67031 8.70411 10.1914 7.14861 11.5468 7.14861C12.4492 7.14861 12.8354 6.86771 12.9969 6.60085C13.4604 7.19426 14.8193 8.61984 15.8867 6.60085C15.9316 6.63588 15.9798 6.66646 16.0307 6.69215C17.0413 5.77975 18.185 5.02672 19.4226 4.45898C19.4881 5.21994 19.8319 5.93003 20.3882 6.45339C19.3167 7.31881 18.3163 8.26873 17.3966 9.29401Z" fill="#2C62FF"/>
<path d="M17.1248 11.4852C17.3144 10.8672 18.2976 10.4529 16.6438 9.47326C16.5279 9.40304 16.3699 9.24854 16.2611 9.24854H16.2119C16.1101 9.29418 16.1311 9.38548 16.0469 9.50135C17.6586 10.5723 17.4584 9.97888 17.1248 11.4852Z" fill="#3F3F3F"/>
<path d="M10.0195 11.074C10.0727 11.154 10.1447 11.2199 10.2291 11.2657C10.3136 11.3116 10.408 11.3362 10.5041 11.3373C11.7401 11.3373 11.5575 9.74669 12.186 9.34289C12.447 9.21496 12.7183 9.10925 12.9971 9.02688C12.9223 8.9566 12.875 8.86201 12.8637 8.76003C12.8619 8.75075 12.8619 8.74122 12.8637 8.73193C11.2836 8.99528 11.5399 11.102 10.6094 11.102C10.5293 11.1084 10.4488 11.0948 10.3752 11.0623C10.3017 11.0298 10.2373 10.9795 10.1881 10.9159C10.1389 10.9721 10.0792 11.0213 10.0195 11.074Z" fill="#3F3F3F"/>
</svg>
