<svg width="22" height="37" viewBox="0 0 22 37" fill="none" xmlns="http://www.w3.org/2000/svg">
<path d="M12.7656 9.48607C13.6786 10.9468 15.8485 11.347 17.5691 12.1195C17.7727 12.5268 18.0922 13.0851 19.409 13.4047C19.5607 13.4402 19.7055 13.5007 19.8373 13.5837C19.718 13.833 19.1561 13.7804 19.1561 14.0823C19.1561 14.2263 19.437 14.2263 19.6688 14.2263H19.7776C19.7683 14.4108 19.7279 14.5924 19.6583 14.7635C19.6583 14.8337 19.7741 14.8899 19.8268 14.8899C19.8795 14.8899 19.9216 14.8232 19.9813 14.7389C20.0469 14.7706 20.1167 14.7931 20.1885 14.8057C20.1885 14.8057 21.0206 14.2263 20.9364 13.7839C20.8427 13.3806 20.7254 12.9831 20.5852 12.5935C19.9331 12.1693 19.2375 11.8161 18.5101 11.5402C18.0712 11.1434 17.1688 10.6904 16.7895 10.2375C16.4103 9.78452 15.385 8.43971 14.0929 7.93408C14.0156 8.67847 13.2818 9.22974 12.7656 9.48607Z" fill="#FCCD97"/>
<path d="M4.9982 7.47441C4.9982 7.35503 4.9982 7.23916 4.9982 7.12328C4.98767 6.45614 5.51436 6.47721 5.51436 5.86976V5.83465C5.51436 5.62397 5.56703 5.39925 5.56703 5.18857C5.56703 4.72157 5.10354 4.37044 5.10354 3.90695C5.10354 3.65063 5.57054 3.55583 5.62672 3.55583C5.76366 3.55583 5.92167 4.31426 6.01296 4.84447C6.09023 4.87592 6.17201 4.89489 6.25524 4.90065C6.25524 4.72508 6.18502 4.60219 6.18502 4.4512C6.18502 3.9526 6.75735 4.12465 6.76087 3.69979C6.76087 3.14852 6.86269 2.90273 7.04528 2.74121C7.45668 3.06815 7.93691 3.29746 8.44979 3.41186C8.84295 3.37087 9.21959 3.23205 9.54531 3.00807C9.62607 3.21172 9.7595 3.3592 9.54531 4.08954C9.51653 4.19472 9.50351 4.30358 9.50668 4.41258C9.50668 4.51441 9.50668 4.61974 9.50668 4.72157C9.50668 4.74615 9.05373 5.6942 8.671 6.58606C8.76337 6.77963 8.81591 6.98978 8.8255 7.20404C8.8255 8.21178 7.5193 8.64367 7.03123 8.64367C6.85876 8.65728 6.68595 8.62199 6.53263 8.54184C6.40304 8.46317 6.25823 8.4129 6.10777 8.39437C5.99541 8.36979 4.9982 7.91683 4.9982 7.47441Z" fill="#FCCD97"/>
<path d="M5.60955 3.56291C5.74649 3.56291 5.9045 4.32135 5.99579 4.85155C6.07306 4.88301 6.15484 4.90197 6.23807 4.90773C6.23807 4.73217 6.16785 4.60927 6.16785 4.45829C6.16785 3.95969 6.74018 4.13174 6.74369 3.70687C6.74369 3.1556 6.84552 2.90982 7.02811 2.7483C7.43951 3.07523 7.91974 3.30454 8.43262 3.41895C8.82578 3.37796 9.20242 3.23913 9.52814 3.01515C9.55623 3.08187 9.58432 3.14156 9.6089 3.21881C9.72553 2.97938 9.79355 2.71922 9.80904 2.45335C9.84472 2.07407 9.75995 1.69319 9.56676 1.36485C8.91015 1.23142 8.28515 0.662598 7.50915 0.662598C6.56462 0.662598 5.31461 1.39645 5.31461 3.0924C5.31321 3.27997 5.32141 3.46748 5.33918 3.65421C5.42423 3.61041 5.51536 3.57963 5.60955 3.56291Z" fill="#3F3F3F"/>
<path d="M0.697599 13.6968H0.75729C0.845072 13.6968 0.929344 13.6758 1.01361 13.6758C1.55786 13.6758 2.76925 14.3535 2.76925 14.5747C2.76925 14.6098 2.58315 14.7678 2.54102 14.8345C2.42359 15.0389 2.326 15.2541 2.24958 15.4771C2.24958 15.4771 2.90268 15.9511 3.79806 18.3598C3.87531 18.5705 3.94553 18.7531 4.01225 18.9181C4.27559 19.2341 4.61267 19.6204 4.92869 19.9188C6.27351 19.9434 6.68433 20.902 7.70962 21.5481C7.6429 21.7096 7.35849 21.7342 7.30231 21.7342C7.01682 21.5649 6.71437 21.426 6.39991 21.3198C6.55792 21.8711 7.45329 22.626 7.45329 22.8507C7.45329 22.9947 7.01088 23.2019 6.87394 23.2019L6.56845 23.1C6.4596 23.2335 5.8662 23.2229 5.97154 23.2229C5.93291 23.2229 5.89078 23.2229 5.84864 23.2229C5.7601 23.1774 5.66716 23.1409 5.57125 23.1141C5.49354 23.1822 5.39368 23.2196 5.29035 23.2194C4.27559 23.2194 3.58738 21.8149 3.58738 20.8704C3.58738 20.8353 3.58738 20.8002 3.58738 20.7615C2.65689 19.4413 0.149839 17.1625 0.00587713 15.7825C-0.0538146 15.2453 0.357005 14.6519 0.522035 14.0058C0.557926 13.8915 0.617778 13.7862 0.697599 13.6968Z" fill="#FCCD97"/>
<path d="M11.3301 26.9699C11.8743 26.998 12.7346 26.5029 13.3104 26.0991C12.7097 26.5091 12.0383 26.8044 11.3301 26.9699Z" fill="#3F3F3F"/>
<path d="M20.3668 25.9894C20.3025 25.993 20.238 25.993 20.1737 25.9894C19.9196 25.9935 19.667 25.9494 19.4293 25.8595C19.1658 25.7487 18.928 25.5849 18.7305 25.3783C18.533 25.1717 18.38 24.9268 18.2811 24.6586C18.26 24.6059 18.239 24.5568 18.2214 24.5076C18.1813 24.4917 18.1435 24.4704 18.1091 24.4444C18.1091 24.4444 16.845 23.4332 16.5746 22.9943C17.3614 22.1844 18.4308 21.7101 19.5592 21.6705C19.8592 21.6563 20.1596 21.6859 20.4511 21.7583C20.6231 22.0006 20.8935 22.3973 21.1182 22.7836C21.2691 22.5512 21.3519 22.2811 21.357 22.0041C21.1533 21.5511 20.6547 21.3018 20.3282 20.5329C19.6866 19.07 18.7645 17.747 17.614 16.6389L16.2095 15.3467C15.0367 14.4794 15.1561 14.4162 15.0156 14.1845C14.9407 14.0743 14.8522 13.9741 14.7523 13.886C14.5311 13.6824 14.2502 13.563 14.0149 13.3734C13.8359 12.9926 13.7174 12.5863 13.6638 12.169C13.6216 11.8179 13.1898 11.4211 13.0739 11.1367C12.9826 10.912 13.0318 10.6767 12.9229 10.452C12.8141 10.2273 12.6034 10.0798 12.6034 9.66897C12.6034 9.64439 12.6034 9.60577 12.6034 9.56012H12.635C12.498 8.85786 12.5753 7.02849 10.4545 7.02849C9.01134 7.02849 9.21499 7.73074 9.21499 6.83537C9.28659 6.80569 9.3606 6.7822 9.4362 6.76514C9.16935 6.86697 10.3948 6.70194 10.3597 6.70194C12.4313 6.73705 12.9159 8.33117 12.9194 9.41616C13.4461 9.11068 14.0816 8.53132 14.0816 7.80799V7.74479C13.6032 7.05153 13.1625 6.33302 12.7614 5.59238C11.9573 5.15698 11.0338 4.79883 10.3842 4.79883C9.85054 4.79883 9.72764 4.98493 9.35895 5.05866H9.33438C9.16934 5.40979 8.89195 6.02426 8.63212 6.61065C8.72449 6.80422 8.77703 7.01437 8.78662 7.22863C8.78662 8.23286 7.48042 8.66826 6.99235 8.66826C6.81997 8.68057 6.64751 8.64535 6.49375 8.56643C6.36417 8.48775 6.21935 8.43749 6.06889 8.41895C5.97057 8.38735 4.97337 7.9344 4.97337 7.49198C4.97337 7.37259 4.97337 7.25672 4.97337 7.14085C4.97706 6.99563 5.01007 6.85265 5.07041 6.72051C5.13075 6.58837 5.21718 6.46978 5.3245 6.37188C2.6489 8.01516 3.38276 8.12752 2.45578 8.88947C1.66575 10.294 0.299861 12.8397 0.1875 13.9773C0.262369 14.0801 0.345763 14.1764 0.4368 14.2652C0.463196 14.1892 0.485468 14.1119 0.503515 14.0335C0.538066 13.9165 0.598014 13.8086 0.679079 13.7175H0.73877C0.826552 13.7175 0.910821 13.6964 0.995092 13.6964C1.53583 13.6964 2.75073 14.3741 2.75073 14.5953C2.75073 14.6269 2.56464 14.7884 2.5225 14.8551L2.43472 15.0202C2.54069 15.0583 2.6485 15.0911 2.75775 15.1185C3.16506 15.1185 3.611 13.8123 4.22547 13.0117C4.97688 14.504 6.73603 15.9822 7.1012 16.8741C7.29869 17.2999 7.41764 17.7579 7.45233 18.226C7.51202 18.4788 7.71217 18.8755 8.54083 20.1747C8.54083 20.2836 8.54083 20.3678 8.54083 20.3994C8.54083 21.0631 8.69884 21.4247 8.69884 22.8011C8.69884 23.1523 8.69884 23.528 8.69884 23.8896C8.69884 25.5996 8.91653 27.4009 10.6897 27.4009C10.9074 27.4009 11.1708 27.4009 11.4622 27.3658L11.3077 27.0147C10.9215 26.2317 10.4861 25.9964 10.2543 25.3854C10.2187 25.199 10.1718 25.0149 10.1139 24.8342C9.64337 23.9669 9.54154 23.7351 9.54154 23.4894C9.53816 23.4614 9.53816 23.4331 9.54154 23.4051C9.61148 22.9722 9.84089 22.5811 10.1846 22.3089C10.5284 22.0366 10.9616 21.9028 11.399 21.9339C12.024 21.9339 12.9966 22.3166 13.9868 23.391C13.7164 23.8264 13.741 24.9852 13.6813 25.2626C13.7899 25.3797 13.8842 25.5094 13.9622 25.6488L14.7944 26.5582C14.7277 26.4775 14.6645 26.3897 14.5943 26.2949C14.6347 26.2505 14.6722 26.2036 14.7066 26.1544C14.7495 26.0933 14.7871 26.0287 14.819 25.9613L15.1455 24.2513C15.1455 24.0898 15.0262 23.5245 15.0262 23.1979C15.0282 23.0258 15.0458 22.8542 15.0788 22.6853C15.1501 22.7597 15.2169 22.8382 15.279 22.9205C15.451 23.1593 15.5704 23.3278 15.6547 23.4578V23.5174C15.6547 24.1109 15.6547 24.922 17.1224 24.922C17.2401 24.919 17.3575 24.9073 17.4735 24.8868C17.4454 24.6762 17.5051 24.5357 17.6561 24.5357C17.6796 24.6357 17.7089 24.7342 17.7439 24.8307H17.8071C17.8071 24.8623 17.7825 24.8904 17.772 24.922C17.9424 25.3999 18.2614 25.8108 18.6822 26.0945C19.1029 26.3782 19.6035 26.5198 20.1105 26.4985C20.595 26.4985 20.8127 26.2562 21.1639 26.1474C21.2956 25.8909 21.3969 25.6198 21.4658 25.3398C21.3395 25.5201 21.1761 25.6714 20.9866 25.7834C20.797 25.8955 20.5857 25.9657 20.3668 25.9894ZM5.54922 10.1219C5.44739 11.0243 5.59135 12.8713 4.65735 12.8713C4.5656 12.8532 4.48024 12.8112 4.40994 12.7496C4.33964 12.6879 4.2869 12.6088 4.25707 12.5201C4.28336 12.4721 4.31518 12.4273 4.35187 12.3867C4.35187 12.4464 4.62927 12.5482 4.703 12.5482C5.25778 12.5482 5.21565 10.7645 5.21565 10.315C5.21565 10.1535 5.26481 9.98498 5.29992 9.69355C5.33947 9.32117 5.45927 8.9618 5.65105 8.64016C5.77764 8.70893 5.89552 8.79262 6.00217 8.88947C6.00217 8.88947 5.66158 9.12472 5.54922 10.1219Z" fill="#2C62FF"/>
<path d="M6.03803 8.89695C6.03803 8.89695 5.66232 9.12518 5.54996 10.1224C5.44814 11.0248 5.5921 12.8717 4.6581 12.8717C4.56634 12.8537 4.48098 12.8117 4.41068 12.75C4.34038 12.6884 4.28764 12.6092 4.25781 12.5206C4.28411 12.4726 4.31592 12.4278 4.35262 12.3872C4.35262 12.4469 4.63001 12.5487 4.70375 12.5487C5.25853 12.5487 5.21639 10.7649 5.21639 10.3155C5.21639 10.154 5.26555 9.98544 5.30066 9.69401C5.34022 9.32163 5.46001 8.96226 5.65179 8.64062C5.79104 8.70907 5.92086 8.79523 6.03803 8.89695Z" fill="#3F3F3F"/>
<path d="M20.8943 34.6632L20.834 34.5923L20.8943 34.6632Z" fill="#3F3F3F"/>
<path d="M14.8203 26.5162C14.118 26.9867 12.8364 28.0295 11.9375 28.2226L11.8322 28.0646C11.783 27.9841 11.7385 27.9009 11.6988 27.8153L11.5829 27.545C11.5583 27.4712 11.5337 27.401 11.5162 27.3273H11.4846L11.3301 26.9761C11.8743 27.0042 12.7346 26.5091 13.3104 26.1053C13.3736 26.0667 13.4333 26.0246 13.4895 25.986C13.6375 25.8908 13.7794 25.7864 13.9144 25.6735L13.9881 25.6138L14.5324 26.2107L14.8203 26.5162Z" fill="#3F3F3F"/>
<path d="M11.936 28.2219C11.9011 28.1661 11.8697 28.1138 11.8418 28.0615L11.936 28.2219Z" fill="#3F3F3F"/>
<path d="M11.5123 27.3271C11.5123 27.4004 11.5541 27.4701 11.5785 27.5434L11.4844 27.3306L11.5123 27.3271Z" fill="#3F3F3F"/>
<path d="M13.9131 25.666C13.7782 25.779 13.6363 25.8833 13.4883 25.9785C13.6779 25.8451 13.8289 25.7292 13.9131 25.666Z" fill="#3F3F3F"/>
<path d="M14.9954 26.7313C14.1347 27.467 13.1764 28.0803 12.1478 28.5536L11.9336 28.2236C12.8325 28.0305 14.1036 26.9876 14.8164 26.5171L14.9954 26.7313Z" fill="#2C62FF"/>
<path d="M21.3726 21.997C21.3675 22.274 21.2848 22.5441 21.1338 22.7765C20.9091 22.3903 20.6388 21.9935 20.4667 21.7512C20.1704 21.6798 19.8651 21.6525 19.5608 21.6704C18.4255 21.7102 17.3501 22.1899 16.5622 23.0082C16.8325 23.4472 18.0966 24.4584 18.0966 24.4584C18.131 24.4844 18.1688 24.5057 18.209 24.5216C18.209 24.5708 18.2476 24.6199 18.2686 24.6726C18.1247 24.7112 17.9737 24.7428 17.8192 24.7744H17.756L17.4856 24.8306C17.3696 24.851 17.2523 24.8628 17.1345 24.8657C15.6527 24.8657 15.6668 24.0686 15.6668 23.4612V23.4261C15.5825 23.2962 15.4631 23.1276 15.2911 22.8889C15.2291 22.8066 15.1622 22.728 15.0909 22.6536C15.0579 22.8225 15.0403 22.9941 15.0383 23.1663C15.0383 23.4823 15.1577 24.0476 15.1577 24.2196L14.8311 25.9296C14.7992 25.9971 14.7616 26.0617 14.7187 26.1227L14.5186 26.214L13.9744 25.6171L13.9006 25.6768C13.7657 25.7898 13.6238 25.8941 13.4758 25.9893C13.4196 26.0279 13.3599 26.0701 13.2967 26.1087C12.7068 26.5125 11.8606 27.0076 11.3163 26.9795L11.4708 27.3306C11.1794 27.3552 10.916 27.3657 10.6983 27.3657C8.9427 27.3657 8.70744 25.5609 8.70744 23.8545C8.70744 23.5033 8.70744 23.1311 8.70744 22.766C8.70744 21.3895 8.54943 21.0103 8.54943 20.3643C8.54943 20.3327 8.54943 20.2484 8.54943 20.1395C7.72077 18.8404 7.52063 18.4436 7.46094 18.1908C7.61394 18.0898 7.79064 18.0305 7.97358 18.0187C8.86194 17.8993 8.67584 17.78 9.1007 17.6676C9.52557 17.5552 11.2356 16.5826 11.9589 16.3403C12.6822 16.0981 12.31 15.9892 12.9736 15.6135C13.3399 15.403 13.6918 15.1684 14.027 14.9112C14.2412 14.7883 14.6942 14.4548 15.0277 14.209C15.1717 14.4407 15.0488 14.5039 16.2216 15.3712L17.6261 16.6634C18.7766 17.7715 19.6987 19.0945 20.3403 20.5574C20.6809 21.2842 21.169 21.544 21.3726 21.997Z" fill="#3F3F3F"/>
<path d="M21.198 26.0913L20.9838 26.5372C20.6189 26.6551 20.2365 26.7097 19.8532 26.6987C19.4271 26.6967 19.0089 26.584 18.6396 26.3716C18.2703 26.1592 17.9625 25.8545 17.7464 25.4873L17.6797 25.3714L17.792 24.8623C17.9625 25.3403 18.2815 25.7512 18.7022 26.0349C19.123 26.3185 19.6235 26.4601 20.1306 26.4389C20.6151 26.4389 20.8469 26.1966 21.198 26.0913Z" fill="#2C62FF"/>
<path d="M20.3692 25.9893C20.3048 25.9929 20.2404 25.9929 20.176 25.9893C19.9219 25.9934 19.6693 25.9493 19.4316 25.8594L20.3692 25.9893Z" fill="#3F3F3F"/>
<path d="M18.2265 24.5191C18.185 24.5039 18.1459 24.4826 18.1106 24.4559C18.1106 24.4559 16.8465 23.4447 16.5762 23.0058C17.3612 22.1921 18.4309 21.7139 19.5608 21.6715C19.8607 21.6571 20.1612 21.6867 20.4526 21.7593C20.7757 22.2158 21.4463 23.213 21.506 23.6554C21.5587 23.9819 21.5903 24.937 21.5903 24.9932C21.5903 25.2354 21.1022 26.0044 20.1506 26.0044C18.9814 26.0009 18.4758 25.1828 18.2265 24.5191Z" fill="#FCCD97"/>
<path d="M18.7839 30.7547L18.7171 30.9794H18.6329C18.3261 30.9842 18.0259 30.8907 17.7761 30.7125C17.6522 30.6217 17.5496 30.5049 17.4756 30.3702C17.4016 30.2356 17.358 30.0863 17.3477 29.933C17.3108 29.4157 17.4467 28.9007 17.734 28.4688C17.7384 28.462 17.7407 28.4541 17.7407 28.446C17.7407 28.4379 17.7384 28.43 17.734 28.4232C17.7238 28.3726 17.7008 28.3254 17.6673 28.2862L17.7621 28.0615C17.8585 28.1568 17.9235 28.2793 17.9482 28.4127C17.9535 28.4511 17.9503 28.4902 17.9388 28.5272C17.9272 28.5642 17.9077 28.5983 17.8815 28.6268C17.6317 29.0114 17.5089 29.4645 17.5303 29.9225C17.5393 30.0466 17.5754 30.1672 17.636 30.2758C17.6967 30.3844 17.7805 30.4783 17.8815 30.551C18.1456 30.7308 18.4681 30.8036 18.7839 30.7547Z" fill="#2C62FF"/>
<path d="M20.981 26.5367C20.8914 26.7449 20.7667 26.9362 20.6123 27.102C19.7274 27.6919 19.9381 28.1028 19.4781 28.8858C19.4224 28.9713 19.3495 29.0442 19.264 29.1C19.264 29.4511 19.2288 29.3106 18.7934 30.7538C18.4828 30.7932 18.1687 30.7156 17.9121 30.5361C17.8111 30.4634 17.7274 30.3694 17.6667 30.2608C17.606 30.1522 17.5699 30.0316 17.561 29.9075C17.5396 29.4496 17.6624 28.9964 17.9121 28.6119C17.9383 28.5833 17.9579 28.5493 17.9694 28.5123C17.981 28.4752 17.9842 28.4361 17.9788 28.3977C17.9541 28.2644 17.8892 28.1419 17.7927 28.0466C17.8665 27.246 17.6066 26.2102 17.7014 25.3569L17.7681 25.4728C17.9842 25.84 18.292 26.1447 18.6613 26.3571C19.0307 26.5695 19.4489 26.6822 19.8749 26.6842C20.2492 26.697 20.6231 26.6471 20.981 26.5367Z" fill="#3F3F3F"/>
<path d="M12.9389 9.38072C12.8466 9.43354 12.7517 9.48159 12.6545 9.52468C12.5175 8.82243 12.5948 6.99305 10.474 6.99305C9.03082 6.99305 9.23448 7.69531 9.23448 6.79993C9.30608 6.77026 9.38008 6.74676 9.45569 6.72971C9.18883 6.83153 10.4143 6.6665 10.3792 6.6665C12.4508 6.71566 12.9354 8.32734 12.9389 9.38072Z" fill="#3F3F3F"/>
<path d="M11.3281 26.969C10.9419 26.186 10.5065 25.9542 10.2748 25.3433C10.2396 25.1556 10.1927 24.9703 10.1343 24.7885C9.66379 23.9212 9.56196 23.6894 9.56196 23.4437C9.56007 23.4168 9.56007 23.3898 9.56196 23.3629C9.63112 22.9293 9.86019 22.5374 10.204 22.2645C10.5479 21.9915 10.9815 21.8572 11.4194 21.8882C12.0479 21.8882 13.0171 22.2709 14.0072 23.3453C13.7369 23.7842 13.765 24.9395 13.7018 25.2168C13.8126 25.3317 13.9082 25.4603 13.9862 25.5996C13.5086 26.0385 12.0725 26.8882 11.3281 26.969Z" fill="#FCCD97"/>
<path d="M20.8345 34.6069C20.6889 34.5919 20.542 34.6002 20.3991 34.6315C20.2094 34.6739 20.0128 34.6739 19.8232 34.6315L19.2965 34.4945C18.7101 34.3365 18.2431 34.2136 18.0289 34.3155C17.7024 34.4665 17.0528 34.7052 16.5823 34.8702L16.4805 34.6771C16.951 34.5121 17.6181 34.2698 17.9447 34.1188C18.2712 33.9678 18.7031 34.1188 19.3492 34.2839L19.8794 34.4243C20.039 34.4596 20.2043 34.4596 20.3639 34.4243C20.4557 34.408 20.5483 34.3974 20.6413 34.3927L20.8345 34.6069Z" fill="#2C62FF"/>
<path d="M20.6414 34.3855C20.5484 34.3903 20.4558 34.4008 20.3641 34.4171C20.2045 34.4524 20.0391 34.4524 19.8795 34.4171L19.3493 34.2767C18.6962 34.1046 18.2257 33.9782 17.9448 34.1117C17.6639 34.2451 16.9511 34.5049 16.4806 34.67C16.2057 34.256 16.0817 33.76 16.1295 33.2654C16.1295 32.9588 16.1295 32.6849 16.1295 32.4438C14.7249 31.1341 13.0711 29.7717 12.1582 28.5287C13.1817 28.0621 14.1363 27.4572 14.9953 26.731C15.5957 27.4086 15.982 27.5385 16.5789 28.6692C16.8456 28.4689 17.1631 28.3473 17.4953 28.3181C17.5575 28.3086 17.6187 28.2934 17.6779 28.2724C17.7115 28.3116 17.7345 28.3587 17.7446 28.4093C17.749 28.4162 17.7514 28.4241 17.7514 28.4322C17.7514 28.4403 17.749 28.4482 17.7446 28.455C17.4573 28.8868 17.3215 29.4018 17.3584 29.9192C17.3686 30.0725 17.4123 30.2217 17.4863 30.3564C17.5603 30.491 17.6628 30.6079 17.7868 30.6987C18.0365 30.8769 18.3368 30.9704 18.6435 30.9656H18.7278L18.6611 31.1868L18.3626 32.2401L18.5944 32.6615L20.6274 34.3399L20.6414 34.3855Z" fill="#3F3F3F"/>
<path d="M21.1725 36.0666C20.8272 36.2107 20.4581 36.2893 20.084 36.2983H19.7751C18.7533 36.2983 19.3432 36.8391 17.3804 36.8391C15.6247 36.8391 14.9962 36.5617 14.7715 35.9507C14.8909 35.403 15.414 35.2485 16.0285 35.0624L16.5833 34.8727C17.0538 34.7077 17.7034 34.469 18.0299 34.318C18.2441 34.2161 18.7111 34.339 19.2975 34.497L19.8242 34.634C20.0138 34.6764 20.2104 34.6764 20.4001 34.634C20.543 34.6027 20.6899 34.5944 20.8355 34.6094L20.8952 34.6796C21.2147 35.0694 21.4815 35.5574 21.1725 36.0666Z" fill="#3F3F3F"/>
</svg>
