<svg width="41" height="50" viewBox="0 0 41 50" fill="none" xmlns="http://www.w3.org/2000/svg">
<path d="M15.3083 17.7005C15.7484 17.6301 16.1772 17.5013 16.5834 17.3175C16.8043 17.2137 17.0109 17.0879 17.2418 16.9793C17.8678 16.685 18.0182 16.7614 18.6481 16.5797C18.7139 16.4214 18.7472 16.2514 18.746 16.0799C18.7447 15.9085 18.7089 15.739 18.6407 15.5817C18.4483 15.2059 18.1148 14.9217 17.7132 14.7915C17.2613 15.004 16.7626 15.2386 16.341 15.4981C15.8724 15.371 15.4936 15.4347 14.7036 15.8061C14.3689 15.9635 14.0436 16.141 13.7088 16.2984C13.5415 16.3771 13.3741 16.4558 13.1939 16.516C13.164 16.4524 11.4209 15.588 10.815 15.8729C10.5345 16.1441 10.3353 16.4884 10.24 16.8668C10.4274 17.2651 10.1661 17.1877 10.2763 17.422C10.2999 17.4722 10.6695 17.9279 10.934 17.8035L11.0511 17.7484C11.7276 17.9535 12.4573 17.8874 13.0859 17.5642C13.6151 17.5769 14.5775 17.6068 15.3083 17.7005Z" fill="#FCCD97"/>
<path d="M22.68 13.5541C22.4798 13.477 21.2636 12.6517 21.2899 10.5768C21.2926 10.4154 20.9298 9.87526 21.0389 9.59221C21.0668 9.51972 21.2463 9.48582 21.355 9.49199L21.3337 9.54721C21.3221 9.82798 21.4174 10.1027 21.6005 10.3159C21.6421 10.3518 21.8331 12.3875 22.1058 12.4926C22.5062 12.6468 22.6889 13.181 22.9374 13.2767C23.186 13.3724 23.5299 12.7676 23.8061 12.874C23.8993 12.9099 23.9006 12.958 23.8873 12.9925C23.874 13.027 23.1632 13.7402 22.68 13.5541ZM18.7183 22.032C18.6107 22.1055 18.5108 22.1899 18.3942 22.256C18.3725 22.2682 18.3508 22.2803 18.3291 22.2921C17.3678 22.8154 16.3136 22.9271 15.3374 23.338C14.5804 23.6568 12.3675 24.8736 13.158 25.1781C13.4678 25.0648 13.7614 24.9113 14.0314 24.7217C15.7711 23.4556 18.3708 23.2803 19.1375 22.6173C19.1791 22.5813 19.2154 22.5439 19.2458 22.5047L18.7183 22.032Z" fill="#2C62FF"/>
<path fill-rule="evenodd" clip-rule="evenodd" d="M21.2899 10.5768C21.2636 12.6517 22.4798 13.477 22.68 13.5541C23.1632 13.7402 23.874 13.027 23.8873 12.9925C23.9006 12.958 23.8993 12.9099 23.8061 12.874C23.5299 12.7676 23.186 13.3724 22.9374 13.2767C22.6889 13.181 22.5062 12.6468 22.1058 12.4926C21.8331 12.3875 21.6421 10.3518 21.6005 10.3159C21.4174 10.1027 21.3221 9.82798 21.3337 9.54721L21.355 9.49199C21.2463 9.48582 21.0668 9.51972 21.0389 9.59221C20.9298 9.87526 21.2926 10.4154 21.2899 10.5768Z" fill="#2C62FF"/>
<path fill-rule="evenodd" clip-rule="evenodd" d="M28.2113 11.6257L28.1112 11.5871C26.5372 10.9808 26.0375 9.57139 24.0148 8.79222C23.5879 8.6318 23.1495 8.504 22.7033 8.40992L22.738 8.49466C21.2087 8.90446 20.729 9.96439 19.728 9.57879C19.6443 9.54718 19.9608 9.20902 19.8929 9.15077L19.5238 8.16003C19.5238 8.16003 18.2757 8.4073 17.7945 8.84985C17.4039 9.20903 17.323 11.5868 17.323 11.5868C17.1558 13.5955 17.3227 11.6257 16.9173 14.8426C16.5184 15.8781 16.6648 16.9135 16.2979 17.8662C16.0864 18.3612 15.9205 18.8745 15.8023 19.3996C15.7576 19.6598 15.7843 19.7653 15.7335 20.0311L18.3291 22.2921C18.3508 22.2803 18.3725 22.2682 18.3942 22.256C18.5108 22.1899 18.6107 22.1055 18.7183 22.032L19.2458 22.5047C19.2154 22.5439 19.1791 22.5813 19.1375 22.6173C19.1594 22.6779 19.1653 22.74 19.1412 22.8025C19.1228 22.8508 19.0962 22.8955 19.0626 22.9347L20.9709 24.5974C20.9969 24.1595 21.6347 23.8106 21.8328 23.2963C22.132 22.5196 21.9548 21.611 21.6177 20.7676C21.643 20.702 21.6682 20.6365 21.6645 20.5637C21.882 19.6287 21.8495 18.8591 21.9492 18.6002C22.0064 18.4517 22.1028 18.3145 22.1627 18.1592C22.2152 17.9987 22.2461 17.832 22.2545 17.6634C22.7621 16.9146 23.2215 16.1344 23.6301 15.3273C23.9618 14.5921 24.1703 13.8073 24.2474 13.0044C24.9643 13.2012 25.8493 13.5382 26.0012 13.5967L26.9297 13.9544C27.4226 13.5313 27.8219 13.01 28.102 12.4239C28.1868 12.1667 28.2238 11.8962 28.2113 11.6257ZM21.2899 10.5768C21.2636 12.6517 22.4798 13.477 22.68 13.5541C23.1632 13.7402 23.874 13.027 23.8873 12.9925C23.9006 12.958 23.8993 12.9099 23.8061 12.874C23.5299 12.7676 23.186 13.3724 22.9374 13.2767C22.6889 13.181 22.5062 12.6468 22.1058 12.4926C21.8331 12.3875 21.6421 10.3518 21.6005 10.3159C21.4174 10.1027 21.3221 9.82798 21.3337 9.54721L21.355 9.49199C21.2463 9.48582 21.0668 9.51972 21.0389 9.59221C20.9298 9.87526 21.2926 10.4154 21.2899 10.5768Z" fill="#2C62FF"/>
<path d="M20.5788 4.27744C20.1899 4.40469 19.7724 4.41601 19.3771 4.31002C19.2607 4.26243 19.152 4.19785 19.0545 4.11838C18.9681 4.27428 18.8915 4.4354 18.8251 4.60081C18.4754 5.50863 19.0709 5.39315 18.656 6.47011C18.6068 6.59782 18.4626 6.70477 18.4094 6.84284C18.3562 6.98092 18.5835 7.02883 18.6828 7.1622C18.9577 7.54955 18.6782 8.20299 19.0234 8.33595C19.1944 8.40074 19.3715 8.44773 19.5521 8.47618C19.6135 8.87245 19.6965 9.13037 19.6965 9.13037C19.6566 9.23392 19.5461 9.29441 19.4876 9.44629C19.4876 9.44629 19.4783 9.47046 19.473 9.48426C19.5409 9.54251 19.6184 9.58847 19.7021 9.62009C20.7031 10.0057 21.1828 8.94575 22.7108 8.53941C22.516 8.14409 22.4027 7.71355 22.3779 7.27351C22.3951 6.84806 22.9264 6.11721 22.4086 5.91776C22.3358 5.88676 22.2573 5.87138 22.1782 5.87259C22.0991 5.87381 22.0211 5.8916 21.9493 5.92482C21.8775 5.95805 21.8134 6.00597 21.7613 6.06548C21.7091 6.12499 21.67 6.19477 21.6465 6.27033C21.6003 6.38698 21.5729 6.51022 21.5653 6.63545C21.4772 6.62995 21.3892 6.64642 21.309 6.68339C21.2999 6.43271 21.2273 6.18846 21.0979 5.97358C20.9685 5.7587 20.7865 5.58025 20.5692 5.45499C20.5683 5.36997 20.5821 5.28544 20.61 5.2051C20.6562 5.10732 20.7233 5.02087 20.8066 4.95185C20.7952 4.71017 20.7163 4.47654 20.5788 4.27744Z" fill="#FCCD97"/>
<path d="M16.7427 29.5234C16.0099 28.9304 16.4012 27.1339 16.4012 27.1339L18.1092 24.7437L19.475 25.4259L19.37 26.7924H20.0529L20.4991 28.499V29.1826C20.4991 29.1826 19.3379 29.7987 18.7921 29.8649C18.2626 29.9291 17.9361 30.0216 17.4263 29.8649C17.141 29.7772 16.9747 29.7111 16.7427 29.5234Z" fill="#FCCD97"/>
<path d="M22.4135 5.92753C22.3407 5.89653 22.2623 5.88115 22.1831 5.88236C22.104 5.88358 22.026 5.90137 21.9542 5.93459C21.8824 5.96781 21.8183 6.01573 21.7662 6.07524C21.714 6.13475 21.6749 6.20454 21.6514 6.28009C21.6053 6.39675 21.5779 6.51998 21.5702 6.64522C21.4822 6.63972 21.3941 6.65619 21.3139 6.69315C21.3049 6.44248 21.2322 6.19823 21.1028 5.98335C20.9734 5.76847 20.7915 5.59001 20.5742 5.46476C20.5733 5.37974 20.5871 5.29521 20.6149 5.21488C20.6612 5.11709 20.7283 5.03064 20.8116 4.96162C20.8017 4.71518 20.7217 4.47668 20.5809 4.27419C20.1919 4.40145 19.7744 4.41277 19.3791 4.30678C19.2627 4.25919 19.154 4.1946 19.0566 4.11513L18.9694 4.27975C18.8538 3.99501 18.8357 3.68001 18.918 3.38393C19.0195 3.1579 19.1699 2.95722 19.3584 2.79644C20.4031 2.89364 20.7024 2.39452 21.6102 2.74421C22.7562 3.18565 23.2716 4.32762 23.2369 4.77802C23.2417 4.87046 23.2418 4.96309 23.237 5.05554C23.2245 5.43467 23.1623 5.81053 23.0521 6.17352C22.9028 6.49371 22.6923 6.78158 22.4324 7.02091C22.5678 6.59739 22.8347 6.08975 22.4135 5.92753Z" fill="#3F3F3F"/>
<path d="M22.6613 13.6015C22.4611 13.5244 21.2449 12.6991 21.2712 10.6242C21.2739 10.4628 20.9111 9.92265 21.0202 9.63961C21.0481 9.56712 21.2277 9.53322 21.3363 9.53938L21.315 9.59461C21.3034 9.87538 21.3987 10.1501 21.5818 10.3633C21.6235 10.3992 21.8144 12.4349 22.0871 12.54C22.4875 12.6942 22.6702 13.2284 22.9188 13.3241C23.1673 13.4198 23.5112 12.815 23.7874 12.9214C23.8806 12.9573 23.8819 13.0054 23.8686 13.0399C23.8553 13.0744 23.1445 13.7876 22.6613 13.6015ZM18.5411 22.5585C18.4335 22.6321 18.3336 22.7165 18.217 22.7825C17.2383 23.3371 16.1584 23.4443 15.1602 23.8645C14.4031 24.1833 12.1903 25.4001 12.9807 25.7046C13.2906 25.5913 13.5842 25.4379 13.8542 25.2483C15.6884 23.9134 18.4786 23.791 19.0686 23.0313L18.5411 22.5585Z" fill="#2C62FF"/>
<path d="M28.0865 12.5152C28.0998 12.4807 28.1118 12.4496 28.1251 12.4151L28.6224 12.7296C29.7021 13.415 31.8236 16.9119 32.5362 18.2725C33.5079 18.8371 34.3792 19.6008 33.717 21.3198C33.6661 21.4103 33.5958 21.4883 33.511 21.5482C33.4262 21.6081 33.3292 21.6484 33.2269 21.6661C33.0883 21.6924 32.9451 21.6785 32.8142 21.6261C32.7593 21.7261 32.6713 21.804 32.5653 21.8463C32.4594 21.8887 32.342 21.8928 32.2332 21.8581C32.1838 21.8396 32.1397 21.809 32.105 21.7691C31.14 20.4976 31.6384 19.6668 31.6218 18.9073C31.2098 18.3809 30.7424 17.9005 30.2275 17.4743C27.4515 15.1722 28.4527 15.2487 27.0012 13.9642C27.4575 13.5598 27.8268 13.0668 28.0865 12.5152Z" fill="#FCCD97"/>
<path d="M23.869 13.0359C23.8411 13.1084 23.1402 13.7858 22.6604 13.601C22.4602 13.5239 21.244 12.6986 21.2703 10.6237C21.273 10.4622 20.9103 9.92215 21.0193 9.6391C21.0472 9.56661 21.2268 9.53271 21.3354 9.53888L21.3141 9.5941C21.3025 9.87487 21.3978 10.1496 21.5809 10.3628C21.6226 10.3987 21.8135 12.4344 22.0862 12.5395C22.4866 12.6937 22.6693 13.2279 22.9179 13.3236C23.1664 13.4193 23.5104 12.8145 23.7865 12.9209C23.881 12.9533 23.8823 13.0014 23.869 13.0359Z" fill="#3F3F3F"/>
<path d="M12.4592 29.2864C12.4265 29.0679 12.3316 28.8635 12.1858 28.6975C11.9531 28.4796 11.6868 28.3006 11.3971 28.1676C10.9199 27.9139 10.1978 27.5593 9.87764 27.9267C10.0128 27.3766 10.3291 26.888 10.7758 26.5395C11.1963 26.1498 12.4164 24.3441 14.398 24.4089C14.4316 24.7131 15.1568 26.247 15.2468 26.5395C15.4529 27.4626 13.3737 28.6975 12.4592 29.2864C12.0096 28.8557 12.6143 29.2687 12.4592 29.2864Z" fill="#FCCD97"/>
<path d="M12.4232 30.2308L12.3302 30.1304C11.9536 29.7327 11.4948 29.4218 10.9858 29.2194C10.4768 29.0169 9.92979 28.9279 9.38288 28.9584C9.50529 28.6399 9.64645 28.3288 9.80563 28.027C10.0871 27.5089 10.8836 27.9004 11.3941 28.1737C11.6838 28.3067 11.9502 28.4856 12.1828 28.7036C12.4874 29.0214 12.5609 29.5686 12.4232 30.2308Z" fill="#3F3F3F"/>
<path d="M12.3158 30.6271C12.2536 30.5331 12.1834 30.4446 12.106 30.3626C11.3994 29.6002 10.2014 29.3035 9.25696 29.2912L9.38758 28.9532C9.9345 28.9227 10.4815 29.0117 10.9905 29.2141C11.4995 29.4165 11.9583 29.7275 12.3349 30.1252L12.4279 30.2256L12.3158 30.6271Z" fill="#2C62FF"/>
<path d="M7.50359 38.9514C6.64794 39.0132 5.45014 38.2976 3.93755 38.5647C2.80181 38.765 2.48584 38.5384 1.75664 37.7516C1.60577 37.5889 1.64542 37.4412 1.57667 37.2527C2.5937 36.6631 3.70615 36.9383 4.81768 36.3419C4.87827 36.4418 4.94834 36.5356 5.02691 36.622C5.35273 36.9621 5.7893 37.1745 6.25794 37.2211C6.75355 37.2661 7.16421 37.2738 7.44371 36.9442C7.48712 36.9039 7.54409 36.8511 7.58591 36.8527C7.62773 36.8543 7.7692 36.9199 7.74935 37.0291C7.73945 37.0956 7.73602 37.163 7.7391 37.2302C7.79369 37.8605 8.06729 38.2373 7.50359 38.9514Z" fill="#3F3F3F"/>
<path d="M7.80774 36.7536C7.75755 36.6978 7.6896 36.661 7.61538 36.6495C7.50349 36.6322 7.4041 36.6991 7.2762 36.8277C7.13216 36.9287 6.9686 36.9984 6.79601 37.0324C6.62342 37.0664 6.44563 37.064 6.27405 37.0252C6.01194 37.0028 5.75838 36.9209 5.53266 36.7858C5.30693 36.6506 5.11497 36.4659 4.97135 36.2455C5.15392 36.1302 5.32542 35.9983 5.48365 35.8513C5.7875 35.5697 5.934 35.4339 6.11306 35.268C6.4737 34.9035 6.79433 34.5015 7.06948 34.0689C8.32611 32.3393 8.72803 30.716 9.24766 29.3014C10.1921 29.3137 11.3901 29.6104 12.0967 30.3728C12.1741 30.4548 12.2443 30.5433 12.3065 30.6373C11.8272 31.9381 11.03 33.0983 9.98752 34.0121C9.59956 34.3717 9.18103 34.7092 8.77276 35.0523C8.38675 35.5804 8.06293 36.1513 7.80774 36.7536Z" fill="#3F3F3F"/>
<path d="M7.75647 37.0236C7.77089 36.9195 7.65536 36.8601 7.59303 36.8473C7.53069 36.8344 7.4892 36.893 7.45082 36.9387C7.17132 37.2684 6.75987 37.2815 6.26505 37.2156C5.79642 37.1691 5.35984 36.9566 5.03402 36.6166C4.95545 36.5301 4.88538 36.4363 4.82479 36.3364L4.99604 36.2382C5.13966 36.4586 5.33162 36.6434 5.55734 36.7785C5.78307 36.9136 6.03662 36.9955 6.29873 37.018C6.47032 37.0568 6.64811 37.0592 6.8207 37.0252C6.99328 36.9912 7.15685 36.9214 7.30089 36.8205C7.42297 36.7073 7.50978 36.6268 7.64007 36.6423C7.71429 36.6538 7.78224 36.6906 7.83243 36.7464L7.75647 37.0236Z" fill="#2C62FF"/>
<path d="M21.3634 30.6066L21.3223 30.5591L21.3626 30.5984L21.3634 30.6066Z" fill="#2C62FF"/>
<path d="M20.8024 27.0985C21.1635 27.6971 21.1972 28.5192 20.4995 29.4108C20.2656 29.4526 20.0271 29.5014 19.7792 29.5559C19.7193 29.57 19.6565 29.5657 19.599 29.5436L19.7772 29.5096L19.8221 29.448C20.2779 28.7713 20.3258 27.8266 20.0354 27.3451C19.9703 27.2177 19.8775 27.1064 19.7638 27.0195C19.6501 26.9326 19.5184 26.8723 19.3783 26.843L19.4543 26.7971C19.6779 26.6639 19.9211 26.5668 20.1749 26.5093C20.4299 26.6504 20.6456 26.8529 20.8024 27.0985Z" fill="#3F3F3F"/>
<path d="M27.883 28.7965C27.9266 29.1997 27.8566 29.607 27.6809 29.9725C26.5812 29.5818 26.1513 29.4134 25.9665 29.3218C24.272 29.1152 22.5581 29.1256 20.8662 29.3529C21.296 28.7048 21.5816 27.9105 21.0218 26.9825C20.9012 26.7852 20.7558 26.6044 20.5891 26.4442L20.6145 26.429L20.6772 26.4256C22.2407 26.3033 24.2523 27.1246 26.1198 27.6137C26.4348 27.4842 26.3269 27.5784 26.5411 27.4751C26.7871 27.6896 27.8129 28.1217 27.883 28.7965Z" fill="#3F3F3F"/>
<path d="M21.0293 26.9956C21.5891 27.9237 21.3036 28.718 20.8738 29.3661L20.5066 29.4234C21.2042 28.5317 21.1782 27.7223 20.8095 27.111C20.6526 26.8654 20.4369 26.6629 20.182 26.5218L20.5967 26.4574C20.7634 26.6176 20.9088 26.7984 21.0293 26.9956Z" fill="#2C62FF"/>
<path d="M26.5978 27.8785C26.9107 28.3973 26.6105 28.9261 26.2192 29.3795L25.857 29.1825C26.4742 28.547 26.5422 28.3508 26.3361 28.0091C26.2468 27.8728 26.1946 27.736 26.0208 27.676L26.3361 27.5897C26.4422 27.6714 26.5301 27.7685 26.5978 27.8785Z" fill="#2C62FF"/>
<path d="M29.1231 29.3344C29.2653 29.7807 29.3742 30.2369 29.4491 30.6992C29.5248 31.0877 29.3153 33.0316 28.7734 33.0353C28.2315 33.0391 28.6093 32.8293 27.5661 30.5489C27.5661 30.5489 26.7484 29.6072 26.8831 29.5244C27.2115 29.2106 27.7055 29.4252 27.8191 28.9854C27.9982 28.2986 26.7236 27.847 26.542 27.4753C26.7236 27.2855 28.3492 27.0431 28.8959 27.2382C28.9579 27.3052 29.1049 27.3633 29.1233 27.4577C29.2515 28.0767 29.2515 28.7154 29.1231 29.3344Z" fill="#3F3F3F"/>
<path d="M21.9616 23.7481C21.0774 25.0854 14.5875 28.7709 14.5875 28.7709C14.5875 28.7709 13.7138 25.9052 12.193 24.8511C11.8564 24.655 11.5558 24.4027 11.3043 24.1051L11.368 24.034C14.1314 20.9905 14.2292 21.2172 15.7203 20.6566C15.7235 20.5781 15.7516 20.5026 15.8006 20.4411C15.8495 20.3796 15.9168 20.3353 15.9927 20.3146C16.2925 20.1952 16.6556 20.1759 17.2364 19.9387C17.8172 19.7016 17.9533 20.0181 17.9533 20.0181C18.4749 19.9973 18.9946 19.9417 19.5088 19.8516C19.9907 19.7338 19.8389 19.9291 20.5603 19.9681C21.2817 20.007 20.5603 19.9681 21.2252 19.744C21.3475 19.7004 21.4757 19.6757 21.6055 19.6707C21.5982 19.7369 21.6125 19.8092 21.6121 19.8798C22.1454 20.6088 22.5555 21.4432 22.4639 22.2704C22.4032 22.8182 22.21 23.1915 21.9616 23.7481Z" fill="#3F3F3F"/>
<path d="M20.0976 26.1053L19.6912 25.4596L15.7797 27.5572L16.2195 28.5434L20.0976 26.1053Z" fill="#3F3F3F"/>
<path d="M18.7201 20.8928C18.4851 21.0411 18.2948 21.2506 18.1698 21.4988C17.9067 21.9601 14.7246 23.8393 14.2852 24.7971C14.2852 24.7971 13.753 25.5822 13.8272 25.6981C13.8821 25.7718 13.9591 25.8261 14.047 25.853C14.2932 25.6351 14.526 25.4025 14.744 25.1564C15.4924 24.3997 16.2955 23.6991 17.1468 23.0604C17.7695 22.6702 18.3562 22.2253 18.8999 21.7309C19.0249 21.5165 19.3172 21.235 18.7201 20.8928Z" fill="#2C62FF"/>
</svg>
