<svg width="39" height="38" viewBox="0 0 39 38" fill="none" xmlns="http://www.w3.org/2000/svg">
<path d="M19.5188 5.91567C19.3327 5.7366 19.0202 5.69446 19.0202 5.33982C19.0202 4.98518 19.9893 3.47183 19.3713 3.47183H19.3467C19.3046 3.47183 19.3467 3.47182 19.3081 3.45426C19.3047 3.16204 19.286 2.87021 19.2519 2.57996C19.2519 1.58627 18.8552 1.70565 18.4759 1.70565C17.9855 1.72645 17.4949 1.66956 17.0223 1.53711C16.615 1.82152 16.5026 1.86015 16.5026 2.16212C16.5174 2.29765 16.5618 2.42828 16.6325 2.54484C16.3589 2.90065 16.2019 3.33234 16.1831 3.78081H16.0075C15.9513 3.13825 15.4316 3.07856 15.4316 3.67548C15.4316 4.42689 15.8144 4.53926 16.011 4.59192C16.011 4.62704 16.1163 4.85878 16.1163 4.89389C16.1163 4.929 16.3937 5.51539 16.3937 7.35178C16.3937 7.87496 16.7449 7.92061 17.1276 7.92061C17.6929 7.92061 18.3109 7.4817 18.7182 7.1411C19.0988 6.8194 19.3771 6.39346 19.5188 5.91567Z" fill="#FCCD97"/>
<path d="M16.0069 3.78121H16.1754C16.1942 3.33274 16.3512 2.90105 16.6249 2.54524C16.5541 2.42868 16.5098 2.29804 16.495 2.16251C16.495 1.86055 16.6073 1.81139 17.0146 1.53751C17.4852 1.67552 17.9746 1.73833 18.4648 1.72361C18.844 1.72361 19.2408 1.60422 19.2408 2.59791C19.2748 2.88816 19.2936 3.18001 19.2969 3.47223C19.3356 3.47223 19.2969 3.48978 19.3356 3.48978H19.3601C19.3869 3.48589 19.4141 3.48589 19.4409 3.48978C19.4563 3.46501 19.467 3.43764 19.4725 3.40901C19.4935 3.2837 19.5041 3.15686 19.5041 3.0298C19.5041 1.77276 19.4198 0.807161 18.0223 0.438477H17.9486L17.2464 0.466573L17.0146 0.599992C16.7348 0.757606 16.4672 0.936019 16.2141 1.13371C15.7578 1.62478 15.5065 2.27172 15.5118 2.94202C15.5118 3.07057 15.5247 3.1988 15.5504 3.32475C15.7014 3.17025 15.9683 3.33177 16.0069 3.78121Z" fill="#3F3F3F"/>
<path d="M25.6694 10.101C27.5338 10.1993 27.1406 10.9191 28.5521 11.1544C29.0226 11.2316 30.4517 11.2562 31.5367 11.3019C31.6363 11.5106 31.7678 11.7025 31.9265 11.8707C32.3232 12.1516 32.7937 12.1972 33.331 12.5132C33.2819 12.6113 33.2498 12.717 33.2361 12.8257C33.3132 13.0199 33.4097 13.2058 33.5241 13.3805C34.9286 13.1137 34.2474 11.8847 34.2474 11.6811C34.2474 11.5968 34.2474 11.502 34.2474 11.4142C33.2635 10.8357 32.1982 10.4083 31.0872 10.1466C29.8759 9.38118 27.8218 8.06445 26.2628 8.06445C26.1364 8.06445 25.6974 8.7035 25.5605 8.98441C25.4201 9.37065 25.5429 10.0975 25.6694 10.101Z" fill="#FCCD97"/>
<path d="M10.4597 10.5328C10.4562 10.4638 10.4562 10.3947 10.4597 10.3257C10.1998 10.4029 10.0243 10.5258 9.789 10.589C9.6362 10.6298 9.48884 10.6887 9.35009 10.7646C9.03644 10.6786 8.71318 10.6326 8.388 10.6276C7.13096 10.6276 6.5516 11.3545 4.96451 11.5195C4.77483 11.5604 4.58734 11.6108 4.40271 11.6705L1.54101 12.1586C1.2124 12.5323 0.995796 12.9911 0.916016 13.4823C0.974559 13.7325 1.06421 13.9743 1.18288 14.2021C1.29524 14.2021 1.40408 14.2232 1.50942 14.2232C2.51014 14.2232 2.49258 13.6017 2.58387 13.2155C2.75944 13.1698 2.9701 13.1277 3.22642 13.0434C3.52432 12.9519 3.83479 12.9081 4.14637 12.9135C4.82054 12.9135 5.58953 13.082 6.71314 13.082C6.9519 13.082 7.23981 13.082 7.2679 13.082H7.58041C8.38449 13.082 8.95332 12.2955 10.8459 12.2007C10.6551 11.661 10.5256 11.1015 10.4597 10.5328Z" fill="#FCCD97"/>
<path d="M15.5391 26.5898H15.7378L15.6437 26.6073H15.5914C15.5734 26.6033 15.5558 26.5975 15.5391 26.5898Z" fill="#3F3F3F"/>
<path d="M29.7011 17.9499C29.7011 18.0095 29.7011 18.0692 29.7011 18.1324C29.7011 19.4843 27.5943 19.3544 26.2249 19.8881L23.925 20.8642C23.88 20.9247 23.839 20.988 23.8021 21.0538C22.8611 22.7638 22.8189 22.7357 22.4784 22.8656C22.1272 23.9998 21.3899 24.2245 21.0738 24.9022C20.484 26.1838 20.1469 26.6192 19.9011 26.7737C19.3814 26.7913 19.0198 26.7948 18.9987 26.7948H18.9144L15.7191 26.5876C15.8666 26.549 16.1545 26.4682 16.4846 26.3629L16.7058 26.2891L16.8217 26.2505L17.0534 26.1698C17.243 26.0995 17.4256 26.0293 17.5872 25.9591C17.6855 25.9169 17.7768 25.8748 17.8505 25.8362L17.9242 25.7976C17.9655 25.7754 18.0053 25.7507 18.0436 25.7238C18.1173 25.6676 18.156 25.6185 18.1419 25.5799V25.5588C18.0679 25.4785 18.0222 25.3761 18.012 25.2674C18.0752 25.2428 19.8625 24.7231 19.8625 24.214C19.8625 24.0665 18.1806 22.6971 16.5759 22.6971H16.4881H16.4319C16.411 22.6938 16.3897 22.6938 16.3687 22.6971C16.3338 22.7056 16.2997 22.7174 16.2669 22.7322L16.1651 22.7814L16.0632 22.8411L15.9579 22.9183L15.8666 22.9956L15.7718 23.0833L15.6489 23.2133C15.6033 23.2659 15.5576 23.3186 15.512 23.3783C15.4663 23.438 15.3785 23.5574 15.3189 23.6522C15.2592 23.747 15.2311 23.7891 15.1925 23.8558L15.1293 23.9682C15.0941 23.8383 15.0661 23.7013 15.038 23.5644C15.1784 23.2905 15.3189 23.0166 15.4769 22.7322C15.6625 22.3966 15.8154 22.0438 15.9333 21.6788C16.6988 19.3789 16.9867 19.86 17.7241 18.5643C17.7004 18.2899 17.6629 18.0168 17.6117 17.7462C17.2606 15.9484 16.3758 14.1717 15.4383 12.6268H15.4137C15.2592 11.9982 14.6693 11.5312 14.6693 10.3971C14.6693 9.26296 15.6524 8.84863 16.288 8.23416C16.1475 8.11477 16.1651 7.97432 16.0632 7.97432C15.67 7.97432 14.0829 9.42096 14.0829 10.4533C14.3233 11.2051 14.6386 11.9309 15.0239 12.6197C13.3596 12.5881 12.2149 12.4442 12.2149 12.4442C11.7754 12.4736 11.3339 12.4452 10.9017 12.3599C10.8806 12.2932 10.856 12.223 10.835 12.1527C10.8139 12.0825 10.7682 11.935 10.7366 11.8262C10.705 11.7173 10.684 11.6471 10.6594 11.5593C10.6348 11.4716 10.6138 11.3978 10.5962 11.3206C10.5787 11.2433 10.5681 11.2223 10.5576 11.1731C10.547 11.1239 10.5295 11.0467 10.5154 10.9835C10.5014 10.9203 10.4873 10.8536 10.4768 10.7939C10.4663 10.7342 10.4768 10.6885 10.4557 10.6429C10.454 10.6301 10.454 10.6171 10.4557 10.6043C10.454 10.5926 10.454 10.5808 10.4557 10.5692C10.4541 10.5434 10.4541 10.5176 10.4557 10.4919C10.4557 10.4603 10.4557 10.4252 10.4557 10.3901C10.4523 10.3551 10.4523 10.3198 10.4557 10.2847C10.4557 10.2391 10.4557 10.197 10.4557 10.1513L15.5822 7.66533L16.3722 7.28259C16.3722 7.28259 16.3722 7.30718 16.3722 7.32122C16.3722 7.8444 16.7234 7.89005 17.1061 7.89005C17.6714 7.89005 18.2894 7.45465 18.6967 7.11054C18.7564 7.06139 18.8091 7.01224 18.8582 6.96308C18.9074 6.91392 18.939 6.88232 18.9741 6.84018C18.9952 6.81872 19.014 6.79519 19.0303 6.76995C19.0689 6.7243 19.1005 6.67866 19.1321 6.63302C19.165 6.58902 19.1954 6.54331 19.2234 6.49607C19.2542 6.44489 19.2823 6.39216 19.3077 6.33807C19.3742 6.20562 19.4306 6.06828 19.4762 5.92725C22.8014 5.95534 23.9671 7.06139 26.7375 7.70747C26.7375 7.78823 26.7375 7.876 26.7375 7.95676C26.7375 8.03752 26.7375 8.02699 26.7375 8.06561L26.6181 8.04806H26.4988H26.2635C26.1371 8.04806 25.6982 8.68711 25.5613 8.96801C25.3857 9.35777 25.5086 10.0846 25.635 10.0881H25.779H25.9124H26.0388L26.1547 10.1057C26.0698 10.2206 25.9733 10.3265 25.8667 10.4217C25.5153 10.2641 25.1353 10.1804 24.7502 10.1759C24.4652 10.1754 24.1804 10.1895 23.8969 10.218C23.8793 10.1899 23.8372 10.1899 23.7846 10.197C23.7319 10.204 23.609 10.2356 23.5423 10.2356C21.6146 10.2356 21.4636 7.94623 21.4636 7.92868C21.4636 7.11757 19.7325 6.9069 19.6588 6.9069C19.5566 6.91542 19.459 6.95301 19.3775 7.01523C19.296 7.07745 19.234 7.1617 19.1988 7.25802C19.55 7.29665 20.4524 7.51785 20.512 7.53541C21.4987 7.83386 21.1371 9.25594 21.7656 9.88095C22.0521 10.1769 22.4178 10.3841 22.819 10.4779C22.9945 10.4989 23.135 10.52 23.2508 10.5411C23.2112 10.7942 23.1924 11.0503 23.1946 11.3065C23.1946 11.7419 23.2368 12.1738 23.2368 12.4758C23.2368 12.5952 23.2368 12.7145 23.2368 12.8269C23.2392 13.2379 23.3327 13.6433 23.5107 14.0137C23.545 14.0432 23.5814 14.0702 23.6195 14.0945C23.9917 14.3508 24.1603 14.2068 24.4517 14.2771C25.1153 13.9821 25.47 13.5924 26.2354 13.5924C26.2951 13.5924 27.5522 13.7398 28.4089 13.8803C28.6966 14.1817 28.9455 14.5179 29.1498 14.881H29.1076H29.0444C28.7881 14.9056 28.4581 14.9372 28.1807 14.9512H28.0367H27.9454C26.8323 14.9512 24.9608 14.2876 24.9608 16.4751C24.9608 17.2722 26.0634 18.2694 26.6427 18.6978C26.7094 18.6802 26.9166 18.6275 27.2081 18.5398L27.3906 18.4871L27.6996 18.3888L28.0227 18.2834L28.3738 18.164C28.6968 18.0482 29.0339 17.9183 29.3534 17.7743C29.417 17.7498 29.4792 17.7217 29.5395 17.69L29.7327 17.5987C29.7256 17.7778 29.7011 17.834 29.7011 17.9499Z" fill="#2C62FF"/>
<path d="M18.8165 26.5206L18.9429 26.4434C18.8443 26.3459 18.7528 26.2414 18.6691 26.1309C18.6454 26.1564 18.6195 26.1799 18.5918 26.2011" fill="#3F3F3F"/>
<path d="M30.875 17.5588C30.6848 17.55 30.4957 17.5253 30.3096 17.485L30.1481 17.4464L30.2324 17.3937L30.2745 17.3691C30.4576 17.261 30.6253 17.1287 30.7731 16.9759C30.7973 16.9519 30.8197 16.9261 30.8398 16.8986C30.893 16.8363 30.9368 16.7665 30.9698 16.6915C30.9822 16.6645 30.9917 16.6363 30.9979 16.6072V16.5686C30.9996 16.5393 30.9996 16.51 30.9979 16.4808C30.981 16.0926 30.826 15.7232 30.5607 15.4392C30.2954 15.1553 29.9374 14.9755 29.5512 14.9323H29.4283H29.3546H29.2598C29.3368 14.8735 29.4205 14.824 29.5091 14.7849C29.6839 14.7022 29.8695 14.6443 30.0603 14.6128C30.9627 15.0271 32.0793 16.3509 30.875 17.5588Z" fill="#3F3F3F"/>
<path d="M21.8675 36.4214V36.741C21.2249 37.3063 20.5894 37.0043 20.01 36.7655H19.9292C19.0549 36.7655 18.932 36.9727 18.1034 36.9727C17.1448 36.9727 16.4355 36.8955 16.418 35.972C16.7253 35.7263 17.0973 35.575 17.4889 35.5366C18.0648 35.052 18.7143 35.0029 19.2445 34.729H19.6483C20.5648 34.729 20.6069 35.3575 21.404 35.3575C21.5126 35.3612 21.6212 35.3506 21.727 35.3259C21.8174 35.6842 21.8646 36.052 21.8675 36.4214Z" fill="#3F3F3F"/>
<path d="M35.4668 16.9553C35.4668 17.1309 35.3052 17.5101 35.0279 17.5101H34.8453C33.4021 17.5101 33.5356 17.0256 33.3741 16.9448C33.1961 16.8897 33.0076 16.8781 32.8242 16.9111C32.6409 16.9441 32.4682 17.0207 32.3207 17.1344C31.9737 17.2284 31.6335 17.3457 31.3024 17.4855C31.5821 17.1386 31.7334 16.7057 31.7308 16.2601C31.7106 15.9148 31.6071 15.5796 31.4292 15.283C31.2512 14.9865 31.0041 14.7374 30.709 14.5571C31.4569 14.5817 32.5419 15.1119 33.4934 15.6491C33.7151 15.6257 33.9391 15.6375 34.1571 15.6843H34.2835L35.3579 16.5199C35.4261 16.6552 35.4633 16.8039 35.4668 16.9553Z" fill="#3F3F3F"/>
<path d="M36.5369 18.798C35.8347 18.6154 35.0973 18.0255 34.4091 17.9096C34.0675 17.838 33.7214 17.7899 33.3733 17.7657C33.2144 17.7583 33.06 17.7114 32.9238 17.6293C32.7877 17.5471 32.6742 17.4323 32.5938 17.2951C32.7478 17.1799 32.9252 17.0996 33.1134 17.0599C33.1134 17.0599 33.605 17.706 34.8515 17.706C35.4835 17.706 35.7715 17.1371 35.7715 16.614C35.6653 16.4481 35.5338 16.3 35.3817 16.175C35.3674 16.159 35.3521 16.1437 35.3361 16.1294C35.5297 16.2047 35.7294 16.2634 35.933 16.305C37.3621 16.6175 38.3241 17.1301 38.5559 17.8429C38.7876 18.5557 37.8817 19.1526 36.5369 18.798Z" fill="#3F3F3F"/>
<path d="M30.1476 17.4472L30.2319 17.3945C30.0774 17.4893 29.9088 17.5841 29.7298 17.6719C29.7298 17.7772 29.7298 17.8334 29.7298 17.9493C29.7298 18.009 29.7298 18.0687 29.7298 18.1319C29.7298 19.4837 27.623 19.3538 26.2536 19.8875L23.9537 20.8636C23.9087 20.9241 23.8677 20.9875 23.8308 21.0532C22.8898 22.7632 22.8477 22.7351 22.5071 22.8651C22.1559 23.9992 21.4186 24.2239 21.1025 24.9016C20.5127 26.1832 20.1756 26.6186 19.9298 26.7731C19.4101 26.7907 19.0484 26.7942 19.0274 26.7942L18.8202 26.5028L18.5955 26.1832L18.1671 25.6004V25.5793L15.8427 25.021L14.9648 24.3819C15.0185 24.2619 15.0783 24.1447 15.1439 24.0308C15.1088 23.9009 15.0807 23.764 15.0526 23.627C15.1931 23.3531 15.3335 23.0793 15.4915 22.7948C15.6772 22.4592 15.83 22.1064 15.948 21.7415C16.7135 19.4416 17.0014 19.9226 17.7387 18.627C17.7151 18.3525 17.6776 18.0795 17.6264 17.8088L17.8546 17.542C18.2518 17.2511 18.6911 17.0226 19.1573 16.8643C19.5976 16.6235 20.0708 16.4485 20.5618 16.3446C20.5618 16.3446 20.8849 16.2217 21.8926 15.6985L22.8161 15.2175L23.4305 14.6311L23.6904 14.1676C24.0626 14.424 24.2311 14.28 24.5225 14.3502C25.1862 14.0553 25.5408 13.6655 26.3063 13.6655C26.366 13.6655 27.623 13.813 28.4797 13.9534C28.7674 14.2548 29.0163 14.591 29.2206 14.9542H29.1785H29.2979C29.3749 14.8953 29.4585 14.8459 29.5472 14.8067L29.5893 14.9542L30.2916 17.391L30.3267 17.5069L30.1476 17.4472Z" fill="#3F3F3F"/>
<path d="M18.0229 25.2697C18.0331 25.3784 18.0787 25.4808 18.1528 25.5611V25.5822C18.1528 25.6208 18.1282 25.6699 18.0545 25.7261C18.0162 25.753 17.9763 25.7777 17.9351 25.7999L17.8614 25.8385C17.7759 25.8841 17.688 25.9252 17.598 25.9614C17.4365 26.0316 17.2469 26.1018 17.0643 26.1721L16.8326 26.2528L16.7167 26.2914L16.4955 26.3652C16.2124 26.4622 15.924 26.5431 15.6317 26.6075H15.579C15.5632 26.6019 15.5479 26.5948 15.5334 26.5864C15.1823 26.3827 14.7363 25.2907 14.7363 25.073C14.7638 24.8282 14.8352 24.5903 14.947 24.3708C15.0007 24.2508 15.0604 24.1336 15.1261 24.0196L15.1893 23.9073C15.2279 23.8406 15.2701 23.7703 15.3157 23.7036C15.3613 23.6369 15.4421 23.5175 15.5088 23.4297C15.5755 23.342 15.6001 23.3174 15.6457 23.2647L15.7686 23.1348L15.8635 23.047L15.9547 22.9698L16.0601 22.8925L16.1619 22.8328L16.2637 22.7837C16.2965 22.7689 16.3306 22.7571 16.3656 22.7486C16.3865 22.7453 16.4078 22.7453 16.4288 22.7486H16.4849H16.5727C18.1774 22.7486 19.8593 24.118 19.8593 24.2654C19.8698 24.7254 18.0861 25.2486 18.0229 25.2697Z" fill="#FCCD97"/>
<path d="M31.014 16.4712C31.0157 16.5005 31.0157 16.5298 31.014 16.559V16.5976C31.0062 16.6262 30.9969 16.6544 30.9859 16.6819C30.953 16.757 30.9092 16.8267 30.856 16.8891C30.8358 16.9165 30.8135 16.9424 30.7893 16.9663C30.6414 17.1192 30.4738 17.2514 30.2907 17.3596L30.2486 17.3842C30.0941 17.479 29.9255 17.5738 29.7464 17.6616L29.5533 17.7529C29.493 17.7845 29.4308 17.8126 29.3672 17.8371C29.0477 17.9811 28.7106 18.111 28.3876 18.2269L28.0365 18.3463L27.7134 18.4516L27.4044 18.5499L27.2218 18.6026C26.9304 18.6904 26.7232 18.743 26.6565 18.7606C26.0772 18.3322 24.9746 17.335 24.9746 16.538C24.9746 14.3504 26.8461 15.0141 27.9592 15.0141H28.0926H28.2366C28.514 15.0141 28.844 14.9684 29.1004 14.9438H29.1636H29.283H29.3778H29.4515H29.5744C29.9559 14.9879 30.3095 15.1654 30.5729 15.4448C30.8363 15.7243 30.9925 16.0878 31.014 16.4712Z" fill="#FCCD97"/>
<path d="M21.6476 35.0106C21.5227 35.0846 21.3771 35.1161 21.2327 35.1003C21.0883 35.0844 20.953 35.0222 20.8471 34.9228C20.407 34.5399 19.8433 34.3291 19.26 34.3294C19.2629 33.995 19.2441 33.6607 19.2038 33.3287C19.2038 33.3287 16.8968 29.9017 15.7592 27.6334C15.696 27.5105 15.6398 27.3911 15.5871 27.2823C15.4713 27.04 15.3765 26.8188 15.3027 26.6222C15.3027 26.6222 15.6749 26.8574 18.2206 25.6812L18.5717 26.1973L18.814 26.5484L19.0071 26.8258C19.6193 27.6063 19.986 28.5509 20.0605 29.54C20.1097 31.0394 20.0219 31.4572 20.5591 32.6194C21.0964 33.7817 21.5809 34.9474 21.6125 35.0211L21.6476 35.0106Z" fill="#3F3F3F"/>
<path d="M18.8151 26.5339C17.8758 27.1013 16.8323 27.475 15.7463 27.6329C15.6831 27.51 15.6269 27.3906 15.5742 27.2818C15.9253 27.3309 16.8523 27.3099 18.5728 26.1968L18.8151 26.5339Z" fill="#2C62FF"/>
<path d="M21.7305 35.309C21.6247 35.3337 21.5161 35.3443 21.4075 35.3406C20.6104 35.3406 20.5683 34.7121 19.6519 34.7121H19.248V34.3188C19.8314 34.3185 20.3951 34.5293 20.8352 34.9123C20.9411 35.0116 21.0764 35.0739 21.2208 35.0897C21.3652 35.1055 21.5108 35.0741 21.6357 35L21.7305 35.309Z" fill="#2C62FF"/>
<path d="M31.7405 16.2674C31.7431 16.713 31.5918 17.1459 31.3121 17.4929L30.8732 17.5596C32.0776 16.3517 30.961 15.0279 30.0762 14.6101L30.7187 14.5645C31.0139 14.7447 31.261 14.9938 31.4389 15.2904C31.6169 15.5869 31.7203 15.9222 31.7405 16.2674Z" fill="#2C62FF"/>
<path d="M35.7711 16.615C35.7711 17.1382 35.4832 17.707 34.8512 17.707C33.6047 17.707 33.1131 17.0609 33.1131 17.0609C32.9248 17.1006 32.7475 17.1809 32.5934 17.2962L32.3301 17.1276C32.4776 17.0139 32.6503 16.9373 32.8336 16.9043C33.017 16.8713 33.2055 16.8829 33.3835 16.938C33.545 17.0188 33.4116 17.5033 34.8547 17.5033H35.0373C35.3147 17.5033 35.4762 17.1241 35.4762 16.9485C35.4745 16.8015 35.4409 16.6565 35.3779 16.5237L34.3034 15.688L35.3919 16.169C35.5409 16.297 35.6688 16.4474 35.7711 16.615Z" fill="#2C62FF"/>
<path d="M14.6704 10.4382C14.6704 11.5724 15.2603 12.0394 15.4148 12.6679H15.025C14.6397 11.979 14.3244 11.2532 14.084 10.5014C14.084 9.46911 15.6711 8.02246 16.0643 8.02246C16.1662 8.02246 16.1486 8.16291 16.2891 8.28229C15.657 8.88974 14.6704 9.35324 14.6704 10.4382Z" fill="#3F3F3F"/>
<path d="M23.8197 10.2445L23.3001 10.5956C23.1842 10.5745 23.0437 10.5535 22.8682 10.5324C22.467 10.4387 22.1013 10.2315 21.8148 9.93548C21.1863 9.31047 21.5479 7.8884 20.5613 7.58994C20.5016 7.57238 19.6167 7.35118 19.248 7.31255C19.2832 7.21623 19.3452 7.13198 19.4267 7.06976C19.5082 7.00754 19.6058 6.96995 19.708 6.96143C19.7818 6.96143 21.5128 7.17209 21.5128 7.9832C21.5128 8.00075 21.6638 10.2901 23.5915 10.2901C23.6442 10.2831 23.732 10.2515 23.8197 10.2445Z" fill="#3F3F3F"/>
</svg>
