<svg width="31" height="39" viewBox="0 0 31 39" fill="none" xmlns="http://www.w3.org/2000/svg">
<path d="M30.8631 1.43151C30.6304 1.11027 30.2945 0.878518 29.9116 0.774902C28.0401 1.37533 28.4158 1.66677 27.6959 2.55512C25.0824 2.81622 22.5616 3.66487 20.3223 5.03759C20.4803 5.49406 20.6734 6.17876 20.9438 6.83537C21.4389 6.60639 21.9026 6.31492 22.3237 5.96808C23.9494 5.73985 24.4305 5.29743 27.408 3.60148C27.7767 3.55934 28.1559 3.55935 28.5351 3.52774C29.1847 3.46805 28.9565 2.44276 29.4586 2.34093C29.5984 2.31168 29.7407 2.29639 29.8835 2.29529H29.9186C29.9186 2.40062 29.9186 2.50596 29.9186 2.6113L30.203 2.6429C30.4277 2.52001 30.5541 2.34444 30.7472 1.85286C30.7964 1.7405 30.9158 1.60707 30.9158 1.50174C30.9122 1.4871 30.9056 1.47333 30.8966 1.46127C30.8875 1.4492 30.8762 1.43908 30.8631 1.43151Z" fill="#FCCD97"/>
<path d="M3.18407 19.2301C3.18407 17.5272 5.56121 15.8242 6.0563 13.9211C6.14642 13.581 6.26385 13.2487 6.40742 12.9274C5.91187 12.6318 5.45334 12.2782 5.04154 11.874C2.13771 15.9436 3.71427 17.2287 0.743732 19.5988C0.698086 19.6339 0.62435 19.6796 0.62435 19.7604C0.62435 20.0097 0.603283 20.259 0.603283 20.5118C0.564188 20.8175 0.610786 21.1282 0.737882 21.409C0.864978 21.6899 1.06758 21.9299 1.3231 22.1024C1.52324 21.9935 1.54431 21.8144 1.54431 21.4914C1.54431 21.3369 1.54431 21.1824 1.51622 21.0314C2.00513 20.5761 2.5461 20.1801 3.12789 19.8516C3.16886 19.7006 3.18895 19.5447 3.18758 19.3882C3.18926 19.3613 3.18926 19.3343 3.18758 19.3074L3.18407 19.2301Z" fill="#FCCD97"/>
<path d="M14.2669 28.0726C14.2423 28.529 14.1932 28.9714 14.13 29.3928V29.4806C13.8153 29.3356 13.4887 29.2182 13.1538 29.1295L12.887 29.0627C12.7746 29.0346 12.6623 29.0101 12.5359 28.989C12.2 28.9265 11.8592 28.8948 11.5176 28.8942C11.3048 28.8894 11.0929 28.9239 10.8926 28.996L10.9417 28.8661C11.0651 28.5296 11.2303 28.2099 11.4333 27.9146C11.3877 28.3921 12.5078 28.4483 12.8378 28.4869C13.6946 28.5852 13.993 28.529 14.2669 28.0726Z" fill="#3F3F3F"/>
<path d="M11.2076 3.45435C11.1817 3.40162 11.1437 3.35572 11.0967 3.32035C11.0497 3.28498 10.9951 3.26112 10.9373 3.2507C10.8214 3.2507 10.7617 3.47191 10.7617 3.60182C10.7617 4.44804 11.3025 4.15661 11.3025 5.19594C11.2507 5.53683 11.1313 5.86393 10.9513 6.15803C10.7617 6.53374 11.3621 7.61521 12.9528 7.56254C14.7084 7.49583 14.1255 6.50916 13.8938 5.80691C14.1493 5.40013 14.3211 4.94655 14.3994 4.47262H14.4661C14.8594 4.47262 14.7856 4.22332 14.8875 3.84059C14.9893 3.45786 14.9577 3.32092 14.74 3.32092C14.5925 3.32092 14.5047 3.48946 14.4275 3.67205C14.0764 2.45715 14.2765 2.01824 13.8552 2.01824C13.532 2.16515 13.1843 2.25087 12.8299 2.27105C12.4249 2.27208 12.0293 2.14959 11.6957 1.91992C11.2849 2.06037 11.1971 2.72752 11.1971 3.20505C11.1919 3.29978 11.1919 3.39473 11.1971 3.48946L11.2076 3.45435Z" fill="#FCCD97"/>
<path d="M21.1397 7.27034C19.7774 8.1192 18.4731 9.05761 17.2352 10.0794C17.1865 9.99013 17.151 9.89433 17.1298 9.79494C16.9753 8.86797 17.0842 7.75138 16.1221 7.29843C15.6647 7.13349 15.1781 7.06534 14.693 7.09828C14.6398 7.10084 14.5895 7.12312 14.5518 7.16077C14.5142 7.19842 14.4919 7.24875 14.4894 7.30194C14.4894 7.39674 14.5806 7.43888 14.6825 7.43888C17.193 7.43888 16.4381 9.02597 16.9508 10.3392C16.884 10.3989 16.8244 10.4586 16.7647 10.5183C16.7401 10.8167 16.7331 11.1187 16.7331 11.4207C16.7331 11.821 16.7541 12.3512 16.7541 12.3547C16.4528 13.4191 16.2564 14.5104 16.1677 15.6131C16.1307 15.99 16.0637 16.3634 15.9676 16.7297C15.9852 16.7964 16.0027 16.8596 16.0168 16.9193C16.0768 17.1348 16.1133 17.3561 16.1256 17.5794C15.865 18.1358 15.7387 18.7456 15.7569 19.3597C15.7569 19.7108 15.7745 20.0619 15.7745 20.413V20.4762C15.9953 21.3656 16.0887 22.2819 16.0519 23.1975C16.0519 24.1561 15.9957 25.1041 15.9957 26.0627C15.9957 26.456 15.9957 26.7895 15.9957 26.7895V26.8141C15.5456 27.1974 15.0115 27.4692 14.4367 27.6077C14.6333 26.8506 14.7138 26.068 14.6755 25.2867C13.8828 24.9683 13.0367 24.8038 12.1824 24.8021C11.8817 24.7997 11.5816 24.8291 11.2871 24.8899C11.3538 25.4587 11.5469 27.0353 11.5469 27.0353C11.5601 27.2254 11.5423 27.4163 11.4942 27.6006C10.9184 27.5128 10.4409 27.3408 10.4409 26.7333C10.4409 26.3225 10.6796 25.9468 10.6796 24.8899C10.6803 24.7444 10.6721 24.599 10.655 24.4545C9.91065 25.8239 9.47525 27.6147 7.16483 27.6147C7.0994 27.62 7.03363 27.62 6.9682 27.6147C6.49828 27.5057 6.06717 27.2701 5.7217 26.9335C5.54857 26.6381 5.45426 26.3032 5.44782 25.9609C5.44782 25.2902 6.80317 17.8252 8.98367 15.894C9.03634 15.1532 9.19786 14.2332 9.19786 13.9628C9.19786 13.4923 8.76246 12.3441 8.60445 11.6594C8.79055 11.5787 9.03283 11.6384 9.16275 11.4944C9.40738 11.1417 9.53846 10.7228 9.53845 10.2935C9.53845 9.94242 9.45769 9.61236 9.45769 9.2823C9.45769 8.14464 11.2133 7.5091 11.2133 7.5091C11.2133 7.43185 11.0202 7.2914 10.8622 7.2914C10.7042 7.2914 9.10657 8.05335 9.10657 9.30688C9.10657 9.70014 9.24351 10.0653 9.24351 10.448C9.24351 11.0836 8.5588 11.1047 8.42889 11.3856C8.41187 11.4142 8.40334 11.4471 8.40431 11.4804C7.70205 11.9825 7.37551 12.6637 6.82073 13.2149C3.52715 11.1082 4.93166 11.3434 6.23785 9.35252C7.54405 7.36163 8.16203 7.01752 10.9184 6.38198C10.9746 6.84547 11.6206 7.60391 12.9514 7.55475C14.5385 7.49155 14.2155 6.69098 13.9662 6.00628C14.5509 5.88731 15.1462 5.82848 15.7429 5.83071C16.2134 5.83071 16.6804 5.85529 17.1474 5.85529C18.8258 5.85529 18.9452 4.90374 19.9845 4.90374C20.0301 4.90374 20.2022 4.87916 20.2478 4.88267C20.4953 5.6963 20.7931 6.49373 21.1397 7.27034Z" fill="#2C62FF"/>
<path d="M10.9366 3.25055C10.9945 3.26098 11.0491 3.28484 11.096 3.32021C11.143 3.35558 11.181 3.40147 11.207 3.45421C11.2017 3.35947 11.2017 3.26452 11.207 3.16979C11.207 2.69226 11.2948 2.02512 11.7056 1.88467C12.0391 2.11433 12.4348 2.23682 12.8397 2.23579C13.1942 2.21561 13.5418 2.12989 13.865 1.98298C14.2864 1.98298 14.0722 2.42189 14.4374 3.63679C14.5146 3.46474 14.6024 3.28566 14.7499 3.28566C14.7748 3.14658 14.7878 3.00561 14.7885 2.86431C14.7885 1.4598 13.8053 0.620605 12.773 0.620605C11.8355 0.620605 10.8594 1.55461 10.8594 2.72737C10.8593 2.89961 10.877 3.07139 10.912 3.24002L10.9366 3.25055Z" fill="#3F3F3F"/>
<path d="M16.0494 23.2048C16.0494 24.1634 15.9932 25.1114 15.9932 26.07C15.9932 26.4633 15.9932 26.7969 15.9932 26.7969V26.8214C15.5431 27.2047 15.009 27.4766 14.4342 27.615C14.6308 26.8579 14.7113 26.0753 14.673 25.294C13.8803 24.9756 13.0342 24.8112 12.1799 24.8095C11.8792 24.807 11.5791 24.8364 11.2846 24.8973C11.3513 25.4661 11.5444 27.0426 11.5444 27.0426C11.5576 27.2327 11.5398 27.4236 11.4917 27.608C10.9159 27.5202 10.4383 27.3481 10.4383 26.7407C10.4383 26.3299 10.6771 25.9542 10.6771 24.8973C10.6778 24.7518 10.6696 24.6064 10.6525 24.4619C9.90815 25.8313 9.47275 27.622 7.16233 27.622C7.0969 27.6274 7.03113 27.6274 6.9657 27.622C6.49577 27.5131 6.06468 27.2775 5.7192 26.9408C5.54607 26.6454 5.45176 26.3105 5.44531 25.9682C5.44531 25.2975 6.80067 17.8326 8.98117 15.9014C9.68343 16.0629 9.31123 16.2525 10.0767 16.2525C10.6193 16.2784 11.1581 16.3584 11.6849 16.4913C12.0079 16.5299 11.569 16.1717 12.5732 16.4913C13.5774 16.8108 13.0121 16.9407 14.0585 16.9758C15.1048 17.0109 15.3085 17.1408 15.8141 16.9758L15.9967 16.9196C16.0568 17.1351 16.0933 17.3564 16.1055 17.5798C15.8449 18.1361 15.7186 18.7459 15.7369 19.36C15.7369 19.7111 15.7544 20.0622 15.7544 20.4134V20.4766C15.9818 21.3674 16.0812 22.286 16.0494 23.2048Z" fill="#3F3F3F"/>
<path d="M7.17587 27.6161C6.62365 27.5608 6.10875 27.3121 5.7222 26.9138L5.66602 26.812V26.8822C5.66602 27.5845 5.76785 28.3956 6.85985 28.3956C7.24104 28.3604 7.60873 28.2367 7.93365 28.0344C8.25858 27.832 8.53173 27.5565 8.73136 27.2299C8.25744 27.4972 7.71979 27.6307 7.17587 27.6161Z" fill="#FCCD97"/>
<path d="M14.6868 25.2948C13.8934 24.9747 13.0458 24.8101 12.1903 24.8102C11.8896 24.8077 11.5894 24.8372 11.2949 24.898C11.3651 25.4668 11.5548 27.0434 11.5548 27.0434C11.5969 27.3278 11.467 27.5069 11.4213 27.9107C11.3687 28.3917 12.4923 28.4444 12.8258 28.4865C13.6931 28.5848 13.9916 28.5286 14.2655 28.0757C14.5393 27.6227 14.6763 26.6677 14.6868 25.2948Z" fill="#FCCD97"/>
<path d="M14.1189 29.4767L14.0592 29.8488C13.4288 29.5564 12.7508 29.3803 12.0578 29.3292C11.6204 29.3193 11.1829 29.3381 10.748 29.3854C10.7832 29.2625 10.8393 29.0974 10.8815 28.9851C11.0818 28.913 11.2937 28.8785 11.5065 28.8832C11.8481 28.8838 12.1889 28.9156 12.5248 28.9781L12.8759 29.0518L13.1427 29.1185C13.4778 29.2095 13.8044 29.3293 14.1189 29.4767Z" fill="#2C62FF"/>
<path d="M11.838 36.4248L11.8029 36.6495C11.6811 36.5495 11.5312 36.4897 11.374 36.4783C11.2168 36.467 11.06 36.5047 10.9251 36.5863C10.6971 36.7445 10.5026 36.9461 10.3527 37.1797C10.2875 37.2929 10.1929 37.3863 10.0789 37.4501C10.0509 37.4656 10.0195 37.474 9.98756 37.4747C9.95841 37.4737 9.93025 37.4639 9.9068 37.4466C9.812 37.3834 9.82253 37.2499 9.83658 37.0638C9.85062 36.8777 9.86467 36.7127 9.79444 36.653C9.79444 36.6249 9.74879 36.6319 9.7207 36.653L9.85764 36.4423C10.0859 36.5266 10.0648 36.8426 10.0472 37.0709C10.0472 37.1165 10.0472 37.1762 10.0472 37.2218C10.1026 37.1734 10.15 37.1165 10.1877 37.0533C10.3529 36.8 10.5651 36.5807 10.8127 36.4072C10.9661 36.3081 11.1454 36.2568 11.328 36.2599C11.5106 36.263 11.6881 36.3204 11.838 36.4248Z" fill="#2C62FF"/>
<path d="M13.6177 38.3076C13.3158 38.6587 12.8558 38.88 12.0201 38.88C11.5182 38.8888 11.0188 38.808 10.5454 38.6412C10.1799 38.5644 9.80886 38.5174 9.43581 38.5007C9.37268 38.3199 9.33831 38.1304 9.33398 37.9389C9.34976 37.5163 9.4627 37.103 9.66405 36.7311C9.67797 36.7082 9.69446 36.687 9.7132 36.6678C9.74129 36.6398 9.76939 36.6327 9.78694 36.6678C9.85717 36.7135 9.83961 36.9417 9.82908 37.0787C9.81854 37.2156 9.8045 37.3982 9.8993 37.4614C9.92275 37.4787 9.95092 37.4885 9.98006 37.4895C10.012 37.4888 10.0434 37.4804 10.0714 37.4649C10.1854 37.4012 10.28 37.3077 10.3452 37.1945C10.4951 36.961 10.6896 36.7593 10.9176 36.6011C11.0525 36.5196 11.2093 36.4819 11.3665 36.4932C11.5237 36.5045 11.6736 36.5643 11.7954 36.6643C11.9084 36.7359 12.0142 36.8182 12.1114 36.9101L12.1746 36.9733L12.2308 37.012C12.3221 37.0681 12.3888 37.0471 12.4941 37.0857C13.8951 37.6159 13.544 37.795 13.6177 38.3076Z" fill="#3F3F3F"/>
<path d="M14.0588 29.8586V29.9394C13.7372 31.8593 13.0583 33.7018 12.0574 35.3713C12.0127 35.4357 11.986 35.5109 11.9802 35.589C11.974 35.7067 11.9611 35.824 11.9415 35.9402C11.9303 36.0323 11.9139 36.1237 11.8924 36.214C11.8748 36.2843 11.8643 36.351 11.8538 36.4142C11.7011 36.3102 11.5206 36.2545 11.3358 36.2545C11.1511 36.2545 10.9706 36.3102 10.8179 36.4142C10.5703 36.5877 10.3581 36.807 10.1929 37.0603C10.1552 37.1235 10.1078 37.1803 10.0525 37.2288C10.0525 37.1832 10.0525 37.1235 10.0525 37.0778C10.07 36.8496 10.0911 36.5336 9.86286 36.4493C9.85166 36.3902 9.84462 36.3303 9.8418 36.2702C9.8418 35.9437 10.1929 35.3432 10.5089 34.8201C10.5859 34.3481 10.6363 33.8721 10.6599 33.3945C10.6599 32.9275 10.5265 31.5335 10.5265 30.8769C10.5316 30.3749 10.6073 29.8761 10.7512 29.3951C11.1861 29.3479 11.6236 29.3291 12.0609 29.339C12.7528 29.3905 13.4296 29.5665 14.0588 29.8586Z" fill="#3F3F3F"/>
<path d="M9.45612 9.26873C9.45612 9.59879 9.53688 9.93587 9.53688 10.28C9.5369 10.7092 9.40581 11.1282 9.16117 11.4808C9.03126 11.6248 8.78898 11.5651 8.60288 11.6459L8.40625 11.4668L8.43083 11.372C8.56074 11.0911 9.24896 11.07 9.24544 10.4345C9.24544 10.0517 9.10851 9.68657 9.10851 9.29331C9.10851 8.03978 10.7061 7.27783 10.8641 7.27783C11.0222 7.27783 11.2153 7.41828 11.2153 7.49553C11.2188 7.49553 9.45612 8.13107 9.45612 9.26873Z" fill="#3F3F3F"/>
<path d="M17.2376 10.0731L16.9497 10.333C16.437 9.01975 17.192 7.43265 14.6814 7.43265C14.5796 7.43265 14.4883 7.39052 14.4883 7.29571C14.4908 7.24252 14.5131 7.19219 14.5508 7.15454C14.5884 7.11689 14.6387 7.09461 14.6919 7.09206C15.177 7.05911 15.6637 7.12726 16.121 7.2922C17.0831 7.74515 16.9743 8.86174 17.1288 9.78872C17.1511 9.88829 17.1877 9.9841 17.2376 10.0731Z" fill="#3F3F3F"/>
</svg>
