<svg width="37" height="49" viewBox="0 0 37 49" fill="none" xmlns="http://www.w3.org/2000/svg">
<path d="M30.5097 5.72032C30.6515 5.39634 31.0071 5.00672 30.729 4.65559C30.3556 4.79845 30.1944 4.96842 29.8792 5.50404C29.6004 6.01832 29.4249 6.58219 29.3627 7.16386C28.7957 7.8365 28.2703 8.52144 27.6536 8.86329C26.6981 9.39288 25.9568 9.66954 25.2804 10.6526C25.0888 10.7296 23.7107 10.8677 23.5043 10.86C23.4978 11.4119 24.3091 12.8804 24.3091 12.8804C25.0291 12.9898 25.5554 12.8401 26.2741 12.7217C27.6013 11.7957 29.9052 9.01103 30.0744 8.72356C30.094 8.69027 30.1136 8.65699 30.1332 8.6237C30.8807 8.28135 31.8926 8.0295 32.4982 7.00064C32.5615 6.82718 32.5656 6.63762 32.5099 6.46157C32.5676 6.38742 32.6212 6.31017 32.6705 6.23017C32.7382 6.11518 32.658 5.81536 32.5206 5.5919C32.6733 5.39781 32.7432 5.15133 32.7152 4.90599C32.6871 4.66065 32.5635 4.43626 32.371 4.28157C31.9007 4.6813 31.4832 5.13935 31.1287 5.64463C30.92 5.64277 30.7119 5.66821 30.5097 5.72032Z" fill="#FCCD97"/>
<path d="M5.54958 41.3495C4.35399 40.9331 2.20537 39.164 1.81132 38.6432C1.68288 38.4869 1.57107 38.3177 1.47772 38.1383C1.52942 38.0727 1.38915 37.9455 1.44795 37.901C2.17319 37.3523 2.58819 37.8485 3.53809 38.1205C4.15261 38.2984 4.69553 37.9801 5.2013 38.183C5.56901 38.7854 5.53452 39.1374 5.83324 39.5322C5.98906 39.6522 6.2864 39.5481 6.47917 39.587C6.92072 39.3769 6.93484 39.6921 7.12498 39.6419C6.7958 40.3533 6.27896 40.9518 5.54958 41.3495Z" fill="#3F3F3F"/>
<path d="M7.08426 39.1398C6.91555 39.3193 6.71162 39.4621 6.48524 39.5591C5.99859 39.8165 5.71942 38.9426 5.66161 38.6617C5.58569 38.4176 5.46101 38.1915 5.29514 37.997L5.61927 37.8072C5.94613 37.6195 6.33028 36.9912 6.66739 36.5053C6.83025 36.2711 7.01589 36.0537 7.2216 35.8561C7.63069 34.9174 7.97447 33.9515 8.25048 32.9655C8.33577 32.6916 8.41446 32.4258 8.48214 32.1738C8.51985 32.0374 8.55316 31.9064 8.57379 31.7968C8.70975 31.2752 8.78543 30.9124 8.78543 30.9124L8.96819 30.6854L11.4243 31.414C11.4298 31.7223 11.4011 32.0303 11.3387 32.3323C11.3174 32.4594 11.294 32.5893 11.2634 32.7225C11.1523 33.3032 10.9943 33.874 10.791 34.4292C10.3819 35.4973 8.61582 37.0191 8.17298 37.4739C7.76552 37.9639 7.40184 38.4887 7.08619 39.0422L7.08426 39.1398Z" fill="#3F3F3F"/>
<path d="M11.2826 32.7176C10.7457 32.7893 10.2011 32.7808 9.66666 32.6923C9.24611 32.5988 8.84798 32.4237 8.49476 32.1771C8.53247 32.0406 8.56576 31.9097 8.58639 31.8001C8.78342 32.0204 9.02735 32.1937 9.30022 32.3073C9.5731 32.4209 9.86796 32.4718 10.1631 32.4564C10.5629 32.4727 10.963 32.4321 11.3513 32.3356C11.3389 32.4518 11.3154 32.5817 11.2826 32.7176Z" fill="#2C62FF"/>
<path d="M7.01957 39.6302C6.8473 39.725 6.65557 39.7791 6.45912 39.7882C6.26268 39.7973 6.06678 39.7611 5.88649 39.6826C5.50084 39.3721 5.41374 38.4501 4.91077 37.955L5.30278 37.9776C5.46864 38.172 5.59331 38.3982 5.66924 38.6422C5.72044 38.9314 5.9974 39.808 6.49286 39.5397C6.71925 39.4426 6.92318 39.2999 7.09188 39.1204L7.01957 39.6302Z" fill="#2C62FF"/>
<path d="M8.76539 30.876C8.88793 30.267 9.15378 29.6689 9.53776 29.1384C9.75846 28.8642 10.0147 28.6243 10.2327 28.3536C10.6932 27.7816 12.5419 26.2243 13.0014 26.5942C13.5484 27.0346 14.3025 30.1853 14.3245 30.2532C13.6968 30.5888 12.6126 30.4815 11.963 30.6557C11.9086 30.6732 11.3908 31.3167 11.3538 31.3659C10.8906 31.9412 12.4174 31.2391 9.52773 31.0938C9.2577 31.0905 9.00463 31.0221 8.78728 30.8937" fill="#FCCD97"/>
<path d="M15.4175 17.9812C14.7556 18.1232 14.0941 17.1904 13.8846 16.8756C12.5781 17.5694 11.0485 21.3921 8.24757 23.4663C7.14365 24.2827 7.12026 25.6213 7.24197 25.9015C7.28534 26.0013 7.3398 26.0121 7.41709 25.9785C7.47572 25.948 7.52455 25.9016 7.55798 25.8446C7.71485 26.0559 8.11094 26.439 8.26231 26.3732C8.27405 26.3686 8.28471 26.3617 8.29363 26.3528C8.30256 26.3439 8.30955 26.3333 8.31417 26.3216C8.31879 26.3099 8.32094 26.2973 8.32048 26.2848C8.32002 26.2722 8.31695 26.2598 8.31149 26.2485L8.2919 26.2034C8.23953 26.0799 8.2037 25.95 8.18534 25.8171C8.81205 24.8098 8.80847 25.489 9.56647 23.7088C10.7171 22.9295 13.7968 21.7472 15.4175 17.9812Z" fill="#FCCD97"/>
<path d="M17.4214 28.8856L14.0273 30.5494L12.2179 26.7401L12.0679 26.8049L12.0953 26.482L16.1627 24.55L17.4214 28.8856Z" fill="#3F3F3F"/>
<path d="M16.7305 36.634C14.8791 35.8262 14.5287 36.1217 14.1113 35.4357C13.694 34.7496 13.9878 30.1758 14.567 30.0643C15.2566 29.9315 18.0764 31.019 18.141 31.0388C17.9481 32.3024 17.6382 33.2511 17.3316 33.7572C17.3202 33.7088 17.3081 33.801 17.3316 33.7572C17.4445 34.3433 19.9154 33.9764 16.7305 36.634Z" fill="#FCCD97"/>
<path d="M20.2567 29.4071L18.466 32.0826L13.6041 30.7854C13.3945 30.5786 13.9913 29.132 13.9717 28.8381C13.9717 28.8381 14.2653 28.0777 14.4934 27.4759C14.494 27.5777 14.4926 27.353 14.4934 27.4759C14.4934 27.4759 15.1927 26.2963 15.1895 25.7837C15.1909 26.0084 15.1887 25.6538 15.1895 25.7837C15.1835 24.79 16.0812 23.5651 16.3185 22.7455C17.0589 22.6637 16.495 22.8954 17.2039 22.8279C17.9128 22.7604 17.336 22.6059 18.1641 22.5201C18.4869 22.5021 18.8074 22.4555 19.1219 22.3808L20.1155 22.3747L20.588 22.1155C20.5941 22.1351 20.6025 22.1539 20.6129 22.1715C20.8758 22.6791 21.9042 24.3231 21.9123 25.6539C21.9194 26.8231 20.2567 29.4071 20.2567 29.4071Z" fill="#3F3F3F"/>
<path d="M19.062 24.5947C19.062 24.5947 18.8191 24.4204 18.7461 24.6776C18.5821 25.3834 18.2987 26.0559 17.9082 26.6662C17.3317 27.5052 16.9935 27.9914 16.9147 28.4944C16.8761 28.7724 16.7923 29.0422 16.6665 29.2931C16.6609 29.3242 16.6617 29.3561 16.6689 29.3869C16.6761 29.4176 16.6895 29.4466 16.7083 29.472C16.727 29.4974 16.7508 29.5187 16.7781 29.5345C16.8054 29.5504 16.8357 29.5605 16.867 29.5643C17.1144 29.6193 17.2119 29.7355 17.2699 29.1333C17.3279 28.5311 17.2965 28.4315 17.8395 27.8267C18.2709 27.2518 18.6244 26.6225 18.8909 25.9551C19.052 25.5546 19.1918 25.1459 19.3098 24.7306L19.062 24.5947Z" fill="#2C62FF"/>
<path d="M25.8338 37.0812C26.7667 37.6142 28.3551 39.4198 28.5229 39.8952C28.5825 40.0396 28.6223 40.1912 28.6416 40.3476C28.5709 40.3898 28.6518 40.5136 28.5823 40.5381C27.7247 40.8408 27.5289 40.3811 26.7664 40.0035C26.2738 39.7578 24.7234 39.1417 24.3386 38.8952C24.2244 38.3607 25.6263 38.4401 25.4991 38.0798C25.4015 37.959 25.2671 37.8629 25.1064 37.7991C24.9458 37.7352 24.763 37.7052 24.5723 37.7114C25.1299 37.2128 25.0275 37.2652 25.8338 37.0812Z" fill="#3F3F3F"/>
<path d="M17.9459 34.1826C17.894 34.7952 16.9057 36.2208 16.439 36.6096C16.7072 37.283 22.2236 38.7262 24.3768 38.9088L26.0616 38.213L25.8253 37.1647C26.1771 36.8518 24.8564 37.0825 24.8564 37.0825C22.8319 37.9391 20.573 33.8911 17.9459 34.1826Z" fill="#3F3F3F"/>
<path d="M18.8103 34.457C18.7617 34.9965 18.6331 35.5258 18.4287 36.0275C18.2446 36.417 17.9859 36.7666 17.6673 37.0566C17.5426 36.9897 17.4222 36.9283 17.3198 36.884C17.5782 36.7405 17.8012 36.5408 17.9722 36.2998C18.1433 36.0588 18.2581 35.7825 18.3083 35.4912C18.4125 35.1049 18.4613 34.7057 18.4529 34.3057C18.5635 34.3435 18.685 34.395 18.8103 34.457Z" fill="#2C62FF"/>
<path d="M25.8066 37.1352C25.9231 37.2887 26.0042 37.4601 26.0437 37.6364C26.0831 37.8126 26.0798 37.989 26.034 38.1519C25.8016 38.5023 24.9453 38.5929 24.5572 39.0511L24.5169 38.6988C24.6744 38.5473 24.8681 38.4323 25.0865 38.3609C25.3513 38.3111 26.1349 38.0507 25.8039 37.6094C25.6768 37.4074 25.5101 37.2262 25.3143 37.0771L25.8066 37.1352Z" fill="#2C62FF"/>
<path d="M20.0408 9.89746L20.0181 9.87439C19.537 9.48118 18.9643 9.83433 18.6202 8.69863C18.5603 8.59237 18.4737 8.50355 18.369 8.44091C18.2644 8.37827 18.1452 8.34398 18.0232 8.34141C17.4809 8.29541 17.4777 8.70743 17.3538 9.25369C17.3188 9.25072 17.141 9.43649 17.0839 9.36118C16.8875 9.10136 17.1554 8.10391 16.3854 8.16546C16.3517 8.06371 16.6048 8.10233 16.5906 7.99607C16.6069 7.82691 16.5847 7.5089 16.6454 7.35017C16.3962 7.2231 15.9838 6.9438 15.7041 6.94496C15.6764 7.05919 15.655 6.91329 15.6466 7.03052C15.6234 7.30341 15.7539 8.18413 15.7311 8.45353C15.764 8.06518 15.691 8.92586 15.7311 8.45353C15.7061 8.74743 15.5776 9.26158 15.5682 9.49688C15.5628 9.55986 15.4764 9.91901 15.6058 9.92999C15.7484 9.94735 15.7756 9.98467 15.9164 9.95634C15.9122 10.0053 15.9084 10.0508 15.9045 10.0963C15.8808 10.3762 15.9686 10.3378 16.0953 10.4226C16.0728 10.4806 16.0141 10.5073 16.01 10.5563C16.0058 10.6053 16.1485 10.7513 16.1556 10.8752C16.1627 10.9992 16.2393 11.425 16.4597 11.4437C16.5997 11.4556 17.0488 11.4373 17.1887 11.4492C17.9129 11.5106 17.8309 12.5608 18.2927 12.6C18.6881 12.6335 18.8679 12.092 19.4314 11.6394C19.8139 11.3377 20.2282 11.0786 20.6669 10.8668C20.405 10.5813 20.1934 10.2535 20.0408 9.89746Z" fill="#FCCD97"/>
<path d="M18.8723 11.7681C18.1263 11.9851 17.5804 11.6585 17.5804 11.6585C17.5804 11.6585 15.7266 12.2028 14.8629 13.0161C14.1315 13.9682 13.2116 17.1431 13.2116 17.1431C13.2116 17.1431 14.4761 17.5757 15.3546 18.7237C15.6693 18.4213 15.768 17.6853 15.768 17.6853L16.1209 23.0825C16.1209 23.0825 16.6215 22.9623 17.2674 23.0171C17.9133 23.0719 18.2089 23.4223 18.5319 23.4497C18.8548 23.4771 19.4743 23.8858 20.1193 23.9097C20.6409 23.929 21.4386 23.6963 21.4386 23.6963C21.4386 23.6963 22.4176 19.5506 22.1369 19.299C21.8562 19.0475 22.711 16.0929 22.711 16.0929L22.914 13.6991C22.914 13.6991 24.494 13.7656 24.9426 13.0676C24.0946 11.5605 23.9691 10.574 23.9691 10.574L20.9197 10.6406C20.9197 10.6406 19.7368 11.5165 18.8723 11.7681Z" fill="#2C62FF"/>
<path d="M15.6273 6.28481L17.1053 5.76313C17.6672 5.61724 18.4662 5.72584 19.3653 5.95505C20.0388 6.12674 20.4864 6.64167 20.4661 8.32508C20.4622 8.73423 19.8955 9.7857 19.7898 10.749L19.7715 10.7222C19.3683 10.2499 18.7489 10.5132 18.6057 9.31648C18.5652 9.20008 18.4958 9.09694 18.4042 9.01721C18.3126 8.93749 18.202 8.88394 18.0833 8.86184C17.5613 8.72877 17.4881 9.14243 17.2743 9.67172C17.2406 9.66314 17.0353 9.8214 16.9924 9.73656C16.8446 9.44394 17.0728 8.54882 16.3102 8.48744C16.2945 8.37975 16.2887 8.27065 16.2929 8.16156C16.3375 7.99411 16.4038 7.83329 16.4901 7.68345C16.2683 7.51583 16.0099 7.40561 15.7364 7.36199C15.6123 7.21736 15.5353 7.03631 15.5157 6.84354C15.4962 6.65077 15.5352 6.45566 15.6273 6.28481C15.6507 6.23534 15.5951 6.36897 15.6273 6.28481Z" fill="#3F3F3F"/>
</svg>
