<svg width="40" height="22" viewBox="0 0 40 22" fill="none" xmlns="http://www.w3.org/2000/svg">
<path d="M10.5369 9.19866C10.5369 9.27395 10.5369 9.35676 10.5369 9.44711C10.5369 10.9829 8.25569 11.1523 6.9043 10.4221C6.94194 10.1209 7.17533 10.0456 7.17533 9.36429C7.16886 9.13239 7.12304 8.90327 7.03981 8.68672C7.17021 8.53706 7.24471 8.34684 7.25061 8.14843C7.21404 7.82179 7.15873 7.49752 7.08498 7.17723C7.0864 7.10868 7.10158 7.04112 7.12961 6.97855C7.15764 6.91597 7.19795 6.85967 7.24816 6.81297C7.29837 6.76628 7.35744 6.73014 7.42188 6.70671C7.48632 6.68328 7.5548 6.67303 7.62328 6.67658C7.82239 6.702 8.01301 6.77283 8.1804 6.88361C8.27827 6.83844 8.38367 6.7895 8.47401 6.75563C8.41398 6.6028 8.37841 6.44147 8.36861 6.27756C8.42188 6.04057 8.50274 5.81063 8.60953 5.59245C8.42821 5.29133 8.31274 4.9552 8.27074 4.60621C8.27074 4.36529 8.30462 4.29001 8.92949 4.29001C9.38874 4.29001 9.73129 4.38035 9.79529 3.91357C10.0864 4.0816 10.3273 4.32452 10.4928 4.61712C10.6583 4.90971 10.7424 5.24129 10.7364 5.57739C10.7364 5.61504 10.7364 5.75055 10.6987 5.93124C11.0262 6.28509 11.5758 6.55988 11.5758 7.02289C11.5758 7.10194 11.3612 7.20735 11.1241 7.31275C11.1918 7.71929 11.2257 7.85104 11.2257 7.85104C11.2257 7.96397 11.1429 8.22748 11.1429 8.26889C11.1429 8.40064 11.2747 8.50227 11.2747 8.64532C11.2747 8.78836 10.9547 9.05185 10.5369 9.19866Z" fill="#FCCD97"/>
<path d="M5.25682 5.58508V5.52861C5.25682 4.60259 6.61197 3.27002 7.76009 3.27002C8.32473 3.27002 9.43521 3.46577 9.80788 3.93631C9.74012 4.38426 9.39756 4.29391 8.94208 4.29391C8.31721 4.29391 8.28333 4.36921 8.28333 4.61013C8.32533 4.95912 8.44079 5.29524 8.62212 5.59637C8.51533 5.81455 8.43447 6.04448 8.3812 6.28147C8.39099 6.44537 8.42656 6.60672 8.4866 6.75955C8.39626 6.79342 8.29086 6.84236 8.19299 6.88753C8.0256 6.77675 7.83498 6.70591 7.63586 6.6805C7.56739 6.67695 7.4989 6.6872 7.43447 6.71063C7.37003 6.73406 7.31096 6.77019 7.26075 6.81688C7.21054 6.86358 7.17023 6.91988 7.1422 6.98245C7.11417 7.04503 7.09899 7.1126 7.09757 7.18115C7.17132 7.50144 7.22662 7.8257 7.2632 8.15233C7.2573 8.35074 7.1828 8.54098 7.0524 8.69064C7.0524 8.71699 7.07122 8.73957 7.07875 8.76592C6.15649 8.09964 5.23047 7.03811 5.23047 5.97281C5.23047 5.81847 5.25682 5.826 5.25682 5.58508Z" fill="#3F3F3F"/>
<path d="M20.3103 1.50874C20.335 1.58949 20.3502 1.67289 20.3554 1.75719C20.3554 2.00187 20.1258 1.82872 20.1258 1.96047C20.1258 1.97929 20.1258 2.00564 20.1258 2.0207C20.1258 2.03575 19.9752 2.09598 19.9225 2.09598C19.6779 2.09598 19.4859 1.84377 18.8648 1.84377C18.7983 1.839 18.7317 1.839 18.6653 1.84377C18.5839 1.9596 18.5193 2.08633 18.4733 2.2202C18.4712 2.244 18.4712 2.26793 18.4733 2.29173C18.5883 2.22428 18.7169 2.18314 18.8497 2.17127C19.0424 2.18556 19.2232 2.26992 19.3579 2.40842C19.2622 2.66043 19.0879 2.8749 18.8608 3.02001C18.6336 3.16512 18.3657 3.23314 18.0968 3.21398C17.9599 3.21433 17.8247 3.18343 17.7016 3.12364C16.2147 4.07977 16.5723 5.38223 14.6901 5.83018C14.6563 4.90416 14.197 4.26799 13.2748 4.12871L13.1543 4.17012C13.4065 3.38337 14.2836 3.41725 16.2674 2.28796C17.1407 1.79107 17.2499 1.72708 17.3628 1.71579C17.4903 1.45226 17.6607 1.21181 17.8672 1.00433C18.0235 0.790035 18.2241 0.611884 18.4553 0.481978C18.6865 0.352073 18.943 0.273457 19.2073 0.251465C19.4783 0.251465 19.7419 0.251464 20.4533 1.20384C20.4307 1.47863 20.3103 1.50874 20.3103 1.50874Z" fill="#FCCD97"/>
<path d="M3.25483 16.1558C2.85285 16.6246 2.48311 17.1201 2.14812 17.6389C1.98626 17.8422 1.77169 17.7706 1.39526 18.3616C1.16025 18.6923 0.958508 19.0453 0.792969 19.4156C0.792969 19.4909 0.792969 19.5625 0.792969 19.6378C0.792969 20.688 1.40655 20.3906 1.95238 20.5148C2.17824 20.5562 2.3928 20.5148 2.62243 20.5675C2.85205 20.6202 3.11555 20.7595 3.37529 20.7934C3.63503 20.8273 4.81702 20.8235 5.49836 21.3919C5.84468 21.5086 5.80703 21.3166 6.00278 21.3166C6.09697 21.3316 6.19004 21.353 6.28134 21.3806C6.36039 21.3806 6.43568 21.2376 6.43568 21.1548C6.71047 21.1548 6.74811 21.294 6.92503 21.294H7.07937C7.11967 21.231 7.17539 21.1792 7.24125 21.1436C7.30712 21.1081 7.38095 21.0899 7.4558 21.0908C7.56497 21.0908 8.1108 21.151 8.1108 20.7143C8.1108 20.3379 7.73436 20.5374 7.53862 20.2137C7.43675 20.02 7.31022 19.8403 7.16219 19.6792C6.99401 19.6419 6.82248 19.6217 6.65024 19.6189C6.31145 19.6189 6.41685 19.713 6.08183 19.713H5.83715C5.46072 19.713 5.40425 19.8674 5.15581 19.9577L4.91489 20.0368C4.59445 19.8048 4.29809 19.5412 4.03028 19.25C4.3766 18.8359 4.91865 18.2864 5.20851 17.9664C5.23231 17.9395 5.2445 17.9043 5.24239 17.8685C5.24239 17.4921 4.63633 16.8333 4.20344 16.5209C3.92488 16.2762 3.55221 16.3327 3.25483 16.1558Z" fill="#FCCD97"/>
<path d="M39.6263 20.5104C39.6283 20.5841 39.6194 20.6576 39.5999 20.7287C39.3853 20.8653 39.1296 20.9225 38.8772 20.8906C38.5008 20.8906 38.3088 20.8567 37.6651 20.469C37.2075 20.5469 36.744 20.5847 36.2798 20.5819C36.0685 20.5832 35.8574 20.5719 35.6474 20.548C35.4695 20.1868 35.3719 19.7912 35.3613 19.3886C35.3755 19.0247 35.4707 18.6685 35.6399 18.3459C36.1471 18.2411 36.662 18.1782 37.1795 18.1577C37.3 18.1577 37.4204 18.1577 37.5559 18.1577C38.0012 17.9182 38.4856 17.7601 38.9864 17.6909H39.0541C39.3139 17.6909 39.5209 18.297 39.5209 18.5718C39.5209 18.7713 39.4682 18.967 39.4682 19.3246C39.4531 19.9495 39.6263 20.1678 39.6263 20.5104Z" fill="#3F3F3F"/>
<path d="M14.6672 5.96898C14.664 6.15451 14.6464 6.33952 14.6145 6.52233C14.3772 6.58136 14.1615 6.70637 13.9923 6.88291C13.8231 7.05944 13.7073 7.28028 13.6584 7.51987C13.6283 7.62904 13.6019 7.74197 13.5793 7.8549C13.1498 7.55776 12.6504 7.37744 12.1301 7.33166C11.7991 7.32585 11.4719 7.40215 11.1777 7.55375C11.1777 7.48975 11.1514 7.41448 11.1363 7.3279C11.3735 7.2225 11.588 7.11709 11.588 7.04181C11.588 6.57503 11.0384 6.28894 10.7109 5.94639C10.7335 5.7657 10.7486 5.63019 10.7486 5.59254C10.7486 5.5549 10.7486 5.48338 10.7486 5.43068C11.538 4.91973 12.3797 4.49447 13.2594 4.16211C14.2117 4.30892 14.6672 4.98649 14.6672 5.96898Z" fill="#2C62FF"/>
<path d="M34.9693 19.6255C34.9965 19.9255 35.089 20.2159 35.2404 20.4763C35.1237 20.4499 35.0183 20.4198 34.9129 20.3859C33.2302 20.4913 30.2413 20.7435 29.368 20.7435C27.9173 20.7147 26.4706 20.5813 25.0391 20.3445C25.0391 20.3144 25.0391 20.2843 25.0391 20.2579C25.0391 20.0283 25.0391 19.8401 25.0391 19.7912C25.0391 18.692 25.3477 17.702 26.1269 17.2051C26.4278 17.3675 26.7683 17.4419 27.1094 17.4196C31.7245 17.4196 31.8939 18.0633 32.5075 18.1725C32.786 18.229 33.0533 18.2516 33.3356 18.2967C33.606 18.3721 33.8815 18.4275 34.16 18.4623C34.3444 18.4623 34.5364 18.4624 34.766 18.485C34.9957 18.5075 35.1124 18.4322 35.2818 18.4021C35.0874 18.7814 34.9807 19.1995 34.9693 19.6255Z" fill="#3F3F3F"/>
<path d="M24.6024 20.2629L24.034 20.1349C23.8421 20.0856 23.6448 20.0603 23.4467 20.0596C23.3376 20.0596 23.2134 20.0596 23.0703 20.0822C23.5871 19.9748 24.1248 20.0382 24.6024 20.2629Z" fill="#3F3F3F"/>
<path d="M30.7785 12.9104C30.7785 13.2868 30.3268 13.7423 29.717 14.1375C29.3755 14.2736 29.0147 14.3549 28.6479 14.3784H28.4785C28.4522 14.3784 28.0042 14.4048 27.4998 14.4086C26.6528 14.7361 25.8623 15.1313 25.3654 15.3271C25.4651 15.4717 25.5508 15.6254 25.6214 15.7863C25.8065 16.2129 25.9489 16.6567 26.0468 17.1113L25.5762 16.9156L24.4469 16.701C23.9877 16.3811 23.9425 16.159 23.1256 15.8691C22.3932 16.7795 21.9326 17.8781 21.7968 19.0387C21.8009 19.4016 21.8817 19.7595 22.034 20.0889C21.9055 20.0408 21.768 20.0216 21.6312 20.0325C21.5747 20.0325 21.4618 20.0325 21.2962 20.0325C20.6945 20.0129 20.1061 19.8503 19.5797 19.5581C18.8268 19.5581 18.7892 19.6221 18.2509 19.6221C16.5833 19.6221 16.779 19.0951 15.8756 19.0951C15.5972 19.1095 15.3183 19.1095 15.0399 19.0951C14.9749 19.0856 14.9128 19.0617 14.8581 19.0253C14.8034 18.9888 14.7575 18.9407 14.7237 18.8843C14.1553 18.8128 13.5944 18.7149 13.0222 18.6547C12.7575 18.4674 12.4671 18.3191 12.1602 18.2143C9.95432 17.5706 11.7348 18.0675 9.46496 17.0474C9.36958 16.9621 9.26901 16.8829 9.16382 16.8102C9.42275 16.6475 9.64023 16.4267 9.79901 16.1654C9.95778 15.904 10.0535 15.6093 10.0785 15.3045C10.0785 14.7963 9.19016 13.7046 9.19016 12.7523C9.19016 11.1185 9.90162 11.3482 8.76479 11.3482C8.73629 11.4907 8.72242 11.6357 8.72339 11.7811C8.73214 13.0421 9.07086 14.2789 9.70587 15.3685C9.64749 15.6236 9.53581 15.8635 9.37816 16.0724C9.22051 16.2813 9.02046 16.4544 8.79115 16.5806C8.62175 16.4902 8.4373 16.4037 8.24155 16.3171C6.87511 16.5806 6.22388 17.9922 5.38444 18.1992L5.3468 18.2406C5.24179 18.2275 5.13914 18.1996 5.04189 18.1578L5.22634 17.9583C5.23831 17.9451 5.24748 17.9297 5.2533 17.9128C5.25913 17.896 5.26148 17.8782 5.26022 17.8604C5.26022 17.484 4.65417 16.829 4.22127 16.5166C3.92389 16.302 3.55122 16.3585 3.25384 16.1815C3.19737 16.238 3.14091 16.3058 3.08068 16.3735C3.0293 16.32 2.98269 16.2621 2.94141 16.2004C4.17987 14.2505 4.14222 14.1451 4.76709 13.4524C5.58019 12.5565 5.38821 10.7685 7.18755 9.36438V9.38696C7.18755 10.0721 6.95416 10.1398 6.91652 10.4485C8.26791 11.175 10.5491 11.0056 10.5491 9.46978C10.5491 9.37944 10.5491 9.3004 10.5491 9.22134C10.9594 9.07454 11.3019 8.89761 11.3019 8.6981C11.3019 8.49859 11.1702 8.43836 11.1702 8.32167C11.1702 8.2765 11.2267 8.09581 11.2455 7.96782C11.5276 7.81806 11.845 7.7478 12.164 7.76455C12.6872 7.7873 13.1944 7.9512 13.6321 8.23885C14.1885 9.00533 14.6463 9.83877 14.9947 10.7195C15.6344 11.0248 16.3155 11.234 17.0162 11.3406C17.7025 10.8702 18.425 10.4548 19.1769 10.0984C20.1481 9.11217 22.0152 7.35425 23.5924 6.48092C23.6756 6.52567 23.755 6.57728 23.8296 6.63525L23.8635 6.66914C24.5995 7.34715 25.2335 8.12819 25.7456 8.98795C25.7558 9.00344 25.7646 9.01982 25.772 9.03689C25.9694 9.37698 26.1248 9.73974 26.235 10.1172L26.2576 10.2113C26.2571 10.2201 26.2571 10.2289 26.2576 10.2377V10.2678C26.4292 10.1429 26.5719 9.98232 26.6758 9.79717C26.7798 9.61202 26.8426 9.40662 26.8598 9.19499C26.8598 8.26521 26.0355 6.49221 25.0869 6.11954L24.9928 6.0819L25.0567 6.05179C25.702 5.71161 26.4108 5.50909 27.1384 5.45703C27.3946 5.50602 27.6396 5.60172 27.8612 5.73935C28.3242 5.99533 28.2112 6.55997 28.2112 7.0418C28.2349 7.63919 28.1053 8.23268 27.8348 8.76585C27.5826 9.73705 27.0067 10.7045 26.6378 11.51C26.6999 11.7604 26.7989 12.0002 26.9314 12.2215C26.8034 13.3169 26.0242 13.2642 25.5536 13.2642C25.3823 13.2665 25.2115 13.2463 25.0454 13.204C25.2434 13.3424 25.4554 13.4598 25.6778 13.5541C25.7209 13.5713 25.7671 13.579 25.8134 13.5766C26.1798 13.604 26.5423 13.487 26.8237 13.2507C27.105 13.0144 27.2828 12.6775 27.3191 12.3118C27.4434 12.3341 27.5693 12.3466 27.6955 12.3495C28.3279 12.3495 28.4484 11.973 29.3481 11.973C29.5883 11.9602 29.8283 12.0008 30.051 12.0919C30.2736 12.1831 30.4732 12.3225 30.6355 12.5001C30.704 12.6287 30.7522 12.767 30.7785 12.9104Z" fill="#2C62FF"/>
<path d="M30.7801 12.9112C30.7801 13.2876 30.3283 13.7431 29.7185 14.1384C29.3771 14.2745 29.0163 14.3558 28.6495 14.3793H28.4801C28.4537 14.3793 28.0058 14.4057 27.5014 14.4094C26.6544 14.7369 25.8639 15.1322 25.367 15.3279C25.4667 15.4725 25.5524 15.6263 25.623 15.7871L24.5087 15.6516L23.7559 14.5713L23.929 13.7619L24.3506 13.0091L24.8701 13.1258L25.0433 13.1634C25.2413 13.3019 25.4532 13.4192 25.6757 13.5135C25.7187 13.5308 25.7649 13.5385 25.8112 13.5361C26.1776 13.5634 26.5401 13.4465 26.8215 13.2101C27.1028 12.9738 27.2806 12.6369 27.3169 12.2713C27.4412 12.2935 27.5671 12.3061 27.6933 12.3089C28.3257 12.3089 28.4462 11.9325 29.3459 11.9325C29.5861 11.9197 29.8261 11.9603 30.0488 12.0514C30.2714 12.1425 30.471 12.2819 30.6333 12.4595C30.7073 12.6007 30.7569 12.7534 30.7801 12.9112Z" fill="#3F3F3F"/>
<path d="M26.0479 17.1112L24.6061 19.2607L24.0302 20.1227C23.8383 20.0734 23.6411 20.0481 23.443 20.0474C23.3338 20.0474 23.2096 20.0474 23.0665 20.07C22.8847 19.6949 22.7944 19.2821 22.803 18.8654C22.803 17.7361 23.4467 17.322 24.4443 16.7009C23.985 16.3809 23.9399 16.1589 23.123 15.869C22.3919 16.7798 21.9327 17.8784 21.798 19.0385C21.802 19.4014 21.8828 19.7594 22.0351 20.0888C21.9066 20.0407 21.7691 20.0214 21.6323 20.0323C21.5759 20.0323 21.4629 20.0323 21.2973 20.0323C20.6956 20.0128 20.1072 19.8502 19.5808 19.558C18.8279 19.558 18.7903 19.622 18.252 19.622C16.5844 19.622 16.7801 19.095 15.8767 19.095C15.5983 19.1094 15.3194 19.1094 15.041 19.095L15.3384 18.5341C15.4553 18.1655 15.5409 17.7878 15.5944 17.4048C15.7111 16.6858 15.7675 17.002 15.9708 16.1626C16.1741 15.3232 16.1138 15.8201 16.3472 15.1312C16.4779 14.7585 16.565 14.372 16.607 13.9793C16.607 13.9793 16.5204 13.6932 16.8667 13.0307C17.213 12.3682 17.006 12.1085 17.006 12.1085V11.3104C17.6923 10.8399 18.4148 10.4246 19.1667 10.0682C20.1379 9.08194 22.005 7.324 23.5822 6.45068C23.6764 6.51091 23.7667 6.57114 23.8533 6.6389C24.6506 7.25688 25.2946 8.05037 25.7354 8.95772C25.7457 8.97321 25.7545 8.98959 25.7618 9.00666C25.9546 9.38461 26.117 9.77734 26.2474 10.1811C26.2469 10.1899 26.2469 10.1987 26.2474 10.2075V10.2376L25.0164 13.1737L25.3552 15.3307C25.6325 15.9051 25.864 16.5005 26.0479 17.1112Z" fill="#3F3F3F"/>
<path d="M28.2127 6.99368C28.2363 7.59106 28.1067 8.18456 27.8362 8.71773C27.584 9.68892 27.0081 10.6564 26.6392 11.4619C26.7013 11.7123 26.8003 11.952 26.9328 12.1734C26.8048 13.2688 26.0256 13.2161 25.5551 13.2161C25.3838 13.2184 25.2129 13.1981 25.0469 13.1559L26.2402 10.0691L26.3832 9.69269L26.2778 8.53705L25.1071 6.06389L25.077 5.99614C25.7222 5.65595 26.4311 5.45342 27.1587 5.40137C27.4149 5.45036 27.6598 5.54606 27.8814 5.68369C28.3256 5.96225 28.2127 6.5269 28.2127 6.99368Z" fill="#3F3F3F"/>
<path d="M23.7969 6.58259C25.4381 8.13349 26.0818 9.44346 26.2587 10.234C26.4304 10.109 26.5731 9.94847 26.677 9.76332C26.781 9.57817 26.8437 9.37277 26.861 9.16115C26.861 8.11467 25.9124 6.04053 24.8434 6.04053C24.4652 6.14356 24.1143 6.32863 23.8157 6.58259" fill="#FCCD97"/>
<path d="M25.5815 16.9272C24.8287 17.4693 24.6593 18.3689 24.6103 19.2724C24.6103 19.4832 24.6103 19.6977 24.6103 19.9048C24.6103 20.0215 24.6103 20.1419 24.6103 20.2812C24.1349 20.0582 23.6001 19.9948 23.0858 20.1005L22.7093 19.7467L22.6152 17.7252L23.2175 17.0175L23.801 16.8218L24.4597 16.7314L25.5815 16.9272Z" fill="#3F3F3F"/>
<path d="M25.0188 19.792C25.0188 19.8409 25.0188 20.0292 25.0188 20.2588H24.5859C24.5859 20.1383 24.5859 20.0179 24.5859 19.8823C24.5859 19.6753 24.5859 19.4607 24.5859 19.2499C24.6349 18.3465 24.8231 17.4468 25.5571 16.9048L26.0841 17.1833C25.3275 17.7028 25.0188 18.6928 25.0188 19.792Z" fill="#2C62FF"/>
<path d="M24.456 16.7123C23.4585 17.3334 22.8148 17.74 22.8148 18.8768C22.8073 19.2974 22.8989 19.7139 23.082 20.0926C22.8675 20.1115 22.6303 20.134 22.4082 20.134C22.2808 20.142 22.153 20.1254 22.0318 20.0851C21.8734 19.7535 21.7899 19.3911 21.7871 19.0236C21.9293 17.8713 22.3923 16.7822 23.1234 15.8804C23.9516 16.1665 23.9968 16.4036 24.456 16.7123Z" fill="#FCCD97"/>
<path d="M35.6463 20.5444L35.2398 20.4729C35.0884 20.2125 34.9959 19.9221 34.9688 19.6221C34.9759 19.2014 35.0762 18.7874 35.2624 18.41L35.6388 18.3423C35.4696 18.6648 35.3744 19.021 35.3602 19.385C35.3708 19.7876 35.4684 20.1831 35.6463 20.5444Z" fill="#2C62FF"/>
<path d="M27.3049 12.2637C27.2686 12.6293 27.0908 12.9662 26.8095 13.2025C26.5281 13.4388 26.1656 13.5558 25.7992 13.5285C25.7529 13.5309 25.7067 13.5232 25.6637 13.5059C25.4412 13.4116 25.2292 13.2943 25.0312 13.1558C25.1973 13.1981 25.3681 13.2184 25.5394 13.2161C26.01 13.2161 26.7892 13.2688 26.9172 12.1733L27.3049 12.2637Z" fill="#2C62FF"/>
<path d="M13.6167 8.20517C13.1791 7.91752 12.6718 7.75362 12.1486 7.73087C11.8297 7.71412 11.5122 7.78438 11.2301 7.93414V7.86639L11.1699 7.55394C11.4641 7.40235 11.7914 7.32604 12.1223 7.33185C12.6426 7.37764 13.142 7.55796 13.5715 7.8551L13.6167 8.20517Z" fill="#3F3F3F"/>
<path d="M10.0797 15.2935C10.0546 15.5983 9.95891 15.8931 9.80014 16.1544C9.64136 16.4158 9.42388 16.6366 9.16494 16.7992L8.78851 16.5696C9.01783 16.4435 9.21788 16.2703 9.37553 16.0614C9.53317 15.8525 9.64485 15.6126 9.70324 15.3575C9.06822 14.268 8.7295 13.0312 8.72075 11.7701C8.71978 11.6248 8.73365 11.4797 8.76216 11.3372C9.89145 11.3372 9.18753 11.1076 9.18753 12.7413C9.19129 13.6937 10.0797 14.7853 10.0797 15.2935Z" fill="#3F3F3F"/>
</svg>
