<svg width="24" height="42" viewBox="0 0 24 42" fill="none" xmlns="http://www.w3.org/2000/svg">
<path d="M21.3292 23.1869L18.9915 26.1757L17.2073 26.0816H17.0943L16.7179 25.7617L15.7316 24.9373L15.5924 24.015L15.4343 23.8757C15.0578 23.5407 14.0979 22.6712 13.4316 21.9522C13.8815 21.3488 14.2806 20.7092 14.6249 20.0399C14.9225 19.4932 15.1429 18.9079 15.2799 18.3008C16.5377 18.9377 17.9639 19.1629 19.3567 18.9445C19.6065 18.9147 19.858 18.9021 20.1095 18.9068C20.3037 18.9094 20.4974 18.9258 20.6892 18.9558C21.1666 19.0264 21.6293 19.1739 22.0595 19.3924C22.7973 22.0915 21.3292 23.1869 21.3292 23.1869Z" fill="#3F3F3F"/>
<path d="M21.9132 18.9218C21.9659 19.0761 22.0111 19.2267 22.0525 19.3697C21.222 18.9538 20.2853 18.7977 19.3648 18.9218C17.9728 19.1435 16.5464 18.9167 15.2918 18.2743C15.2918 18.2066 15.2918 18.1689 15.2918 18.1689C14.9769 17.3941 14.7411 16.5895 14.5879 15.7673C15.3058 15.8414 16.0311 15.7866 16.7298 15.6054C18.1903 15.2817 20.7576 14.1411 22.444 14.5665C22.212 14.6284 21.9727 14.6588 21.7326 14.6568C21.2507 15.9103 21.9132 18.9218 21.9132 18.9218Z" fill="#2C62FF"/>
<path d="M16.5198 29.3308C16.578 30.2628 16.4342 31.1963 16.0982 32.0675C15.0931 31.9395 14.1219 30.9382 13.6099 30.3321C13.8119 29.881 13.9476 29.403 14.0127 28.913C13.9713 27.8703 14.3063 27.6595 14.3063 27.6595L15.3076 25.111C15.3076 25.111 12.2962 26.6544 11.9197 28.3295C11.8896 28.4575 11.8633 28.578 11.8332 28.6834L10.1543 26.8915C10.3558 26.6158 10.5144 26.3112 10.6248 25.9881C10.7285 25.4291 10.9561 24.9004 11.2911 24.441C12.0677 23.6585 12.7849 22.8192 13.4368 21.9302C14.1031 22.6492 15.063 23.5187 15.4394 23.8537L15.5975 23.993L15.7368 24.9153L17.1032 26.0446L18.9854 26.1462L16.5198 29.3308Z" fill="#FCCD97"/>
<path d="M7.38521 33.1256C7.2911 33.2385 7.24217 33.3063 7.24217 33.3063V33.3702C5.73644 33.4342 5.51431 32.6174 5.60842 31.8946L5.65736 31.9248C5.72264 31.9083 5.78494 31.8816 5.84185 31.8457C5.81927 32.4819 6.10158 33.1444 7.38521 33.1256Z" fill="#2C62FF"/>
<path d="M11.8413 28.6832C11.7924 28.8714 11.7435 29.0295 11.6983 29.1575C11.6531 29.2855 11.6418 29.3081 11.6155 29.3721L11.5515 29.5113C11.3746 29.8464 11.2579 29.7485 11.2579 29.7485C10.3263 30.2632 9.47209 30.907 8.72071 31.6608L8.68685 31.6984C8.22685 32.1472 7.79324 32.6223 7.38818 33.1213C6.10455 33.1401 5.81847 32.4776 5.84105 31.8414C6.20651 31.5902 6.54237 31.2985 6.84233 30.9719L6.86493 30.9493C7.87614 29.8824 8.8167 28.7507 9.68063 27.5614L9.83121 27.3582L10.1625 26.8726L10.2114 26.9253L11.8413 28.6832Z" fill="#3F3F3F"/>
<path d="M7.23712 33.3701L7.15808 35.0603C2.87931 34.7893 0.702244 34.3012 0.626958 33.596C0.626606 33.508 0.646054 33.421 0.683845 33.3415C0.721637 33.262 0.776834 33.192 0.845317 33.1368L3.05874 33.0953C3.48331 32.6086 4.03249 32.2469 4.64726 32.0489C4.95694 31.9519 5.27896 31.8999 5.60342 31.8945C5.50931 32.6022 5.7201 33.4341 7.23712 33.3701Z" fill="#3F3F3F"/>
<path d="M12.8603 37.2551L11.9004 38.279C10.9631 38.7608 10.6506 37.7821 10.5527 36.9012C10.5805 36.9263 10.6057 36.9541 10.628 36.9841L10.7109 36.8071C10.7499 37.1751 10.8965 37.5234 11.1325 37.8084L11.1588 37.8348C11.2761 37.95 11.4304 38.0201 11.5944 38.0325C11.7583 38.0449 11.9214 37.9988 12.0547 37.9025L12.8527 37.0518L12.8603 37.2551Z" fill="#2C62FF"/>
<path d="M16.0996 32.0679C16.0345 32.2375 15.9526 32.4002 15.855 32.5535L15.7194 32.7567L15.5651 32.9901L13.0129 36.8147L12.8548 37.0518L12.0567 37.9025C11.9234 37.9988 11.7604 38.0449 11.5964 38.0325C11.4324 38.0201 11.2781 37.95 11.1608 37.8348C10.907 37.548 10.7502 37.1883 10.7129 36.8071C11.0517 36.107 12.3315 33.4494 13.1936 31.379L13.3253 31.0553C13.4307 30.8031 13.5248 30.5584 13.6114 30.3325C14.112 30.931 15.0418 31.8872 16.0168 32.0528C16.0367 32.0568 16.0572 32.0568 16.077 32.0528L16.0996 32.0679Z" fill="#3F3F3F"/>
<path d="M13.0532 39.3508C12.5074 39.2642 11.8411 39.8928 11.8411 39.8928C6.8647 43.4877 6.48828 39.6858 6.48828 39.6858C8.87109 39.9756 9.41688 38.1801 9.74814 37.2202C10.0079 36.4673 10.3956 36.7308 10.5537 36.8851C10.6516 37.766 10.9641 38.7447 11.9014 38.2629L12.8612 37.239L13.0532 39.3508Z" fill="#3F3F3F"/>
<path d="M22.4615 14.5675C20.7751 14.1422 18.2079 15.2827 16.7473 15.6065C16.0487 15.7876 15.3233 15.8424 14.6054 15.7683C14.4372 15.7409 14.2675 15.7246 14.0972 15.7194C13.6267 15.7194 13.988 15.2978 13.988 15.2978C13.7923 15.1886 14.0709 14.8009 14.0709 14.8009C13.7359 14.5487 14.1838 14.2701 14.0972 14.1873C14.0106 14.1045 14.0972 13.905 14.3193 13.7883C14.5803 13.6911 14.8676 13.6911 15.1286 13.7883C15.8788 13.9587 16.6505 14.0146 17.4174 13.9539C18.1384 13.5018 18.9104 13.1366 19.7173 12.8661C20.7697 12.5169 21.8722 12.3427 22.981 12.3503C22.9869 12.365 22.9945 12.3789 23.0036 12.3918C23.8204 13.8824 23.1014 14.3944 22.4615 14.5675Z" fill="#FCCD97"/>
<path d="M15.7192 32.7557C14.7718 32.4351 13.9394 31.8435 13.3251 31.0542L13.1934 31.3779C13.8145 32.1308 14.9814 32.7218 15.5649 32.9891L15.7192 32.7557Z" fill="#2C62FF"/>
<path d="M11.6936 29.1617C11.6635 29.2445 11.6371 29.3123 11.6108 29.3763C11.3422 29.2028 11.0902 29.0049 10.8579 28.7853C10.5011 28.4833 10.1688 28.1536 9.86414 27.799C9.8152 27.7388 9.75874 27.6635 9.67969 27.5807L9.83027 27.3774L9.98834 27.5769C10.4834 28.179 11.0569 28.712 11.6936 29.1617Z" fill="#2C62FF"/>
<path d="M11.3449 0.781961C11.4314 0.781961 11.6836 0.563624 11.7739 0.574917C12.4816 0.684082 13.1705 0.111908 14.2133 0.270009C15.0113 0.390467 16.2234 0.574922 16.4003 2.43826C16.4455 2.88621 16.453 4.32041 16.4455 5.397L16.4191 5.37066C15.9072 4.90389 15.2409 5.24643 14.9134 3.94398C14.8544 3.81902 14.7634 3.71183 14.6498 3.63319C14.5361 3.55455 14.4037 3.50724 14.2659 3.49603C13.6599 3.40568 13.6298 3.87246 13.4491 4.47475C13.4077 4.47475 13.1931 4.66296 13.1366 4.57638C12.9334 4.27147 13.0877 3.25887 12.2144 3.27017C12.1849 3.1529 12.166 3.03322 12.1579 2.91256C12.1884 2.72401 12.2441 2.54041 12.3236 2.36673C12.0646 2.20434 11.7701 2.10744 11.4653 2.08441C11.3079 1.93733 11.1993 1.74555 11.1542 1.53489C11.1091 1.32423 11.1297 1.10481 11.2131 0.906179C11.2281 0.827128 11.3185 0.864776 11.3449 0.781961Z" fill="#3F3F3F"/>
<path d="M16.4442 5.37399V5.39658L16.4178 5.37023C15.9059 4.90346 15.2396 5.24601 14.9121 3.94356C14.8531 3.8186 14.7621 3.7114 14.6484 3.63277C14.5348 3.55413 14.4024 3.50682 14.2646 3.4956C13.6586 3.40526 13.6285 3.87204 13.4478 4.47433C13.4064 4.47433 13.1918 4.66254 13.1353 4.57596C12.9321 4.27105 13.0864 3.25845 12.2131 3.26974C12.1836 3.15247 12.1647 3.03279 12.1566 2.91214C12.1871 2.72358 12.2428 2.53999 12.3223 2.36631C12.0633 2.20391 11.7688 2.10701 11.464 2.08398C11.4256 2.20683 11.3979 2.33278 11.3812 2.46042C11.336 2.76156 11.3285 3.0627 11.2833 3.36385C11.2043 3.89462 11.449 3.64617 11.385 4.08283C11.3323 4.41033 11.2607 4.55714 11.2344 4.8357C11.2344 4.90722 11.2758 4.9938 11.4188 5.01639C11.5619 5.03897 11.6221 5.17825 11.7953 5.15567C11.7953 5.21213 11.7953 5.26106 11.7953 5.31376C11.7463 5.6262 11.848 5.58856 11.9872 5.69019C11.9571 5.75042 11.8894 5.77678 11.8781 5.82948C11.8668 5.88218 12.0211 6.06287 12.0173 6.20591C12.0136 6.34896 12.0738 6.83078 12.3223 6.86842C12.4804 6.89101 12.9848 6.90607 13.1429 6.92865C13.956 7.05288 14.0538 9.64273 14.5696 9.72178C15.0137 9.78954 15.2885 8.88233 15.9398 8.42309C16.3915 8.10312 16.5835 6.7555 17.0691 6.54093C16.9213 6.52657 16.7804 6.47146 16.6621 6.38173C16.5438 6.29201 16.4527 6.17119 16.399 6.03275C16.3607 5.92576 16.345 5.81201 16.3528 5.69865C16.3605 5.58528 16.3916 5.47475 16.4442 5.37399Z" fill="#FCCD97"/>
<path d="M22.9783 12.3572C21.8696 12.3495 20.7671 12.5238 19.7147 12.8729C18.9078 13.1435 18.1357 13.5087 17.4147 13.9608C16.6478 14.0215 15.8761 13.9656 15.126 13.7952C14.865 13.698 14.5777 13.698 14.3166 13.7952C14.1564 12.3533 14.1476 10.8986 14.2903 9.45492C15.205 9.04461 16.0332 7.27915 16.4699 6.1875C19.5265 6.37572 21.706 10.0647 22.9783 12.3572Z" fill="#2C62FF"/>
<path d="M19.3171 12.0928C19.2601 12.1786 19.183 12.2492 19.0924 12.2984C19.0019 12.3476 18.9007 12.374 18.7977 12.3751C17.4726 12.3751 17.6683 10.6699 16.9945 10.237C16.7153 10.0995 16.4243 9.98733 16.125 9.90199C16.2046 9.82472 16.2552 9.72235 16.268 9.61214C16.2699 9.60219 16.2699 9.59199 16.268 9.58203C17.962 9.86435 17.6872 12.1229 18.6848 12.1229C18.7707 12.1298 18.857 12.1151 18.9358 12.0803C19.0147 12.0455 19.0836 11.9916 19.1365 11.9234C19.1892 11.9837 19.2531 12.0364 19.3171 12.0928Z" fill="#3F3F3F"/>
<path d="M20.6792 18.9336C20.4684 19.3816 20.1183 20.1043 19.644 20.9777C18.9251 22.2989 18.5599 22.7808 18.0781 23.8084C17.7363 24.5389 17.4494 25.2939 17.2198 26.067H17.1069L16.7305 25.747C17.0186 25.0022 17.3466 24.2734 17.7129 23.5637C18.3228 22.3893 18.718 21.8886 19.3241 20.6652C19.7005 19.9124 19.9489 19.295 20.1033 18.8922C20.1899 18.8847 20.2915 18.8922 20.6792 18.9336Z" fill="#2C62FF"/>
</svg>
