<svg width="18" height="43" viewBox="0 0 18 43" fill="none" xmlns="http://www.w3.org/2000/svg">
<path d="M8.23691 11.2425C7.68236 11.3188 7.14836 11.5041 6.66575 11.7878C6.18315 12.0714 5.76146 12.4477 5.42496 12.8951C4.17521 14.4572 2.03708 9.50718 2.03708 9.50718C2.03708 9.50718 1.10352 9.28508 1.41219 7.68148C1.41219 7.68148 0.964244 5.67134 2.62054 6.29622C2.62054 6.29622 3.68961 6.02895 3.42234 7.54597C3.15508 9.06298 2.5302 9.10816 4.71727 10.58C5.18203 10.3458 5.61999 10.0618 6.02347 9.73304C6.61823 11.0393 8.23691 11.2425 8.23691 11.2425Z" fill="#FCCD97"/>
<path d="M6.49299 22.8117C4.98726 24.6411 4.23438 22.4352 4.23438 22.4352C4.23438 22.4352 4.25697 22.3712 4.29085 22.2583C4.44519 22.6347 5.19427 24.1405 6.50801 22.582L6.49299 22.8117Z" fill="#2C62FF"/>
<path d="M6.49282 22.5957C5.17908 24.1579 4.42998 22.6371 4.27564 22.2719C4.37632 21.3508 4.41027 20.4237 4.37726 19.4976C4.30291 18.6322 4.12859 17.7783 3.85778 16.953C3.82767 16.8626 3.79756 16.7685 3.76744 16.6819C3.56793 16.0684 3.4136 15.6204 3.4136 15.6204C3.4136 15.6204 3.38725 15.5451 3.34961 15.4209L3.50017 15.5301C4.56923 16.3281 6.17663 17.5515 6.45142 17.943C6.51847 18.2548 6.5525 18.5727 6.55302 18.8916C6.52413 19.2897 6.46372 19.685 6.37234 20.0736C6.34763 20.9161 6.38792 21.7593 6.49282 22.5957Z" fill="#3F3F3F"/>
<path d="M7.93487 20.8244L7.43423 19.4617L6.45175 17.956C6.16566 17.5457 4.41524 16.2206 3.34994 15.4339C3.16172 14.8203 2.75141 12.9908 4.57334 13.4012C5.7591 13.6684 6.98251 14.5606 7.85583 15.3247C7.93112 16.9133 8.34894 20.3501 7.93487 20.8244Z" fill="#FCCD97"/>
<path d="M6.76416 24.6591C5.82308 25.0129 0.959573 24.7043 0.959573 24.7043C0.959573 24.7043 0.108857 23.7632 1.44895 23.7218C2.78905 23.6804 4.21948 22.4683 4.21948 22.4683C4.21948 22.4683 4.97234 24.6591 6.47807 22.8447C6.49313 22.8108 7.70148 24.2827 6.76416 24.6591Z" fill="#3F3F3F"/>
<path d="M14.8029 18.8811C14.7578 20.9816 14.6674 24.4598 14.6674 24.4598H14.0425L12.6987 24.328L12.1228 24.2753L10.8279 24.1473L10.2933 24.1059L10.3347 20.8009C10.3347 20.8009 9.91313 21.0681 7.81641 20.6202C8.22672 20.1496 7.93309 16.9123 7.85781 15.3125C8.29103 15.6886 8.70204 16.0895 9.08875 16.5133C9.08875 16.5133 10.9709 17.3189 12.2583 16.5133C12.2922 16.4955 12.3249 16.4753 12.3561 16.4531C12.5324 16.3415 12.7174 16.2446 12.9095 16.1632C13.6209 15.8546 13.7753 16.1105 13.7753 16.1105C13.7753 16.1105 14.8444 16.7806 14.8029 18.8811Z" fill="#3F3F3F"/>
<path d="M14.4813 30.6146L12.0307 30.6673C12.0307 30.6673 11.0972 30.4903 11.052 28.3898C11.0068 26.2894 10.8262 24.1475 10.8262 24.1475L14.0409 24.4599L13.7284 29.3723C13.9418 29.5066 14.121 29.6888 14.2516 29.9045C14.3823 30.1201 14.461 30.3632 14.4813 30.6146Z" fill="#FCCD97"/>
<path d="M15.4223 36.8739C14.7937 38.6619 13.8639 38.5151 13.2578 38.1575C13.2578 38.0822 13.2578 38.0069 13.2578 37.9317C13.8262 38.2403 14.6393 38.3081 15.2416 36.9002C15.2914 36.9083 15.3424 36.8975 15.3847 36.8701L15.4223 36.8739Z" fill="#2C62FF"/>
<path d="M15.2385 36.9007C14.6362 38.316 13.8231 38.2408 13.2547 37.9321C13.2547 36.991 13.1267 35.7902 12.9874 34.5931C12.8933 33.78 12.0312 30.667 12.0312 30.667L14.414 30.6143H14.4818C14.7113 31.0734 14.8287 31.5804 14.8244 32.0936C14.8244 33.1476 14.5195 34.7926 14.8469 36.1629C14.9486 36.5845 15.0766 36.863 15.2385 36.9007Z" fill="#3F3F3F"/>
<path d="M16.3172 38.7486C15.3423 39.995 14.2671 41.1595 13.1024 42.2306C13.1024 42.2306 11.273 42.4527 12.1651 40.9357C12.1651 40.9357 13.4149 39.686 13.2944 38.4814C13.2944 38.3798 13.2944 38.2706 13.2718 38.1576C13.8779 38.5153 14.8077 38.6621 15.4363 36.874C15.7186 36.9041 17.5067 37.1488 16.3172 38.7486Z" fill="#3F3F3F"/>
<path d="M17.8349 15.8883C17.8349 15.8883 17.1648 16.916 15.9151 15.621C15.9151 15.621 14.9778 14.8682 16.2915 14.7741C16.2915 14.7741 16.3819 10.351 13.6565 9.9068L13.6113 7.58422C13.6113 7.58422 15.9302 7.31695 16.6454 10.8441L17.8349 15.8883Z" fill="#FCCD97"/>
<path d="M12.1467 31.0919H14.6726C14.6538 31.0317 14.635 30.9752 14.6161 30.9263H12.1016C12.1166 30.9752 12.1317 31.0317 12.1467 31.0919Z" fill="#2C62FF"/>
<path d="M6.53436 18.5049L3.76758 16.6792L3.85792 16.9465L6.54939 18.7119C6.54562 18.6366 6.54189 18.5726 6.53436 18.5049Z" fill="#2C62FF"/>
<path d="M6.48642 0.119781L6.71227 0.176249C7.32585 0.308 8.08999 -0.143722 8.99719 0.0482582C9.68606 0.195066 10.7325 0.424692 10.7928 2.05088C10.7928 2.44613 10.7401 3.69964 10.6799 4.63696L10.6573 4.61061C10.2357 4.17771 9.63713 4.44121 9.43386 3.28933C9.3886 3.17757 9.31463 3.07974 9.21945 3.00571C9.12427 2.93168 9.01128 2.88409 8.89182 2.86773C8.36858 2.7548 8.31588 3.16135 8.13896 3.68082C8.10132 3.68082 7.90557 3.8314 7.8604 3.75235C7.7023 3.47379 7.88675 2.5967 7.10754 2.56282C7.0882 2.45852 7.07809 2.3527 7.0774 2.24662C7.11419 2.08405 7.17245 1.92708 7.25059 1.77984C7.02621 1.62547 6.76799 1.52735 6.49772 1.49376C6.36777 1.35784 6.28284 1.18516 6.25455 0.999251C6.22626 0.813342 6.25597 0.623231 6.33961 0.454805C6.35843 0.379519 6.46007 0.191303 6.48642 0.119781Z" fill="#3F3F3F"/>
<path d="M10.6795 4.61754V4.63636L10.6569 4.61002C10.2353 4.17712 9.63677 4.44062 9.4335 3.28874C9.38823 3.17698 9.31427 3.07914 9.21909 3.00512C9.12391 2.93109 9.01092 2.88349 8.89146 2.86714C8.36822 2.75421 8.31552 3.16075 8.13859 3.68023C8.10095 3.68023 7.90521 3.8308 7.86004 3.75175C7.70194 3.47319 7.88639 2.59611 7.10718 2.56223C7.08784 2.45792 7.07773 2.35211 7.07703 2.24603C7.11383 2.08345 7.17209 1.92649 7.25022 1.77925C7.02585 1.62488 6.76763 1.52676 6.49736 1.49316C6.45556 1.59776 6.42404 1.70619 6.40325 1.8169C6.34679 2.07663 6.32793 2.34013 6.27146 2.59987C6.17735 3.05911 6.40322 2.85584 6.32417 3.23228C6.26394 3.5146 6.1021 3.74422 6.06445 3.98514C6.06445 4.04913 6.09456 4.12442 6.21878 4.15077C6.35637 4.18596 6.49876 4.19866 6.6404 4.18841C6.63533 4.23395 6.62777 4.27919 6.6178 4.32392C6.55757 4.59495 6.64792 4.5686 6.76461 4.67024C6.7345 4.72294 6.67426 4.74177 6.66297 4.78694C6.65167 4.83211 6.7759 4.99774 6.76461 5.11819C6.75332 5.23865 6.76461 5.66778 6.998 5.71296C7.13351 5.74307 7.57394 5.77695 7.70946 5.80706C8.40962 5.95764 8.11978 7.01917 8.56773 7.11328C8.94416 7.19233 9.2754 6.6465 9.8664 6.28137C10.2768 6.03182 10.7136 5.82857 11.1688 5.67532C10.9485 5.35213 10.7832 4.99471 10.6795 4.61754Z" fill="#FCCD97"/>
<path d="M13.7704 16.1104C13.7704 16.1104 13.5332 15.7076 12.2647 16.5132C10.9961 17.3188 9.09511 16.5132 9.09511 16.5132C9.09511 16.5132 9.9421 16.3777 8.69235 13.434C8.32456 12.7659 8.16832 12.002 8.24437 11.2432C8.24437 11.2432 6.6182 11.0399 6.02344 9.73743C6.89867 9.07799 7.5928 8.20777 8.04113 7.20781C8.14231 7.02555 8.21466 6.82873 8.25567 6.62434C8.65469 6.73351 9.38496 6.86902 10.838 5.06592C10.985 5.29008 11.2041 5.45739 11.4591 5.54023C12.6185 6.07852 13.6048 7.59554 13.6048 7.59554L13.65 9.91812L13.7704 16.1104Z" fill="#2C62FF"/>
<path d="M12.697 24.3284L12.9078 16.1636C12.7158 16.2449 12.5307 16.3419 12.3545 16.4534L12.1211 24.2757L12.697 24.3284Z" fill="#2C62FF"/>
</svg>
