<svg width="42" height="14" viewBox="0 0 42 14" fill="none" xmlns="http://www.w3.org/2000/svg">
<path d="M30.442 7.41922L27.0165 7.61498L26.3652 6.51203L29.8435 6.23724C29.8435 6.23724 29.9263 6.19206 30.0693 6.13184C30.2437 6.54484 30.3687 6.97694 30.442 7.41922Z" fill="#E6BB8A"/>
<path d="M30.2983 9.8543L26.9894 9.88065C26.9894 9.88065 24.697 10.2157 23.6016 9.68867C25.1073 9.17672 25.2503 6.79391 25.2127 5.44629L26.342 6.51159L26.9932 7.61454L30.4187 7.41879C30.5593 8.22953 30.5182 9.06138 30.2983 9.8543Z" fill="#FCCD97"/>
<path d="M25.0484 7.63682C25.0146 7.7874 24.9732 7.94173 24.9317 8.08478C24.6984 8.83764 24.2918 9.45498 23.6142 9.69213C23.6142 9.69213 22.4473 10.9306 19.4057 9.72601C18.8168 9.49682 18.2082 9.32169 17.5876 9.20278C17.4402 8.47971 17.4712 7.73163 17.6779 7.02324C17.7419 6.77479 17.7946 6.61669 17.7946 6.61669C17.7946 6.61669 17.836 6.57905 17.8586 6.56023C19.1648 5.43093 19.4283 4.30164 19.4246 3.47726C22.4962 3.1347 24.8565 5.1185 24.8565 5.1185L25.2141 5.45352C25.2443 6.18526 25.1887 6.91802 25.0484 7.63682Z" fill="#3F3F3F"/>
<path d="M12.9423 9.09841L8.4251 13.3709C7.93859 13.4414 7.46761 13.5942 7.0323 13.8226C6.17027 14.2329 3.80631 13.6721 3.80631 13.6721C3.80631 13.6721 2.71842 13.3446 3.77995 13.2241H3.84017C3.84017 13.2241 2.60549 12.7724 3.80631 12.7724C3.80631 12.7724 2.82758 12.3959 3.80631 12.3959C3.80631 12.3959 2.82757 12.1362 4.2166 12.1739C4.2166 12.1739 3.86276 11.9367 3.86652 11.677C3.87345 11.615 3.89565 11.5558 3.93113 11.5045C3.96661 11.4533 4.01425 11.4116 4.06979 11.3833C4.11233 11.4637 4.16983 11.5353 4.23919 11.5942C4.52228 11.8191 4.86819 11.9506 5.2292 11.9706C6.16652 12.0835 6.91561 11.9329 7.29204 12.1964L9.28338 10.3557L9.99484 8.2552C9.99484 8.2552 11.0488 7.31412 12.0238 7.27648C12.5997 7.26519 12.9009 8.09334 12.9423 9.09841Z" fill="#FCCD97"/>
<path d="M41.3688 12.1695C41.3688 12.1695 40.808 15.1809 39.4867 12.4706C38.907 11.2736 38.6623 10.6299 38.459 10.2798C38.587 9.94475 38.5042 9.65113 38.0826 9.1166C37.9152 8.91247 37.7876 8.67883 37.7062 8.42774C37.6246 8.16485 37.6027 7.88706 37.6422 7.61465C38.395 7.37373 39.5017 6.29714 40.2772 8.11154C40.7962 9.4176 41.1625 10.7793 41.3688 12.1695Z" fill="#3F3F3F"/>
<path d="M38.4633 10.2796C38.4033 10.1635 38.3185 10.062 38.2149 9.98223C38.1556 9.66427 38.0037 9.37093 37.7782 9.13903C37.6105 8.93935 37.4827 8.70933 37.4018 8.46145C37.3257 8.21044 37.3039 7.9461 37.3378 7.68601C37.4322 7.67791 37.5255 7.66025 37.6164 7.6333H37.6427C37.6032 7.90572 37.6251 8.18351 37.7067 8.44639C37.7881 8.69749 37.9158 8.93113 38.0831 9.13526C38.5085 9.6585 38.5913 9.94459 38.4633 10.2796Z" fill="#2C62FF"/>
<path d="M30.7623 5.89453C30.9237 6.27098 31.0497 6.66165 31.1387 7.06147C31.0224 7.11516 30.9093 7.17549 30.7999 7.24216L30.7397 7.2798C30.6818 7.3147 30.6264 7.3537 30.5741 7.39649H30.4461C30.4461 7.36262 30.4461 7.3325 30.4461 7.30239C30.4461 7.27227 30.4461 7.28356 30.4461 7.27603C30.4386 7.22661 30.4285 7.1776 30.416 7.12923L30.3821 6.97113C30.3821 6.97113 30.3821 6.97113 30.3821 6.94854C30.3464 6.79691 30.3025 6.64736 30.2503 6.50059C30.2079 6.37265 30.1589 6.247 30.1035 6.12415C30.3165 6.02997 30.5369 5.95318 30.7623 5.89453Z" fill="#3F3F3F"/>
<path d="M37.4054 8.46099H37.3414C36.7165 8.48357 35.8093 8.30288 34.6763 7.51237C33.9348 6.94897 33.0037 6.69527 32.0789 6.80469C31.8649 6.83197 31.6542 6.88116 31.4503 6.95149C31.373 6.56569 31.2609 6.1877 31.1152 5.8222L31.3373 5.79208C32.2468 5.67903 33.1689 5.85553 33.9723 6.29651C35.6926 7.23382 36.517 7.65919 37.1645 7.67048C37.2221 7.67432 37.28 7.67432 37.3376 7.67048C37.3015 7.93076 37.3246 8.19586 37.4054 8.44593V8.46099Z" fill="#3F3F3F"/>
<path d="M38.2152 9.98198C38.027 9.84647 37.7747 9.854 37.2779 9.83895C36.5928 9.82012 33.8297 9.83895 31.3415 9.83895H30.2988C30.5262 9.04771 30.5751 8.21585 30.4419 7.40343H30.5698C30.6222 7.36064 30.6776 7.32164 30.7355 7.28674L30.7957 7.2491C30.9051 7.18243 31.0182 7.12209 31.1345 7.06841C31.2324 7.027 31.334 6.98559 31.4507 6.94418C31.6547 6.87385 31.8653 6.82466 32.0793 6.79737C33.0041 6.68796 33.9352 6.94166 34.6767 7.50507C35.806 8.29557 36.717 8.47626 37.3418 8.45367H37.4058C37.4867 8.70273 37.6145 8.934 37.7823 9.13501C38.0081 9.36761 38.1589 9.66267 38.2152 9.98198Z" fill="#3F3F3F"/>
<path d="M3.78746 12.3909C2.80874 12.3909 3.78746 12.7673 3.78746 12.7673C2.58665 12.7673 3.82135 13.219 3.82135 13.219H3.74983C2.11988 12.8426 3.10613 12.8991 2.94803 12.6167C2.78993 12.3344 3.09861 12.4248 3.0045 12.1274C2.91039 11.83 3.49386 11.9768 3.49386 11.9768C3.49386 11.9768 3.39974 11.4686 3.6256 11.6192C3.68956 11.6558 3.76286 11.6728 3.8364 11.6681C3.8364 11.9279 4.18648 12.165 4.18648 12.165C2.80874 12.1311 3.78746 12.3909 3.78746 12.3909Z" fill="#E6BB8A"/>
<path d="M9.98024 8.26562L9.26878 10.3661L7.27746 12.2069C6.90103 11.9434 6.14818 12.0939 5.21463 11.981C4.85361 11.961 4.5077 11.8295 4.22461 11.6046C4.37142 11.5368 4.46176 11.4389 4.38647 11.3373C4.21708 11.1152 4.7629 10.9835 5.70021 11.3185C6.63753 11.6535 6.79187 11.1303 6.79187 11.1303C8.23737 10.8103 8.73425 9.35351 8.90365 8.34844L9.98024 8.26562Z" fill="#E6BB8A"/>
<path d="M31.4505 6.95164C31.3338 6.99304 31.2321 7.03445 31.1342 7.07586C31.0453 6.67603 30.9193 6.28536 30.7578 5.90892C30.8743 5.8782 30.9924 5.85433 31.1117 5.8374C31.2577 6.19792 31.3711 6.57083 31.4505 6.95164Z" fill="#2C62FF"/>
<path d="M31.4505 6.95164C31.3338 6.99304 31.2321 7.03445 31.1342 7.07586C31.0453 6.67603 30.9193 6.28536 30.7578 5.90892C30.8743 5.8782 30.9924 5.85433 31.1117 5.8374C31.2577 6.19792 31.3711 6.57083 31.4505 6.95164Z" fill="url(#paint0_linear_3940_71560)"/>
<path d="M31.3424 9.84774H30.9961C31.3117 8.95626 31.3601 7.99204 31.1354 7.07344C31.2332 7.03203 31.3349 6.99063 31.4516 6.94922C31.6536 7.90972 31.6161 8.90515 31.3424 9.84774Z" fill="#2C62FF"/>
<path d="M0.835938 3.61325C0.884874 3.55302 0.937579 3.49279 0.982751 3.42879C1.35918 2.92437 1.26131 2.03976 1.80714 1.29443C2.22874 0.726016 2.86489 -0.136009 4.37815 0.485102C4.75458 0.631911 5.85753 1.21162 6.68944 1.6558H6.65555C6.08714 1.86284 6.07962 2.51783 4.94656 2.22798C4.82584 2.2235 4.70605 2.25067 4.59908 2.3068C4.4921 2.36293 4.40166 2.44606 4.33674 2.54794C4.02054 2.97708 4.36686 3.19541 4.76211 3.57937C4.76211 3.61325 4.80352 3.85416 4.71318 3.86545C4.39321 3.89557 3.67046 3.3648 3.32414 4.04614C3.22075 4.02193 3.11992 3.9879 3.023 3.94451C2.89048 3.84209 2.77157 3.72318 2.66916 3.59066C2.43197 3.73301 2.23401 3.93226 2.09321 4.17036C1.915 4.23357 1.7216 4.24 1.53959 4.18877C1.35758 4.13753 1.19593 4.03116 1.07686 3.88428C1.02039 3.83534 0.888638 3.66971 0.835938 3.61325Z" fill="#3F3F3F"/>
<path d="M6.67436 1.64541H6.64047C6.07206 1.85245 6.06454 2.50744 4.93148 2.21758C4.81076 2.2131 4.69095 2.24028 4.58398 2.29641C4.477 2.35254 4.38658 2.43567 4.32166 2.53755C4.00546 2.96668 4.35178 3.18502 4.74703 3.56898C4.74703 3.60285 4.78844 3.84377 4.6981 3.85506C4.37813 3.88518 3.65538 3.35441 3.30906 4.03575C3.20567 4.01153 3.10484 3.9775 3.00792 3.93411C2.8754 3.83169 2.75649 3.71279 2.65408 3.58027C2.41689 3.72262 2.21893 3.92186 2.07812 4.15997C2.15733 4.24109 2.24433 4.31422 2.33786 4.3783C2.55243 4.54017 2.78582 4.66439 3.00039 4.82249C3.37682 5.10105 3.28272 4.82249 3.59515 5.03706C3.82854 5.21021 3.97157 5.45113 4.16731 5.57912C4.22001 5.61676 4.3066 5.60923 4.38188 5.5076C4.46917 5.39307 4.53894 5.26621 4.58892 5.13116C4.6292 5.15405 4.66815 5.17918 4.70561 5.20645C4.9277 5.37208 4.939 5.27797 5.08204 5.20645C5.11592 5.25538 5.11215 5.31938 5.14979 5.34573C5.18744 5.37208 5.38696 5.34573 5.49613 5.3909C5.60529 5.43607 6.00055 5.6017 6.1323 5.42478C6.21511 5.31185 6.42968 4.92413 6.50873 4.81496C6.9341 4.23526 7.78106 4.93918 8.05586 4.57028C8.33065 4.20138 7.92035 3.7346 7.83001 3.04197C7.77547 2.5642 7.77547 2.08177 7.83001 1.604C7.44987 1.68276 7.05916 1.69676 6.67436 1.64541Z" fill="#FCCD97"/>
<path d="M19.4361 3.46973C19.4361 4.29788 19.1651 5.45352 17.8024 6.60917C17.8024 6.60917 17.2792 8.1149 17.5878 9.20278C16.0577 8.91959 14.4923 8.88147 12.9502 9.08985C12.9088 8.08478 12.6076 7.25663 12.0166 7.27921C11.0417 7.31686 9.98768 8.25794 9.98768 8.25794L8.91109 8.32569H8.82449C8.82449 8.32569 8.6777 6.71081 7.66133 6.10852C6.64497 5.50623 7.43546 4.60279 7.43546 4.60279C7.95117 4.2753 7.53333 2.58136 7.29241 1.74944C7.53363 1.62843 7.75561 1.4724 7.95117 1.28643C9.24986 0.0856116 13.6579 2.58888 13.6579 2.58888C15.3466 3.48058 17.2804 3.79648 19.1651 3.48855L19.4361 3.46973Z" fill="#2C62FF"/>
<path d="M25.0483 7.63764C25.0144 7.78821 24.973 7.94255 24.9316 8.08559C24.1738 8.03241 23.4197 7.93563 22.673 7.79573C21.3894 7.55105 20.8548 7.31014 19.6879 7.14451C19.0221 7.05074 18.3499 7.01046 17.6777 7.02405C17.7003 6.92994 17.7304 6.82831 17.7605 6.72667L17.7944 6.6175C17.817 6.6175 17.8358 6.57986 17.8584 6.56104C18.4881 6.5604 19.1171 6.60442 19.7406 6.69279C20.9 6.86218 21.4383 7.09934 22.6316 7.33649C23.4291 7.49328 24.2367 7.59391 25.0483 7.63764Z" fill="#2C62FF"/>
<defs>
<linearGradient id="paint0_linear_3940_71560" x1="31.059" y1="6.23642" x2="31.4203" y2="7.45982" gradientUnits="userSpaceOnUse">
<stop stop-color="#CE2828"/>
<stop offset="0.39" stop-color="#CC2828" stop-opacity="0.99"/>
<stop offset="0.53" stop-color="#C52626" stop-opacity="0.96"/>
<stop offset="0.63" stop-color="#BA2424" stop-opacity="0.9"/>
<stop offset="0.71" stop-color="#A92121" stop-opacity="0.82"/>
<stop offset="0.78" stop-color="#931C1C" stop-opacity="0.71"/>
<stop offset="0.84" stop-color="#771717" stop-opacity="0.58"/>
<stop offset="0.9" stop-color="#571111" stop-opacity="0.42"/>
<stop offset="0.95" stop-color="#310A0A" stop-opacity="0.24"/>
<stop offset="0.99" stop-color="#080202" stop-opacity="0.04"/>
<stop offset="1" stop-opacity="0"/>
</linearGradient>
</defs>
</svg>
