<svg width="24" height="24" viewBox="0 0 24 24" fill="none" xmlns="http://www.w3.org/2000/svg">
<path d="M5.82227 6.72552C5.72551 6.82333 5.72597 6.98095 5.8233 7.07819L10.7494 12L5.8233 16.9218C5.72597 17.0191 5.72551 17.1767 5.82227 17.2745L6.71391 18.1758C6.76069 18.2231 6.82439 18.2498 6.89091 18.25C6.95743 18.2502 7.02128 18.2239 7.06834 18.1769L12 13.2495L16.9317 18.1769C16.9787 18.2239 17.0426 18.2502 17.1091 18.25C17.1756 18.2498 17.2393 18.2231 17.2861 18.1758L18.1777 17.2745C18.2745 17.1767 18.274 17.0191 18.1767 16.9218L13.2506 12L18.1767 7.07819C18.274 6.98095 18.2745 6.82333 18.1777 6.72552L17.2861 5.82418C17.2393 5.77689 17.1756 5.7502 17.1091 5.75C17.0426 5.74981 16.9787 5.77613 16.9317 5.82315L12 10.7505L7.06834 5.82315C7.02128 5.77613 6.95743 5.74981 6.89091 5.75C6.82439 5.7502 6.76069 5.77689 6.71391 5.82418L5.82227 6.72552Z" fill="#091932" stroke="black" stroke-width="0.5" stroke-linecap="round" stroke-linejoin="round"/>
</svg>
