<svg width="20" height="20" viewBox="0 0 20 20" fill="none" xmlns="http://www.w3.org/2000/svg">
<path d="M10 0C15.523 0 20 4.478 20 10C20 15.522 15.523 20 10 20C4.477 20 0 15.522 0 10C0 4.478 4.477 0 10 0ZM10 1.667C5.405 1.667 1.667 5.405 1.667 10C1.667 14.595 5.405 18.333 10 18.333C14.595 18.333 18.333 14.595 18.333 10C18.333 5.405 14.595 1.667 10 1.667ZM9.25 4C9.43124 4.00001 9.60634 4.06564 9.74293 4.18477C9.87952 4.30389 9.96835 4.46845 9.993 4.648L10 4.75V10H13.25C13.44 10.0001 13.6229 10.0722 13.7618 10.202C13.9006 10.3317 13.9851 10.5093 13.998 10.6989C14.011 10.8885 13.9515 11.0759 13.8316 11.2233C13.7117 11.3707 13.5403 11.4671 13.352 11.493L13.25 11.5H9.25C9.06876 11.5 8.89366 11.4344 8.75707 11.3152C8.62048 11.1961 8.53165 11.0316 8.507 10.852L8.5 10.75V4.75C8.5 4.55109 8.57902 4.36032 8.71967 4.21967C8.86032 4.07902 9.05109 4 9.25 4Z" fill="white"/>
</svg>
