<svg width="40" height="40" viewBox="0 0 40 40" fill="none" xmlns="http://www.w3.org/2000/svg">
<g clip-path="url(#clip0_2978_1761)">
<path d="M19.9999 39.9998C31.0456 39.9998 39.9998 31.0456 39.9998 19.9999C39.9998 8.95427 31.0456 0 19.9999 0C8.95427 0 0 8.95427 0 19.9999C0 31.0456 8.95427 39.9998 19.9999 39.9998Z" fill="#4E598F"/>
<path d="M39.9682 18.8824L30.5482 9.45937C30.3921 9.50664 30.0027 9.32546 29.8316 9.35984C25.7912 10.0333 21.8855 9.35984 17.9797 10.4373C16.0942 10.976 15.9595 13.2655 15.2861 14.747C14.3434 17.4406 14.4781 20.4035 13.2659 22.9624C12.4579 24.7133 10.5723 25.7907 9.8989 27.8109C9.6743 28.6535 9.68758 29.7155 9.43359 30.5211L18.8851 39.9681C19.2543 39.9884 19.6257 39.9996 19.9999 39.9996C31.0455 39.9996 39.9998 31.0452 39.9998 19.9996C39.9999 19.6246 39.9887 19.2522 39.9682 18.8824Z" fill="#364270"/>
<path d="M28.3612 8.55176H11.6359C9.9321 8.55176 8.55078 9.933 8.55078 11.6369V28.3622C8.55078 30.0662 9.93203 31.4474 11.6359 31.4474H19.8846L19.8989 23.266H17.7732C17.4969 23.266 17.2727 23.0426 17.2718 22.7663L17.2614 20.1289C17.2603 19.8513 17.4854 19.6255 17.7629 19.6255H19.885V17.0772C19.885 14.12 21.691 12.5098 24.329 12.5098H26.4938C26.7706 12.5098 26.9954 12.7343 26.9954 13.0113V15.235C26.9954 15.512 26.7709 15.7366 26.4942 15.7366L25.1656 15.7374C23.731 15.7374 23.453 16.419 23.453 17.4196V19.6258H26.6054C26.906 19.6258 27.139 19.8881 27.1034 20.1862L26.7909 22.8236C26.7611 23.0761 26.547 23.2662 26.2928 23.2662H23.4672L23.4529 31.4478H28.3612C30.065 31.4478 31.4463 30.0664 31.4463 28.3626V11.6369C31.4464 9.93308 30.0651 8.55176 28.3612 8.55176Z" fill="white"/>
<path d="M19.884 31.447L19.8983 23.2656H19.8633V31.447H19.884Z" fill="white"/>
<path d="M28.3645 8.55176H19.8672V19.6252H19.8882V17.077C19.8882 14.1199 21.6943 12.5096 24.3322 12.5096H26.4971C26.7739 12.5096 26.9986 12.7342 26.9986 13.0112V15.2349C26.9986 15.5119 26.7741 15.7364 26.4974 15.7364L25.1688 15.7372C23.7342 15.7372 23.4562 16.4188 23.4562 17.4195V19.6255H26.6086C26.9093 19.6255 27.1422 19.8879 27.1067 20.1859L26.7941 22.8233C26.7643 23.0758 26.5502 23.2659 26.2961 23.2659H23.4705L23.4562 31.4476H28.3644C30.0682 31.4476 31.4496 30.0662 31.4496 28.3624V11.6369C31.4496 9.93308 30.0683 8.55176 28.3645 8.55176Z" fill="#D1D1D1"/>
</g>
<defs>
<clipPath id="clip0_2978_1761">
<rect width="40" height="40" fill="white"/>
</clipPath>
</defs>
</svg>
