<svg width="40" height="40" viewBox="0 0 40 40" fill="none" xmlns="http://www.w3.org/2000/svg">
<g clip-path="url(#clip0_2978_1768)">
<path d="M19.9999 39.9998C31.0456 39.9998 39.9998 31.0456 39.9998 19.9999C39.9998 8.95427 31.0456 0 19.9999 0C8.95427 0 0 8.95427 0 19.9999C0 31.0456 8.95427 39.9998 19.9999 39.9998Z" fill="#4376B1"/>
<path d="M39.9219 18.2523L30.837 9.15576C25.2874 9.8774 19.4879 9.76974 13.9383 9.89881C11.6487 9.89881 9.35914 10.9762 9.7632 13.5351C10.5712 18.6529 10.9753 23.6361 10.0326 28.8886C9.88414 29.5562 9.57187 30.2237 9.16406 30.8463L18.2395 39.9218C18.8193 39.9723 19.4058 39.9996 19.9988 39.9996C31.0444 39.9996 39.9987 31.0453 39.9987 19.9997C39.9989 19.4106 39.9719 18.8281 39.9219 18.2523Z" fill="#336699"/>
<path d="M29.3752 8.55225H10.6219C9.47789 8.55225 8.55078 9.47935 8.55078 10.6233V29.3765C8.55078 30.5202 9.47789 31.4476 10.6219 31.4476H29.3751C30.5187 31.4476 31.4462 30.5202 31.4462 29.3765V10.6233C31.4463 9.47935 30.5189 8.55225 29.3752 8.55225ZM15.6356 28.3216C15.6356 28.6547 15.3658 28.9244 15.0328 28.9244H12.4674C12.1344 28.9244 11.8646 28.6545 11.8646 28.3216V17.5669C11.8646 17.2339 12.1345 16.9641 12.4674 16.9641H15.0329C15.366 16.9641 15.6358 17.234 15.6358 17.5669V28.3216H15.6356ZM13.7501 15.9502C12.404 15.9502 11.3129 14.8589 11.3129 13.5126C11.3129 12.1666 12.4039 11.0754 13.7501 11.0754C15.0963 11.0754 16.1874 12.1668 16.1874 13.5126C16.1874 14.859 15.0962 15.9502 13.7501 15.9502ZM29.0432 28.3702C29.0432 28.6763 28.7952 28.9246 28.4893 28.9246H25.736C25.4302 28.9246 25.182 28.6764 25.182 28.3702V23.3254C25.182 22.573 25.4027 20.0277 23.2154 20.0277C21.5186 20.0277 21.1745 21.7699 21.1054 22.5515V28.3701C21.1054 28.6761 20.8574 28.9244 20.5512 28.9244H17.8886C17.5825 28.9244 17.3342 28.6762 17.3342 28.3701V17.5183C17.3342 17.2122 17.5824 16.9639 17.8886 16.9639H20.5512C20.8573 16.9639 21.1054 17.2121 21.1054 17.5183V18.4565C21.7346 17.5124 22.6697 16.7834 24.6602 16.7834C29.0684 16.7834 29.0434 20.9019 29.0434 23.1651V28.3703H29.0432V28.3702Z" fill="white"/>
<path d="M29.3786 8.55225H19.957V16.9639H20.5545C20.8605 16.9639 21.1087 17.2121 21.1087 17.5183V18.4565C21.7379 17.5124 22.673 16.7834 24.6636 16.7834C29.0718 16.7834 29.0468 20.9019 29.0468 23.1651V28.3701C29.0468 28.6762 28.7987 28.9245 28.4929 28.9245H25.7396C25.4337 28.9245 25.1855 28.6763 25.1855 28.3701V23.3253C25.1855 22.573 25.4063 20.0277 23.219 20.0277C21.5222 20.0277 21.178 21.7698 21.109 22.5514V28.37C21.109 28.6761 20.8609 28.9244 20.5548 28.9244H19.9573V31.4479H29.3789C30.5225 31.4479 31.45 30.5204 31.45 29.3768V10.6233C31.4496 9.47935 30.5222 8.55225 29.3786 8.55225Z" fill="#D1D1D1"/>
</g>
<defs>
<clipPath id="clip0_2978_1768">
<rect width="40" height="40" fill="white"/>
</clipPath>
</defs>
</svg>
