<svg width="188" height="60" viewBox="0 0 188 60" fill="none" xmlns="http://www.w3.org/2000/svg">
<g clip-path="url(#clip0_2835_4734)">
<path d="M166.46 43.782L186.908 23.37L187.07 23.19L187.226 23.004L187.37 22.812L187.496 22.602L187.61 22.38L187.712 22.158L187.796 21.924L187.874 21.69L187.928 21.45L187.976 21.21L188.006 20.724V7.5L188 7.14L187.97 6.786L187.934 6.432L187.874 6.078L187.802 5.724L187.706 5.382L187.598 5.046L187.472 4.704L187.334 4.386L187.178 4.062L187.004 3.744L186.818 3.438L186.626 3.144L186.404 2.862L186.176 2.586L185.936 2.322L185.678 2.07L185.414 1.83L185.138 1.602L184.85 1.386L184.556 1.194L184.25 1.008L183.932 0.834L183.608 0.678L183.284 0.54L182.942 0.414L182.606 0.306L182.258 0.21L181.904 0.132L181.55 0.072L181.196 0.036L180.842 0.006L180.494 0H167.252L167.012 0.006L166.766 0.03L166.526 0.078L166.286 0.126L166.052 0.204L165.818 0.288L165.59 0.396L165.374 0.51L165.164 0.636L164.972 0.78L164.786 0.936L164.606 1.104L144.17 21.528L146 23.352C146.3 23.652 146.09 24.174 145.658 24.174H136.202V14.718C136.202 14.292 136.718 14.076 137.024 14.376L138.854 16.212L151.88 3.198L152 3.072L152.108 2.928L152.198 2.79L152.27 2.634L152.33 2.472L152.378 2.31L152.408 2.142L152.42 1.968V1.788L152.408 1.614L152.378 1.452L152.33 1.284L152.27 1.122L152.192 0.96L152.102 0.816L151.994 0.672L151.874 0.546L151.748 0.432L151.61 0.324L151.46 0.234L151.304 0.15L151.148 0.09L150.98 0.042L150.806 0.006L150.548 0H147.896H135.44L135.08 0.006L134.726 0.036L134.372 0.072L134.018 0.132L133.664 0.21L133.322 0.306L132.98 0.414L132.644 0.54L132.32 0.678L131.996 0.834L131.678 1.008L131.372 1.194L131.078 1.386L130.79 1.602L130.514 1.83L130.25 2.07L129.998 2.322L129.758 2.586L129.53 2.862L129.314 3.144L129.116 3.438L128.93 3.744L128.756 4.062L128.6 4.386L128.462 4.704L128.33 5.046L128.228 5.382L128.132 5.724L128.06 6.078L128 6.432L127.964 6.786L127.934 7.14L127.928 7.5V44.58L127.934 44.826L127.958 45.072L128.006 45.312L128.06 45.552L128.132 45.78L128.216 46.014L128.324 46.242L128.438 46.452L128.57 46.662L128.708 46.866L128.864 47.052L129.026 47.232L129.206 47.394L129.404 47.55L129.602 47.688L129.812 47.814L130.028 47.934L130.256 48.03L130.484 48.12L130.724 48.186L130.958 48.246L131.204 48.282L131.444 48.306L131.69 48.312L131.936 48.306L132.176 48.282L132.422 48.246L132.656 48.186L132.896 48.12L133.124 48.03L133.352 47.934L133.568 47.814L133.778 47.688L133.97 47.55L134.168 47.394L134.348 47.232L162.746 18.858L161.444 17.55C161.144 17.25 161.354 16.734 161.786 16.734H171.248V26.184C171.248 26.61 170.732 26.826 170.432 26.526L169.124 25.224L140.72 53.592L140.552 53.772L140.396 53.964L140.252 54.162L140.126 54.372L140.006 54.588L139.91 54.816L139.82 55.044L139.754 55.284L139.694 55.512L139.658 55.764L139.634 56.004L139.628 56.256L139.634 56.502L139.658 56.742L139.694 56.988L139.754 57.222L139.82 57.462L139.91 57.69L140.006 57.912L140.126 58.134L140.252 58.344L140.396 58.536L140.552 58.734L140.72 58.914L140.9 59.076L141.086 59.232L141.29 59.376L141.5 59.502L141.71 59.616L141.938 59.724L142.172 59.808L142.406 59.88L142.646 59.934L142.886 59.982L143.126 59.994L143.18 60.006L143.384 60.012H180.506L180.866 60.006L181.22 59.976L181.574 59.94L181.928 59.88L182.282 59.808L182.63 59.712L182.966 59.61L183.308 59.484L183.632 59.346L183.956 59.19L184.274 59.016L184.58 58.83L184.874 58.638L185.162 58.416L185.438 58.194L185.702 57.954L185.96 57.702L186.2 57.438L186.428 57.162L186.65 56.874L186.842 56.58L187.028 56.274L187.202 55.956L187.358 55.632L187.496 55.308L187.622 54.972L187.73 54.636L187.826 54.288L187.898 53.934L187.958 53.58L187.994 53.226L188.024 52.872L188.03 52.512V40.056V37.41L188.024 37.236L188 37.062L187.952 36.888L187.898 36.72L187.832 36.564L187.748 36.414L187.652 36.276L187.538 36.138L187.406 36.018L187.28 35.904L187.112 35.814L186.956 35.73L186.8 35.658L186.638 35.604L186.476 35.568L186.302 35.544L186.128 35.538L185.954 35.544L185.78 35.568L185.618 35.604L185.45 35.658L185.294 35.73L185.138 35.814L184.994 35.91L184.802 36.084L171.776 49.098L173.612 50.922C173.918 51.222 173.702 51.744 173.276 51.744H163.82V42.294C163.82 41.868 164.336 41.652 164.642 41.952L166.46 43.782Z" fill="url(#paint0_linear_2835_4734)"/>
<path d="M26.6955 12.75L21.8955 27.744C21.8535 27.87 21.7395 27.954 21.6075 27.954H16.4115C16.2795 27.954 16.1655 27.87 16.1235 27.738L13.9515 20.544C13.8675 20.262 13.4655 20.256 13.3755 20.538L11.0835 27.738C11.0415 27.864 10.9275 27.948 10.7955 27.948H5.6115C5.4795 27.948 5.3655 27.864 5.3235 27.738L0.523499 12.744C0.463499 12.552 0.607499 12.354 0.811499 12.354H5.5935C5.7255 12.354 5.8395 12.438 5.8815 12.564L8.2575 20.31C8.3415 20.592 8.7375 20.592 8.8275 20.316L11.3415 12.564C11.3835 12.438 11.4975 12.354 11.6295 12.354H16.0215C16.1535 12.354 16.2675 12.438 16.3095 12.57L18.6855 20.412C18.7695 20.694 19.1715 20.694 19.2555 20.418L21.7695 12.564C21.8115 12.438 21.9255 12.354 22.0575 12.354H26.4195C26.6115 12.354 26.7555 12.552 26.6955 12.75Z" fill="white"/>
<path d="M29.3898 12.354H34.0458C34.2138 12.354 34.3458 12.486 34.3458 12.654V27.648C34.3458 27.816 34.2138 27.948 34.0458 27.948H29.3898C29.2218 27.948 29.0898 27.816 29.0898 27.648V12.654C29.0898 12.492 29.2278 12.354 29.3898 12.354Z" fill="white"/>
<path d="M53.4558 12.654V27.648C53.4558 27.816 53.3238 27.948 53.1558 27.948H49.2738C49.1838 27.948 49.0998 27.906 49.0458 27.84L43.7418 21.498C43.5618 21.282 43.2138 21.408 43.2138 21.69V27.648C43.2138 27.816 43.0818 27.948 42.9138 27.948H38.3898C38.2218 27.948 38.0898 27.816 38.0898 27.648V12.654C38.0898 12.486 38.2218 12.354 38.3898 12.354H42.2718C42.3618 12.354 42.4458 12.396 42.4998 12.462L47.8038 18.804C47.9838 19.02 48.3318 18.894 48.3318 18.612V12.654C48.3318 12.486 48.4638 12.354 48.6318 12.354H53.1558C53.3238 12.354 53.4558 12.492 53.4558 12.654Z" fill="white"/>
<path d="M72.5829 12.654V27.648C72.5829 27.816 72.4509 27.948 72.2829 27.948H68.4009C68.3109 27.948 68.2269 27.906 68.1729 27.84L62.8689 21.498C62.6889 21.282 62.3409 21.408 62.3409 21.69V27.648C62.3409 27.816 62.2089 27.948 62.0409 27.948H57.5109C57.3429 27.948 57.2109 27.816 57.2109 27.648V12.654C57.2109 12.486 57.3429 12.354 57.5109 12.354H61.3929C61.4829 12.354 61.5669 12.396 61.6209 12.462L66.9249 18.804C67.1049 19.02 67.4529 18.894 67.4529 18.612V12.654C67.4529 12.486 67.5849 12.354 67.7529 12.354H72.2769C72.4509 12.354 72.5829 12.492 72.5829 12.654Z" fill="white"/>
<path d="M76.634 12.354H81.29C81.458 12.354 81.59 12.486 81.59 12.654V27.648C81.59 27.816 81.458 27.948 81.29 27.948H76.634C76.466 27.948 76.334 27.816 76.334 27.648V12.654C76.334 12.492 76.466 12.354 76.634 12.354Z" fill="white"/>
<path d="M100.7 12.654V27.648C100.7 27.816 100.568 27.948 100.4 27.948H96.518C96.428 27.948 96.344 27.906 96.29 27.84L90.986 21.498C90.806 21.282 90.458 21.408 90.458 21.69V27.648C90.458 27.816 90.326 27.948 90.158 27.948H85.634C85.466 27.948 85.334 27.816 85.334 27.648V12.654C85.334 12.486 85.466 12.354 85.634 12.354H89.516C89.606 12.354 89.69 12.396 89.744 12.462L95.048 18.804C95.228 19.02 95.576 18.894 95.576 18.612V12.654C95.576 12.486 95.708 12.354 95.876 12.354H100.4C100.562 12.354 100.7 12.492 100.7 12.654Z" fill="white"/>
<path d="M114.925 19.7281H118.891C119.059 19.7281 119.191 19.8601 119.191 20.0281V26.1601C119.191 26.2621 119.143 26.3581 119.059 26.4121C118.171 27.0061 117.145 27.4681 115.987 27.7921C114.769 28.1341 113.575 28.3021 112.399 28.3021C110.737 28.3021 109.243 27.9541 107.923 27.2641C106.603 26.5741 105.565 25.6081 104.815 24.3661C104.065 23.1241 103.693 21.7201 103.693 20.1421C103.693 18.5701 104.065 17.1601 104.815 15.9181C105.565 14.6761 106.609 13.7101 107.959 13.0201C109.303 12.3301 110.821 11.9821 112.513 11.9821C114.043 11.9821 115.411 12.2401 116.623 12.7501C117.739 13.2241 118.681 13.8901 119.449 14.7601C119.557 14.8861 119.545 15.0781 119.419 15.1861L116.497 17.7601C116.377 17.8681 116.191 17.8501 116.083 17.7361C115.147 16.7401 114.043 16.2421 112.783 16.2421C111.625 16.2421 110.701 16.5901 110.023 17.2921C109.339 17.9881 108.997 18.9421 108.997 20.1421C108.997 21.3181 109.333 22.2601 110.011 22.9741C110.689 23.6881 111.589 24.0421 112.717 24.0421C113.317 24.0421 113.887 23.9401 114.439 23.7421C114.559 23.7001 114.637 23.5801 114.637 23.4541V20.0221C114.625 19.8661 114.757 19.7281 114.925 19.7281Z" fill="white"/>
<path d="M63.5531 33.12C64.6211 33.594 65.4491 34.278 66.0251 35.172C66.6071 36.066 66.8951 37.104 66.8951 38.292C66.8951 39.48 66.6071 40.518 66.0251 41.412C65.4431 42.306 64.6211 42.984 63.5531 43.464C62.4851 43.938 61.2312 44.178 59.7912 44.178H57.8412C57.6732 44.178 57.5412 44.31 57.5412 44.478V47.712C57.5412 47.88 57.4092 48.012 57.2412 48.012H52.5852C52.4172 48.012 52.2852 47.88 52.2852 47.712V32.706C52.2852 32.538 52.4172 32.406 52.5852 32.406H59.7912C61.2312 32.406 62.4851 32.646 63.5531 33.12ZM61.0572 39.636C61.4112 39.318 61.5912 38.868 61.5912 38.286C61.5912 37.704 61.4112 37.26 61.0572 36.936C60.7032 36.618 60.1631 36.456 59.4551 36.456H57.8412C57.6732 36.456 57.5412 36.588 57.5412 36.756V39.81C57.5412 39.978 57.6732 40.11 57.8412 40.11H59.4551C60.1691 40.116 60.7032 39.954 61.0572 39.636Z" fill="white"/>
<path d="M69.931 32.406H74.587C74.755 32.406 74.887 32.538 74.887 32.706V43.626C74.887 43.794 75.019 43.926 75.187 43.926H81.625C81.793 43.926 81.925 44.058 81.925 44.226V47.7C81.925 47.868 81.793 48 81.625 48H69.925C69.757 48 69.625 47.868 69.625 47.7V32.706C69.631 32.538 69.763 32.406 69.931 32.406Z" fill="white"/>
<path d="M95.1615 32.406H90.3855C90.2655 32.406 90.1575 32.478 90.1095 32.586L83.5575 47.58C83.4735 47.778 83.6175 48 83.8335 48H88.5135C88.6395 48 88.7475 47.922 88.7955 47.808L89.7675 45.282L91.2135 41.496L92.4495 38.298C92.5455 38.04 92.9115 38.04 93.0075 38.298L94.2435 41.496L95.6895 45.282L96.6615 47.808C96.7035 47.922 96.8175 48 96.9435 48H101.713C101.929 48 102.073 47.778 101.989 47.58L95.4375 32.586C95.3895 32.478 95.2815 32.406 95.1615 32.406Z" fill="white"/>
<path d="M119.514 32.706V47.7C119.514 47.868 119.382 48 119.214 48H115.332C115.242 48 115.158 47.958 115.104 47.892L109.8 41.55C109.62 41.334 109.272 41.46 109.272 41.742V47.7C109.272 47.868 109.14 48 108.972 48H104.448C104.28 48 104.148 47.868 104.148 47.7V32.706C104.148 32.538 104.28 32.406 104.448 32.406H108.33C108.42 32.406 108.504 32.448 108.558 32.514L113.862 38.856C114.042 39.072 114.39 38.946 114.39 38.664V32.706C114.39 32.538 114.522 32.406 114.69 32.406H119.214C119.382 32.406 119.514 32.538 119.514 32.706Z" fill="white"/>
</g>
<defs>
<linearGradient id="paint0_linear_2835_4734" x1="134.879" y1="53.0891" x2="185.786" y2="2.18221" gradientUnits="userSpaceOnUse">
<stop stop-color="#26AF77"/>
<stop offset="1" stop-color="#2C62FF"/>
</linearGradient>
<clipPath id="clip0_2835_4734">
<rect width="187.488" height="60" fill="white" transform="translate(0.511719)"/>
</clipPath>
</defs>
</svg>
