<svg width="16" height="16" viewBox="0 0 16 16" fill="none" xmlns="http://www.w3.org/2000/svg">
<path d="M10.2578 11.6729L15.7013 6.23075L15.7444 6.18276L15.786 6.13317L15.8243 6.08198L15.8578 6.02599L15.8882 5.96681L15.9153 5.90762L15.9377 5.84523L15.9585 5.78284L15.9728 5.71886L15.9856 5.65487L15.9936 5.5253V1.9996L15.992 1.90362L15.984 1.80924L15.9744 1.71486L15.9585 1.62048L15.9393 1.52609L15.9137 1.43491L15.885 1.34533L15.8515 1.25415L15.8147 1.16937L15.7732 1.08298L15.7269 0.9982L15.6774 0.916617L15.6262 0.838232L15.5671 0.763047L15.5064 0.689462L15.4425 0.619076L15.3739 0.55189L15.3036 0.487902L15.2301 0.427115L15.1534 0.369526L15.0752 0.318336L14.9937 0.268746L14.9091 0.222356L14.8228 0.180764L14.7365 0.143971L14.6455 0.110378L14.5561 0.0815837L14.4634 0.0559888L14.3692 0.035193L14.2749 0.0191962L14.1807 0.00959808L14.0865 0.00159968L13.9938 0H10.4686L10.4047 0.00159968L10.3392 0.0079984L10.2753 0.0207958L10.2114 0.0335933L10.1491 0.0543891L10.0869 0.0767846L10.0262 0.105579L9.96865 0.135973L9.91275 0.169566L9.86164 0.207958L9.81212 0.24955L9.7642 0.294341L4.32385 5.73965L4.81102 6.22596C4.89088 6.30594 4.83498 6.44511 4.71998 6.44511H2.20265V3.92402C2.20265 3.81044 2.34002 3.75285 2.42148 3.83283L2.90866 4.32234L6.37636 0.85263L6.40831 0.819036L6.43706 0.780644L6.46102 0.743851L6.48018 0.70226L6.49616 0.659068L6.50893 0.615877L6.51692 0.571086L6.52011 0.524695V0.476705L6.51692 0.430314L6.50893 0.387123L6.49616 0.342332L6.48018 0.29914L6.45942 0.255949L6.43546 0.217557L6.40671 0.179164L6.37476 0.145571L6.34122 0.115177L6.30448 0.0863827L6.26455 0.0623875L6.22302 0.039992L6.18149 0.0239952L6.13677 0.0111978L6.09045 0.00159968L6.02176 0H5.31576H1.9998L1.90396 0.00159968L1.80972 0.00959808L1.71548 0.0191962L1.62124 0.035193L1.527 0.0559888L1.43596 0.0815837L1.34491 0.110378L1.25547 0.143971L1.16921 0.180764L1.08296 0.222356L0.998303 0.268746L0.916842 0.318336L0.838574 0.369526L0.761905 0.427115L0.688429 0.487902L0.618148 0.55189L0.551063 0.619076L0.487172 0.689462L0.426475 0.763047L0.368972 0.838232L0.316262 0.916617L0.266746 0.9982L0.220426 1.08298L0.178895 1.16937L0.142158 1.25415L0.107018 1.34533L0.0798642 1.43491L0.0543071 1.52609L0.0351405 1.62048L0.0191666 1.71486L0.00958332 1.80924L0.00159641 1.90362L0 1.9996V11.8856L0.00159641 11.9512L0.00798691 12.0168L0.0207655 12.0808L0.0351405 12.1448L0.0543071 12.2056L0.076669 12.2679L0.105421 12.3287L0.13577 12.3847L0.170908 12.4407L0.207648 12.4951L0.249176 12.5447L0.292303 12.5927L0.340222 12.6359L0.392933 12.6775L0.445641 12.7143L0.501547 12.7479L0.55905 12.7798L0.619747 12.8054L0.680442 12.8294L0.744335 12.847L0.806629 12.863L0.872119 12.8726L0.936009 12.879L1.0015 12.8806L1.06699 12.879L1.13088 12.8726L1.19637 12.863L1.25866 12.847L1.32255 12.8294L1.38325 12.8054L1.44394 12.7798L1.50145 12.7479L1.55735 12.7143L1.60846 12.6775L1.66118 12.6359L1.70909 12.5927L9.26904 5.02779L8.92243 4.67906C8.84257 4.59908 8.89847 4.46151 9.01348 4.46151H11.5324V6.981C11.5324 7.09458 11.395 7.15217 11.3152 7.07219L10.967 6.72506L3.40541 14.2883L3.36069 14.3363L3.31916 14.3875L3.28082 14.4403L3.24728 14.4963L3.21533 14.5539L3.18978 14.6147L3.16582 14.6755L3.14825 14.7395L3.13228 14.8002L3.12269 14.8674L3.1163 14.9314L3.11471 14.9986L3.1163 15.0642L3.12269 15.1282L3.13228 15.1938L3.14825 15.2562L3.16582 15.3201L3.18978 15.3809L3.21533 15.4401L3.24728 15.4993L3.28082 15.5553L3.31916 15.6065L3.36069 15.6593L3.40541 15.7073L3.45333 15.7505L3.50284 15.792L3.55715 15.8304L3.61306 15.864L3.66896 15.8944L3.72966 15.9232L3.79195 15.9456L3.85425 15.9648L3.91814 15.9792L3.98203 15.992L4.04592 15.9952L4.0603 15.9984L4.1146 16H13.997L14.0928 15.9984L14.1871 15.9904L14.2813 15.9808L14.3756 15.9648L14.4698 15.9456L14.5624 15.92L14.6519 15.8928L14.7429 15.8592L14.8292 15.8224L14.9154 15.7808L15.0001 15.7345L15.0816 15.6849L15.1598 15.6337L15.2365 15.5745L15.31 15.5153L15.3803 15.4513L15.4489 15.3841L15.5128 15.3137L15.5735 15.2402L15.6326 15.1634L15.6837 15.085L15.7333 15.0034L15.7796 14.9186L15.8211 14.8322L15.8578 14.7459L15.8914 14.6563L15.9201 14.5667L15.9457 14.4739L15.9649 14.3795L15.9808 14.2851L15.9904 14.1908L15.9984 14.0964L16 14.0004V10.6795V9.97401L15.9984 9.92762L15.992 9.88122L15.9792 9.83483L15.9649 9.79004L15.9473 9.74845L15.9249 9.70846L15.8994 9.67167L15.869 9.63487L15.8339 9.60288L15.8003 9.57249L15.7556 9.54849L15.7141 9.5261L15.6726 9.5069L15.6294 9.4925L15.5863 9.4829L15.54 9.47651L15.4937 9.47491L15.4473 9.47651L15.401 9.4829L15.3579 9.4925L15.3132 9.5069L15.2716 9.5261L15.2301 9.54849L15.1918 9.57409L15.1407 9.62048L11.673 13.0902L12.1617 13.5765C12.2432 13.6565 12.1857 13.7956 12.0723 13.7956H9.55496V11.2761C9.55496 11.1626 9.69232 11.105 9.77378 11.185L10.2578 11.6729Z" fill="white"/>
</svg>
