<svg width="86" height="29" viewBox="0 0 86 29" fill="none" xmlns="http://www.w3.org/2000/svg">
<path d="M32.9472 23.7374C32.1767 22.862 31.7565 21.4962 31.7565 19.7803C31.7565 18.0644 32.1767 16.6986 32.9472 15.8231C33.6475 14.9827 35.0833 14.5625 36.8693 14.5625C38.6202 14.5625 40.056 14.9827 40.7564 15.8231C41.5268 16.6986 41.947 18.0644 41.947 19.7803C41.947 21.4962 41.5268 22.897 40.7564 23.7374C40.056 24.5429 38.6202 24.9631 36.8693 24.9631C35.0483 24.9631 33.6475 24.5429 32.9472 23.7374ZM37.0093 24.1577C38.4801 24.1577 39.5307 23.7024 39.986 23.1771C40.5112 22.5468 40.9315 21.4962 40.9315 19.7803C40.9315 18.0644 40.5112 17.0138 39.986 16.3835C39.5307 15.8582 38.4801 15.4029 37.0093 15.4029H36.6592C35.1884 15.4029 34.1378 15.8582 33.7176 16.3835C33.1573 17.0138 32.737 18.0994 32.737 19.7803C32.737 21.4962 33.1573 22.5468 33.7176 23.1771C34.1378 23.7374 35.1884 24.1577 36.6592 24.1577H37.0093ZM44.1182 24.5429V19.6402C44.1182 17.6792 44.3283 16.4885 44.7836 15.8231C45.4489 14.8776 46.6396 14.5625 48.3205 14.5625C49.9664 14.5625 51.192 14.8426 51.7873 15.7881C52.3476 14.8426 53.6083 14.5625 55.2192 14.5625C56.9351 14.5625 58.0907 14.8776 58.7911 15.8231C59.2464 16.4885 59.4565 17.6792 59.4565 19.6402V24.5078C59.4565 24.753 59.3864 24.823 59.0012 24.823C58.581 24.823 58.511 24.753 58.511 24.5078V19.9204C58.511 17.434 58.3009 16.6636 57.8806 16.1733C57.4604 15.6831 56.69 15.4379 55.3943 15.4379H55.0441C53.3982 15.4379 52.2426 15.8932 52.2426 17.1539V24.5429C52.2426 24.788 52.1725 24.858 51.7873 24.858C51.4021 24.858 51.2971 24.788 51.2971 24.5429V17.1539C51.2971 15.8932 50.1064 15.4379 48.4956 15.4379H48.1804C46.8497 15.4379 46.1143 15.6831 45.659 16.1733C45.2388 16.6636 45.0287 17.434 45.0287 19.9204V24.5078C45.0287 24.753 44.9586 24.823 44.5734 24.823C44.1882 24.823 44.1182 24.753 44.1182 24.5429ZM62.0129 24.5429V19.6402C62.0129 17.6792 62.258 16.4885 62.7483 15.8231C63.4837 14.8776 64.7794 14.5625 66.6704 14.5625C68.5614 14.5625 69.8571 14.8776 70.5925 15.8231C71.0828 16.4885 71.3279 17.6792 71.3279 19.6402V24.5078C71.3279 24.753 71.2579 24.823 70.8727 24.823C70.4874 24.823 70.4174 24.753 70.4174 24.5078V19.9204C70.4174 17.434 70.1723 16.6636 69.717 16.1733C69.2268 15.6831 68.3863 15.4379 66.8805 15.4379H66.5303C65.0245 15.4379 64.184 15.6831 63.6938 16.1733C63.2035 16.6636 62.9934 17.434 62.9934 19.9204V24.5078C62.9934 24.753 62.9234 24.823 62.5382 24.823C62.0829 24.858 62.0129 24.753 62.0129 24.5429ZM73.7442 12.9516C73.6041 12.8115 73.5691 12.6714 73.5691 12.4263C73.5691 12.1812 73.6041 12.0411 73.7442 11.901C73.8142 11.831 73.9893 11.761 74.3045 11.761C74.6197 11.761 74.7598 11.831 74.8648 11.901C75.0049 12.0411 75.0399 12.1812 75.0399 12.4263C75.0399 12.6714 75.0049 12.8115 74.8648 12.9516C74.7948 13.0216 74.6197 13.1267 74.3045 13.1267C73.9893 13.1267 73.8493 13.0216 73.7442 12.9516ZM73.8493 24.5429V14.9827C73.8493 14.7726 73.9193 14.6675 74.3045 14.6675C74.6897 14.6675 74.7598 14.7726 74.7598 14.9827V24.5429C74.7598 24.788 74.6897 24.858 74.3045 24.858C73.9193 24.858 73.8493 24.753 73.8493 24.5429ZM76.966 23.2822C76.8259 23.1071 76.8609 23.002 77.1761 22.7919C77.5263 22.5818 77.6313 22.6168 77.7364 22.8269C78.2967 23.8425 79.4523 24.1577 80.9931 24.1577H81.4134C83.0943 24.1577 84.2499 23.4923 84.2499 22.1616C84.2149 20.9009 83.6195 20.4456 81.8686 20.3056L80.2227 20.1305C78.0866 19.8853 77.001 19.3951 77.001 17.469C77.001 15.4029 78.6469 14.5625 80.8531 14.5625C82.569 14.5625 83.9347 14.9127 84.7402 16.2434C84.8802 16.4185 84.8452 16.5585 84.53 16.7336C84.1798 16.9788 84.0748 16.9087 83.9697 16.6986C83.4094 15.6831 82.2888 15.3679 81.0281 15.3679H80.713C79.1021 15.3679 77.9815 16.0333 77.9815 17.364C78.0165 18.6247 78.6118 19.0799 80.2577 19.255L81.9036 19.4301C84.1448 19.6752 85.2304 20.1305 85.2304 22.0565C85.2304 24.1226 83.5845 24.9631 81.2733 24.9631C79.1021 24.9631 77.7714 24.6129 76.966 23.2822ZM24.7527 28.5C23.457 28.5 22.4415 28.1848 20.8656 27.3094C19.6049 26.609 18.4493 25.8035 17.3988 24.9281C17.2237 24.788 17.1536 24.5779 17.1536 24.3678C17.1886 24.1577 17.2937 23.9826 17.4688 23.8775C21.2158 21.8814 21.8111 21.5663 19.0446 15.9282C17.3988 12.5664 16.9435 11.936 15.2626 11.936C14.142 11.936 13.3015 12.3213 12.6712 13.0567C11.7607 14.1422 11.4806 15.9282 11.8307 17.9593C11.9008 18.3095 11.6556 18.6247 11.3405 18.6947C10.9903 18.7647 10.6751 18.5196 10.6051 18.2044C10.1498 15.8231 10.5701 13.652 11.7257 12.2862C12.5661 11.2707 13.8268 10.7104 15.2976 10.7104C17.924 10.7104 18.6945 12.2862 20.2003 15.4379C23.1068 21.4262 22.4065 22.6518 18.9396 24.5779C19.745 25.1732 20.5855 25.7335 21.496 26.2588C23.0368 27.1343 23.7722 27.3094 24.7527 27.3094C25.7333 27.3094 26.8889 26.9942 26.8889 25.5234C26.8889 24.1927 26.4687 21.041 23.5621 14.8426C21.1458 9.69484 19.675 8.18902 16.9085 8.18902C15.4727 8.18902 14.4572 8.50419 12.8813 9.16955C12.7062 9.23959 12.5311 9.23959 12.391 9.16955C12.216 9.09951 12.1109 8.95944 12.0409 8.78434C11.9008 8.36412 11.7607 7.97891 11.6556 7.62872C10.9553 5.5626 10.6401 4.58207 9.3444 3.32139C8.18877 2.20078 4.58182 1.39535 1.29004 1.92063C0.869815 5.0023 2.20053 8.78434 3.35616 9.83491C4.61684 10.9905 6.08764 11.4458 9.1693 11.6909C9.51949 11.7259 9.76462 12.0061 9.76462 12.3563C9.7296 12.7065 9.41443 12.9516 9.09926 12.9516C6.22771 12.7415 4.23163 12.2862 2.5157 10.7454C0.904834 9.27461 -0.495923 4.72215 0.169437 1.25527C0.204456 1.01014 0.414569 0.800027 0.659702 0.765008C4.23163 0.0646297 8.64402 0.800027 10.2899 2.4109C11.7957 3.88169 12.216 5.07234 12.9163 7.20849C12.9864 7.38359 13.0214 7.52366 13.0914 7.69876C14.2821 7.20849 15.4377 6.89332 16.9785 6.89332C20.6555 6.89332 22.4415 9.27461 24.7527 14.2823C27.5893 20.3756 28.1846 23.7374 28.1846 25.4884C28.1846 27.3444 26.8539 28.5 24.7527 28.5ZM25.1379 12.5314C27.6943 12.3213 29.4453 11.936 30.9511 10.6053C32.3869 9.30963 33.6475 5.24743 33.0522 2.20078C33.0172 1.95565 32.8071 1.74554 32.5619 1.71052C29.4102 1.08018 25.5231 1.74554 24.0523 3.18131C22.8617 4.33694 22.4765 5.24743 21.9162 6.92834C21.8111 7.24351 21.9862 7.62872 22.3014 7.73378C22.6166 7.83883 23.0018 7.66374 23.1068 7.34857C23.6321 5.80773 23.9473 5.10736 24.9628 4.09181C25.9434 3.11128 29.0601 2.44592 31.8966 2.90116C32.2468 5.59762 31.0912 8.81936 30.1106 9.72985C29.025 10.7104 27.7293 11.1306 25.0679 11.3407C24.7177 11.3757 24.4726 11.6559 24.4726 12.0061C24.5076 12.3213 24.7877 12.6014 25.1029 12.6014C25.1029 12.5314 25.1379 12.5314 25.1379 12.5314ZM15.998 15.473C15.998 14.3173 15.7879 13.8271 14.9824 13.8271C14.142 13.8271 13.9669 14.2823 13.9669 15.473C13.9669 16.6286 14.177 17.1188 14.9824 17.1188C15.7879 17.0838 15.998 16.6286 15.998 15.473Z" fill="#091932" fill-opacity="0.5"/>
</svg>
