<svg width="42" height="46" viewBox="0 0 42 46" fill="none" xmlns="http://www.w3.org/2000/svg">
<g clip-path="url(#clip0_3834_24425)">
<path d="M6.08081 20.0641C6.64231 20.0641 7.00652 20.4601 7.66666 20.6828C8.5165 20.9716 9.60917 20.9633 10.3604 21.1366C10.6335 21.0486 10.9143 20.9661 11.2026 20.8891C12.1474 20.7329 13.0719 20.456 13.957 20.0641C14.1876 19.9595 14.4065 19.8266 14.6095 19.6681L20.2701 15.8238C20.4446 15.7248 20.6798 15.6671 20.9075 15.5681C20.7785 15.1473 20.6722 14.8421 20.6722 14.8173C20.7323 14.3628 20.8314 13.9154 20.9682 13.4809C20.8771 13.4314 20.824 13.3819 20.824 13.3242C21.1199 12.6111 21.2352 11.825 21.1578 11.0473C21.1578 10.346 21.044 9.66957 21.044 8.96835C21.2264 7.68937 21.8372 6.52881 22.7589 5.70974C22.4603 5.48939 22.2158 5.19309 22.0465 4.8466C21.8772 4.5001 21.7884 4.11391 21.7877 3.72158C21.6391 3.52303 21.5375 3.28794 21.4917 3.03686C21.6786 2.25705 22.0751 1.55557 22.6307 1.02212C23.1862 0.488672 23.8755 0.147501 24.6103 0.0422363C26.31 0.743456 27.046 1.31268 27.046 2.92961C27.046 3.0946 27.046 3.34209 27.046 3.62258C27.1845 3.57846 27.327 3.5508 27.4709 3.54008C28.3132 3.54008 29.1706 3.47409 30.0204 3.47409C33.6247 3.47409 34.9753 5.5035 36.3639 6.77394C36.3639 6.94718 36.3032 7.14518 36.2728 7.32667C36.8875 7.77215 38.0712 8.9766 40.0668 12.2765L40.5068 12.6064C41.2656 13.1097 42.0244 13.6706 42.0244 15.0813C41.9694 15.6165 41.8755 16.1462 41.7437 16.6653C41.7112 16.6737 41.6774 16.6737 41.645 16.6653C41.3946 16.6653 41.2732 16.1868 41.2125 15.7908C41.0591 15.9013 40.8934 15.99 40.7193 16.0548H40.5751C40.4689 16.0548 40.2413 16.2775 39.9681 16.426C39.9111 16.3361 39.8794 16.23 39.8771 16.1208C39.9086 15.8924 40.007 15.6812 40.1578 15.5186C39.2169 14.6111 39.3535 14.3059 39.3535 13.5716V13.2829C39.3535 12.1527 36.3866 11.1545 34.9753 9.05909C34.9154 9.09636 34.8594 9.14062 34.8084 9.19109C34.5352 9.14159 34.2393 9.08384 33.9282 9.04259C34.4897 12.227 35.4458 16.5168 35.4458 16.5168C35.4458 18.3152 35.294 18.9339 33.3212 20.4518C33.2276 20.5179 33.1252 20.568 33.0176 20.6003C33.6095 22.77 33.8902 21.4913 33.8902 24.2632C33.8828 25.2541 33.5177 26.2021 32.8735 26.9031C32.5244 27.0103 32.1982 27.1176 31.9022 27.2331C31.8661 27.6474 31.8661 28.0644 31.9022 28.4788C32.0074 28.7886 32.129 29.0916 32.2665 29.3862C32.2665 29.5182 32.6155 29.9059 32.7369 30.0709C35.8555 34.303 33.2832 35.2187 35.8555 39.063C36.3791 39.888 36.7888 40.152 37.0089 40.6057C37.1206 40.8075 37.1929 41.0322 37.2213 41.2657C37.2213 42.0164 35.7569 42.7424 34.7477 43.4931C33.564 46.2485 32.6914 45.5555 31.7125 46.034C31.538 45.8385 31.4354 45.5802 31.4242 45.308C31.4242 44.5738 32.8355 42.8826 33.4502 41.5049C33.1087 37.2069 33.7764 39.9705 30.5288 33.5688L29.4058 31.4486C28.7684 30.9454 28.4725 29.6089 28.2677 28.5365H28.1766C27.7289 28.5365 27.4178 28.5365 27.2357 28.5365C27.2357 28.3963 27.2357 28.256 27.2357 28.124L26.6059 23.562C26.6059 23.0917 26.6818 22.9597 26.6818 22.737C26.6427 22.2742 26.5561 21.8177 26.4238 21.3758C24.7393 21.3758 25.5891 21.9615 23.7377 21.9615H23.3887C23.1799 21.7402 23.0439 21.4503 23.0017 21.1366C23.0017 21.1366 23.0017 21.0458 23.0017 20.9221C22.3333 20.597 21.8041 20.0069 21.5221 19.2722C18.2593 23.2485 16.2485 21.2026 13.6004 22.8772C13.2589 23.0917 12.925 23.3227 12.6443 23.5207C12.2118 24.6592 11.8324 25.7811 10.8611 25.7811C10.6245 25.7718 10.391 25.7188 10.1707 25.6244C9.85198 25.2779 9.56362 24.7994 9.10835 24.2549C8.10675 23.1082 5.23098 22.7123 5.18545 20.4271C5.42067 20.0971 5.65589 20.0641 6.08081 20.0641ZM23.29 14.8833C23.3679 14.6001 23.4669 14.3242 23.586 14.0584H23.7149C24.7165 14.0584 25.8547 13.2334 26.6363 13.2334H26.9094C26.5983 12.7384 26.0748 12.6394 25.5057 12.2187C25.0732 11.9052 25.2174 11.4597 24.322 11.2205C24.2006 12.5157 24.6027 13.6294 23.0548 13.6954C23.1702 14.08 23.2391 14.4794 23.2597 14.8833H23.29ZM3.64512 10.7585C4.26374 10.7585 4.86845 10.9581 5.38272 11.3319C5.89698 11.7057 6.29766 12.2371 6.53405 12.8586C6.77044 13.4801 6.8319 14.164 6.71066 14.8235C6.58942 15.483 6.29094 16.0886 5.85297 16.5636C5.41501 17.0386 4.85725 17.3617 4.25033 17.4919C3.64341 17.6221 3.0146 17.5536 2.44349 17.2951C1.87239 17.0366 1.38467 16.5997 1.04208 16.0397C0.699482 15.4796 0.517429 14.8217 0.518929 14.1491C0.514881 13.2505 0.83828 12.3868 1.41843 11.7467C1.99859 11.1067 2.78828 10.7425 3.61476 10.7338L3.64512 10.7585Z" fill="white"/>
</g>
<defs>
<clipPath id="clip0_3834_24425">
<rect width="41.5131" height="46" fill="white" transform="matrix(-1 0 0 1 42 0)"/>
</clipPath>
</defs>
</svg>
