<svg width="58" height="58" viewBox="0 0 58 58" fill="none" xmlns="http://www.w3.org/2000/svg">
<path d="M29 0.13623C13.0543 0.13623 0.125 13.0655 0.125 29.0112C0.125 44.9569 13.0543 57.8862 29 57.8862C44.9457 57.8862 57.875 44.9569 57.875 29.0112C57.875 13.0655 44.9457 0.13623 29 0.13623ZM38.2877 29.456L24.2111 39.6976C24.134 39.753 24.043 39.7861 23.9482 39.7932C23.8535 39.8004 23.7586 39.7812 23.674 39.7379C23.5894 39.6946 23.5184 39.6289 23.4687 39.5478C23.4191 39.4668 23.3927 39.3736 23.3926 39.2786V18.8083C23.3923 18.7131 23.4183 18.6196 23.4679 18.5383C23.5174 18.457 23.5885 18.391 23.6733 18.3476C23.758 18.3042 23.8532 18.2852 23.9481 18.2925C24.043 18.2999 24.1341 18.3334 24.2111 18.3894L38.2877 28.6245C38.3542 28.6715 38.4084 28.7338 38.4459 28.8062C38.4833 28.8785 38.5029 28.9588 38.5029 29.0402C38.5029 29.1217 38.4833 29.202 38.4459 29.2743C38.4084 29.3466 38.3542 29.4089 38.2877 29.456Z" fill="white"/>
</svg>
