<svg width="40" height="40" viewBox="0 0 40 40" fill="none" xmlns="http://www.w3.org/2000/svg">
<g clip-path="url(#clip0_2978_1773)">
<path d="M20 40C31.0457 40 40 31.0457 40 20C40 8.9543 31.0457 0 20 0C8.9543 0 0 8.9543 0 20C0 31.0457 8.9543 40 20 40Z" fill="#75B73B"/>
<path d="M28.1442 11.8617C26.9846 11.5717 25.2793 10.5701 24.1755 10.1686C19.8657 8.82183 14.0745 9.89925 12.4583 14.8825C12.3236 15.0171 12.0542 15.0171 11.9195 15.0171C8.68719 18.7882 10.8421 23.3673 10.5727 27.5424C10.4808 29.0142 9.70688 30.3156 8.71094 31.4164L17.0923 39.7891C18.0419 39.9274 19.0125 40.0003 20.0004 40.0003C29.8782 40.0003 38.0826 32.8389 39.7072 23.4252L28.1442 11.8617Z" fill="#52891D"/>
<path d="M19.439 8.47234C13.343 8.76234 8.53247 13.8392 8.55083 19.9419C8.55646 21.8007 9.00521 23.5552 9.79693 25.1056L8.58154 31.0052C8.51583 31.3244 8.80365 31.6038 9.12068 31.5287L14.9015 30.1591C16.3868 30.8991 18.055 31.3262 19.8204 31.3532C26.0511 31.4484 31.2463 26.5012 31.4408 20.2728C31.6487 13.5964 26.1386 8.1532 19.439 8.47234ZM26.3369 26.2449C24.644 27.9378 22.3929 28.8702 19.9986 28.8702C18.5968 28.8702 17.2544 28.5556 16.0091 27.9354L15.2043 27.5343L11.6597 28.3739L12.4058 24.7523L12.0093 23.9755C11.3627 22.7094 11.0349 21.3405 11.0349 19.9065C11.0349 17.5121 11.9673 15.2612 13.6602 13.5682C15.338 11.8902 17.6258 10.9429 19.9988 10.9429C22.3929 10.9429 24.644 11.8753 26.3368 13.5682C28.0297 15.2611 28.9622 17.5122 28.9622 19.9062C28.9623 22.2794 28.0148 24.567 26.3369 26.2449Z" fill="white"/>
<path d="M25.5541 22.3892L23.3366 21.7525C23.0452 21.669 22.7312 21.7518 22.5188 21.9682L21.9764 22.5205C21.7478 22.7536 21.401 22.8284 21.0983 22.706C20.0493 22.2815 17.8427 20.3194 17.2795 19.3383C17.1167 19.0552 17.1436 18.7015 17.3433 18.4429L17.8166 17.8304C18.002 17.5906 18.0411 17.2682 17.9185 16.9908L16.9856 14.8808C16.7622 14.3755 16.1164 14.2283 15.6945 14.5852C15.0756 15.1087 14.3413 15.904 14.2522 16.7852C14.0948 18.3389 14.7612 20.2972 17.2805 22.6489C20.1912 25.3659 22.5222 25.7246 24.0401 25.357C24.901 25.1486 25.5889 24.3129 26.0228 23.6284C26.319 23.1615 26.0849 22.5418 25.5541 22.3892Z" fill="white"/>
<path d="M27.8145 11.5396L26.0784 13.3191C26.1667 13.4007 26.2547 13.4828 26.3402 13.5684C28.0331 15.2613 28.9655 17.5124 28.9655 19.9064C28.9655 22.2795 28.018 24.567 26.3402 26.245C24.6473 27.9379 22.3962 28.8703 20.0019 28.8703C18.6 28.8703 17.2577 28.5557 16.0123 27.9355L15.2075 27.5344L11.663 28.374L11.7362 28.0183L8.59766 31.2349C8.66687 31.4429 8.88711 31.5845 9.12375 31.5285L14.9046 30.1589C16.3898 30.8988 18.058 31.326 19.8235 31.353C26.0542 31.4482 31.2495 26.501 31.4438 20.2726C31.5513 16.8246 30.1334 13.7057 27.8145 11.5396Z" fill="#D1D1D1"/>
<path d="M25.5587 22.3891L23.3412 21.7524C23.0498 21.6689 22.7358 21.7517 22.5234 21.9681L21.981 22.5204C21.7524 22.7535 21.4055 22.8283 21.1029 22.7059C20.497 22.4606 19.5052 21.7024 18.6666 20.9165L17.125 22.4966C17.1779 22.5472 17.2306 22.5978 17.2852 22.6488C20.1959 25.3658 22.5269 25.7245 24.0448 25.3569C24.9056 25.1485 25.5936 24.3128 26.0275 23.6283C26.3236 23.1613 26.0895 22.5417 25.5587 22.3891Z" fill="#D1D1D1"/>
</g>
<defs>
<clipPath id="clip0_2978_1773">
<rect width="40" height="40" fill="white"/>
</clipPath>
</defs>
</svg>
