<svg width="24" height="24" viewBox="0 0 24 24" fill="none" xmlns="http://www.w3.org/2000/svg">
<path d="M15.4012 17.5028L23.5525 9.36588L23.6171 9.29413L23.6793 9.21998L23.7367 9.14344L23.7869 9.05973L23.8324 8.97123L23.873 8.88273L23.9065 8.78945L23.9376 8.69617L23.9591 8.6005L23.9783 8.50483L23.9902 8.31109V3.03954L23.9878 2.89603L23.9759 2.75491L23.9615 2.6138L23.9376 2.47268L23.9089 2.33156L23.8706 2.19523L23.8276 2.06129L23.7773 1.92495L23.7223 1.79819L23.6601 1.66903L23.5908 1.54226L23.5166 1.42028L23.4401 1.30308L23.3516 1.19067L23.2607 1.08064L23.165 0.975405L23.0622 0.874949L22.957 0.779277L22.8469 0.688388L22.7321 0.602283L22.6149 0.525745L22.4929 0.451598L22.3662 0.382236L22.237 0.320049L22.1079 0.265037L21.9715 0.214809L21.8376 0.171757L21.6989 0.133488L21.5577 0.102394L21.4166 0.0784759L21.2755 0.064125L21.1344 0.052166L20.9957 0.0497742H15.7169L15.6213 0.052166L15.5232 0.0617332L15.4275 0.0808677L15.3319 0.100002L15.2386 0.131096L15.1453 0.164581L15.0544 0.207634L14.9683 0.253078L14.8846 0.303306L14.8081 0.36071L14.7339 0.422897L14.6622 0.489867L6.51565 8.63159L7.24515 9.3587C7.36474 9.47829 7.28103 9.68638 7.10882 9.68638H3.33932V5.91689C3.33932 5.74707 3.54502 5.66096 3.667 5.78055L4.39651 6.51245L9.58912 1.32461L9.63696 1.27438L9.68001 1.21698L9.71589 1.16197L9.74459 1.09978L9.76851 1.0352L9.78765 0.970622L9.79961 0.903651L9.80439 0.834288V0.762534L9.79961 0.693171L9.78765 0.628593L9.76851 0.561622L9.74459 0.497043L9.7135 0.432464L9.67762 0.375061L9.63457 0.317657L9.58673 0.267429L9.5365 0.221985L9.48149 0.178932L9.4217 0.143055L9.35951 0.109569L9.29732 0.0856513L9.23035 0.0665169L9.16099 0.052166L9.05814 0.0497742H8.00096H3.03556L2.89205 0.052166L2.75094 0.064125L2.60982 0.0784759L2.4687 0.102394L2.32759 0.133488L2.19126 0.171757L2.05492 0.214809L1.92098 0.265037L1.79182 0.320049L1.66266 0.382236L1.5359 0.451598L1.41392 0.525745L1.29672 0.602283L1.18191 0.688388L1.07189 0.779277L0.966645 0.874949L0.86619 0.975405L0.770519 1.08064L0.679629 1.19067L0.593523 1.30308L0.514593 1.42028L0.440448 1.54226L0.371087 1.66903L0.308897 1.79819L0.253887 1.92495L0.201267 2.06129L0.160606 2.19523L0.122336 2.33156L0.0936358 2.47268L0.0697162 2.6138L0.0553659 2.75491L0.0434061 2.89603L0.0410156 3.03954V17.8209L0.0434061 17.919L0.0529754 18.0171L0.0721103 18.1127L0.0936358 18.2084L0.122336 18.2993L0.155822 18.3926L0.198876 18.4835L0.244321 18.5672L0.296938 18.6509L0.351952 18.7322L0.414138 18.8064L0.478717 18.8781L0.550473 18.9427L0.629403 19.0049L0.708329 19.0599L0.792044 19.1101L0.878149 19.158L0.969039 19.1962L1.05993 19.2321L1.1556 19.2584L1.24888 19.2823L1.34695 19.2967L1.44262 19.3062L1.54068 19.3086L1.63874 19.3062L1.73442 19.2967L1.83248 19.2823L1.92576 19.2584L2.02143 19.2321L2.11232 19.1962L2.20321 19.158L2.28932 19.1101L2.37303 19.0599L2.44957 19.0049L2.5285 18.9427L2.60025 18.8781L13.9207 7.56724L13.4017 7.04582C13.2821 6.92623 13.3658 6.72054 13.538 6.72054H17.3099V10.4876C17.3099 10.6575 17.1042 10.7436 16.9846 10.624L16.4632 10.1049L5.14035 21.4134L5.07338 21.4852L5.0112 21.5617L4.95379 21.6407L4.90357 21.7244L4.85573 21.8105L4.81746 21.9014L4.78158 21.9923L4.75528 22.0879L4.73136 22.1788L4.71701 22.2793L4.70744 22.3749L4.70505 22.4754L4.70744 22.5735L4.71701 22.6691L4.73136 22.7672L4.75528 22.8605L4.78158 22.9562L4.81746 23.047L4.85573 23.1355L4.90357 23.224L4.95379 23.3077L5.0112 23.3843L5.07338 23.4632L5.14035 23.535L5.21211 23.5995L5.28626 23.6617L5.36758 23.7191L5.45129 23.7694L5.53501 23.8148L5.6259 23.8579L5.71918 23.8914L5.81246 23.9201L5.90813 23.9416L6.0038 23.9607L6.09947 23.9655L6.121 23.9703L6.20232 23.9727H21.0005L21.144 23.9703L21.2851 23.9583L21.4262 23.944L21.5673 23.9201L21.7084 23.8914L21.8472 23.8531L21.9811 23.8124L22.1174 23.7622L22.2466 23.7072L22.3757 23.645L22.5025 23.5756L22.6245 23.5015L22.7417 23.4249L22.8565 23.3365L22.9665 23.248L23.0718 23.1523L23.1746 23.0518L23.2703 22.9466L23.3612 22.8366L23.4497 22.7218L23.5262 22.6046L23.6004 22.4826L23.6697 22.3558L23.7319 22.2267L23.7869 22.0975L23.8371 21.9636L23.8802 21.8296L23.9185 21.6909L23.9472 21.5498L23.9711 21.4087L23.9854 21.2675L23.9974 21.1264L23.9998 20.9829V16.0175V14.9627L23.9974 14.8934L23.9878 14.824L23.9687 14.7546L23.9472 14.6877L23.9209 14.6255L23.8874 14.5657L23.8491 14.5107L23.8037 14.4557L23.751 14.4078L23.7008 14.3624L23.6338 14.3265L23.5716 14.293L23.5095 14.2643L23.4449 14.2428L23.3803 14.2284L23.3109 14.2189L23.2416 14.2165L23.1722 14.2189L23.1029 14.2284L23.0383 14.2428L22.9713 14.2643L22.9091 14.293L22.8469 14.3265L22.7895 14.3648L22.713 14.4341L17.5204 19.622L18.2523 20.3491C18.3742 20.4687 18.2881 20.6768 18.1183 20.6768H14.3488V16.9097C14.3488 16.7398 14.5545 16.6537 14.6765 16.7733L15.4012 17.5028Z" fill="url(#paint0_linear_3834_24502)"/>
<defs>
<linearGradient id="paint0_linear_3834_24502" x1="2.81205" y1="21.213" x2="23.1053" y2="0.91968" gradientUnits="userSpaceOnUse">
<stop stop-color="#26AF77"/>
<stop offset="1" stop-color="#2C62FF"/>
</linearGradient>
</defs>
</svg>
