<svg width="40" height="40" viewBox="0 0 40 40" fill="none" xmlns="http://www.w3.org/2000/svg">
<path d="M20 40C31.0457 40 40 31.0457 40 20C40 8.9543 31.0457 0 20 0C8.9543 0 0 8.9543 0 20C0 31.0457 8.9543 40 20 40Z" fill="#D22215"/>
<path d="M30.0673 13.3081C29.4675 13.4912 28.8421 13.6484 28.2158 13.8051C23.7713 14.7478 17.8454 12.1889 15.2865 16.364C13.1523 19.6838 12.4785 23.838 10.0508 26.8064L23.0182 39.7738C31.6487 38.4676 38.4692 31.646 39.7741 23.0151L30.0673 13.3081Z" fill="#A81411"/>
<path d="M26.6914 11.9014H13.3087C10.6831 11.9014 8.55469 14.0299 8.55469 16.6554V23.3454C8.55469 25.9711 10.6832 28.0995 13.3087 28.0995H26.6914C29.317 28.0995 31.4455 25.971 31.4455 23.3454V16.6554C31.4455 14.0299 29.317 11.9014 26.6914 11.9014ZM23.4762 20.3259L17.2168 23.3112C17.0499 23.3908 16.8572 23.2693 16.8572 23.0846V16.9272C16.8572 16.7397 17.055 16.6182 17.222 16.703L23.4814 19.875C23.6678 19.9693 23.6645 20.2362 23.4762 20.3259Z" fill="white"/>
<path d="M26.6932 11.9014H19.8672V18.0424L23.4834 19.8748C23.6696 19.9692 23.6662 20.2361 23.478 20.3258L19.8672 22.048V28.0995H26.6932C29.3188 28.0995 31.4473 25.971 31.4473 23.3454V16.6554C31.4473 14.0299 29.3187 11.9014 26.6932 11.9014Z" fill="#D1D1D1"/>
</svg>
