<svg width="31" height="30" viewBox="0 0 31 30" fill="none" xmlns="http://www.w3.org/2000/svg">
<rect x="0.761719" width="30" height="30" rx="15" fill="#2C62FF"/>
<path d="M15.7462 21.6524C14.8782 21.6524 14.0942 21.4984 13.3942 21.1904C12.6942 20.8824 12.1412 20.4554 11.7352 19.9094C11.3432 19.3494 11.1472 18.7124 11.1472 17.9984C11.1472 17.4524 11.2522 16.9764 11.4622 16.5704C11.6722 16.1504 11.9522 15.7864 12.3022 15.4784C12.6522 15.1564 13.0372 14.8834 13.4572 14.6594V14.5754C12.9532 14.1974 12.5262 13.7564 12.1762 13.2524C11.8262 12.7484 11.6512 12.1464 11.6512 11.4464C11.6512 10.7044 11.8262 10.0604 12.1762 9.51439C12.5402 8.96839 13.0372 8.54839 13.6672 8.25439C14.3112 7.96039 15.0392 7.81339 15.8512 7.81339C17.0692 7.81339 18.0422 8.14939 18.7702 8.82139C19.4982 9.47939 19.8622 10.3544 19.8622 11.4464C19.8622 11.8804 19.7712 12.2864 19.5892 12.6644C19.4212 13.0284 19.2042 13.3574 18.9382 13.6514C18.6862 13.9454 18.4062 14.1974 18.0982 14.4074V14.4914C18.5182 14.7154 18.9032 14.9884 19.2532 15.3104C19.6032 15.6184 19.8832 15.9964 20.0932 16.4444C20.3032 16.8784 20.4082 17.3894 20.4082 17.9774C20.4082 18.6774 20.2122 19.3004 19.8202 19.8464C19.4282 20.3924 18.8822 20.8334 18.1822 21.1694C17.4962 21.4914 16.6842 21.6524 15.7462 21.6524ZM15.8092 19.6364C16.1732 19.6364 16.4952 19.5734 16.7752 19.4474C17.0692 19.3074 17.3002 19.1114 17.4682 18.8594C17.6362 18.5934 17.7202 18.2644 17.7202 17.8724C17.7202 17.4524 17.5942 17.1094 17.3422 16.8434C17.0902 16.5634 16.7402 16.3184 16.2922 16.1084C15.8582 15.8984 15.3542 15.6744 14.7802 15.4364C14.4582 15.7024 14.1852 16.0314 13.9612 16.4234C13.7372 16.8154 13.6252 17.2284 13.6252 17.6624C13.6252 18.0684 13.7232 18.4254 13.9192 18.7334C14.1152 19.0274 14.3742 19.2514 14.6962 19.4054C15.0322 19.5594 15.4032 19.6364 15.8092 19.6364ZM16.6072 13.7144C16.9012 13.3784 17.1252 13.0424 17.2792 12.7064C17.4332 12.3704 17.5102 12.0134 17.5102 11.6354C17.5102 11.2714 17.4402 10.9564 17.3002 10.6904C17.1742 10.4104 16.9782 10.1934 16.7122 10.0394C16.4602 9.88539 16.1522 9.80839 15.7882 9.80839C15.3402 9.80839 14.9622 9.94839 14.6542 10.2284C14.3462 10.5084 14.1922 10.9144 14.1922 11.4464C14.1922 11.8384 14.2902 12.1674 14.4862 12.4334C14.6962 12.6994 14.9832 12.9374 15.3472 13.1474C15.7112 13.3434 16.1312 13.5324 16.6072 13.7144Z" fill="white"/>
</svg>
