<svg width="31" height="30" viewBox="0 0 31 30" fill="none" xmlns="http://www.w3.org/2000/svg">
<rect x="0.761719" width="30" height="30" rx="15" fill="#2C62FF"/>
<path d="M15.3106 21.252C14.5826 21.252 13.9316 21.168 13.3576 21C12.7836 20.832 12.2726 20.608 11.8246 20.328C11.3906 20.048 10.9986 19.733 10.6486 19.383L11.9506 17.556C12.3566 17.934 12.7976 18.256 13.2736 18.522C13.7636 18.788 14.3096 18.921 14.9116 18.921C15.3736 18.921 15.7796 18.837 16.1296 18.669C16.4936 18.487 16.7736 18.235 16.9696 17.913C17.1656 17.577 17.2636 17.164 17.2636 16.674C17.2636 15.974 17.0606 15.435 16.6546 15.057C16.2486 14.679 15.7166 14.49 15.0586 14.49C14.6666 14.49 14.3306 14.546 14.0506 14.658C13.7706 14.756 13.4276 14.931 13.0216 15.183L11.7196 14.343L12.0976 7.665H19.5316V10.08H14.5756L14.3446 12.81C14.6106 12.684 14.8626 12.593 15.1006 12.537C15.3386 12.481 15.6116 12.453 15.9196 12.453C16.6756 12.453 17.3756 12.607 18.0196 12.915C18.6636 13.209 19.1746 13.664 19.5526 14.28C19.9446 14.882 20.1406 15.659 20.1406 16.611C20.1406 17.591 19.9166 18.431 19.4686 19.131C19.0206 19.817 18.4256 20.342 17.6836 20.706C16.9556 21.07 16.1646 21.252 15.3106 21.252Z" fill="white"/>
</svg>
