<svg width="31" height="30" viewBox="0 0 31 30" fill="none" xmlns="http://www.w3.org/2000/svg">
<rect x="0.761719" width="30" height="30" rx="15" fill="#2C62FF"/>
<path d="M14.9902 21.6524C14.1362 21.6524 13.3942 21.4984 12.7642 21.1904C12.1342 20.8684 11.6092 20.4974 11.1892 20.0774L12.7222 18.3554C12.9602 18.6214 13.2682 18.8524 13.6462 19.0484C14.0382 19.2304 14.4302 19.3214 14.8222 19.3214C15.3542 19.3214 15.8372 19.1674 16.2712 18.8594C16.7052 18.5514 17.0482 18.0404 17.3002 17.3264C17.5662 16.5984 17.6992 15.6184 17.6992 14.3864C17.6992 13.2804 17.5942 12.4054 17.3842 11.7614C17.1742 11.1174 16.8942 10.6624 16.5442 10.3964C16.2082 10.1164 15.8302 9.97639 15.4102 9.97639C15.0882 9.97639 14.7872 10.0604 14.5072 10.2284C14.2412 10.3824 14.0242 10.6274 13.8562 10.9634C13.7022 11.2994 13.6252 11.7264 13.6252 12.2444C13.6252 12.7344 13.7022 13.1334 13.8562 13.4414C14.0242 13.7354 14.2482 13.9594 14.5282 14.1134C14.8082 14.2534 15.1302 14.3234 15.4942 14.3234C15.8582 14.3234 16.2362 14.2114 16.6282 13.9874C17.0202 13.7634 17.3772 13.3714 17.6992 12.8114L17.8252 14.7434C17.4752 15.2474 17.0202 15.6464 16.4602 15.9404C15.9142 16.2344 15.4102 16.3814 14.9482 16.3814C14.1922 16.3814 13.5132 16.2344 12.9112 15.9404C12.3092 15.6324 11.8402 15.1774 11.5042 14.5754C11.1682 13.9594 11.0002 13.1824 11.0002 12.2444C11.0002 11.3344 11.1962 10.5504 11.5882 9.89239C11.9942 9.22039 12.5262 8.70939 13.1842 8.35939C13.8422 7.99539 14.5702 7.81339 15.3682 7.81339C16.0122 7.81339 16.6282 7.93939 17.2162 8.19139C17.8182 8.44339 18.3502 8.83539 18.8122 9.36739C19.2742 9.89939 19.6452 10.5854 19.9252 11.4254C20.2052 12.2514 20.3452 13.2384 20.3452 14.3864C20.3452 15.6464 20.1982 16.7384 19.9042 17.6624C19.6102 18.5724 19.2112 19.3214 18.7072 19.9094C18.2032 20.4974 17.6292 20.9384 16.9852 21.2324C16.3552 21.5124 15.6902 21.6524 14.9902 21.6524Z" fill="white"/>
</svg>
