<svg width="31" height="30" viewBox="0 0 31 30" fill="none" xmlns="http://www.w3.org/2000/svg">
<rect x="0.761719" width="30" height="30" rx="15" fill="#2C62FF"/>
<path d="M16.2738 21.6524C15.6298 21.6524 15.0068 21.5264 14.4048 21.2744C13.8168 21.0224 13.2848 20.6304 12.8088 20.0984C12.3468 19.5664 11.9758 18.8874 11.6958 18.0614C11.4298 17.2214 11.2968 16.2204 11.2968 15.0584C11.2968 13.7984 11.4438 12.7134 11.7378 11.8034C12.0318 10.8934 12.4238 10.1444 12.9138 9.55639C13.4178 8.96839 13.9918 8.53439 14.6358 8.25439C15.2798 7.96039 15.9518 7.81339 16.6518 7.81339C17.5058 7.81339 18.2478 7.96739 18.8778 8.27539C19.5078 8.58339 20.0258 8.95439 20.4318 9.38839L18.9198 11.1104C18.6818 10.8304 18.3668 10.5994 17.9748 10.4174C17.5968 10.2214 17.2118 10.1234 16.8198 10.1234C16.2878 10.1234 15.7978 10.2844 15.3498 10.6064C14.9158 10.9144 14.5658 11.4254 14.2998 12.1394C14.0478 12.8534 13.9218 13.8264 13.9218 15.0584C13.9218 16.1644 14.0268 17.0394 14.2368 17.6834C14.4468 18.3274 14.7268 18.7894 15.0768 19.0694C15.4268 19.3494 15.8118 19.4894 16.2318 19.4894C16.5538 19.4894 16.8478 19.4054 17.1138 19.2374C17.3798 19.0694 17.5898 18.8174 17.7438 18.4814C17.9118 18.1454 17.9958 17.7184 17.9958 17.2004C17.9958 16.7104 17.9188 16.3184 17.7648 16.0244C17.6108 15.7164 17.3938 15.4924 17.1138 15.3524C16.8338 15.1984 16.5118 15.1214 16.1478 15.1214C15.7838 15.1214 15.4058 15.2404 15.0138 15.4784C14.6218 15.7024 14.2648 16.0874 13.9428 16.6334L13.8168 14.7224C14.1808 14.2044 14.6358 13.8054 15.1818 13.5254C15.7278 13.2314 16.2318 13.0844 16.6938 13.0844C17.4498 13.0844 18.1218 13.2314 18.7098 13.5254C19.3118 13.8194 19.7808 14.2744 20.1168 14.8904C20.4668 15.4924 20.6418 16.2624 20.6418 17.2004C20.6418 18.1244 20.4388 18.9224 20.0328 19.5944C19.6408 20.2524 19.1158 20.7634 18.4578 21.1274C17.7998 21.4774 17.0718 21.6524 16.2738 21.6524Z" fill="white"/>
</svg>
