<svg width="31" height="30" viewBox="0 0 31 30" fill="none" xmlns="http://www.w3.org/2000/svg">
<rect x="0.761719" width="30" height="30" rx="15" fill="#2C62FF"/>
<path d="M6.59146 21V18.669H9.53146V10.626H7.03246V8.841C7.73246 8.701 8.33446 8.54 8.83846 8.358C9.34247 8.162 9.82547 7.931 10.2875 7.665H12.4085V18.669H14.9495V21H6.59146ZM21.2818 21.252C19.8538 21.252 18.7128 20.657 17.8588 19.467C17.0048 18.277 16.5778 16.548 16.5778 14.28C16.5778 11.998 17.0048 10.283 17.8588 9.135C18.7128 7.987 19.8538 7.413 21.2818 7.413C22.6958 7.413 23.8298 7.994 24.6838 9.156C25.5378 10.304 25.9648 12.012 25.9648 14.28C25.9648 16.548 25.5378 18.277 24.6838 19.467C23.8298 20.657 22.6958 21.252 21.2818 21.252ZM21.2818 19.026C21.6458 19.026 21.9748 18.886 22.2688 18.606C22.5768 18.326 22.8148 17.843 22.9828 17.157C23.1508 16.457 23.2348 15.498 23.2348 14.28C23.2348 13.048 23.1508 12.096 22.9828 11.424C22.8148 10.752 22.5768 10.29 22.2688 10.038C21.9748 9.772 21.6458 9.639 21.2818 9.639C20.9038 9.639 20.5608 9.772 20.2528 10.038C19.9588 10.29 19.7278 10.752 19.5598 11.424C19.3918 12.096 19.3078 13.048 19.3078 14.28C19.3078 15.498 19.3918 16.457 19.5598 17.157C19.7278 17.843 19.9588 18.326 20.2528 18.606C20.5608 18.886 20.9038 19.026 21.2818 19.026Z" fill="white"/>
</svg>
