<svg width="31" height="30" viewBox="0 0 31 30" fill="none" xmlns="http://www.w3.org/2000/svg">
<rect x="0.761719" width="30" height="30" rx="15" fill="#2C62FF"/>
<path d="M15.3472 21.6524C14.6332 21.6524 13.9892 21.5684 13.4152 21.4004C12.8412 21.2464 12.3302 21.0294 11.8822 20.7494C11.4342 20.4554 11.0492 20.1264 10.7272 19.7624L12.0712 17.9354C12.4772 18.3274 12.9252 18.6564 13.4152 18.9224C13.9192 19.1884 14.4722 19.3214 15.0742 19.3214C15.7462 19.3214 16.2922 19.1744 16.7122 18.8804C17.1322 18.5724 17.3422 18.1454 17.3422 17.5994C17.3422 17.1934 17.2372 16.8434 17.0272 16.5494C16.8172 16.2414 16.4462 16.0034 15.9142 15.8354C15.3822 15.6674 14.6262 15.5834 13.6462 15.5834V13.5254C14.4722 13.5254 15.1162 13.4484 15.5782 13.2944C16.0542 13.1264 16.3902 12.9024 16.5862 12.6224C16.7962 12.3424 16.9012 12.0134 16.9012 11.6354C16.9012 11.1314 16.7472 10.7464 16.4392 10.4804C16.1312 10.2004 15.7042 10.0604 15.1582 10.0604C14.6682 10.0604 14.2202 10.1654 13.8142 10.3754C13.4082 10.5854 13.0022 10.8794 12.5962 11.2574L11.1262 9.51439C11.7422 8.98239 12.3862 8.56939 13.0582 8.27539C13.7302 7.96739 14.4722 7.81339 15.2842 7.81339C16.1802 7.81339 16.9642 7.95339 17.6362 8.23339C18.3082 8.51339 18.8332 8.91939 19.2112 9.45139C19.5892 9.98339 19.7782 10.6414 19.7782 11.4254C19.7782 12.1254 19.5822 12.7274 19.1902 13.2314C18.7982 13.7214 18.2452 14.1204 17.5312 14.4284V14.5124C18.0492 14.6524 18.5112 14.8694 18.9172 15.1634C19.3232 15.4574 19.6382 15.8214 19.8622 16.2554C20.1002 16.6894 20.2192 17.1934 20.2192 17.7674C20.2192 18.5934 19.9952 19.3004 19.5472 19.8884C19.1132 20.4624 18.5252 20.9034 17.7832 21.2114C17.0412 21.5054 16.2292 21.6524 15.3472 21.6524Z" fill="white"/>
</svg>
