<svg width="31" height="30" viewBox="0 0 31 30" fill="none" xmlns="http://www.w3.org/2000/svg">
<rect x="0.761719" width="30" height="30" rx="15" fill="#2C62FF"/>
<path d="M6.09146 21V18.669H9.03146V10.626H6.53246V8.841C7.23246 8.701 7.83446 8.54 8.33846 8.358C8.84247 8.162 9.32547 7.931 9.78746 7.665H11.9085V18.669H14.4495V21H6.09146ZM16.0568 21V19.341C17.2328 18.235 18.2618 17.234 19.1438 16.338C20.0258 15.428 20.7118 14.602 21.2018 13.86C21.6918 13.118 21.9368 12.418 21.9368 11.76C21.9368 11.088 21.7618 10.57 21.4118 10.206C21.0618 9.842 20.5718 9.66 19.9418 9.66C19.4658 9.66 19.0248 9.8 18.6188 10.08C18.2128 10.36 17.8418 10.689 17.5058 11.067L15.9308 9.513C16.5748 8.813 17.2328 8.288 17.9048 7.938C18.5908 7.588 19.4028 7.413 20.3408 7.413C21.2088 7.413 21.9648 7.588 22.6088 7.938C23.2668 8.274 23.7778 8.757 24.1418 9.387C24.5058 10.017 24.6878 10.759 24.6878 11.613C24.6878 12.369 24.4778 13.139 24.0578 13.923C23.6378 14.707 23.0848 15.505 22.3988 16.317C21.7268 17.115 20.9988 17.92 20.2148 18.732C20.5648 18.69 20.9428 18.655 21.3488 18.627C21.7688 18.599 22.1398 18.585 22.4618 18.585H25.3388V21H16.0568Z" fill="white"/>
</svg>
