<svg width="31" height="30" viewBox="0 0 31 30" fill="none" xmlns="http://www.w3.org/2000/svg">
<rect x="0.761719" width="30" height="30" rx="15" fill="#2C62FF"/>
<path d="M11.0422 21.4004V19.7414C12.2182 18.6354 13.2472 17.6344 14.1292 16.7384C15.0112 15.8284 15.6972 15.0024 16.1872 14.2604C16.6772 13.5184 16.9222 12.8184 16.9222 12.1604C16.9222 11.4884 16.7472 10.9704 16.3972 10.6064C16.0472 10.2424 15.5572 10.0604 14.9272 10.0604C14.4512 10.0604 14.0102 10.2004 13.6042 10.4804C13.1982 10.7604 12.8272 11.0894 12.4912 11.4674L10.9162 9.91339C11.5602 9.21339 12.2182 8.68839 12.8902 8.33839C13.5762 7.98839 14.3882 7.81339 15.3262 7.81339C16.1942 7.81339 16.9502 7.98839 17.5942 8.33839C18.2522 8.67439 18.7632 9.15739 19.1272 9.78739C19.4912 10.4174 19.6732 11.1594 19.6732 12.0134C19.6732 12.7694 19.4632 13.5394 19.0432 14.3234C18.6232 15.1074 18.0702 15.9054 17.3842 16.7174C16.7122 17.5154 15.9842 18.3204 15.2002 19.1324C15.5502 19.0904 15.9282 19.0554 16.3342 19.0274C16.7542 18.9994 17.1252 18.9854 17.4472 18.9854H20.3242V21.4004H11.0422Z" fill="white"/>
</svg>
