<svg width="31" height="30" viewBox="0 0 31 30" fill="none" xmlns="http://www.w3.org/2000/svg">
<rect x="0.287109" width="30" height="30" rx="15" fill="#2C62FF"/>
<path d="M10.6191 21.4004V7.70839H15.2181C16.1561 7.70839 17.0031 7.81339 17.7591 8.02339C18.5151 8.21939 19.1101 8.56939 19.5441 9.07339C19.9921 9.56339 20.2161 10.2354 20.2161 11.0894C20.2161 11.7194 20.0481 12.3214 19.7121 12.8954C19.3901 13.4554 18.9421 13.8404 18.3681 14.0504V14.1344C19.0961 14.3024 19.6981 14.6524 20.1741 15.1844C20.6641 15.7164 20.9091 16.4444 20.9091 17.3684C20.9091 18.2924 20.6711 19.0554 20.1951 19.6574C19.7191 20.2454 19.0821 20.6864 18.2841 20.9804C17.4861 21.2604 16.5901 21.4004 15.5961 21.4004H10.6191ZM13.4961 19.1744H15.3441C16.2401 19.1744 16.9191 19.0134 17.3811 18.6914C17.8431 18.3554 18.0741 17.8514 18.0741 17.1794C18.0741 16.5494 17.8431 16.0944 17.3811 15.8144C16.9191 15.5204 16.2401 15.3734 15.3441 15.3734H13.4961V19.1744ZM13.4961 13.2314H15.0501C15.8621 13.2314 16.4501 13.0774 16.8141 12.7694C17.1921 12.4614 17.3811 12.0414 17.3811 11.5094C17.3811 10.9354 17.1851 10.5294 16.7931 10.2914C16.4151 10.0534 15.8411 9.93439 15.0711 9.93439H13.4961V13.2314Z" fill="white"/>
</svg>
