<svg width="31" height="30" viewBox="0 0 31 30" fill="none" xmlns="http://www.w3.org/2000/svg">
<rect x="0.287109" width="30" height="30" rx="15" fill="#2C62FF"/>
<path d="M16.5039 21.6524C15.3419 21.6524 14.2849 21.3864 13.3329 20.8544C12.3809 20.3224 11.6179 19.5314 11.0439 18.4814C10.4699 17.4314 10.1829 16.1434 10.1829 14.6174C10.1829 13.4834 10.3509 12.4754 10.6869 11.5934C11.0229 10.7114 11.4849 9.96239 12.0729 9.34639C12.6749 8.71639 13.3609 8.24739 14.1309 7.93939C14.9149 7.61739 15.7339 7.45639 16.5879 7.45639C17.4699 7.45639 18.2539 7.63139 18.9399 7.98139C19.6399 8.33139 20.2139 8.74439 20.6619 9.22039L19.1289 11.0684C18.7789 10.7324 18.4079 10.4594 18.0159 10.2494C17.6239 10.0394 17.1689 9.93439 16.6509 9.93439C15.9929 9.93439 15.3979 10.1234 14.8659 10.5014C14.3339 10.8654 13.9139 11.3904 13.6059 12.0764C13.2979 12.7624 13.1439 13.5814 13.1439 14.5334C13.1439 15.4994 13.2839 16.3324 13.5639 17.0324C13.8439 17.7184 14.2429 18.2434 14.7609 18.6074C15.2929 18.9714 15.9089 19.1534 16.6089 19.1534C17.1829 19.1534 17.6939 19.0274 18.1419 18.7754C18.6039 18.5234 19.0099 18.2084 19.3599 17.8304L20.8929 19.6364C20.3329 20.2944 19.6819 20.7984 18.9399 21.1484C18.1979 21.4844 17.3859 21.6524 16.5039 21.6524Z" fill="white"/>
</svg>
