<svg width="31" height="30" viewBox="0 0 31 30" fill="none" xmlns="http://www.w3.org/2000/svg">
<rect x="0.287109" width="30" height="30" rx="15" fill="#2C62FF"/>
<path d="M10.3114 21.4004V7.70839H14.1124C15.5124 7.70839 16.7234 7.95339 17.7454 8.44339C18.7674 8.91939 19.5514 9.66139 20.0974 10.6694C20.6574 11.6634 20.9374 12.9374 20.9374 14.4914C20.9374 16.0454 20.6574 17.3334 20.0974 18.3554C19.5514 19.3774 18.7814 20.1404 17.7874 20.6444C16.7934 21.1484 15.6244 21.4004 14.2804 21.4004H10.3114ZM13.1884 19.0694H13.9444C14.7564 19.0694 15.4634 18.9154 16.0654 18.6074C16.6674 18.2994 17.1364 17.8164 17.4724 17.1584C17.8084 16.4864 17.9764 15.5974 17.9764 14.4914C17.9764 13.3854 17.8084 12.5104 17.4724 11.8664C17.1364 11.2084 16.6674 10.7394 16.0654 10.4594C15.4634 10.1654 14.7564 10.0184 13.9444 10.0184H13.1884V19.0694Z" fill="white"/>
</svg>
