<svg width="31" height="30" viewBox="0 0 31 30" fill="none" xmlns="http://www.w3.org/2000/svg">
<rect x="0.287109" width="30" height="30" rx="15" fill="#2C62FF"/>
<path d="M16.2447 21.6524C14.9847 21.6524 13.8507 21.3864 12.8427 20.8544C11.8487 20.3224 11.0577 19.5314 10.4697 18.4814C9.89568 17.4314 9.60868 16.1434 9.60868 14.6174C9.60868 13.4834 9.77668 12.4754 10.1127 11.5934C10.4627 10.7114 10.9387 9.96239 11.5407 9.34639C12.1567 8.71639 12.8637 8.24739 13.6617 7.93939C14.4597 7.61739 15.3137 7.45639 16.2237 7.45639C17.2177 7.45639 18.0647 7.63839 18.7647 8.00239C19.4647 8.35239 20.0387 8.75839 20.4867 9.22039L18.9537 11.0684C18.6177 10.7464 18.2467 10.4804 17.8407 10.2704C17.4347 10.0464 16.9307 9.93439 16.3287 9.93439C15.5867 9.93439 14.9287 10.1234 14.3547 10.5014C13.7947 10.8654 13.3537 11.3904 13.0317 12.0764C12.7237 12.7624 12.5697 13.5814 12.5697 14.5334C12.5697 15.4994 12.7167 16.3324 13.0107 17.0324C13.3047 17.7184 13.7457 18.2434 14.3337 18.6074C14.9217 18.9714 15.6567 19.1534 16.5387 19.1534C16.8467 19.1534 17.1407 19.1184 17.4207 19.0484C17.7147 18.9644 17.9527 18.8454 18.1347 18.6914V16.1294H15.7827V13.7774H20.7177V19.9934C20.2557 20.4554 19.6327 20.8474 18.8487 21.1694C18.0647 21.4914 17.1967 21.6524 16.2447 21.6524Z" fill="white"/>
</svg>
