<svg width="31" height="30" viewBox="0 0 31 30" fill="none" xmlns="http://www.w3.org/2000/svg">
<rect x="0.287109" width="30" height="30" rx="15" fill="#2C62FF"/>
<path d="M15.2001 21.252C14.1921 21.252 13.3311 21.049 12.6171 20.643C11.9171 20.237 11.3361 19.628 10.8741 18.816L12.8481 17.367C13.1141 17.843 13.4151 18.193 13.7511 18.417C14.1011 18.641 14.4651 18.753 14.8431 18.753C15.4171 18.753 15.8511 18.578 16.1451 18.228C16.4531 17.864 16.6071 17.213 16.6071 16.275V7.308H19.5051V16.527C19.5051 17.395 19.3511 18.186 19.0431 18.9C18.7491 19.614 18.2801 20.188 17.6361 20.622C17.0061 21.042 16.1941 21.252 15.2001 21.252Z" fill="white"/>
</svg>
