<svg width="24" height="14" viewBox="0 0 24 14" fill="none" xmlns="http://www.w3.org/2000/svg">
<path d="M0.748012 11.0435C1.14856 10.7458 1.51704 10.4072 1.84749 10.0333C2.18539 9.60609 8.92407 1.27946 9.1044 1.0256C9.28473 0.771741 10.1829 0.351562 12.2943 0.351562C14.4057 0.351562 15.3494 0.799755 15.5735 1.11489C15.7976 1.43003 22.7183 10.4605 22.8759 10.5953C23.0335 10.7301 23.2576 11.0207 23.4817 11.201C23.7057 11.3814 24.2012 11.9434 23.6392 12.3023C23.0772 12.6612 21.2512 13.9865 12.6094 13.9865C3.96766 13.9865 1.10692 12.3863 0.748012 11.9644C0.389106 11.5424 0.502905 11.2431 0.748012 11.0435Z" fill="#4573FF"/>
<path d="M15.0663 0.903881C15.0663 1.14724 13.8163 1.34682 12.2739 1.34682C10.7315 1.34682 9.47266 1.14724 9.47266 0.903881C9.47266 0.660525 10.7227 0.460938 12.2739 0.460938C13.8251 0.460938 15.0663 0.655272 15.0663 0.903881Z" fill="#2C62FF"/>
<path d="M12.2739 0.574736C13.6937 0.574736 14.8668 0.749809 15.0436 0.9599C15.0573 0.944364 15.0654 0.924602 15.0663 0.90388C15.0663 0.658773 13.8163 0.460938 12.2739 0.460938C10.7315 0.460938 9.47266 0.658773 9.47266 0.90388C9.47367 0.924931 9.48239 0.94487 9.49716 0.9599C9.68099 0.742806 10.854 0.574736 12.2739 0.574736Z" fill="#4573FF"/>
<path d="M15.1928 0.955078C15.1928 0.955078 15.1053 1.3455 13.4648 1.42779C15.0073 1.37351 15.3189 1.31048 15.3679 1.2387C15.4169 1.16692 15.2944 1.00585 15.1928 0.955078Z" fill="#8CDDF8"/>
<path d="M9.36458 0.955078C9.36458 0.955078 9.44511 1.3455 10.9665 1.42779C9.53615 1.37351 9.24728 1.31048 9.20176 1.2387C9.15624 1.16692 9.27003 1.00585 9.36458 0.955078Z" fill="#8CDDF8"/>
<path d="M13.8633 1.56586C13.8633 1.56586 15.0766 1.48882 15.2639 1.42755C15.4512 1.36627 15.5107 1.26998 15.4915 1.13867C15.8049 1.57461 22.7764 10.6243 22.9462 10.8134C23.1161 11.0025 23.5818 11.4489 23.6763 11.5434C23.7708 11.638 23.8951 11.8936 23.7428 12.0687C23.5905 12.2437 22.386 13.1681 19.2854 13.4903C18.1597 11.2073 13.8633 1.56586 13.8633 1.56586Z" fill="#2C62FF"/>
<path d="M12.3532 1.62176C12.3532 1.62176 13.1883 1.62176 13.3494 1.59375C13.4457 1.76883 15.7585 13.772 15.7585 13.772C15.7585 13.772 11.7475 13.9997 10.3906 13.8386C10.7093 12.1596 12.3532 1.62176 12.3532 1.62176Z" fill="#8CDDF8"/>
<path d="M9.10997 1.16309C9.10997 1.16309 8.91914 1.4117 9.36734 1.45371L10.2427 1.53775L4.33915 13.2136C4.33915 13.2136 2.82999 12.8792 2.23823 12.6306C1.64648 12.382 1.16502 12.1894 0.765843 11.7692C0.687058 11.6624 0.517234 11.3788 0.73783 11.2282C1.11354 10.9504 1.46496 10.6412 1.78829 10.3038C1.98962 10.0622 9.10997 1.16309 9.10997 1.16309Z" fill="#8CDDF8"/>
<path d="M22.2678 9.83018L21.9002 9.35922C21.454 9.7035 20.9385 9.94716 20.3893 10.0735C18.9537 10.4237 15.0109 10.7388 11.9191 10.681C8.82725 10.6233 4.86352 10.2363 3.70627 9.60958C3.35571 9.42682 3.04177 9.18112 2.78012 8.88477L2.44922 9.29269C2.69952 9.64503 3.03665 9.92667 3.4279 10.1103C4.62367 10.6355 7.54394 11.2675 11.9839 11.2483C16.5551 11.229 19.6382 10.8981 21.0126 10.4709C21.4728 10.3516 21.9012 10.1329 22.2678 9.83018Z" fill="#2C62FF"/>
<path d="M21.0047 10.358C19.6304 10.7852 16.5473 11.1161 11.9761 11.1353C7.53612 11.1546 4.62285 10.5296 3.42008 9.99733C3.05142 9.82521 2.7309 9.56484 2.48692 9.23926L2.44141 9.29353C2.69171 9.64586 3.02884 9.92751 3.42008 10.1111C4.61585 10.6364 7.53612 11.2684 11.9761 11.2491C16.5473 11.2299 19.6304 10.899 21.0047 10.4718C21.4676 10.3529 21.8985 10.1335 22.267 9.82926L22.2128 9.75923C21.8552 10.0392 21.4441 10.2429 21.0047 10.358Z" fill="#8CDDF8"/>
<path d="M19.9366 6.81506L19.6565 6.46491C19.3148 6.72743 18.9208 6.91369 18.501 7.01115C17.4033 7.27376 14.3885 7.51887 12.0232 7.4751C9.65793 7.43133 6.63086 7.1337 5.75548 6.64699C5.48498 6.50871 5.24271 6.32107 5.04117 6.09375L4.78906 6.40713C4.98063 6.67673 5.2388 6.89207 5.53839 7.03216C6.45229 7.43833 8.68976 7.91629 12.0792 7.90754C15.5808 7.89353 17.932 7.63968 18.9825 7.31228C19.3334 7.21926 19.6593 7.04943 19.9366 6.81506Z" fill="#2C62FF"/>
<path d="M18.9751 7.19308C17.9246 7.52048 15.5663 7.77433 12.0718 7.78834C8.67709 7.80234 6.44488 7.32438 5.53098 6.91295C5.25475 6.78385 5.01432 6.58911 4.83068 6.3457C4.81492 6.36496 4.80091 6.38422 4.78516 6.40173C4.97672 6.67132 5.23489 6.88667 5.53448 7.02676C6.44838 7.43293 8.68585 7.9109 12.0753 7.90214C15.5768 7.88814 17.9281 7.63427 18.9786 7.30687C19.3328 7.21686 19.6624 7.04877 19.9432 6.81491L19.889 6.74663C19.6171 6.95488 19.3064 7.10668 18.9751 7.19308Z" fill="#8CDDF8"/>
<path d="M17.5847 3.76382L17.3921 3.51522C17.1572 3.69619 16.8861 3.82455 16.5973 3.89163C15.841 4.0667 13.7663 4.24178 12.1381 4.21202C10.5099 4.18226 8.42474 3.97742 7.81548 3.64828C7.62928 3.5526 7.46247 3.42318 7.32351 3.2666L7.14844 3.48195C7.28016 3.66735 7.45743 3.81568 7.66316 3.91263C8.29168 4.19276 9.82885 4.52191 12.1661 4.5114C14.5734 4.5009 16.1929 4.33632 16.9194 4.10172C17.1635 4.03969 17.3907 3.92429 17.5847 3.76382Z" fill="#2C62FF"/>
<path d="M16.9233 3.98193C16.2003 4.20778 14.5773 4.38111 12.17 4.39161C9.83276 4.40212 8.29559 4.07296 7.66707 3.79284C7.4831 3.70783 7.32221 3.57995 7.19787 3.41992L7.15234 3.47595C7.28407 3.66135 7.46134 3.80969 7.66707 3.90664C8.29559 4.18677 9.83276 4.51591 12.17 4.50541C14.5773 4.4949 16.1968 4.33034 16.9233 4.09573C17.1667 4.03346 17.3933 3.91806 17.5869 3.75782L17.5326 3.6878C17.3501 3.82369 17.1433 3.92352 16.9233 3.98193Z" fill="#8CDDF8"/>
<path d="M23.6396 11.8466C23.0776 12.2055 21.2515 13.5308 12.6098 13.5308C3.96799 13.5308 1.10724 11.9359 0.748333 11.5105C0.677527 11.4312 0.618557 11.3422 0.573257 11.2461C0.475214 11.4212 0.490971 11.6645 0.748333 11.9657C1.10724 12.3928 3.98374 13.9878 12.6168 13.9878C21.2498 13.9878 23.0776 12.6625 23.6466 12.3036C23.7035 12.2748 23.7541 12.2349 23.7952 12.1861C23.8364 12.1374 23.8673 12.0808 23.8861 12.0198C23.9049 11.9589 23.9112 11.8947 23.9046 11.8313C23.898 11.7678 23.8788 11.7064 23.8479 11.6505C23.7947 11.7312 23.7233 11.7984 23.6396 11.8466Z" fill="#2C62FF"/>
<path d="M23.6401 12.0746C23.0781 12.4248 21.252 13.7589 12.6103 13.7589C3.96852 13.7589 1.10077 12.1639 0.741863 11.7367C0.640673 11.6274 0.567401 11.4953 0.528275 11.3516C0.486257 11.5161 0.52827 11.7192 0.741863 11.9643C1.10077 12.3915 3.97727 13.9865 12.6103 13.9865C21.2433 13.9865 23.0711 12.6611 23.6401 12.3022C23.7342 12.2552 23.8095 12.1776 23.8537 12.0822C23.8979 11.9868 23.9084 11.8792 23.8834 11.777C23.8428 11.9034 23.7559 12.0097 23.6401 12.0746Z" fill="#2C62FF"/>
<path d="M2.66211 9.02307C2.93582 9.31532 3.25221 9.56442 3.60052 9.76191C4.03646 9.9615 5.93428 10.5007 8.05796 10.5305L8.96836 10.541C6.68186 10.3659 4.51092 10.0455 3.70557 9.60959C3.35501 9.42683 3.04107 9.18113 2.77941 8.88477L2.66211 9.02307Z" fill="#4573FF"/>
<path d="M8.89221 7.28252C7.4916 7.1407 6.26607 6.92361 5.74084 6.64699C5.47033 6.50871 5.22806 6.32107 5.02652 6.09375L4.96875 6.16728C5.09706 6.33522 5.25061 6.48228 5.42394 6.60322C5.68831 6.76429 6.38161 7.02866 7.44433 7.18098C7.92468 7.24186 8.40807 7.27575 8.89221 7.28252Z" fill="#4573FF"/>
<path d="M7.2793 3.32438C7.40337 3.47722 7.557 3.60346 7.73099 3.69554C8.23001 3.91782 8.76248 4.05567 9.30667 4.10347C9.8259 4.14923 10.3472 4.16734 10.8684 4.15775C9.56229 4.07196 8.27022 3.89514 7.81328 3.64828C7.62708 3.5526 7.46027 3.42318 7.32131 3.2666L7.2793 3.32438Z" fill="#4573FF"/>
</svg>
