<svg width="24" height="24" viewBox="0 0 24 24" fill="none" xmlns="http://www.w3.org/2000/svg">
<path d="M23.6831 15.3569C23.8424 15.4479 23.8459 15.742 23.6831 16.0116C23.5203 16.2812 23.2717 16.4265 23.1123 16.3355C22.953 16.2445 22.9513 15.9486 23.1123 15.679C23.2734 15.4094 23.5238 15.2711 23.6831 15.3569Z" fill="#2D2C2C"/>
<path d="M2.27094 19.5199C2.27094 19.7493 2.01182 19.9348 1.69493 19.9348C1.37805 19.9348 1.11719 19.7493 1.11719 19.5199C1.11719 19.2906 1.3763 19.105 1.69493 19.105C2.01357 19.105 2.27094 19.2976 2.27094 19.5199Z" fill="#2D2C2C"/>
<path d="M17.9338 22.8272C17.9338 23.1336 17.6222 23.3804 17.2335 23.3804C16.8448 23.3804 16.5332 23.1336 16.5332 22.8272C16.5332 22.5208 16.8448 22.2739 17.2335 22.2739C17.6222 22.2739 17.9338 22.5208 17.9338 22.8272Z" fill="#2D2C2C"/>
<path d="M9.65451 21.1641C9.65451 21.4704 9.34288 21.7173 8.95421 21.7173C8.56554 21.7173 8.25391 21.4704 8.25391 21.1641C8.25391 20.8577 8.56554 20.6108 8.95421 20.6108C9.34288 20.6108 9.65451 20.8594 9.65451 21.1641Z" fill="#2D2C2C"/>
<path d="M20.9081 18.7721C21.0972 18.8824 21.0989 19.229 20.9081 19.5494C20.7173 19.8698 20.4214 20.0396 20.2323 19.9311C20.0432 19.8225 20.0415 19.4741 20.2323 19.1555C20.4231 18.8369 20.7208 18.6688 20.9081 18.7721Z" fill="#2D2C2C"/>
<path d="M0.90625 19.1227V18.1948C0.90625 17.976 0.906253 17.8202 1.05157 17.6696C1.19688 17.519 7.07944 11.1795 7.3403 10.8049C7.38232 10.6298 7.47686 10.6631 7.58541 10.6788C7.69396 10.6946 23.4876 13.7409 23.6276 13.8039C23.7317 13.8423 23.8192 13.9157 23.8751 14.0115C23.931 14.1074 23.9518 14.2197 23.934 14.3292C23.913 14.6601 23.871 15.1153 23.871 15.2308C23.8666 15.3385 23.8307 15.4426 23.7677 15.5302C23.7152 15.6037 18.3158 22.3074 18.1092 22.5577C17.9027 22.8081 17.4772 23.2108 16.6071 22.9919C15.737 22.7731 1.51027 19.5674 1.51027 19.5674C1.51027 19.5674 0.90625 19.5394 0.90625 19.1227Z" fill="#3F3F3F"/>
<path d="M23.8714 14.229C23.8669 14.3373 23.831 14.4419 23.7681 14.5301C23.7156 14.6019 18.3162 21.3073 18.1096 21.5559C17.9031 21.8046 17.4776 22.209 16.6075 21.9919C15.7374 21.7748 1.51067 18.5726 1.51067 18.5726C1.51067 18.5726 0.911907 18.5446 0.910156 18.1262V19.1224C0.910156 19.5443 1.51067 19.5723 1.51067 19.5723C1.51067 19.5723 15.7391 22.7745 16.611 22.9916C17.4829 23.2087 17.9048 22.806 18.1131 22.5574C18.3215 22.3088 23.7156 15.6033 23.7716 15.5298C23.8346 15.4423 23.8705 15.3382 23.8749 15.2304C23.8749 15.1149 23.9169 14.6597 23.9379 14.3288C23.9476 14.2278 23.9295 14.1261 23.8854 14.0347C23.8767 14.1205 23.8714 14.1922 23.8714 14.229Z" fill="#3F3F3F"/>
<path d="M6.24805 16.6489C6.24805 16.6489 7.22498 18.7166 11.2517 19.0124C15.2785 19.3083 17.1711 18.6623 18.5034 16.9448C18.239 18.2649 17.7908 20.9593 17.6665 21.376C17.5422 21.7926 17.2481 22.0885 16.7054 21.966C16.1626 21.8434 8.07584 19.8983 7.56462 19.7075C7.0534 19.5167 6.96061 19.2383 6.80654 18.8216C6.65247 18.4049 6.24805 16.6489 6.24805 16.6489Z" fill="#2D2C2C"/>
<path d="M6.06234 16.0431C6.06234 16.0431 8.96335 4.10461 9.10866 3.52511C9.33891 2.7876 9.78688 2.137 10.3937 1.6588C11.0047 1.21236 11.4617 0.958496 12.4246 0.958496C13.2196 0.967635 13.9929 1.21929 14.6411 1.67981C15.281 2.15624 15.7412 2.83487 15.9471 3.60565C16.1117 4.35147 18.6818 15.6264 18.7659 16.0361C18.8499 16.4457 18.4962 19.2697 12.4123 19.1034C6.32845 18.9371 6.00106 16.3214 6.06234 16.0431Z" fill="#4573FF"/>
<path d="M14.3265 1.92294C14.3265 2.32562 13.5107 2.65301 12.5022 2.65301C11.4938 2.65301 10.6797 2.32562 10.6797 1.92294C10.6797 1.52026 11.4955 1.19287 12.5022 1.19287C13.5089 1.19287 14.3265 1.51851 14.3265 1.92294Z" fill="#2C62FF"/>
<path d="M12.5022 1.37845C13.4319 1.37845 14.197 1.65681 14.3125 2.01572C14.3216 1.98561 14.3263 1.95437 14.3265 1.92293C14.3265 1.51851 13.5107 1.19287 12.5022 1.19287C11.4938 1.19287 10.6797 1.51851 10.6797 1.92293C10.6799 1.95437 10.6846 1.98561 10.6937 2.01572C10.8092 1.65681 11.5743 1.37845 12.5022 1.37845Z" fill="#8CDDF8"/>
<path d="M12.4075 4.52944C12.4075 4.5953 12.3879 4.65968 12.3513 4.71442C12.3147 4.76916 12.2626 4.8118 12.2017 4.83693C12.1408 4.86205 12.0739 4.86854 12.0093 4.85556C11.9447 4.84259 11.8854 4.81072 11.839 4.76403C11.7925 4.71733 11.761 4.6579 11.7484 4.59325C11.7357 4.52861 11.7426 4.46167 11.768 4.40092C11.7935 4.34016 11.8364 4.28833 11.8913 4.25199C11.9462 4.21565 12.0107 4.19644 12.0766 4.19678C12.1202 4.19678 12.1634 4.2054 12.2036 4.22214C12.2439 4.23888 12.2804 4.26341 12.3112 4.29432C12.3419 4.32524 12.3663 4.36191 12.3828 4.40226C12.3993 4.44261 12.4077 4.48584 12.4075 4.52944Z" fill="#8CDDF8"/>
<path d="M12.9947 3.76275C12.9947 3.95359 12.7636 4.11291 12.4817 4.11291C12.1999 4.11291 11.9688 3.95709 11.9688 3.76275C11.9688 3.56842 12.1981 3.4126 12.4817 3.4126C12.7653 3.4126 12.9947 3.57017 12.9947 3.76275Z" fill="#8CDDF8"/>
<path d="M10.2278 1.9751C10.2278 1.9751 9.48197 2.67541 9.26487 3.43524C9.04778 4.19507 6.2168 15.8866 6.2168 16.074C6.2168 16.2613 6.29558 16.9756 7.35304 17.7687C7.89577 15.3124 10.2278 1.9751 10.2278 1.9751Z" fill="#2C62FF"/>
<path d="M14.5957 1.77197C15.0698 2.13171 15.449 2.60164 15.7004 3.14106C16.0506 3.91489 18.1253 13.6456 18.1253 13.6456C17.9673 13.9127 17.8963 14.2223 17.9222 14.5315C17.9379 14.8572 18.0465 15.8831 17.9694 16.1177C17.6736 14.4072 15.7495 3.75908 15.5061 3.19884C15.1104 2.29019 14.7358 1.91203 14.5957 1.77197Z" fill="#8CDDF8"/>
<path d="M18.1911 13.8003C18.0709 14.0202 18.0157 14.2698 18.0318 14.5199C18.0615 14.9243 18.1543 15.7787 18.1088 16.0956C18.0633 16.4124 17.7429 17.6607 15.4652 18.0844C13.2697 18.4941 12.8233 18.5676 12.7305 19.0648C13.5352 19.0748 14.3394 19.0162 15.1343 18.8898C16.0849 18.7445 17.2352 18.3295 17.8917 17.7133C18.627 17.0252 18.7303 16.507 18.6988 16.071C18.6673 15.6351 18.1911 13.8003 18.1911 13.8003Z" fill="#2C62FF"/>
<path d="M17.9849 21.6928C17.7468 21.9239 17.3302 22.1725 16.6071 21.9921C15.7317 21.775 1.50677 18.5729 1.50677 18.5729C1.50677 18.5729 0.908001 18.5449 0.90625 18.1265V19.1226C0.90625 19.5446 1.50677 19.5726 1.50677 19.5726C1.50677 19.5726 15.7352 22.7747 16.6071 22.9918C17.3302 23.1669 17.7468 22.9235 17.9849 22.6924V21.6928Z" fill="#3F3F3F"/>
<path d="M1.51067 18.6964C1.51067 18.6964 15.7391 21.8985 16.611 22.1156C17.4829 22.3327 17.9048 21.9283 18.1132 21.6797C18.3215 21.4311 23.7156 14.7256 23.7716 14.6538C23.8313 14.5777 23.8731 14.4891 23.8942 14.3947C23.9192 14.2737 23.9162 14.1485 23.8854 14.0288C23.8854 14.1198 23.8749 14.1916 23.8749 14.2284C23.8704 14.3367 23.8345 14.4413 23.7716 14.5295C23.7191 14.6013 18.3197 21.3068 18.1132 21.5554C17.9066 21.804 17.4811 22.2084 16.611 21.9913C15.7409 21.7742 1.51067 18.5721 1.51067 18.5721C1.51067 18.5721 0.911911 18.544 0.91016 18.1256V18.2464C0.908409 18.6683 1.51067 18.6964 1.51067 18.6964Z" fill="#4573FF"/>
</svg>
