<svg width="23" height="26" viewBox="0 0 23 26" fill="none" xmlns="http://www.w3.org/2000/svg">
<path d="M12.0955 23.8933C6.6804 23.8933 4.56723 22.6013 3.73737 21.5175C3.10709 20.6877 3.23139 19.9979 3.28567 19.8053C3.55703 18.8266 8.81808 2.32917 9.04217 1.62711L9.05793 1.58685C9.18223 1.23669 9.51663 0.286027 11.6281 0.259766H11.7226C13.6869 0.259766 14.1141 1.09488 14.2962 1.45028L14.3295 1.51331C14.5046 1.8337 20.093 19.2415 20.1928 19.7738C20.2458 20.1349 20.219 20.5032 20.1143 20.8529C20.0097 21.2026 19.8297 21.525 19.587 21.7977C18.4298 23.1895 15.9104 23.8986 12.0955 23.8986V23.8933Z" fill="#2C62FF"/>
<path d="M11.8804 25.3181C5.72826 25.3181 0.910156 23.534 0.910156 21.2545C0.910156 18.975 5.723 17.1875 11.8804 17.1875C18.0379 17.1875 22.8507 18.9733 22.8507 21.251C22.8507 23.5288 18.0326 25.3146 11.8804 25.3146V25.3181Z" fill="#2C62FF"/>
<path d="M11.8809 25.1621C17.8535 25.1621 22.6953 23.4125 22.6953 21.2544C22.6953 19.0962 17.8535 17.3467 11.8809 17.3467C5.9082 17.3467 1.06641 19.0962 1.06641 21.2544C1.06641 23.4125 5.9082 25.1621 11.8809 25.1621Z" fill="#4573FF"/>
<path d="M11.8809 24.8347C6.06133 24.8347 1.31501 23.1732 1.07691 21.0898C1.06993 21.1444 1.06642 21.1994 1.06641 21.2544C1.06641 23.4131 5.90727 25.1639 11.8809 25.1639C17.8545 25.1639 22.6953 23.4131 22.6953 21.2544C22.6953 21.2001 22.6953 21.1441 22.6866 21.0898C22.4467 23.1732 17.7021 24.8347 11.8809 24.8347Z" fill="#2C62FF"/>
<path d="M9.19138 1.67462C9.29993 1.37349 9.54153 0.449084 11.6302 0.414069C13.7188 0.379053 14.0287 1.28945 14.1933 1.58533C14.3579 1.88121 19.9323 19.226 20.0391 19.802C20.1721 20.5146 20.1546 23.7395 12.0959 23.7395C4.03714 23.7395 3.16701 20.8332 3.43488 19.8475C3.70274 18.8618 9.19138 1.67462 9.19138 1.67462Z" fill="#4573FF"/>
<path d="M12.0962 23.7392C5.09314 23.7392 3.51745 21.5472 3.4019 20.3252C3.2846 21.4632 4.49788 24.0858 12.0962 24.0858C19.6 24.0858 20.1322 21.2478 20.0622 20.2744C19.9851 21.4107 18.9417 23.7392 12.0962 23.7392Z" fill="#2C62FF"/>
<path d="M13.8705 1.37809C13.8705 1.84029 12.9005 2.21495 11.7048 2.21495C10.509 2.21495 9.53906 1.84029 9.53906 1.37809C9.53906 0.915885 10.509 0.542969 11.7048 0.542969C12.9005 0.542969 13.8705 0.915885 13.8705 1.37809Z" fill="#2C62FF"/>
<path d="M13.6484 1.28234C13.6484 1.66576 12.773 1.98265 11.7051 1.98265C10.6371 1.98265 9.76172 1.67101 9.76172 1.28234C9.76172 0.893669 10.6371 0.582031 11.7051 0.582031C12.773 0.582031 13.6484 0.905924 13.6484 1.28234Z" fill="#2C62FF"/>
<path d="M11.905 1.14226C11.905 1.18603 11.8104 1.22104 11.6966 1.22104C11.5828 1.22104 11.4883 1.18603 11.4883 1.14226C11.4883 1.09849 11.5811 1.06348 11.6966 1.06348C11.8122 1.06348 11.905 1.10024 11.905 1.14226Z" fill="#2C62FF"/>
<path d="M10.4324 2.17676C10.7942 2.29666 11.1763 2.34366 11.5564 2.31506C11.5862 2.94184 12.4055 23.473 12.4055 23.473C12.4055 23.473 8.53283 23.9125 5.33594 22.3228C5.8279 20.6053 10.4324 2.17676 10.4324 2.17676Z" fill="#8CDDF8"/>
<path d="M14.0316 1.62012C13.9997 1.73246 13.929 1.82986 13.832 1.89499C13.9406 2.31517 18.2527 22.3789 18.2527 22.3789C18.2527 22.3789 19.0388 21.9587 19.4415 21.3372C19.8441 20.7157 19.9667 20.369 19.8984 19.9664C19.8301 19.5637 14.0316 1.62012 14.0316 1.62012Z" fill="#2C62FF"/>
<path d="M9.42933 1.47461C9.43081 1.51924 9.44117 1.56313 9.45981 1.60371C9.47845 1.64429 9.50499 1.68075 9.53787 1.71096C9.39256 2.18717 3.74633 20.9343 3.74633 20.9343C3.74633 20.9343 3.51523 20.2113 3.57126 19.9557C3.70257 19.4637 9.42933 1.47461 9.42933 1.47461Z" fill="#8CDDF8"/>
</svg>
