<svg width="23" height="31" viewBox="0 0 23 31" fill="none" xmlns="http://www.w3.org/2000/svg">
<path d="M13.732 30.9564C13.6792 30.9621 13.6258 30.9572 13.575 30.9417C13.5242 30.9262 13.4771 30.9006 13.4365 30.8664C13.3959 30.8322 13.3627 30.7901 13.3389 30.7427C13.315 30.6952 13.301 30.6434 13.2978 30.5904C12.4802 30.4364 8.62503 29.5575 7.77241 29.3649C7.72842 29.4328 7.66936 29.4896 7.59982 29.5309C7.53027 29.5722 7.45213 29.5969 7.37148 29.603C7.34295 29.6056 7.31423 29.6056 7.28569 29.603C7.1844 29.5789 7.09484 29.5199 7.03273 29.4363C6.97062 29.3528 6.93993 29.25 6.94605 29.1461C6.3823 29.0008 3.69488 28.3792 1.83732 27.952C1.707 28.0271 1.56175 28.0725 1.41189 28.0851C1.38122 28.0854 1.35065 28.0819 1.32085 28.0746C1.0845 28.0151 0.981201 27.7402 0.986453 27.5319C0.895077 27.2909 0.849362 27.035 0.851644 26.7773C0.870383 26.6233 0.930614 26.4773 1.0259 26.3549C1.12119 26.2324 1.24794 26.1382 1.39263 26.0822C1.64124 25.9754 5.87283 23.927 6.51361 23.6189C6.74996 21.8857 9.51792 1.6696 9.57569 1.34396C9.66673 0.829232 10.1622 0.619141 11.2862 0.619141C12.4102 0.619141 12.8146 0.794217 12.9547 1.35271C13.051 1.73438 16.6505 21.5443 16.9814 23.4123C18.5448 23.7222 21.3793 24.2789 21.6157 24.3087C22.0026 24.356 22.5698 24.7552 22.5453 25.2454C22.5352 25.4166 22.488 25.5835 22.407 25.7347C22.326 25.8858 22.2131 26.0175 22.0761 26.1208C21.9911 26.1803 21.8894 26.2116 21.7855 26.21H21.74C21.3373 26.4762 19.1926 27.7577 18.5886 28.1184C18.58 28.2173 18.5363 28.3098 18.4653 28.3792C18.3943 28.4486 18.3008 28.4902 18.2017 28.4965C18.1357 28.4957 18.0706 28.4808 18.0109 28.4528C17.4489 28.7924 14.7912 30.2123 14.1995 30.5274C14.1863 30.6328 14.1424 30.7321 14.0734 30.8128C14.0321 30.8569 13.9822 30.892 13.9268 30.9161C13.8714 30.9402 13.8117 30.9527 13.7513 30.9529L13.732 30.9564Z" fill="#2C62FF"/>
<path d="M6.66749 23.7328C6.66749 23.7328 9.6823 1.70996 9.74183 1.37732C9.80135 1.04467 10.0745 0.789062 11.2878 0.789062C12.501 0.789062 12.7041 1.00441 12.7952 1.39658C12.8862 1.78875 16.8464 23.556 16.8464 23.556C16.8464 23.556 21.2916 24.4314 21.605 24.4769C21.9184 24.5224 22.4068 24.848 22.3876 25.2402C22.3786 25.3849 22.339 25.5261 22.2714 25.6544C22.2038 25.7826 22.1097 25.8951 21.9954 25.9843C21.9528 26.0132 21.9048 26.0332 21.8542 26.0431C21.8037 26.053 21.7517 26.0527 21.7013 26.0421C21.5455 26.1699 18.4431 28.0204 18.4431 28.0204C18.4431 28.0204 18.4134 28.5089 18.0124 28.2655C17.7778 28.4406 14.047 30.4277 14.047 30.4277C14.047 30.4277 14.068 30.7779 13.7546 30.7901C13.4412 30.8024 13.4709 30.5853 13.4499 30.44C13.1383 30.412 7.69519 29.1689 7.69519 29.1689C7.69519 29.1689 7.54812 29.4718 7.32403 29.4228C7.09993 29.3738 7.11743 29.1479 7.10868 29.0008C6.9336 28.9326 1.81263 27.7578 1.81263 27.7578C1.81263 27.7578 1.5185 27.9329 1.36268 27.8961C1.20686 27.8593 1.13683 27.6212 1.15609 27.4742C1.04929 27.3184 1.01953 26.9174 1.01953 26.7599C1.04185 26.6418 1.09415 26.5315 1.17142 26.4395C1.24868 26.3476 1.34831 26.277 1.46072 26.2346C1.73384 26.1208 6.66749 23.7328 6.66749 23.7328Z" fill="#4573FF"/>
<path d="M12.1189 1.19177C12.1189 1.30032 11.7145 1.38961 11.2137 1.38961C10.713 1.38961 10.3086 1.30032 10.3086 1.19177C10.3086 1.08323 10.713 0.992188 11.2137 0.992188C11.7145 0.992188 12.1189 1.08148 12.1189 1.19177Z" fill="#2C62FF"/>
<path d="M6.66574 23.7334C6.66574 23.7334 6.43639 25.1183 6.48016 25.4561C6.52393 25.794 6.4504 26.5276 9.50373 27.1159C7.9473 26.4979 6.59221 25.9796 6.66574 23.7334Z" fill="#4573FF"/>
<path d="M16.8679 23.7334C16.8679 23.7334 17.029 24.6193 17.0587 24.8696C17.1052 25.0848 17.0859 25.309 17.0035 25.5131C16.9211 25.7173 16.7793 25.892 16.5965 26.0146C16.031 26.4611 13.7953 27.1964 13.0215 27.3505C14.7985 26.6081 15.1854 26.4593 15.7597 26.1687C16.46 25.8186 16.8101 25.5419 16.8749 24.9712C16.8952 24.5588 16.8929 24.1456 16.8679 23.7334Z" fill="#2C62FF"/>
<path d="M17.0208 23.7334C17.0208 23.7334 17.4462 25.134 17.2256 25.5419C17.005 25.9499 16.7704 26.3525 15.6114 26.8515C16.331 26.6449 16.7862 26.4541 17.012 26.3806C17.012 26.8655 17.3534 27.4678 16.4553 27.9808C15.5571 28.4937 14.2213 29.2063 14.0742 29.3183C16.5113 28.0928 21.6218 25.162 21.8424 25.0307C22.063 24.8994 22.0472 24.7366 21.6953 24.6631C21.3434 24.5895 17.0208 23.7334 17.0208 23.7334Z" fill="#2C62FF"/>
<path d="M6.52523 23.9434C6.52523 23.9434 6.2381 25.0919 6.32739 25.5418C6.41668 25.9918 6.44469 26.2123 7.55293 26.8059C6.81235 26.7919 6.11205 26.3156 6.93141 27.9439C5.23317 27.5709 1.81218 26.7183 1.60734 26.6745C1.4025 26.6308 1.30621 26.4837 1.5338 26.3664C1.7614 26.2491 6.52523 23.9434 6.52523 23.9434Z" fill="#4573FF"/>
<path d="M14.3984 30.0757C14.4253 29.9104 14.4253 29.7419 14.3984 29.5767C14.8781 29.3421 22.1928 25.2471 22.1928 25.2471C22.1928 25.2471 22.3136 25.4747 21.9827 25.7303C21.5048 26.0139 14.3984 30.0757 14.3984 30.0757Z" fill="#2C62FF"/>
<path d="M9.97834 1.17292C9.90306 1.25521 10.0221 1.348 10.1692 1.39002C10.346 1.43466 10.5256 1.468 10.7067 1.48981C10.325 1.38127 10.1814 1.31474 10.2007 1.20619C10.2199 1.09764 10.1604 0.97859 9.97834 1.17292Z" fill="#8CDDF8"/>
<path d="M12.5043 1.17292C12.5744 1.25521 12.4641 1.348 12.3293 1.39002C12.166 1.43453 11.9998 1.46787 11.832 1.48981C12.1822 1.38127 12.3258 1.31474 12.3012 1.20619C12.2767 1.09764 12.3363 0.97859 12.5043 1.17292Z" fill="#2C62FF"/>
<path d="M9.88085 1.27734C9.88085 1.27734 9.85984 1.55396 10.5969 1.60474C10.5829 2.02142 9.50444 26.919 9.50444 26.919C9.50444 26.919 7.79044 26.4673 7.32999 25.6409C7.00119 25.0626 6.8871 24.3868 7.00785 23.7326C7.06738 23.3457 9.88085 1.27734 9.88085 1.27734Z" fill="#8CDDF8"/>
<path d="M12.0508 1.57182C12.1568 1.56814 12.2611 1.5435 12.3575 1.49933C12.454 1.45516 12.5407 1.39232 12.6128 1.31445C12.6933 1.82743 16.6028 23.4458 16.6518 23.789C16.7008 24.1321 16.7971 24.8552 16.7008 25.1598C16.6045 25.4645 16.0635 25.9039 15.3597 26.2103C15.1829 24.7309 12.0508 1.57182 12.0508 1.57182Z" fill="#2C62FF"/>
<path d="M10.7461 27.207C10.7461 27.207 11.9856 27.3051 12.4443 27.2823C11.5234 27.4626 11.4884 27.5852 10.7461 27.207Z" fill="#8CDDF8"/>
<path d="M13.1406 29.5671C13.3726 29.6128 13.6118 29.6062 13.8409 29.5479C13.7131 29.8122 13.5958 30.1799 13.1406 29.5671Z" fill="#8CDDF8"/>
<path d="M1.18079 26.8145C1.1689 26.8722 1.1689 26.9318 1.18079 26.9895C1.62023 27.1208 13.0947 29.8363 13.0947 29.8363L12.8969 29.5877L1.18079 26.8145Z" fill="#4573FF"/>
</svg>
