<svg width="19" height="58" viewBox="0 0 19 58" fill="none" xmlns="http://www.w3.org/2000/svg">
<path fill-rule="evenodd" clip-rule="evenodd" d="M5.48136 12.0927C6.00133 12.1129 6.32266 11.296 6.02771 10.8673C5.3347 9.86003 4.9136 8.53217 4.9136 7.07695C4.9136 3.92893 6.88423 1.37695 9.31514 1.37695C11.746 1.37695 13.7167 3.92893 13.7167 7.07695C13.7167 8.65526 13.2213 10.0837 12.421 11.1159C12.1035 11.5254 12.3641 12.3596 12.8818 12.3797L15.9375 12.4981C17.1198 12.544 18.0191 13.5768 17.9018 14.7542L16.4491 29.3418C16.3445 30.3922 15.4607 31.1923 14.4051 31.1923C14.348 31.1923 14.3003 31.2358 14.295 31.2927L12.3507 52.1383C12.3271 52.3919 12.4936 52.6228 12.7378 52.6951C14.0919 53.096 14.9639 53.7244 14.9639 54.4308C14.9639 55.6416 12.4021 56.6231 9.24191 56.6231C6.08174 56.6231 3.51991 55.6416 3.51991 54.4308C3.51991 53.7946 4.22732 53.2216 5.35723 52.8211C5.58873 52.7391 5.74329 52.5146 5.72046 52.27L3.78159 31.5001C3.7612 31.2816 3.60121 31.106 3.40059 31.0172C2.74081 30.7251 2.25974 30.0948 2.18673 29.3347L0.736687 14.24C0.617741 13.0018 1.61795 11.9429 2.86091 11.9911L5.48136 12.0927ZM9.30047 52.179C9.30106 52.2117 9.27464 52.2385 9.24191 52.2385C8.97941 52.2385 8.76344 52.0262 8.76822 51.7637L9.03056 37.3627L9.30047 52.179Z" fill="white"/>
<path fill-rule="evenodd" clip-rule="evenodd" d="M9.31617 1.63363C11.5475 1.63363 13.461 4.00498 13.461 7.07687C13.461 8.60309 12.9817 9.97505 12.2191 10.9585C11.9906 11.2532 11.9883 11.6627 12.0964 11.9772C12.2036 12.2889 12.4631 12.6203 12.8729 12.6361L15.9285 12.7546C16.9631 12.7947 17.75 13.6984 17.6474 14.7287L16.1946 29.3163C16.1031 30.2354 15.3298 30.9355 14.4062 30.9355C14.2165 30.9355 14.058 31.0799 14.0404 31.2688L12.0961 52.1144C12.0604 52.4978 12.3117 52.8363 12.666 52.9412C13.326 53.1366 13.8503 53.3826 14.2039 53.6524C14.5607 53.9247 14.7082 54.1917 14.7082 54.4307C14.7082 54.6358 14.6007 54.8603 14.3429 55.0938C14.0851 55.3273 13.6977 55.5494 13.1972 55.7411C12.1978 56.124 10.7999 56.3663 9.24294 56.3663C7.68603 56.3663 6.28808 56.124 5.28874 55.7411C4.78819 55.5494 4.40077 55.3273 4.14297 55.0938C3.88519 54.8603 3.77769 54.6358 3.77769 54.4307C3.77769 54.2153 3.89663 53.978 4.18304 53.7324C4.46869 53.4874 4.89619 53.2572 5.44404 53.063C5.77803 52.9447 6.0117 52.6163 5.97714 52.2461L4.03827 31.4761C4.007 31.1411 3.76665 30.8979 3.50557 30.7823C2.92783 30.5265 2.5072 29.9749 2.44334 29.3101L0.993299 14.2154C0.889221 13.132 1.7644 12.2054 2.85199 12.2476L5.47244 12.3492C5.88407 12.3652 6.1683 12.0527 6.29748 11.7486C6.42774 11.4421 6.45332 11.0313 6.24027 10.7217C5.5787 9.76011 5.17138 8.48373 5.17138 7.07687C5.17138 4.00498 7.08484 1.63363 9.31617 1.63363ZM13.9745 7.07687C13.9745 3.85272 11.9467 1.12012 9.31617 1.12012C6.68569 1.12012 4.65787 3.85272 4.65787 7.07687C4.65787 8.58046 5.09276 9.95979 5.81721 11.0128C5.89912 11.1318 5.91151 11.3439 5.82485 11.5479C5.73711 11.7544 5.60069 11.8403 5.49234 11.8361L2.87189 11.7345C1.47355 11.6802 0.348326 12.8715 0.48214 14.2645L1.93218 29.3592C2.01435 30.2145 2.55585 30.9234 3.29767 31.2519C3.43784 31.3139 3.51747 31.422 3.52698 31.5239L5.46585 52.2938C5.47695 52.4127 5.4015 52.5333 5.27249 52.579C4.69042 52.7853 4.19926 53.0419 3.84873 53.3426C3.49895 53.6426 3.26418 54.0099 3.26418 54.4307C3.26418 54.831 3.47691 55.1833 3.79823 55.4744C4.11952 55.7654 4.57008 56.0157 5.10501 56.2207C6.17662 56.6312 7.63968 56.8798 9.24294 56.8798C10.8462 56.8798 12.3093 56.6312 13.3809 56.2207C13.9158 56.0157 14.3664 55.7654 14.6877 55.4744C15.009 55.1833 15.2217 54.831 15.2217 54.4307C15.2217 53.9633 14.9332 53.5629 14.5154 53.2442C14.0945 52.923 13.5058 52.6543 12.8117 52.4488C12.6775 52.4091 12.5959 52.2859 12.6074 52.1621L14.5397 31.4452C15.6675 31.3807 16.5924 30.5043 16.7056 29.3672L18.1583 14.7796C18.2903 13.4549 17.2786 12.2931 15.9484 12.2415L12.8928 12.123C12.7849 12.1188 12.6552 12.023 12.582 11.8102C12.5098 11.6002 12.5359 11.388 12.6249 11.2732C13.463 10.1923 13.9745 8.70727 13.9745 7.07687ZM9.0316 37.1059C8.89161 37.1059 8.77743 37.218 8.77488 37.358L8.51254 51.7589C8.50505 52.1703 8.84218 52.4952 9.24294 52.4952C9.41863 52.4952 9.56144 52.3512 9.55821 52.1742L9.28831 37.358C9.28576 37.218 9.17158 37.1059 9.0316 37.1059ZM9.03856 51.842C9.02996 51.8188 9.0255 51.7939 9.02597 51.7683L9.03159 51.4595L9.03856 51.842Z" fill="#2C62FF"/>
<path fill-rule="evenodd" clip-rule="evenodd" d="M5.39253 11.7973L8.73036 19.7567L8.98712 31.054H3.59523L2.05469 11.5405L5.39253 11.7973ZM13.6087 12.054L9.75739 19.7567L9.50063 31.054H14.8925L16.6898 12.3108L13.6087 12.054Z" fill="#2C62FF"/>
</svg>
