<svg width="13" height="58" viewBox="0 0 13 58" fill="none" xmlns="http://www.w3.org/2000/svg">
<path fill-rule="evenodd" clip-rule="evenodd" d="M8.08059 12.3828C7.77246 12.1701 7.74773 11.7059 8.00571 11.4346C9.15076 10.2303 9.89916 8.2373 9.89916 5.98254C9.89916 2.30578 7.90909 0.5 5.45421 0.5C2.99933 0.5 1.00926 2.30578 1.00926 5.98254C1.00926 7.9668 1.58887 9.74829 2.50833 10.968C2.59063 11.0771 2.63286 11.2119 2.62051 11.348L1.0143 29.0558C1.01095 29.0927 1.01154 29.1299 1.01606 29.1667L3.87781 52.4876C3.91145 52.7618 3.72528 53.0134 3.45623 53.0759C1.67912 53.4886 0.486328 54.2517 0.486328 55.1248C0.486328 56.4366 3.17878 57.5 6.50008 57.5C9.82139 57.5 12.5138 56.4366 12.5138 55.1248C12.5138 54.3128 11.4821 53.5959 9.90824 53.1676C9.65531 53.0988 9.48066 52.8629 9.50342 52.6018C9.91811 47.8456 10.712 37.8289 10.8813 29.1114C10.9464 25.7578 11.1406 23.4133 11.2878 21.6348C11.527 18.7466 11.6425 17.3509 10.8813 15.5499C10.2772 14.1207 9.04446 13.0481 8.08059 12.3828Z" fill="white"/>
<path fill-rule="evenodd" clip-rule="evenodd" d="M7.62673 11.0742C8.66013 9.98735 9.37623 8.13396 9.37623 5.98254C9.37623 4.23614 8.90441 3.00046 8.20526 2.20859C7.51039 1.42159 6.54788 1.02294 5.45421 1.02294C4.36055 1.02294 3.39803 1.42159 2.70316 2.20859C2.00401 3.00046 1.5322 4.23614 1.5322 5.98254C1.5322 7.87223 2.08545 9.53831 2.92591 10.6532C3.08012 10.8577 3.16629 11.1199 3.1413 11.3953L1.5351 29.103L4.39685 52.4239C4.46489 52.9783 4.08914 53.4657 3.57453 53.5853C2.72251 53.7831 2.04671 54.0576 1.59759 54.361C1.13465 54.6737 1.00926 54.9453 1.00926 55.1248C1.00926 55.2601 1.07657 55.4437 1.31582 55.6671C1.55589 55.8913 1.93172 56.1173 2.43981 56.3179C3.45292 56.7181 4.88824 56.9771 6.50008 56.9771C8.11193 56.9771 9.54724 56.7181 10.5604 56.3179C11.0684 56.1173 11.4443 55.8913 11.6843 55.6671C11.9236 55.4437 11.9909 55.2601 11.9909 55.1248C11.9909 54.9582 11.8845 54.7126 11.4915 54.4236C11.1067 54.1408 10.5218 53.8765 9.77091 53.6722C9.28884 53.541 8.93641 53.0846 8.98247 52.5564C9.39695 47.8025 10.1896 37.8003 10.3585 29.1012C10.4239 25.7311 10.6191 23.3736 10.7666 21.5923L10.7667 21.5917C11.0077 18.6813 11.1027 17.4169 10.3996 15.7535C9.85316 14.4606 8.71776 13.458 7.78353 12.8132C7.18247 12.3983 7.17202 11.5525 7.62673 11.0742ZM8.00571 11.4346C7.74773 11.7059 7.77246 12.1701 8.08059 12.3828C9.04446 13.0481 10.2772 14.1207 10.8813 15.5499C11.6425 17.3509 11.527 18.7466 11.2878 21.6348C11.1406 23.4133 10.9464 25.7578 10.8813 29.1114C10.712 37.8289 9.91811 47.8456 9.50342 52.6018C9.48066 52.8629 9.65531 53.0987 9.90824 53.1676C11.4821 53.5959 12.5138 54.3128 12.5138 55.1248C12.5138 56.4366 9.82139 57.5 6.50008 57.5C3.17878 57.5 0.486328 56.4366 0.486328 55.1248C0.486328 54.2517 1.67912 53.4886 3.45623 53.0759C3.72528 53.0134 3.91145 52.7618 3.87781 52.4876L1.01606 29.1667C1.01154 29.1299 1.01095 29.0927 1.0143 29.0558L2.62051 11.348C2.63286 11.2119 2.59063 11.0771 2.50833 10.968C1.58887 9.74829 1.00926 7.9668 1.00926 5.98254C1.00926 2.30578 2.99933 0.5 5.45421 0.5C7.90909 0.5 9.89916 2.30578 9.89916 5.98254C9.89916 8.2373 9.15076 10.2303 8.00571 11.4346Z" fill="#2C62FF"/>
<path d="M5.73202 13.0001L2.05513 11.5796L0.486328 15.2743L1.00926 29.9126C1.00926 29.9126 7.63423 31.2615 9.93184 29.0806L10.4221 18.9691L5.73202 13.0001Z" fill="#2C62FF"/>
<path d="M1.29426 15.52C1.14205 14.2045 2.17044 13.0503 3.4947 13.0503V13.0503C4.72007 13.0503 5.71263 14.0451 5.70982 15.2705L5.67468 30.5633C5.67301 31.2887 5.08445 31.876 4.35898 31.876V31.876C3.69085 31.876 3.1288 31.3752 3.052 30.7115L1.29426 15.52Z" fill="white"/>
<path fill-rule="evenodd" clip-rule="evenodd" d="M1.03431 15.5503C0.864133 14.0795 2.01391 12.7891 3.49448 12.7891C4.86449 12.7891 5.97421 13.9013 5.97106 15.2713L5.93593 30.5641C5.93393 31.4338 5.2284 32.1377 4.35877 32.1377C3.55785 32.1377 2.88411 31.5374 2.79205 30.7418L1.03431 15.5503ZM3.49448 13.312C2.32654 13.312 1.41954 14.33 1.55378 15.4902L3.31152 30.6817C3.37305 31.2135 3.82341 31.6147 4.35877 31.6147C4.94006 31.6147 5.41166 31.1442 5.413 30.5629L5.44813 15.2701C5.45061 14.1894 4.57521 13.312 3.49448 13.312Z" fill="#2C62FF"/>
</svg>
