<svg width="22" height="64" viewBox="0 0 22 64" fill="none" xmlns="http://www.w3.org/2000/svg">
<rect x="11.4414" y="2" width="2" height="58" rx="1" fill="#4573FF" stroke="#2C62FF"/>
<path d="M3.13284 62.4204C3.45816 62.3113 3.75743 62.1871 4.02582 62.05C4.30026 61.8934 9.77338 58.8402 9.91984 58.7472C10.0663 58.6541 10.7958 58.5 12.5106 58.5C14.2255 58.5 14.992 58.6643 15.174 58.7799C15.356 58.8954 20.977 62.2066 21.105 62.2561C21.2329 62.3055 21.4149 62.4121 21.5969 62.4782C21.779 62.5443 22.1814 62.7504 21.7249 62.882C21.2685 63.0136 19.7854 63.4995 12.7666 63.4995C5.74782 63.4995 3.42434 62.9128 3.13284 62.7581C2.84133 62.6034 2.93376 62.4936 3.13284 62.4204Z" fill="#4573FF"/>
<path d="M14.7619 58.7025C14.7619 58.7917 13.7466 58.8649 12.4939 58.8649C11.2411 58.8649 10.2188 58.7917 10.2188 58.7025C10.2188 58.6132 11.234 58.54 12.4939 58.54C13.7537 58.54 14.7619 58.6113 14.7619 58.7025Z" fill="#2C62FF"/>
<path d="M12.4939 58.5818C13.6471 58.5818 14.5998 58.646 14.7434 58.723C14.7546 58.7173 14.7611 58.7101 14.7619 58.7025C14.7619 58.6126 13.7466 58.54 12.4939 58.54C11.2411 58.54 10.2188 58.6126 10.2188 58.7025C10.2196 58.7102 10.2267 58.7175 10.2387 58.723C10.388 58.6434 11.3407 58.5818 12.4939 58.5818Z" fill="#4573FF"/>
<path d="M14.8644 58.7212C14.8644 58.7212 14.7933 58.8643 13.4609 58.8945C14.7137 58.8746 14.9668 58.8515 15.0066 58.8252C15.0464 58.7989 14.9469 58.7398 14.8644 58.7212Z" fill="#8CDDF8"/>
<path d="M10.1309 58.7212C10.1309 58.7212 10.1963 58.8643 11.432 58.8945C10.2702 58.8746 10.0356 58.8515 9.99864 58.8252C9.96167 58.7989 10.0541 58.7398 10.1309 58.7212Z" fill="#8CDDF8"/>
<path d="M13.7832 58.9452C13.7832 58.9452 14.7686 58.917 14.9208 58.8945C15.0729 58.872 15.1213 58.8367 15.1056 58.7886C15.3602 58.9484 21.0224 62.2667 21.1603 62.336C21.2982 62.4053 21.6765 62.569 21.7533 62.6037C21.8301 62.6384 21.931 62.7321 21.8073 62.7963C21.6836 62.8605 20.7053 63.1994 18.187 63.3175C17.2727 62.4804 13.7832 58.9452 13.7832 58.9452Z" fill="#2C62FF"/>
<path d="M12.5589 58.9658C12.5589 58.9658 13.2371 58.9658 13.3679 58.9556C13.4462 59.0198 15.3246 63.421 15.3246 63.421C15.3246 63.421 12.0669 63.5044 10.9648 63.4454C11.2236 62.8297 12.5589 58.9658 12.5589 58.9658Z" fill="#8CDDF8"/>
<path d="M20.6083 61.9756L20.3097 61.8029C19.9472 61.9291 19.5286 62.0185 19.0825 62.0648C17.9165 62.1932 14.7143 62.3087 12.2031 62.2875C9.69191 62.2664 6.4726 62.1245 5.53269 61.8947C5.24797 61.8277 4.99298 61.7376 4.78047 61.6289L4.51172 61.7785C4.71501 61.9077 4.98883 62.0109 5.3066 62.0783C6.27779 62.2709 8.64962 62.5026 12.2557 62.4955C15.9684 62.4885 18.4725 62.3671 19.5887 62.2105C19.9625 62.1668 20.3105 62.0866 20.6083 61.9756Z" fill="#2C62FF"/>
<path d="M19.5848 62.169C18.4686 62.3256 15.9645 62.447 12.2518 62.454C8.64571 62.4611 6.27957 62.2319 5.30269 62.0368C5.00326 61.9736 4.74294 61.8782 4.54478 61.7588L4.50781 61.7787C4.7111 61.9079 4.98492 62.0111 5.30269 62.0785C6.27388 62.2711 8.64571 62.5028 12.2518 62.4957C15.9645 62.4887 18.4686 62.3674 19.5848 62.2107C19.9607 62.1671 20.3108 62.0867 20.6101 61.9751L20.566 61.9494C20.2755 62.0521 19.9416 62.1268 19.5848 62.169Z" fill="#8CDDF8"/>
<path d="M18.7168 60.87L18.4893 60.7416C18.2118 60.8378 17.8917 60.9061 17.5508 60.9419C16.6593 61.0381 14.2106 61.128 12.2896 61.112C10.3685 61.0959 7.90996 60.9868 7.19898 60.8083C6.97928 60.7576 6.78251 60.6888 6.61882 60.6055L6.41406 60.7204C6.56965 60.8192 6.77933 60.8982 7.02266 60.9496C7.76492 61.0985 9.58218 61.2737 12.3351 61.2705C15.179 61.2654 17.0887 61.1723 17.9419 61.0523C18.2269 61.0182 18.4916 60.9559 18.7168 60.87Z" fill="#2C62FF"/>
<path d="M17.9371 61.0085C17.0839 61.1285 15.1685 61.2216 12.3303 61.2267C9.57312 61.2319 7.76012 61.0566 7.01786 60.9057C6.79351 60.8584 6.59824 60.787 6.44908 60.6978C6.43628 60.7048 6.42491 60.7119 6.41211 60.7183C6.5677 60.8171 6.77738 60.8961 7.02071 60.9475C7.76297 61.0964 9.58023 61.2717 12.3331 61.2685C15.177 61.2633 17.0867 61.1702 17.9399 61.0502C18.2276 61.0172 18.4953 60.9555 18.7234 60.8698L18.6793 60.8448C18.4585 60.9211 18.2062 60.9768 17.9371 61.0085Z" fill="#8CDDF8"/>
<path d="M16.8064 59.7512L16.6499 59.66C16.4591 59.7264 16.239 59.7734 16.0044 59.798C15.3901 59.8622 13.7051 59.9264 12.3827 59.9155C11.0602 59.9046 9.36668 59.8295 8.87184 59.7088C8.72062 59.6737 8.58513 59.6263 8.47227 59.5688L8.33008 59.6478C8.43706 59.7158 8.58104 59.7702 8.74813 59.8057C9.25862 59.9084 10.5071 60.0291 12.4054 60.0253C14.3606 60.0214 15.6759 59.9611 16.266 59.8751C16.4642 59.8523 16.6488 59.81 16.8064 59.7512Z" fill="#2C62FF"/>
<path d="M16.268 59.8311C15.6807 59.9139 14.3625 59.9774 12.4074 59.9813C10.509 59.9851 9.26057 59.8645 8.75009 59.7617C8.60067 59.7306 8.46999 59.6837 8.369 59.625L8.33203 59.6455C8.43902 59.7135 8.583 59.7679 8.75009 59.8035C9.26057 59.9062 10.509 60.0269 12.4074 60.023C14.3625 60.0192 15.6779 59.9588 16.268 59.8728C16.4657 59.85 16.6497 59.8077 16.8069 59.7489L16.7628 59.7232C16.6146 59.7731 16.4466 59.8097 16.268 59.8311Z" fill="#8CDDF8"/>
<path d="M21.7248 62.7148C21.2684 62.8464 19.7853 63.3324 12.7665 63.3324C5.74771 63.3324 3.42423 62.7476 3.13273 62.5916C3.07522 62.5625 3.02733 62.5299 2.99053 62.4946C2.9109 62.5588 2.9237 62.6481 3.13273 62.7585C3.42423 62.9151 5.76051 63.4999 12.7722 63.4999C19.7839 63.4999 21.2684 63.014 21.7305 62.8824C21.7768 62.8718 21.8178 62.8572 21.8513 62.8393C21.8847 62.8214 21.9098 62.8007 21.925 62.7783C21.9403 62.756 21.9454 62.7325 21.9401 62.7092C21.9348 62.6859 21.9191 62.6634 21.894 62.6429C21.8508 62.6725 21.7929 62.6971 21.7248 62.7148Z" fill="#2C62FF"/>
<path d="M21.7245 62.7983C21.2681 62.9267 19.785 63.4159 12.7662 63.4159C5.74741 63.4159 3.41824 62.8311 3.12674 62.6744C3.04456 62.6344 2.98504 62.5859 2.95327 62.5332C2.91914 62.5935 2.95326 62.668 3.12674 62.7579C3.41824 62.9145 5.75452 63.4993 12.7662 63.4993C19.7778 63.4993 21.2624 63.0134 21.7245 62.8818C21.8009 62.8645 21.8621 62.8361 21.898 62.8011C21.9339 62.7661 21.9424 62.7267 21.9222 62.6892C21.8892 62.7355 21.8186 62.7745 21.7245 62.7983Z" fill="#2C62FF"/>
<path d="M4.68555 61.6796C4.90785 61.7868 5.16482 61.8781 5.44772 61.9505C5.80179 62.0237 7.34319 62.2214 9.06802 62.2324L9.80744 62.2362C7.95036 62.172 6.18714 62.0545 5.53304 61.8947C5.24832 61.8277 4.99333 61.7376 4.78082 61.6289L4.68555 61.6796Z" fill="#4573FF"/>
<path d="M9.74716 61.0414C8.60959 60.9894 7.61422 60.9098 7.18763 60.8083C6.96793 60.7576 6.77116 60.6888 6.60747 60.6055L6.56055 60.6324C6.66476 60.694 6.78947 60.7479 6.93025 60.7923C7.14497 60.8513 7.70807 60.9483 8.57119 61.0041C8.96133 61.0264 9.35394 61.0389 9.74716 61.0414Z" fill="#4573FF"/>
<path d="M8.43555 59.59C8.53632 59.6461 8.66109 59.6924 8.80241 59.7261C9.20771 59.8076 9.64018 59.8582 10.0822 59.8757C10.5039 59.8925 10.9273 59.8991 11.3506 59.8956C10.2898 59.8641 9.24037 59.7993 8.86924 59.7088C8.71801 59.6737 8.58253 59.6263 8.46967 59.5688L8.43555 59.59Z" fill="#4573FF"/>
</svg>
