<svg width="54" height="22" viewBox="0 0 54 22" fill="none" xmlns="http://www.w3.org/2000/svg">
<path fill-rule="evenodd" clip-rule="evenodd" d="M3.44672 11.8695L3.44672 11.8696C3.46046 12.2633 3.7657 13.0602 6.08892 13.731C8.25924 14.3577 11.3985 14.5937 15.0444 14.4664C18.6903 14.339 21.8055 13.8847 23.9268 13.1081C26.1975 12.2768 26.4465 11.4606 26.4327 11.0668C26.419 10.6731 26.1137 9.87623 23.7905 9.20537C21.6202 8.57865 18.4809 8.3427 14.835 8.47002C11.2143 8.59646 8.09928 9.10098 5.9744 9.90324C3.64815 10.7815 3.43748 11.6051 3.44672 11.8695ZM1.44793 11.9393C1.57387 15.5465 7.66291 16.7254 15.1142 16.4651C22.5655 16.2049 28.5575 14.6042 28.4315 10.9971C28.3055 7.38987 22.2165 6.21103 14.7652 6.47124C7.31391 6.73144 1.3296 8.55078 1.44793 11.9393Z" fill="#2C62FF" stroke="#2C62FF"/>
<path fill-rule="evenodd" clip-rule="evenodd" d="M27.4467 6.86954L27.4467 6.86955C27.4605 7.26332 27.7657 8.06015 30.0889 8.73102C32.2592 9.35773 35.3985 9.59369 39.0444 9.46637C42.6903 9.33905 45.8055 8.88469 47.9268 8.10811C50.1975 7.27682 50.4465 6.46063 50.4327 6.06685C50.419 5.67307 50.1137 4.87623 47.7905 4.20537C45.6202 3.57865 42.4809 3.3427 38.835 3.47002C35.2143 3.59646 32.0993 4.10098 29.9744 4.90324C27.6481 5.78153 27.4375 6.60512 27.4467 6.86954ZM25.4479 6.93934C25.5739 10.5465 31.6629 11.7254 39.1142 11.4651C46.5655 11.2049 52.5575 9.60423 52.4315 5.99705C52.3055 2.38987 46.2165 1.21103 38.7652 1.47124C31.3139 1.73144 25.3296 3.55078 25.4479 6.93934Z" fill="#2C62FF" stroke="#2C62FF"/>
<path fill-rule="evenodd" clip-rule="evenodd" d="M26.4467 16.8695L26.4467 16.8696C26.4605 17.2633 26.7657 18.0602 29.0889 18.731C31.2592 19.3577 34.3985 19.5937 38.0444 19.4664C41.6903 19.339 44.8055 18.8847 46.9268 18.1081C49.1975 17.2768 49.4465 16.4606 49.4327 16.0668C49.419 15.6731 49.1137 14.8762 46.7905 14.2054C44.6202 13.5787 41.4809 13.3427 37.835 13.47C34.2143 13.5965 31.0993 14.101 28.9744 14.9032C26.6481 15.7815 26.4375 16.6051 26.4467 16.8695ZM24.4479 16.9393C24.5739 20.5465 30.6629 21.7254 38.1142 21.4651C45.5655 21.2049 51.5575 19.6042 51.4315 15.9971C51.3055 12.3899 45.2165 11.211 37.7652 11.4712C30.3139 11.7314 24.3296 13.5508 24.4479 16.9393Z" fill="#2C62FF" stroke="#2C62FF"/>
</svg>
