<svg width="85" height="14" viewBox="0 0 85 14" fill="none" xmlns="http://www.w3.org/2000/svg">
<path fill-rule="evenodd" clip-rule="evenodd" d="M3.44672 8.40128L3.44672 8.40129C3.46046 8.79506 3.7657 9.59189 6.08892 10.2628C8.25924 10.8895 11.3985 11.1254 15.0444 10.9981C18.6903 10.8708 21.8055 10.4164 23.9268 9.63985C26.1975 8.80856 26.4465 7.99237 26.4327 7.59859C26.419 7.20481 26.1137 6.40797 23.7905 5.73711C21.6202 5.11039 18.4809 4.87444 14.835 5.00176C11.2143 5.1282 8.09928 5.63271 5.9744 6.43498C3.64815 7.31327 3.43748 8.13686 3.44672 8.40128ZM1.44793 8.47108C1.57387 12.0783 7.66291 13.2571 15.1142 12.9969C22.5655 12.7367 28.5575 11.136 28.4315 7.52879C28.3055 3.92161 22.2165 2.74277 14.7652 3.00298C7.31391 3.26318 1.3296 5.08252 1.44793 8.47108Z" fill="#2C62FF" stroke="#2C62FF"/>
<path fill-rule="evenodd" clip-rule="evenodd" d="M31.4467 7.40128L31.4467 7.40129C31.4605 7.79506 31.7657 8.59189 34.0889 9.26276C36.2592 9.88947 39.3985 10.1254 43.0444 9.9981C46.6903 9.87079 49.8055 9.41643 51.9268 8.63985C54.1975 7.80856 54.4465 6.99237 54.4327 6.59859C54.419 6.20481 54.1137 5.40797 51.7905 4.73711C49.6202 4.11039 46.4809 3.87444 42.835 4.00176C39.2143 4.1282 36.0993 4.63271 33.9744 5.43498C31.6481 6.31327 31.4375 7.13686 31.4467 7.40128ZM29.4479 7.47108C29.5739 11.0783 35.6629 12.2571 43.1142 11.9969C50.5655 11.7367 56.5575 10.136 56.4315 6.52879C56.3055 2.92161 50.2165 1.74277 42.7652 2.00298C35.3139 2.26318 29.3296 4.08252 29.4479 7.47108Z" fill="#2C62FF" stroke="#2C62FF"/>
<path fill-rule="evenodd" clip-rule="evenodd" d="M59.4467 6.40128L59.4467 6.40129C59.4605 6.79506 59.7657 7.59189 62.0889 8.26276C64.2592 8.88947 67.3985 9.12542 71.0444 8.9981C74.6903 8.87079 77.8055 8.41643 79.9268 7.63985C82.1975 6.80856 82.4465 5.99237 82.4327 5.59859C82.419 5.20481 82.1137 4.40797 79.7905 3.73711C77.6202 3.11039 74.4809 2.87444 70.835 3.00176C67.2143 3.1282 64.0993 3.63271 61.9744 4.43498C59.6481 5.31327 59.4375 6.13686 59.4467 6.40128ZM57.4479 6.47108C57.5739 10.0783 63.6629 11.2571 71.1142 10.9969C78.5655 10.7367 84.5575 9.13597 84.4315 5.52879C84.3055 1.92161 78.2165 0.742773 70.7652 1.00298C63.3139 1.26318 57.3296 3.08252 57.4479 6.47108Z" fill="#2C62FF" stroke="#2C62FF"/>
</svg>
