<svg width="29" height="12" viewBox="0 0 29 12" fill="none" xmlns="http://www.w3.org/2000/svg">
<path fill-rule="evenodd" clip-rule="evenodd" d="M3.11469 6.40128L3.11469 6.40129C3.12843 6.79506 3.43367 7.59189 5.75689 8.26276C7.92721 8.88947 11.0664 9.12542 14.7124 8.9981C18.3583 8.87079 21.4734 8.41643 23.5947 7.63985C25.8655 6.80856 26.1144 5.99237 26.1007 5.59859C26.0869 5.20481 25.7817 4.40797 23.4585 3.73711C21.2881 3.11039 18.1489 2.87444 14.503 3.00176C10.8823 3.1282 7.76725 3.63271 5.64237 4.43498C3.31611 5.31327 3.10545 6.13686 3.11469 6.40128ZM1.1159 6.47108C1.24184 10.0783 7.33088 11.2571 14.7822 10.9969C22.2335 10.7367 28.2254 9.13597 28.0995 5.52879C27.9735 1.92161 21.8845 0.742773 14.4332 1.00298C6.98188 1.26318 0.997573 3.08252 1.1159 6.47108Z" fill="#2C62FF" stroke="#2C62FF"/>
</svg>
