<svg width="116" height="13" viewBox="0 0 116 13" fill="none" xmlns="http://www.w3.org/2000/svg">
<path fill-rule="evenodd" clip-rule="evenodd" d="M12.1445 2.66016C10.4877 2.66016 9.14453 4.0033 9.14453 5.66016C9.14453 8.42158 6.90595 10.6602 4.14453 10.6602H0.144531V8.66016H4.14453C5.80139 8.66016 7.14453 7.31701 7.14453 5.66016C7.14453 2.89873 9.38311 0.660156 12.1445 0.660156C14.906 0.660156 17.1445 2.89873 17.1445 5.66016C17.1445 7.31701 18.4877 8.66016 20.1445 8.66016C21.8014 8.66016 23.1445 7.31701 23.1445 5.66016C23.1445 2.89873 25.3831 0.660156 28.1445 0.660156C30.906 0.660156 33.1445 2.89873 33.1445 5.66016C33.1445 7.31701 34.4877 8.66016 36.1445 8.66016C37.8014 8.66016 39.1445 7.31701 39.1445 5.66016C39.1445 2.89873 41.3831 0.660156 44.1445 0.660156C46.906 0.660156 49.1445 2.89873 49.1445 5.66016C49.1445 7.31701 50.4877 8.66016 52.1445 8.66016C53.8014 8.66016 55.1445 7.31701 55.1445 5.66016C55.1445 2.89873 57.3831 0.660156 60.1445 0.660156C62.906 0.660156 65.1445 2.89873 65.1445 5.66016C65.1445 7.31701 66.4877 8.66016 68.1445 8.66016C69.8014 8.66016 71.1445 7.31701 71.1445 5.66016C71.1445 2.89873 73.3831 0.660156 76.1445 0.660156C78.906 0.660156 81.1445 2.89873 81.1445 5.66016C81.1445 7.31701 82.4877 8.66016 84.1445 8.66016C85.8014 8.66016 87.1445 7.31701 87.1445 5.66016C87.1445 2.89873 89.3831 0.660156 92.1445 0.660156H93.6445C95.5775 0.660156 97.1445 2.22716 97.1445 4.16016C97.1445 4.98858 97.8161 5.66016 98.6445 5.66016H99.5V0.886654L115.5 6.66016L99.5 12.4337V7.66016H98.6445C96.7115 7.66016 95.1445 6.09315 95.1445 4.16016C95.1445 3.33173 94.473 2.66016 93.6445 2.66016H92.1445C90.4877 2.66016 89.1445 4.0033 89.1445 5.66016C89.1445 8.42158 86.906 10.6602 84.1445 10.6602C81.3831 10.6602 79.1445 8.42158 79.1445 5.66016C79.1445 4.0033 77.8014 2.66016 76.1445 2.66016C74.4877 2.66016 73.1445 4.0033 73.1445 5.66016C73.1445 8.42158 70.906 10.6602 68.1445 10.6602C65.3831 10.6602 63.1445 8.42158 63.1445 5.66016C63.1445 4.0033 61.8014 2.66016 60.1445 2.66016C58.4877 2.66016 57.1445 4.0033 57.1445 5.66016C57.1445 8.42158 54.906 10.6602 52.1445 10.6602C49.3831 10.6602 47.1445 8.42158 47.1445 5.66016C47.1445 4.0033 45.8014 2.66016 44.1445 2.66016C42.4877 2.66016 41.1445 4.0033 41.1445 5.66016C41.1445 8.42158 38.906 10.6602 36.1445 10.6602C33.3831 10.6602 31.1445 8.42158 31.1445 5.66016C31.1445 4.0033 29.8014 2.66016 28.1445 2.66016C26.4877 2.66016 25.1445 4.0033 25.1445 5.66016C25.1445 8.42158 22.906 10.6602 20.1445 10.6602C17.3831 10.6602 15.1445 8.42158 15.1445 5.66016C15.1445 4.0033 13.8014 2.66016 12.1445 2.66016Z" fill="#2c62ff"/>
</svg>
