<svg width="69" height="17" viewBox="0 0 69 17" fill="none" xmlns="http://www.w3.org/2000/svg">
<path fill-rule="evenodd" clip-rule="evenodd" d="M34.0208 2.63724C32.1814 2.52488 30.3832 2.52069 28.6329 2.60892L28.5322 0.611452C30.3545 0.519599 32.2271 0.523939 34.1427 0.640961L34.0208 2.63724ZM23.2727 3.17645C21.4434 3.47215 19.6828 3.86202 18.0007 4.32423L17.4708 2.39571C19.2195 1.91519 21.0504 1.5097 22.9535 1.20208L23.2727 3.17645ZM44.6331 4.47883C42.8546 3.96574 41.0998 3.56501 39.3737 3.26484L39.7163 1.29441C41.5132 1.60688 43.3387 2.02383 45.1875 2.55721L44.6331 4.47883ZM57.058 1.56069L68.1429 16.9278L50.6222 11.1479L52.9562 7.67103C51.8746 7.15047 50.7987 6.67514 49.7296 6.24259L50.4797 4.38858C51.674 4.87175 52.8751 5.40591 54.0819 5.99403L57.058 1.56069ZM12.8829 6.02967C11.1224 6.72319 9.48548 7.4834 7.9879 8.27464L7.0536 6.50628C8.61525 5.68119 10.3193 4.88997 12.1499 4.16885L12.8829 6.02967ZM3.39691 11.0744C2.61789 11.624 1.91269 12.1676 1.28574 12.6938L0 11.1618C0.672605 10.5973 1.42239 10.0198 2.24392 9.44021L3.39691 11.0744Z" fill="#2c62ff"/>
</svg>
