<svg width="113" height="11" viewBox="0 0 113 11" fill="none" xmlns="http://www.w3.org/2000/svg">
<path d="M0.144531 9.66016H4.14453C6.35367 9.66016 8.14453 7.8693 8.14453 5.66016V5.66016C8.14453 3.45102 9.93539 1.66016 12.1445 1.66016V1.66016C14.3537 1.66016 16.1445 3.45102 16.1445 5.66016V5.66016C16.1445 7.8693 17.9354 9.66016 20.1445 9.66016V9.66016C22.3537 9.66016 24.1445 7.8693 24.1445 5.66016V5.66016C24.1445 3.45102 25.9354 1.66016 28.1445 1.66016V1.66016C30.3537 1.66016 32.1445 3.45102 32.1445 5.66016V5.66016C32.1445 7.8693 33.9354 9.66016 36.1445 9.66016V9.66016C38.3537 9.66016 40.1445 7.8693 40.1445 5.66016V5.66016C40.1445 3.45102 41.9354 1.66016 44.1445 1.66016V1.66016C46.3537 1.66016 48.1445 3.45102 48.1445 5.66016V5.66016C48.1445 7.8693 49.9354 9.66016 52.1445 9.66016V9.66016C54.3537 9.66016 56.1445 7.8693 56.1445 5.66016V5.66016C56.1445 3.45102 57.9354 1.66016 60.1445 1.66016V1.66016C62.3537 1.66016 64.1445 3.45102 64.1445 5.66016V5.66016C64.1445 7.8693 65.9354 9.66016 68.1445 9.66016V9.66016C70.3537 9.66016 72.1445 7.8693 72.1445 5.66016V5.66016C72.1445 3.45102 73.9354 1.66016 76.1445 1.66016V1.66016C78.3537 1.66016 80.1445 3.45102 80.1445 5.66016V5.66016C80.1445 7.8693 81.9354 9.66016 84.1445 9.66016V9.66016C86.3537 9.66016 88.1445 7.8693 88.1445 5.66016V5.66016C88.1445 3.45102 89.9354 1.66016 92.1445 1.66016V1.66016C94.3537 1.66016 96.1445 3.45102 96.1445 5.66016V5.66016C96.1445 7.8693 97.9354 9.66016 100.145 9.66016V9.66016C102.354 9.66016 104.145 7.8693 104.145 5.66016V5.66016C104.145 3.45102 105.935 1.66016 108.145 1.66016H113" stroke="#2c62ff" stroke-width="2"/>
</svg>
