<svg width="37" height="36" viewBox="0 0 37 36" fill="none" xmlns="http://www.w3.org/2000/svg">
<path fill-rule="evenodd" clip-rule="evenodd" d="M0.0234375 0H0.860647H7.55832H8.39553V0.837209V3.34884H27.6513V0.837209V0H28.4886H35.1862H36.0234V0.837209V7.53488V8.37209H35.1862H32.6746V27.6279H35.1862H36.0234V28.4651V35.1628V36H35.1862H28.4886H27.6513V35.1628V32.6512H8.39553V35.1628V36H7.55832H0.860647H0.0234375V35.1628V28.4651V27.6279H0.860647H3.37227L3.37227 8.37209H0.860647H0.0234375V7.53488V0.837209V0ZM8.39553 30.9767H27.6513V28.4651V27.6279H28.4886H31.0002V8.37209H28.4886H27.6513V7.53488V5.02326H8.39553V7.53488V8.37209H7.55832H5.04669L5.04669 27.6279H7.55832H8.39553V28.4651V30.9767ZM1.69786 1.67442V6.69767H6.72111V1.67442H1.69786ZM16.6362 24.0212V14.58H13.4188V12.5581H22.2622V14.58H19.0448V24.0212H16.6362ZM1.69786 34.3256V29.3023H6.72111V34.3256H1.69786ZM29.3258 1.67442V6.69767H34.349V1.67442H29.3258ZM29.3258 34.3256V29.3023H34.349V34.3256H29.3258Z" fill="#3F3F3F"/>
</svg>
